<?xml version="1.0" encoding="UTF-8" standalone="no"?>
<svg
   pointer-events="none"
   class="leaflet-zoom-animated"
   width="1135"
   height="626"
   viewBox="-95 -52 1135 626"
   style="transform: translate3d(-95px, -52px, 0px);"
   version="1.1"
   id="svg1"
   sodipodi:docname="上海市.svg"
   inkscape:version="1.4 (86a8ad7, 2024-10-11)"
   xmlns:inkscape="http://www.inkscape.org/namespaces/inkscape"
   xmlns:sodipodi="http://sodipodi.sourceforge.net/DTD/sodipodi-0.dtd"
   xmlns="http://www.w3.org/2000/svg"
   xmlns:svg="http://www.w3.org/2000/svg">
  <defs
     id="defs1" />
  <sodipodi:namedview
     id="namedview1"
     pagecolor="#ffffff"
     bordercolor="#000000"
     borderopacity="0.25"
     inkscape:showpageshadow="2"
     inkscape:pageopacity="0.0"
     inkscape:pagecheckerboard="0"
     inkscape:deskcolor="#d1d1d1"
     inkscape:zoom="4.9648562"
     inkscape:cx="602.9379"
     inkscape:cy="389.43726"
     inkscape:window-width="1920"
     inkscape:window-height="991"
     inkscape:window-x="-9"
     inkscape:window-y="1341"
     inkscape:window-maximized="1"
     inkscape:current-layer="svg1" />
  <path
     class="leaflet-interactive"
     stroke="#000000"
     stroke-opacity="1"
     stroke-width="2"
     stroke-linecap="round"
     stroke-linejoin="round"
     fill="#ffffff"
     fill-opacity="0.2"
     fill-rule="evenodd"
     d="m 421,311 -3,1 -6,-4 -4,4 -3,-5 -2,1 v 4 l -5,2 -1,9 2,2 -2,2 4,15 v 5 l -3,3 -1,-2 h -4 l -1,5 -4,-2 -2,3 -9,1 -14,-3 -3,2 h -9 l -6,8 v 2 l 2,1 h 6 l 4,5 -3,9 2,4 v 6 h 2 v 2 l 7,1 v -2 l 3,-1 1,-2 -1,-2 3,1 v 2 l 3,2 h 5 v 5 l 3,6 -3,3 v 4 l 3,5 -1,9 h 2 l -3,1 -1,2 1,3 h 3 l 1,2 3,1 v 2 h -2 v 6 h -2 l -4,5 v 4 l 5,-4 5,2 4,4 v -2 l -2,1 2,-3 1,1 -1,-2 3,-1 1,-3 10,-4 1,2 h 5 l -1,4 5,4 -3,4 v 6 l -2,1 1,3 h 10 l 3,2 5,-3 1,2 2,-3 h 2 l 4,4 1,5 10,7 -1,7 2,9 13,1 10,-1 16,-16 24,-13 21,-9 12,-3 h 66 l 5,2 5,9 7,-3 -4,-11 10,-11 1,-22 -5,-24 -4,-10 -19,-22 -1,-3 -19,-20 -17,-26 -8,-8 -28,-19 -21,-6 -4,-4 h 2 l -1,-1 -28,-21 1,-2 -16,-8 -5,4 -4,-2 -2,4 -6,1 -2,2 -1,-1 -3,3 v -2 l -2,2 v -2 l -1,1 -2,-4 -2,5 h -6 v 2 l -5,3 -1,3 -9,2 v 2 l 4,1 1,2 h -3 l -2,2 3,3 -2,2 1,2 -3,1 2,2 -9,4 1,1 -2,2 -1,-1 v 4 l 3,1 v 2 h 3 l 1,5 -2,4 2,4 2,-3 1,1 2,4 -1,1 3,2 z m 211,-102 -66,-18 -19,-7 -3,1 -7,-4 -3,1 -24,-15 -13,-2 -6,-4 -4,-7 h 2 l -9,-11 -17,-12 -9,1 -21,11 -21,23 6,1 38,42 21,19 6,-10 5,-2 5,1 10,4 19,13 18,9 17,4 35,16 10,2 16,-1 16,-9 3,-4 1,-5 -2,-11 z m -50,92 h 5 l -1,-13 -5,-10 -17,-10 -32,-10 -6,-10 -10,-2 -4,1 2,4 6,3 13,12 39,24 3,3 3,7 2,1 z m 119,-33 h 1 z m -113,19 1,10 4,5 8,5 3,-1 17,3 22,1 14,4 7,4 2,-2 4,-14 -1,-4 -20,-1 -23,-4 -34,-13 h -6 l -1,1 2,4 z m -45,-27 h 2 v -2 l -3,-3 -7,-5 h -5 l 2,5 8,5 z m -52,230 h 1 z m 133,-160 1,11 3,6 10,-1 4,-8 v -9 l -11,-4 -6,2 z M 490,487 h 1 z M 609,322 v 5 l 4,7 2,2 4,-1 1,-10 -10,-4 z M 486,483 h 1 z"
     id="上海市" />
  <path
     class="leaflet-interactive"
     stroke="#333333"
     stroke-opacity="1"
     stroke-width="1"
     stroke-linecap="round"
     stroke-linejoin="round"
     stroke-dasharray="1, 6"
     fill="#eeeeee"
     fill-opacity="0.5"
     fill-rule="evenodd"
     d="m 499,328 1,5 h 2 v 4 h 6 l 5,-7 -5,-7 1,-1 -2,-1 -5,2 -1,-1 1,5 h -3 z"
     id="310101" />
  <path
     class="leaflet-interactive"
     stroke="#333333"
     stroke-opacity="1"
     stroke-width="1"
     stroke-linecap="round"
     stroke-linejoin="round"
     stroke-dasharray="1, 6"
     fill="#eeeeee"
     fill-opacity="0.5"
     fill-rule="evenodd"
     d="m 499,328 -5,3 v 2 l -4,2 v 2 h -2 l -1,3 -4,2 v 4 l 3,1 -3,1 1,1 2,-2 3,8 5,1 v 4 h 2 l 2,2 -2,1 3,1 h 2 l 1,-5 -3,-9 3,-3 -1,-7 3,-2 -2,-1 v -4 h -2 v -3 z"
     id="310104" />
  <path
     class="leaflet-interactive"
     stroke="#333333"
     stroke-opacity="1"
     stroke-width="1"
     stroke-linecap="round"
     stroke-linejoin="round"
     stroke-dasharray="1, 6"
     fill="#eeeeee"
     fill-opacity="0.5"
     fill-rule="evenodd"
     d="m 495,330 -2,-3 -3,-1 -6,3 -6,-1 -8,-7 -2,2 2,1 v 5 l -2,3 1,3 -2,2 2,4 10,-4 h 11 v -2 l 3,-1 1,-3 z"
     id="310105" />
  <path
     class="leaflet-interactive"
     stroke="#333333"
     stroke-opacity="1"
     stroke-width="1"
     stroke-linecap="round"
     stroke-linejoin="round"
     stroke-dasharray="1, 6"
     fill="#eeeeee"
     fill-opacity="0.5"
     fill-rule="evenodd"
     d="m 499,328 3,-1 -1,-5 h 5 l -1,-4 -5,-7 2,-12 -8,-1 -5,9 2,6 1,-1 3,2 3,5 -7,7 4,4 3,-1 z"
     id="310106" />
  <path
     class="leaflet-interactive"
     stroke="#333333"
     stroke-opacity="1"
     stroke-width="1"
     stroke-linecap="round"
     stroke-linejoin="round"
     stroke-dasharray="1, 6"
     fill="#eeeeee"
     fill-opacity="0.5"
     fill-rule="evenodd"
     d="m 473,323 2,4 1,-1 1,2 7,1 8,-4 6,-6 -4,-6 -2,-1 -3,3 -5,-4 1,-3 -2,-2 -8,1 v -4 l -10,5 h 2 l 1,4 2,1 h 6 l -2,2 2,2 3,-1 -1,4 h -2 z"
     id="310107" />
  <path
     class="leaflet-interactive"
     stroke="#333333"
     stroke-opacity="1"
     stroke-width="1"
     stroke-linecap="round"
     stroke-linejoin="round"
     stroke-dasharray="1, 6"
     fill="#eeeeee"
     fill-opacity="0.5"
     fill-rule="evenodd"
     d="m 506,301 -3,-2 -3,7 v 5 l 5,6 1,5 h 3 l 6,-3 -6,-10 2,-2 -3,-1 -2,-3 z"
     id="310109" />
  <path
     class="leaflet-interactive"
     stroke="#333333"
     stroke-opacity="1"
     stroke-width="1"
     stroke-linecap="round"
     stroke-linejoin="round"
     stroke-dasharray="1, 6"
     fill="#eeeeee"
     fill-opacity="0.5"
     fill-rule="evenodd"
     d="m 514,320 7,-1 7,-7 -2,-16 -9,-6 -2,2 -3,-2 -4,5 2,2 -1,4 h -3 l 2,5 3,1 -2,4 3,2 2,6 z"
     id="310110" />
  <path
     class="leaflet-interactive"
     stroke="#333333"
     stroke-opacity="1"
     stroke-width="1"
     stroke-linecap="round"
     stroke-linejoin="round"
     stroke-dasharray="1, 6"
     fill="#eeeeee"
     fill-opacity="0.5"
     fill-rule="evenodd"
     d="m 474,401 17,-5 3,-3 10,-3 4,1 1,4 5,-3 2,2 -1,1 5,2 1,-1 2,2 5,-3 1,-9 -5,3 2,-8 -2,-2 -3,2 v -2 l 2,-2 -1,-1 3,-2 -1,-1 4,-1 1,-2 h -5 l -1,-2 3,-2 1,1 -3,-7 -2,2 -3,-3 -5,1 -1,-2 -3,2 v -2 l -2,1 v -2 h -2 l -2,2 1,2 -2,-1 -2,4 -5,-1 1,-3 h -3 v -4 l -5,-1 -3,-8 -2,2 -1,-1 2,-1 -2,-1 -1,-4 2,-2 h 3 l 1,-3 h -9 l -10,4 -2,-4 2,-2 -1,-3 2,-7 -2,-2 -1,2 -4,1 -4,-1 -3,-2 -2,-3 1,-1 h -4 l -4,-3 -4,6 h 2 l 3,3 -1,1 4,9 h 8 l 10,17 -1,1 4,6 v 6 l 2,-1 3,6 -2,4 h -2 l 1,1 -4,2 -1,-1 -2,6 v 8 h 2 l -4,6 v 3 l 7,3 z"
     id="310112" />
  <path
     class="leaflet-interactive"
     stroke="#333333"
     stroke-opacity="1"
     stroke-width="1"
     stroke-linecap="round"
     stroke-linejoin="round"
     stroke-dasharray="1, 6"
     fill="#eeeeee"
     fill-opacity="0.5"
     fill-rule="evenodd"
     d="m 491,313 -1,-8 3,-3 v -4 h 8 l 5,3 h 3 l -1,-6 4,-5 3,2 2,-2 -3,-1 -3,-4 2,-7 3,-2 -4,-4 h 2 l -1,-1 -28,-21 1,-2 -16,-8 -5,4 -4,-2 -2,2 4,7 v 5 l 5,8 -1,7 -1,-1 -4,2 v 3 l 3,1 v 4 l 2,1 2,5 -2,4 4,3 -2,1 2,4 -4,6 2,2 5,-3 1,4 8,-1 2,2 -1,3 h 2 l 3,4 z"
     id="310113" />
  <path
     class="leaflet-interactive"
     stroke="#333333"
     stroke-opacity="1"
     stroke-width="1"
     stroke-linecap="round"
     stroke-linejoin="round"
     stroke-dasharray="1, 6"
     fill="#eeeeee"
     fill-opacity="0.5"
     fill-rule="evenodd"
     d="m 421,311 -1,3 2,-1 3,2 v 2 l 4,2 5,-1 v -2 h 2 l 1,2 3,-3 h 2 l 12,4 v 2 l 4,4 5,1 4,-1 3,-4 4,2 2,-3 h 2 l 1,-3 h -3 l -2,-2 2,-2 -8,-1 -1,-4 h -2 l 3,-2 -1,-1 4,-7 -2,-3 1,-2 -3,-4 2,-2 -1,-4 -3,-3 v -4 l -3,-1 v -3 l 4,-2 1,1 1,-6 -3,-5 v -3 h -2 l 1,-4 -2,-1 1,-1 -3,-6 -3,2 h -4 l -2,2 -1,-1 -3,3 v -2 l -2,2 v -2 l -1,1 -2,-4 -2,5 h -6 v 2 l -5,3 -1,3 -9,2 v 2 l 4,1 1,2 h -3 l -2,2 3,3 -2,2 1,2 -3,1 2,2 -9,4 1,1 -2,2 -1,-1 v 4 l 3,1 v 2 h 3 l 1,5 -2,4 2,4 2,-3 1,1 2,4 -1,1 3,2 z"
     id="310114" />
  <path
     class="leaflet-interactive"
     stroke="#333333"
     stroke-opacity="1"
     stroke-width="1"
     stroke-linecap="round"
     stroke-linejoin="round"
     stroke-dasharray="1, 6"
     fill="#eeeeee"
     fill-opacity="0.5"
     fill-rule="evenodd"
     d="m 528,395 12,-1 1,3 h 18 l 6,3 9,9 3,1 v 3 l 5,2 v 10 l -3,14 7,10 28,1 5,2 5,9 7,-3 -4,-11 10,-11 1,-22 -5,-24 -4,-10 -19,-22 -1,-3 -19,-20 -17,-26 -8,-8 -28,-19 -21,-6 -3,2 -2,7 3,4 9,4 3,3 2,16 -7,7 -9,1 -4,3 5,6 -3,7 -9,4 1,6 -3,6 3,4 -1,5 h 4 l -1,-2 2,-2 h 2 v 2 l 2,-1 v 2 l 2,-2 6,1 4,3 2,-2 2,1 1,5 -4,1 v 3 l 3,-1 2,1 v 2 h -2 l -4,4 1,1 -2,1 v 2 l 3,-1 2,2 -2,7 1,1 1,-2 1,1 2,-2 -2,5 1,3 z m 96,-65 1,11 3,6 10,-1 4,-8 v -9 l -11,-4 -6,2 z m -15,-8 v 5 l 4,7 2,2 4,-1 1,-10 -10,-4 z"
     id="310115" />
  <path
     class="leaflet-interactive"
     stroke="#333333"
     stroke-opacity="1"
     stroke-width="1"
     stroke-linecap="round"
     stroke-linejoin="round"
     stroke-dasharray="1, 6"
     fill="#eeeeee"
     fill-opacity="0.5"
     fill-rule="evenodd"
     d="m 381,409 v 13 h 2 l -3,1 -1,2 1,3 6,2 1,3 h -2 v 6 h -2 l -4,5 v 4 l 5,-4 5,2 4,4 v -2 l -2,1 2,-3 1,1 -1,-2 3,-1 1,-3 10,-4 1,2 h 5 l -1,4 5,4 -3,4 v 6 l -2,1 1,3 h 10 l 3,2 5,-3 1,2 2,-3 h 2 l 4,4 1,5 10,7 -1,7 2,9 h 23 l 16,-16 14,-7 -11,-19 -5,1 -1,-2 h -2 l -1,-4 -1,2 -4,-2 v -12 l -6,-5 -2,-6 -13,1 -2,-3 -1,7 h -4 v -2 h -2 l -1,-2 h -4 l -2,-5 -4,-2 -4,4 -9,1 -4,-2 v 3 l -5,-2 1,4 -3,2 -5,-1 3,-6 -6,-1 -3,4 2,1 v 2 l -10,-1 -4,2 v -2 l -1,1 -3,-2 2,-9 -8,-4 z m 110,81 h 1 z m -1,-3 h 1 z m -4,-4 h 1 z"
     id="金山区" />
  <path
     class="leaflet-interactive"
     stroke="#333333"
     stroke-opacity="1"
     stroke-width="1"
     stroke-linecap="round"
     stroke-linejoin="round"
     stroke-dasharray="1, 6"
     fill="#eeeeee"
     fill-opacity="0.5"
     fill-rule="evenodd"
     d="m 465,345 -2,2 -10,2 1,5 -4,-1 -2,2 1,1 -4,-2 -2,1 2,1 -6,4 -1,-2 2,-4 h -5 l -2,-2 -2,1 -3,-2 1,8 h -2 l -1,3 h -2 v 2 l -3,1 v 2 l -10,-6 -2,1 -3,4 1,4 5,2 2,4 -7,2 -2,-1 v -2 l -3,2 5,6 -1,4 h -3 l 5,4 -1,12 -1,-1 v 2 l -6,4 h -2 l -5,-5 v 4 h -2 l -2,4 1,2 -2,8 3,3 1,-1 v 2 l 3,-2 11,1 1,-2 -3,-1 3,-4 6,1 -3,6 1,1 7,-1 v -5 l 2,2 h 2 v -2 l 2,-1 1,2 10,-1 4,-4 6,4 v 3 h 4 l 3,4 h 4 v -7 l 2,3 h 11 l 4,-2 -1,-5 3,-1 -1,-13 -2,1 -7,-3 v -3 l 5,-6 h -3 l 1,-14 2,1 4,-2 -1,-1 h 2 l 2,-4 -2,-6 -3,1 -1,-3 2,-1 -7,-14 z"
     id="310117" />
  <path
     class="leaflet-interactive"
     stroke="#333333"
     stroke-opacity="1"
     stroke-width="1"
     stroke-linecap="round"
     stroke-linejoin="round"
     stroke-dasharray="1, 6"
     fill="#eeeeee"
     fill-opacity="0.5"
     fill-rule="evenodd"
     d="m 421,311 -3,1 -6,-4 -4,4 -3,-5 -2,1 v 4 l -5,2 -1,9 2,2 -2,2 4,15 v 5 l -3,3 -1,-2 h -4 l -1,5 -4,-2 -2,3 -9,1 -14,-3 -3,2 h -9 l -6,8 v 2 l 2,1 h 6 l 4,5 -3,9 2,4 v 6 h 2 v 2 l 7,1 v -2 l 3,-1 1,-2 -1,-2 3,1 v 2 l 3,2 h 5 v 5 l 3,6 -3,3 v 4 l 4,2 1,-1 2,4 4,-3 1,-3 h 2 v -4 l 5,5 6,-2 2,-4 1,1 1,-11 -5,-5 h 2 l 2,-3 -5,-7 3,-2 1,3 8,-1 v -3 l -7,-4 -1,-4 4,-5 10,6 2,-2 -1,-1 h 3 v -2 h 2 v -2 l 3,-1 -1,-8 3,2 2,-1 2,2 5,-1 -2,7 4,-1 v -2 l 3,-1 -2,-1 5,1 2,-3 4,1 1,-2 -2,-1 v -2 l 10,-3 1,1 1,-2 -8,-12 -3,3 -3,-1 -2,-3 -2,-6 1,-1 -3,-3 h -2 l 4,-5 -7,-2 -3,3 -1,-2 h -2 v 2 l -5,1 -3,-2 -1,1 -2,-5 h -2 z"
     id="310118" />
  <path
     class="leaflet-interactive"
     stroke="#333333"
     stroke-opacity="1"
     stroke-width="1"
     stroke-linecap="round"
     stroke-linejoin="round"
     stroke-dasharray="1, 6"
     fill="#eeeeee"
     fill-opacity="0.5"
     fill-rule="evenodd"
     d="m 528,395 -4,1 v 2 l -3,-2 h -4 l -3,-4 -4,3 -3,-5 h -3 l -3,2 h -4 l -6,4 -17,5 1,12 -3,3 v 5 l 2,6 6,4 v 13 l 2,2 h 2 v -2 l 2,4 h 2 v 2 l 6,-1 11,19 19,-10 24,-8 38,-1 -7,-10 1,-9 2,-4 v -10 l -3,-3 h -2 l 1,-1 -5,-5 h -2 l -6,-7 -6,-3 h -18 l -1,-3 -10,1 z"
     id="310120" />
  <path
     class="leaflet-interactive"
     stroke="#333333"
     stroke-opacity="1"
     stroke-width="1"
     stroke-linecap="round"
     stroke-linejoin="round"
     stroke-dasharray="1, 6"
     fill="#eeeeee"
     fill-opacity="0.5"
     fill-rule="evenodd"
     d="m 632,209 -66,-18 -19,-7 -3,1 -7,-4 -3,1 -24,-15 -13,-2 -6,-4 -4,-7 h 2 l -9,-11 -17,-12 -9,1 -21,11 -21,23 6,1 38,42 21,19 6,-10 5,-2 5,1 10,4 19,13 18,9 17,4 35,16 10,2 16,-1 16,-9 3,-4 1,-5 -2,-11 z m -50,92 h 5 l -1,-13 -5,-10 -17,-10 -32,-10 -6,-10 -10,-2 -4,1 2,4 6,3 13,12 39,24 3,3 3,7 2,1 z m 119,-33 h 1 z m -113,19 1,10 4,5 8,5 3,-1 17,3 22,1 14,4 7,4 2,-2 4,-14 -1,-4 -20,-1 -23,-4 -34,-13 h -6 l -1,1 2,4 z m -45,-27 h 2 v -2 l -3,-3 -7,-5 h -5 l 2,5 8,5 z"
     id="310151" />
</svg>
