<?xml version="1.0" encoding="UTF-8" standalone="no"?>
<svg
   pointer-events="none"
   class="leaflet-zoom-animated"
   width="1111"
   height="640"
   viewBox="-93 -53 1111 640"
   style="transform: translate3d(-93px, -53px, 0px);"
   version="1.1"
   id="svg1"
   sodipodi:docname="上海市.svg"
   inkscape:version="1.4 (86a8ad7, 2024-10-11)"
   xmlns:inkscape="http://www.inkscape.org/namespaces/inkscape"
   xmlns:sodipodi="http://sodipodi.sourceforge.net/DTD/sodipodi-0.dtd"
   xmlns="http://www.w3.org/2000/svg"
   xmlns:svg="http://www.w3.org/2000/svg">
  <defs
     id="defs1" />
  <sodipodi:namedview
     id="namedview1"
     pagecolor="#ffffff"
     bordercolor="#000000"
     borderopacity="0.25"
     inkscape:showpageshadow="2"
     inkscape:pageopacity="0.0"
     inkscape:pagecheckerboard="0"
     inkscape:deskcolor="#d1d1d1"
     inkscape:zoom="1.2140625"
     inkscape:cx="555.57272"
     inkscape:cy="320"
     inkscape:window-width="1920"
     inkscape:window-height="991"
     inkscape:window-x="-9"
     inkscape:window-y="-9"
     inkscape:window-maximized="1"
     inkscape:current-layer="svg1" />
  <g
     id="310000">
    <path
       class="leaflet-interactive"
       stroke="black"
       stroke-opacity="1"
       stroke-width="2"
       stroke-linecap="round"
       stroke-linejoin="round"
       fill="#fff"
       fill-opacity="0.2"
       fill-rule="evenodd"
       d="M411 316L408 317L402 313L398 317L395 312L393 313L393 317L388 319L387 328L389 330L387 332L391 347L391 352L388 355L387 353L383 353L382 358L378 356L376 359L367 360L353 357L350 359L341 359L335 367L335 369L337 370L343 370L347 375L344 384L346 388L346 394L348 394L348 396L355 397L355 395L358 394L359 392L358 390L361 391L361 393L364 395L369 395L369 400L372 406L369 409L369 413L372 418L371 427L373 427L370 428L369 430L370 433L373 433L374 435L377 436L377 438L375 438L375 444L373 444L369 449L369 453L374 449L379 451L383 455L383 453L381 454L383 451L384 452L383 450L386 449L387 446L397 442L398 444L403 444L402 448L407 452L404 456L404 462L402 463L403 466L413 466L416 468L421 465L422 467L424 464L426 464L430 468L431 473L441 480L440 487L442 496L455 497L465 496L481 480L505 467L526 458L538 455L604 455L609 457L614 466L621 463L617 452L627 441L628 419L623 395L619 385L600 363L599 360L580 340L563 314L555 306L527 287L506 281L502 277L504 277L503 276L475 255L476 253L460 245L455 249L451 247L449 251L443 252L441 254L440 253L437 256L437 254L435 256L435 254L434 255L432 251L430 256L424 256L424 258L419 261L418 264L409 266L409 268L413 269L414 271L411 271L409 273L412 276L410 278L411 280L408 281L410 283L401 287L402 288L400 290L399 289L399 293L402 294L402 296L405 296L406 301L404 305L406 309L408 306L409 307L411 311L410 312L413 314L411 316zM622 214L556 196L537 189L534 190L527 186L524 187L500 172L487 170L481 166L477 159L479 159L470 148L453 136L444 137L423 148L402 171L408 172L446 214L467 233L473 223L478 221L483 222L493 226L512 239L530 248L547 252L582 268L592 270L608 269L624 260L627 256L628 251L626 240zM572 306L577 306L576 293L571 283L554 273L522 263L516 253L506 251L502 252L504 256L510 259L523 271L562 295L565 298L568 305L570 306zM691 273L692 273zM578 292L579 302L583 307L591 312L594 311L611 314L633 315L647 319L654 323L656 321L660 307L659 303L639 302L616 298L582 285L576 285L575 286L577 290zM533 265L535 265L535 263L532 260L525 255L520 255L522 260L530 265zM481 495L482 495zM614 335L615 346L618 352L628 351L632 343L632 334L621 330L615 332zM480 492L481 492zM599 327L599 332L603 339L605 341L609 340L610 330L600 326zM476 488L477 488z"
       id="上海市" />
    <path
       class="leaflet-interactive"
       stroke="#333"
       stroke-opacity="1"
       stroke-width="1"
       stroke-linecap="round"
       stroke-linejoin="round"
       stroke-dasharray="1,6"
       fill="#eee"
       fill-opacity="0.5"
       fill-rule="evenodd"
       d="M411 316L408 317L402 313L398 317L395 312L393 313L393 317L388 319L387 328L389 330L387 332L391 347L391 352L388 355L387 353L383 353L382 358L378 356L376 359L367 360L353 357L350 359L341 359L335 367L335 369L337 370L343 370L347 375L344 384L346 388L346 394L348 394L348 396L355 397L355 395L358 394L359 392L358 390L361 391L361 393L364 395L369 395L369 400L372 406L369 409L369 413L372 418L371 427L373 427L370 428L369 430L370 433L373 433L374 435L377 436L377 438L375 438L375 444L373 444L369 449L369 453L374 449L379 451L383 455L383 453L381 454L383 451L384 452L383 450L386 449L387 446L397 442L398 444L403 444L402 448L407 452L404 456L404 462L402 463L403 466L413 466L416 468L421 465L422 467L424 464L426 464L430 468L431 473L441 480L440 487L442 496L455 497L465 496L481 480L505 467L526 458L538 455L604 455L609 457L614 466L621 463L617 452L627 441L628 419L623 395L619 385L600 363L599 360L580 340L563 314L555 306L527 287L506 281L502 277L504 277L503 276L475 255L476 253L460 245L455 249L451 247L449 251L443 252L441 254L440 253L437 256L437 254L435 256L435 254L434 255L432 251L430 256L424 256L424 258L419 261L418 264L409 266L409 268L413 269L414 271L411 271L409 273L412 276L410 278L411 280L408 281L410 283L401 287L402 288L400 290L399 289L399 293L402 294L402 296L405 296L406 301L404 305L406 309L408 306L409 307L411 311L410 312L413 314L411 316zM622 214L556 196L537 189L534 190L527 186L524 187L500 172L487 170L481 166L477 159L479 159L470 148L453 136L444 137L423 148L402 171L408 172L446 214L467 233L473 223L478 221L483 222L493 226L512 239L530 248L547 252L582 268L592 270L608 269L624 260L627 256L628 251L626 240zM572 306L577 306L576 293L571 283L554 273L522 263L516 253L506 251L502 252L504 256L510 259L523 271L562 295L565 298L568 305L570 306zM691 273L692 273zM578 292L579 302L583 307L591 312L594 311L611 314L633 315L647 319L654 323L656 321L660 307L659 303L639 302L616 298L582 285L576 285L575 286L577 290zM533 265L535 265L535 263L532 260L525 255L520 255L522 260L530 265zM481 495L482 495zM614 335L615 346L618 352L628 351L632 343L632 334L621 330L615 332zM480 492L481 492zM599 327L599 332L603 339L605 341L609 340L610 330L600 326zM476 488L477 488z"
       id="path1" />
  </g>
</svg>
