<?xml version="1.0" encoding="UTF-8" standalone="no"?>
<svg
   pointer-events="none"
   class="leaflet-zoom-animated"
   width="1133"
   height="886"
   viewBox="38 -82 1133 886"
   style="transform: translate3d(38px, -82px, 0px);"
   version="1.1"
   id="svg1"
   sodipodi:docname="中华人民共和国.svg"
   inkscape:version="1.4 (86a8ad7, 2024-10-11)"
   xmlns:inkscape="http://www.inkscape.org/namespaces/inkscape"
   xmlns:sodipodi="http://sodipodi.sourceforge.net/DTD/sodipodi-0.dtd"
   xmlns="http://www.w3.org/2000/svg"
   xmlns:svg="http://www.w3.org/2000/svg">
  <defs
     id="defs1" />
  <sodipodi:namedview
     id="namedview1"
     pagecolor="#ffffff"
     bordercolor="#000000"
     borderopacity="0.25"
     inkscape:showpageshadow="2"
     inkscape:pageopacity="0.0"
     inkscape:pagecheckerboard="0"
     inkscape:deskcolor="#d1d1d1"
     inkscape:zoom="3.3423964"
     inkscape:cx="664.94208"
     inkscape:cy="448.33102"
     inkscape:window-width="1920"
     inkscape:window-height="991"
     inkscape:window-x="-9"
     inkscape:window-y="1341"
     inkscape:window-maximized="1"
     inkscape:current-layer="svg1" />
  <path
     class="leaflet-interactive"
     stroke="#201920"
     stroke-opacity="1"
     stroke-width="2"
     stroke-linecap="round"
     stroke-linejoin="round"
     fill="none"
     d="m 409,318 v -4 l -1,1 -2,-4 4,-2 -1,-3 3,-3 1,1 3,-3 h 2 v -2 l 3,1 2,-2 1,3 h 6 l 5,-8 5,1 3,-3 1,1 v -2 l 6,-2 3,-3 7,-2 v -7 l 3,-3 -1,-1 3,-1 v -4 l -3,-7 v -6 l -4,-2 v -2 l 13,-4 8,2 1,-1 -3,-3 v -2 l 6,-18 7,3 9,1 4,-2 2,-2 -2,-11 4,-4 2,1 3,-2 2,-4 -1,-1 2,-2 h 6 l 2,7 5,2 2,4 h 6 l 1,3 3,-1 v 2 l 3,2 2,7 h 2 l 1,3 v 3 l -2,2 1,3 -2,3 1,7 1,-1 3,2 1,-1 6,2 h 10 l 11,8 h 5 l -1,3 h 2 l 1,5 6,9 6,-1 19,3 h 16 l 7,5 1,-1 5,3 10,1 1,2 4,1 3,-3 17,-7 10,1 11,-3 8,-8 4,-1 3,-3 -4,-6 1,-5 3,-4 13,4 4,-2 5,-6 h 7 l 6,-5 -1,-1 5,-5 h 4 l 1,-3 4,1 2,-2 5,-1 2,2 7,-1 -1,-5 -10,-10 -5,-1 -4,4 -9,-2 -3,3 -3,-3 v -2 l 2,-2 7,-20 8,4 7,-5 6,-2 1,-3 h -2 v -2 l 5,-7 2,-8 3,-3 h 2 l 1,-3 -1,-5 -2,-2 -3,1 v -2 l 8,-8 1,1 16,-4 h 4 l 4,3 1,-1 2,3 3,1 h 6 v 3 h 2 l 1,4 3,2 -1,3 2,1 -1,1 3,5 -1,1 2,1 v 6 l 3,3 1,7 h 2 l -1,5 3,4 7,-1 v 2 h 6 v 2 h 2 l 4,5 h 4 l -2,3 3,4 -2,2 4,6 11,-1 5,-5 2,1 7,-4 h 7 l -3,1 -1,5 2,2 -6,6 1,1 -3,7 1,3 -7,13 -3,1 -7,-3 -2,2 1,1 -6,2 3,10 v 6 l -2,6 -5,2 1,3 -3,-3 v -2 l -3,-1 -1,5 -2,2 -1,-1 -3,5 h -8 l 3,5 -2,2 -7,-1 -2,-2 1,-1 h -2 l 1,-1 -3,1 -5,9 -7,3 -6,5 m -367,82 -3,-3 v -2 l 3,-3 2,4 2,-2 v -4 l -5,-6 v -4 l 3,-3 -6,-4 -2,-8 -5,1 -7,-3 v -2 l -3,1 -2,-3 1,-3 -3,-3 h -2 v -2 l -8,-2 2,-2 2,1 m 257,142 h -2 l 1,-3 h -2 l 2,-4 -2,-2 -5,1 -4,-4 h -2 l -2,4 h -5 l -3,3 -2,-2 h -2 l -3,3 -3,-3 h -2 l -1,3 -5,-1 v 12 l -4,-1 v -4 l -8,2 v -2 h -2 l -1,-3 h -4 v -6 l 2,-2 -5,-2 v -4 l -2,-2 2,-2 h -6 l -4,2 -1,-1 2,-2 -2,-2 2,-4 -1,-1 8,-8 -1,-1 2,-4 v -8 l -3,-3 v 2 l -2,-2 v -4 l -4,-2 v -2 l -2,2 1,1 h -2 l 1,3 -3,2 -7,-5 h -4 l -3,1 v 2 l -3,2 -5,1 -6,6 -4,1 h -8 v -6 h -4 l -1,-5 -5,1 -9,-3 -4,4 -2,5 -2,-2 1,-5 -2,-1 -2,2 -5,1 h -4 l -5,-3 -2,2 -2,-2 v 2 l -4,-4 -3,1 -1,-4 -3,1 -5,-5 v -2 l -4,2 -5,-5 h -2 v -2 l -1,1 -1,-2 h -2 l -1,-3 -5,-1 -2,4 -14,-10 -3,1 -3,-3 v -6 m 235,94 -5,-1 -4,-3 m 12,133 -1,-9 m 9,-75 3,4 1,5 m 4,24 -2,8 m 14,64 8,-3 m 22,-28 5,-6 m 19,-24 3,-9 m 1,-33 v 9 m 8,-34 -5,8 m 20,-32 -6,8 m 11,-23 2,-10"
     id="国界" />
  <path
     class="leaflet-interactive"
     stroke="#201920"
     stroke-opacity="1"
     stroke-width="2"
     stroke-linecap="butt"
     stroke-linejoin="round"
     stroke-dasharray="4, 4"
     stroke-dashoffset="4"
     fill="none"
     d="m 418,333 2,-2 -2,-2 v -8 l -2,-2 -3,-1 -2,2 -2,-2"
     id="争议" />
  <path
     class="leaflet-interactive"
     stroke="#808080"
     stroke-opacity="1"
     stroke-width="1"
     stroke-linecap="round"
     stroke-linejoin="round"
     stroke-dasharray="8, 4, 4, 4"
     fill="none"
     d="m 729,473 v 0 m 5,-3 h -2 l -1,3 h 5 v -2 l -2,-1"
     id="港澳" />
  <path
     class="leaflet-interactive"
     stroke="#4190da"
     stroke-opacity="1"
     stroke-width="1"
     stroke-linecap="round"
     stroke-linejoin="round"
     fill="none"
     d="m 733,472 v -2 l -2,1 -1,-3 -1,5 -2,2 -1,-1 v 2 l -3,-1 -2,2 -3,-1 -2,2 -10,2 -4,3 v 2 l 3,3 -2,2 h -4 l -2,-6 2,-4 -2,-2 -2,2 h -2 v -2 l -9,1 m 19,3 v 0 m 0,0 v 2 -2 m 26,-9 v 0 m 4,-1 v 0 m 0,0 v 0 m 0,0 v 0 m 47,-39 -3,1 h 2 l 1,3 -3,1 1,3 -2,2 h 4 l -2,2 -3,-1 v 2 h -2 l 1,1 -1,1 v -2 l -2,4 -1,-1 1,1 -2,3 -3,-1 v 2 l -6,7 h -4 l -4,6 h -6 l -2,2 -2,-2 -3,3 -2,-2 v 2 l -1,1 v -2 l -2,2 h 2 l -3,1 m 47,-39 v 0 m 15,-22 -2,4 1,3 -3,3 -1,-1 -1,3 -1,-1 -8,13 -1,-1 2,-2 -1,1 m 13,-96 -2,2 h -4 l 1,3 -1,-1 -1,3 -3,1 v -2 2 l -9,11 10,8 4,10 v 4 l 5,4 -1,1 4,2 v 2 l -5,-2 -2,2 2,2 m 0,0 6,5 -1,1 2,2 -4,-2 -5,3 3,1 4,5 h 2 l -3,2 2,1 -1,4 m -3,-74 v 0 m 0,0 v 0 m 6,-26 -3,4 -4,2 -3,-1 5,-3 v -2 l -1,1 -3,-3 h 2 v -2 l 7,-7 -1,-3 -1,1 -2,-2 -5,-1 -5,5 v 2 l -7,3 -3,3 v 2 l -6,4 v 2 l -3,-1 v -2 h -2 l -2,4 v 4 h 2 v 2 l 7,1 3,3 1,-1 v 2 l -3,1 v 2 l 3,3 h 4 v -2 l 4,-3 -1,-1 4,-1 6,2 v 2 l 6,-1 4,2 -3,5 h -6 m 0,0 v 0 m 2,74 v 0 m 0,0 v 0 m 0,0 v 0 m 1,0 h -1 m 1,0 v 0 m 2,-8 v 0 m 0,0 v 0 m 0,0 v 0 m 1,0 h -1 m 0,0 -2,-2 h 2 l 1,2 m 0,0 v 0 m 0,-2 1,-1 -1,1 m 0,0 v 0 m 0,-90 v 0 m 17,-8 -2,4 h -6 l -9,4 m 1,85 v 0 m 0,0 v 0 m 2,-1 v 0 m -111,83 v 0 m 2,5 v 0 m 3,10 v 0 m 0,104 1,-2 3,1 -1,-1 -3,2 m 1,-89 -8,-4 v -6 l 5,-5 12,-3 3,4 -3,3 -2,6 -6,3 -1,2 m 3,85 1,-1 -1,1 m 3,-107 v 0 m 1,-4 v 0 m 0,111 v 0 m 0,-2 1,-1 -1,1 m 1,-108 v -2 2 m 0,6 v 0 m 0,102 v 0 m 0,-107 v 0 m 5,43 v 0 m 2,-10 1,-1 -1,1 m 0,70 v 0 m 0,-65 v 0 m 0,59 v 0 m 1,14 v 0 m 0,-2 v 0 m 0,-71 v 0 m 0,-1 v 0 m 0,71 1,1 -1,-1 m 0,-68 v 0 m 0,62 1,1 -1,-1 m 0,-65 v 0 m 1,73 v 0 m 0,-73 v 0 m 0,3 1,-1 -1,1 m 0,-2 1,-1 -1,1 m 0,3 v 0 m 2,66 v 0 m 0,-68 v 0 m 0,102 v 0 m 2,-40 v 0 m 0,0 v 0 m 0,40 v 0 m 0,-106 v 0 m 0,9 v 0 m 0,-11 1,1 -1,-1 m 0,67 1,1 -1,-1 m 0,40 v 0 m 1,-40 v 0 m 0,27 v 0 m 0,-93 v 0 m 0,1 v 0 m 1,4 -1,1 1,-1 m 0,-45 v 0 m 0,132 v 0 m 0,-84 1,-1 -1,1 m 0,-4 1,-1 -1,1 m 0,57 v 0 m 0,32 1,-1 -1,1 m 0,-2 1,1 -1,-1 m 1,-24 v 0 m 0,23 v 0 m 0,7 v 0 m 0,-137 v 0 m 0,133 v 0 m 0,2 v 0 m 0,-91 1,1 -1,-1 m 0,93 v 0 m 1,-138 -1,1 1,-1 m 0,46 v 0 m 0,-3 v 0 m 1,-42 -1,-1 1,1 m 0,106 v 0 m 0,-106 v 0 m 0,41 v 0 m 0,74 v 0 m 0,-14 v 0 m 0,0 v 0 m 1,37 v 0 m 0,-28 v 0 m 0,-92 v 0 m 0,82 v 0 m 0,-102 v 0 m 1,-1 v 0 m 0,1 v 0 m 1,-1 v 0 m 0,130 v 0 m 0,-14 v 0 m 0,0 1,-1 -1,1 m 3,-118 v 0 m 0,100 v 0 m 0,27 v 0 m 0,-16 1,-1 -1,1 m 1,-2 v 0 m 0,-107 v 0 m 0,54 v 0 m 0,-54 v 0 m 0,0 v 0 m 0,0 v 0 m 0,120 1,-1 -1,1 m 1,2 v 0 m 0,-126 v 0 m 0,3 v 0 m 0,25 v 0 m 0,-26 h 2 -2 m 0,102 v 0 m 0,-45 v 0 m 0,-2 1,1 -1,-1 m 0,64 1,-1 -1,1 m 0,3 5,-3 1,1 -2,2 h -4 m 1,-11 -1,1 1,-1 m 0,-57 v 0 m 0,58 v 0 m 0,-1 1,1 -1,-1 m 0,-53 v 0 m 1,44 v 0 m 0,-7 v 0 m 0,23 v 0 m 0,-65 v 0 m 0,-53 v 0 m 1,2 v 0 m 0,105 v 0 m 0,-108 v 0 m 0,3 v 0 m 0,110 v 0 m 0,-60 v 0 m 0,-51 v 0 m 0,56 v 0 m 0,43 v 0 m 0,4 v 0 m 0,-104 v 0 m 0,56 1,1 -1,-1 m 1,49 v 0 m 0,-14 v 0 m 0,-94 v 0 m 0,97 v 0 m 0,-95 v 0 m 0,102 v 0 m 0,-5 v 0 m 0,-6 v 0 m 1,-38 v 0 m 0,51 v 0 m 0,-47 v 0 m 0,48 v 0 m 0,-9 v 0 m 0,1 v 0 m 0,7 v 0 m 0,15 1,-1 -1,1 m 1,-15 v 0 m 0,0 v 0 m 0,-12 v 0 m 0,12 v 0 m 0,9 1,-1 -1,1 m 0,-56 v 0 m 0,47 1,-1 -1,1 m 0,-12 1,-1 -1,1 m 0,-93 v 0 m 1,124 v 0 m 0,-5 v 0 m 0,-18 v 0 m 0,-9 v 0 m 0,4 1,-1 -1,1 m 0,-43 v 0 m 0,53 v 0 m 1,13 v 0 m 0,-24 v 0 m 0,-39 v 0 m 0,42 v 0 m 0,29 v 0 m 0,-6 v 0 m 1,-24 v 0 m 0,-43 v 0 m 0,71 v 0 m 0,-30 v 0 m 2,22 1,1 -1,-1 m 0,-1 1,1 -1,-1 m 1,-13 v 0 m 0,-31 v 0 m 1,37 v 0 m 0,-4 v 0 m 0,12 1,-1 -1,1 m 2,-17 v 0 m 0,0 v 0 m 0,0 v 0 m 0,1 1,-1 -1,1 m 1,-1 v 0 m 0,7 1,-1 -1,1 m 0,-10 v 0 m 1,-85 v 0 m 0,-1 1,1 -1,-1 m 0,99 v 0 m 1,-6 v 0 m 1,4 v 0 m 1,5 v 0 m 1,-7 v 0 m 0,5 v 0 m 0,-5 v 0 m 0,-5 h 2 -2 m 1,5 v 0 m 1,-6 v 0 m 0,-48 v 0 m 0,40 1,1 -1,-1 m 0,-77 v 0 m 0,97 v 0 m 1,-98 v 2 -2 m 0,86 v 0 m 3,-109 h -2 2 m 0,108 v 0 m 0,-1 v 0 m 1,4 v 0 m 0,-3 1,-1 -1,1 m 0,-4 v 0 m 0,9 v 0 m 1,-8 v 0 m 2,3 v 0 m 0,-3 v 0 m 0,-34 1,-1 -1,1 m 1,36 v 0 m 2,-116 v 0 m 1,0 -1,-1 1,1 m 0,1 1,-1 -1,1 m 2,-1 -1,1 1,-1 m 2,-139 v 0 m 1,-1 v 0 m 0,0 1,1 -1,-1 m 5,151 v 0 m 0,-17 1,-1 -1,1 m 1,16 v 0 m 0,-3 v 0 m 0,0 v 0 m 0,-17 v 0 m 1,-5 v 0 m 0,23 -1,1 1,-1 m 0,-19 v 0 m 0,1 v 0 m 0,-9 1,-1 -1,1 m 0,11 v 0 m 0,0 v 0 m 1,-11 v 0 m 1,9 v 0 m 0,-5 v 0 m 0,2 v 0 m 1,22 v 0 m 0,-25 -1,1 1,-1 m 0,-2 v 0 m 1,0 v 0 m 0,-1 v 0 m 0,-2 v 0 m 0,-84 v 0 m 1,83 v 0 m 0,41 v 0 m 0,-41 v 0 m 1,-103 v 0 m 1,108 v 0 m 1,-110 -1,-1 1,1 m 0,149 -4,-7 -1,-7 6,-10 5,-5 h 2 l 2,2 v 5 l -4,12 -4,5 v 6 l -2,-1 m 0,-150 v 0 m 0,1 v 0 m 1,-2 v 0 m 0,-25 v 0 m 0,23 v 0 m 1,-1 v 0 m 0,1 v 0 m 1,19 v 0 m 0,81 v 0 m 0,4 v 0 m 0,-4 1,-1 -1,1 m 1,0 1,-1 -1,1 m 2,-36 5,3 -1,1 -6,-4 h 2 m 0,-7 v 0 m 0,90 v 0 m 1,5 v 0 m 1,1 v 0 m 0,-86 v 0 m 0,22 v 0 m 1,4 v 0 m 0,-24 -2,-1 2,1 m 0,-1 2,1 -2,-1 m 0,12 v 0 m 0,12 v 0 m 0,1 1,-1 -1,1 m 1,2 v 0 m 0,-15 -1,1 1,-1 m 0,-11 v 0 m 0,26 v 0 m 0,27 v 0 m 0,6 v 0 m 0,-48 v 0 m 0,-10 1,-1 -1,1 m 0,8 v 0 m 1,11 v 0 m 0,-6 v 0 m 0,-2 v 0 m 0,-2 v 0 m 0,-4 v 0 m 0,6 v 0 m 0,0 v 0 m 1,0 v 0 m 0,0 v 0 m 0,-2 v 0 m 0,-1 1,1 -1,-1 m 0,1 v 0 m 0,7 v 0 m 0,-2 -1,-1 1,1 m 0,0 v 0 m 0,-3 1,1 -1,-1 m 1,1 v 0 m 0,0 v 0 m 0,2 -1,-1 1,1 m 0,-2 1,-1 v 2 l -1,-1 m 1,-91 v 0 m 0,90 v 0 m 0,-4 v 0 m 1,0 v 0 m 0,-86 v 0 m 0,-1 v 0 m 0,85 v 0 m 1,-84 1,-1 -1,1 m 1,89 v 0 m 0,-87 -1,-1 1,1 m 0,81 v 0 m 0,0 v 0 m 2,-87 -1,1 1,-1 m 0,1 v 0 m 1,5 v 0 m 1,127 h 2 -2 m 2,-1 v 0 m 1,-1 1,1 -1,-1 m 0,3 v 0 m 0,-1 v 0 m 0,1 v 0 m 0,-136 v 0 m 7,133 -1,1 1,-1"
     id="海洋" />
  <path
     class="leaflet-interactive"
     stroke="#747569"
     stroke-opacity="0.6"
     stroke-width="1"
     stroke-linecap="round"
     stroke-linejoin="round"
     fill="none"
     d="m 537,344 -9,-3 h -10 l -8,2 -3,5 h -8 l -7,4 -9,-1 -1,-3 h -4 v 2 h -2 l -2,3 -12,-2 v 2 l -2,2 -1,-1 -1,5 -2,2 -1,-1 -4,2 m 150,17 h -2 v 2 l -3,3 h -2 l -1,3 -3,-2 -1,3 -2,-2 -3,1 -2,-2 1,-3 -1,1 -2,-2 h 2 -2 l -3,-3 -6,2 -5,-1 -2,-2 h -7 l -5,-3 h -6 l -4,-2 -6,-8 h 2 v -8 h -2 l -1,-3 3,-6 -4,-2 3,-1 m 22,-29 -7,1 -2,2 h -6 l -1,2 -3,1 1,2 h 2 v 5 h 2 l 5,7 h -2 l -3,3 v 2 l 3,1 -2,4 -6,-2 -2,2 -1,-1 m 97,25 -1,1 -1,-2 h -2 l -4,-4 v -2 l 1,-1 9,3 v -2 h 2 l -3,-3 v -2 l 4,-4 -1,-1 4,-2 -1,-3 h 2 l 1,-2 -2,-6 -3,-3 2,-2 -6,-6 -1,1 -4,-2 -9,-7 v 2 h -2 l -8,-8 -5,1 -2,2 -5,-4 h -4 l 1,5 -3,3 v 2 l -2,-1 -2,2 -4,-3 -9,1 -2,-5 -4,1 v -2 h -5 l -1,-3 -5,2 m 32,-40 -4,3 2,3 -2,4 -5,2 -3,-1 -8,7 -2,4 -6,1 -2,10 -3,4 1,3 m 95,16 -7,-4 v -6 l 4,-2 3,-5 -2,-2 1,-1 -3,-1 -6,4 -4,-2 -6,2 2,2 -2,2 -7,-3 -1,-4 -10,-5 6,-8 -1,-3 h -8 v 2 l -1,-1 -3,2 v -2 l -3,2 v -3 l -3,-2 -2,-4 1,-2 -5,-13 m 16,136 -2,-14 -3,-5 3,-1 -4,-4 -2,-6 -4,-1 m 33,-10 -1,5 -4,-2 1,5 -6,2 -2,-2 -1,1 -2,-4 -1,3 -7,-3 -4,-10 -4,-1 -2,1 v 2 h -2 v 2 l 3,3 -3,3 1,1 h -2 l 3,4 m 4,41 v -2 l 4,2 v -8 l 2,2 v -4 h 2 m 49,14 -1,-3 -4,2 -2,-2 v -6 h -4 v 3 l -4,2 1,3 -5,5 1,7 -3,3 v -2 l -7,3 v -2 h -2 v -4 l -6,-8 1,-1 -2,-2 -2,2 -3,-3 v -5 l -3,-2 -2,2 v 4 l -2,-2 v -8 m 51,-35 -1,3 h -6 l -3,-3 1,-3 -2,-4 -7,-1 -3,-5 -6,4 3,3 -5,5 -1,-5 m 47,-42 -3,-3 -6,-2 4,-7 -2,-4 -4,1 v 2 l -1,-1 -2,4 v 8 l -2,3 -11,3 m 0,0 h 2 l 7,7 -1,1 2,4 v 5 h 2 v 2 h 2 l 3,3 v -4 l 5,-3 v -2 l -4,-2 v -6 l 2,-2 h 4 m -16,90 v 2 l -4,2 h -4 l -3,-2 -2,4 1,5 6,-2 1,1 -3,9 3,3 h 2 l -3,5 m 0,0 v 2 h 4 l 2,4 5,-1 2,2 -1,4 -1,-1 -3,3 m 32,-25 -1,3 -3,-1 -1,1 h 2 v 2 l -3,-1 -1,3 -4,-2 1,1 -4,2 -3,-1 -1,-3 -10,8 -7,-3 -4,4 -1,-1 m 15,-34 -2,-2 -4,2 v 2 l 1,-1 4,2 1,2 -2,2 h -7 m 16,-90 v 2 l 7,4 1,-1 3,3 v 9 l -2,2 -5,-1 v 4 l -10,-2 1,3 -2,2 3,3 h -2 l 1,7 h -6 l -1,3 2,1 -3,3 -1,-1 m 24,7 h -6 l -1,-2 h -2 l 1,-1 -2,1 -2,-2 1,-1 -7,1 -2,-2 -3,1 -1,-2 m 30,42 -1,3 h -2 l -4,-8 h -4 l -2,-2 h -2 v 4 l -3,-1 -2,4 h -2 v -2 l -1,2 m 0,0 -1,-4 h -4 v -2 l -4,-4 4,-4 -2,-2 4,-2 2,2 3,-1 v 2 l 3,1 3,-3 v -4 l 5,-1 v -4 l 4,-3 -2,-4 2,-2 m -10,-48 v -4 l 3,-3 m 28,-16 v -2 l -3,3 h -3 l -2,-2 1,1 -2,2 -1,-1 1,1 -7,7 v 5 h -2 l -2,4 -8,-2 m 7,55 9,5 m 0,0 5,5 v 2 l -6,4 h -9 v 2 l 2,1 -2,4 h 2 l 3,3 -1,1 2,-1 1,3 m 0,0 v 6 m 38,-5 h -2 l -1,-7 -4,3 -1,-3 -5,3 -4,-4 h -4 l -2,-2 h -4 v 4 l -7,-1 v 2 l -1,-1 -3,5 m 2,28 v -2 h -2 l 2,-8 -5,1 v -2 h 2 l -1,-1 4,-2 -2,-8 m 22,34 -1,-1 -3,2 v -4 h -4 l 4,-7 h -2 l -1,-5 h -4 l -3,4 -2,-2 -2,2 -2,-1 m 12,-67 -2,2 -2,-2 h -8 l 2,4 1,-1 3,3 h -4 l -2,2 1,7 m 1,92 v 1 m 0,-1 4,-4 1,1 v -2 l 3,-1 v -2 l 3,-3 h 2 v -6 l 6,-8 -1,-3 m -17,40 h 1 m 1,0 2,-1 m 0,-131 -1,-3 3,-7 -2,-14 4,-6 -3,-3 v -2 l 3,-3 1,-5 2,-2 -1,-3 m -6,48 5,13 m -5,-13 10,-2 3,-3 1,1 v -2 h 6 l 6,-4 1,-7 m -26,148 1,-1 m 38,-99 -2,-2 -3,1 -1,-3 -5,1 -2,-4 1,-1 -2,-2 -2,2 -2,-2 -7,1 -4,-2 -6,-7 m 0,1 v 0 m 25,-76 v 2 l -10,2 v 2 l -3,-2 -5,8 -3,-1 v 2 l -3,1 m 7,140 2,-4 h 4 v 2 h 2 l 1,-3 h -2 l 2,-2 4,2 3,-2 m 12,-100 -3,-1 -1,2 -10,-3 m 0,0 -2,-4 h 2 v -2 l 1,1 -1,-3 3,-3 v -4 l -2,-4 h -2 v -4 l 2,-2 -1,-2 5,-1 2,-4 -1,-3 -4,-2 v -2 l 1,1 v -2 l 3,-1 -3,-4 m 17,108 -2,1 -4,-2 v 2 h -2 l -3,3 h -4 l -3,3 m 0,32 v -4 l 2,-2 h -2 l 1,-3 -2,-2 v -5 l -2,-2 v -2 l 5,-5 v -4 l -2,-3 m 0,32 v 2 h 6 v 2 h -2 l -2,4 2,1 7,-3 4,2 -1,-1 2,-2 m 26,-158 -7,-1 v -8 l -1,1 -2,-2 1,-1 -2,-4 -6,2 -4,6 -1,-1 -3,3 -2,-2 -4,2 v 2 h -4 l 1,-4 -4,-2 -2,6 -3,1 2,8 m 17,62 v 2 l 3,1 1,3 -3,3 -4,-4 -2,2 1,3 h -2 l -1,3 -4,2 3,3 v 2 h 6 v 6 l -3,1 -2,4 m 7,15 -3,-6 v -4 l 2,-2 -6,-3 m 21,-68 -5,5 h -4 l -3,3 -1,-1 -1,3 h -2 v 2 l -5,5 1,5 m 6,15 h -6 v -2 h -2 v -2 l -1,1 -2,-2 8,-8 h 2 v -2 l -6,4 1,-4 m 4,105 -1,-3 7,-11 -1,-3 4,-2 1,-3 -2,-2 3,-1 v -2 l 3,1 6,-4 m -10,42 -3,-9 h -2 l -2,-2 1,-1 h -4 m 18,-40 v -2 h -4 l -3,-3 h -2 l 1,1 -3,2 -1,-1 2,-2 -2,-2 -4,3 m 1,-46 h -1 m 25,-4 h -4 v 2 l -3,1 -1,3 -3,-3 -2,2 -3,-1 v 2 l -4,-6 -3,1 -1,3 m 27,33 -1,1 -2,-2 h -4 l -1,-1 2,-2 h -2 v -2 l -1,1 -2,-2 2,-2 -1,-1 h 2 l -1,-3 h 4 l 1,-3 -3,-1 v 2 h -4 v -2 l -3,-3 2,-4 h -4 l 1,-1 -3,-3 -9,-5 m 9,-57 -2,-2 3,-3 h -4 l -4,-4 -2,2 1,1 -6,3 2,2 -4,4 v 2 l 3,3 h 4 l 2,-2 2,1 m 7,10 -3,1 -5,-3 2,-4 -1,-4 m 1,-1 -1,1 m 1,-1 h 2 v -4 m 0,0 -3,1 1,3 m 2,153 1,1 m 1,-160 -2,2 m 1,159 h 1 m 0,-161 3,3 h -2 v 2 l 4,6 m 1,96 6,-6 -1,-1 5,-3 -2,-2 3,-1 1,-4 m -12,17 -1,3 3,3 v 4 m 16,10 -1,-3 -4,2 -2,-4 -3,3 -3,-1 v -7 h -3 m 6,-128 2,-2 v -10 l 5,5 v 2 l 6,-6 1,1 3,-3 h 4 l 2,-3 h 8 l 3,-3 h 2 v -4 m -31,37 v -3 l -3,-3 h -2 v -2 l -3,-1 3,-5 m 14,102 -3,3 -7,-4 m 8,38 h 1 m 0,-109 h 2 m 7,67 -5,-3 -1,6 -2,2 m 3,4 -3,-4 m 4,4 h 1 m 15,-170 v 2 l -1,-1 -2,2 -5,-7 1,-3 14,-12 2,6 2,-12 4,-2 -1,-8 7,-15 -6,-8 -3,2 v 2 l -15,1 -3,-9 1,-3 -4,-4 -3,3 h -2 v -2 l -3,-2 4,-6 -2,-4 m 0,250 1,-1 m 1,0 h 1 m 1,-1 h 1 m 2,0 h 1 m 1,-1 h 1 m 69,-127 h -5 l -4,-6 -2,2 v -2 l -3,2 -1,-1 -2,4 h -2 l -4,-6 -1,-5 -3,3 1,1 -3,1 -3,-6 -3,1 1,-5 -2,-2 h -8 l -2,-4 -9,1 -4,-4 v -6 l -7,1 m 0,0 -1,-4 5,-2 v -2 l -1,1 -1,-2 m -2,9 -3,2 v 4 l -3,-3 -3,1 -2,-2 -1,3 3,2 2,4 -2,3 2,8 5,-1 2,-2 3,9 v 2 h -2 l 3,2 m -2,-41 v 0 m 0,0 v 0 m 0,0 v 0 m 2,41 1,-1 5,5 v 2 l 3,-3 1,1 2,8 2,2 1,-1 -2,2 v 4 h 2 l -1,1 3,3 -2,4 h 2 m -160,56 1,-1 -1,1 m 29,82 1,-1 -1,1 m 28,-28 v 0"
     id="省界" />
  <path
     class="leaflet-interactive"
     stroke="#8b908f"
     stroke-opacity="0.5"
     stroke-width="1"
     stroke-linecap="butt"
     stroke-linejoin="bevel"
     fill="#eeeeee"
     fill-opacity="0.5"
     fill-rule="evenodd"
     d="m 759,298 h 2 l -5,-1 -2,-4 -5,5 -3,1 2,2 -1,2 -3,1 v 3 l 3,3 h 4 l 2,-2 1,1 2,-2 -1,-3 5,-1 -2,-2 z"
     id="110000" />
  <path
     class="leaflet-interactive"
     stroke="#8b908f"
     stroke-opacity="0.5"
     stroke-width="1"
     stroke-linecap="butt"
     stroke-linejoin="bevel"
     fill="#eeeeee"
     fill-opacity="0.5"
     fill-rule="evenodd"
     d="m 763,311 1,-1 -3,-3 v -2 h 2 l -3,-3 -2,2 v 4 l -3,1 1,4 -2,4 8,2 2,-4 -1,-1 2,-2 -3,-1 z m 0,0 z"
     id="120000" />
  <path
     class="leaflet-interactive"
     stroke="#8b908f"
     stroke-opacity="0.5"
     stroke-width="1"
     stroke-linecap="butt"
     stroke-linejoin="bevel"
     fill="#eeeeee"
     fill-opacity="0.5"
     fill-rule="evenodd"
     d="m 760,298 -2,2 5,5 h -2 v 2 l 7,9 7,-6 v -3 l 4,-2 -2,-6 h -2 l -3,-3 v -2 l 3,-3 -8,-1 v -8 l -1,1 -2,-2 1,-1 -2,-4 -6,2 -3,6 h -6 l -5,2 v 2 l -3,-1 v -3 l -2,-2 h -2 l -2,6 -3,1 v 4 l 4,8 h 2 l -5,3 4,2 v 6 l -4,2 -3,5 v 4 l 3,2 1,3 -3,6 1,1 -3,4 3,3 9,3 2,-2 1,1 v -4 l 4,-4 1,-4 3,-2 1,1 3,-4 h 4 l 5,-5 -3,-3 h -4 l -3,-2 2,-4 -2,-5 -2,2 h -6 l -2,-2 v -3 l 4,-4 -2,-2 3,-1 5,-5 2,4 z m -2,6 -3,1 1,3 h 2 z m 5,7 h -1 z m 8,2 v 1 z"
     id="130000" />
  <path
     class="leaflet-interactive"
     stroke="#8b908f"
     stroke-opacity="0.5"
     stroke-width="1"
     stroke-linecap="butt"
     stroke-linejoin="bevel"
     fill="#eeeeee"
     fill-opacity="0.5"
     fill-rule="evenodd"
     d="m 703,359 10,-2 3,-3 1,1 v -2 h 6 l 6,-4 1,-7 -2,-4 3,-2 -1,-1 3,-5 -1,-5 -3,-3 2,-4 -1,-3 5,-1 2,-4 -1,-3 -4,-3 5,-3 h -2 l -1,-4 -5,4 -3,-1 -3,1 -1,2 -2,-2 -5,8 -2,-1 -3,3 -3,10 -3,3 v 2 l 3,3 -4,6 2,12 -3,9 z"
     id="140000" />
  <path
     class="leaflet-interactive"
     stroke="#8b908f"
     stroke-opacity="0.5"
     stroke-width="1"
     stroke-linecap="butt"
     stroke-linejoin="bevel"
     fill="#eeeeee"
     fill-opacity="0.5"
     fill-rule="evenodd"
     d="m 597,274 5,13 -2,2 6,6 v 3 h 4 l 2,-2 1,1 v -2 h 7 l 2,3 -1,4 -5,4 10,5 v 4 h 3 l 3,3 h 2 l 2,-2 -2,-2 5,-2 4,2 4,-3 5,-1 2,4 -3,5 -4,2 v 6 l 8,4 9,-3 3,-3 v -8 l 2,-4 1,1 v -2 l 3,-1 3,3 v 2 l -4,6 3,2 h 4 v 2 l 5,1 v 2 h 5 l 1,-3 3,-1 -1,-3 8,-9 -1,-1 1,1 2,-2 -1,-1 2,2 h 2 l 3,-3 2,2 3,-3 1,1 6,-8 2,2 4,-3 3,1 4,-2 -2,-10 3,-1 2,-6 h 2 l 2,2 -1,3 3,1 5,-4 2,2 3,-3 1,1 3,-2 v -4 h 4 l 3,-2 2,4 -1,1 2,2 1,-1 v 8 l 7,1 2,-2 v -6 l -2,-2 2,-2 5,5 v 2 l 6,-6 1,1 3,-3 h 4 l 6,-4 3,1 6,-4 v -2 l -3,-3 h 2 v -2 l -3,-9 -7,4 -2,-7 2,-4 -5,-7 1,-3 2,2 3,-1 3,3 v -4 l 3,-2 -1,-4 5,-2 -1,-3 h -2 l 1,1 -2,2 -2,-1 v -2 l -4,-4 1,-3 8,-5 6,-7 2,6 2,-12 4,-2 -1,-8 7,-15 -6,-8 -3,2 v 2 h -15 l -3,-7 1,-5 h -2 l -3,-3 -3,3 -4,-4 4,-6 -1,-3 -5,-1 -8,8 v 2 h 5 l 1,7 -7,7 1,1 -5,7 1,1 -3,6 h 2 l -1,3 -13,7 -8,-4 -7,16 v 4 l -2,1 v 3 l 3,3 3,-3 9,3 4,-5 5,1 10,10 1,5 -2,2 -5,-1 -2,-2 -8,3 -2,-1 -2,3 h -4 l -5,6 1,1 -5,4 h -8 l -5,6 -4,2 -6,-1 -3,-3 h -5 l -3,8 4,8 -8,4 -5,6 -12,4 -11,-1 -9,3 -11,7 -3,-1 -1,-2 -11,-1 -4,-3 -2,1 -7,-5 h -21 l -13,-2 z"
     id="150000" />
  <path
     class="leaflet-interactive"
     stroke="#8b908f"
     stroke-opacity="0.5"
     stroke-width="1"
     stroke-linecap="butt"
     stroke-linejoin="bevel"
     fill="#eeeeee"
     fill-opacity="0.5"
     fill-rule="evenodd"
     d="m 809,307 h 4 l 7,-8 1,1 6,-5 v -4 l -3,-3 1,-1 h -2 v -4 l 2,-2 -1,1 -2,-2 v -4 l -3,-5 -3,3 v -3 l -5,-4 -2,5 -3,1 1,1 h -7 v 2 l -2,-1 -3,3 h -4 l -10,8 v -2 l -5,-5 -2,2 2,2 v 5 l -4,5 v 3 l 3,3 h 2 l 2,6 6,-3 v -2 l 5,-5 h 5 l 4,4 -3,3 1,1 -5,4 1,1 -3,2 4,2 v 2 l -1,-1 v 2 l -1,-1 -2,4 5,-3 1,1 -1,-1 6,-5 z m -7,5 z m -3,1 z m 3,-1 1,1 z m 1,3 -1,-1 z m 2,-6 -1,1 z m -4,3 v 1 z m -14,-13 z m 18,11 z m 1,5 z m 4,-8 h 1 z"
     id="210000" />
  <path
     class="leaflet-interactive"
     stroke="#8b908f"
     stroke-opacity="0.5"
     stroke-width="1"
     stroke-linecap="butt"
     stroke-linejoin="bevel"
     fill="#eeeeee"
     fill-opacity="0.5"
     fill-rule="evenodd"
     d="m 858,279 2,-7 h 2 l 4,6 v -2 l -2,-1 4,-1 3,-3 1,-3 -8,-3 v -4 l -2,2 -2,-2 -4,2 -1,3 h -2 l -4,-6 -1,-5 -3,3 1,1 -3,1 -3,-6 -3,1 1,-5 -2,-2 h -8 l -2,-4 -4,2 -2,-2 -3,1 -4,-4 v -4 l -2,-2 h -4 l -4,3 v 4 l -3,-3 -3,1 -2,-2 -1,3 3,2 2,5 -2,2 2,8 2,1 5,-4 3,9 v 2 h -2 l 2,2 2,-1 3,3 1,-1 v 3 l 2,2 2,-3 1,1 2,8 2,2 1,-1 -2,2 v 4 h 2 l -1,1 3,3 v 4 l 3,-1 6,-9 4,4 7,1 -2,-7 h 8 l 3,-5 z"
     id="220000" />
  <path
     class="leaflet-interactive"
     stroke="#8b908f"
     stroke-opacity="0.5"
     stroke-width="1"
     stroke-linecap="butt"
     stroke-linejoin="bevel"
     fill="#eeeeee"
     fill-opacity="0.5"
     fill-rule="evenodd"
     d="m 809,236 h 4 v 4 l 4,5 3,-1 2,2 4,-2 2,4 h 8 l 2,2 -1,5 3,-1 4,6 h 2 l -1,-3 3,-2 1,5 4,6 h 2 v -2 l 5,-3 2,2 2,-2 v 4 l 6,3 1,-7 -2,-9 7,-5 9,3 1,-1 v -4 l 7,-11 -1,-1 3,-8 -1,-1 5,-5 v -8 l 3,-2 -16,4 -3,3 -1,-1 1,1 -2,2 -11,1 -4,-5 2,-2 -3,-5 2,-3 h -4 l -7,-7 -3,1 -3,-3 -6,1 -2,-2 v -7 h -2 l -1,-7 -3,-3 1,-3 h -2 l 1,-3 -2,-1 1,-1 -3,-4 1,-1 -4,-8 1,-1 -4,-2 1,-1 -2,-2 h -6 l -10,-6 -15,2 -1,1 2,4 -5,6 3,1 1,3 h 2 l 3,-3 4,4 -1,3 3,9 15,-1 2,-4 7,7 -2,8 -5,7 1,8 -4,2 -2,13 -2,-6 -11,11 -3,1 -1,3 5,7 2,-2 1,1 v -2 l 1,2 1,-1 v 2 l -5,1 1,4 z"
     id="230000" />
  <path
     class="leaflet-interactive"
     stroke="#8b908f"
     stroke-opacity="0.5"
     stroke-width="1"
     stroke-linecap="butt"
     stroke-linejoin="bevel"
     fill="#eeeeee"
     fill-opacity="0.5"
     fill-rule="evenodd"
     d="m 788,393 4,4 5,-3 -5,-5 h -2 z m 8,-5 -5,-3 -1,1 3,3 h 4 z m -1,3 -2,-2 z m 0,-1 3,1 z m -1,-1 h -1 z m 2,3 v -1 z m 0,-1 z"
     id="310000" />
  <path
     class="leaflet-interactive"
     stroke="#8b908f"
     stroke-opacity="0.5"
     stroke-width="1"
     stroke-linecap="butt"
     stroke-linejoin="bevel"
     fill="#eeeeee"
     fill-opacity="0.5"
     fill-rule="evenodd"
     d="m 759,360 -1,1 -3,-5 -4,2 7,6 h 3 l 2,4 h 2 l -1,5 h 2 l 2,4 4,-2 2,2 -1,3 -4,-2 1,3 -3,4 2,2 1,-1 v 2 h 2 l -2,3 h 6 l -1,1 h 4 l 6,4 7,-8 -2,-1 1,-2 5,3 v -3 l -8,-8 -4,-13 -8,-6 -2,-4 -3,1 -3,6 h -2 l -2,-3 -2,2 z"
     id="320000" />
  <path
     class="leaflet-interactive"
     stroke="#8b908f"
     stroke-opacity="0.5"
     stroke-width="1"
     stroke-linecap="butt"
     stroke-linejoin="bevel"
     fill="#eeeeee"
     fill-opacity="0.5"
     fill-rule="evenodd"
     d="m 768,419 3,1 v 6 l 3,1 4,-3 1,3 4,-1 2,3 1,-4 4,-2 -1,-3 1,1 4,-2 v -8 l 3,-1 -2,-4 3,-2 -4,-1 -5,-5 2,-2 -3,-3 -3,3 -6,-4 -2,4 -3,1 2,2 -3,1 -2,2 1,1 -7,7 v 2 l 3,3 v 3 z m 30,-16 1,1 v -2 l -2,-1 z m 0,-2 v 1 z m 1,5 z m 1,-10 z m -2,4 1,1 z m 1,1 v -1 z m -2,10 v -1 z m 3,-7 z m 0,-5 z m -5,15 h 1 z m 4,-10 v 1 z m -4,7 z m -5,14 z m 6,-29 1,1 z m 0,21 z m 2,-11 -1,-1 z m 2,-3 v 1 z m 1,-6 z m -5,20 z m 1,-16 z m 3,2 z m -5,0 1,-1 z m -6,23 z m 7,-16 1,1 z m 1,-5 v 1 z m -1,-3 z m 0,-2 z m 2,3 z m 1,3 v -1 z m -9,17 z m 13,-21 z m -4,-2 z m 0,4 z m 4,-8 z m -14,26 1,-1 z m 1,0 1,-1 z m 10,-19 z m 3,-7 z m -5,7 h 1 z m -1,0 z m -8,19 v -1 z m 11,-18 z m -2,-1 z"
     id="330000" />
  <path
     class="leaflet-interactive"
     stroke="#8b908f"
     stroke-opacity="0.5"
     stroke-width="1"
     stroke-linecap="butt"
     stroke-linejoin="bevel"
     fill="#eeeeee"
     fill-opacity="0.5"
     fill-rule="evenodd"
     d="m 753,365 1,1 -4,2 -4,-4 v 5 h -2 l -1,3 -4,2 3,3 v 2 h 6 v 7 h -2 l -3,3 4,4 h 2 l -3,4 4,8 3,-1 v -2 l 3,2 -2,2 1,1 3,-3 h 2 l 1,3 7,1 4,-5 -1,-1 5,-3 -2,-2 h 2 l 2,-4 -3,-1 1,-1 h -6 l 2,-2 -4,-4 2,-4 -1,-3 4,2 1,-3 -2,-2 -4,2 -2,-4 h -2 l 2,-5 h -4 l 1,-2 -2,-2 h -4 l -5,-5 -2,1 1,2 h 2 z m 18,24 h 1 z m -17,17 z m -10,-26 z"
     id="340000" />
  <path
     class="leaflet-interactive"
     stroke="#8b908f"
     stroke-opacity="0.5"
     stroke-width="1"
     stroke-linecap="butt"
     stroke-linejoin="bevel"
     fill="#eeeeee"
     fill-opacity="0.5"
     fill-rule="evenodd"
     d="m 773,449 -1,-3 2,2 -1,-1 3,-1 h -2 v -2 h 6 l -4,-2 h 2 v -4 l 2,-2 -2,-2 h 2 v -2 l 1,1 -2,2 3,-1 -1,-1 3,-3 v -2 h -5 l -2,-4 -2,3 -3,-1 -2,-8 -3,1 v 2 l -4,2 -3,-1 -3,3 1,2 -5,5 1,3 -2,4 -3,2 -2,8 h 4 l 2,2 -1,1 3,-1 1,7 3,3 7,-6 -1,-3 4,1 2,-2 -1,-1 z m -5,4 -1,1 z m 8,-6 1,-1 z m 1,-4 z m 3,-5 v -1 z m -14,16 v -1 z m 14,-21 z m -14,20 -1,-1 z m 14,-15 z m -2,0 h -1 z m 3,-3 z m -3,8 v -1 z m 1,-9 z m 3,0 z m 1,-3 z m -1,1 z m -4,2 1,-1 z"
     id="350000" />
  <path
     class="leaflet-interactive"
     stroke="#8b908f"
     stroke-opacity="0.5"
     stroke-width="1"
     stroke-linecap="butt"
     stroke-linejoin="bevel"
     fill="#eeeeee"
     fill-opacity="0.5"
     fill-rule="evenodd"
     d="m 766,409 -1,-2 h -4 l -1,-3 h -2 l -3,3 -1,-1 2,-2 -2,-2 -6,4 -4,-2 v 2 h -2 l -3,3 h -4 l -3,3 2,2 v 5 l -4,4 -1,4 h 2 l -1,3 3,5 -1,2 h 2 l -2,8 6,1 -4,5 2,2 7,-3 3,2 1,-1 2,-9 5,-7 -1,-3 5,-4 -1,-3 3,-3 3,1 5,-3 v -4 l -3,-4 z"
     id="360000" />
  <path
     class="leaflet-interactive"
     stroke="#8b908f"
     stroke-opacity="0.5"
     stroke-width="1"
     stroke-linecap="butt"
     stroke-linejoin="bevel"
     fill="#eeeeee"
     fill-opacity="0.5"
     fill-rule="evenodd"
     d="m 751,359 1,-3 3,-1 3,5 h 4 l 2,-2 3,3 2,-3 h 2 l -1,-1 2,-2 4,-1 v -2 l 7,-7 v -2 2 l 3,-1 1,-3 1,1 -1,-3 1,1 8,-4 3,1 3,-6 h -10 v -2 l -6,-2 -4,1 1,1 -4,3 v 2 h -4 l -3,-4 3,-1 v -2 l -3,-3 -3,1 -5,-3 -5,5 h -4 l -3,3 -1,-1 v 2 l -1,-1 1,1 -3,1 v 2 l -5,5 v 9 l 6,-4 v 2 h -2 l -8,8 7,6 z m 35,-33 h 1 z m 0,-1 z m 3,16 h -1 z m -2,-17 v -1 z m 1,-2 v -1 z m -6,26 v -1 z m 4,-22 -1,-1 z m 1,-4 z m 6,7 z m 0,0 z m 0,0 z m -49,17 z"
     id="370000" />
  <path
     class="leaflet-interactive"
     stroke="#8b908f"
     stroke-opacity="0.5"
     stroke-width="1"
     stroke-linecap="butt"
     stroke-linejoin="bevel"
     fill="#eeeeee"
     fill-opacity="0.5"
     fill-rule="evenodd"
     d="m 722,381 3,-1 3,2 2,-2 2,7 h 5 l 1,2 3,-1 2,2 1,-3 4,-1 v -6 h -4 l -2,-4 -3,-1 4,-2 3,-9 4,4 4,-2 -4,-7 h -6 v -2 h -2 l -1,-2 -1,1 -1,-3 10,-8 -5,1 -1,2 1,-3 -2,-2 -2,2 -9,-3 -2,7 -5,4 -7,-1 -1,3 -13,5 7,16 7,5 h 4 z m 8,0 v 1 z"
     id="410000" />
  <path
     class="leaflet-interactive"
     stroke="#8b908f"
     stroke-opacity="0.5"
     stroke-width="1"
     stroke-linecap="butt"
     stroke-linejoin="bevel"
     fill="#eeeeee"
     fill-opacity="0.5"
     fill-rule="evenodd"
     d="m 709,373 h -13 l 3,3 h 2 l -1,3 -3,-1 -1,4 1,5 4,3 1,4 -7,4 h -8 l 2,3 -2,4 h 2 l 3,3 -1,1 2,-1 1,3 1,-3 2,-2 1,1 v -2 l 7,1 v -4 l 10,2 3,3 h 4 l 2,-2 1,3 4,-4 v 6 l 2,2 3,-3 h 6 l -1,-1 6,-4 3,2 1,-1 v -4 l -2,-2 v -4 l 2,-2 -4,-1 -4,-4 -3,1 -1,-3 -5,1 -2,-6 h -13 l -3,-3 -1,1 z m -16,25 z m 16,-25 z m 13,8 z m 1,24 h 1 z"
     id="420000" />
  <path
     class="leaflet-interactive"
     stroke="#8b908f"
     stroke-opacity="0.5"
     stroke-width="1"
     stroke-linecap="butt"
     stroke-linejoin="bevel"
     fill="#eeeeee"
     fill-opacity="0.5"
     fill-rule="evenodd"
     d="m 716,451 2,-4 h 4 v 2 h 2 l -1,-3 2,-2 4,2 3,-3 v -4 l 2,-1 h -2 l 1,-3 -2,-2 v -6 h -2 v -2 l 1,-3 3,-1 -1,-1 2,-2 v -4 l -3,-3 -1,1 -1,-7 -4,3 -1,-3 -2,2 h -4 l -3,-3 -11,-2 v 4 h -8 l -2,4 v 11 l 2,4 -2,2 -1,-1 v 2 l -3,2 5,-1 2,2 v 2 h -2 l -1,3 5,5 v -3 l 4,2 2,-3 h 6 l -1,3 h 2 l -4,9 4,-2 v 4 l 4,-1 z m -20,-18 z"
     id="430000" />
  <path
     class="leaflet-interactive"
     stroke="#8b908f"
     stroke-opacity="0.5"
     stroke-width="1"
     stroke-linecap="butt"
     stroke-linejoin="bevel"
     fill="#eeeeee"
     fill-opacity="0.5"
     fill-rule="evenodd"
     d="m 729,473 1,-4 6,2 1,-3 2,2 3,-3 2,2 2,-2 h 6 l 3,-3 v -2 l 3,-1 -3,-10 -3,1 1,-1 -2,-2 h -4 v 3 h -2 l -1,-2 -8,3 -2,-2 4,-4 -1,-2 -5,1 v -2 h -6 l -2,2 -1,-1 2,2 -2,2 -2,-2 -4,1 1,1 -2,2 v 6 l -5,5 1,3 -3,4 -3,1 -1,3 h -2 l -1,3 -1,-1 -2,3 -1,-1 1,3 -2,4 2,6 h 4 l 2,-2 -3,-3 2,-4 12,-3 2,-2 h 8 z m 28,-11 z m -34,15 -1,1 z m -3,1 h 1 z m 14,-4 z m -30,8 1,1 v -2 z m 16,-4 v -1 z m -16,5 h -2 3 z m 26,-8 z m 0,0 z m -5,1 z m 6,-5 z m 3,4 z m 0,0 h -1 z m 21,10 1,1 -2,1 h 2 z m -31,-9 z m -21,10 z m 2,-2 z m 0,5 z m 43,-7 1,1 z m 0,1 z m -1,-15 z m 0,0 z"
     id="440000" />
  <path
     class="leaflet-interactive"
     stroke="#8b908f"
     stroke-opacity="0.5"
     stroke-width="1"
     stroke-linecap="butt"
     stroke-linejoin="bevel"
     fill="#eeeeee"
     fill-opacity="0.5"
     fill-rule="evenodd"
     d="m 696,439 -1,3 -3,-1 -1,1 h 2 l -2,2 -1,-1 -1,3 -1,-2 h -2 l -1,3 h -2 l -6,-4 -2,4 -7,4 -7,-3 -3,4 h -2 l 7,5 5,-1 2,2 -1,3 h -2 l -3,3 3,3 5,-1 2,2 -2,4 2,1 -1,2 11,4 5,-2 3,1 v 2 h 2 l 3,-2 1,1 v -2 l 1,1 3,-3 1,1 v -2 l 3,-1 v -2 l 6,-5 v -6 l 4,-2 -1,-2 2,-2 -2,-4 -3,2 -1,-5 -2,2 -1,-1 4,-7 h -2 v -4 h -5 l -3,3 -2,-2 -1,3 z m -35,10 z m 32,34 z"
     id="450000" />
  <path
     class="leaflet-interactive"
     stroke="#8b908f"
     stroke-opacity="0.5"
     stroke-width="1"
     stroke-linecap="butt"
     stroke-linejoin="bevel"
     fill="#eeeeee"
     fill-opacity="0.5"
     fill-rule="evenodd"
     d="m 701,492 -7,1 -5,5 v 6 l 2,2 6,2 8,-6 v -3 l 4,-4 -3,-4 h -5 z m 17,133 z m 8,-34 1,-1 z m -10,34 z m -4,-108 1,-1 z m 50,16 v -1 z m -44,91 z m -4,-100 h 1 z m -1,0 h 1 z m 18,71 h 4 l 2,-2 -1,-1 -4,3 z m 1,-11 1,1 z m 0,1 z m -16,-62 z m -2,-1 1,-1 z m 4,63 z m 13,12 z m 3,-12 z m -16,-68 1,1 z m 20,55 z m 9,6 v -1 z m -10,-2 1,-1 z m -7,19 1,-1 z m -34,2 2,-2 2,1 h -4 z m 55,-13 z m -31,-58 1,-1 z m 1,59 z m 15,-17 h 1 z m -16,-45 z m 32,49 h 1 z m -33,-54 z m -7,4 h 1 z m 32,54 h 1 z m -6,14 z m -2,1 1,-1 z m 6,-3 1,1 z m -11,4 1,-1 z m 13,-12 z m 8,2 z m -23,2 1,-1 z m 9,-17 1,-1 z m -1,-3 v -1 z m 3,4 z m -27,-46 z m 19,62 v 1 z m -32,9 v -1 z m 54,-30 1,1 z m -40,-42 z m 6,1 1,-1 z m -6,3 h 1 z m 17,50 v -1 z m 8,15 z m 14,-13 v 1 z m -10,-3 z m 12,-3 z m -17,-47 z m 10,57 z m -18,1 z m 8,13 z m -2,-26 h 1 z m 27,0 z m -29,4 z m 4,-10 z m 16,8 z m -50,20 1,-1 z m 8,-4 z m 30,0 h 1 z m -16,4 z m 7,-23 z m 26,5 v -1 z m -25,-48 z m -29,66 z m 39,-3 1,-1 z m -31,7 z m 0,-9 h 1 z m -9,7 z m 15,-9 z m 33,-7 z m -36,14 z m 20,-62 z m 4,37 h 1 z m -7,-40 z m 16,49 v -1 z m 10,-5 v -1 z m -20,28 z m -16,-14 z m -9,10 z m 4,-9 z m 2,24 h 1 z m 17,-24 v -1 z m 2,7 v -1 z m -15,-4 z m 5,12 z m 25,-77 z m 5,52 v -1 z m -35,-79 z m 12,29 z m -5,-26 z m -10,116 h 1 z m -8,-23 z m 5,-8 h 1 z m 5,9 h 1 z m -2,18 z m -1,0 v -1 z m 23,-68 z m -14,30 z m 2,-43 z m -7,86 z m -3,-1 z m -2,-4 z m -1,-92 z m 0,9 z m 3,85 z m -1,-3 z m 6,-5 z m 24,-26 z m -10,17 v -1 z m -27,-3 z m 19,-66 z m 8,-2 v 1 z m 14,58 z m -33,-61 h 1 z m -11,-29 z m 36,79 h 1 z m 12,-3 v 1 z m -36,-46 z m 25,48 z m -27,8 h 1 z m 17,-50 z m 22,37 v 1 z m 3,1 z m -28,13 z m 4,-3 v 1 z m -17,31 z"
     id="460000" />
  <path
     class="leaflet-interactive"
     stroke="#8b908f"
     stroke-opacity="0.5"
     stroke-width="1"
     stroke-linecap="butt"
     stroke-linejoin="bevel"
     fill="#eeeeee"
     fill-opacity="0.5"
     fill-rule="evenodd"
     d="m 671,417 1,-3 1,3 4,-4 1,1 2,-4 h 2 l 1,3 4,-2 v 4 h 2 v 2 l 3,3 3,-4 v -4 l -2,-4 h -2 v -2 l -4,-1 2,-4 -2,-2 h 2 l 1,-2 3,1 8,-3 1,-3 -2,-3 -2,-2 h -4 l -2,-3 -4,-2 v 2 h -2 l 2,4 -4,4 1,-1 -2,5 h -4 l 1,1 -4,6 h -2 l -1,-3 -3,1 -4,-2 v 2 h -2 l 2,2 -3,6 3,1 v 2 h 2 l 3,4 z m 22,-20 v 1 z m -28,5 z m 28,-4 z m -17,5 z"
     id="500000" />
  <path
     class="leaflet-interactive"
     stroke="#8b908f"
     stroke-opacity="0.5"
     stroke-width="1"
     stroke-linecap="butt"
     stroke-linejoin="bevel"
     fill="#eeeeee"
     fill-opacity="0.5"
     fill-rule="evenodd"
     d="m 629,429 5,10 9,-3 v -8 l 5,-5 v -4 l 1,1 2,-2 -1,-1 4,-2 v 4 h 2 l -2,2 2,2 6,-2 1,3 h 7 v -4 l -4,-2 -1,1 v -2 l 3,-3 3,3 -1,-4 h -4 v -2 l -4,-4 4,-3 -1,-3 -1,1 3,-3 3,2 3,-1 v 2 l 3,1 4,-7 4,-1 v -4 l 4,-3 -2,-4 h 2 v -2 h -4 l -3,-2 -1,1 v -2 l -3,1 -1,-3 -7,1 v -2 h -2 l -2,2 -1,-3 -1,3 h -6 l -3,-3 1,-3 -2,-4 -7,-1 -3,-5 -5,3 2,4 -5,5 -1,-5 -1,5 -4,-2 1,5 -6,2 -2,-2 -1,1 -2,-4 -1,3 -7,-3 -4,-10 h -6 l -2,4 3,3 -3,2 1,1 -2,2 8,6 4,8 -2,2 3,4 2,21 2,3 v -4 l 2,-2 4,4 -1,3 3,3 2,-2 z m 41,-28 z m 6,1 z m -12,-1 z"
     id="510000" />
  <path
     class="leaflet-interactive"
     stroke="#8b908f"
     stroke-opacity="0.5"
     stroke-width="1"
     stroke-linecap="butt"
     stroke-linejoin="bevel"
     fill="#eeeeee"
     fill-opacity="0.5"
     fill-rule="evenodd"
     d="m 694,417 -1,3 h -2 l -1,-3 -1,1 v -2 l -2,-1 v -4 l -4,2 v -2 l -3,-1 -1,3 h -2 l -4,4 -1,-3 -1,3 -3,-3 -3,3 v 2 l 1,-1 4,2 v 3 h -6 l -3,4 -3,1 -3,-2 -2,2 -2,-2 -2,4 1,5 7,-1 -3,9 3,3 h 2 l -3,4 2,2 4,-4 6,4 2,-2 -1,-1 6,-2 2,-4 2,1 v 2 l 5,1 2,-2 -1,-1 4,1 v -2 l 2,1 2,-2 h -2 l 1,-1 3,1 1,-5 h -2 v -4 h 2 v -4 l -5,1 2,-2 -1,-1 4,-2 z m 2,15 z m 0,1 h 1 z"
     id="520000" />
  <path
     class="leaflet-interactive"
     stroke="#8b908f"
     stroke-opacity="0.5"
     stroke-width="1"
     stroke-linecap="butt"
     stroke-linejoin="bevel"
     fill="#eeeeee"
     fill-opacity="0.5"
     fill-rule="evenodd"
     d="m 662,424 -2,-4 -1,2 -3,1 -2,-2 2,-2 h -2 l 1,-3 h -4 v 2 l -2,2 -1,-1 -1,5 -4,4 1,7 -3,3 v -2 l -6,3 -7,-10 -2,-4 1,-1 -2,-2 -2,2 -3,-3 1,-3 -4,-4 -2,2 v 4 l -2,-2 v -8 h -2 v 4 l -2,-2 -1,3 2,3 -2,2 -2,-2 -1,1 1,7 3,-1 1,3 v 10 h -2 l 1,2 -8,8 1,1 -2,4 2,2 -2,2 1,1 4,-2 h 6 l -2,2 2,3 -1,1 2,3 h 4 l -3,8 5,1 4,5 h 4 l 2,-2 2,2 -1,1 4,2 1,-5 -2,-5 2,-2 3,1 3,-3 4,3 3,-3 4,2 3,-3 1,2 4,-2 -1,-1 3,-3 3,1 3,-3 h 2 l 1,-3 -2,-2 -5,1 -3,-4 h -4 l 2,-5 v -2 l -3,-3 2,-9 -2,-1 -4,2 -2,-3 2,-6 2,2 2,-2 4,2 3,-3 z"
     id="530000" />
  <path
     class="leaflet-interactive"
     stroke="#8b908f"
     stroke-opacity="0.5"
     stroke-width="1"
     stroke-linecap="butt"
     stroke-linejoin="bevel"
     fill="#eeeeee"
     fill-opacity="0.5"
     fill-rule="evenodd"
     d="m 538.69245,343.57689 -9,-3 h -10 l -8,2 -3,5 -1,-1 -2,2 -3,-2 -9,5 -9,-1 -1,-3 h -4 v 2 h -2 l -2,3 -12,-2 v 2 l -2,2 -1,-1 -1,5 -2,2 h -4 l -4,4 v 4 l 5,7 -1,5 h -2 l -1,-3 -3,1 v 4 l 3,2 v 6 l 3,3 3,-1 5,5 1,-1 4,2 4,4 2,-4 5,1 12,11 2,-2 3,1 -1,1 5,5 3,-1 2,4 3,-1 2,4 2,-2 v 2 l 4,-2 3,3 h 8 l 2,-2 h 4 l -1,5 2,2 7,-9 8,2 2,2 2,-2 2,4 4,2 1,5 11,-1 6,-6 5,-1 3,-2 v -2 l 3,-1 h 4 l 7,4 3,-2 -1,-1 2,-4 5,4 v -2 l 4,2 v -8 l 2,2 v -4 h 2 l -2,-9 1,-1 -2,-7 -2,-2 3,-1 -4,-4 -2,-6 -7,-1 1,3 -1,-1 -1,3 h -4 l 1,3 -4,-2 -1,3 -2,-2 -3,1 -2,-2 1,-3 h -3 l 1,-1 -5,-3 -8,2 -5,-3 h -6 l -5,-3 h -6 l -4,-2 -6,-7 2,-2 v -7 h -2 l -1,-3 3,-6 -4,-2 z"
     id="540000" />
  <path
     class="leaflet-interactive"
     stroke="#8b908f"
     stroke-opacity="0.5"
     stroke-width="1"
     stroke-linecap="butt"
     stroke-linejoin="bevel"
     fill="#eeeeee"
     fill-opacity="0.5"
     fill-rule="evenodd"
     d="m 703,359 -1,-3 3,-7 -2,-14 4,-6 -3,-6 4,-4 v -4 l 2,-3 -1,-3 -4,3 -4,-2 1,1 -2,2 -1,-1 1,1 -7,7 v 5 h -2 l -2,4 h -4 l -3,-3 -4,4 v 6 l 7,4 1,-1 3,3 v 10 h -7 v 4 l -10,-2 1,3 -2,2 3,3 h -2 l 1,2 -2,2 2,3 h -6 l -1,3 2,1 -2,3 h -2 4 l 2,2 6,-1 1,3 3,-1 v 2 l 1,-1 3,3 3,-1 10,5 -1,-7 2,-2 h 4 l -3,-3 -1,1 v -2 l -2,-1 9,-1 1,2 2,-2 z m 5,11 z m -39,7 z"
     id="610000" />
  <path
     class="leaflet-interactive"
     stroke="#8b908f"
     stroke-opacity="0.5"
     stroke-width="1"
     stroke-linecap="butt"
     stroke-linejoin="bevel"
     fill="#eeeeee"
     fill-opacity="0.5"
     fill-rule="evenodd"
     d="m 672,348 -1,5 -4,-2 1,-1 h -2 l -3,-3 v -10 l -7,-6 -5,-1 -2,-3 h -2 v -6 l 4,-2 3,-5 -2,-4 -5,1 -3,3 -5,-2 -3,1 v 3 l -2,2 -7,-3 -1,-4 h -2 l -6,-5 h -3 l 5,-4 2,-4 -1,-3 h -8 v 2 l -1,-1 -3,2 v -2 l -3,2 v -3 l -3,-2 -2,-4 v -6 l -4,-9 -8,2 -2,2 2,3 -1,3 -6,3 -3,-1 -8,7 -2,4 -6,1 -2,10 -3,4 1,3 2,-2 h 4 v 3 h 4 l 2,2 3,-1 2,4 h 9 l 4,3 2,-2 2,1 v -2 l 3,-3 v -5 l 9,4 1,-3 2,2 2,-2 3,1 -1,1 7,6 2,1 v -3 l 3,3 1,-1 4,5 8,2 7,16 -9,12 v 2 l 3,3 -4,2 -7,-3 -1,1 3,6 5,2 1,-1 v 4 l 3,-1 -1,-1 h 2 l 1,-2 -3,-4 h 2 l 3,-3 3,2 1,3 7,1 2,4 -1,3 3,3 h 6 l 1,-3 h 3 v -6 h 6 l -1,-7 h 2 l -3,-3 2,-2 -1,-3 9,2 2,-1 -2,-2 1,-1 6,1 v -6 l 2,-2 -1,-4 -9,-4 -3,-3 h -4 v 4 l -2,2 1,3 4,2 -1,3 h -2 z m -4,2 h 1 z m -26,-8 h 1 z m 27,9 z m 3,-3 z"
     id="620000" />
  <path
     class="leaflet-interactive"
     stroke="#8b908f"
     stroke-opacity="0.5"
     stroke-width="1"
     stroke-linecap="butt"
     stroke-linejoin="bevel"
     fill="#eeeeee"
     fill-opacity="0.5"
     fill-rule="evenodd"
     d="m 642,342 v -4 l -6,-10 -1,1 -2,-2 h -4 l -2,-4 -1,1 -5,-4 v 2 h -2 l -8,-8 h -2 l -1,2 -2,-2 -2,3 -5,-4 h -4 l 1,5 -3,3 v 2 l -2,-1 -2,2 -4,-3 -9,1 -2,-5 -3,1 -2,-2 h -4 v -2 l -3,-1 -12,5 h -5 l -5,3 1,2 3,-1 -1,6 7,6 -5,3 v 2 l 3,1 v 3 l -2,2 -6,-2 -2,2 h -4 l 4,2 -3,5 v 2 l 3,3 v 6 l -2,2 6,7 4,2 3,-1 8,4 9,1 2,2 8,-2 7,5 -1,2 2,2 3,-1 2,2 1,-3 4,2 -1,-3 1,1 3,-1 1,-3 1,1 -1,-3 h 2 l -1,-5 2,-3 -2,-4 3,-4 5,2 3,7 4,4 3,1 2,-2 2,2 -1,1 3,-1 2,2 5,-2 -1,-5 h 3 l 1,2 1,-4 -4,-2 -4,-5 2,-2 5,3 5,-2 -3,-3 v -2 l 4,-4 -1,-1 4,-2 -1,-2 3,-3 -1,-3 z"
     id="630000"
     inkscape:highlight-color="#aa87aa" />
  <path
     class="leaflet-interactive"
     stroke="#8b908f"
     stroke-opacity="0.5"
     stroke-width="1"
     stroke-linecap="butt"
     stroke-linejoin="bevel"
     fill="#eeeeee"
     fill-opacity="0.5"
     fill-rule="evenodd"
     d="m 678,334 v -4 l 3,-3 -3,-3 -6,-2 4,-7 -2,-4 -4,1 v 2 l -1,-1 -2,4 v 8 l -2,3 -11,3 h 2 l 7,7 -1,1 2,4 v 5 h 2 v 2 h 2 l 3,3 v -5 h 4 l 1,-3 -4,-3 v -6 l 2,-2 z m -10,16 v 1 z m 1,1 z"
     id="640000" />
  <path
     class="leaflet-interactive"
     stroke="#8b908f"
     stroke-opacity="0.5"
     stroke-width="1"
     stroke-linecap="butt"
     stroke-linejoin="bevel"
     fill="#eeeeee"
     fill-opacity="0.5"
     fill-rule="evenodd"
     d="m 592.19675,276.79512 -4,-5 -3,-9 h -2 l 1,-3 h -4 l -12,-8 h -10 l -6,-2 -1,1 -2,-2 -1,1 -2,-5 3,-5 -2,-3 2,-4 -1,-4 h -2 l -4,-9 -6,-4 -3,1 -4,-2 v -2 l -5,-4 1,-1 -3,-1 v -5 l -2,2 -5,-1 v 4 l -5,5 -2,-1 -4,4 2,9 -2,4 -4,2 -9,-1 -7,-3 -6,18 v 2 l 3,2 -1,2 -5,-1 -1,-2 -2,2 -7,2 -1,-1 -5,3 4,3 v 6 l 3,7 v 3 l -3,2 1,1 -3,3 1,5 -5,4 -12,5 -1,2 h -2 v 2 h -7 l -5,7 -3,-1 -2,2 v -4 l -4,2 -3,-1 1,2 h -2 l -3,3 -1,-1 -3,3 1,3 -3,1 1,5 1,-1 -1,3 3,3 1,-2 5,2 2,8 -1,1 2,2 -2,2 h -4 l 11,5 2,2 -1,5 3,2 1,-1 8,5 5,-1 v 4 l 2,2 -1,2 6,4 8,-2 1,-5 3,-2 v -2 l 12,2 5,-5 h 2 l 3,3 5,1 12,-5 2,2 3,-1 5,-5 h 4 l 3,-2 h 10 l 10,4 2,-2 6,2 2,-4 -3,-3 5,-4 -6,-6 v -6 l -3,1 -1,-3 18,-5 5,-17 6,-1 4,-6 6,-5 h 2 l 1,2 2,-3 h 2 l 3,-4 -2,-3 2,-2 z"
     id="650000"
     inkscape:highlight-color="#2229aa" />
  <path
     class="leaflet-interactive"
     stroke="#8b908f"
     stroke-opacity="0.5"
     stroke-width="1"
     stroke-linecap="butt"
     stroke-linejoin="bevel"
     fill="#eeeeee"
     fill-opacity="0.5"
     fill-rule="evenodd"
     d="m 784,471 3,5 1,-6 4,-5 4,-12 v -6 h -6 l -5,6 -2,6 -2,1 2,10 z m 33,-31 z m -9,2 1,-1 z m -30,19 -1,1 z m 32,-21 z m -33,20 -1,1 z m 0,3 z m 0,-3 z m 20,-17 z m -5,26 h 1 z m 1,5 z m 4,-30 h 1 z m -21,20 z m 7,8 h 1 z"
     id="710000" />
  <path
     class="leaflet-interactive"
     stroke="#8b908f"
     stroke-opacity="0.5"
     stroke-width="1"
     stroke-linecap="butt"
     stroke-linejoin="bevel"
     fill="#eeeeee"
     fill-opacity="0.5"
     fill-rule="evenodd"
     d="m 733,470 v 2 h -2 l 1,1 4,-2 z m 0,3 h 1 z m 2,-2 z m 0,0 z m 0,0 z m 0,1 z m 0,-1 z m 0,1 z m 0,0 z"
     id="香港特别行政区" />
  <path
     class="leaflet-interactive"
     stroke="#8b908f"
     stroke-opacity="0.5"
     stroke-width="1"
     stroke-linecap="butt"
     stroke-linejoin="bevel"
     fill="#eeeeee"
     fill-opacity="0.5"
     fill-rule="evenodd"
     d="m 729,474 v -1 z m 0,-1 z"
     id="澳门特别行政区" />
  <path
     class="leaflet-interactive"
     stroke="#8b908f"
     stroke-opacity="0.5"
     stroke-width="1"
     stroke-linecap="butt"
     stroke-linejoin="bevel"
     fill="#eeeeee"
     fill-opacity="0.5"
     fill-rule="evenodd"
     d="m 801,462 2,-10 z m -11,23 6,-8 z m -14,24 5,-9 z m -3,25 v -9 z m -3,32 -1,2 3,-9 -1,3 z m -25,33 5,-7 z m -26,29 -4,1 8,-3 -3,1 z m -33,-21 1,1 -1,-8 z m 15,-43 2,-3 v -4 l -1,6 z m -2,-32 -4,-8 3,6 z"
     id="100000_JD" />
</svg>
