<?xml version="1.0" encoding="UTF-8" standalone="no"?>
<svg
   pointer-events="none"
   class="leaflet-zoom-animated"
   width="1447"
   height="865"
   viewBox="-121 -72 1447 865"
   style="transform: translate3d(-121px, -72px, 0px);"
   version="1.1"
   id="svg1"
   sodipodi:docname="云南省.svg"
   inkscape:version="1.4 (86a8ad7, 2024-10-11)"
   xmlns:inkscape="http://www.inkscape.org/namespaces/inkscape"
   xmlns:sodipodi="http://sodipodi.sourceforge.net/DTD/sodipodi-0.dtd"
   xmlns="http://www.w3.org/2000/svg"
   xmlns:svg="http://www.w3.org/2000/svg">
  <defs
     id="defs1" />
  <sodipodi:namedview
     id="namedview1"
     pagecolor="#ffffff"
     bordercolor="#000000"
     borderopacity="0.25"
     inkscape:showpageshadow="2"
     inkscape:pageopacity="0.0"
     inkscape:pagecheckerboard="0"
     inkscape:deskcolor="#d1d1d1"
     inkscape:zoom="1.2104046"
     inkscape:cx="723.31184"
     inkscape:cy="432.5"
     inkscape:window-width="1920"
     inkscape:window-height="991"
     inkscape:window-x="-9"
     inkscape:window-y="1341"
     inkscape:window-maximized="1"
     inkscape:current-layer="svg1" />
  <path
     class="leaflet-interactive"
     stroke="#000000"
     stroke-opacity="1"
     stroke-width="2"
     stroke-linecap="round"
     stroke-linejoin="round"
     fill="#ffffff"
     fill-opacity="0.2"
     fill-rule="evenodd"
     d="m 766,285 1,-1 -2,-3 h 4 v -2 l -2,-1 14,-13 4,-5 2,-7 1,2 4,-1 1,5 7,3 -1,1 3,3 6,-3 v -4 l 6,-7 h 3 l 1,2 5,2 6,7 10,-3 2,2 2,-2 3,1 1,3 13,-9 7,2 v 2 l 3,-5 2,-11 3,-2 v -7 l -2,-6 3,-2 -5,-1 -1,-4 4,-5 -3,-4 -4,1 -1,-5 -7,-2 -5,2 v 3 l -6,8 -13,2 -3,3 h -4 l -3,-3 -1,1 -8,-7 -2,-4 -4,-1 7,-2 3,-7 -3,-1 v -2 l 4,-3 -5,-3 v -3 l -2,-1 -3,2 -4,-7 v -9 l 5,-1 4,-4 h 2 v -2 l -3,-2 -4,3 -4,-4 -1,2 h -7 l -2,3 -2,-2 -8,2 v -2 h -4 v -2 l -2,-1 -3,10 4,11 -1,2 2,2 -1,2 -9,7 -5,-4 -5,2 -1,3 -8,8 v 2 l 2,2 1,-1 3,5 3,-1 -4,5 -1,9 -6,6 h -2 l -5,7 1,3 -5,1 -5,10 -4,2 -2,-1 -4,3 -3,-3 -4,8 2,11 -3,9 2,1 -1,4 7,13 4,16 -1,4 -3,1 -1,10 h -5 l -1,-2 -3,4 -6,3 -1,4 -3,1 -5,-4 2,-6 -4,-2 -11,5 -3,4 -7,2 -10,11 -4,-3 -5,1 -2,-2 -4,5 -1,-3 -3,-2 1,-3 -5,-5 h -7 l -2,-3 v -3 h 4 l -1,-6 -9,-8 h -4 l -3,-6 4,-1 2,-5 -2,-1 1,-3 h 2 l 1,-2 -4,-2 v 3 l -4,1 v -2 l -2,-1 3,-5 -6,-5 h -3 v -3 l -8,-5 2,-13 h -6 l -2,-2 -2,-9 -5,-9 -3,1 1,-4 -3,-8 -2,1 1,-4 -4,-1 -2,-6 -3,-3 1,-4 -3,-5 -3,1 -5,8 -7,-5 -2,2 -2,7 h -2 l -1,2 -2,-1 v -9 l -6,-1 -3,-3 2,-2 -5,-6 h -2 l -4,-9 1,-3 8,-2 2,-3 -3,-2 2,-3 -7,-3 -1,-6 -3,-1 -2,-3 1,-2 -17,-14 1,-1 -2,-8 -2,2 h -4 l -1,7 -5,3 1,4 -5,3 v 3 h -4 v 4 l 2,3 h -2 l 2,4 -3,6 2,1 -2,6 1,5 -6,-6 -1,-4 -4,-2 v -3 l -4,-4 1,-13 -4,-8 1,-3 -2,-2 2,-14 -2,-9 v -11 l -4,1 -1,2 -3,-2 -1,2 v 4 l 3,4 v 2 l -6,5 v 7 l 3,1 v 3 l -5,2 -4,-1 v -8 l -4,-6 -4,3 h -5 l 2,3 v 10 l 2,4 -1,2 -5,2 2,4 v 10 l 3,1 5,10 -3,4 1,4 -4,2 -2,3 -4,-2 -9,6 -2,-1 -1,-9 -5,-10 -1,-1 -5,3 4,8 -6,3 v 3 h -2 l -1,13 2,3 h 2 l 1,4 -2,3 2,2 1,5 2,1 -2,1 4,5 2,10 h 5 l 3,-11 2,2 h 6 l 2,4 h 5 l 2,4 -1,8 1,4 2,1 v 8 l -2,2 1,10 3,2 v 2 l -2,1 v 11 l 2,4 -1,6 2,7 -2,4 v 13 l -4,5 -1,5 3,1 v 7 l -4,3 v -4 h -4 l -1,2 2,10 3,1 3,5 v 3 l -4,4 -7,-3 -5,7 v 4 l -3,2 v 4 h -2 l -4,4 -4,-5 -5,-1 1,4 -4,4 2,8 -4,1 v 4 l -6,3 -4,5 -2,1 -2,-4 -3,-1 -2,8 -5,8 v 10 l 5,4 -2,2 -4,-1 -10,7 1,12 -2,9 9,-1 2,6 -3,5 6,1 1,2 -3,2 v 3 l 2,2 -8,8 v 3 l -4,1 v 2 l -3,1 8,7 2,-2 2,1 8,-8 h 4 v -3 l 21,-7 9,1 12,-2 3,3 6,-1 2,-2 3,1 7,-2 2,3 -6,6 -9,4 2,1 v 8 l -2,2 7,2 3,3 -1,2 2,2 v 3 l 3,1 v 2 l -6,4 2,5 h 5 l -1,2 2,6 -3,1 4,2 v 3 l -2,1 -1,5 1,-1 10,2 -1,3 4,2 5,-1 5,2 1,-2 5,-2 5,4 h 5 v 5 l 3,6 -2,2 -5,-3 -1,1 2,5 -5,4 v 2 l -5,2 3,4 2,7 -2,3 2,2 -9,8 2,2 -2,2 -1,6 -4,5 1,1 h -2 l 8,4 h 8 l 4,-2 3,2 3,-1 1,2 1,-2 2,2 2,-1 4,5 3,-3 5,3 h 2 v -3 l 7,1 -1,2 2,3 -3,9 2,10 4,1 -1,2 5,-2 4,2 v 2 l -4,4 4,7 1,-2 h 2 l 1,3 6,-1 2,-3 5,-1 4,6 h 6 l 10,-5 4,-6 6,-5 8,-2 7,-4 -1,5 4,8 h -2 v 2 h 4 l 1,4 -2,2 v 3 l -3,1 3,5 4,3 -2,4 5,4 15,-5 5,1 v 4 l 4,-1 5,4 3,-5 h 3 v -3 l -5,-2 -2,-4 1,-10 2,-2 -2,-2 v -3 l 3,1 2,-3 -4,-3 -1,-5 2,-7 -3,-1 -3,-7 -2,1 -3,-3 1,-4 -3,-6 2,-1 -4,-7 1,-3 h 3 l 3,-4 1,-10 6,-2 4,3 2,5 h 3 v -3 h 5 l 4,-2 6,2 -1,1 2,1 2,-2 6,1 -1,-3 9,-12 -1,-3 7,-7 5,4 2,-1 4,3 2,-1 4,4 8,4 -1,1 4,5 9,4 v -3 l 7,-5 -1,-3 2,-3 6,-2 2,-9 8,4 v 4 l 6,7 3,-5 -1,-3 5,-6 15,16 6,4 3,-3 2,-13 4,-5 10,-2 v 7 h 4 l 3,3 13,-11 3,3 v -2 l 7,1 v -2 l 8,-6 -3,-12 3,-1 2,-3 2,-1 2,2 1,-3 h 2 l 6,-5 h 10 l 1,-4 4,-5 2,4 4,4 2,-1 6,8 -1,-4 4,-5 5,-3 1,2 1,-3 -2,-2 6,-5 h 3 l 1,-3 5,-1 6,2 v 3 l 5,-3 3,-3 v -2 h 2 l -2,-3 3,-8 -2,-5 4,-2 v -4 l -7,-9 1,-1 -3,-2 v -3 l -3,-2 -7,1 v 4 l -2,-1 -4,3 -1,-4 -9,3 -1,-7 -6,1 -2,7 -6,-1 -6,-6 h -2 v 3 l -2,1 -5,-5 v -2 h 3 l 1,-3 -5,-5 2,-4 -3,-3 h -2 l -1,-3 -3,-2 -5,2 -14,-3 -1,2 -2,-1 v 9 l -7,-4 1,-2 -3,-1 -6,-16 4,-8 v -4 l 11,-13 -2,-4 -4,-1 4,-1 4,-10 4,4 1,-1 v -6 h -6 l -2,-3 -4,1 v -5 l -5,-3 v -9 l -7,2 -1,2 v -6 l -3,-3 h -4 l -1,-3 1,-9 3,2 4,-6 -1,-6 3,-6 -1,-6 h 3 l 2,-2 -1,-5 2,-6 3,-5 6,-3 -1,-5 h -2 v -3 l -5,-8 -5,1 -4,-10 -5,7 -14,-2 -4,5 1,4 -2,1 -15,-2 -4,-7 1,-8 h -3 l -1,-4 1,-4 3,-1 1,-5 -5,-8 h -2 l -1,2 z"
     id="云南省" />
  <path
     class="leaflet-interactive"
     stroke="#333333"
     stroke-opacity="1"
     stroke-width="1"
     stroke-linecap="round"
     stroke-linejoin="round"
     stroke-dasharray="1, 6"
     fill="#eeeeee"
     fill-opacity="0.5"
     fill-rule="evenodd"
     d="m 734,463 h 8 l 1,-7 2,1 v -4 l 9,6 4,1 v 2 l -2,1 1,1 10,-8 -1,-1 2,-2 -1,-1 3,-6 -2,-9 -4,-1 v 3 l -2,-1 -2,3 -5,-5 2,-6 -4,-5 5,-4 -1,-5 -4,-1 v 3 l -5,-1 v 2 l -3,-4 1,-1 -3,-1 1,-3 h 2 l -1,-2 2,-3 -3,-1 2,-4 3,-2 1,-4 h 4 l -1,-6 2,-1 v 2 h 3 l 4,-2 -4,-3 4,-14 h -5 v -3 l -4,2 -4,-2 -2,2 -2,-4 1,-11 -4,-8 1,-1 -3,-3 -1,1 -3,-4 h -3 l 1,-3 -4,-18 -1,4 -3,1 -1,10 h -5 l -1,-2 -3,4 -6,3 -1,4 -3,1 -5,-4 2,-6 -4,-2 -11,5 -3,4 -7,2 v 4 l 4,5 3,1 -2,16 4,2 -2,7 2,2 -1,4 4,5 1,-1 2,9 -5,6 h -3 l 1,5 3,4 -3,4 v 5 l -2,4 -7,2 -2,-4 -2,3 2,4 3,1 -1,5 2,-1 v 2 l 2,1 v 20 l -1,3 -4,3 v 2 l 6,5 v 2 l 2,-1 3,-6 1,-1 1,2 2,-3 3,1 1,-2 2,1 2,-2 2,1 -1,2 h 5 l 2,3 8,-4 -2,-3 4,-11 -1,-3 2,1 3,-2 v -6 l 6,-3 v -2 l 2,4 -1,7 4,1 -2,3 -1,10 h 5 z"
     id="530100" />
  <path
     class="leaflet-interactive"
     stroke="#333333"
     stroke-opacity="1"
     stroke-width="1"
     stroke-linecap="round"
     stroke-linejoin="round"
     stroke-dasharray="1, 6"
     fill="#eeeeee"
     fill-opacity="0.5"
     fill-rule="evenodd"
     d="m 751,304 v 2 l -1,-2 -2,2 -2,-2 -4,1 -4,8 -4,-2 v 2 h -3 l -1,7 4,16 -1,3 h 3 l 2,4 1,-1 4,3 -1,1 4,7 -1,12 2,4 1,-2 4,1 -1,1 5,-2 1,3 h 5 v 3 l -2,2 1,2 -3,5 v 2 l 4,3 -4,2 h -3 v -2 l -2,1 1,6 h -4 l -1,4 -3,2 -2,4 2,1 v 5 h -2 l -1,3 3,1 -1,1 3,4 v -2 l 5,1 v -2 h 4 l -1,2 2,3 -5,3 4,6 -2,6 5,5 2,-3 2,1 v -3 l 4,1 2,9 -1,1 6,-2 -2,4 3,1 1,-2 h 2 l 5,4 4,2 1,-1 2,2 -2,3 4,4 -1,5 3,3 7,-3 4,4 -2,2 1,1 13,-2 v -3 h 7 v -2 h 2 l -5,-13 4,-8 v -4 l 11,-13 -2,-4 -4,-1 4,-1 4,-10 4,4 1,-1 v -6 h -6 l -2,-3 -4,1 v -5 l -5,-3 v -9 l -7,2 -1,2 v -6 l -3,-3 h -4 l -1,-3 1,-9 3,2 4,-6 -1,-6 3,-6 -1,-6 h 3 l 2,-2 -1,-5 2,-6 3,-5 6,-3 -1,-5 h -2 v -3 l -5,-8 -5,1 -4,-10 -5,7 -14,-2 -4,5 1,4 -2,1 -15,-2 -4,-7 1,-8 h -3 l -1,-4 1,-4 3,-1 1,-5 -5,-8 -7,4 h -12 l 2,1 v 2 l -2,4 -1,-1 1,2 -3,8 2,1 z m 1,0 v 1 z"
     id="530300" />
  <path
     class="leaflet-interactive"
     stroke="#333333"
     stroke-opacity="1"
     stroke-width="1"
     stroke-linecap="round"
     stroke-linejoin="round"
     stroke-dasharray="1, 6"
     fill="#eeeeee"
     fill-opacity="0.5"
     fill-rule="evenodd"
     d="m 677,435 h -4 v -2 l -3,-1 -3,6 h -4 l -1,4 -3,3 -3,9 3,4 -4,1 4,8 4,-1 -1,4 2,2 -4,8 -9,2 v -4 l -2,-1 v 2 l -7,-4 -1,-2 -6,9 -4,2 -2,-1 -2,-10 -4,-3 -1,4 -6,5 4,6 v 3 l 3,2 1,6 8,9 -4,6 h -4 v 5 l 2,3 2,-3 4,-1 2,3 -2,3 h 3 l 3,4 4,-3 2,2 -3,2 2,4 h 2 l -1,2 1,2 h 2 l 2,5 -3,3 5,1 v 2 l 3,2 2,-3 15,3 3,-8 2,2 7,-1 2,-7 -8,-12 h -5 v -4 l 2,-1 -3,-5 2,-3 6,-2 1,-2 -3,-5 7,-3 -3,-2 5,-1 4,3 4,-1 1,2 7,-1 2,3 -1,4 2,3 5,-8 6,-2 1,4 h 2 l 4,-5 5,2 4,-4 4,-9 -1,-6 -3,-3 1,-4 -2,-1 3,-7 v -4 h -5 v -5 l 3,-8 h -4 l 1,-8 -2,-4 v 2 l -6,3 v 6 l -3,2 -2,-1 1,3 -3,6 v 8 l -3,3 -1,-1 -3,2 -2,-3 -3,1 -3,-4 -2,2 -2,-1 -1,2 -3,-1 -2,3 -1,-2 -3,4 v 3 l -3,1 v -2 l -7,-7 6,-6 v -20 l -2,-1 v -2 z"
     id="530400" />
  <path
     class="leaflet-interactive"
     stroke="#333333"
     stroke-opacity="1"
     stroke-width="1"
     stroke-linecap="round"
     stroke-linejoin="round"
     stroke-dasharray="1, 6"
     fill="#eeeeee"
     fill-opacity="0.5"
     fill-rule="evenodd"
     d="m 462,383 -1,6 h -7 v -9 l -2,-4 1,-2 -2,-1 1,-4 -2,-1 -4,4 -7,-3 -5,7 v 4 l -3,2 v 4 h -2 l -4,4 -4,-5 -5,-1 1,4 -4,4 2,8 -4,1 1,7 5,3 -1,8 6,4 -3,5 2,6 4,-2 1,3 2,1 h 10 l 3,5 -1,2 -3,-1 -5,3 2,3 v 4 l -3,1 5,5 -1,2 3,1 6,-3 5,1 3,6 -3,3 2,4 v 13 l -2,1 1,5 10,-1 3,-4 h 3 l 8,-4 1,1 8,-8 3,-7 h 3 l 3,6 v 8 l 4,1 4,-2 1,-4 6,-3 3,-7 3,1 -2,-10 3,-3 h 2 v -3 l 5,-2 1,-3 -3,-3 4,-3 -2,-2 4,-4 -2,-2 4,-4 9,-4 v -4 l -4,1 -3,-7 -5,1 -2,5 -8,4 -10,-6 -2,1 -15,-17 1,-5 3,2 1,-4 -2,-3 -7,-3 -4,2 -2,3 h -2 l -2,-2 v -5 l -4,1 1,-5 h -6 z"
     id="530500" />
  <path
     class="leaflet-interactive"
     stroke="#333333"
     stroke-opacity="1"
     stroke-width="1"
     stroke-linecap="round"
     stroke-linejoin="round"
     stroke-dasharray="1, 6"
     fill="#eeeeee"
     fill-opacity="0.5"
     fill-rule="evenodd"
     d="m 730,318 1,1 v -6 h 3 v -2 l 4,2 2,-1 2,-7 h 10 v -2 l -2,-1 3,-8 -1,-2 1,1 2,-4 v -2 l -2,-1 h 12 l 2,-2 -2,-3 h 4 v -2 l -2,-1 14,-13 4,-5 2,-7 1,2 4,-1 1,5 7,3 -1,1 3,3 6,-3 v -4 l 6,-7 h 3 l 1,2 5,2 6,7 10,-3 2,2 2,-2 3,1 1,3 13,-9 7,2 v 2 l 5,-11 v -5 l 3,-2 v -7 l -2,-6 3,-2 -5,-1 -1,-4 4,-5 -1,-2 -2,-2 -4,1 -1,-5 -7,-2 -5,2 v 3 l -8,9 -11,1 -3,3 h -4 l -3,-3 -1,1 -8,-7 -2,-4 -4,-1 7,-2 3,-7 -3,-1 v -2 l 4,-3 -5,-3 v -3 l -2,-1 -3,2 -4,-7 v -9 l 7,-2 2,-3 h 2 v -2 l -3,-2 -4,3 -4,-4 -1,2 h -7 l -2,3 -2,-2 -8,2 v -2 h -4 v -2 l -2,-1 -3,10 4,11 -1,2 2,2 -1,2 -9,7 -5,-4 -5,2 -1,3 -8,8 v 2 l 2,2 1,-1 3,5 3,-1 -4,5 -1,9 -6,6 h -2 l -5,7 1,3 -5,1 -5,10 -4,2 -2,-1 -4,3 -3,-3 -4,8 2,11 -3,9 2,1 v 7 l 6,10 3,15 z"
     id="530600" />
  <path
     class="leaflet-interactive"
     stroke="#333333"
     stroke-opacity="1"
     stroke-width="1"
     stroke-linecap="round"
     stroke-linejoin="round"
     stroke-dasharray="1, 6"
     fill="#eeeeee"
     fill-opacity="0.5"
     fill-rule="evenodd"
     d="m 592,345 5,-6 7,-5 5,-1 1,-2 h 10 l 8,-4 1,-2 -2,-1 1,-1 -5,-8 4,-1 2,-5 -2,-1 1,-3 h 2 l 1,-2 -4,-2 v 3 l -4,1 v -2 l -2,-1 3,-5 -6,-5 h -3 v -3 l -8,-5 2,-13 h -6 l -2,-2 -2,-9 -5,-9 -3,1 1,-4 -3,-8 -2,1 1,-4 -4,-1 -2,-6 -3,-3 1,-4 -3,-5 -3,1 -5,8 -7,-5 -2,2 -2,7 h -2 l -1,2 -2,-1 -2,3 2,2 -3,3 1,2 h -2 v 3 l -4,6 4,11 -11,12 -1,3 2,5 -2,8 -5,5 -2,-3 1,-4 -4,-8 -3,-1 v -3 l -14,-14 2,-2 -7,-11 v -5 l -4,2 v 3 l -4,1 -2,4 3,6 -3,5 1,4 -2,1 2,1 -1,2 3,4 h -2 l 1,5 6,10 2,1 3,14 6,3 v 2 l 2,1 4,-2 2,2 h 5 v -2 l 8,4 h 2 v -4 h 2 l 2,3 3,-1 2,-5 3,-1 v 4 l 4,-1 v 2 h 3 l -1,2 2,-1 v 4 h 3 v 2 h 2 v 2 l 2,1 -3,1 1,3 3,2 -6,8 3,7 -2,1 1,3 h 3 l 1,2 v 7 l 12,1 -2,-3 v -4 l 11,-7 3,3 h 2 z"
     id="530700" />
  <path
     class="leaflet-interactive"
     stroke="#333333"
     stroke-opacity="1"
     stroke-width="1"
     stroke-linecap="round"
     stroke-linejoin="round"
     stroke-dasharray="1, 6"
     fill="#eeeeee"
     fill-opacity="0.5"
     fill-rule="evenodd"
     d="m 616,479 -7,-4 -6,-7 -11,-22 -2,2 h -5 l -10,-7 -1,6 -4,3 -4,-3 -4,1 -3,3 2,1 8,14 -3,3 v 24 l -5,2 -2,-1 -2,2 3,9 -1,3 -3,2 v 7 l 6,6 -5,4 -5,-2 -6,2 -2,8 -4,5 1,3 -2,2 v 7 l -3,2 -10,-2 -5,4 -9,-4 -3,4 1,3 -2,-1 -6,4 v 7 l 3,6 -2,2 -5,-3 -1,1 2,5 -5,4 v 2 l -5,2 3,4 2,7 -2,3 2,2 -9,8 2,2 -2,2 -1,6 -4,5 1,1 h -2 l 1,1 7,3 h 8 l 4,-2 3,2 3,-1 1,2 1,-2 2,2 2,-1 4,5 3,-3 7,3 v -3 h 8 v -3 l 5,-3 1,-6 4,1 4,-4 9,3 3,-6 -1,-5 2,-2 2,1 6,-3 4,1 2,-3 h 2 v -2 h 4 l 2,-4 7,-1 1,4 2,1 8,-5 4,3 7,1 h 7 l 2,-2 7,-2 4,13 1,2 h 2 l -1,3 h 7 l 1,-10 6,-2 4,3 2,5 h 3 v -3 h 5 l 4,-2 6,2 -1,1 2,1 2,-2 6,1 -1,-3 4,-6 -3,-4 -8,-1 -5,-3 -1,-4 -4,-5 -5,-2 -2,2 -6,-6 3,-2 2,-8 h 6 v 2 h 3 l 3,-3 -1,-3 2,-1 -7,-6 -2,2 -7,-2 v -5 l 4,-3 -4,-6 -5,-1 v -2 l 3,-1 -2,-5 h -2 l -1,-2 1,-2 h -2 l -2,-3 3,-3 -2,-2 -4,3 -3,-4 h -3 l 2,-3 -1,-3 -4,1 -3,3 -2,-3 v -5 h 4 l 4,-6 -8,-9 -1,-6 -3,-2 -2,-6 z"
     id="530800" />
  <path
     class="leaflet-interactive"
     stroke="#333333"
     stroke-opacity="1"
     stroke-width="1"
     stroke-linecap="round"
     stroke-linejoin="round"
     stroke-dasharray="1, 6"
     fill="#eeeeee"
     fill-opacity="0.5"
     fill-rule="evenodd"
     d="m 560,449 -4,-3 h -4 l -6,1 -4,2 v 3 h -2 l 7,-21 -7,-2 -3,3 h -2 l -2,-6 -10,7 2,2 -4,4 2,2 h -2 l -2,3 3,3 -1,3 h -2 l -3,5 h -2 l -3,3 2,10 -2,-1 -4,7 -6,3 -2,5 h -7 v -8 l -3,-6 h -3 l -3,7 -8,8 -1,-1 -8,4 h -3 l -2,3 2,3 -6,6 -9,4 2,1 v 8 l -2,2 7,2 3,3 -1,2 2,2 v 3 l 3,1 v 2 l -6,4 2,5 h 5 l -1,2 2,6 -3,1 4,2 v 3 l -2,1 -1,5 1,-1 10,2 -1,3 4,2 5,-1 5,2 1,-2 5,-2 5,4 h 5 v -2 l 5,-4 2,1 v -3 l 3,-3 h 4 l 5,3 5,-4 h 4 l 2,2 h 4 l 3,-2 v -7 l 2,-2 -1,-2 4,-6 2,-8 h 3 l 1,-2 7,2 5,-4 -6,-6 v -7 l 4,-5 -3,-9 2,-2 2,1 5,-2 v -24 l 3,-3 -10,-15 z"
     id="530900" />
  <path
     class="leaflet-interactive"
     stroke="#333333"
     stroke-opacity="1"
     stroke-width="1"
     stroke-linecap="round"
     stroke-linejoin="round"
     stroke-dasharray="1, 6"
     fill="#eeeeee"
     fill-opacity="0.5"
     fill-rule="evenodd"
     d="m 677,435 1,-4 -1,-2 h -2 l -2,-4 2,-3 v 2 l 2,1 7,-1 2,-4 v -5 l 3,-4 -3,-4 -1,-5 5,-1 3,-5 -2,-9 -1,1 -4,-5 1,-4 -2,-2 2,-7 -4,-2 2,-15 -6,-5 -2,-4 -9,9 -4,-3 -5,1 -2,-2 -4,5 -1,-3 -3,-2 1,-3 -5,-5 h -7 l -2,-6 h 4 l -1,-6 -9,-8 -3,1 v 2 l 2,1 -1,2 -8,4 h -10 l -1,2 h -3 l -9,6 -5,6 v 8 l 2,1 -2,4 1,2 1,-1 1,5 -3,2 2,1 -3,3 4,4 -1,2 2,-1 -2,4 1,3 h 2 l 1,7 h -3 l -1,6 6,5 v 4 l -3,1 v 5 l -5,1 -5,-2 -1,6 -1,-1 -3,4 v 7 l 2,3 -4,2 2,3 -1,7 2,2 h -2 l 4,6 h 5 l 2,-2 11,22 6,7 7,4 v -2 l 6,-3 1,-4 4,2 v 4 l 4,8 4,-2 5,-9 9,6 v -2 l 2,1 -1,4 h 6 l 6,-4 2,-5 -2,-3 1,-4 -3,1 -2,-3 -1,1 v -4 l -2,-2 4,-1 -3,-4 3,-3 v -6 l 4,-5 -1,-2 h 4 l 4,-4 v -2 l 3,1 v 2 h 3 z"
     id="532300" />
  <path
     class="leaflet-interactive"
     stroke="#333333"
     stroke-opacity="1"
     stroke-width="1"
     stroke-linecap="round"
     stroke-linejoin="round"
     stroke-dasharray="1, 6"
     fill="#eeeeee"
     fill-opacity="0.5"
     fill-rule="evenodd"
     d="m 734,463 -3,6 2,2 -1,4 1,2 1,-1 2,7 -7,15 -5,-3 -7,5 -1,-4 -6,2 -3,7 -2,1 -2,-3 1,-4 -2,-2 h -7 l -1,-2 -4,1 -4,-3 h -3 l -2,1 3,2 -7,2 2,8 -6,2 -2,3 3,5 -2,1 v 4 h 5 l 6,8 2,7 -2,4 -7,1 -2,-2 -3,8 -15,-3 -2,2 1,3 -4,3 v 5 l 4,2 h 3 l 1,-2 8,6 -2,1 1,2 -3,4 h -3 v -2 h -6 l -1,6 -4,4 6,6 2,-2 5,2 4,5 1,4 5,3 8,1 3,4 5,-6 -1,-3 7,-7 5,4 2,-1 4,3 2,-1 4,4 8,4 -1,1 4,5 9,4 v -3 l 7,-5 -1,-3 2,-3 6,-2 2,-9 8,4 v 4 l 6,7 3,-5 -1,-3 5,-6 15,16 6,4 3,-3 2,-13 4,-5 11,-3 -1,-2 h -3 l -2,2 -3,-3 -3,1 -2,4 h -3 l 1,2 -3,6 h -6 v -8 l 2,-1 -1,-6 3,-6 -1,-10 -2,-3 v -3 l 2,-1 -2,-4 -5,-3 -1,1 -1,-10 -2,-2 -2,1 -1,-4 -4,3 -4,-2 -1,-3 h 2 l 3,-5 -2,-7 2,-7 3,-3 v -3 h -2 l -3,-3 1,-1 -4,-4 v -3 l 4,-6 9,-3 2,-6 8,-9 5,-1 1,-6 -3,-4 1,-3 -12,-7 h -2 l -1,2 -3,-1 2,-4 -6,3 -2,4 1,1 -2,2 1,1 -10,8 -1,-1 2,-1 v -2 l -13,-7 v 4 l -2,-1 -1,6 h -6 z m -4,34 -1,-1 v 2 z"
     id="532500" />
  <path
     class="leaflet-interactive"
     stroke="#333333"
     stroke-opacity="1"
     stroke-width="1"
     stroke-linecap="round"
     stroke-linejoin="round"
     stroke-dasharray="1, 6"
     fill="#eeeeee"
     fill-opacity="0.5"
     fill-rule="evenodd"
     d="m 827,466 -2,1 v 2 l -4,-1 -3,1 v 3 l -9,2 h -4 l -1,-1 2,-2 -4,-4 -7,3 -6,-2 -7,6 -5,10 -9,3 -4,6 v 3 l 4,4 -1,1 3,3 h 2 v 3 l -3,2 -2,8 2,7 -3,5 h -2 l 1,3 4,2 3,-3 2,1 v 2 l 4,1 -1,1 2,3 v 7 l 1,-1 5,3 2,4 -2,1 v 3 l 2,3 1,14 -3,2 1,6 -2,3 v 5 l 2,2 5,-2 2,-5 -1,-2 h 3 l 4,-5 2,2 1,-1 v 2 l 6,-2 v 10 h 4 l 3,3 13,-11 3,3 v -2 l 7,1 v -2 l 8,-6 -3,-12 3,-1 2,-3 2,-1 2,2 1,-3 h 2 l 6,-5 h 10 l 1,-4 4,-5 2,4 4,4 2,-1 6,8 -1,-4 4,-5 5,-3 1,2 1,-3 -2,-2 6,-5 h 3 l 1,-3 5,-1 6,2 v 3 l 5,-3 3,-3 v -2 h 2 l -2,-3 3,-8 -2,-5 4,-2 v -4 l -7,-9 1,-1 -3,-2 v -3 l -3,-2 -7,1 v 4 l -2,-1 -4,3 -1,-4 -9,3 -1,-7 -6,1 -2,7 -6,-1 -6,-6 h -2 v 3 l -2,1 -5,-5 v -2 h 3 l 1,-3 -5,-5 2,-4 -3,-3 h -2 l -1,-3 -3,-2 -5,2 -14,-3 -1,2 -2,-1 v 9 l -7,-4 1,-2 -3,-1 z"
     id="532600" />
  <path
     class="leaflet-interactive"
     stroke="#333333"
     stroke-opacity="1"
     stroke-width="1"
     stroke-linecap="round"
     stroke-linejoin="round"
     stroke-dasharray="1, 6"
     fill="#eeeeee"
     fill-opacity="0.5"
     fill-rule="evenodd"
     d="m 640,616 h -7 l 1,-3 h -2 l -2,-4 -3,-11 -7,2 -2,2 -14,-1 -4,-3 -8,5 -2,-1 -1,-4 -7,1 -2,4 h -4 v 2 h -2 l -2,3 -4,-1 -8,2 -1,7 -3,6 -6,-3 h -3 l -4,4 -3,-1 -2,6 -4,3 -3,6 2,3 -3,9 2,10 4,1 -1,2 5,-2 4,2 v 2 l -4,4 4,7 1,-2 h 2 l 1,3 6,-1 2,-3 5,-1 4,6 h 6 l 10,-5 4,-6 6,-5 8,-2 7,-4 -1,5 4,8 h -2 v 2 h 4 l 1,4 -2,2 v 3 l -3,1 3,5 4,3 -2,4 5,4 15,-5 5,1 v 4 l 4,-1 5,4 3,-5 h 3 v -3 l -5,-2 -2,-4 1,-10 2,-2 -2,-2 v -3 l 3,1 2,-3 -4,-3 -1,-5 2,-7 -3,-1 -3,-7 -2,1 -3,-3 1,-4 -3,-6 2,-1 -4,-7 1,-3 h 3 l 2,-3 z"
     id="532800" />
  <path
     class="leaflet-interactive"
     stroke="#333333"
     stroke-opacity="1"
     stroke-width="1"
     stroke-linecap="round"
     stroke-linejoin="round"
     stroke-dasharray="1, 6"
     fill="#eeeeee"
     fill-opacity="0.5"
     fill-rule="evenodd"
     d="m 462,383 8,1 -1,5 4,-1 v 5 l 2,2 h 2 l 6,-5 7,2 2,4 -1,3 -3,-1 -1,5 15,17 2,-1 10,6 3,-1 -1,-1 2,-1 h 4 l 2,-6 5,-2 3,8 3,-1 v 11 h 2 l 3,-3 7,2 -7,21 h 2 v -3 l 10,-3 h 4 l 1,2 3,1 6,-2 4,3 4,-3 1,-6 6,3 v -2 h 2 l -2,-4 1,-5 -2,-3 4,-2 -2,-3 v -7 l 2,-4 2,1 v -6 l 11,2 -2,-4 1,-2 4,-1 v -4 l -3,-1 -3,-4 1,-6 h 3 l -1,-7 h -2 l -1,-3 2,-4 -2,1 1,-2 -2,-3 h -2 l 3,-4 -2,-1 3,-2 v -3 l -3,-3 2,-3 -2,-2 1,-7 h -4 l -3,-3 -11,7 v 4 l 2,3 -7,1 -3,-3 -2,1 v -7 l -1,-2 h -3 l -1,-3 2,-1 -3,-7 4,-7 h 2 l -4,-6 3,-1 -2,-1 v -2 h -2 v -2 h -3 v -4 l -2,1 1,-2 h -3 v -2 l -4,1 v -4 l -3,1 -2,5 -2,1 -3,-3 h -2 v 4 l -7,-2 -2,-2 -1,2 h -5 l -2,-2 -4,2 -4,-4 h -2 l -1,3 -7,3 v 12 l -5,6 -3,-1 -2,3 -2,-1 v 5 l -11,7 3,3 -4,-2 -2,1 v -2 h -4 l -2,3 -1,8 1,3 h 3 l 2,3 3,10 h -4 l -3,-3 -1,3 2,2 -3,2 -8,-4 v 6 z"
     id="532900" />
  <path
     class="leaflet-interactive"
     stroke="#333333"
     stroke-opacity="1"
     stroke-width="1"
     stroke-linecap="round"
     stroke-linejoin="round"
     stroke-dasharray="1, 6"
     fill="#eeeeee"
     fill-opacity="0.5"
     fill-rule="evenodd"
     d="m 411,405 h -2 l -10,9 -2,-4 -3,-1 -2,8 -5,8 v 10 l 5,4 -2,2 -4,-1 -10,7 1,12 -2,9 9,-1 2,6 -3,5 h 4 l 3,3 -3,2 v 3 l 2,2 -2,3 -6,5 v 3 l -4,1 v 2 l -3,1 8,7 2,-2 2,1 8,-8 h 4 v -3 l 6,-1 4,-3 11,-3 9,1 12,-2 3,3 7,-2 -1,-5 2,-1 v -12 l -2,-5 3,-3 -3,-6 -5,-1 -8,3 -3,-7 h -2 l 3,-2 v -4 l -2,-3 5,-3 3,1 1,-2 -2,-5 -6,1 -7,-2 v -3 l -5,2 -1,-1 -1,-5 3,-5 -5,-4 v -8 l -6,-5 z"
     id="533100" />
  <path
     class="leaflet-interactive"
     stroke="#333333"
     stroke-opacity="1"
     stroke-width="1"
     stroke-linecap="round"
     stroke-linejoin="round"
     stroke-dasharray="1, 6"
     fill="#eeeeee"
     fill-opacity="0.5"
     fill-rule="evenodd"
     d="m 511,309 -3,-4 -3,-11 -4,-5 -5,-2 -2,2 2,1 -3,2 -5,-12 h -2 l 1,4 -4,3 -6,-2 -8,1 1,-4 -1,1 -2,-4 v -8 l 3,-7 -1,-3 h -4 l -2,-4 v -10 l -2,-3 3,-4 -6,-7 3,-1 v -2 l -2,-4 -3,-2 v -13 l -3,-3 -4,-9 1,-2 -3,1 -2,3 -4,-2 -9,6 -2,-1 -1,-9 -5,-10 -1,-1 -5,3 4,8 -6,3 v 3 h -2 l -1,13 2,3 h 2 l 1,4 -2,3 2,2 1,5 2,1 -2,1 4,5 2,10 h 5 l 3,-11 2,2 h 6 l 2,4 h 5 l 2,4 -1,8 1,4 2,1 v 8 l -2,2 1,10 3,2 v 2 l -2,1 v 11 l 2,4 -1,6 2,7 -2,4 v 13 l -4,5 -1,5 3,1 v 7 l -4,3 v -4 h -4 l -1,2 2,10 3,1 3,5 v 3 l 2,1 -1,4 2,1 -1,2 2,4 v 9 h 7 v -16 l 8,4 3,-1 -2,-3 1,-3 3,3 h 4 l -4,-13 h -3 l -2,-3 1,-8 2,-3 h 4 v 2 l 2,-1 4,3 -3,-4 11,-7 v -5 l 2,1 2,-3 3,1 6,-8 -2,-2 v -7 l 8,-4 1,-3 z"
     id="533300" />
  <path
     class="leaflet-interactive"
     stroke="#333333"
     stroke-opacity="1"
     stroke-width="1"
     stroke-linecap="round"
     stroke-linejoin="round"
     stroke-dasharray="1, 6"
     fill="#eeeeee"
     fill-opacity="0.5"
     fill-rule="evenodd"
     d="m 553,232 v -9 l -6,-1 -3,-3 2,-2 -5,-6 h -2 l -4,-9 1,-3 8,-2 2,-3 -3,-2 2,-3 -7,-3 -1,-6 -3,-1 -2,-3 1,-2 -17,-14 1,-1 -2,-8 -2,2 h -4 l -1,7 -5,3 1,4 -5,3 v 3 h -4 v 4 l 2,3 h -2 l 2,4 -3,6 2,1 -2,6 1,5 -6,-6 -1,-4 -4,-2 v -3 l -4,-4 1,-13 -4,-8 1,-3 -2,-2 2,-14 -2,-9 v -11 l -4,1 -1,2 -3,-2 -1,2 v 4 l 3,4 v 2 l -6,5 v 7 l 3,1 v 3 l -5,2 -4,-1 v -8 l -4,-6 -4,3 h -5 l 2,3 v 10 l 2,4 -1,2 -5,2 2,4 v 10 l 3,1 5,10 -3,4 1,4 -2,3 1,4 6,8 v 13 l 3,1 2,5 v 2 l -3,1 6,7 -3,4 2,3 -1,3 2,5 v 6 h 5 l 1,3 -3,9 v 6 l 2,4 1,-1 -1,4 10,-1 4,2 4,-3 -1,-3 2,-1 5,12 3,-2 -2,-1 2,-2 5,1 v -2 l -4,-4 -1,-5 h 2 l -3,-4 1,-2 -2,-1 2,-1 -1,-4 3,-5 -3,-6 1,-3 4,-1 1,-4 4,-2 2,11 5,5 -2,2 14,14 v 3 l 3,1 4,8 -1,4 2,3 5,-5 2,-8 -2,-5 1,-3 11,-11 -4,-12 4,-6 v -3 h 2 l -1,-2 3,-3 -2,-2 1,-1 z"
     id="533400" />
</svg>
