<?xml version="1.0" encoding="UTF-8" standalone="no"?>
<svg
   pointer-events="none"
   class="leaflet-zoom-animated"
   width="1447"
   height="865"
   viewBox="-121 -72 1447 865"
   style="transform: translate3d(-121px, -72px, 0px);"
   version="1.1"
   id="svg1"
   sodipodi:docname="内蒙古自治区.svg"
   inkscape:version="1.4 (86a8ad7, 2024-10-11)"
   xmlns:inkscape="http://www.inkscape.org/namespaces/inkscape"
   xmlns:sodipodi="http://sodipodi.sourceforge.net/DTD/sodipodi-0.dtd"
   xmlns="http://www.w3.org/2000/svg"
   xmlns:svg="http://www.w3.org/2000/svg">
  <defs
     id="defs1" />
  <sodipodi:namedview
     id="namedview1"
     pagecolor="#ffffff"
     bordercolor="#000000"
     borderopacity="0.25"
     inkscape:showpageshadow="2"
     inkscape:pageopacity="0.0"
     inkscape:pagecheckerboard="0"
     inkscape:deskcolor="#d1d1d1"
     inkscape:zoom="0.8982659"
     inkscape:cx="774.26963"
     inkscape:cy="508.20142"
     inkscape:window-width="1920"
     inkscape:window-height="991"
     inkscape:window-x="-9"
     inkscape:window-y="1341"
     inkscape:window-maximized="1"
     inkscape:current-layer="svg1" />
  <path
     class="leaflet-interactive"
     stroke="#000000"
     stroke-opacity="1"
     stroke-width="2"
     stroke-linecap="round"
     stroke-linejoin="round"
     fill="#ffffff"
     fill-opacity="0.2"
     fill-rule="evenodd"
     d="m 669,588 -8,13 -1,6 -10,-2 -1,5 -8,4 v -6 l -5,2 -4,7 h -2 l -2,-3 h -2 l -1,2 -5,-5 -1,1 2,5 -5,2 -2,-2 1,2 -7,6 v 4 l -7,5 1,2 h -2 l -8,10 3,7 -2,3 -4,-4 v 11 l -15,2 -3,-1 -1,-4 -11,-5 -1,1 v -2 l -6,-5 h -10 l -6,-4 3,-2 2,-10 6,-6 -4,-12 -4,-1 -2,2 -6,1 1,3 h -4 l -2,6 -2,1 1,1 -4,12 1,7 -2,1 v 12 h -4 v 2 l -3,1 -4,-1 -6,4 -14,2 -4,3 -4,-2 -9,-9 -6,-2 -1,-4 v -3 l 4,-2 -3,-7 10,-7 8,-10 v -5 l -3,-4 1,-4 -6,-1 -9,3 -10,8 -10,-2 -3,-3 -14,5 5,6 -6,7 h -4 l -1,-2 -5,-2 v -2 h -2 l -1,-3 1,-2 -3,2 h -3 l -2,-2 -1,1 v -12 h -8 v -2 l -4,-1 v -3 l -2,-2 -8,-3 -1,-3 -9,-1 2,1 7,-4 7,-8 v -8 l 2,-2 v -3 l -3,-5 -10,-2 -2,3 h -9 v 3 l -2,2 -3,-3 -4,2 v 2 h -2 l -1,-4 -2,1 1,2 -6,3 v -10 l -9,-6 -8,-11 6,-6 -16,-34 53,7 11,-3 20,-1 22,6 6,8 8,3 6,-1 16,9 11,2 15,-2 v 6 l 9,1 2,2 4,-5 9,-5 27,-12 11,-2 4,-3 11,2 7,-2 14,2 3,-2 7,1 26,-11 14,-18 7,-2 1,-2 h 4 l 5,-6 4,-1 v -4 l -7,-7 -3,-7 -3,-3 4,-7 1,-6 6,-9 h 12 l 7,6 21,4 6,-5 4,-1 9,-9 2,-6 h 18 l 8,-2 7,-7 h 4 l 2,-3 -1,-4 4,-8 6,-6 3,-1 h 13 v -4 l 2,-2 -1,-2 8,2 3,-3 7,-2 2,-2 11,2 1,-3 12,6 2,-2 7,1 1,-2 h 3 v -6 l -5,-11 -8,-8 v -2 l -5,-2 v -4 l -8,-4 -5,-7 -17,-1 -10,13 -11,-9 -10,2 -4,-1 -4,2 -3,4 -9,-8 -1,-8 7,-3 -1,-9 21,-46 8,5 9,2 8,4 6,-3 11,-11 11,-2 6,-5 1,-7 -2,-2 h -3 l 1,-2 1,1 v -4 l 6,-8 v -5 l 5,-6 2,-4 -1,-2 h 2 l -1,-3 h 2 l 2,-4 2,-9 3,-1 8,-9 h 3 v -4 l 3,-5 -1,-4 -3,-2 2,-8 -5,-4 -10,2 -1,-7 h 2 l 6,-5 10,-13 16,-3 7,10 -5,7 1,1 -10,10 10,5 3,6 3,1 6,-9 1,2 2,-1 4,7 7,2 v 2 l -4,2 v 2 l 3,6 v 6 l 3,5 -1,1 4,10 9,2 6,-2 1,-3 5,4 6,-2 5,3 1,-4 4,2 3,-1 1,-2 1,1 6,-10 h 4 l 8,9 5,9 2,2 1,-1 2,6 -7,8 v 8 l -5,3 1,1 h -2 l 1,3 -7,8 2,2 h -2 v 6 l -2,1 2,1 -1,5 h -2 l 3,4 v 11 l -3,4 -5,-2 -2,2 1,2 -8,18 2,9 -2,4 1,1 -3,2 2,-3 -2,-1 -2,-5 -1,-7 -17,18 -5,3 -3,5 -13,8 -4,7 3,6 6,3 -1,4 h 3 v 5 l 3,3 3,-1 1,-4 3,1 1,-3 -1,-2 -1,1 v -2 l 3,3 h 2 l -1,3 h 2 v -2 l 1,1 v 6 h -6 l -3,3 h -5 v 5 l 4,6 -3,5 -6,1 1,5 -2,6 -2,1 v -2 l -2,-2 -1,1 -2,-4 h -2 l 1,2 -3,2 -8,-7 h -3 l 1,4 -3,4 3,3 3,-1 v 4 l 5,5 v 4 l 2,1 -3,3 -1,5 2,9 -1,5 2,1 v 3 h 2 l -1,7 9,-1 8,-7 h 3 v 4 l 6,7 -2,4 3,3 2,11 h -4 l -1,3 2,2 1,-1 6,3 -2,9 -1,2 -2,-1 -7,3 v 3 l -2,2 h -5 l -1,2 -2,-2 -9,-2 3,3 -3,2 h -2 l -1,-2 v 2 l -5,-1 -3,6 -4,3 -2,-3 -5,1 -8,8 -2,-2 -11,6 v 3 l -4,2 1,1 -5,6 -2,-1 1,-1 -5,-14 -2,1 -5,-3 1,-2 -2,-1 -6,6 4,3 -2,4 v 8 l 2,6 -2,6 -3,1 -8,-2 h -11 v -3 l -2,-1 1,-3 h -2 l -2,-5 1,-2 3,1 v -7 l -1,-3 -2,2 -2,-3 1,-1 -4,-3 2,-1 v -3 l -6,-7 h -7 l -2,3 1,2 -7,-1 -5,3 1,5 -3,1 2,3 -2,4 -1,-1 -1,2 h -7 v -2 h -2 l -3,4 h -2 v 3 h -2 l -2,-5 h -2 l -11,7 -2,4 -9,-1 1,-11 -2,-6 -5,2 -1,-1 -2,3 1,2 h -4 l -3,5 v 9 l -3,-1 -5,4 2,1 -1,2 3,2 -4,4 6,11 -2,4 1,3 -5,2 -2,-2 -5,5 -4,1 -3,-3 -5,1 -6,6 -7,-4 z m 273,-322 1,-7 h 2 v -6 l -8,-1 -3,2 1,3 -2,2 -2,-3 -1,3 4,7 1,-2 h 6 v 2 z"
     id="内蒙古自治区" />
  <path
     class="leaflet-interactive"
     stroke="#333333"
     stroke-opacity="1"
     stroke-width="1"
     stroke-linecap="round"
     stroke-linejoin="round"
     stroke-dasharray="1, 6"
     fill="#eeeeee"
     fill-opacity="0.5"
     fill-rule="evenodd"
     d="m 640,587 7,5 2,5 -2,7 12,3 2,-6 8,-13 -2,-3 1,-1 -5,-5 v -3 l 2,-2 -1,-1 2,-2 -10,-15 -5,-1 -7,3 -9,-4 -6,1 3,9 -2,2 1,2 h 2 l -1,3 2,2 v 4 l 7,7 -1,2 z"
     id="150100" />
  <path
     class="leaflet-interactive"
     stroke="#333333"
     stroke-opacity="1"
     stroke-width="1"
     stroke-linecap="round"
     stroke-linejoin="round"
     stroke-dasharray="1, 6"
     fill="#eeeeee"
     fill-opacity="0.5"
     fill-rule="evenodd"
     d="m 649,556 v -7 l -9,-8 -6,-11 -1,-9 -9,-9 -10,3 -12,6 4,9 -6,9 4,11 4,1 1,5 -2,1 3,4 -1,3 3,1 2,4 -3,4 -8,1 v 6 l 3,-1 3,2 8,-2 5,1 9,6 h 3 v 2 l 6,-1 1,-4 -6,-4 1,-1 -2,-1 v -4 l -2,-2 1,-3 h -2 l -1,-2 2,-2 -1,-4 -3,-3 1,-2 2,1 2,-2 5,2 1,-1 5,3 3,-2 z"
     id="150200" />
  <path
     class="leaflet-interactive"
     stroke="#333333"
     stroke-opacity="1"
     stroke-width="1"
     stroke-linecap="round"
     stroke-linejoin="round"
     stroke-dasharray="1, 6"
     fill="#eeeeee"
     fill-opacity="0.5"
     fill-rule="evenodd"
     d="m 542,600 1,5 -4,4 3,3 1,7 5,5 3,-7 -2,1 -2,-2 -2,-11 v -4 l 2,-2 -1,-1 -3,3 v -2 z"
     id="乌海市" />
  <path
     class="leaflet-interactive"
     stroke="#333333"
     stroke-opacity="1"
     stroke-width="1"
     stroke-linecap="round"
     stroke-linejoin="round"
     stroke-dasharray="1, 6"
     fill="#eeeeee"
     fill-opacity="0.5"
     fill-rule="evenodd"
     d="m 864,527 -7,-9 -5,-13 v -3 l 9,-11 -8,1 4,-1 9,-7 -7,-12 2,-3 -3,-4 -4,-1 -10,-16 -15,-15 v 5 l -3,-2 v 5 h -2 l 2,2 -4,2 3,3 -6,2 2,2 -1,4 -7,3 -1,-1 -5,5 -3,-1 -4,8 -4,-1 -3,3 h -2 v -2 l -5,-5 -6,1 -5,6 v 8 l 2,1 -6,4 v 4 l -4,-1 -6,9 1,4 6,7 -2,9 h 5 l 2,2 v 3 l 5,-2 7,1 1,-5 h 7 l 6,7 1,3 -3,1 4,3 v 4 l 3,-2 1,2 v 8 h -4 l 2,6 h 2 l -1,3 2,1 1,4 h 8 l 2,-2 1,2 h 9 l 3,-5 -2,-6 v -9 l 2,-4 -3,-3 v -2 l 5,-3 h 2 l -1,2 3,2 h 4 v 4 l 3,4 2,8 12,-14 6,-3 1,1 z"
     id="150400" />
  <path
     class="leaflet-interactive"
     stroke="#333333"
     stroke-opacity="1"
     stroke-width="1"
     stroke-linecap="round"
     stroke-linejoin="round"
     stroke-dasharray="1, 6"
     fill="#eeeeee"
     fill-opacity="0.5"
     fill-rule="evenodd"
     d="m 864,527 1,-1 2,2 8,-8 5,-1 2,3 7,-9 5,1 v -2 l 1,2 h 2 l 3,-2 -3,-2 2,-1 7,2 2,2 1,-2 2,1 6,-3 -1,-2 2,-3 h 6 l 2,-2 2,-9 h -2 l -3,-3 -2,1 -2,-3 1,-2 2,1 v -2 l 2,1 -2,-8 1,-1 -4,-5 2,-4 -6,-7 v -4 h -3 l -6,4 -1,3 -12,1 -9,-6 -8,-11 v -2 l -9,-5 -1,-6 -7,-4 -4,-5 -8,-4 h -3 v 2 l -2,1 v -2 h -3 l -5,-3 -6,6 -1,5 9,7 2,5 8,7 8,14 h 2 l 3,3 v 5 l 7,12 -9,7 -4,1 8,-1 -9,10 2,11 7,12 z"
     id="150500" />
  <path
     class="leaflet-interactive"
     stroke="#333333"
     stroke-opacity="1"
     stroke-width="1"
     stroke-linecap="round"
     stroke-linejoin="round"
     stroke-dasharray="1, 6"
     fill="#eeeeee"
     fill-opacity="0.5"
     fill-rule="evenodd"
     d="m 547,623 v 4 l -6,6 -2,10 -3,2 11,5 5,-1 6,5 v 2 l 1,-1 4,3 7,2 v 2 l 4,3 9,-2 2,1 3,-1 1,-11 3,4 3,-4 -3,-3 v -3 l 3,-5 5,-5 h 2 l -1,-1 4,-5 3,-1 v -4 l 5,-4 1,1 1,-3 -2,-2 2,2 6,-2 -2,-4 1,-2 5,5 4,-2 1,3 3,-1 3,-6 5,-2 v 5 l 6,-1 2,-2 v -4 l -2,-2 2,-6 -2,-6 -7,-5 -6,1 v -2 l -5,-1 -9,-6 -10,2 -3,-2 -4,1 v 2 l -4,-2 -10,-2 -1,1 v -2 l -4,-1 1,-1 -4,-3 -5,-1 -1,-2 h -8 l -4,4 -1,-1 -5,4 h -3 v 2 h -2 v 6 l -10,10 v 6 l 1,-1 v 2 l 3,-3 1,1 -2,2 2,14 2,3 2,-1 -1,6 -2,1 z"
     id="150600" />
  <path
     class="leaflet-interactive"
     stroke="#333333"
     stroke-opacity="1"
     stroke-width="1"
     stroke-linecap="round"
     stroke-linejoin="round"
     stroke-dasharray="1, 6"
     fill="#eeeeee"
     fill-opacity="0.5"
     fill-rule="evenodd"
     d="m 899,364 -8,5 -6,-3 -3,1 -2,3 -4,-1 -1,2 -3,1 -3,-2 -3,2 -8,-5 2,-5 -4,-5 h -2 l -4,-4 -6,4 h -3 l -3,4 -6,3 -3,-3 v -2 l -5,-2 v -4 l -8,-4 -5,-7 -5,-1 h -12 l -10,13 -11,-9 -10,2 -4,-1 -4,2 -3,4 -9,-8 -1,-8 7,-3 -1,-9 21,-46 8,5 9,2 8,4 6,-3 11,-11 11,-2 6,-5 1,-7 -2,-2 h -3 l 1,-2 1,1 v -4 l 6,-8 v -5 l 5,-6 2,-4 -1,-2 h 2 l -1,-3 h 2 l 2,-4 2,-9 3,-1 8,-9 h 3 v -4 l 3,-5 -1,-4 -3,-2 2,-8 -5,-4 -10,2 -1,-7 h 2 l 6,-5 10,-13 7,-2 3,1 2,-2 h 4 l 7,10 -5,7 1,1 -10,10 10,5 3,6 3,1 6,-9 1,2 2,-1 4,7 7,2 v 2 l -4,2 v 2 l 3,6 v 6 l 3,5 -1,1 4,10 9,2 6,-2 1,-3 5,4 6,-2 5,3 1,-4 4,2 3,-1 1,-2 1,1 6,-10 h 4 l 8,9 5,9 2,2 1,-1 2,6 -7,8 v 8 l -5,3 1,1 h -2 l 1,3 -7,8 2,2 h -2 v 6 l -2,1 2,1 -1,5 h -2 l 3,4 v 11 l -3,4 -5,-2 -2,2 1,2 -8,18 2,9 -2,4 1,1 -3,2 2,-3 -2,-1 -2,-5 -1,-7 -17,18 -5,3 -3,5 -13,8 -2,5 z m 43,-98 1,-7 h 2 v -6 l -8,-1 -3,2 1,3 -2,2 -2,-3 -1,3 4,7 1,-2 h 6 v 2 z"
     id="150700" />
  <path
     class="leaflet-interactive"
     stroke="#333333"
     stroke-opacity="1"
     stroke-width="1"
     stroke-linecap="round"
     stroke-linejoin="round"
     stroke-dasharray="1, 6"
     fill="#eeeeee"
     fill-opacity="0.5"
     fill-rule="evenodd"
     d="m 545,590 7,-6 v -6 l 1,1 1,-3 h 3 l 5,-4 1,1 2,-2 -1,-1 11,-1 10,6 -1,1 9,4 4,-1 2,2 h 4 l 1,-8 h 7 l 3,-4 -2,-4 -3,-1 1,-3 -3,-4 2,-3 -1,-3 -5,-2 -2,-6 1,-1 -2,-3 6,-9 -4,-9 h -8 l -4,2 -7,-2 -14,2 -10,-2 -4,1 -1,2 -11,2 -27,12 -9,7 v 8 l 3,6 1,7 9,6 11,3 1,3 4,1 v 2 l -5,-2 -1,1 3,5 3,1 1,-2 h 7 l -3,4 z"
     id="150800" />
  <path
     class="leaflet-interactive"
     stroke="#333333"
     stroke-opacity="1"
     stroke-width="1"
     stroke-linecap="round"
     stroke-linejoin="round"
     stroke-dasharray="1, 6"
     fill="#eeeeee"
     fill-opacity="0.5"
     fill-rule="evenodd"
     d="m 669,588 3,-2 7,4 6,-6 5,-1 2,3 5,-1 5,-4 2,1 2,-2 h 3 l -1,-3 2,-4 -7,-11 5,-4 h -2 v -4 l -2,-1 4,-4 4,1 v -9 l 3,-4 4,-1 -1,-2 2,-3 1,1 5,-2 -2,-2 -1,1 -2,-3 -5,3 2,3 h -2 v -2 l -2,-1 -4,2 v 5 l -1,-1 -3,2 -1,-4 -12,-2 -7,6 -5,-6 h -3 l -2,-5 1,-1 -6,-2 -9,-6 -6,-12 -6,-6 -6,-3 -2,-4 -18,20 8,9 2,9 6,11 9,8 v 7 h 7 l 10,14 -2,6 -1,-1 v 3 l 4,4 1,4 z"
     id="150900" />
  <path
     class="leaflet-interactive"
     stroke="#333333"
     stroke-opacity="1"
     stroke-width="1"
     stroke-linecap="round"
     stroke-linejoin="round"
     stroke-dasharray="1, 6"
     fill="#eeeeee"
     fill-opacity="0.5"
     fill-rule="evenodd"
     d="m 895,465 1,-7 h -2 l -2,-4 1,-6 -3,-4 2,-8 3,-4 -2,-1 v -4 l -4,-3 -1,-6 -3,1 -4,-3 3,-1 v -7 h 2 l 9,7 2,-4 h 2 l 2,4 1,-1 2,4 h 2 v -4 l 2,-3 -1,-5 6,-1 3,-5 -4,-6 v -5 h 5 l 3,-3 h 6 v -6 l -1,-1 v 2 h -2 l 1,-3 h -2 l -3,-3 v 2 h 2 l -1,4 -3,-1 -1,4 -3,1 -3,-3 v -5 l -3,-1 2,-3 -6,-2 -4,-7 -8,5 -6,-3 -3,1 -2,3 -4,-1 -1,2 -3,1 -3,-2 -3,2 -8,-5 2,-5 -4,-5 h -2 l -4,-4 -6,4 -1,-1 -5,5 -6,3 5,5 5,10 1,9 v 7 l -3,1 1,8 -2,10 -3,5 h -2 l 5,4 1,-1 2,3 h 2 v -2 l 3,-1 5,2 4,3 v 2 l 10,6 -1,2 2,4 9,5 v 2 l 9,12 h 2 l 6,5 1,-1 z"
     id="152200" />
  <path
     class="leaflet-interactive"
     stroke="#333333"
     stroke-opacity="1"
     stroke-width="1"
     stroke-linecap="round"
     stroke-linejoin="round"
     stroke-dasharray="1, 6"
     fill="#eeeeee"
     fill-opacity="0.5"
     fill-rule="evenodd"
     d="m 726,530 3,10 -2,1 v 6 l 8,1 3,-1 -1,-3 12,-7 h 2 l 2,5 h 2 v -2 l 5,-5 h 2 v 2 h 7 l 4,-3 -2,-5 3,-1 -1,-8 -6,-3 1,-9 -6,-7 -1,-4 6,-9 4,1 v -3 l 6,-5 -2,-1 v -7 l 3,-6 8,-2 4,3 v 3 l 3,1 3,-3 4,1 4,-8 3,1 5,-5 1,1 7,-3 1,-4 -2,-2 6,-2 -2,-5 3,1 -2,-6 2,-2 2,2 1,-2 v -3 l -2,-2 1,-5 6,-5 v -2 l 3,-1 2,-4 2,-10 -1,-8 3,-1 -1,-8 -3,-1 v 2 l -3,1 -5,-2 -2,2 -12,-6 -1,2 -5,1 -6,-2 -6,4 h -3 l -2,3 -9,-2 1,2 -2,2 v 4 l -13,-1 -1,2 -4,1 -7,10 v 7 l -2,3 h -4 l -7,7 -8,2 h -18 l -2,6 -9,9 -4,1 -6,5 -21,-4 -6,-6 -9,-1 -4,1 -3,3 -5,15 -3,4 3,3 3,7 7,7 v 3 l -4,2 -5,6 -9,3 1,4 6,3 6,6 6,11 9,7 6,2 -1,1 2,5 h 2 l 6,6 h 2 l 5,-6 h 8 l 1,2 h 3 l 1,4 3,-1 v -5 h 3 l 2,-2 2,1 v 2 h 2 v -2 l -2,-1 4,-3 3,1 v 2 h 2 z"
     id="152500" />
  <path
     class="leaflet-interactive"
     stroke="#333333"
     stroke-opacity="1"
     stroke-width="1"
     stroke-linecap="round"
     stroke-linejoin="round"
     stroke-dasharray="1, 6"
     fill="#eeeeee"
     fill-opacity="0.5"
     fill-rule="evenodd"
     d="m 508,543 -5,5 -2,-2 -9,-1 v -6 l -10,2 -16,-2 -16,-9 -6,1 -8,-3 -6,-8 -22,-6 -20,1 -11,3 -53,-7 16,34 -6,6 8,11 9,6 v 10 l 6,-3 -1,-2 2,-1 3,5 v -3 l 4,-2 2,3 2,-1 1,-4 h 9 l 2,-3 9,1 4,6 v 3 l -2,2 v 8 l -3,2 -3,6 h -3 l -5,4 -2,-1 9,1 1,3 8,3 2,2 v 3 l 4,3 h 8 l -1,10 7,3 3,-2 -1,2 3,3 -1,2 6,2 1,2 h 4 l 7,-7 -6,-6 14,-5 3,3 9,2 11,-8 9,-3 6,1 -1,4 3,4 -1,7 -7,8 -10,7 3,7 -4,2 v 3 l 1,4 5,2 13,11 15,-5 h 4 l 6,-4 7,1 v -3 h 4 v -12 l 2,-1 -1,-7 4,-12 -1,-1 2,-1 2,-6 h 4 l -1,-3 h 6 l 5,-5 -3,-2 4,-4 -2,-8 4,-8 -4,-2 3,-3 h -11 l -3,-4 h 6 v -2 l -5,-4 -13,-4 -7,-5 -1,-7 -3,-6 v -8 z"
     id="152900" />
</svg>
