<?xml version="1.0" encoding="UTF-8" standalone="no"?>
<svg
   pointer-events="none"
   class="leaflet-zoom-animated"
   width="1111"
   height="640"
   viewBox="-93 -53 1111 640"
   style="transform: translate3d(-93px, -53px, 0px);"
   version="1.1"
   id="svg1"
   sodipodi:docname="北京市.svg"
   inkscape:version="1.4 (86a8ad7, 2024-10-11)"
   xmlns:inkscape="http://www.inkscape.org/namespaces/inkscape"
   xmlns:sodipodi="http://sodipodi.sourceforge.net/DTD/sodipodi-0.dtd"
   xmlns="http://www.w3.org/2000/svg"
   xmlns:svg="http://www.w3.org/2000/svg">
  <defs
     id="defs1" />
  <sodipodi:namedview
     id="namedview1"
     pagecolor="#ffffff"
     bordercolor="#000000"
     borderopacity="0.25"
     inkscape:showpageshadow="2"
     inkscape:pageopacity="0.0"
     inkscape:pagecheckerboard="0"
     inkscape:deskcolor="#d1d1d1"
     inkscape:zoom="1.2140625"
     inkscape:cx="555.57272"
     inkscape:cy="320"
     inkscape:window-width="1920"
     inkscape:window-height="991"
     inkscape:window-x="-9"
     inkscape:window-y="-9"
     inkscape:window-maximized="1"
     inkscape:current-layer="svg1" />
  <g
     id="110000">
    <path
       class="leaflet-interactive"
       stroke="black"
       stroke-opacity="1"
       stroke-width="2"
       stroke-linecap="round"
       stroke-linejoin="round"
       fill="#fff"
       fill-opacity="0.2"
       fill-rule="evenodd"
       d="M650 288L653 283L652 278L657 272L653 269L650 264L651 263L647 259L648 255L656 255L657 254L654 249L658 244L666 240L676 240L680 244L683 241L686 242L687 240L684 233L688 228L690 228L692 224L691 223L693 222L696 226L700 226L701 222L703 221L699 216L690 216L689 214L688 215L686 213L672 217L670 218L670 220L662 220L657 215L653 216L646 211L633 211L629 208L625 210L617 210L615 212L610 212L603 208L602 205L599 204L596 200L595 194L590 191L590 187L587 185L588 183L582 177L575 175L574 176L569 167L566 167L564 164L559 162L559 156L554 152L551 145L554 133L553 127L548 127L542 123L541 125L539 125L541 133L539 137L539 142L536 144L531 140L525 141L521 144L516 142L510 143L509 149L513 157L513 163L506 161L503 162L499 160L495 152L489 155L488 157L490 164L500 174L504 181L507 181L512 192L510 195L504 194L501 191L496 193L485 193L483 195L483 198L480 195L478 195L472 188L469 193L470 196L466 201L464 201L465 202L458 211L459 213L457 219L453 218L448 223L449 228L445 227L440 232L435 234L432 233L428 238L424 239L421 233L410 230L407 235L396 237L393 245L389 244L382 250L383 251L381 252L379 257L380 260L388 260L386 262L387 264L385 267L387 267L385 272L389 274L397 286L402 289L402 291L412 293L414 299L413 300L417 304L417 309L421 316L415 317L412 319L411 322L409 321L407 323L404 332L400 334L401 335L399 337L399 343L392 341L388 335L384 339L382 339L383 343L379 347L364 346L362 347L361 350L354 349L353 355L350 354L346 356L344 360L341 359L332 369L328 371L326 375L327 379L323 381L322 388L333 393L334 396L340 401L338 405L341 407L339 416L349 422L346 426L343 426L338 429L333 425L328 429L324 429L323 432L325 436L335 440L334 448L336 450L334 453L335 456L333 457L332 460L336 460L340 464L338 471L339 474L342 472L343 468L345 468L350 473L349 474L352 475L354 472L358 471L360 473L361 471L370 471L372 479L371 480L376 482L376 486L380 485L382 492L384 492L385 494L385 492L388 494L395 494L396 493L394 492L394 490L396 486L398 486L401 483L403 485L406 485L408 483L407 480L411 479L411 472L415 475L419 482L420 480L421 481L421 479L423 479L423 474L426 474L426 478L429 478L429 476L432 475L433 479L446 477L447 479L448 478L451 480L454 479L455 476L459 476L461 474L465 476L465 478L467 477L468 480L472 482L471 490L476 497L483 499L488 506L506 509L510 507L509 502L507 500L505 502L504 499L502 500L503 494L501 493L500 490L504 490L504 494L508 494L507 490L513 488L513 483L520 484L520 480L523 479L523 474L529 472L531 470L530 469L537 467L540 472L554 472L556 475L560 474L555 470L555 467L560 467L561 469L566 469L569 474L571 470L580 467L578 463L582 460L582 456L593 453L592 451L589 452L590 450L588 444L594 440L591 434L595 432L595 430L599 430L600 428L597 425L599 425L596 422L596 417L593 413L592 417L588 414L585 415L577 406L575 406L575 404L574 407L570 404L570 390L565 387L568 379L567 375L569 369L573 371L582 365L585 368L592 365L594 365L594 367L598 365L599 368L602 365L604 369L607 368L609 370L613 370L616 366L619 365L619 363L625 360L631 360L635 362L638 361L638 359L643 360L643 358L645 361L647 361L648 355L650 355L653 351L657 350L659 352L661 349L664 348L666 344L673 345L675 340L673 337L679 337L678 335L681 336L680 335L683 333L680 333L678 330L681 329L678 326L681 325L680 323L673 322L671 319L670 310L663 311L663 308L659 304L659 298L656 296L653 289L650 290z"
       id="北京市" />
    <path
       class="leaflet-interactive"
       stroke="#333"
       stroke-opacity="1"
       stroke-width="1"
       stroke-linecap="round"
       stroke-linejoin="round"
       stroke-dasharray="1,6"
       fill="#eee"
       fill-opacity="0.5"
       fill-rule="evenodd"
       d="M650 288L653 283L652 278L657 272L653 269L650 264L651 263L647 259L648 255L656 255L657 254L654 249L658 244L666 240L676 240L680 244L683 241L686 242L687 240L684 233L688 228L690 228L692 224L691 223L693 222L696 226L700 226L701 222L703 221L699 216L690 216L689 214L688 215L686 213L672 217L670 218L670 220L662 220L657 215L653 216L646 211L633 211L629 208L625 210L617 210L615 212L610 212L603 208L602 205L599 204L596 200L595 194L590 191L590 187L587 185L588 183L582 177L575 175L574 176L569 167L566 167L564 164L559 162L559 156L554 152L551 145L554 133L553 127L548 127L542 123L541 125L539 125L541 133L539 137L539 142L536 144L531 140L525 141L521 144L516 142L510 143L509 149L513 157L513 163L506 161L503 162L499 160L495 152L489 155L488 157L490 164L500 174L504 181L507 181L512 192L510 195L504 194L501 191L496 193L485 193L483 195L483 198L480 195L478 195L472 188L469 193L470 196L466 201L464 201L465 202L458 211L459 213L457 219L453 218L448 223L449 228L445 227L440 232L435 234L432 233L428 238L424 239L421 233L410 230L407 235L396 237L393 245L389 244L382 250L383 251L381 252L379 257L380 260L388 260L386 262L387 264L385 267L387 267L385 272L389 274L397 286L402 289L402 291L412 293L414 299L413 300L417 304L417 309L421 316L415 317L412 319L411 322L409 321L407 323L404 332L400 334L401 335L399 337L399 343L392 341L388 335L384 339L382 339L383 343L379 347L364 346L362 347L361 350L354 349L353 355L350 354L346 356L344 360L341 359L332 369L328 371L326 375L327 379L323 381L322 388L333 393L334 396L340 401L338 405L341 407L339 416L349 422L346 426L343 426L338 429L333 425L328 429L324 429L323 432L325 436L335 440L334 448L336 450L334 453L335 456L333 457L332 460L336 460L340 464L338 471L339 474L342 472L343 468L345 468L350 473L349 474L352 475L354 472L358 471L360 473L361 471L370 471L372 479L371 480L376 482L376 486L380 485L382 492L384 492L385 494L385 492L388 494L395 494L396 493L394 492L394 490L396 486L398 486L401 483L403 485L406 485L408 483L407 480L411 479L411 472L415 475L419 482L420 480L421 481L421 479L423 479L423 474L426 474L426 478L429 478L429 476L432 475L433 479L446 477L447 479L448 478L451 480L454 479L455 476L459 476L461 474L465 476L465 478L467 477L468 480L472 482L471 490L476 497L483 499L488 506L506 509L510 507L509 502L507 500L505 502L504 499L502 500L503 494L501 493L500 490L504 490L504 494L508 494L507 490L513 488L513 483L520 484L520 480L523 479L523 474L529 472L531 470L530 469L537 467L540 472L554 472L556 475L560 474L555 470L555 467L560 467L561 469L566 469L569 474L571 470L580 467L578 463L582 460L582 456L593 453L592 451L589 452L590 450L588 444L594 440L591 434L595 432L595 430L599 430L600 428L597 425L599 425L596 422L596 417L593 413L592 417L588 414L585 415L577 406L575 406L575 404L574 407L570 404L570 390L565 387L568 379L567 375L569 369L573 371L582 365L585 368L592 365L594 365L594 367L598 365L599 368L602 365L604 369L607 368L609 370L613 370L616 366L619 365L619 363L625 360L631 360L635 362L638 361L638 359L643 360L643 358L645 361L647 361L648 355L650 355L653 351L657 350L659 352L661 349L664 348L666 344L673 345L675 340L673 337L679 337L678 335L681 336L680 335L683 333L680 333L678 330L681 329L678 326L681 325L680 323L673 322L671 319L670 310L663 311L663 308L659 304L659 298L656 296L653 289L650 290z"
       id="path1" />
  </g>
</svg>
