<?xml version="1.0" encoding="UTF-8" standalone="no"?>
<svg
   pointer-events="none"
   class="leaflet-zoom-animated"
   width="1135"
   height="626"
   viewBox="-95 -52 1135 626"
   style="transform: translate3d(-95px, -52px, 0px) scale(1);"
   version="1.1"
   id="svg1"
   sodipodi:docname="北京市.svg"
   inkscape:version="1.4 (86a8ad7, 2024-10-11)"
   xmlns:inkscape="http://www.inkscape.org/namespaces/inkscape"
   xmlns:sodipodi="http://sodipodi.sourceforge.net/DTD/sodipodi-0.dtd"
   xmlns="http://www.w3.org/2000/svg"
   xmlns:svg="http://www.w3.org/2000/svg">
  <defs
     id="defs1" />
  <sodipodi:namedview
     id="namedview1"
     pagecolor="#ffffff"
     bordercolor="#000000"
     borderopacity="0.25"
     inkscape:showpageshadow="2"
     inkscape:pageopacity="0.0"
     inkscape:pagecheckerboard="0"
     inkscape:deskcolor="#d1d1d1"
     inkscape:zoom="1.2412141"
     inkscape:cx="441.90605"
     inkscape:cy="464.46461"
     inkscape:window-width="1920"
     inkscape:window-height="991"
     inkscape:window-x="-9"
     inkscape:window-y="1341"
     inkscape:window-maximized="1"
     inkscape:current-layer="svg1" />
  <path
     class="leaflet-interactive"
     stroke="#000000"
     stroke-opacity="1"
     stroke-width="2"
     stroke-linecap="round"
     stroke-linejoin="round"
     fill="#ffffff"
     fill-opacity="0.2"
     fill-rule="evenodd"
     d="m 660,283 3,-5 -1,-5 5,-6 -4,-3 -3,-5 1,-1 -4,-4 1,-4 h 8 l 1,-1 -3,-5 4,-5 8,-4 h 10 l 4,4 3,-3 3,1 1,-2 -3,-7 4,-5 h 2 l 2,-4 -1,-1 2,-1 3,4 h 4 l 1,-4 2,-1 -4,-5 h -9 l -1,-2 -1,1 -2,-2 -14,4 -2,1 v 2 h -8 l -5,-5 -4,1 -7,-5 h -13 l -4,-3 -4,2 h -8 l -2,2 h -5 l -7,-4 -1,-3 -3,-1 -3,-4 -1,-6 -5,-3 v -4 l -3,-2 1,-2 -6,-6 -7,-2 -1,1 -5,-9 h -3 l -2,-3 -5,-2 v -6 l -5,-4 -3,-7 3,-12 -1,-6 h -5 l -6,-4 -1,2 h -2 l 2,8 -2,4 v 5 l -3,2 -5,-4 -6,1 -4,3 -5,-2 -6,1 -1,6 4,8 v 6 l -7,-2 -3,1 -4,-2 -4,-8 -6,3 -1,2 2,7 10,10 4,7 h 3 l 5,11 -2,3 -6,-1 -3,-3 -5,2 h -11 l -2,2 v 3 l -3,-3 h -2 l -6,-7 -3,5 1,3 -4,5 h -2 l 1,1 -7,9 1,2 -2,6 -4,-1 -5,5 1,5 -4,-1 -5,5 -5,2 -3,-1 -4,5 -4,1 -3,-6 -11,-3 -3,5 -11,2 -3,8 -4,-1 -7,6 1,1 -2,1 -2,5 1,3 h 8 l -2,2 1,2 -2,3 h 2 l -2,5 4,2 8,12 5,3 v 2 l 10,2 2,6 -1,1 4,4 v 5 l 4,7 -6,1 -3,2 -1,3 -2,-1 -2,2 -3,9 -4,2 1,1 -2,2 v 6 l -7,-2 -4,-6 -4,4 h -2 l 1,4 -4,4 -15,-1 -2,1 -1,3 -7,-1 -1,6 -3,-1 -4,2 -2,4 -3,-1 -9,10 -4,2 -2,4 1,4 -4,2 -1,7 11,5 1,3 6,5 -2,4 3,2 -2,9 10,6 -3,4 h -3 l -5,3 -5,-4 -5,4 h -4 l -1,3 2,4 10,4 -1,8 2,2 -2,3 1,3 -2,1 -1,3 h 4 l 4,4 -2,7 1,3 3,-2 1,-4 h 2 l 5,5 -1,1 3,1 2,-3 4,-1 2,2 1,-2 h 9 l 2,8 -1,1 5,2 v 4 l 4,-1 2,7 h 2 l 1,2 v -2 l 3,2 h 7 l 1,-1 -2,-1 v -2 l 2,-4 h 2 l 3,-3 2,2 h 3 l 2,-2 -1,-3 4,-1 v -7 l 4,3 4,7 1,-2 1,1 v -2 h 2 v -5 h 3 v 4 h 3 v -2 l 3,-1 1,4 13,-2 1,2 1,-1 3,2 3,-1 1,-3 h 4 l 2,-2 4,2 v 2 l 2,-1 1,3 4,2 -1,8 5,7 7,2 5,7 18,3 4,-2 -1,-5 -2,-2 -2,2 -1,-3 -2,1 1,-6 -2,-1 -1,-3 h 4 v 4 h 4 l -1,-4 6,-2 v -5 l 7,1 v -4 l 3,-1 v -5 l 6,-2 2,-2 -1,-1 7,-2 3,5 h 14 l 2,3 4,-1 -5,-4 v -3 h 5 l 1,2 h 5 l 3,5 2,-4 9,-3 -2,-4 4,-3 v -4 l 11,-3 -1,-2 -3,1 1,-2 -2,-6 6,-4 -3,-6 4,-2 v -2 h 4 l 1,-2 -3,-3 h 2 l -3,-3 v -5 l -3,-4 -1,4 -4,-3 -3,1 -8,-9 h -2 v -2 l -1,3 -4,-3 v -14 l -5,-3 3,-8 -1,-4 2,-6 4,2 9,-6 3,3 7,-3 h 2 v 2 l 4,-2 1,3 3,-3 2,4 3,-1 2,2 h 4 l 3,-4 3,-1 v -2 l 6,-3 h 6 l 4,2 3,-1 v -2 l 5,1 v -2 l 2,3 h 2 l 1,-6 h 2 l 3,-4 4,-1 2,2 2,-3 3,-1 2,-4 7,1 2,-5 -2,-3 h 6 l -1,-2 3,1 -1,-1 3,-2 h -3 l -2,-3 3,-1 -3,-3 3,-1 -1,-2 -7,-1 -2,-3 -1,-9 -7,1 v -3 l -4,-4 v -6 l -3,-2 -3,-7 -3,1 z"
     id="北京市" />
  <path
     class="leaflet-interactive"
     stroke="#333333"
     stroke-opacity="1"
     stroke-width="1"
     stroke-linecap="round"
     stroke-linejoin="round"
     stroke-dasharray="1, 6"
     fill="#eeeeee"
     fill-opacity="0.5"
     fill-rule="evenodd"
     d="m 518,403 1,-5 -3,-5 v -3 h 2 v -5 l -1,1 1,-1 -3,-1 -3,-3 v -2 l -1,3 -3,-1 2,10 v 12 h -4 l 5,3 2,-1 -1,-2 z"
     id="110101" />
  <path
     class="leaflet-interactive"
     stroke="#333333"
     stroke-opacity="1"
     stroke-width="1"
     stroke-linecap="round"
     stroke-linejoin="round"
     stroke-dasharray="1, 6"
     fill="#eeeeee"
     fill-opacity="0.5"
     fill-rule="evenodd"
     d="m 496,397 v 4 l 5,3 9,-1 -2,-21 1,-3 -4,1 v 5 l -3,1 -1,-2 v 2 h -4 l 2,11 z"
     id="110102" />
  <path
     class="leaflet-interactive"
     stroke="#333333"
     stroke-opacity="1"
     stroke-width="1"
     stroke-linecap="round"
     stroke-linejoin="round"
     stroke-dasharray="1, 6"
     fill="#eeeeee"
     fill-opacity="0.5"
     fill-rule="evenodd"
     d="m 546,368 -9,-6 1,-4 -16,-7 -1,7 -8,1 -2,4 h -3 l 1,2 -8,1 5,8 v 5 h 3 l -1,3 h 3 v -3 l 7,6 v 5 h -2 l 1,6 h 2 l -1,10 1,-1 3,2 -3,1 -4,5 h 2 l 6,5 7,-3 v -2 l 5,1 -1,-2 h 7 l 4,2 3,-5 -1,-1 4,-2 -1,-2 2,-3 -1,-2 h -2 v -2 l 2,-2 -1,-4 h 2 v -6 h 3 l -2,-9 1,-3 -7,-4 z m 1,-8 v -10 l -1,-2 v 2 l -3,2 -1,-4 v 6 l 1,2 1,-1 v 6 l 1,-1 1,3 v -3 z"
     id="110105" />
  <path
     class="leaflet-interactive"
     stroke="#333333"
     stroke-opacity="1"
     stroke-width="1"
     stroke-linecap="round"
     stroke-linejoin="round"
     stroke-dasharray="1, 6"
     fill="#eeeeee"
     fill-opacity="0.5"
     fill-rule="evenodd"
     d="m 484,397 -4,1 -4,4 -3,-2 -1,1 -6,-2 -11,5 h -5 v 2 l -3,2 1,2 3,1 v 2 h 2 l 1,10 3,1 2,-2 v 2 h 2 l -2,2 v 3 l 7,-1 2,-4 5,1 2,-8 2,-1 -1,-2 h 5 l 2,3 v 5 l 6,-2 4,7 3,-7 h 3 v -2 l 5,2 v 4 l 2,-1 v 2 h 2 v 3 h 2 l -1,-5 h 5 l 1,-4 -3,-3 h 2 l -1,-3 1,1 5,-6 3,-1 -8,-4 h -2 v 3 h -3 l -1,-2 h -7 l -4,-2 -1,-4 -2,-1 -3,2 v -2 h -5 z"
     id="110106" />
  <path
     class="leaflet-interactive"
     stroke="#333333"
     stroke-opacity="1"
     stroke-width="1"
     stroke-linecap="round"
     stroke-linejoin="round"
     stroke-dasharray="1, 6"
     fill="#eeeeee"
     fill-opacity="0.5"
     fill-rule="evenodd"
     d="m 468,399 9,3 3,-4 3,-1 v -4 l -8,-1 2,-4 -3,-6 -3,-2 v -4 l -1,-1 v 2 l -2,1 v -2 h -2 l -1,-2 -7,3 v 2 l 2,1 -2,5 1,4 1,-1 v 2 l 3,1 3,6 z"
     id="110107" />
  <path
     class="leaflet-interactive"
     stroke="#333333"
     stroke-opacity="1"
     stroke-width="1"
     stroke-linecap="round"
     stroke-linejoin="round"
     stroke-dasharray="1, 6"
     fill="#eeeeee"
     fill-opacity="0.5"
     fill-rule="evenodd"
     d="m 496,397 h 3 l -2,-11 h 4 v -2 l 1,2 3,-1 v -5 l 2,-2 -6,-12 8,-1 -2,-3 -3,-1 3,-3 -4,-2 -3,1 v 2 l -3,-2 1,2 -2,1 -1,-2 h -2 l -3,-5 -2,1 -1,-3 -2,-1 v -4 l -3,2 -1,-1 1,-7 -6,-1 -2,-5 -2,2 -2,-1 -2,7 -3,2 -14,1 -5,7 3,3 2,10 h 10 l 8,6 -4,2 3,3 v 2 l 2,-1 v -2 l 1,1 v 4 l 5,5 1,3 -2,4 h 8 v 5 h 8 v 2 l 3,-2 z"
     id="110108" />
  <path
     class="leaflet-interactive"
     stroke="#333333"
     stroke-opacity="1"
     stroke-width="1"
     stroke-linecap="round"
     stroke-linejoin="round"
     stroke-dasharray="1, 6"
     fill="#eeeeee"
     fill-opacity="0.5"
     fill-rule="evenodd"
     d="m 465,374 4,-3 -8,-6 h -9 l -3,-10 -3,-2 -2,-1 -3,3 -2,-2 h -4 l -4,2 -1,-7 h -3 l 1,-1 -5,-6 -10,-4 -4,1 -7,-2 -4,-6 -4,4 h -2 l 1,4 -4,4 -15,-1 -2,1 -1,3 -7,-1 -1,6 -3,-1 -4,2 -2,4 -3,-1 -9,10 -4,2 -2,4 1,4 -4,2 -1,7 11,5 1,3 6,5 -2,4 3,2 -2,9 10,6 h 3 l 5,-11 3,-3 h 2 l 2,-3 h 5 v -2 l 16,-8 7,2 7,5 8,-5 h 8 l 2,4 -4,4 1,2 5,2 8,-2 -3,6 2,2 3,-2 1,2 7,-1 3,-2 -1,-3 2,-1 4,1 13,-5 -10,-13 2,-6 -2,-1 v -2 l 5,-2 z"
     id="110109" />
  <path
     class="leaflet-interactive"
     stroke="#333333"
     stroke-opacity="1"
     stroke-width="1"
     stroke-linecap="round"
     stroke-linejoin="round"
     stroke-dasharray="1, 6"
     fill="#eeeeee"
     fill-opacity="0.5"
     fill-rule="evenodd"
     d="m 447,409 -6,1 -1,-2 -4,2 -2,-2 3,-6 -6,2 -7,-2 -1,-2 4,-4 -1,-4 h -9 l -8,5 -3,-3 -11,-4 -4,3 -10,3 -2,4 h -5 l -2,3 h -2 l -3,3 v 4 l -3,3 v 2 l -6,3 -2,3 h -3 l -5,3 -5,-4 -5,4 h -4 l -1,3 2,4 10,4 -1,8 2,2 -2,3 1,3 -2,1 -1,3 h 4 l 4,4 -2,7 1,3 3,-2 1,-4 h 2 l 5,5 -1,1 3,1 2,-3 4,-1 2,2 1,-2 h 9 l 2,8 -1,1 5,2 v 4 l 4,-1 3,8 1,-1 1,2 v -2 l 3,2 h 7 l 1,-1 -2,-1 v -2 l 2,-4 h 2 l 3,-3 2,2 h 3 l 2,-2 -1,-3 4,-1 v -7 l 4,3 4,7 1,-2 1,1 v -2 h 2 v -5 h 3 v 4 h 3 v -2 l 3,-1 1,4 13,-2 1,2 1,-1 3,2 3,-1 1,-3 h 4 l 2,-2 4,2 v 2 l 3,-2 -2,-14 2,-5 -1,-3 3,-6 -1,-1 3,-3 1,-21 -2,-4 h -5 l -2,11 -6,-1 -2,4 -2,-1 -5,2 v -3 l 2,-2 h -2 v -2 l -5,2 -1,-12 -2,1 v -2 l -3,-1 z"
     id="110111" />
  <path
     class="leaflet-interactive"
     stroke="#333333"
     stroke-opacity="1"
     stroke-width="1"
     stroke-linecap="round"
     stroke-linejoin="round"
     stroke-dasharray="1, 6"
     fill="#eeeeee"
     fill-opacity="0.5"
     fill-rule="evenodd"
     d="m 569,462 2,2 h 5 l 3,5 2,-4 8,-2 1,-1 -2,-4 4,-3 v -4 l 11,-3 -1,-2 -3,1 1,-2 -2,-6 6,-4 -3,-6 4,-2 v -2 h 4 l 1,-2 -3,-3 h 2 l -3,-3 v -5 l -3,-4 -1,4 -4,-3 -3,1 -8,-9 h -2 v -2 l -1,3 -4,-3 v -14 l -5,-3 3,-8 v -5 h -4 l -3,-3 -2,2 -3,-2 -2,3 h -2 v 2 -2 h -3 l -3,-3 -3,2 -5,-3 -1,3 5,3 v 2 h 2 l -1,3 2,9 -3,-1 v 7 h -2 l 1,4 -2,4 h 2 l 1,2 -2,3 1,2 -4,2 1,1 -2,5 h -3 l 1,-1 -3,-1 h -7 l 2,5 -2,8 1,2 h 2 l -2,1 1,1 h -3 l -1,-2 v 5 h 2 l -1,1 2,1 v 5 l -2,1 h 9 v 2 l 10,-5 1,3 3,2 v 5 h 3 v 3 h 6 v 6 l 4,2 -1,2 z"
     id="110112" />
  <path
     class="leaflet-interactive"
     stroke="#333333"
     stroke-opacity="1"
     stroke-width="1"
     stroke-linecap="round"
     stroke-linejoin="round"
     stroke-dasharray="1, 6"
     fill="#eeeeee"
     fill-opacity="0.5"
     fill-rule="evenodd"
     d="m 578,369 1,-5 4,2 9,-6 3,3 7,-3 h 2 v 2 l 4,-2 1,3 3,-3 v -3 l 4,-1 1,-2 -4,-6 2,-2 -2,-4 2,-5 -5,-6 v -3 l -4,-6 h 2 v -3 l -1,-1 -4,2 -3,-3 1,-1 -5,-7 v -6 h -2 l -2,-5 -4,2 -1,5 -6,-1 v 2 l -3,2 -6,-2 -5,6 -2,-1 -3,6 h -3 v -7 l -8,1 -1,2 h -3 l -1,-4 h -5 l -1,-2 h -4 l -1,2 -5,2 -1,-1 -1,3 -3,1 v 5 l -2,1 v 4 l 3,3 -2,7 3,1 -2,4 2,7 -2,4 h -3 l 3,3 h 3 l 1,2 9,3 4,-4 v -7 l 1,5 3,-1 v -3 l 2,17 2,2 3,1 3,-2 6,5 v -2 h 2 l 2,-3 3,2 2,-2 5,3 z m -36,-15 -5,7 9,7 2,-3 -1,-5 -1,3 -1,-3 -1,1 v -6 l -1,1 z"
     id="110113" />
  <path
     class="leaflet-interactive"
     stroke="#333333"
     stroke-opacity="1"
     stroke-width="1"
     stroke-linecap="round"
     stroke-linejoin="round"
     stroke-dasharray="1, 6"
     fill="#eeeeee"
     fill-opacity="0.5"
     fill-rule="evenodd"
     d="m 508,363 h 3 l 1,-4 9,-1 1,-7 1,-2 2,1 2,-4 -2,-7 2,-4 h -3 l 2,-8 -3,-3 v -4 l 2,-6 4,-3 -4,-2 -2,-4 -4,-1 1,-7 -3,-4 -3,1 -9,-2 1,1 -2,1 v -5 l -3,-3 2,-1 -7,-5 -5,1 v -2 l -2,4 -5,-2 -2,2 -6,-1 -12,4 1,6 -3,-2 1,7 -2,1 h -2 l -2,-4 h -4 l -2,-2 h -3 v 4 l -4,2 -4,-5 -6,2 -2,2 3,3 -2,4 1,3 -3,2 v 2 l -6,1 -3,2 -1,3 -2,-1 -5,11 -4,2 1,1 -2,2 2,5 12,4 5,6 -1,1 h 3 l 1,7 3,-2 h 5 l 2,2 3,-3 1,1 8,-9 7,1 8,-2 2,-7 h 2 l 1,-2 2,5 7,1 v 8 h 2 v -2 l 1,4 h 2 l 1,4 2,-1 2,5 h 3 l 1,2 2,-1 -1,-2 2,2 6,-3 2,1 -3,4 3,1 z"
     id="110114" />
  <path
     class="leaflet-interactive"
     stroke="#333333"
     stroke-opacity="1"
     stroke-width="1"
     stroke-linecap="round"
     stroke-linejoin="round"
     stroke-dasharray="1, 6"
     fill="#eeeeee"
     fill-opacity="0.5"
     fill-rule="evenodd"
     d="m 569,462 v -4 l -4,-2 v -5 l -3,-2 -3,1 v -2 l -2,-2 -1,1 v -4 l -4,-6 -10,5 v -2 h -8 v -6 l 1,1 -2,-2 1,-1 h -2 v -4 l 4,1 -1,-1 2,-1 h -2 l -1,-2 2,-6 -2,-4 1,-1 -4,-1 -2,3 -6,2 -3,-3 -7,-2 1,3 h -2 l 3,3 v 2 l -1,2 h -5 l 1,5 h -2 v -3 h -2 v -2 l -2,1 v -3 l -5,-3 -5,9 -2,-1 -3,-6 -6,2 -1,16 -3,4 1,1 -3,6 1,3 -2,5 2,11 -1,4 1,3 4,2 -1,8 2,4 3,3 7,2 5,7 18,3 3,-1 v -6 l -2,-2 -2,2 -1,-3 -2,1 1,-6 -2,-1 -1,-3 h 4 v 4 h 4 l -1,-4 6,-2 v -5 l 7,1 v -4 l 3,-1 v -5 l 6,-2 2,-2 -1,-1 7,-2 3,5 h 14 l 2,3 4,-1 -5,-4 v -3 z"
     id="110115" />
  <path
     class="leaflet-interactive"
     stroke="#333333"
     stroke-opacity="1"
     stroke-width="1"
     stroke-linecap="round"
     stroke-linejoin="round"
     stroke-dasharray="1, 6"
     fill="#eeeeee"
     fill-opacity="0.5"
     fill-rule="evenodd"
     d="m 490,279 1,2 5,-1 4,4 h 2 l 1,1 -2,3 h 3 v 5 h 13 l 3,4 -2,4 2,4 h 3 l 2,4 5,2 h 3 l 2,-1 v -3 l 5,-1 1,2 h 3 l 1,2 1,-1 1,4 6,-3 h 6 v 6 l 2,1 4,-4 v -2 l 2,1 11,-15 -3,-4 -6,-1 1,-4 -4,-5 2,-2 -1,-3 5,-4 -2,-2 -1,1 v -10 h -3 l -3,-4 2,-1 -2,-2 1,-4 4,-5 -3,-3 v -2 h -4 l -1,-2 -2,1 3,-1 v -2 h 5 l 1,-2 v -7 l -3,-4 3,-6 v -9 l 6,-5 h 7 l 1,-7 -2,-5 h 9 l 2,-2 -1,-3 6,-3 -1,-2 5,-2 -2,-1 1,-2 -6,-6 -7,-2 -1,1 -5,-9 h -3 l -2,-3 -5,-2 v -6 l -5,-4 -3,-7 3,-12 -1,-6 h -5 l -6,-4 -1,2 h -2 l 2,8 -2,4 v 5 l -3,2 -5,-4 -6,1 -4,3 -5,-2 -6,1 -1,6 4,8 v 6 l -7,-2 -3,1 -4,-2 -4,-8 -6,3 -1,2 2,7 10,10 4,7 h 3 l 4,10 4,2 v 2 h 2 l 4,5 -3,10 1,1 -3,1 -1,3 1,2 h 5 l 1,3 4,1 2,3 4,2 -1,2 h -5 l -3,10 -12,14 3,3 3,-1 5,5 -5,4 -6,-2 -1,2 -4,1 -3,-2 -4,3 -2,-1 1,-1 -4,-5 h -7 l -5,4 -1,-1 -1,1 2,6 -2,4 1,5 -2,6 z"
     id="110116" />
  <path
     class="leaflet-interactive"
     stroke="#333333"
     stroke-opacity="1"
     stroke-width="1"
     stroke-linecap="round"
     stroke-linejoin="round"
     stroke-dasharray="1, 6"
     fill="#eeeeee"
     fill-opacity="0.5"
     fill-rule="evenodd"
     d="m 612,360 2,4 3,-1 2,2 h 4 l 3,-4 3,-1 v -2 l 6,-3 h 6 l 4,2 3,-1 v -2 l 5,1 v -2 l 2,3 h 2 l 1,-6 h 2 l 3,-4 4,-1 2,2 2,-3 3,-1 2,-4 7,1 2,-5 -2,-3 h 6 l -1,-2 3,1 -1,-1 3,-2 h -3 l -2,-3 3,-1 -3,-3 3,-1 -1,-2 -7,-1 -2,-3 -1,-9 -7,1 v -3 l -4,-4 v -6 l -3,-2 -3,-7 -3,1 v -2 h -12 l -6,5 -6,-1 -6,5 h -6 l -4,5 v 6 l -8,4 -2,3 5,3 -3,4 -1,-1 -4,2 1,4 h -2 l 2,5 2,1 v 3 h 2 l 3,6 -2,5 4,12 -2,3 h -3 z"
     id="110117" />
  <path
     class="leaflet-interactive"
     stroke="#333333"
     stroke-opacity="1"
     stroke-width="1"
     stroke-linecap="round"
     stroke-linejoin="round"
     stroke-dasharray="1, 6"
     fill="#eeeeee"
     fill-opacity="0.5"
     fill-rule="evenodd"
     d="m 660,283 3,-5 -1,-5 5,-6 -4,-3 -3,-5 1,-1 -4,-4 1,-4 h 8 l 1,-1 -3,-5 4,-5 8,-4 h 10 l 4,4 3,-3 3,1 1,-2 -3,-7 4,-5 h 2 l 2,-4 -1,-1 2,-1 3,4 h 4 l 1,-4 2,-1 -2,-3 -2,-2 -4,1 -11,-4 -12,4 -2,1 v 2 h -8 l -5,-5 -4,1 -7,-5 h -13 l -4,-3 -4,2 h -8 l -2,2 h -5 l -11,-8 -4,-6 v -4 l -5,-3 -1,-5 -5,2 1,2 -6,3 v 5 l -6,1 -3,-2 v 13 h -7 l -6,5 v 8 l -2,3 2,15 -9,5 2,-1 1,2 h 4 l 1,4 2,1 -4,5 -1,4 2,2 h -2 l 3,5 h 3 v 9 l 3,2 -5,4 1,3 -2,2 4,5 -1,3 4,1 4,5 -5,8 6,4 3,-3 v -2 l 6,1 1,-5 4,-2 1,5 h 3 v 6 l 4,5 v 3 l 3,3 h 2 l 10,-7 -5,-3 4,-3 v -2 l 5,-2 2,-4 -1,-2 3,-5 h 6 l 6,-3 1,-2 5,1 7,-5 h 11 z"
     id="110118" />
  <path
     class="leaflet-interactive"
     stroke="#333333"
     stroke-opacity="1"
     stroke-width="1"
     stroke-linecap="round"
     stroke-linejoin="round"
     stroke-dasharray="1, 6"
     fill="#eeeeee"
     fill-opacity="0.5"
     fill-rule="evenodd"
     d="m 431,309 3,-2 -1,-2 2,-4 -3,-4 4,-3 1,1 2,-2 3,2 1,3 5,-2 v -4 h 2 l 3,2 h 4 l 2,4 h 2 l 2,-1 -1,-6 2,-1 v 2 l 1,-2 -1,-4 12,-4 7,1 1,-2 5,2 2,-11 -1,-5 3,-6 -3,-4 h 2 l 4,-4 10,1 v 3 l 3,3 4,-3 3,2 4,-1 1,-2 5,2 6,-3 -4,-6 -4,1 -3,-3 12,-14 2,-4 v -6 l 7,-1 -11,-10 h -4 l -2,-2 4,-6 2,-9 h -2 v -3 l -4,-2 v -2 l -5,2 -6,-1 -3,-3 -5,2 h -11 l -2,2 v 3 l -3,-3 h -2 l -6,-7 -3,5 1,3 -4,5 h -2 l 1,1 -7,9 1,2 -2,6 -4,-1 -5,5 1,5 -4,-1 -5,5 -5,2 -3,-1 -4,5 -4,1 -3,-6 -11,-3 -3,5 -11,2 -3,8 -4,-1 -7,6 1,1 -2,1 -2,5 1,3 h 8 l -2,2 1,2 -2,3 h 2 l -2,5 4,2 8,12 5,3 v 2 l 10,2 2,6 -1,1 4,4 v 5 l 3,4 z"
     id="110119" />
</svg>
