<?xml version="1.0" encoding="UTF-8" standalone="no"?>
<svg
   pointer-events="none"
   class="leaflet-zoom-animated"
   width="1135"
   height="626"
   viewBox="-95 -52 1135 626"
   style="transform: translate3d(-95px, -52px, 0px);"
   version="1.1"
   id="svg1"
   sodipodi:docname="四川省.svg"
   inkscape:version="1.4 (86a8ad7, 2024-10-11)"
   xmlns:inkscape="http://www.inkscape.org/namespaces/inkscape"
   xmlns:sodipodi="http://sodipodi.sourceforge.net/DTD/sodipodi-0.dtd"
   xmlns="http://www.w3.org/2000/svg"
   xmlns:svg="http://www.w3.org/2000/svg">
  <defs
     id="defs1" />
  <sodipodi:namedview
     id="namedview1"
     pagecolor="#ffffff"
     bordercolor="#000000"
     borderopacity="0.25"
     inkscape:showpageshadow="2"
     inkscape:pageopacity="0.0"
     inkscape:pagecheckerboard="0"
     inkscape:deskcolor="#d1d1d1"
     inkscape:zoom="2.4824281"
     inkscape:cx="686.62613"
     inkscape:cy="382.08559"
     inkscape:window-width="1920"
     inkscape:window-height="991"
     inkscape:window-x="-9"
     inkscape:window-y="1341"
     inkscape:window-maximized="1"
     inkscape:current-layer="svg1" />
  <path
     class="leaflet-interactive"
     stroke="#000000"
     stroke-opacity="1"
     stroke-width="2"
     stroke-linecap="round"
     stroke-linejoin="round"
     fill="#ffffff"
     fill-opacity="0.2"
     fill-rule="evenodd"
     d="m 487,464 h 9 l 2,-3 12,-7 3,2 -2,2 4,1 2,-3 h 2 l 1,-2 2,1 2,-2 v -3 l 2,-2 -2,-6 1,-1 -5,-11 2,-4 -2,-6 2,-4 h 6 l 3,-6 h 2 v -2 l 7,-6 2,-6 -2,-1 v -2 h -2 l 5,-7 h 6 l 3,-3 -3,-8 3,-5 1,2 h 7 l 5,-2 2,2 3,-1 v 2 l -1,-1 -3,3 h -2 l 1,7 h 4 l 2,4 -2,1 2,2 -5,4 7,6 1,-1 v 2 l 11,-2 3,-6 3,-1 4,2 v 2 l 2,-1 v 6 l 2,1 -2,1 1,3 3,-2 h 4 l 6,3 21,-5 -3,-10 -3,-3 -8,2 -1,-5 -3,-3 -2,2 -2,-1 -2,-5 3,-3 v -2 h 6 l 3,-6 9,8 4,2 v -2 l -4,-12 -2,-2 h -5 v -2 l -4,2 -3,-1 -2,-2 v -5 l -2,-2 1,-4 -7,1 -3,-2 v -4 l -3,-1 v -5 l 3,-3 h 2 v -2 h 3 v -4 l 1,1 4,-2 -1,-2 2,-4 -6,-4 1,-1 h -2 l 3,-1 1,-3 h 2 l 1,-5 2,-2 10,6 1,-1 1,3 3,2 1,-2 8,-3 2,2 v 3 l 2,1 v 3 l 3,2 10,-2 3,-3 7,-14 1,1 v -2 l 3,-3 -3,-3 v -2 l 3,-3 3,1 2,-2 h 2 l 2,3 3,-1 3,-3 -2,-1 v -2 l 4,-2 -2,-3 3,-3 -2,-1 5,-4 v -6 h 5 v -2 l 6,-5 -1,-4 -5,-3 -2,-4 3,-1 -1,-3 h 4 l -3,-4 5,-1 v -2 l -2,-1 -4,2 -3,-2 -2,2 h -4 l -2,3 -4,-2 -7,-8 -5,1 -3,-6 -4,3 v 2 h -2 l -4,-4 v -5 l -3,-3 h -9 l -10,4 -2,-2 -6,-1 -3,-3 1,-1 -4,-2 -4,1 -2,3 -1,-1 -4,3 -2,-1 -1,-5 -3,-3 -2,2 2,5 -5,4 -2,-1 -3,3 -2,-2 -5,2 -3,-3 h -6 l -12,-8 5,-5 -3,-1 2,-3 -3,-7 4,-1 h -3 l -5,-6 v -4 l -2,-3 h -10 l -5,-2 -3,1 -1,-5 -3,3 -9,-3 1,-3 -2,-2 v -4 l 2,-1 -4,-5 h -3 l 1,-1 -2,-3 -9,4 v 2 h -2 l 2,1 v 2 h -6 l -2,4 h -8 l 4,6 -1,1 3,1 -2,2 2,-1 -1,3 5,4 v 4 l -2,2 h -4 l -3,3 v 4 l -2,-2 -2,3 h -4 l -2,4 -2,-1 1,-4 h -2 v -2 l 3,-1 2,-6 -3,-6 v 2 h -2 v 3 l -4,4 2,6 -3,5 -4,-5 -4,1 v 2 l -3,-5 -5,2 2,7 -2,4 4,4 -2,6 h -3 l -5,3 -8,-3 1,1 -2,4 h -2 l -6,-7 -1,1 1,-1 -5,-1 -2,6 -3,-2 1,-7 -8,-8 -1,4 -1,-1 -2,2 1,1 -2,5 -4,-1 -7,-5 -3,1 -4,-6 -9,-3 -3,-4 1,-1 -2,-2 1,-2 -2,-2 v -4 l -4,-4 2,-1 -9,-9 1,-6 -3,-3 -4,1 -8,-5 h -5 l -1,2 -3,1 1,3 -2,4 -8,2 -1,3 2,2 -1,5 4,2 1,4 6,3 -4,3 -1,4 -3,3 2,4 -7,5 3,7 4,4 h 2 v 2 l 4,2 1,-1 14,7 v 5 l 7,8 -1,5 2,4 3,3 v 2 l 11,10 -4,5 -4,-3 -1,5 6,8 -1,3 6,5 -1,8 2,6 v 9 l 3,8 -3,9 3,8 -1,1 3,17 -1,8 3,10 -1,3 8,10 -1,-6 2,-3 -2,-4 4,-4 1,-4 h 2 v -2 l 4,-3 1,6 7,5 v 3 l 3,2 -1,2 h 2 l 2,2 -1,1 2,1 -6,4 6,8 -1,1 5,2 v 4 l 4,-5 4,2 2,-4 h 2 v 5 l 3,2 v 2 h 2 l -1,2 3,6 2,1 2,7 4,2 -1,6 9,6 -2,3 2,2 2,-3 1,1 -3,8 7,5 v 6 h 2 l 4,5 z M 629,313 Z m 23,5 z m -45,-4 z"
     id="四川省" />
  <path
     class="leaflet-interactive"
     stroke="#333333"
     stroke-opacity="1"
     stroke-width="1"
     stroke-linecap="round"
     stroke-linejoin="round"
     stroke-dasharray="1, 6"
     fill="#eeeeee"
     fill-opacity="0.5"
     fill-rule="evenodd"
     d="m 555,309 4,3 h 2 l 2,-3 1,3 7,5 1,-3 7,-3 1,-2 h 4 l -1,-2 h 2 v -7 l -6,-10 -6,-2 v -2 l -2,-1 -3,2 h -7 l 1,-2 -5,-5 -4,-8 v -4 l -3,-1 -7,4 -2,13 -7,7 -3,-2 -7,3 6,8 -4,10 1,3 h 4 l 2,-2 2,1 2,5 h 2 l 6,-5 h 2 l -1,-1 3,-3 4,1 2,-2 -1,1 z m 5,-27 z m -21,34 z m 25,-6 z"
     id="510100" />
  <path
     class="leaflet-interactive"
     stroke="#333333"
     stroke-opacity="1"
     stroke-width="1"
     stroke-linecap="round"
     stroke-linejoin="round"
     stroke-dasharray="1, 6"
     fill="#eeeeee"
     fill-opacity="0.5"
     fill-rule="evenodd"
     d="m 562,351 3,-1 -1,-2 7,1 -1,1 3,2 6,-2 -1,2 2,2 v 4 h 4 l 2,-2 5,4 h 6 v -3 h -2 l 2,-6 -7,-7 v -4 2 l -8,-1 -2,1 v 2 h -2 l -2,-3 h -2 l -2,-5 -2,-1 -3,2 -2,-3 h -3 v 4 l -4,4 4,2 -3,1 2,1 v 5 z m -1,-11 z m 1,-1 z"
     id="510300" />
  <path
     class="leaflet-interactive"
     stroke="#333333"
     stroke-opacity="1"
     stroke-width="1"
     stroke-linecap="round"
     stroke-linejoin="round"
     stroke-dasharray="1, 6"
     fill="#eeeeee"
     fill-opacity="0.5"
     fill-rule="evenodd"
     d="m 487,464 3,-7 v -5 l 2,-2 1,1 1,-2 -3,-8 1,-1 -2,4 -5,-7 h -2 l -1,-3 3,-3 1,-4 -4,-2 -1,-5 -2,-2 -3,4 -3,1 v 2 l -7,-1 -2,6 9,6 -2,3 2,2 2,-3 1,1 -3,8 7,5 v 6 h 2 l 4,5 z m 11,-27 -1,-1 h 2 l 1,-5 -1,-5 -2,-2 -3,4 -2,-2 -2,1 -2,-6 v 4 l -4,7 -2,1 1,4 h 2 l 3,4 3,-1 1,2 2,-2 2,4 2,-6 z m 1,-1 h -2 z"
     id="510400" />
  <path
     class="leaflet-interactive"
     stroke="#333333"
     stroke-opacity="1"
     stroke-width="1"
     stroke-linecap="round"
     stroke-linejoin="round"
     stroke-dasharray="1, 6"
     fill="#eeeeee"
     fill-opacity="0.5"
     fill-rule="evenodd"
     d="m 602,346 -3,2 -4,7 2,4 -3,1 2,4 v 4 l -2,3 2,4 -1,3 4,1 1,5 v 5 h -2 l -4,5 h 3 l 1,2 v 9 l 3,-2 h 4 l 6,3 21,-5 -3,-10 -3,-3 -8,2 -1,-5 -3,-3 -2,2 -2,-1 -2,-5 3,-3 v -2 h 6 l 3,-6 13,10 -4,-14 -2,-2 h -5 v -2 l -4,2 -3,-1 -2,-2 v -5 l -2,-2 1,-4 -7,1 -1,-2 z m -6,45 z m 5,-44 z m -5,31 z"
     id="510500" />
  <path
     class="leaflet-interactive"
     stroke="#333333"
     stroke-opacity="1"
     stroke-width="1"
     stroke-linecap="round"
     stroke-linejoin="round"
     stroke-dasharray="1, 6"
     fill="#eeeeee"
     fill-opacity="0.5"
     fill-rule="evenodd"
     d="m 594,294 -5,-2 -2,-4 1,-1 -5,-3 v -3 l -2,-1 1,-1 -3,-4 2,-2 h -2 l -6,-6 -5,2 -5,-5 h -2 l 1,-2 -3,-5 -5,3 v 3 h -2 l -2,3 4,4 v 5 l 3,2 v 3 l 5,4 -1,2 h 12 v 2 l 6,2 5,7 -1,1 1,1 2,-2 2,4 h 3 l 3,-6 z m -9,-8 z m 0,0 z m 1,0 z m -5,-8 z"
     id="510600" />
  <path
     class="leaflet-interactive"
     stroke="#333333"
     stroke-opacity="1"
     stroke-width="1"
     stroke-linecap="round"
     stroke-linejoin="round"
     stroke-dasharray="1, 6"
     fill="#eeeeee"
     fill-opacity="0.5"
     fill-rule="evenodd"
     d="m 603,264 -2,-4 h -2 l 1,-2 -3,-1 2,-2 -4,-3 1,-2 -2,-4 h 2 l 2,-4 -2,-4 1,-3 -5,-1 -4,2 -1,-3 -6,-3 v -4 l -5,-4 1,-2 -2,-2 -4,-1 -14,-11 -2,6 2,3 2,-2 3,7 v 5 l -1,3 v -3 l -3,-4 h -4 l -3,2 3,6 -1,3 4,4 4,1 1,-3 3,4 h -3 l -1,3 -9,-1 -2,2 1,1 -2,5 h 5 l 2,3 5,1 v 11 l 7,6 h 4 l 1,-2 2,1 v 2 l 3,1 v 2 h 2 v 4 l 2,2 -1,1 4,6 1,-1 3,6 3,2 h 4 l 1,-3 -3,-5 2,-6 h 4 v -2 l 2,4 h 2 l 3,3 5,-2 v -4 l -4,-6 1,-4 -3,1 -2,-2 1,-1 h -2 l 1,-1 z"
     id="510700" />
  <path
     class="leaflet-interactive"
     stroke="#333333"
     stroke-opacity="1"
     stroke-width="1"
     stroke-linecap="round"
     stroke-linejoin="round"
     stroke-dasharray="1, 6"
     fill="#eeeeee"
     fill-opacity="0.5"
     fill-rule="evenodd"
     d="m 603,264 3,-2 3,1 3,-7 5,4 2,-1 -1,-1 h 4 l 3,-3 v -3 h 2 v 2 h 2 l 3,-3 1,2 1,-1 2,-4 -1,-1 3,-3 -1,-1 h 2 v -6 l 7,-3 -3,-2 -1,-10 -2,-3 -6,3 -2,-2 -6,-1 -4,-6 -6,1 -2,3 -1,-1 -4,3 -2,-1 -1,-5 -3,-3 -2,2 2,5 -5,4 -2,-1 -3,3 -2,-2 -5,2 -3,-3 h -6 l -1,2 5,4 v 4 l 2,2 5,1 1,3 2,-2 6,1 -1,3 2,4 -1,4 h -2 v 6 l 4,3 -2,2 2,-1 v 4 h 2 l 1,2 z m 31,-15 h 1 z"
     id="510800" />
  <path
     class="leaflet-interactive"
     stroke="#333333"
     stroke-opacity="1"
     stroke-width="1"
     stroke-linecap="round"
     stroke-linejoin="round"
     stroke-dasharray="1, 6"
     fill="#eeeeee"
     fill-opacity="0.5"
     fill-rule="evenodd"
     d="m 591,301 v 4 l 3,4 8,1 6,4 2,-1 v -2 h 2 l 1,-5 2,-2 6,3 -2,-5 -2,2 v -2 l -1,1 1,-3 -2,-2 -1,-8 -14,-13 v 2 l -6,3 3,11 -3,1 z m 1,5 z m -1,-2 z m 4,5 z"
     id="510900" />
  <path
     class="leaflet-interactive"
     stroke="#333333"
     stroke-opacity="1"
     stroke-width="1"
     stroke-linecap="round"
     stroke-linejoin="round"
     stroke-dasharray="1, 6"
     fill="#eeeeee"
     fill-opacity="0.5"
     fill-rule="evenodd"
     d="m 572,319 v 9 l -7,6 2,2 5,-1 2,6 h 2 l 2,3 h 2 l 1,-3 2,1 2,-2 1,2 h 4 v -2 4 l 7,7 6,-7 -2,-3 h -2 l -1,-3 4,-5 v -4 l -2,-2 h -7 l -2,-2 1,-1 -4,-3 -5,5 -4,-4 v 2 l -7,-4 z m 29,28 z m -1,0 z m 1,0 z m -15,-23 z"
     id="511000" />
  <path
     class="leaflet-interactive"
     stroke="#333333"
     stroke-opacity="1"
     stroke-width="1"
     stroke-linecap="round"
     stroke-linejoin="round"
     stroke-dasharray="1, 6"
     fill="#eeeeee"
     fill-opacity="0.5"
     fill-rule="evenodd"
     d="m 562,351 -2,-3 1,-1 -2,-1 3,-2 -4,-2 4,-4 v -4 l 3,1 -7,-6 1,-1 -2,-2 h -2 l -6,6 -3,-2 2,-4 -3,-3 -3,3 -1,-1 -1,3 -1,-1 -1,2 h -4 v 4 l 2,-1 -3,7 -3,3 -4,-1 -3,2 2,4 v 2 h -2 v 6 l -2,2 2,4 v 8 l 3,1 3,-6 3,1 3,3 -3,7 h 2 l 2,4 6,-7 2,1 4,-4 -1,-2 4,-4 3,3 2,-1 3,-4 -1,-2 2,1 3,-8 z m -1,-8 z"
     id="511100" />
  <path
     class="leaflet-interactive"
     stroke="#333333"
     stroke-opacity="1"
     stroke-width="1"
     stroke-linecap="round"
     stroke-linejoin="round"
     stroke-dasharray="1, 6"
     fill="#eeeeee"
     fill-opacity="0.5"
     fill-rule="evenodd"
     d="m 652,274 -4,-10 -3,-1 1,-1 h -4 l -1,2 h -2 l -6,-7 1,-3 -2,-2 -3,2 -4,-2 v 3 l -3,3 h -4 v 2 h -2 v -2 l -3,-2 -4,7 -3,-1 -3,2 v 2 l 1,-1 2,4 3,-1 -1,5 4,5 v 4 l -4,2 6,6 3,14 2,-2 3,1 v -2 l 1,1 3,-4 1,1 -1,-2 2,-1 v -2 l 5,1 4,-4 1,2 h 2 l 3,-4 -1,-2 h 2 v -2 l 3,-1 5,-9 z m -34,28 h 1 z m -13,-39 z"
     id="511300" />
  <path
     class="leaflet-interactive"
     stroke="#333333"
     stroke-opacity="1"
     stroke-width="1"
     stroke-linecap="round"
     stroke-linejoin="round"
     stroke-dasharray="1, 6"
     fill="#eeeeee"
     fill-opacity="0.5"
     fill-rule="evenodd"
     d="m 523,343 2,-2 4,1 1,-2 h 3 v -4 l 3,-3 h -2 v -4 h 4 v -2 l 2,1 1,-3 1,1 3,-3 3,3 -2,4 1,1 h 4 l 3,-2 1,-3 h 2 l 2,2 -1,1 7,5 1,-2 h 2 l -1,-1 h 3 l 3,-3 v -3 l -2,-2 1,-4 -5,-6 -3,-1 -1,-3 -3,3 -4,-1 -2,-3 1,-1 -2,2 -3,-1 -4,3 1,1 -6,2 1,1 -2,2 -1,-1 -7,3 v 3 h -2 l 1,1 -4,2 3,6 -2,2 h -2 l -1,-2 -3,1 v 5 l -3,4 3,2 z m 18,-17 v 1 z m 14,-17 z m 17,17 z"
     id="511400" />
  <path
     class="leaflet-interactive"
     stroke="#333333"
     stroke-opacity="1"
     stroke-width="1"
     stroke-linecap="round"
     stroke-linejoin="round"
     stroke-dasharray="1, 6"
     fill="#eeeeee"
     fill-opacity="0.5"
     fill-rule="evenodd"
     d="m 549,375 3,-5 1,2 h 7 l 5,-2 2,2 3,-1 v 2 l -1,-1 -3,3 h -2 l 1,7 h 4 l 2,4 -2,1 2,2 -5,4 7,6 1,-1 v 2 l 11,-2 3,-6 h 7 l 3,-3 h 2 l -1,-10 -3,-1 -2,-6 2,-5 -2,-6 -8,-5 -2,2 h -4 l -2,-6 1,-1 -2,-1 -4,2 -3,-3 -6,-1 1,1 h -2 l -3,11 -1,-1 v 2 l -2,1 1,1 -3,3 -4,-3 -4,4 1,1 -4,5 1,-1 3,5 z"
     id="511500" />
  <path
     class="leaflet-interactive"
     stroke="#333333"
     stroke-opacity="1"
     stroke-width="1"
     stroke-linecap="round"
     stroke-linejoin="round"
     stroke-dasharray="1, 6"
     fill="#eeeeee"
     fill-opacity="0.5"
     fill-rule="evenodd"
     d="m 652,318 h 4 l 6,-9 -3,-5 1,-3 -4,1 1,1 -4,-2 -1,1 2,-4 -3,-1 -2,-2 h 2 l -8,-6 -3,4 -3,-1 -4,3 -4,-1 -5,8 -2,-1 v 2 l -3,1 6,6 1,-1 1,3 3,2 1,-2 8,-3 5,10 6,1 z m 8,-11 z m 1,2 1,-1 z m 0,-1 z m -32,5 z m 23,5 z m 9,-9 z m -7,-7 z"
     id="511600" />
  <path
     class="leaflet-interactive"
     stroke="#333333"
     stroke-opacity="1"
     stroke-width="1"
     stroke-linecap="round"
     stroke-linejoin="round"
     stroke-dasharray="1, 6"
     fill="#eeeeee"
     fill-opacity="0.5"
     fill-rule="evenodd"
     d="m 663,308 3,-7 1,1 v -2 l 3,-3 -3,-3 v -2 l 3,-3 3,1 2,-2 h 2 l 2,3 3,-1 3,-3 -2,-1 v -2 l 4,-2 -2,-3 3,-3 -2,-1 5,-4 v -6 h 5 v -2 l 6,-5 -1,-4 -5,-3 -2,-4 3,-1 -1,-3 h 4 l -3,-4 5,-1 v -2 l -2,-1 -4,2 -3,-2 -2,2 h -4 l -2,3 -4,-2 -4,-5 -4,7 h 2 l 3,3 -2,2 h -3 l -2,5 -2,1 2,1 -2,8 -8,7 h -2 l -2,4 -2,-2 -4,9 -5,6 h -2 v 3 h -2 l 1,3 8,4 v 3 l 3,1 v 2 l -2,1 4,2 h 2 l -2,-1 1,-1 h 3 l -2,3 3,5 1,-2 z m -3,-3 z m 1,4 z m 1,-2 z m 0,1 z m -1,0 z"
     id="511700" />
  <path
     class="leaflet-interactive"
     stroke="#333333"
     stroke-opacity="1"
     stroke-width="1"
     stroke-linecap="round"
     stroke-linejoin="round"
     stroke-dasharray="1, 6"
     fill="#eeeeee"
     fill-opacity="0.5"
     fill-rule="evenodd"
     d="m 537,317 -1,-5 -2,-1 -3,2 h -4 l -1,-3 4,-8 -1,-6 -3,-2 -1,1 -2,-3 -3,-1 v -5 l -9,3 -4,3 1,3 -2,3 v 10 l -5,10 v 8 l 2,1 -2,8 1,2 -3,4 -2,-3 -5,2 -2,-1 2,3 -2,3 6,4 -2,2 h 2 l 4,10 6,2 2,-2 -1,-2 2,-5 3,-4 4,2 1,-3 3,1 2,-3 h 2 l -1,-4 -4,-2 1,-3 2,-1 1,-6 6,2 1,-4 -3,-4 4,-2 -1,-1 h 2 v -3 l 4,-2 z"
     id="511800" />
  <path
     class="leaflet-interactive"
     stroke="#333333"
     stroke-opacity="1"
     stroke-width="1"
     stroke-linecap="round"
     stroke-linejoin="round"
     stroke-dasharray="1, 6"
     fill="#eeeeee"
     fill-opacity="0.5"
     fill-rule="evenodd"
     d="m 652,274 3,-3 v -2 l 1,2 2,-1 1,-3 8,-6 h 2 v -4 l 2,-3 v -2 l -2,-1 1,-3 2,-1 -1,-1 7,-3 -3,-3 h -2 v -2 l 3,-3 -2,-5 -5,1 -3,-6 -4,3 v 2 h -2 l -4,-4 v -5 l -3,-3 h -9 l -3,2 2,12 2,2 -5,3 -2,5 1,1 h -2 l 1,1 -4,5 -1,8 7,7 2,-1 v -2 l 4,1 -1,1 3,1 3,9 1,-1 -1,2 z m -1,-1 z"
     id="511900" />
  <path
     class="leaflet-interactive"
     stroke="#333333"
     stroke-opacity="1"
     stroke-width="1"
     stroke-linecap="round"
     stroke-linejoin="round"
     stroke-dasharray="1, 6"
     fill="#eeeeee"
     fill-opacity="0.5"
     fill-rule="evenodd"
     d="m 585,324 2,-3 6,6 h 7 l 3,6 1,-2 h 3 v -4 l 1,1 4,-2 -1,-2 2,-4 -6,-4 1,-1 h -2 l 1,-1 -5,-4 -8,-1 -3,-4 v -4 l -4,-1 1,-1 -2,-2 -2,2 1,8 h -2 v 3 h -6 l -1,3 -5,2 v 4 l 4,4 h 4 l 4,3 -1,-1 1,1 z m 7,-18 z m -20,9 z m 20,-9 z m 15,8 h -1 z m -16,-9 z"
     id="512000" />
  <path
     class="leaflet-interactive"
     stroke="#333333"
     stroke-opacity="1"
     stroke-width="1"
     stroke-linecap="round"
     stroke-linejoin="round"
     stroke-dasharray="1, 6"
     fill="#eeeeee"
     fill-opacity="0.5"
     fill-rule="evenodd"
     d="m 449,226 -4,7 10,14 5,-1 v 5 h -2 l -3,3 1,2 2,-1 1,3 3,2 v 5 l 1,1 4,-3 1,5 2,2 3,-3 2,1 -1,4 v -2 l 6,-1 3,3 h 2 l -1,1 h 4 l 1,5 1,-1 3,3 4,-2 1,1 -1,5 2,3 -4,1 -2,4 v 2 l 5,5 v -2 l 2,1 3,-4 3,1 3,-5 5,-1 1,-2 3,-1 3,1 v 5 l 6,-2 1,1 2,-2 h 3 l 1,2 7,-7 3,-14 6,-3 1,-3 3,-1 v -4 l 4,-2 1,1 3,-4 -6,-3 -2,-3 h -5 l 2,-5 -1,-1 2,-2 8,1 4,-3 -2,-4 v 2 l -3,1 -6,-4 1,-4 -3,-6 2,-2 h 5 l 3,4 -1,3 2,-2 -2,-13 -3,2 -2,-4 1,-5 6,3 2,3 4,-2 2,-3 -3,-1 2,-3 -3,-7 4,-1 h -3 l -5,-6 v -4 l -4,-4 h -16 l -1,-5 -3,3 -9,-3 1,-3 -2,-2 v -4 l 2,-1 -4,-5 h -3 l 1,-1 -2,-3 h -2 l -7,4 v 2 h -2 l 2,1 v 2 h -6 l -2,4 h -8 l 4,6 -1,1 3,1 -2,2 2,-1 -1,3 5,4 v 4 l -2,2 h -4 l -3,3 v 4 l -2,-2 -2,3 h -4 l -2,4 -2,-1 1,-4 h -2 v -2 l 3,-1 2,-6 -3,-6 v 2 h -2 v 3 l -4,4 2,6 -3,5 -4,-5 -4,1 v 2 l -3,-5 -5,2 2,7 -2,4 4,4 -2,6 h -3 l -5,3 -8,-3 1,1 -2,4 z"
     id="513200" />
  <path
     class="leaflet-interactive"
     stroke="#333333"
     stroke-opacity="1"
     stroke-width="1"
     stroke-linecap="round"
     stroke-linejoin="round"
     stroke-dasharray="1, 6"
     fill="#eeeeee"
     fill-opacity="0.5"
     fill-rule="evenodd"
     d="m 430,391 6,5 1,-2 h 4 l -1,-11 5,-10 -2,-5 4,-1 -2,-7 4,-3 5,1 1,-1 -2,-1 3,-4 2,3 4,-3 2,2 2,7 -1,5 2,3 -1,2 h 10 l 4,4 -1,2 -6,-2 -1,2 2,-1 1,7 4,-2 2,1 3,-6 9,-8 -2,-4 1,-3 h 2 v -2 l 4,-4 -3,-4 v -3 l -5,-3 2,-3 -2,-3 h 7 l 1,2 4,-3 -1,-2 2,-9 h -2 v -9 l 4,-6 1,-13 2,-6 -1,-1 v 3 l -4,-1 -5,5 -5,-5 1,-6 4,-1 -1,-9 -4,3 v -3 l -5,-1 v -4 h -5 l -3,-4 -2,2 -1,-2 -3,3 v -5 l -4,3 -2,-2 -1,-5 -4,3 -1,-1 v -4 l -3,-3 v -2 l -4,-1 5,-4 v -5 h -6 l -4,-5 1,-1 -2,-3 -3,-1 1,-1 -2,-4 4,-5 -8,-8 -1,1 1,-1 -5,-1 -2,6 -2,-1 v -8 l -8,-8 -1,4 -1,-1 -2,2 1,1 -2,5 -4,-1 -7,-5 -3,1 -4,-6 -11,-5 -3,-13 -4,-4 2,-1 -9,-9 1,-6 -3,-3 -4,1 -8,-5 h -5 l -1,2 -3,1 1,3 -2,4 -8,2 -1,3 2,2 -1,5 4,2 1,4 6,3 -4,3 -1,4 -3,3 2,4 -7,5 3,7 4,4 h 2 v 2 l 4,2 1,-1 14,7 v 5 l 7,8 -1,5 2,4 3,3 v 2 l 11,10 -4,5 -4,-3 -1,5 6,8 -1,3 6,5 -1,8 2,6 v 9 l 3,8 -3,9 3,8 -1,1 3,17 -1,8 3,10 -1,3 8,10 -1,-6 2,-3 -2,-4 4,-4 1,-4 h 2 v -2 l 4,-3 1,6 7,5 v 3 l 3,2 -1,2 h 2 l 2,2 -1,1 2,1 -5,3 v 2 z"
     id="513300" />
  <path
     class="leaflet-interactive"
     stroke="#333333"
     stroke-opacity="1"
     stroke-width="1"
     stroke-linecap="round"
     stroke-linejoin="round"
     stroke-dasharray="1, 6"
     fill="#eeeeee"
     fill-opacity="0.5"
     fill-rule="evenodd"
     d="m 544,373 -3,-1 v 2 l -3,1 -1,4 -3,-2 v -2 h -2 l 3,-7 -2,-3 -3,-1 -5,6 -2,-1 v -8 l -2,-4 2,-2 v -6 h 2 v -2 h -2 l -2,1 v 2 l -3,-1 -2,3 -4,-2 -5,8 1,2 -2,3 -4,-1 -5,-6 -3,3 v 2 h -2 l -1,3 2,4 -9,7 v 3 l -3,4 -1,-1 -4,2 -2,-6 -2,1 1,-3 5,2 2,-1 -1,-2 -3,-3 h -10 v -11 l -3,-8 -3,1 -2,3 -2,-4 -3,3 2,1 -1,2 -4,-1 -4,3 -1,-1 2,8 -4,2 2,1 v 3 l -5,10 1,11 h -4 l -1,2 -6,-5 4,6 -1,1 5,2 v 4 l 4,-5 4,2 2,-4 h 2 v 5 l 3,2 v 2 h 2 l -1,2 9,16 1,-1 9,2 v -2 l 7,-5 3,8 3,1 2,-2 v -4 l 2,6 1,-1 2,2 4,-4 3,3 -2,14 -2,3 -2,-4 -2,2 2,7 -4,2 -1,9 -2,1 1,4 1,-2 7,1 2,-3 12,-7 3,2 -2,2 4,1 2,-3 h 2 l 1,-2 2,1 2,-2 v -3 l 2,-2 -2,-6 1,-1 -5,-11 2,-4 -2,-6 2,-4 h 6 l 3,-6 h 2 v -2 l 7,-6 2,-6 -2,-1 v -2 h -2 l 3,-5 4,-3 4,1 3,-3 -2,-7 h -4 l 1,-1 -2,-3 z m -55,68 1,3 v -3 z"
     id="513400" />
</svg>
