<?xml version="1.0" encoding="UTF-8" standalone="no"?>
<svg
   pointer-events="none"
   class="leaflet-zoom-animated"
   width="1111"
   height="640"
   viewBox="-93 -53 1111 640"
   style="transform: translate3d(-93px, -53px, 0px);"
   version="1.1"
   id="svg1"
   sodipodi:docname="天津市.svg"
   inkscape:version="1.4 (86a8ad7, 2024-10-11)"
   xmlns:inkscape="http://www.inkscape.org/namespaces/inkscape"
   xmlns:sodipodi="http://sodipodi.sourceforge.net/DTD/sodipodi-0.dtd"
   xmlns="http://www.w3.org/2000/svg"
   xmlns:svg="http://www.w3.org/2000/svg">
  <defs
     id="defs1" />
  <sodipodi:namedview
     id="namedview1"
     pagecolor="#ffffff"
     bordercolor="#000000"
     borderopacity="0.25"
     inkscape:showpageshadow="2"
     inkscape:pageopacity="0.0"
     inkscape:pagecheckerboard="0"
     inkscape:deskcolor="#d1d1d1"
     inkscape:zoom="1.2140625"
     inkscape:cx="555.57272"
     inkscape:cy="320"
     inkscape:window-width="1920"
     inkscape:window-height="991"
     inkscape:window-x="-9"
     inkscape:window-y="-9"
     inkscape:window-maximized="1"
     inkscape:current-layer="svg1" />
  <g
     id="120000">
    <path
       class="leaflet-interactive"
       stroke="black"
       stroke-opacity="1"
       stroke-width="2"
       stroke-linecap="round"
       stroke-linejoin="round"
       fill="#fff"
       fill-opacity="0.2"
       fill-rule="evenodd"
       d="M589 325L589 329L595 330L598 328L597 326L598 327L598 330L595 334L597 334L597 336L599 334L607 337L618 338L620 342L623 343L623 345L627 346L629 344L629 347L631 348L630 349L636 352L636 357L631 358L631 361L620 364L618 372L601 384L596 392L595 405L597 421L606 425L605 430L602 431L599 438L599 443L596 446L584 443L579 448L560 452L561 464L564 466L575 468L577 470L577 485L560 493L559 500L544 503L543 502L539 506L534 502L529 502L529 504L528 503L518 508L517 507L515 509L517 509L514 512L509 514L509 510L507 510L506 514L501 514L500 516L498 516L497 513L495 513L495 515L488 516L486 511L490 510L485 509L489 506L489 504L484 500L485 499L483 499L484 496L482 496L476 502L470 502L470 504L460 509L460 506L458 506L458 504L455 504L454 498L452 496L453 489L455 487L450 486L450 482L445 483L445 485L441 484L429 487L420 487L418 472L405 472L403 474L396 470L397 464L394 463L397 452L395 451L396 447L392 447L392 437L389 437L389 428L391 427L393 418L397 414L398 401L401 402L403 398L405 398L403 399L403 401L404 400L410 402L419 400L419 396L421 396L426 386L428 387L429 384L427 384L427 378L419 376L417 371L418 370L416 362L420 362L419 359L421 359L421 361L423 358L421 358L419 344L417 344L418 341L421 341L422 334L417 329L415 333L411 333L410 328L412 328L409 325L413 325L413 315L414 316L417 313L417 311L419 312L420 310L416 308L412 310L409 306L407 308L404 306L405 307L403 303L410 299L408 295L408 293L410 292L410 287L407 288L404 283L405 279L408 277L405 273L407 272L406 271L408 269L407 270L409 270L409 267L410 268L413 266L411 262L415 259L415 255L425 253L427 246L433 246L434 248L433 247L432 249L432 255L434 256L436 261L438 261L438 263L445 259L457 262L465 267L467 267L471 263L474 263L475 261L472 259L471 256L473 251L473 244L472 245L472 242L470 242L470 239L472 239L472 236L480 233L475 228L475 225L471 225L471 220L477 218L477 216L489 217L487 210L484 212L476 208L475 209L475 207L474 208L471 205L470 206L471 203L469 201L471 199L467 195L469 195L469 192L471 191L469 189L470 190L472 185L474 185L478 178L478 171L476 170L477 165L475 163L477 161L482 161L480 157L481 154L483 154L486 150L490 149L492 151L494 148L497 147L499 143L507 143L506 142L508 139L506 136L512 136L511 134L514 135L513 134L516 132L513 132L511 129L514 128L511 125L514 124L513 122L516 122L518 117L520 118L524 116L533 122L545 122L547 134L549 136L552 136L555 141L557 141L557 143L561 146L562 151L560 155L564 153L565 157L567 157L568 154L571 154L574 158L579 157L579 159L583 163L580 166L578 165L578 172L580 174L580 172L585 171L587 175L585 185L581 183L580 185L572 180L569 180L565 183L555 184L549 177L545 179L540 177L542 181L539 188L536 189L535 191L538 193L534 196L536 196L536 198L534 199L535 202L537 202L537 207L542 215L541 219L542 218L544 224L546 224L542 229L542 233L540 233L543 233L544 235L546 234L551 237L551 239L547 242L549 242L548 243L552 246L560 248L559 250L562 252L561 253L563 256L564 255L564 261L563 263L561 262L561 264L559 264L560 266L557 268L556 271L555 270L555 273L558 270L558 272L562 274L562 277L565 274L571 277L570 280L567 280L571 282L571 286L573 288L578 283L576 281L577 277L580 276L578 274L582 272L587 271L593 274L597 274L600 272L612 277L607 287L608 292L606 293L606 300L602 303L601 306L601 316L596 317L599 318L600 324L592 324zM582 318L576 316L570 317L570 321L565 322L563 316L559 317L558 319L558 317L554 317L552 314L550 317L546 317L546 319L543 320L544 322L541 323L540 327L539 326L537 329L540 333L551 331L555 333L558 332L560 337L563 338L564 328L571 330L578 329L585 324L585 320z"
       id="天津市" />
    <path
       class="leaflet-interactive"
       stroke="#333"
       stroke-opacity="1"
       stroke-width="1"
       stroke-linecap="round"
       stroke-linejoin="round"
       stroke-dasharray="1,6"
       fill="#eee"
       fill-opacity="0.5"
       fill-rule="evenodd"
       d="M589 325L589 329L595 330L598 328L597 326L598 327L598 330L595 334L597 334L597 336L599 334L607 337L618 338L620 342L623 343L623 345L627 346L629 344L629 347L631 348L630 349L636 352L636 357L631 358L631 361L620 364L618 372L601 384L596 392L595 405L597 421L606 425L605 430L602 431L599 438L599 443L596 446L584 443L579 448L560 452L561 464L564 466L575 468L577 470L577 485L560 493L559 500L544 503L543 502L539 506L534 502L529 502L529 504L528 503L518 508L517 507L515 509L517 509L514 512L509 514L509 510L507 510L506 514L501 514L500 516L498 516L497 513L495 513L495 515L488 516L486 511L490 510L485 509L489 506L489 504L484 500L485 499L483 499L484 496L482 496L476 502L470 502L470 504L460 509L460 506L458 506L458 504L455 504L454 498L452 496L453 489L455 487L450 486L450 482L445 483L445 485L441 484L429 487L420 487L418 472L405 472L403 474L396 470L397 464L394 463L397 452L395 451L396 447L392 447L392 437L389 437L389 428L391 427L393 418L397 414L398 401L401 402L403 398L405 398L403 399L403 401L404 400L410 402L419 400L419 396L421 396L426 386L428 387L429 384L427 384L427 378L419 376L417 371L418 370L416 362L420 362L419 359L421 359L421 361L423 358L421 358L419 344L417 344L418 341L421 341L422 334L417 329L415 333L411 333L410 328L412 328L409 325L413 325L413 315L414 316L417 313L417 311L419 312L420 310L416 308L412 310L409 306L407 308L404 306L405 307L403 303L410 299L408 295L408 293L410 292L410 287L407 288L404 283L405 279L408 277L405 273L407 272L406 271L408 269L407 270L409 270L409 267L410 268L413 266L411 262L415 259L415 255L425 253L427 246L433 246L434 248L433 247L432 249L432 255L434 256L436 261L438 261L438 263L445 259L457 262L465 267L467 267L471 263L474 263L475 261L472 259L471 256L473 251L473 244L472 245L472 242L470 242L470 239L472 239L472 236L480 233L475 228L475 225L471 225L471 220L477 218L477 216L489 217L487 210L484 212L476 208L475 209L475 207L474 208L471 205L470 206L471 203L469 201L471 199L467 195L469 195L469 192L471 191L469 189L470 190L472 185L474 185L478 178L478 171L476 170L477 165L475 163L477 161L482 161L480 157L481 154L483 154L486 150L490 149L492 151L494 148L497 147L499 143L507 143L506 142L508 139L506 136L512 136L511 134L514 135L513 134L516 132L513 132L511 129L514 128L511 125L514 124L513 122L516 122L518 117L520 118L524 116L533 122L545 122L547 134L549 136L552 136L555 141L557 141L557 143L561 146L562 151L560 155L564 153L565 157L567 157L568 154L571 154L574 158L579 157L579 159L583 163L580 166L578 165L578 172L580 174L580 172L585 171L587 175L585 185L581 183L580 185L572 180L569 180L565 183L555 184L549 177L545 179L540 177L542 181L539 188L536 189L535 191L538 193L534 196L536 196L536 198L534 199L535 202L537 202L537 207L542 215L541 219L542 218L544 224L546 224L542 229L542 233L540 233L543 233L544 235L546 234L551 237L551 239L547 242L549 242L548 243L552 246L560 248L559 250L562 252L561 253L563 256L564 255L564 261L563 263L561 262L561 264L559 264L560 266L557 268L556 271L555 270L555 273L558 270L558 272L562 274L562 277L565 274L571 277L570 280L567 280L571 282L571 286L573 288L578 283L576 281L577 277L580 276L578 274L582 272L587 271L593 274L597 274L600 272L612 277L607 287L608 292L606 293L606 300L602 303L601 306L601 316L596 317L599 318L600 324L592 324zM582 318L576 316L570 317L570 321L565 322L563 316L559 317L558 319L558 317L554 317L552 314L550 317L546 317L546 319L543 320L544 322L541 323L540 327L539 326L537 329L540 333L551 331L555 333L558 332L560 337L563 338L564 328L571 330L578 329L585 324L585 320z"
       id="path1" />
  </g>
</svg>
