<?xml version="1.0" encoding="UTF-8" standalone="no"?>
<svg
   pointer-events="none"
   class="leaflet-zoom-animated"
   width="1135"
   height="626"
   viewBox="-95 -52 1135 626"
   style="transform: translate3d(-95px, -52px, 0px);"
   version="1.1"
   id="svg1"
   sodipodi:docname="天津市.svg"
   inkscape:version="1.4 (86a8ad7, 2024-10-11)"
   xmlns:inkscape="http://www.inkscape.org/namespaces/inkscape"
   xmlns:sodipodi="http://sodipodi.sourceforge.net/DTD/sodipodi-0.dtd"
   xmlns="http://www.w3.org/2000/svg"
   xmlns:svg="http://www.w3.org/2000/svg">
  <defs
     id="defs1" />
  <sodipodi:namedview
     id="namedview1"
     pagecolor="#ffffff"
     bordercolor="#000000"
     borderopacity="0.25"
     inkscape:showpageshadow="2"
     inkscape:pageopacity="0.0"
     inkscape:pagecheckerboard="0"
     inkscape:deskcolor="#d1d1d1"
     inkscape:zoom="7.021367"
     inkscape:cx="615.62086"
     inkscape:cy="441.29583"
     inkscape:window-width="1920"
     inkscape:window-height="991"
     inkscape:window-x="-9"
     inkscape:window-y="1341"
     inkscape:window-maximized="1"
     inkscape:current-layer="svg1" />
  <path
     class="leaflet-interactive"
     stroke="#000000"
     stroke-opacity="1"
     stroke-width="2"
     stroke-linecap="round"
     stroke-linejoin="round"
     fill="#ffffff"
     fill-opacity="0.2"
     fill-rule="evenodd"
     d="m 599,320 v 4 l 6,1 3,-2 -1,-2 1,1 v 3 l -3,4 h 2 v 2 l 2,-2 8,3 11,1 2,4 3,1 v 2 l 4,1 2,-2 v 3 l 2,1 -1,1 6,3 v 5 l -5,1 v 3 l -11,3 -2,8 -17,12 -5,8 -1,13 2,16 9,4 -1,5 -3,1 -3,7 v 5 l -3,3 -12,-3 -5,5 -19,4 1,12 3,2 11,2 2,2 v 15 l -17,8 -1,7 -15,3 -1,-1 -4,4 -5,-4 h -5 v 2 l -1,-1 -10,5 -1,-1 -2,2 h 2 l -3,3 -5,2 v -4 h -2 l -1,4 h -5 l -1,2 h -2 l -1,-3 h -2 v 2 l -7,1 -2,-5 4,-1 -5,-1 4,-3 v -2 l -5,-4 1,-1 h -2 l 1,-3 h -2 l -6,6 h -6 v 2 l -10,5 v -3 h -2 v -2 h -3 l -1,-6 -2,-2 1,-7 2,-2 -5,-1 v -4 l -5,1 v 2 l -4,-1 -12,3 h -9 l -2,-15 h -13 l -2,2 -7,-4 1,-6 -3,-1 3,-11 -2,-1 1,-4 h -4 v -10 h -3 v -9 l 2,-1 2,-9 4,-4 1,-13 3,1 2,-4 h 2 l -2,1 v 2 l 1,-1 6,2 9,-2 v -4 h 2 l 5,-10 2,1 1,-3 h -2 v -6 l -8,-2 -2,-5 1,-1 -2,-8 h 4 l -1,-3 h 2 v 2 l 2,-3 h -2 l -2,-14 h -2 l 1,-3 h 3 l 1,-7 -5,-5 -2,4 h -4 l -1,-5 h 2 l -3,-3 h 4 v -10 l 1,1 3,-3 v -2 l 2,1 1,-2 -4,-2 -4,2 -3,-4 -2,2 -3,-2 1,1 -2,-4 7,-4 -2,-4 v -2 l 2,-1 v -5 l -3,1 -3,-5 1,-4 3,-2 -3,-4 2,-1 -1,-1 2,-2 -1,1 h 2 v -3 l 1,1 3,-2 -2,-4 4,-3 v -4 l 10,-2 2,-7 h 6 l 1,2 -1,-1 -1,2 v 6 l 2,1 2,5 h 2 v 2 l 7,-4 12,3 8,5 h 2 l 4,-4 h 3 l 1,-2 -3,-2 -1,-3 2,-5 v -7 l -1,1 v -3 h -2 v -3 h 2 v -3 l 8,-3 -5,-5 v -3 h -4 v -5 l 6,-2 v -2 l 12,1 -2,-7 -3,2 -8,-4 -1,1 v -2 l -1,1 -3,-3 -1,1 1,-3 -2,-2 2,-2 -4,-4 h 2 v -3 l 2,-1 -2,-2 1,1 2,-5 h 2 l 4,-7 v -7 l -2,-1 1,-5 -2,-2 2,-2 h 5 l -2,-4 1,-3 h 2 l 3,-4 4,-1 2,2 2,-3 3,-1 2,-4 h 8 l -1,-1 2,-3 -2,-3 h 6 l -1,-2 3,1 -1,-1 3,-2 h -3 l -2,-3 3,-1 -3,-3 3,-1 -1,-2 h 3 l 2,-5 2,1 4,-2 9,6 h 12 l 2,12 2,2 h 3 l 3,5 h 2 v 2 l 4,3 1,5 -2,4 4,-2 1,4 h 2 l 1,-3 h 3 l 3,4 5,-1 v 2 l 4,4 -3,3 -2,-1 v 7 l 2,2 v -2 l 5,-1 2,4 -2,10 -4,-2 -1,2 -8,-5 h -3 l -4,3 -10,1 -6,-7 -4,2 -5,-2 2,4 -3,7 -3,1 -1,2 3,2 -4,3 h 2 v 2 l -2,1 1,3 h 2 v 5 l 5,8 -1,4 1,-1 2,6 h 2 l -4,5 v 4 h -2 3 l 1,2 2,-1 5,3 v 2 l -4,3 h 2 l -1,1 4,3 8,2 -1,2 3,2 -1,1 2,3 1,-1 v 6 l -1,2 -2,-1 v 2 h -2 l 1,2 -3,2 -1,3 -1,-1 v 3 l 3,-3 v 2 l 4,2 v 3 l 3,-3 6,3 -1,3 h -3 l 4,2 v 4 l 2,2 5,-5 -2,-2 1,-4 3,-1 -2,-2 4,-2 5,-1 6,3 h 4 l 3,-2 12,5 -5,10 1,5 -2,1 v 7 l -4,3 -1,3 v 10 l -5,1 3,1 1,6 h -8 z m -7,-7 -6,-2 -6,1 v 4 l -5,1 -2,-6 -4,1 -1,2 v -2 h -4 l -2,-3 -2,3 h -4 v 2 l -3,1 1,2 -3,1 -1,4 -1,-1 -2,3 3,4 11,-2 4,2 3,-1 2,5 3,1 1,-10 7,2 7,-1 7,-5 v -4 z"
     id="天津市" />
  <path
     class="leaflet-interactive"
     stroke="#333333"
     stroke-opacity="1"
     stroke-width="1"
     stroke-linecap="round"
     stroke-linejoin="round"
     stroke-dasharray="1, 6"
     fill="#eeeeee"
     fill-opacity="0.5"
     fill-rule="evenodd"
     d="m 493,380 -3,-4 -2,1 -1,-2 h -2 v 9 l 6,-3 z"
     id="120101" />
  <path
     class="leaflet-interactive"
     stroke="#333333"
     stroke-opacity="1"
     stroke-width="1"
     stroke-linecap="round"
     stroke-linejoin="round"
     stroke-dasharray="1, 6"
     fill="#eeeeee"
     fill-opacity="0.5"
     fill-rule="evenodd"
     d="m 500,370 h -3 l 1,2 h -4 l -2,2 -1,-2 -2,3 2,1 6,11 3,2 2,-3 5,2 2,-4 -7,-2 -1,-4 3,-1 -1,-4 3,-1 -3,-3 z"
     id="120102" />
  <path
     class="leaflet-interactive"
     stroke="#333333"
     stroke-opacity="1"
     stroke-width="1"
     stroke-linecap="round"
     stroke-linejoin="round"
     stroke-dasharray="1, 6"
     fill="#eeeeee"
     fill-opacity="0.5"
     fill-rule="evenodd"
     d="m 501,398 v -2 h 3 l 1,-7 -8,-2 -4,-7 -5,4 h -3 l 2,8 2,-1 3,3 v 5 h 6 z"
     id="120103" />
  <path
     class="leaflet-interactive"
     stroke="#333333"
     stroke-opacity="1"
     stroke-width="1"
     stroke-linecap="round"
     stroke-linejoin="round"
     stroke-dasharray="1, 6"
     fill="#eeeeee"
     fill-opacity="0.5"
     fill-rule="evenodd"
     d="m 487,392 -2,-5 v -12 l 3,1 v -3 l -10,1 -2,-2 -3,4 3,4 1,5 -3,3 9,5 z"
     id="120104" />
  <path
     class="leaflet-interactive"
     stroke="#333333"
     stroke-opacity="1"
     stroke-width="1"
     stroke-linecap="round"
     stroke-linejoin="round"
     stroke-dasharray="1, 6"
     fill="#eeeeee"
     fill-opacity="0.5"
     fill-rule="evenodd"
     d="m 495,362 -2,2 -2,-2 -3,2 -1,-2 -4,2 2,4 -1,1 4,4 v 3 h 2 l -1,-1 2,-3 1,2 2,-2 h 4 l -1,-2 h 3 v -2 l -4,-1 2,-1 z"
     id="120105" />
  <path
     class="leaflet-interactive"
     stroke="#333333"
     stroke-opacity="1"
     stroke-width="1"
     stroke-linecap="round"
     stroke-linejoin="round"
     stroke-dasharray="1, 6"
     fill="#eeeeee"
     fill-opacity="0.5"
     fill-rule="evenodd"
     d="m 488,373 -4,-4 1,-4 -4,-2 -4,1 -2,6 3,4 9,-1 z m -12,-10 2,-1 -2,-2 -1,2 z"
     id="120106" />
  <path
     class="leaflet-interactive"
     stroke="#333333"
     stroke-opacity="1"
     stroke-width="1"
     stroke-linecap="round"
     stroke-linejoin="round"
     stroke-dasharray="1, 6"
     fill="#eeeeee"
     fill-opacity="0.5"
     fill-rule="evenodd"
     d="m 501,389 h 7 l 8,6 h 6 l 2,5 5,3 h 3 l 5,-3 1,3 6,3 1,2 3,-4 v -3 h -2 l 3,-7 5,1 1,-6 h -2 v -5 l -9,-2 1,-7 1,-3 5,2 2,-1 3,-7 -10,-3 v -4 l -4,2 2,-1 -4,-1 1,-3 -7,-4 -6,3 -2,-4 -4,2 h -6 l -11,-4 -1,1 2,1 v 4 l -7,3 -4,4 3,4 -2,1 h 2 l 2,3 3,-1 3,3 -3,1 1,4 -3,1 1,4 7,2 -2,4 -4,-2 -2,2 z"
     id="120110" />
  <path
     class="leaflet-interactive"
     stroke="#333333"
     stroke-opacity="1"
     stroke-width="1"
     stroke-linecap="round"
     stroke-linejoin="round"
     stroke-dasharray="1, 6"
     fill="#eeeeee"
     fill-opacity="0.5"
     fill-rule="evenodd"
     d="m 476,372 v -5 l -5,-1 -5,2 v 2 l -8,1 v -4 l -3,5 -2,-5 -6,1 -2,-2 v 2 l -6,2 2,1 -3,1 1,7 -1,3 -2,-1 -5,10 3,1 -2,2 6,-1 3,3 1,-2 5,4 8,2 4,3 v 5 h 4 l 1,-2 11,7 13,19 9,10 11,4 4,3 2,-5 -1,-1 2,-1 -2,-6 -1,1 -1,-3 h -3 l -7,-8 v -5 l -4,-2 h 3 l 6,-10 -3,-2 -2,-4 h -2 l 2,-5 -6,2 -3,-1 v -5 l -3,-3 -8,2 -7,-5 3,-2 -1,-5 -4,-5 3,-3 z"
     id="120111" />
  <path
     class="leaflet-interactive"
     stroke="#333333"
     stroke-opacity="1"
     stroke-width="1"
     stroke-linecap="round"
     stroke-linejoin="round"
     stroke-dasharray="1, 6"
     fill="#eeeeee"
     fill-opacity="0.5"
     fill-rule="evenodd"
     d="m 501,398 -1,5 -1,-1 3,2 2,4 h 2 l -2,7 -2,-2 -2,6 -3,-1 4,3 v 5 l 7,8 h 3 l 1,3 1,-1 2,6 -2,1 1,1 12,-10 6,7 v -3 l 5,-5 7,-4 -1,-8 6,-3 2,3 h 2 l -1,-6 2,-5 -5,-4 h -2 l -2,3 -1,-3 -6,-3 -1,-3 -5,3 h -3 l -5,-3 -2,-5 h -6 l -8,-6 h -3 l -1,7 h -3 z"
     id="120112" />
  <path
     class="leaflet-interactive"
     stroke="#333333"
     stroke-opacity="1"
     stroke-width="1"
     stroke-linecap="round"
     stroke-linejoin="round"
     stroke-dasharray="1, 6"
     fill="#eeeeee"
     fill-opacity="0.5"
     fill-rule="evenodd"
     d="m 443,369 -2,-4 1,-2 4,-1 v -8 l 11,-8 v -2 l -2,1 v -5 l 6,-1 1,3 4,-1 -1,-1 3,-3 -1,-2 4,-1 8,2 2,-5 v 2 -2 h 3 l 4,-5 5,-2 h 5 l 2,3 2,-2 3,1 1,2 h 2 v 2 l 6,3 -1,2 h 2 l 3,3 -1,1 5,3 3,-1 1,2 -2,6 2,2 -4,2 h -6 l -11,-4 -1,1 2,1 v 4 l -7,3 -6,6 -2,-2 -3,2 -1,-2 -4,2 -4,-1 -4,4 -4,-1 -5,2 v 2 l -8,1 v -4 l -3,5 -2,-5 -6,1 -2,-2 -1,2 z m 33,-6 2,-1 -2,-2 -1,2 z"
     id="120113" />
  <path
     class="leaflet-interactive"
     stroke="#333333"
     stroke-opacity="1"
     stroke-width="1"
     stroke-linecap="round"
     stroke-linejoin="round"
     stroke-dasharray="1, 6"
     fill="#eeeeee"
     fill-opacity="0.5"
     fill-rule="evenodd"
     d="m 511,330 1,-5 -2,-1 v -2 l -3,-1 v -3 l 2,-2 v -3 h 2 l -1,2 h 3 l 1,-2 -3,-7 1,-3 -6,-7 v -4 l -5,-2 1,-3 -3,-3 3,-1 -20,-17 -3,-3 v -2 h -6 l -6,-4 -9,-3 h -3 l -7,4 v -2 h -2 l -4,-6 v -6 l 1,-2 1,1 -1,-2 h -6 l -2,7 -10,2 v 4 l -4,3 2,4 -3,2 -1,-1 -1,4 v -2 l -2,1 1,1 -2,2 3,4 -4,4 2,7 4,-1 v 5 l -2,1 2,6 -7,4 2,4 -1,-1 3,2 2,-2 3,4 4,-2 1,2 h 3 l -1,2 -2,-1 1,2 -4,3 -1,-1 v 10 h -3 l 2,3 h -2 l 1,5 h 4 l 4,-4 1,4 h 2 v 6 l -1,2 h -3 l -1,3 h 2 l 1,12 1,2 h 2 v 2 l -2,1 v -2 h -2 l 1,3 h -4 l 2,14 8,1 2,6 -1,1 h 2 l -1,-7 h 3 l -2,-1 4,-2 -2,-4 1,-2 4,-1 v -8 l 11,-8 v -2 l -2,1 v -5 l 6,-1 1,3 4,-1 -1,-1 3,-3 -1,-2 4,-1 8,2 2,-5 v 2 -2 h 3 l 4,-5 5,-2 h 5 l 2,3 2,-2 3,1 5,5 z"
     id="120114" />
  <path
     class="leaflet-interactive"
     stroke="#333333"
     stroke-opacity="1"
     stroke-width="1"
     stroke-linecap="round"
     stroke-linejoin="round"
     stroke-dasharray="1, 6"
     fill="#eeeeee"
     fill-opacity="0.5"
     fill-rule="evenodd"
     d="m 499,212 -4,-1 -3,2 -1,-2 h -4 l 1,2 h -5 l -1,2 -1,-1 v 6 h 4 v 3 l 5,5 -8,3 v 3 h -2 v 2 l 3,3 v 10 l -2,3 4,4 -5,3 -1,4 17,14 -1,2 h 3 l 4,3 -1,2 h -2 l 3,3 -1,3 5,2 v 4 l 5,7 3,10 -1,2 -2,-2 -1,2 1,-2 -2,-1 -2,9 h 3 l 1,4 3,-2 h 8 l 2,2 7,1 1,-3 h 5 l 4,-3 v -2 l 4,-1 h -2 l -3,-14 4,-4 3,1 -1,-1 2,-1 h 5 l 2,-4 -2,-3 2,-1 3,3 5,-1 v -5 l 4,-1 1,-4 6,1 2,-2 1,1 2,-4 2,1 v -2 l -4,-2 4,-1 v -2 l -3,-1 -1,-2 h -2 l -3,3 -1,-4 h -2 l -1,-3 -2,3 -1,-2 2,-1 v -2 h 2 v -3 h 2 v -2 h 2 l 1,-2 v -6 h -2 v -3 l -3,-2 v -3 l -1,1 -6,-2 -5,-4 4,-5 -5,-3 -2,1 -1,-2 h -4 l -1,-2 h -6 l -1,-2 h -3 l -1,2 -2,-1 v 2 h -3 v 3 l -13,-10 -2,1 -3,-2 -2,2 -3,-4 -2,1 -1,-2 h -2 l -1,-3 h -2 z"
     id="120115" />
  <path
     class="leaflet-interactive"
     stroke="#333333"
     stroke-opacity="1"
     stroke-width="1"
     stroke-linecap="round"
     stroke-linejoin="round"
     stroke-dasharray="1, 6"
     fill="#eeeeee"
     fill-opacity="0.5"
     fill-rule="evenodd"
     d="m 548,406 6,3 -2,6 1,6 h -2 l -2,-3 -6,3 1,8 -7,4 -5,5 v 3 l -6,-7 -14,12 1,3 -14,-6 -6,9 -3,-2 -2,2 v 3 l 3,3 -9,7 -2,-1 v 2 l -3,2 v 2 h 7 l -3,1 v 7 l -2,4 3,4 -2,11 9,-1 v -2 l 3,-3 h 2 l -1,3 h 2 l -1,1 5,3 v 2 l -4,4 h 5 l -4,2 2,5 7,-1 v -2 h 2 l 1,3 h 2 l 1,-2 5,1 1,-5 h 2 v 4 l 5,-2 3,-3 h -2 l 2,-2 1,1 10,-5 1,1 v -2 h 5 l 2,2 2,-1 v 3 l 3,-1 -1,-1 2,-2 2,1 15,-3 1,-7 17,-8 -1,-17 -12,-2 -3,-2 -1,-12 19,-4 5,-5 8,3 h 4 l 3,-3 v -5 l 3,-7 3,-1 1,-4 -9,-5 -2,-16 1,-13 5,-8 17,-12 2,-8 10,-3 1,-3 h 5 v -6 l -6,-3 1,-1 -2,-1 v -3 l -2,2 -4,-1 v -2 h -2 l -3,-5 h -11 l -3,-3 -5,-1 -2,2 -1,-1 1,2 -1,2 v -2 l -1,1 v 2 l 2,2 -4,9 -4,-2 1,-2 -4,-2 -1,-4 -14,5 v 4 l 7,7 -5,7 v 8 h -7 v -4 h -2 l -5,-6 -4,2 1,6 -2,4 -8,-3 -1,4 h -2 v 3 l -2,1 -4,-2 -2,3 -1,7 9,2 v 5 h 2 l -1,6 -4,-1 -4,7 h 2 v 3 z"
     id="120116" />
  <path
     class="leaflet-interactive"
     stroke="#333333"
     stroke-opacity="1"
     stroke-width="1"
     stroke-linecap="round"
     stroke-linejoin="round"
     stroke-dasharray="1, 6"
     fill="#eeeeee"
     fill-opacity="0.5"
     fill-rule="evenodd"
     d="m 599,320 v 4 l 6,1 3,-2 -1,-2 1,1 v 3 l -3,4 h 2 l -1,5 v -2 l -1,1 2,4 -4,9 -4,-2 1,-2 -4,-2 -1,-4 -14,5 v 4 l 7,7 -5,7 v 8 h -7 v -4 h -2 l -5,-6 -4,2 1,6 -2,4 -18,-6 v -4 l -4,2 2,-1 -4,-1 1,-3 -7,-4 -6,3 -4,-6 2,-8 -1,-1 -3,2 -3,-3 h -2 l 1,-1 -3,-3 h -2 l 1,-1 -3,-4 v -4 l 3,-3 h 8 l 2,2 7,1 1,-3 h 5 l 4,-3 v -2 l 4,-1 h -2 l -3,-14 4,-4 3,1 -1,-1 2,-1 h 5 l 2,-4 -2,-3 2,-1 3,3 5,-1 v -5 l 4,-1 1,-4 h 9 l 2,-4 4,5 5,-5 -2,-2 1,-4 3,-1 -2,-2 9,-3 6,3 h 4 l 3,-2 3,2 2,-1 7,4 -5,10 1,5 -2,1 v 7 l -4,3 -1,3 v 10 l -5,1 3,1 1,6 h -8 z m -7,-7 -6,-2 -6,1 v 4 l -5,1 -2,-6 -4,1 -1,2 v -2 h -4 l -2,-3 -2,3 h -4 v 2 l -3,1 1,2 -3,1 -1,4 -1,-1 -2,3 3,4 11,-2 4,2 3,-1 2,5 3,1 1,-10 7,2 7,-1 7,-5 v -4 z"
     id="120117" />
  <path
     class="leaflet-interactive"
     stroke="#333333"
     stroke-opacity="1"
     stroke-width="1"
     stroke-linecap="round"
     stroke-linejoin="round"
     stroke-dasharray="1, 6"
     fill="#eeeeee"
     fill-opacity="0.5"
     fill-rule="evenodd"
     d="m 499,443 -11,-11 -13,-19 -11,-7 -5,2 v -5 l -4,-3 -8,-2 -5,-4 -1,2 -3,-3 h -4 l -2,2 2,-3 -4,-2 -1,5 -9,2 -5,-2 -2,1 v -2 h 2 l -2,-1 -2,4 -2,-1 -2,2 1,9 -6,8 -1,6 -2,1 v 10 h 3 v 10 h 4 l -1,4 2,3 -3,9 3,1 -1,6 7,4 2,-2 h 13 l 2,15 h 9 l 12,-3 4,1 v -2 l 5,-2 v 5 l 4,1 -2,10 3,7 h 3 v 2 h 2 l -1,1 3,2 2,-1 v -2 h 3 l 2,-2 3,-9 -3,-10 2,-2 v -7 l 3,-1 -5,1 -1,-2 -1,1 v -2 l 3,-2 v -2 l 12,-6 -4,-3 v -3 l 2,-2 3,2 6,-8 z"
     id="120118" />
  <path
     class="leaflet-interactive"
     stroke="#333333"
     stroke-opacity="1"
     stroke-width="1"
     stroke-linecap="round"
     stroke-linejoin="round"
     stroke-dasharray="1, 6"
     fill="#eeeeee"
     fill-opacity="0.5"
     fill-rule="evenodd"
     d="m 550,228 h 2 l 1,-2 v -6 l 3,-1 h -2 v -3 l -2,-3 -1,1 -1,-3 2,-3 -2,-2 -1,1 -2,-10 h -2 l 1,-6 -2,1 4,-4 -3,-1 1,-3 3,-1 3,-6 -2,-5 h 9 l 6,7 10,-1 1,-2 5,-1 8,5 2,-2 4,2 2,-10 -2,-3 h -7 v -7 l 2,1 3,-2 -3,-3 -1,-4 -5,1 -3,-4 -6,3 -1,-4 -4,2 2,-4 -2,-5 -2,-1 -1,-4 -2,1 v -3 l -3,-3 -3,1 -3,-7 -1,-8 h -11 l -12,-6 -2,2 -2,-1 v 3 l -2,2 h -3 l 1,2 -3,1 v 2 l 3,1 -3,1 1,3 h 4 l -3,2 1,1 -3,-1 1,2 h -6 l 2,3 -2,4 -4,2 -1,-2 h -2 l -2,4 -5,3 1,1 -5,-2 -7,5 -1,3 3,4 h -6 l -2,2 2,2 -1,4 2,2 v 7 l -3,7 h -3 l -2,5 -1,-1 2,2 -2,4 h -2 l 2,3 h 2 l -2,3 2,2 -1,3 1,-1 3,3 1,-1 v 2 l 1,-1 8,4 2,-2 4,4 -2,2 5,2 1,3 6,2 2,3 2,-2 3,2 2,-1 4,2 2,4 7,4 v -3 l 9,-3 1,2 h 6 l 1,2 z"
     id="120119" />
</svg>
