<?xml version="1.0" encoding="UTF-8" standalone="no"?>
<svg
   pointer-events="none"
   class="leaflet-zoom-animated"
   width="1447"
   height="865"
   viewBox="-121 -72 1447 865"
   style="transform: translate3d(-121px, -72px, 0px);"
   version="1.1"
   id="svg1"
   sodipodi:docname="宁夏回族自治区.svg"
   inkscape:version="1.4 (86a8ad7, 2024-10-11)"
   xmlns:inkscape="http://www.inkscape.org/namespaces/inkscape"
   xmlns:sodipodi="http://sodipodi.sourceforge.net/DTD/sodipodi-0.dtd"
   xmlns="http://www.w3.org/2000/svg"
   xmlns:svg="http://www.w3.org/2000/svg">
  <defs
     id="defs1" />
  <sodipodi:namedview
     id="namedview1"
     pagecolor="#ffffff"
     bordercolor="#000000"
     borderopacity="0.25"
     inkscape:showpageshadow="2"
     inkscape:pageopacity="0.0"
     inkscape:pagecheckerboard="0"
     inkscape:deskcolor="#d1d1d1"
     inkscape:zoom="1.2104046"
     inkscape:cx="723.31184"
     inkscape:cy="432.5"
     inkscape:window-width="1920"
     inkscape:window-height="991"
     inkscape:window-x="-9"
     inkscape:window-y="1341"
     inkscape:window-maximized="1"
     inkscape:current-layer="svg1" />
  <path
     class="leaflet-interactive"
     stroke="#000000"
     stroke-opacity="1"
     stroke-width="2"
     stroke-linecap="round"
     stroke-linejoin="round"
     fill="#ffffff"
     fill-opacity="0.2"
     fill-rule="evenodd"
     d="m 696,492 4,-1 v -6 h 3 l -1,-3 2,-2 6,-2 3,3 -1,-4 3,-6 -1,-5 -2,-1 1,-3 -2,1 v -3 l -6,-4 v -5 l 3,6 1,-3 5,-1 v -4 l 2,-2 -6,-12 h 6 v 2 l 2,-3 1,2 3,-1 v 2 l 3,3 1,-8 4,1 7,5 1,-3 -2,-2 2,-1 7,5 1,-2 3,2 v -3 l 6,2 7,-3 6,5 h 3 v -3 l 3,3 3,-8 -2,-4 -4,-3 3,-2 -4,-7 v -7 l 2,-13 5,-3 3,-5 v -3 l -4,-1 -1,-3 3,1 5,-6 2,1 v -2 l -4,-2 8,-1 2,-2 1,-6 8,-3 2,1 3,-2 1,-3 v -4 l -2,-2 -7,-2 -6,-6 h -6 l -1,-1 2,-5 -7,-6 -2,-4 -8,-3 -5,-5 -5,-1 -1,3 -10,2 -22,-6 -4,-4 -10,-3 -13,-10 11,-9 4,-9 5,-28 5,-4 4,-8 15,-16 v -12 l -10,-7 v -3 l -6,-12 2,-4 -1,-9 -4,-3 -6,1 -1,2 -7,-3 -9,13 -9,-3 -11,3 v 14 l -3,2 -7,-4 -2,1 -5,8 -2,7 1,3 -3,5 h -2 l -5,6 1,4 h 2 l -10,11 v 10 l -4,6 2,6 -2,2 1,6 -2,1 1,2 -2,2 2,4 -3,9 4,8 -2,7 -4,2 -2,4 -1,7 1,5 6,9 -4,7 1,9 -4,8 -6,3 -6,-1 -3,9 h -25 l -11,3 -16,11 -15,1 -5,4 -34,2 -4,7 -2,-1 -1,2 -7,2 1,2 h 7 l 1,-2 5,-2 2,3 10,-1 10,3 -1,6 h 5 v 2 l -6,5 h -3 v 2 l -2,1 1,5 2,2 h 7 l 6,-5 2,2 1,-1 4,3 1,5 8,10 v 5 h 5 v 2 l 14,3 2,4 v 8 l 5,-1 8,10 v 7 l -1,1 -4,-2 v 2 h -3 l -3,4 v 3 l 2,1 v 4 l 4,5 v 3 l -2,1 3,4 3,-2 5,6 -1,5 4,1 -1,3 3,3 -2,2 3,4 h 2 l 2,4 -2,6 5,10 -2,5 -3,-1 -11,11 v 14 l 6,4 -3,1 v 5 l 1,1 3,-4 4,6 v 3 l 1,-1 1,3 3,1 4,-1 1,5 v -4 l 9,-3 8,2 -2,4 -1,-4 -3,5 3,1 v 4 h 2 l 1,2 1,-1 -1,1 3,3 -1,1 2,2 2,-1 v 4 l 2,2 -1,3 1,1 2,-6 2,1 2,-2 10,3 v 3 l 5,-1 v 2 l 1,-2 1,1 -2,3 v 4 l 4,8 1,-4 5,-4 2,3 2,-1 3,10 6,5 -1,2 4,3 2,-1 -1,-3 6,-2 5,-4 v -3 l 2,-1 -2,-3 v -10 h -2 v -3 h -2 l 1,-8 h 2 l -4,-12 5,-5 h 10 v -2 l 1,2 1,-2 1,4 h 3 l 1,-2 1,2 6,2 v -4 l 5,2 2,-4 3,1 v -4 h 2 l 1,2 2,-4 -2,-2 h 3 l -5,-5 1,-3 h -3 l 3,-4 h 2 v -2 h 3 v -2 l -3,1 -1,-3 2,3 3,-7 h -2 v -3 l 3,-7 -2,-4 -1,2 v -3 h -2 l -1,-4 -1,1 -5,-7 -2,2 -2,-2 -1,2 -6,-4 -1,1 -1,-4 -3,1 -1,-3 -1,3 -3,-3 v 2 l -4,-2 -1,3 -6,-3 v -3 l 3,3 -1,-3 2,-7 -3,-5 1,1 1,-2 -1,-1 2,-2 v -3 h -4 l -4,-4 h -2 l -5,-6 1,-1 2,3 1,-2 4,2 v -3 h 2 l -2,-4 z m -36,132 1,-4 -7,1 -2,2 -7,2 1,3 9,-2 v -2 l 1,1 3,-3 v 2 z m 2,3 h -1 z m 0,-3 z"
     id="宁夏回族自治区" />
  <path
     class="leaflet-interactive"
     stroke="#333333"
     stroke-opacity="1"
     stroke-width="1"
     stroke-linecap="round"
     stroke-linejoin="round"
     stroke-dasharray="1, 6"
     fill="#eeeeee"
     fill-opacity="0.5"
     fill-rule="evenodd"
     d="m 730,316 -4,-1 -4,-4 -10,-3 -13,-10 11,-9 5,-12 1,-12 -2,-2 v -3 l -5,-2 1,-3 -10,-1 -1,-2 -4,2 v -2 l -4,-2 1,-3 h -3 l 1,-2 h -4 l -3,-2 -2,1 -5,-4 h -7 l -9,-6 -4,-1 -10,11 v 10 l -4,6 2,6 -2,2 1,6 -2,1 1,2 -2,2 2,4 -3,9 4,8 -1,4 h 4 l 2,3 4,2 -2,7 2,2 2,-4 h 5 l 3,-4 v 2 l 5,3 v 3 l 1,-2 4,1 3,3 1,2 -2,4 3,4 h 3 v 6 l 1,-1 3,3 -1,2 3,1 v 2 h 2 v 5 l -6,1 v 6 l 5,2 7,8 11,8 -1,1 h 6 l 4,2 v -2 l 12,2 -1,-11 6,-3 5,-9 v -3 l -5,1 -1,-10 h -3 l -2,-4 2,-7 4,1 2,-2 -4,-10 2,-3 z"
     id="640100" />
  <path
     class="leaflet-interactive"
     stroke="#333333"
     stroke-opacity="1"
     stroke-width="1"
     stroke-linecap="round"
     stroke-linejoin="round"
     stroke-dasharray="1, 6"
     fill="#eeeeee"
     fill-opacity="0.5"
     fill-rule="evenodd"
     d="m 716,265 3,-13 5,-4 4,-8 15,-16 1,-8 -1,-4 -10,-7 v -3 l -6,-12 2,-4 -1,-9 -4,-3 -6,1 -1,2 -7,-3 -9,13 -9,-3 -11,3 v 14 l -3,2 -7,-4 -2,1 -5,8 -2,7 1,3 -3,5 h -2 l -5,6 1,4 h 4 l 6,4 h 3 l 2,3 h 7 l 1,2 6,1 2,2 h 5 l -1,2 h 3 l -1,3 3,1 1,3 4,-2 1,2 10,1 -1,3 5,2 v 3 z"
     id="640200" />
  <path
     class="leaflet-interactive"
     stroke="#333333"
     stroke-opacity="1"
     stroke-width="1"
     stroke-linecap="round"
     stroke-linejoin="round"
     stroke-dasharray="1, 6"
     fill="#eeeeee"
     fill-opacity="0.5"
     fill-rule="evenodd"
     d="m 642,304 -1,3 -4,2 -3,11 1,5 6,9 -4,7 1,9 -4,8 -6,3 -6,-1 -2,3 v 4 l 3,1 7,-3 h 15 v 14 h 2 l 2,-5 h 7 l 2,2 v 3 h -2 v 2 l 6,8 -10,7 2,2 h -4 l -2,3 -1,-1 -3,2 1,2 h -3 l -1,2 9,5 -1,3 -12,-1 -6,3 4,7 v 4 l -6,1 -3,-9 -9,6 -2,-1 3,3 h 7 l 2,8 8,5 7,12 h -2 l -1,3 -7,4 v 11 l 6,-1 2,3 7,-10 -2,-3 4,-2 5,6 -1,3 5,3 v 4 l 4,4 v 4 l 7,11 v 4 h 6 l 1,-3 9,2 10,-4 3,1 2,-1 v -6 h 3 l -1,-3 2,-2 6,-2 3,3 -1,-4 3,-6 -1,-5 -2,-1 1,-3 -2,1 v -3 l -6,-4 v -5 l 3,6 1,-3 5,-1 v -4 l 2,-2 -6,-12 h 6 v 2 l 2,-3 1,2 3,-1 v 2 l 3,3 1,-8 4,1 7,5 1,-3 -2,-2 2,-1 7,5 1,-2 3,2 v -3 l 6,2 7,-3 6,5 h 3 v -3 l 3,3 3,-8 -2,-4 -4,-3 3,-2 -4,-7 v -7 l 2,-13 5,-3 3,-5 v -3 l -4,-1 -1,-3 3,1 5,-6 2,1 v -2 l -4,-2 8,-1 2,-2 1,-6 8,-3 2,1 3,-2 1,-7 -2,-2 -7,-2 -6,-6 h -6 l -1,-1 2,-5 -7,-6 -2,-4 -8,-3 -5,-5 -5,-1 -1,3 -10,2 -18,-5 -1,3 4,9 -2,3 -4,-1 -2,7 2,5 3,-1 1,10 5,-1 v 3 l -5,9 -6,3 1,11 -12,-2 v 2 l -4,-2 h -6 l 1,-1 -24,-20 1,-4 6,-1 v -5 h -2 v -2 h -3 l 1,-3 -3,-3 -1,1 v -6 l -3,-1 1,1 -4,-4 2,-3 -1,-3 -6,-4 -2,2 v -3 l -5,-3 v -2 l -3,4 h -5 l -2,4 -2,-2 3,-7 -5,-2 -2,-3 z"
     id="640300" />
  <path
     class="leaflet-interactive"
     stroke="#333333"
     stroke-opacity="1"
     stroke-width="1"
     stroke-linecap="round"
     stroke-linejoin="round"
     stroke-dasharray="1, 6"
     fill="#eeeeee"
     fill-opacity="0.5"
     fill-rule="evenodd"
     d="m 662,624 1,6 3,4 1,-4 5,-4 2,3 2,-1 3,10 6,5 -1,2 4,3 2,-1 -1,-3 6,-2 5,-4 v -3 l 2,-1 -2,-3 v -10 h -2 v -3 h -2 l 1,-8 h 2 l -4,-12 3,-4 5,-2 7,1 v -2 l 1,2 1,-2 1,4 h 3 l 1,-2 1,2 6,2 v -4 l 5,2 2,-4 3,1 v -4 h 2 l 1,2 2,-4 -2,-2 h 3 l -5,-5 1,-3 h -3 l 3,-4 h 2 v -2 h 3 v -2 h -4 v -2 l 2,3 3,-7 h -2 l 1,-7 2,-3 -2,-4 -1,2 v -3 h -2 l -1,-4 -1,1 -5,-7 -2,2 -2,-2 -1,2 -6,-4 -1,1 -1,-4 -3,1 -1,-3 -1,3 -3,-3 v 2 l -2,-2 h -2 l -1,3 -4,-1 -3,-4 1,-1 3,3 -1,-3 2,-7 -3,-5 1,1 1,-2 -1,-1 2,-2 v -3 h -4 l -4,-4 h -6 l -4,4 -1,8 h -3 l -1,3 h -2 l -5,5 -8,3 -2,-2 -9,2 -2,3 3,5 1,6 -11,-3 v 3 l -6,8 -2,-2 h -4 l 2,-2 -2,-3 -7,3 -8,-9 -5,2 -4,4 2,4 -2,5 -3,-1 -11,11 v 14 l 6,4 -3,1 1,6 3,-4 4,6 v 3 l 1,-1 1,3 3,1 4,-1 1,5 v -4 l 9,-3 8,2 -2,4 -1,-4 -3,5 3,1 v 4 h 2 l 1,2 1,-1 -1,1 3,3 -1,1 2,2 2,-1 v 4 l 2,2 -1,3 1,1 2,-6 2,1 2,-2 10,3 v 3 l 5,-1 v 2 l 1,-2 1,1 z m -2,0 1,-4 -7,1 -2,2 -7,2 1,3 9,-2 v -2 l 1,1 3,-3 v 2 z m 2,3 h -1 z m 0,-3 z"
     id="640400" />
  <path
     class="leaflet-interactive"
     stroke="#333333"
     stroke-opacity="1"
     stroke-width="1"
     stroke-linecap="round"
     stroke-linejoin="round"
     stroke-dasharray="1, 6"
     fill="#eeeeee"
     fill-opacity="0.5"
     fill-rule="evenodd"
     d="m 693,504 -5,-6 1,-1 2,3 1,-2 4,2 v -3 h 2 l -3,-6 -10,4 -9,-2 -1,3 h -6 v -4 l -7,-11 -1,-6 -3,-2 v -4 l -5,-3 1,-3 -5,-6 -4,2 2,2 -7,10 -2,-2 -6,1 v -11 l 2,1 6,-6 v -2 h 2 l -6,-12 h -4 l -5,-5 -2,-8 h -7 l -3,-3 2,1 9,-7 2,4 -1,3 4,3 5,-3 -5,-9 6,-3 h 13 l -2,-4 -7,-3 1,-2 h 3 v -3 h 3 l 2,-3 h 4 l -2,-3 h 4 l 1,-3 4,-3 v -2 l -3,-2 -2,-4 v -2 h 2 v -3 l -9,-3 -2,6 h -2 v -14 h -15 l -17,5 -15,-2 -15,4 -16,11 -15,1 -5,4 -34,2 -4,7 -2,-1 -1,2 -7,2 1,2 h 7 l 1,-2 5,-2 2,3 10,-1 10,3 -1,6 h 5 v 2 l -6,5 h -3 v 2 l -2,1 1,5 2,2 h 7 l 6,-5 2,2 1,-1 4,3 1,5 8,10 1,6 4,-1 v 2 l 14,3 2,4 v 8 l 5,-1 4,4 5,9 -2,5 -4,-2 v 2 h -3 l -3,4 2,8 4,5 v 3 l -2,1 3,4 3,-2 4,4 v 7 l 4,1 -1,3 3,3 -2,2 3,4 h 2 l 2,4 -2,6 3,5 9,-5 3,3 v 2 l 5,4 7,-3 2,3 -2,2 h 4 l 2,2 3,-3 3,-7 2,-1 9,3 -1,-6 -3,-5 2,-2 7,-3 4,2 8,-3 5,-5 h 2 l 1,-3 h 2 l 2,-5 -1,1 v -4 l 5,-4 3,1 z"
     id="640500" />
</svg>
