<?xml version="1.0" encoding="UTF-8" standalone="no"?>
<svg
   pointer-events="none"
   class="leaflet-zoom-animated"
   width="1135"
   height="626"
   viewBox="-95 -52 1135 626"
   style="transform: translate3d(-95px, -52px, 0px);"
   version="1.1"
   id="svg1"
   sodipodi:docname="安徽省.svg"
   inkscape:version="1.4 (86a8ad7, 2024-10-11)"
   xmlns:inkscape="http://www.inkscape.org/namespaces/inkscape"
   xmlns:sodipodi="http://sodipodi.sourceforge.net/DTD/sodipodi-0.dtd"
   xmlns="http://www.w3.org/2000/svg"
   xmlns:svg="http://www.w3.org/2000/svg">
  <defs
     id="defs1" />
  <sodipodi:namedview
     id="namedview1"
     pagecolor="#ffffff"
     bordercolor="#000000"
     borderopacity="0.25"
     inkscape:showpageshadow="2"
     inkscape:pageopacity="0.0"
     inkscape:pagecheckerboard="0"
     inkscape:deskcolor="#d1d1d1"
     inkscape:zoom="1.672524"
     inkscape:cx="567.70486"
     inkscape:cy="360.83189"
     inkscape:window-width="2400"
     inkscape:window-height="1261"
     inkscape:window-x="-9"
     inkscape:window-y="-9"
     inkscape:window-maximized="1"
     inkscape:current-layer="svg1" />
  <path
     class="leaflet-interactive"
     stroke="#000000"
     stroke-opacity="1"
     stroke-width="2"
     stroke-linecap="round"
     stroke-linejoin="round"
     fill="#ffffff"
     fill-opacity="0.2"
     fill-rule="evenodd"
     d="m 410,280 -5,-5 v -2 h -9 v -2 l -6,-1 -1,-3 2,-2 -1,1 v -2 l -1,-1 v 2 l -1,-2 2,-13 h -2 l -2,-3 -7,-1 v -2 h -5 l -5,-4 2,-1 -1,-2 h 3 l -3,-5 3,-5 5,5 3,1 h 6 l 4,-4 h 5 v -4 l 3,-6 -1,-2 2,-2 -1,-4 h -2 v -6 h 2 l 1,-4 -1,-1 h 3 l 5,-5 6,1 5,-2 -3,-9 1,-1 -3,-4 1,-2 h 3 l 1,-6 -6,-1 3,-10 4,-2 v -2 l 8,-1 5,6 2,-3 2,2 h 3 l 2,3 -1,6 1,-1 3,2 v 5 l 4,3 v 2 h 2 l 1,3 7,-1 5,-4 h 4 l 1,-2 1,1 v -4 l 6,-3 1,1 2,-3 4,2 1,-1 v -5 l -8,-13 3,-3 -2,-6 3,-2 -5,-2 -3,2 -1,-2 -2,2 h -3 l -1,-4 -5,-4 -4,-1 -3,-6 2,-4 v -5 l 2,2 4,-5 1,1 8,-4 v 2 l 3,1 2,4 6,5 h -2 l 12,3 5,6 5,-2 4,2 v 8 l 3,3 h 2 l -2,6 7,3 v 2 h 2 l -1,1 3,2 h 8 v -2 h 3 l 3,5 7,-3 3,6 3,-2 v -2 l 4,3 -1,2 3,7 2,-1 2,2 -3,9 2,3 5,-2 5,2 -1,-1 4,-1 1,-2 2,2 4,-2 8,2 h -2 l 1,6 -4,4 v 11 l -3,-2 -2,3 v 5 l -2,3 h -2 l 1,4 -3,3 v 2 l 4,2 -1,1 3,3 v 2 l 8,-3 1,-3 3,1 -1,7 4,10 h 3 l -5,4 v 3 l 1,3 h 3 v 4 l 2,2 h 3 v 4 h 3 l 2,-2 8,2 3,-2 h 9 l -2,-4 1,-5 h 4 v -5 l 2,1 1,-4 h 2 l 1,2 8,-2 -1,4 h 2 l 5,7 4,-1 3,19 -1,1 -2,-2 v 2 l -2,1 v 4 l -4,4 -4,-5 -2,1 -4,-4 h -3 l 1,-2 -5,1 v -2 l -3,1 -1,-2 h -4 v 2 l -1,-2 v 2 l -6,-1 -2,2 3,4 v 4 h 6 l -1,7 1,-1 1,4 -4,2 1,4 -2,3 -6,2 -1,-1 -2,2 1,3 -8,6 1,3 -3,7 7,4 1,6 4,2 v 3 l 6,-2 4,3 -3,3 v 3 h 4 l 4,-4 1,5 3,-1 2,2 v 14 l -4,4 h -4 l -2,6 -1,-1 4,2 2,4 20,-1 5,-5 2,3 4,1 5,-1 v -3 l 2,3 -1,4 1,2 1,-1 v 2 l 2,-1 2,2 h 4 l 4,4 2,-2 2,2 -1,6 -3,3 -2,7 1,5 -3,4 -3,1 1,1 -3,7 -1,1 -2,-4 -5,5 h -5 v 7 l 2,2 3,-2 1,1 1,8 3,2 -3,3 -3,-2 -1,2 -3,1 -1,3 -9,-3 -2,2 -8,-4 -3,4 v 4 l 3,3 -6,4 3,1 -1,5 2,2 v 8 h -4 v 4 l -6,4 v 7 l -6,7 h -5 l -5,5 -1,5 h -6 l -3,3 -1,-2 -2,6 h -10 v -6 l -8,-6 h -3 l -2,2 h -5 l -3,-2 -7,2 -3,-5 -3,2 h -4 l -2,-3 1,-2 h -3 l -2,-3 v -4 l -3,-3 1,-3 -3,-1 v 2 h -2 l -1,-2 h -2 l -1,2 -2,-2 v -5 l -2,-1 -5,1 -3,6 h -2 l 4,3 -1,6 -8,2 -11,9 h -2 v -2 l -2,-1 -2,3 -5,-6 2,-2 -2,-2 7,-8 h 4 l 5,-8 v -3 l -2,-2 -2,2 v -4 l -2,1 -4,-5 -1,1 -3,-2 h -4 l -2,2 -3,11 h -4 l -14,9 -3,-4 -5,1 v -4 l -4,-7 1,-12 -2,-2 v -4 l -6,-7 -4,-1 1,-1 -2,-4 3,-3 -3,-3 2,-4 -10,-13 1,-5 3,1 3,-3 -1,-3 2,-4 9,-6 h 3 l -1,-3 -3,-1 v -2 h -4 v -2 l -4,-3 -1,-3 -6,2 -6,-7 h -2 l -4,5 -2,-1 -2,-7 -5,-2 1,-3 -2,-2 h -4 v -12 l 3,-2 v -3 l 4,-3 1,-5 12,-8 3,1 2,-2 5,2 5,-3 -1,-5 3,-22 -2,-2 -3,-21 1,-1 -1,-2 h -2 l 5,-5 h -2 l -6,8 -1,-3 -2,2 -3,-1 v 2 h -2 v 3 l -3,2 -1,-2 -3,2 1,-1 z m 76,207 h 1 z m 1,1 z"
     id="安徽省" />
  <path
     class="leaflet-interactive"
     stroke="#333333"
     stroke-opacity="1"
     stroke-width="1"
     stroke-linecap="round"
     stroke-linejoin="round"
     stroke-dasharray="1, 6"
     fill="#eeeeee"
     fill-opacity="0.5"
     fill-rule="evenodd"
     d="m 508,372 3,2 3,6 -1,4 h 4 l 6,8 5,-1 2,4 7,-4 v -4 h 2 l 1,-2 -1,-3 3,-3 -2,-3 3,-4 -1,-2 h 2 l 3,-3 4,-11 17,-3 -2,-2 1,-1 -3,-1 4,-5 -1,-4 -3,-2 v -10 l 3,-6 -4,-1 -5,-6 2,-3 3,-1 -2,-2 1,-4 -2,-6 -14,-3 -8,4 -7,-6 3,-5 -3,-3 h -2 l 3,-6 -1,-1 -4,3 h -3 l -5,-3 v -3 l -3,-1 -6,1 v 4 l -4,5 3,1 -1,7 2,2 -1,3 -3,1 1,4 -3,1 3,6 2,1 -1,3 -3,2 v -2 l -3,-1 -1,4 h -3 l -11,7 2,2 -3,2 v 2 l 4,3 v 14 l 5,5 6,-2 4,1 v -2 l 15,1 1,3 -5,1 -6,9 1,2 -2,6 z"
     id="340100" />
  <path
     class="leaflet-interactive"
     stroke="#333333"
     stroke-opacity="1"
     stroke-width="1"
     stroke-linecap="round"
     stroke-linejoin="round"
     stroke-dasharray="1, 6"
     fill="#eeeeee"
     fill-opacity="0.5"
     fill-rule="evenodd"
     d="m 612,368 -4,1 -3,-3 1,-1 -3,-5 -4,1 -2,-8 h -2 l -1,-2 -3,6 -1,-4 -8,-3 -3,3 1,3 h -2 v 2 h 2 l 1,3 -12,-3 -1,-4 -3,-1 -7,2 -1,-1 -2,2 h -4 l -5,13 -4,1 1,2 -4,4 3,3 -3,3 1,3 -3,2 v 2 l 1,2 h 2 v 2 l 8,1 4,-5 1,1 3,-8 3,-2 3,1 3,5 h 6 l 1,3 8,5 1,4 -5,1 -3,3 -2,-1 -3,5 10,7 -2,4 1,1 6,-5 h 6 v -7 l 4,-4 h 3 l 2,2 -1,1 4,3 1,-6 -2,-2 h 2 v -5 l 1,1 2,-3 h 2 l 1,-6 2,2 3,-2 1,-5 2,-2 -4,-8 1,-3 z"
     id="340200" />
  <path
     class="leaflet-interactive"
     stroke="#333333"
     stroke-opacity="1"
     stroke-width="1"
     stroke-linecap="round"
     stroke-linejoin="round"
     stroke-dasharray="1, 6"
     fill="#eeeeee"
     fill-opacity="0.5"
     fill-rule="evenodd"
     d="m 489,245 6,2 14,14 5,-3 5,1 2,-4 5,-3 h 10 l 1,-3 h 2 l -1,-2 3,-6 3,4 3,1 8,-10 4,1 4,-2 -1,4 h 8 l 2,-1 -1,-2 -1,1 v -2 l 4,-2 1,-3 -2,-1 2,-1 -3,1 v -2 l -3,-3 1,-1 -4,-2 4,-8 h -6 l -7,5 h -4 l -6,-5 -7,1 -4,-2 -5,-6 v -2 l -10,-4 -2,6 -3,-2 -2,2 v 3 l -3,-1 -2,2 3,2 -2,2 2,1 v 2 l -5,-1 -1,2 h -2 l -3,-3 -4,2 -4,-2 1,12 -2,-1 -2,2 -1,5 5,5 -3,1 -2,4 z"
     id="340300" />
  <path
     class="leaflet-interactive"
     stroke="#333333"
     stroke-opacity="1"
     stroke-width="1"
     stroke-linecap="round"
     stroke-linejoin="round"
     stroke-dasharray="1, 6"
     fill="#eeeeee"
     fill-opacity="0.5"
     fill-rule="evenodd"
     d="m 491,322 7,-5 h 3 l 1,-4 3,1 v 2 l 4,-4 -5,-8 3,-1 -1,-3 1,-2 h 2 l 1,-3 -2,-2 1,-7 -3,-1 3,-2 3,-8 h 7 l -3,-11 3,-4 -4,-2 -4,1 -1,2 -4,-5 -5,-2 -10,-9 -9,-1 -16,-5 v 10 l 4,2 v 11 l 3,2 1,-1 3,7 5,2 -1,2 h -3 l -6,8 v 5 l 3,4 -1,12 3,6 -1,4 8,4 2,6 3,-1 z"
     id="340400" />
  <path
     class="leaflet-interactive"
     stroke="#333333"
     stroke-opacity="1"
     stroke-width="1"
     stroke-linecap="round"
     stroke-linejoin="round"
     stroke-dasharray="1, 6"
     fill="#eeeeee"
     fill-opacity="0.5"
     fill-rule="evenodd"
     d="m 627,353 -2,8 -5,3 v -2 l -2,1 -3,5 -5,1 h -2 l -3,-3 1,-1 -3,-5 -4,1 -2,-8 h -2 l -1,-2 -3,6 -1,-4 -8,-3 -3,3 1,3 h -2 v 2 h 2 l 1,3 -12,-3 -3,-7 1,-1 -3,-1 4,-5 -1,-4 -3,-2 v -10 l 3,-6 8,5 3,-5 3,1 14,-12 1,3 -3,7 7,4 1,6 4,2 v 3 l 6,-2 4,3 -3,3 v 3 h 4 l 4,-4 1,5 3,-1 2,2 1,7 z"
     id="340500" />
  <path
     class="leaflet-interactive"
     stroke="#333333"
     stroke-opacity="1"
     stroke-width="1"
     stroke-linecap="round"
     stroke-linejoin="round"
     stroke-dasharray="1, 6"
     fill="#eeeeee"
     fill-opacity="0.5"
     fill-rule="evenodd"
     d="m 467,179 2,3 h 2 l 2,5 -1,2 5,4 -2,4 2,6 9,-1 7,5 v 9 l 4,1 4,-2 -1,-1 1,-3 3,-2 v -4 l -4,-3 2,-8 h -4 l -1,-5 4,-4 2,-14 2,-1 1,-3 -3,-3 1,-4 -2,-1 2,-3 h -3 l -1,-2 -4,1 -1,2 h -2 v 4 l -13,-1 v 2 l 3,2 v 6 l -1,1 -4,-2 -3,3 h -3 l -3,6 -1,-1 z m 41,-30 v -6 2 l -4,2 v 3 h 4 z"
     id="340600" />
  <path
     class="leaflet-interactive"
     stroke="#333333"
     stroke-opacity="1"
     stroke-width="1"
     stroke-linecap="round"
     stroke-linejoin="round"
     stroke-dasharray="1, 6"
     fill="#eeeeee"
     fill-opacity="0.5"
     fill-rule="evenodd"
     d="m 516,385 -2,4 1,1 h -2 l -2,3 1,14 4,6 5,1 -2,1 1,4 8,-5 7,1 3,-4 9,-3 4,-3 v 2 l 2,-2 2,3 -1,1 3,1 5,-5 4,-2 1,2 4,-4 2,2 1,-3 1,1 1,-2 5,-1 -1,-4 -8,-4 -2,-5 h -7 l -3,-5 -4,2 -3,8 -1,-1 -4,4 v 2 l -2,-2 h -6 v -2 l -10,3 -2,-3 -5,1 -6,-8 z m 9,44 -3,3 v 2 l 2,1 3,-6 z m -22,-10 v -3 h -2 v 2 z"
     id="340700" />
  <path
     class="leaflet-interactive"
     stroke="#333333"
     stroke-opacity="1"
     stroke-width="1"
     stroke-linecap="round"
     stroke-linejoin="round"
     stroke-dasharray="1, 6"
     fill="#eeeeee"
     fill-opacity="0.5"
     fill-rule="evenodd"
     d="m 499,439 2,3 v 4 l -4,4 -3,7 -6,5 -3,-2 h -4 l -3,4 v 5 l -2,4 h -4 l -14,9 -3,-4 -5,1 v -4 l -4,-7 1,-12 -2,-2 v -4 l -5,-6 -5,-2 1,-1 -2,-4 3,-3 -3,-3 2,-4 -9,-11 v -7 l 3,1 3,-3 -1,-3 2,-4 9,-6 h 3 l -2,-4 4,-6 3,-1 3,4 10,-9 7,3 6,-4 v 7 l -2,4 1,1 5,-3 6,2 1,-2 h 4 l 4,-5 6,-2 2,-7 3,-1 4,3 3,6 -1,4 3,1 -2,4 1,1 h -2 l -2,3 1,14 4,6 5,1 -2,1 v 2 l 3,7 -4,7 -4,-2 h -7 l -5,4 h -3 v 4 z m 4,-23 h -2 v 2 l 2,1 1,-2 z"
     id="340800" />
  <path
     class="leaflet-interactive"
     stroke="#333333"
     stroke-opacity="1"
     stroke-width="1"
     stroke-linecap="round"
     stroke-linejoin="round"
     stroke-dasharray="1, 6"
     fill="#eeeeee"
     fill-opacity="0.5"
     fill-rule="evenodd"
     d="m 626,458 -1,-1 -4,3 -3,-1 -3,2 v 2 l -5,1 -1,4 -4,2 -1,-4 -2,-1 v -5 l -9,-3 -1,-4 -5,-6 v -2 l 4,-1 -2,-1 1,-4 -6,-4 1,-3 -3,-1 -4,3 v -6 l -10,-1 -2,7 1,2 -2,2 1,3 -3,3 v 2 l -4,2 2,1 v 2 l -10,4 -2,3 -5,-2 -2,2 -2,-1 1,5 -7,2 -2,-1 -1,2 -12,2 v 4 l 3,3 v 4 h 11 l -1,2 3,4 v 4 l 2,3 h 2 l 2,5 h 4 l 2,-2 3,2 1,3 6,-2 h 2 l 1,2 h 5 l 3,-2 5,1 6,4 -1,6 4,2 3,-2 4,1 2,-6 1,2 2,-3 h 7 l 1,-5 5,-5 h 4 l 7,-7 -1,-4 2,-4 5,-3 v -4 h 4 v -7 l -2,-4 z"
     id="341000" />
  <path
     class="leaflet-interactive"
     stroke="#333333"
     stroke-opacity="1"
     stroke-width="1"
     stroke-linecap="round"
     stroke-linejoin="round"
     stroke-dasharray="1, 6"
     fill="#eeeeee"
     fill-opacity="0.5"
     fill-rule="evenodd"
     d="m 567,322 8,5 3,-5 3,1 6,-4 3,-3 v -2 l 8,-6 h 2 l 3,-3 -1,-2 2,-2 5,-1 4,-3 -1,-4 3,-3 v -10 l -7,-1 v -2 l 2,-1 -4,-4 2,-2 6,1 v -2 l 1,2 v -2 h 2 l 1,2 1,-2 3,2 1,-1 v 2 l 5,-2 v 3 h 2 l 3,4 4,-1 2,5 5,-4 v -4 l 2,-1 v -2 l 2,2 1,-1 -1,-12 -2,-7 -4,1 -6,-7 v -4 l -6,2 -5,-2 v 3 l -3,1 -1,5 -2,-1 -2,5 2,4 -2,1 -7,-1 -3,2 -8,-2 -2,2 h -3 v -4 h -3 l -2,-2 1,-1 -2,-4 -2,1 -1,-6 5,-3 -4,-2 v -3 l -3,-5 1,-7 -3,-3 -1,4 -6,3 1,4 h -3 l -2,2 v 2 h 2 l -1,2 -4,-1 -3,2 -2,-1 1,-3 -6,1 -2,-2 -1,3 -3,1 -3,7 -4,-1 -3,-4 -3,5 1,2 -3,3 h -7 l -8,4 v 2 l -3,2 1,1 -3,3 4,17 4,2 h 3 l 4,-3 1,1 -3,6 5,2 -3,6 7,6 7,-4 h 6 l 6,3 1,-1 3,3 1,4 -2,2 3,4 -5,4 5,6 h 2 z"
     id="341100" />
  <path
     class="leaflet-interactive"
     stroke="#333333"
     stroke-opacity="1"
     stroke-width="1"
     stroke-linecap="round"
     stroke-linejoin="round"
     stroke-dasharray="1, 6"
     fill="#eeeeee"
     fill-opacity="0.5"
     fill-rule="evenodd"
     d="m 410,280 -5,-5 v -2 h -9 v -2 l -6,-1 -1,-3 2,-2 -1,1 v -2 l -1,-1 v 2 l -1,-2 2,-13 h -2 l -2,-3 -7,-1 v -2 h -5 l -5,-4 2,-1 -1,-2 h 3 l -3,-5 3,-5 5,5 3,1 h 6 l 4,-4 h 5 v -4 l 3,-6 -1,-2 2,-2 -1,-4 h -2 v -6 h 2 l 1,-4 -1,-1 h 3 l 5,-5 6,1 5,-2 2,6 12,4 3,4 2,8 -2,3 1,4 -5,-4 -1,2 v 6 h 2 l 1,5 11,3 1,5 6,1 4,7 4,2 8,-3 -1,2 4,2 v 11 l 3,2 1,-1 3,7 5,2 -1,2 h -3 l -6,8 h -5 l -3,-2 -2,-4 h -3 l -2,5 -1,-1 -3,3 -6,-9 h -2 l -4,-5 h -2 l -2,3 h -3 l -6,8 -1,-3 -2,2 -3,-1 v 2 h -2 v 3 l -3,2 -1,-2 -3,2 1,-1 z"
     id="341200" />
  <path
     class="leaflet-interactive"
     stroke="#333333"
     stroke-opacity="1"
     stroke-width="1"
     stroke-linecap="round"
     stroke-linejoin="round"
     stroke-dasharray="1, 6"
     fill="#eeeeee"
     fill-opacity="0.5"
     fill-rule="evenodd"
     d="m 480,160 13,2 1,-7 1,2 3,-1 1,-2 4,2 v 8 l 3,3 -1,3 h -2 l -2,12 1,3 -1,2 -4,1 v 5 l 2,2 3,-1 -2,8 4,3 v 4 l -4,4 4,5 h 2 l 1,-2 5,1 v -2 l -2,-1 2,-2 -2,-2 1,-2 h 2 l 1,2 1,-5 1,-1 3,2 2,-5 h 5 l 5,3 v 2 l 5,6 7,2 4,-1 4,4 6,1 4,-2 v -2 h 6 l 5,-4 -1,-2 2,-7 4,2 v -11 l 4,-4 -1,-6 h 2 l -5,-2 -7,2 -2,-2 -2,3 h -3 l 1,1 -3,-2 -7,2 -2,-2 2,-4 v -8 l -2,1 -3,-4 v -4 l -4,-4 -2,4 -4,-6 -7,3 -3,-5 h -3 v 2 h -8 l -10,-8 -4,2 v -4 l 2,-3 h 2 l -4,-4 v -8 l -3,-2 -5,2 -7,-7 -11,-1 2,-2 -5,-2 -6,-7 v -2 l -4,1 -3,3 -2,-1 -3,5 -2,-2 -3,9 5,7 h 2 l 6,5 v 2 l 3,1 2,-2 1,2 2,-2 6,2 -3,3 v 3 l 2,2 h -2 v 5 l 4,5 z"
     id="341300" />
  <path
     class="leaflet-interactive"
     stroke="#333333"
     stroke-opacity="1"
     stroke-width="1"
     stroke-linecap="round"
     stroke-linejoin="round"
     stroke-dasharray="1, 6"
     fill="#eeeeee"
     fill-opacity="0.5"
     fill-rule="evenodd"
     d="m 491,322 -5,1 -1,-6 -9,-4 1,-4 -3,-6 1,-12 -3,-3 v -6 h -5 l -3,-2 -2,-4 h -3 l -2,5 -1,-1 -3,3 -6,-9 h -2 l -2,-4 -4,-1 -8,8 3,1 -1,2 2,6 1,14 2,3 -4,25 2,1 v 2 l -4,2 -6,-2 -2,2 -3,-1 -8,6 h -2 l -7,10 1,1 -4,4 v 12 h 4 l 1,5 6,3 1,6 2,1 4,-5 h 2 l 5,5 v 2 l 8,-2 v 3 l 4,3 -1,1 5,1 v 2 h 2 l 2,-4 5,-3 3,4 2,-1 8,-8 7,3 6,-4 v 7 l -2,4 1,1 5,-3 6,2 1,-2 h 4 l 4,-5 6,-2 2,-7 5,-1 2,-6 -1,-1 5,-9 7,-2 -4,-4 h -13 v 2 l -4,-1 -6,2 -5,-5 v -14 h -2 l 1,-1 -3,-2 v -2 l 3,-2 -2,-2 3,-1 z"
     id="341500" />
  <path
     class="leaflet-interactive"
     stroke="#333333"
     stroke-opacity="1"
     stroke-width="1"
     stroke-linecap="round"
     stroke-linejoin="round"
     stroke-dasharray="1, 6"
     fill="#eeeeee"
     fill-opacity="0.5"
     fill-rule="evenodd"
     d="m 467,179 h -4 l -5,4 -2,-1 -4,2 -8,-8 1,-3 -4,-4 -1,1 1,-6 -2,-3 h -4 l -1,-2 -1,3 -6,-6 -7,1 -4,4 -4,11 h 6 l -1,6 -4,1 3,5 -1,1 5,15 12,4 3,4 2,8 -2,3 1,4 -5,-4 -1,2 v 6 h 2 l 1,5 11,3 1,5 6,1 4,7 4,2 8,-3 -2,-3 1,-5 23,6 v -4 l 2,-2 2,1 1,-2 -5,-4 1,-6 2,-2 1,1 1,-4 -2,-9 1,-7 -10,-5 h -7 l -1,-4 2,-5 -5,-4 1,-1 -2,-6 h -2 l -1,-2 z"
     id="341600" />
  <path
     class="leaflet-interactive"
     stroke="#333333"
     stroke-opacity="1"
     stroke-width="1"
     stroke-linecap="round"
     stroke-linejoin="round"
     stroke-dasharray="1, 6"
     fill="#eeeeee"
     fill-opacity="0.5"
     fill-rule="evenodd"
     d="m 485,487 5,-7 h 4 l 5,-8 v -3 l -2,-2 -2,2 v -4 l -2,1 -4,-5 5,-4 3,-7 4,-4 v -4 l -3,-7 1,-2 1,1 6,-5 h 7 l 5,2 3,-3 1,-4 -2,-5 8,-5 7,1 3,-4 9,-3 4,-3 v 2 l 2,-2 2,3 -1,1 3,1 5,-5 4,-2 1,2 2,-2 -1,3 10,7 -2,4 1,1 -8,6 -3,10 1,2 -2,2 1,3 -3,3 v 2 l -4,2 2,1 v 2 l -10,4 -2,3 -5,-2 -2,2 -2,-1 1,5 -2,1 h -7 l -1,2 -12,2 v 4 l -4,1 -3,6 h -2 l 4,3 v 5 l -5,3 h -4 l -11,9 h -2 v -2 l -2,-1 -2,3 -5,-6 2,-2 -1,-2 z m 1,0 h 1 z m 1,1 z m 38,-59 -3,3 v 2 l 2,1 3,-6 z"
     id="341700" />
  <path
     class="leaflet-interactive"
     stroke="#333333"
     stroke-opacity="1"
     stroke-width="1"
     stroke-linecap="round"
     stroke-linejoin="round"
     stroke-dasharray="1, 6"
     fill="#eeeeee"
     fill-opacity="0.5"
     fill-rule="evenodd"
     d="m 626,458 2,-3 -4,-1 5,-2 1,-2 -3,-2 v -5 l 4,-4 7,4 2,-2 9,3 1,-3 3,-1 1,-2 h 2 l 1,2 3,-2 -2,-1 -3,-11 -3,2 -2,-2 v -6 l 4,-1 6,-5 1,4 2,-1 3,-7 -1,-1 3,-1 3,-6 -1,-3 3,-8 2,-1 1,-7 -2,-2 -1,2 -2,-1 -2,-3 h -4 l -3,-2 -1,1 -3,-2 1,-5 -2,-3 -1,3 -4,1 -4,-1 -2,-3 -6,5 -17,1 h -2 l -1,-3 -5,-3 1,1 v -2 l -4,1 v 3 l 5,9 -3,2 -2,6 -2,1 -2,-2 -1,5 -4,3 -1,5 h -2 l 2,2 v 4 l -3,1 -2,-2 1,-1 -4,-2 -5,4 1,2 -2,2 2,3 -2,-1 -7,2 -2,3 -10,7 v 4 h 9 l -1,6 5,-4 3,3 v 3 l 5,3 v 5 l -3,1 v 2 l 7,11 h 5 l 2,2 4,10 4,-2 1,-3 8,-6 3,1 4,-3 z"
     id="341800" />
</svg>
