<?xml version="1.0" encoding="UTF-8" standalone="no"?>
<svg
   pointer-events="none"
   class="leaflet-zoom-animated"
   width="1135"
   height="626"
   viewBox="-95 -52 1135 626"
   style="transform: translate3d(-95px, -52px, 0px);"
   version="1.1"
   id="svg1"
   sodipodi:docname="山东省.svg"
   inkscape:version="1.4 (86a8ad7, 2024-10-11)"
   xmlns:inkscape="http://www.inkscape.org/namespaces/inkscape"
   xmlns:sodipodi="http://sodipodi.sourceforge.net/DTD/sodipodi-0.dtd"
   xmlns="http://www.w3.org/2000/svg"
   xmlns:svg="http://www.w3.org/2000/svg">
  <defs
     id="defs1" />
  <sodipodi:namedview
     id="namedview1"
     pagecolor="#ffffff"
     bordercolor="#000000"
     borderopacity="0.25"
     inkscape:showpageshadow="2"
     inkscape:pageopacity="0.0"
     inkscape:pagecheckerboard="0"
     inkscape:deskcolor="#d1d1d1"
     inkscape:zoom="2.0281938"
     inkscape:cx="567.25348"
     inkscape:cy="332.5619"
     inkscape:window-width="1920"
     inkscape:window-height="991"
     inkscape:window-x="-9"
     inkscape:window-y="1341"
     inkscape:window-maximized="1"
     inkscape:current-layer="svg1" />
  <path
     class="leaflet-interactive"
     stroke="#000000"
     stroke-opacity="1"
     stroke-width="2"
     stroke-linecap="round"
     stroke-linejoin="round"
     fill="#ffffff"
     fill-opacity="0.2"
     fill-rule="evenodd"
     d="m 372,434 2,-3 11,-2 v -2 l 11,2 1,-4 1,3 h 3 l 1,2 3,1 v 2 h 3 l -3,1 3,3 -2,1 3,4 5,2 v 6 h 2 l 3,6 1,10 2,1 3,-2 1,1 v -4 l 1,-3 h 2 v -3 l 1,1 4,-2 7,10 h 7 l 6,-5 v -2 l 7,2 v -10 l 7,1 v -2 l 3,-1 3,2 h 7 v 5 l -2,1 3,2 h 4 l -1,4 h -2 l 3,6 -1,3 1,-1 1,2 1,-3 1,1 4,-2 5,1 4,-6 -1,-8 1,-3 1,1 2,-2 -1,-3 1,1 3,-4 h 5 v 2 l 5,1 6,-3 -4,-4 h 2 l -1,-2 3,-1 -1,-3 h 3 l 5,-15 15,-2 1,-3 7,-2 4,2 v 2 h 5 l 1,-3 h 2 l -2,-4 3,-10 4,-3 2,2 v -4 h 3 v -4 l 5,-15 6,-2 v 2 l 3,1 -1,-3 2,-2 3,3 4,-3 -1,-1 3,-5 -2,-3 h 2 l 3,3 3,-5 -1,-3 2,-4 9,-6 -2,5 2,-1 v -2 l 4,-4 h 2 l 1,-2 -2,-2 v 2 l -2,1 -1,-3 -2,2 2,-5 h -3 l -5,-3 4,-9 4,2 h 5 v -4 l 3,3 1,2 -2,1 -4,8 1,1 h 6 l 6,-4 h 7 l 5,-3 2,1 1,-1 -2,-4 v -8 l -2,1 v -4 h 5 v -2 l -3,-3 5,-5 -1,-1 5,-1 3,8 3,-4 -1,-2 4,-2 v -7 h -2 l -6,-5 h 4 l 3,4 h 4 l 10,-7 2,1 5,-4 8,-1 -1,-2 4,-1 7,-7 1,1 -6,3 4,4 h 2 v -3 l 5,4 -1,-6 2,-2 5,-1 1,-3 15,-7 2,1 1,6 v -2 l 3,-1 1,-3 h 2 l 1,1 -2,3 h 3 l 2,2 -1,1 4,2 9,-1 v -2 l 1,1 4,-2 -2,-2 h 4 v 2 l 2,-1 2,-2 v -7 l 2,-4 -5,2 -3,-1 1,-6 4,-3 3,1 -1,-3 4,-1 -4,-7 5,-9 h 5 l -3,-3 h -5 l -3,2 -4,-2 h -14 l 1,-2 -2,-1 -5,2 -3,-5 3,-3 -4,-2 h -3 v 2 l -12,6 h -9 l -6,-2 -5,2 v 2 l -8,-5 1,-2 -3,-2 -2,-4 2,1 v -2 l -4,-2 v 2 l -3,2 h -8 l -3,-6 1,-5 -5,1 -4,-2 -5,-4 v -3 l -12,-1 -11,6 h -6 l -9,6 -8,-1 v 2 l 3,1 v 2 l -4,2 v 2 l 3,3 -7,6 -12,5 -1,2 -7,2 4,8 h -2 v 3 h -2 l -6,8 -4,-2 -12,2 -1,-2 1,1 -4,2 h -7 l -2,-3 v -4 l -4,-1 -2,2 1,-6 -5,3 v -3 l 2,-2 h -2 v 2 l -3,2 -2,-1 v -2 l -5,-6 2,-1 -2,-1 -3,-12 4,-8 17,-3 3,-8 -1,-9 -2,-1 -3,4 -5,1 -1,-6 -7,-8 -2,-8 -7,-5 -16,1 -4,7 -5,-6 h -2 l -1,2 -3,-2 -1,1 -10,-2 -3,-4 -4,-2 -5,1 -9,-6 v -2 l -5,6 -2,4 1,1 h -2 l -4,7 -10,2 1,1 -3,4 v 4 l -2,1 -4,7 h -41 l -2,6 -5,4 -3,6 -12,12 v 2 l -5,-5 1,-1 -4,-2 -2,2 -1,6 h -3 v 4 h 3 v 2 l -3,3 -9,-1 -2,2 h -4 l 1,1 h -2 l -1,4 1,3 -2,3 -3,1 1,2 -2,2 v 4 l -7,9 1,3 -6,7 -1,5 -7,3 -1,-1 -2,2 -1,-1 -11,13 1,1 -3,6 -1,-1 v 2 l -2,1 3,3 -1,4 h 2 l 1,4 2,1 -1,2 h 4 l 4,8 v 7 l -3,6 1,4 -6,3 1,4 -3,10 2,1 3,-2 7,-8 -1,1 9,-2 4,-4 h 4 l 4,-3 11,-3 4,-5 h 3 l -4,11 -8,1 -1,3 h -2 l 1,3 -3,3 -4,-1 -1,2 h -2 l -2,2 v 3 l -12,3 -8,11 v 2 l -3,1 v 5 l -7,5 h -4 l -3,2 -2,-1 v 2 l -4,2 -1,4 -6,5 1,4 -6,2 2,6 -4,4 3,1 -2,2 2,1 1,-2 v 2 l 3,2 h 6 l 7,-3 v 2 l 5,3 1,-1 -1,3 3,2 v 4 l 4,-1 7,3 2,6 v 7 l 7,7 5,-1 3,2 1,-4 10,3 6,-1 3,-3 3,2 3,-2 4,5 3,-2 2,2 4,-5 1,1 4,-2 2,-6 -2,-4 h 2 v -5 z M 743,223 h 2 z m 5,60 h 1 z m -48,-64 1,-1 z m -50,-32 -1,1 2,3 1,-3 -2,-2 z m -3,-3 3,2 -3,-3 z m -2,0 v 1 z m 53,101 h 1 z m -66,-84 1,-1 -2,1 z m 8,135 h 1 z m 26,-25 -1,-2 -1,1 h 2 z m 1,-6 h -1 z m -8,47 h 1 z M 647,188 h -1 z m -61,188 v -1 z m 65,-206 h 2 v -2 l -2,-1 -1,2 z m 11,-16 v -2 l -2,1 1,1 z m -49,208 v 2 h 2 l -1,-3 z m 44,-207 v -2 z m 4,-4 h 2 z m -18,36 v -3 h -2 l 1,2 z m 11,-28 3,-2 -1,-1 z m 53,128 v -2 z M 663,181 v -1 z m -10,144 v 1 z m -62,-86 v -1 z m 101,83 1,1 z m 70,-94 1,-1 z M 644,172 v -1 z m 15,8 v 1 z m -15,-2 1,-1 z m -331,174 -1,1 z"
     id="山东省" />
  <path
     class="leaflet-interactive"
     stroke="#333333"
     stroke-opacity="1"
     stroke-width="1"
     stroke-linecap="round"
     stroke-linejoin="round"
     stroke-dasharray="1, 6"
     fill="#eeeeee"
     fill-opacity="0.5"
     fill-rule="evenodd"
     d="m 380,311 -4,6 -5,1 -6,4 -5,7 4,12 6,-5 3,3 v 2 l 7,-3 2,-4 -3,-1 -1,-5 h -2 l 3,-5 h 4 l 2,-3 4,2 7,-3 3,1 2,3 4,-1 3,2 7,-5 v -3 h 6 l 2,-5 h 2 l 3,-5 3,1 1,7 3,3 v 10 l 2,-1 4,5 -3,3 1,3 5,-2 1,2 13,5 v 2 l 8,-2 h 3 l 2,2 v -7 l -3,-4 v -3 l 2,-3 h 2 v -5 h -2 v -5 h -3 l -4,-9 h -5 v -5 l -4,-5 h 2 l -2,-3 h 2 l -2,-5 4,-6 -4,-1 -7,-7 -1,-6 -2,-1 2,-2 -2,-2 -1,2 -3,-1 -5,2 -2,-4 -3,-2 1,-3 8,-4 v -3 l -3,-6 2,-4 -2,-7 -3,-3 v -4 l -5,-3 2,-1 -3,-3 -11,5 v 2 h -4 l -2,2 1,1 -2,7 1,3 2,1 v 6 l 2,1 -1,4 -9,4 2,4 -4,3 1,3 h 2 v 2 l 2,1 v 6 l -6,3 1,6 -5,2 -4,7 -5,4 v 2 l -4,2 1,1 -2,2 2,1 v 4 l -2,1 z"
     id="370100" />
  <path
     class="leaflet-interactive"
     stroke="#333333"
     stroke-opacity="1"
     stroke-width="1"
     stroke-linecap="round"
     stroke-linejoin="round"
     stroke-dasharray="1, 6"
     fill="#eeeeee"
     fill-opacity="0.5"
     fill-rule="evenodd"
     d="m 657,295 -4,2 -1,-2 -3,-1 -5,4 1,-6 -7,-9 v -2 l 3,-1 1,-3 -2,-4 3,-1 -4,-4 3,-8 -5,-1 v -7 l -9,4 -1,-1 -2,2 -4,-4 h -3 l -2,8 -10,1 -1,2 -4,-2 -3,2 -10,-1 -3,2 v -2 l -3,1 -3,-2 -3,6 1,7 -4,5 1,6 5,7 6,4 v 2 l 1,-1 11,4 1,2 2,-2 3,1 1,3 -4,2 -4,10 -4,3 -2,4 2,4 -5,2 -5,-2 -2,4 1,2 -2,1 v 2 l 6,2 -3,3 v 2 l 4,9 -8,4 -2,5 3,3 h -7 l 1,9 3,2 v -2 l 5,1 6,-2 v 2 l 3,1 -1,-3 2,-2 3,3 4,-3 -1,-1 3,-5 -2,-3 h 2 l 3,3 3,-5 -1,-3 2,-4 9,-6 -2,5 2,-1 v -2 l 4,-4 h 2 l 1,-2 -2,-2 v 2 l -2,1 -1,-3 -2,2 2,-5 h -3 l -5,-3 4,-9 4,2 h 5 v -4 l 3,3 1,2 -2,1 -4,8 1,1 h 6 l 6,-4 h 7 l 5,-3 2,1 1,-1 -2,-4 v -8 l -2,1 v -4 h 5 v -2 l -3,-3 5,-5 -1,-1 5,-1 3,8 3,-4 -1,-2 4,-2 v -7 l -7,-4 z m -17,41 h 1 z m 26,-25 -1,-2 -1,1 h 2 z m 1,-6 h -1 z m -8,47 h 1 z m -73,24 v -1 z m 27,-14 v 2 h 2 l -1,-3 z m 40,-37 v 1 z"
     id="370200" />
  <path
     class="leaflet-interactive"
     stroke="#333333"
     stroke-opacity="1"
     stroke-width="1"
     stroke-linecap="round"
     stroke-linejoin="round"
     stroke-dasharray="1, 6"
     fill="#eeeeee"
     fill-opacity="0.5"
     fill-rule="evenodd"
     d="m 473,348 h 2 l 6,-7 6,2 -1,3 5,4 10,-6 3,3 3,-1 -2,-1 1,-1 -2,-2 4,-2 -5,-8 -2,2 -1,-1 -2,-5 1,-3 -2,-2 -3,1 v -6 l -3,-1 -2,-3 1,-2 -2,-10 -3,-5 3,-3 -1,-1 2,-2 v -3 l 1,1 -1,-3 h 2 v -2 l 3,-2 7,-2 2,-5 h 2 l 1,-7 h -6 l -1,-2 -3,1 -3,-1 v -2 l -2,-1 -3,4 -4,-2 v -7 l -2,-2 h -5 l 2,-2 v -6 l -2,-2 -4,1 v -5 l -11,-1 -2,3 -9,-2 -3,5 v 3 l -3,2 2,4 6,2 h 11 v 3 l 2,2 -1,1 3,1 2,5 h 2 l -6,5 h -3 l -1,5 3,4 -3,-1 -2,5 h -4 l -2,2 2,4 v 4 h -2 l 5,5 h -2 l 2,5 h 4 l 4,9 h 3 l -1,5 h 3 v 4 l -3,2 -1,4 3,5 -1,8 4,1 -1,1 z"
     id="370300" />
  <path
     class="leaflet-interactive"
     stroke="#333333"
     stroke-opacity="1"
     stroke-width="1"
     stroke-linecap="round"
     stroke-linejoin="round"
     stroke-dasharray="1, 6"
     fill="#eeeeee"
     fill-opacity="0.5"
     fill-rule="evenodd"
     d="m 435,456 6,9 h 7 l 6,-5 v -2 l 7,2 v -10 l 1,1 1,-9 -3,-2 1,-4 -6,-6 1,-8 2,-1 -3,-1 -3,-3 v -2 l -5,-5 h -2 l -4,-5 h -3 l 1,-2 -6,-5 h -3 v 2 l -2,-1 -1,3 h -3 l -5,3 h -8 l -4,4 h -3 l -1,-2 -3,3 -1,-2 -2,1 3,6 h 2 v 3 l 5,4 -1,3 3,3 2,-1 2,2 h 4 l 1,4 4,4 -2,3 h 2 l 4,5 h 4 l 1,3 5,4 -1,3 z"
     id="370400" />
  <path
     class="leaflet-interactive"
     stroke="#333333"
     stroke-opacity="1"
     stroke-width="1"
     stroke-linecap="round"
     stroke-linejoin="round"
     stroke-dasharray="1, 6"
     fill="#eeeeee"
     fill-opacity="0.5"
     fill-rule="evenodd"
     d="m 490,171 -1,7 h 11 l 1,2 -13,2 2,9 -1,1 2,3 2,-2 4,4 v 6 l -1,2 h -2 l 1,1 -4,5 -6,-1 -1,5 -2,2 3,1 -4,10 4,2 -2,2 1,1 h 7 l 1,2 h 2 v 3 l 4,4 -2,3 3,4 -1,3 h -2 v 6 l -3,5 v 3 h 6 v 2 l 6,-1 4,2 1,-5 h 2 v -2 h -3 l 1,-2 7,-4 -1,-8 2,-3 9,-5 14,-1 -4,-4 2,-1 -2,-1 -3,-12 4,-8 17,-3 3,-8 v -7 l -3,-3 -3,4 -5,1 -1,-6 -7,-8 -2,-8 -7,-5 -16,1 -4,7 -5,-6 h -2 l -1,2 -3,-2 -1,1 -6,-2 z m 10,7 -11,1 -1,3 12,-2 z"
     id="370500" />
  <path
     class="leaflet-interactive"
     stroke="#333333"
     stroke-opacity="1"
     stroke-width="1"
     stroke-linecap="round"
     stroke-linejoin="round"
     stroke-dasharray="1, 6"
     fill="#eeeeee"
     fill-opacity="0.5"
     fill-rule="evenodd"
     d="m 575,253 -1,5 4,3 v 2 h 7 v 2 l 5,-2 h 23 l 1,-2 h 2 l 2,-8 h 3 l 4,4 2,-2 1,1 9,-4 v 7 l 5,1 v 4 l -3,1 1,5 3,1 -3,4 2,2 -4,4 v 2 l 3,4 -1,1 5,3 -1,7 4,-2 v -2 l 5,2 8,-2 3,4 h 4 l 10,-7 2,1 5,-4 8,-1 -1,-2 6,-3 -4,-2 -1,1 v -2 l -3,-3 v -6 l -3,1 -4,-2 v -2 l -4,-3 v -6 l 8,-6 3,1 2,3 h 3 l 1,-2 8,1 1,-3 5,3 1,-3 3,2 3,-4 -2,-6 h 2 l 1,-4 5,-4 v -2 l 3,-3 1,-6 -12,1 -6,-2 -5,2 v 2 l -8,-5 1,-2 -3,-2 -2,-4 2,1 v -2 l -4,-2 v 2 l -3,2 h -8 l -3,-6 1,-5 -5,1 -4,-2 -5,-4 v -3 l -12,-1 -11,6 h -6 l -9,6 -8,-1 v 2 l 3,1 v 2 l -4,2 v 2 l 3,3 -7,6 -12,5 -1,2 -6,1 -1,3 4,4 v 2 h -2 v 3 h -2 l -6,8 -4,-2 -3,1 z m 125,-34 1,-1 z m -50,-32 -1,1 2,3 1,-3 -2,-2 z m -3,-3 3,2 -3,-3 z m -2,0 v 1 z m -13,17 1,-1 -2,1 z m 15,-13 h -1 z m 4,-18 h 2 v -2 l -2,-1 -1,2 z m 11,-16 v -2 l -2,1 1,1 z m -5,1 v -2 z m 4,-4 h 2 z m -18,36 v -3 h -2 l 1,2 z m 11,-28 3,-2 -1,-1 z m 9,22 v -1 z m -72,58 v -1 z m 101,83 1,1 z M 644,172 v -1 z m 15,8 v 1 z m -15,-2 1,-1 z"
     id="370600" />
  <path
     class="leaflet-interactive"
     stroke="#333333"
     stroke-opacity="1"
     stroke-width="1"
     stroke-linecap="round"
     stroke-linejoin="round"
     stroke-dasharray="1, 6"
     fill="#eeeeee"
     fill-opacity="0.5"
     fill-rule="evenodd"
     d="m 507,338 1,-3 h -2 l 5,-4 5,-1 5,2 2,-5 5,1 2,5 -1,2 2,2 4,-3 8,3 -2,2 1,2 -3,2 1,3 2,-1 1,2 7,-1 v 4 l -3,2 h 14 l 1,10 6,-3 4,6 7,2 -3,-4 3,-6 7,-3 -4,-9 v -2 l 3,-3 -6,-2 v -2 h 2 v -5 h 8 l 3,-2 -2,-4 2,-4 4,-3 3,-6 v -4 h 4 l 1,-2 -1,-3 -3,-1 -2,2 v -2 l -12,-4 -1,1 v -2 l -5,-3 -6,-8 -1,-5 1,-2 1,1 2,-5 -1,-7 2,-5 v -2 l -4,-3 1,-5 h -5 l -1,-2 1,1 -4,2 h -7 l -2,-3 v -4 l -4,-1 -2,2 1,-6 -5,3 v -3 l 2,-2 h -2 v 2 l -3,2 -3,-4 h -14 l -10,6 -2,4 2,2 v 4 l -8,5 3,2 -2,1 v 4 h -6 2 l -2,7 1,1 -1,-1 -2,4 -5,3 -3,-1 -2,5 h -3 l 1,3 h -2 v 5 l -3,3 1,3 2,1 v 10 h 2 v 4 l 4,3 v 6 l 3,-1 2,2 -1,3 2,5 1,1 2,-2 3,2 v 4 z"
     id="370700" />
  <path
     class="leaflet-interactive"
     stroke="#333333"
     stroke-opacity="1"
     stroke-width="1"
     stroke-linecap="round"
     stroke-linejoin="round"
     stroke-dasharray="1, 6"
     fill="#eeeeee"
     fill-opacity="0.5"
     fill-rule="evenodd"
     d="m 372,434 2,-3 11,-2 v -2 l 11,2 1,-4 1,3 h 3 l 1,2 3,1 v 2 h 3 l -3,1 3,3 -2,1 3,4 5,2 v 6 h 2 l 3,6 1,10 h 6 v -4 l 1,-3 h 2 v -3 h 6 l 1,-3 -2,-1 -4,-7 h -4 l -4,-5 h -2 l 2,-3 -3,-2 -3,-7 -4,1 -1,-2 h -3 l -1,-6 -7,-6 -2,-6 1,-1 1,2 3,-3 3,2 7,-4 h 5 l 5,-3 h 4 l 1,-3 1,1 3,-2 5,3 2,-1 1,-2 -2,-3 2,-4 -3,-4 3,-5 1,1 2,-2 v -2 l 1,1 4,-2 -1,-7 -4,-3 1,-1 h -3 l -5,-5 -6,-2 -4,2 h -8 l 1,-1 -4,-2 h -5 l -6,9 -1,-1 -2,2 -3,-2 -3,2 v -2 h -9 v -5 l 2,1 2,-3 -5,-5 v -2 h 2 l 2,-3 -1,-2 -4,2 -4,6 -1,-1 -7,5 -2,-1 -5,3 -4,-4 -2,-6 -3,-1 -1,2 -7,-5 1,-3 -9,2 -1,3 h -2 v 7 l 1,2 4,1 8,6 3,4 v 14 l 2,4 4,-2 -1,1 2,7 -2,2 v 3 l 2,3 2,-1 2,3 -1,4 -3,-2 -1,1 v 4 l -5,5 -1,5 3,4 -1,2 12,7 2,-1 z"
     id="370800" />
  <path
     class="leaflet-interactive"
     stroke="#333333"
     stroke-opacity="1"
     stroke-width="1"
     stroke-linecap="round"
     stroke-linejoin="round"
     stroke-dasharray="1, 6"
     fill="#eeeeee"
     fill-opacity="0.5"
     fill-rule="evenodd"
     d="m 470,344 -3,-2 -9,2 -1,-3 -5,-1 -6,-3 -1,-2 -5,2 -2,-1 2,-5 -2,-2 v -3 h -3 l 1,-4 -4,-8 v -7 l -3,-1 -4,5 h -2 v 2 l -3,3 h -5 l -1,4 -5,4 -8,-1 -1,-3 -4,-1 -7,3 -4,-2 -2,3 h -4 l -3,4 2,1 v 4 l 4,2 -2,4 -6,1 -1,2 v -2 l -3,-3 -6,5 -4,-11 h -4 v 2 l -3,1 -3,9 -1,-1 -1,7 h 2 l 5,5 5,-1 v 3 l 5,5 v 2 l 3,-2 h 4 l 7,-5 1,1 1,-4 7,-4 1,2 -2,3 h -2 v 2 l 5,5 -2,3 h -3 v 4 l 5,-1 5,1 v 2 h 2 l 1,-2 3,2 6,-4 -1,-1 4,-5 h 5 l 4,3 h 7 l 6,-2 1,2 10,5 5,6 2,-6 5,-2 2,2 6,-3 v -6 l 3,-5 4,1 3,-2 1,-6 -3,1 -1,-2 z"
     id="370900" />
  <path
     class="leaflet-interactive"
     stroke="#333333"
     stroke-opacity="1"
     stroke-width="1"
     stroke-linecap="round"
     stroke-linejoin="round"
     stroke-dasharray="1, 6"
     fill="#eeeeee"
     fill-opacity="0.5"
     fill-rule="evenodd"
     d="m 727,225 -4,11 -3,3 h -2 v 3 l -3,4 2,4 -3,4 -3,-2 -1,3 -5,-3 -1,3 -7,-1 -2,2 h -3 l -2,-3 -3,-1 -8,6 v 6 l 4,3 v 2 l 8,2 1,3 -2,1 3,6 1,-1 4,2 5,-5 1,1 -6,3 4,4 h 2 v -3 l 5,4 -1,-6 2,-2 5,-1 1,-3 15,-7 2,1 1,6 v -2 l 3,-1 1,-3 h 2 l 1,1 -2,3 h 3 l 2,2 -1,1 4,2 9,-1 v -2 l 1,1 4,-2 -2,-2 h 4 v 2 l 4,-3 v -7 l 2,-4 -5,2 -3,-1 1,-6 4,-3 3,1 -1,-3 4,-1 -4,-7 5,-9 h 5 l -3,-3 h -5 l -3,2 -4,-2 h -14 l 1,-2 -2,-1 -5,2 -3,-5 3,-3 -4,-2 h -3 v 2 l -7,4 z m 16,-2 h 2 z m 5,60 h 1 z m -50,2 h 1 z m 9,2 v -2 z m 55,-59 1,-1 z"
     id="371000" />
  <path
     class="leaflet-interactive"
     stroke="#333333"
     stroke-opacity="1"
     stroke-width="1"
     stroke-linecap="round"
     stroke-linejoin="round"
     stroke-dasharray="1, 6"
     fill="#eeeeee"
     fill-opacity="0.5"
     fill-rule="evenodd"
     d="m 581,376 -5,-1 v 2 l -4,-3 v -8 l -2,-6 -4,-1 -3,3 -2,-10 h -14 l 3,-5 h -6 l -2,-2 -2,1 -1,-5 -3,2 h -4 l -1,4 -5,1 v 2 h -2 l -1,5 -3,2 1,1 -2,2 v 4 l 7,2 -4,6 v 5 l -3,4 2,5 -7,1 1,2 -2,1 v 2 l 1,2 h 14 l 2,-2 v 2 l 3,1 1,2 4,-2 v -3 h 2 l 5,5 2,-1 v 2 l 2,1 -1,1 h 2 v 4 l -3,3 2,5 h 2 v 2 l 3,-1 4,2 v 2 h 5 l 1,-3 h 2 l -2,-4 3,-10 4,-3 2,2 v -4 h 3 v -4 l 5,-13 z"
     id="371100" />
  <path
     class="leaflet-interactive"
     stroke="#333333"
     stroke-opacity="1"
     stroke-width="1"
     stroke-linecap="round"
     stroke-linejoin="round"
     stroke-dasharray="1, 6"
     fill="#eeeeee"
     fill-opacity="0.5"
     fill-rule="evenodd"
     d="m 551,414 v -2 h -2 l 1,-2 -3,-3 h 2 l 1,-2 v -5 h -2 v -4 l -3,1 -5,-5 h -2 l -1,4 -3,1 -4,-3 v -2 l -2,2 h -13 l -2,-4 h 2 l -1,-3 7,-1 -2,-4 7,-16 -7,-2 v -4 l 2,-2 -1,-1 3,-2 1,-5 h 2 v -2 l 5,-1 1,-4 10,-2 -1,-1 2,-3 h -2 l -1,-2 h -7 l -2,2 -2,-2 -1,-7 -5,-1 -2,5 -6,-2 -8,5 1,4 -1,3 h -2 l 1,4 -2,1 -3,-3 -8,5 h -4 l -3,-3 1,-3 -6,-2 -8,7 1,1 -3,5 h -6 v 2 l -2,1 1,7 -6,3 -3,-2 -5,2 -3,9 1,2 -4,2 -1,-1 v 2 l -2,2 -1,-1 -3,5 3,3 -2,4 v 3 l 2,1 -3,4 2,1 -1,2 6,2 1,3 h 2 l 5,5 v 2 l 6,4 -3,9 6,6 -1,3 3,3 -1,9 h 6 v -2 l 3,-1 3,2 h 7 v 5 l -2,1 3,2 h 4 l -3,6 3,4 -1,3 1,-1 1,2 1,-3 h 10 l 2,-2 2,-4 v -11 l 1,1 2,-2 -1,-3 1,1 3,-4 h 5 v 2 l 5,1 6,-3 -4,-4 h 2 l -1,-2 3,-1 -1,-3 h 3 l 5,-15 15,-2 3,-4 z"
     id="371300" />
  <path
     class="leaflet-interactive"
     stroke="#333333"
     stroke-opacity="1"
     stroke-width="1"
     stroke-linecap="round"
     stroke-linejoin="round"
     stroke-dasharray="1, 6"
     fill="#eeeeee"
     fill-opacity="0.5"
     fill-rule="evenodd"
     d="m 427,221 5,-15 1,5 3,-2 4,2 2,-3 3,-1 v -4 l -2,-1 6,-7 -5,-5 v -2 l 2,-1 -1,-5 -2,1 v 4 l -2,1 -4,7 h -41 l -2,6 -5,4 -3,6 -12,12 v 2 l -5,-5 1,-1 -4,-2 -2,2 -1,6 h -3 v 4 h 3 v 2 l -3,3 -9,-1 -2,2 -5,1 v 7 l -2,3 -3,1 1,2 -2,2 v 4 l -7,9 1,3 -2,3 h 5 l 2,2 v -2 l 5,3 h 10 l 4,-3 1,-3 h 2 l 1,-5 7,4 h 6 l 3,2 -2,1 v 2 h -2 v 8 l -3,1 h 2 l -1,6 2,4 -1,11 5,7 1,-1 2,3 h 2 l -1,1 5,-1 -1,-5 2,-2 -2,-1 4,-2 v -2 l 2,-3 4,-2 2,-5 6,-4 v -7 l 2,1 2,-1 -1,-1 h 2 v -6 h -2 l -3,-6 4,-3 -2,-4 5,-3 h 4 l 1,-4 -3,-4 1,-4 -3,-4 2,-7 -1,-1 1,-2 h 4 l 2,-3 h 3 l 6,-4 z"
     id="371400" />
  <path
     class="leaflet-interactive"
     stroke="#333333"
     stroke-opacity="1"
     stroke-width="1"
     stroke-linecap="round"
     stroke-linejoin="round"
     stroke-dasharray="1, 6"
     fill="#eeeeee"
     fill-opacity="0.5"
     fill-rule="evenodd"
     d="m 380,311 1,-1 h -2 l -2,-3 -1,1 -5,-7 1,-11 -2,-4 1,-6 h -2 l 3,-1 v -8 l 2,1 1,-4 -2,-2 h -7 l -6,-5 -1,5 -7,7 h -10 l -4,-3 -1,2 -2,-2 h -5 l -4,4 -1,5 -7,3 -1,-1 -2,2 -1,-1 -3,3 -8,10 1,1 -3,6 -1,-1 v 2 l -2,1 3,3 -1,4 h 2 l 1,4 2,1 -1,2 h 4 l 4,8 v 7 l -3,6 1,4 -6,3 1,4 -3,10 2,1 3,-2 7,-8 -1,1 9,-2 4,-4 h 4 l 4,-3 11,-3 4,-5 h 3 l 4,-3 v -2 h 3 l 7,-9 10,-4 3,-4 z m -67,41 -1,1 z"
     id="371500" />
  <path
     class="leaflet-interactive"
     stroke="#333333"
     stroke-opacity="1"
     stroke-width="1"
     stroke-linecap="round"
     stroke-linejoin="round"
     stroke-dasharray="1, 6"
     fill="#eeeeee"
     fill-opacity="0.5"
     fill-rule="evenodd"
     d="m 427,221 3,3 -2,1 5,3 v 4 l 3,2 2,9 -2,3 3,6 -1,4 -7,2 -1,3 5,7 6,-2 2,1 1,-2 2,2 -2,2 2,1 3,8 5,5 4,1 -2,3 4,1 2,-5 3,1 -3,-3 1,-6 6,-1 v -2 h 2 l 1,-2 -4,-3 v -2 l -3,-1 1,-1 -2,-2 v -3 h -11 l -3,-2 -2,1 -2,-2 1,-1 -2,-2 3,-2 v -3 l 3,-5 6,2 h 2 l 3,-3 11,1 v 5 h 6 v 7 l -2,2 h 5 l 2,2 -1,5 5,4 2,-4 3,1 3,-5 v -7 h 2 l 1,-3 -3,-4 2,-4 -3,-1 -1,-5 -4,-2 -6,1 v -6 h -3 l 4,-9 h -2 l 2,-8 h 6 l 6,-9 v -5 l -2,-3 -2,-1 -2,2 -2,-3 1,-1 -2,-9 2,-11 h -2 l -3,-4 -4,-2 h -7 l -7,-5 v -2 l -5,6 -2,4 1,1 h -2 l -4,7 -10,2 1,1 -2,3 2,1 v 3 l -2,4 5,5 -5,7 1,5 -3,1 -2,3 -1,-2 h -3 l -2,2 -2,-5 -4,14 z m 73,-41 v -2 z"
     id="371600" />
  <path
     class="leaflet-interactive"
     stroke="#333333"
     stroke-opacity="1"
     stroke-width="1"
     stroke-linecap="round"
     stroke-linejoin="round"
     stroke-dasharray="1, 6"
     fill="#eeeeee"
     fill-opacity="0.5"
     fill-rule="evenodd"
     d="m 337,354 -2,2 -4,-1 -5,4 v 3 l -4,2 -8,1 -8,11 v 2 l -3,1 v 5 l -7,5 h -4 l -3,2 -2,-1 v 2 l -4,2 -1,4 -6,5 1,4 -6,2 2,6 -4,4 3,1 -2,2 2,1 1,-2 v 2 l 3,2 h 6 l 7,-3 v 2 l 5,3 1,-1 -1,3 3,2 v 4 l 4,-1 7,3 2,6 v 7 l 7,7 5,-1 3,2 1,-4 10,3 6,-1 3,-3 3,2 3,-2 4,5 3,-2 2,2 4,-5 1,1 4,-2 2,-6 -2,-4 h 2 l 1,-8 h -5 l -9,-5 -5,-8 2,-7 h 2 l 3,-5 -1,-2 1,-1 3,2 1,-3 -1,-3 h -2 l -3,-3 v -3 l 2,-2 -2,-7 1,-1 -4,2 1,-2 -3,-2 v -14 l -7,-7 -9,-6 z"
     id="371700" />
</svg>
