<?xml version="1.0" encoding="UTF-8" standalone="no"?>
<svg
   pointer-events="none"
   class="leaflet-zoom-animated"
   width="1135"
   height="626"
   viewBox="-95 -52 1135 626"
   style="transform: translate3d(-95px, -52px, 0px);"
   version="1.1"
   id="svg1"
   sodipodi:docname="山西省.svg"
   inkscape:version="1.4 (86a8ad7, 2024-10-11)"
   xmlns:inkscape="http://www.inkscape.org/namespaces/inkscape"
   xmlns:sodipodi="http://sodipodi.sourceforge.net/DTD/sodipodi-0.dtd"
   xmlns="http://www.w3.org/2000/svg"
   xmlns:svg="http://www.w3.org/2000/svg">
  <defs
     id="defs1" />
  <sodipodi:namedview
     id="namedview1"
     pagecolor="#ffffff"
     bordercolor="#000000"
     borderopacity="0.25"
     inkscape:showpageshadow="2"
     inkscape:pageopacity="0.0"
     inkscape:pagecheckerboard="0"
     inkscape:deskcolor="#d1d1d1"
     inkscape:zoom="1.2412141"
     inkscape:cx="567.58945"
     inkscape:cy="313"
     inkscape:window-width="1920"
     inkscape:window-height="991"
     inkscape:window-x="-9"
     inkscape:window-y="1341"
     inkscape:window-maximized="1"
     inkscape:current-layer="svg1" />
  <path
     class="leaflet-interactive"
     stroke="#000000"
     stroke-opacity="1"
     stroke-width="2"
     stroke-linecap="round"
     stroke-linejoin="round"
     fill="#ffffff"
     fill-opacity="0.2"
     fill-rule="evenodd"
     d="m 440,424 2,5 -1,4 -3,3 -3,10 -4,5 -2,13 -4,7 1,14 7,2 3,-1 2,2 4,-2 4,1 2,-3 4,2 4,-6 2,1 7,-3 1,-3 4,1 5,-2 3,1 8,-2 2,-4 3,-2 -1,-2 7,-2 v -2 l 2,-1 h 5 l 3,2 v -8 l 2,-2 -1,-3 8,3 2,-1 v 2 l 5,-2 8,2 3,-3 4,4 5,-4 4,1 2,-3 1,1 1,-5 6,2 2,-6 2,-1 4,2 -1,-1 3,-1 2,-3 h 4 l 3,-8 3,1 -2,-9 4,-2 -1,-9 2,1 -1,-8 2,-1 -3,-2 h 3 l -1,-3 2,-9 -1,-2 -6,-2 -1,-4 2,-2 -3,-2 v -2 l -3,-1 2,-2 -2,-1 1,-2 8,-3 2,-5 2,2 1,-2 1,1 -2,-5 2,-3 -2,-4 1,-4 3,-1 3,-9 10,-16 1,-5 -4,-2 -3,1 v -2 l 2,-1 -3,-3 v -4 l -3,-6 -2,-1 1,-2 -3,-4 v -3 l -3,-1 -2,-3 -1,1 -2,-2 h -3 l -2,-7 v -3 l 2,-2 -1,-7 2,-1 1,-4 h 4 v -3 h 2 l 2,-4 2,1 1,-3 -4,-5 v -6 l 3,-1 5,-5 h 2 l 1,-2 h 2 l 2,5 11,-2 2,-6 1,1 3,-3 -3,-2 1,-4 2,-1 1,-8 3,-4 v -2 l -6,-2 -2,-15 h -7 l -2,-1 1,-1 -7,-2 -1,1 -1,-5 -4,-1 2,-2 v -4 l 3,3 2,-1 1,-2 -2,-4 8,-1 v -2 l 8,-1 5,-3 v -2 l -3,-3 -2,2 -3,-1 -3,-4 v -10 l -3,-2 -3,-7 -3,2 -2,6 2,2 -1,3 h -4 l -4,4 h -2 l -2,-3 -13,11 -9,1 -3,-6 -12,3 -4,2 -2,7 -5,3 -13,-8 -7,2 v 3 l -3,3 -12,22 -2,11 -4,-1 -2,2 -13,-4 -4,3 v 5 l -3,3 v 3 h -7 l -4,2 2,1 v 2 l 1,-1 1,3 h 2 l -5,14 -2,2 h -3 l -2,3 1,8 -6,12 2,7 h -2 v 3 l -4,1 -5,8 -4,1 -1,5 -3,1 1,13 3,2 3,7 5,3 -3,2 4,2 -1,12 -5,2 -1,3 v 2 h 3 v 4 h -2 l -5,10 -5,5 -3,1 3,2 -1,4 -2,1 2,1 -1,6 h 2 l -1,1 2,1 -3,3 5,5 -2,24 5,22 z"
     id="山西省" />
  <path
     class="leaflet-interactive"
     stroke="#333333"
     stroke-opacity="1"
     stroke-width="1"
     stroke-linecap="round"
     stroke-linejoin="round"
     stroke-dasharray="1, 6"
     fill="#eeeeee"
     fill-opacity="0.5"
     fill-rule="evenodd"
     d="m 554,292 -7,-6 7,-9 4,-1 -2,-6 -5,5 -2,-1 -8,6 -7,1 1,1 -2,1 h -2 l -2,-4 -1,2 -9,-4 -3,3 v 7 h -5 l -1,-2 -4,-1 h -7 l -1,-3 -7,6 -5,2 -3,3 v 2 l 3,5 v 3 h 8 l 3,3 v 2 h 4 l 3,4 7,1 2,4 3,2 v 2 l 3,1 -1,1 2,2 h -2 l 3,2 1,-2 1,2 h 2 l 3,-1 v -2 l 6,-1 -2,-6 4,-6 -1,-2 2,-5 4,-1 -1,-4 3,-3 h 7 l 2,-2 -1,-1 h 2 z"
     id="140100" />
  <path
     class="leaflet-interactive"
     stroke="#333333"
     stroke-opacity="1"
     stroke-width="1"
     stroke-linecap="round"
     stroke-linejoin="round"
     stroke-dasharray="1, 6"
     fill="#eeeeee"
     fill-opacity="0.5"
     fill-rule="evenodd"
     d="m 577,211 15,4 3,5 -1,9 1,2 4,-2 2,5 11,-2 2,-6 1,1 3,-3 -3,-2 1,-4 2,-1 1,-8 3,-6 -6,-2 -2,-15 h -7 l -2,-1 1,-1 -7,-2 -1,1 -1,-5 -4,-1 2,-2 v -4 l 3,3 2,-1 1,-2 -2,-4 8,-1 v -2 l 8,-1 5,-3 v -2 l -3,-3 -2,2 -3,-1 -3,-4 v -10 l -3,-2 -3,-7 -3,2 -2,6 2,2 -1,3 h -4 l -4,4 h -2 l -2,-3 -13,11 -9,1 -3,-6 -16,5 -2,7 -5,3 -5,-4 -1,1 1,2 -2,1 v 4 h 2 v 4 l -2,11 2,5 1,1 2,-2 h 6 l -1,-1 7,-4 -1,-2 10,-1 3,-3 3,1 7,5 -5,3 v 2 l 3,2 -1,3 2,5 3,3 1,4 3,2 z"
     id="140200" />
  <path
     class="leaflet-interactive"
     stroke="#333333"
     stroke-opacity="1"
     stroke-width="1"
     stroke-linecap="round"
     stroke-linejoin="round"
     stroke-dasharray="1, 6"
     fill="#eeeeee"
     fill-opacity="0.5"
     fill-rule="evenodd"
     d="m 576,265 h -6 l -13,6 1,4 -4,2 -7,9 7,6 3,-2 1,2 3,-3 2,2 1,5 h 2 v 4 l 7,12 7,2 h 6 l 5,-2 4,1 3,-4 -3,-3 v -4 l -3,-6 -2,-1 1,-2 -3,-4 v -3 l -3,-1 -2,-3 h -5 l -2,-3 v -13 z"
     id="140300" />
  <path
     class="leaflet-interactive"
     stroke="#333333"
     stroke-opacity="1"
     stroke-width="1"
     stroke-linecap="round"
     stroke-linejoin="round"
     stroke-dasharray="1, 6"
     fill="#eeeeee"
     fill-opacity="0.5"
     fill-rule="evenodd"
     d="m 505,370 2,5 6,5 2,6 6,3 h 4 l 3,5 3,-1 v 9 l -3,2 v 3 l 6,-2 5,4 6,1 v 3 l 12,3 10,-1 1,3 h 2 l 1,-2 6,3 4,-1 -1,-9 2,1 -1,-8 2,-1 -3,-2 h 3 l -1,-3 2,-9 -1,-2 -6,-2 -1,-4 2,-2 -3,-2 v -2 l -3,-1 2,-2 -2,-1 1,-2 h 2 l -2,-4 -5,-4 -3,-6 -1,2 -3,1 -3,-1 v 2 l -7,-1 -3,3 h -2 l -1,-5 -4,-2 -3,-5 -3,-2 -3,3 -3,-3 h -2 v 4 l 3,4 -2,2 -1,-1 -1,2 h -6 l -2,-3 -5,-2 -5,3 1,4 -4,5 v 4 z"
     id="140400" />
  <path
     class="leaflet-interactive"
     stroke="#333333"
     stroke-opacity="1"
     stroke-width="1"
     stroke-linecap="round"
     stroke-linejoin="round"
     stroke-dasharray="1, 6"
     fill="#eeeeee"
     fill-opacity="0.5"
     fill-rule="evenodd"
     d="m 508,449 8,3 2,-1 v 2 l 5,-2 8,2 3,-3 4,4 5,-4 4,1 2,-3 1,1 1,-5 6,2 2,-6 2,-1 4,2 -1,-1 3,-1 2,-3 h 4 l 3,-8 3,1 -2,-6 1,-2 -3,-4 -4,-1 -1,2 h -2 l -1,-3 -10,1 -12,-3 v -3 l -6,-1 -5,-4 -5,2 v 3 l -6,5 h -7 l -2,-2 -2,3 3,1 -1,2 h -3 l -4,-3 1,6 -2,1 1,1 -4,5 v 7 l 1,5 3,2 -1,2 2,2 z"
     id="140500" />
  <path
     class="leaflet-interactive"
     stroke="#333333"
     stroke-opacity="1"
     stroke-width="1"
     stroke-linecap="round"
     stroke-linejoin="round"
     stroke-dasharray="1, 6"
     fill="#eeeeee"
     fill-opacity="0.5"
     fill-rule="evenodd"
     d="m 534,164 -8,-4 -7,2 v 3 l -12,19 -5,13 v 4 l 3,4 -4,1 v 3 l 4,1 4,12 2,-2 3,1 1,4 5,6 v -2 l 5,2 3,-3 6,4 7,-7 1,1 3,-2 2,-4 8,-5 3,4 h 10 l 6,-3 3,-5 -3,-3 -1,-4 -3,-2 -2,-4 1,-5 -3,-2 v -2 l 5,-3 -7,-5 -3,-1 -3,3 h -10 l 1,2 -2,3 -5,2 1,1 h -6 l -1,2 -2,-1 -2,-5 2,-11 -2,-8 h 2 z"
     id="140600" />
  <path
     class="leaflet-interactive"
     stroke="#333333"
     stroke-opacity="1"
     stroke-width="1"
     stroke-linecap="round"
     stroke-linejoin="round"
     stroke-dasharray="1, 6"
     fill="#eeeeee"
     fill-opacity="0.5"
     fill-rule="evenodd"
     d="m 575,367 6,-3 2,-5 2,2 1,-2 1,1 -2,-5 2,-3 -2,-4 1,-4 3,-1 3,-9 10,-16 1,-5 -4,-2 -12,3 -12,-1 -4,-3 -3,-8 -2,-1 v -4 l -2,-1 v -3 l -3,-4 -3,3 -1,-2 -5,2 -2,3 h -7 l -3,3 1,4 h -2 l -3,4 v 4 l -4,6 2,6 -6,1 v 2 l -3,1 h -2 v -2 l -3,3 h -2 l -6,10 -4,-3 -2,3 -3,1 -1,8 -2,3 -11,5 h -3 l -2,-2 -2,1 4,3 -7,6 2,3 1,-2 1,2 1,-1 1,3 5,5 v -3 l 4,-1 8,1 2,2 1,-8 2,-4 h 2 l -1,-5 7,-3 5,4 6,1 1,-2 h 3 l -4,-8 3,-1 3,3 3,-3 5,4 1,3 4,2 1,5 h 2 l 3,-3 7,1 v -2 h 6 v -2 l 4,4 -1,2 5,3 3,4 z"
     id="140700" />
  <path
     class="leaflet-interactive"
     stroke="#333333"
     stroke-opacity="1"
     stroke-width="1"
     stroke-linecap="round"
     stroke-linejoin="round"
     stroke-dasharray="1, 6"
     fill="#eeeeee"
     fill-opacity="0.5"
     fill-rule="evenodd"
     d="m 440,424 2,5 -1,4 -3,3 -3,10 -4,5 -2,13 -4,7 1,14 7,2 3,-1 2,2 4,-2 4,1 2,-3 4,2 4,-6 2,1 7,-3 1,-3 4,1 5,-2 3,1 8,-2 2,-4 3,-2 -1,-2 7,-2 v -2 l 2,-1 h 5 l 3,2 v -8 l 2,-2 -1,-5 -2,-2 1,-2 -3,-2 -1,2 -5,-1 v -2 l -1,1 2,-5 2,-1 -3,-1 1,-3 h -4 l -2,-2 -5,-1 -2,6 -7,-1 -6,2 v -7 l 3,-1 -1,-2 h -2 l -1,2 -4,-3 -2,-5 h -2 l -1,3 -3,2 -1,-4 -2,3 1,2 -2,1 -8,-3 -3,1 1,-2 -2,-1 -2,1 z"
     id="140800" />
  <path
     class="leaflet-interactive"
     stroke="#333333"
     stroke-opacity="1"
     stroke-width="1"
     stroke-linecap="round"
     stroke-linejoin="round"
     stroke-dasharray="1, 6"
     fill="#eeeeee"
     fill-opacity="0.5"
     fill-rule="evenodd"
     d="m 502,201 -4,-1 -2,2 -13,-4 -4,3 v 5 l -3,3 v 3 h -7 l -4,2 2,1 v 2 l 1,-1 1,3 h 2 l -5,14 -2,2 h -3 l -2,3 1,8 -3,6 v 3 l 4,2 8,-5 3,8 h 4 l 7,7 1,-3 1,1 6,-3 1,-2 2,1 1,3 -2,1 3,4 -1,1 3,6 -3,2 v 2 l 2,2 1,-1 1,3 2,-1 2,2 3,-1 4,1 1,2 h 4 l 2,-1 v -4 l -2,-2 3,-1 v -2 l 8,2 2,2 1,-1 2,1 v 2 l 4,-1 -1,-1 h 5 l 17,-11 4,1 10,-6 h 6 v -3 l 2,-1 1,-4 h 4 v -3 h 2 l 2,-4 2,1 1,-3 -4,-5 v -6 l 3,-1 5,-5 1,-11 -3,-4 -12,-5 h -3 l -3,5 -6,3 h -10 l -2,-4 -9,5 -2,4 -3,2 h -3 l -5,6 -6,-4 -3,3 -5,-2 v 2 l -2,-1 1,-1 -2,-3 h -2 l -1,-4 -3,-2 -2,2 -4,-12 -4,-1 v -2 l 4,-1 -2,-4 z"
     id="140900" />
  <path
     class="leaflet-interactive"
     stroke="#333333"
     stroke-opacity="1"
     stroke-width="1"
     stroke-linecap="round"
     stroke-linejoin="round"
     stroke-dasharray="1, 6"
     fill="#eeeeee"
     fill-opacity="0.5"
     fill-rule="evenodd"
     d="m 433,358 -2,1 2,1 -1,6 h 2 l -1,1 2,1 -3,3 5,5 -2,24 5,24 3,-3 2,1 v 2 l 3,-1 7,3 3,-1 -1,-2 2,-3 1,4 3,-2 1,-3 h 2 l 5,8 2,-2 h 2 l 1,2 -3,1 v 7 l 5,-2 8,1 1,-5 3,-1 5,3 h 4 l -1,3 3,1 -2,1 -2,5 1,-1 v 2 l 5,1 v -13 l 4,-6 -1,-1 2,-1 -1,-5 7,2 1,-1 -1,-2 h -2 v -2 l 2,-1 2,2 h 7 l 6,-4 -1,-6 3,-3 v -8 h -3 l -3,-5 h -4 l -6,-3 -2,-6 -6,-5 -1,-5 -2,1 -2,-2 -8,-1 -4,1 v 3 l -8,-9 v 2 l -3,-2 -5,3 1,1 h -5 l -1,-4 -6,-3 v -4 l -3,2 -1,-2 -1,2 -1,-1 -5,3 -8,-4 v 2 l -4,2 -6,-1 z"
     id="141000" />
  <path
     class="leaflet-interactive"
     stroke="#333333"
     stroke-opacity="1"
     stroke-width="1"
     stroke-linecap="round"
     stroke-linejoin="round"
     stroke-dasharray="1, 6"
     fill="#eeeeee"
     fill-opacity="0.5"
     fill-rule="evenodd"
     d="m 520,326 -2,-2 h 2 l -2,-4 h -2 v -2 l -6,-7 -8,-1 -1,-3 h -4 v -2 l -3,-2 h -8 l -1,-2 1,-1 -3,-8 14,-10 -2,-2 v -2 l 3,-1 -3,-7 1,-1 -3,-3 2,-2 -1,-3 -2,-1 -1,2 -6,3 -1,-1 -1,3 -3,-3 v -2 l -8,-2 -3,-8 -8,5 -4,-2 v -3 l -3,6 2,7 h -2 v 3 l -4,1 -5,8 -4,1 -1,5 -3,1 1,13 3,2 3,7 5,3 -3,2 4,2 v 7 l -1,5 -5,2 -1,3 v 2 h 3 v 4 h -2 l -5,10 -5,5 -3,1 3,2 -1,4 6,2 5,-2 v -2 h 3 l 5,4 5,-3 3,1 2,-2 2,1 -1,3 2,2 3,-1 2,6 h 5 l -1,-1 h 2 l 3,-3 v -2 l 7,-4 -4,-4 2,-1 5,3 5,-4 6,-2 2,-3 1,-8 7,-4 2,3 5,-9 3,-1 z"
     id="141100" />
</svg>
