<?xml version="1.0" encoding="UTF-8" standalone="no"?>
<svg
   pointer-events="none"
   class="leaflet-zoom-animated"
   width="1135"
   height="626"
   viewBox="-95 -52 1135 626"
   style="transform: translate3d(-95px, -52px, 0px);"
   version="1.1"
   id="svg1"
   sodipodi:docname="广东省.svg"
   inkscape:version="1.4 (86a8ad7, 2024-10-11)"
   xmlns:inkscape="http://www.inkscape.org/namespaces/inkscape"
   xmlns:sodipodi="http://sodipodi.sourceforge.net/DTD/sodipodi-0.dtd"
   xmlns="http://www.w3.org/2000/svg"
   xmlns:svg="http://www.w3.org/2000/svg">
  <defs
     id="defs1" />
  <sodipodi:namedview
     id="namedview1"
     pagecolor="#ffffff"
     bordercolor="#000000"
     borderopacity="0.25"
     inkscape:showpageshadow="2"
     inkscape:pageopacity="0.0"
     inkscape:pagecheckerboard="0"
     inkscape:deskcolor="#d1d1d1"
     inkscape:zoom="2.4824281"
     inkscape:cx="686.2233"
     inkscape:cy="336.96847"
     inkscape:window-width="1920"
     inkscape:window-height="991"
     inkscape:window-x="-9"
     inkscape:window-y="1341"
     inkscape:window-maximized="1"
     inkscape:current-layer="svg1" />
  <path
     class="leaflet-interactive"
     stroke="#000000"
     stroke-opacity="1"
     stroke-width="2"
     stroke-linecap="round"
     stroke-linejoin="round"
     fill="#ffffff"
     fill-opacity="0.2"
     fill-rule="evenodd"
     d="m 502,364 v 5 l 11,13 4,-3 1,-4 5,-1 4,-5 6,-2 -2,-7 4,-5 -1,-2 3,-4 2,-7 h -3 l -1,3 -2,-1 11,-8 -4,-13 1,-1 3,1 4,9 2,1 v 3 l 1,-1 1,2 1,5 5,-4 h 6 l 8,-4 4,2 1,-2 8,-3 3,1 3,4 v 5 l 2,2 7,-3 1,-2 -1,-3 -3,-1 v -3 l 2,-2 -1,-2 -4,1 12,-10 3,2 -2,8 2,5 8,-1 v 4 l 3,-2 1,-5 6,-5 -1,-1 3,-5 5,-1 2,2 1,-3 h 5 l -2,1 v 2 h 7 v 4 l 2,2 h 6 l 7,3 -1,-3 3,-3 -4,-1 3,-7 6,-1 4,2 3,2 1,5 3,-3 5,-2 1,1 4,-3 3,-1 2,2 6,-3 3,-4 5,-2 5,2 8,-1 4,-5 v -9 l 5,-1 5,-5 4,2 1,-1 1,-2 -2,-2 v -4 l 5,-6 v -3 l 2,-2 -1,-2 2,-2 6,2 4,-3 1,1 7,-2 v -5 l -7,-2 -4,-12 -1,-2 h -2 l -1,-3 2,-4 -3,-5 1,-2 h -2 v -5 l 4,-3 -2,-3 h -2 l 1,-4 -2,-1 v -4 l -5,-7 1,-3 h -2 l -4,-4 v -3 l 4,-4 -1,-3 h -2 l -1,2 h -10 l -5,4 -1,-7 -2,-2 -1,1 -6,-7 3,-2 -1,-3 -6,6 h -5 l 1,-1 -3,-3 v -2 l -4,3 -5,-2 -2,-3 -2,1 -8,-3 2,4 -3,1 1,-1 -3,-2 -1,3 h -2 l 1,1 -2,4 v 6 l 3,1 -3,2 6,7 -1,1 -4,-1 -2,2 h -4 l -1,-4 -7,-2 v -4 l -10,-8 -3,3 h -5 l -1,2 -10,4 -4,-3 -1,3 h -7 l -4,8 -1,-3 -1,1 -5,-2 -3,6 -3,-4 -3,1 -1,2 -4,-1 -7,5 -3,-4 1,-2 h -6 l -1,-4 -5,-2 -2,1 1,-1 -2,-2 6,-1 6,-5 -1,-1 5,-8 -1,-3 5,-5 2,1 4,-6 h 5 l 6,-4 v -2 l -4,-2 1,-2 4,-1 -3,-5 1,-1 -6,-1 -2,-4 -4,-2 -4,3 -1,-1 -4,5 -5,-2 -2,4 -8,-2 -7,3 -1,2 -2,-2 3,-3 -2,-1 2,-3 h -2 l 1,-1 h -2 l -2,-2 2,-1 -3,-2 -5,1 v 4 l -4,4 -7,-2 -8,4 v -2 l -3,-3 -5,1 -6,-3 -1,-3 h -3 l 1,-2 -2,-3 h -3 l -8,4 1,3 h -3 l -4,5 -3,-1 -4,4 -4,-2 1,6 2,1 4,-2 3,2 1,3 -4,3 3,5 -2,3 2,4 -1,4 -10,2 h -4 v -4 h -2 l -2,-9 -4,-4 -6,1 -7,-2 -1,-3 -2,4 -3,-4 -4,2 -6,-2 -4,11 1,1 -2,2 1,4 2,1 -1,6 -6,3 -3,5 h -4 v 6 l -2,1 3,3 v 2 h 2 l -1,5 5,8 -3,6 -7,5 -2,-1 v 9 l 4,8 -1,3 h -4 v 2 l -3,1 v 7 l -7,-2 -4,1 -2,7 h 3 l -3,6 -1,-1 -6,2 -4,10 -3,1 v 5 l -2,3 1,3 -2,1 v 2 l 2,3 v 10 h 3 v 3 l -4,6 v 4 l -11,11 h -9 l 2,2 -2,4 h -5 l -2,3 -3,-1 -1,3 h -8 l -1,8 -4,-1 2,2 1,6 4,5 h -4 l -5,4 v 2 l 2,1 -3,3 -2,-3 -3,-1 -3,4 h -2 l 1,-1 -4,-3 h -2 l 1,1 -3,2 -1,-2 -2,2 3,4 -2,4 2,3 v 5 l 2,1 -1,2 h -4 l -2,-2 -1,2 -3,1 -5,-2 h -2 l -3,3 -5,-2 -4,5 v 5 l -2,4 1,1 -2,2 -1,-1 -4,2 -2,-1 v -2 l -2,2 2,13 8,2 -2,4 -8,1 1,9 -6,6 -1,16 2,7 2,2 2,10 3,1 2,8 4,1 1,2 -3,3 v 2 l 4,4 -1,6 2,2 6,-4 h 3 l 3,3 6,-2 4,1 5,-2 1,-2 h 4 l 7,-9 1,-3 -4,-7 -2,-8 h -5 v -9 l -2,-2 h -6 l -4,-2 -2,-5 2,-6 1,-1 1,2 5,-6 4,-2 1,1 2,-5 5,-2 h 10 l 9,-11 6,1 11,-6 h 8 l 7,-2 v 2 h -2 v 3 l 8,-6 h 6 l 4,-2 1,2 3,-2 h 5 v -3 l 4,-3 h 4 l 2,2 -2,2 h 4 l 5,-4 2,1 3,-2 -1,-2 -3,-1 v -3 l 12,-6 h 2 l 4,6 6,1 5,-2 2,-5 h 3 l 3,3 h 7 l 12,-12 5,6 h 3 l 6,-6 1,-5 -2,-5 3,-3 z m 261,-92 -4,-2 -4,3 -1,-2 -4,2 12,3 z m -281,131 2,-1 -1,-2 2,-3 v -6 h 3 v -2 h -6 v 2 l -5,3 2,2 h 3 l -3,3 2,4 z m -16,-1 h 2 v -2 h 4 l 3,-2 -2,-1 2,-4 h -3 l -2,3 h -2 l 1,1 z m 136,-69 1,1 z m -38,34 -2,-1 1,1 z m 11,5 6,-2 -1,-1 z m -33,1 1,-1 -2,-1 z m -204,64 2,-1 4,-7 -1,-1 h -9 l -3,2 7,6 z m 122,-41 h 1 z m -124,41 -2,1 -4,-2 h -6 l -8,8 v 3 l 5,-1 4,-3 h 8 l 3,5 h 2 l 1,-9 -2,-2 z m 213,-64 h 1 z m 12,10 2,-1 z m -118,22 2,-1 h -2 z m 106,-43 h -1 z m 12,8 z m 40,-28 h 2 l -3,-1 z m -56,34 1,-3 h -2 z m 18,5 h 2 l -2,-1 z m -20,-2 2,-2 -2,-1 v 2 z m 12,-8 h 2 l -1,-1 z m -50,14 4,-3 h -4 v 2 z m -126,32 v -1 z m 174,-52 z m -4,-19 -1,-1 z m 0,19 1,-3 z m 24,9 h 2 v -2 h -3 v 2 z m -66,2 z m 63,-1 2,-2 -2,1 z m -65,4 -1,1 1,-2 z m -29,15 v -1 z m 124,-68 v 1 z m -61,44 v 2 z m 200,88 -1,2 h 7 l 2,4 -3,4 -6,1 1,2 h 6 l 3,-2 1,-8 -4,-4 h -3 z M 540,377 h 2 z m 75,-39 v -1 z m -174,63 v -1 z m 48,0 1,-1 h -3 l 1,1 z m 9,-17 2,-2 -1,-1 -2,1 v 2 z m -59,15 v -1 z m 35,2 v -1 z m 128,-75 1,1 z m -48,39 h -1 z m 53,-32 z m -65,30 h 1 z m 60,-20 1,-1 z m -132,59 -1,-1 z m -141,62 h 2 l -1,-2 z M 632,319 Z m -71,52 v -1 z m 176,92 h -2 z m -196,-97 1,1 z m -66,34 z m -130,47 -3,-1 -4,3 3,3 4,-4 z M 637,322 v -1 z m -298,167 2,-3 -1,1 z m 230,-113 1,-1 z m -239,55 2,1 -1,-1 z m 221,-93 -1,-1 z m -68,65 1,-1 z m 50,-45 1,1 z m -204,77 2,1 -1,-1 z m 357,1 v 2 l 4,3 h 2 l 2,-3 -3,-4 -5,1 z m -1,8 v 2 l 4,2 -3,-6 -1,1 z M 550,338 h 1 z"
     id="广东省" />
  <path
     class="leaflet-interactive"
     stroke="#333333"
     stroke-opacity="1"
     stroke-width="1"
     stroke-linecap="round"
     stroke-linejoin="round"
     stroke-dasharray="1, 6"
     fill="#eeeeee"
     fill-opacity="0.5"
     fill-rule="evenodd"
     d="m 520,319 6,3 12,15 6,-1 -4,-13 -7,-9 -3,-13 2,-3 6,-3 h 13 v -2 l 3,-1 v -13 h 3 l 3,4 1,-4 -2,-2 v -6 l -3,-1 1,-1 -4,-3 -4,-9 1,1 6,-6 8,-4 v -5 l -3,-5 h -9 l -6,3 -2,3 -1,-1 v 3 h -5 l -2,3 1,5 -2,3 -3,-3 -5,2 -3,-4 h -3 l -2,5 -4,1 v 2 l -3,1 -5,7 -13,4 v 2 l 1,-1 1,2 v 4 h 3 v 7 h 2 v -2 l 3,-3 4,3 v 4 l 2,2 -2,2 2,6 h -2 l 3,3 2,-1 -1,6 3,1 v 6 l 3,3 4,1 -3,1 z"
     id="440100" />
  <path
     class="leaflet-interactive"
     stroke="#333333"
     stroke-opacity="1"
     stroke-width="1"
     stroke-linecap="round"
     stroke-linejoin="round"
     stroke-dasharray="1, 6"
     fill="#eeeeee"
     fill-opacity="0.5"
     fill-rule="evenodd"
     d="m 548,240 4,-2 h 8 l 3,2 1,-2 1,1 5,-2 1,1 1,-2 h 6 l -2,4 7,1 3,-9 3,-1 3,-6 h 4 v -2 l 3,-1 v -4 l -3,-2 -5,6 -1,-1 2,4 -6,-2 -4,1 -3,-3 1,-1 -3,-4 2,-7 -3,-5 5,-5 -2,-1 v -4 h 2 l -2,-5 -5,-2 -2,1 1,-1 -2,-2 6,-1 6,-5 -1,-1 5,-8 -1,-3 5,-5 2,1 4,-6 h 5 l 4,-2 2,-4 -4,-2 1,-2 4,-1 -3,-5 1,-1 -6,-1 -2,-4 -4,-2 -4,3 -1,-1 -4,5 -5,-2 -2,4 -8,-2 -7,3 -1,2 -2,-2 3,-3 -2,-1 2,-3 h -2 l 1,-1 h -2 l -2,-2 2,-1 -3,-2 -5,1 v 4 l -4,4 -7,-2 -8,4 v -2 l -3,-3 -5,1 -6,-3 -1,-3 h -3 l 1,-2 -2,-3 h -3 l -8,4 1,3 h -3 l -4,5 -3,-1 -4,4 -4,-2 1,6 2,1 4,-2 3,2 1,3 -4,3 3,5 -2,3 2,4 -1,6 2,2 -5,4 1,1 -2,6 h -2 l 1,3 -2,4 4,1 6,9 h 3 v -2 l 4,2 6,-2 3,3 4,-1 1,-2 3,1 v 2 h 2 l 4,-2 1,1 2,-3 h 2 l 8,7 3,-2 v 2 l 3,1 3,6 -1,4 h 2 l 4,5 -5,2 1,1 -2,2 v 4 l -8,5 4,2 v 2 l 2,1 z"
     id="440200" />
  <path
     class="leaflet-interactive"
     stroke="#333333"
     stroke-opacity="1"
     stroke-width="1"
     stroke-linecap="round"
     stroke-linejoin="round"
     stroke-dasharray="1, 6"
     fill="#eeeeee"
     fill-opacity="0.5"
     fill-rule="evenodd"
     d="m 575,317 -3,2 2,2 -2,7 -2,-5 -10,-4 v -2 l -1,1 -2,-3 -4,-2 -1,2 h -2 v 2 l -5,5 v 4 l 3,6 2,1 3,9 5,-4 h 6 l 8,-4 4,2 1,-2 8,-3 3,1 3,4 v 5 l 2,2 7,-3 v -5 l -3,-1 v -3 l 2,-2 -1,-2 h -9 l -2,-8 -3,1 -1,-3 h -4 l -2,2 -1,-1 z m -26,29 -1,-1 z m 2,-8 -1,-1 z m -1,0 h 1 z"
     id="440300" />
  <path
     class="leaflet-interactive"
     stroke="#333333"
     stroke-opacity="1"
     stroke-width="1"
     stroke-linecap="round"
     stroke-linejoin="round"
     stroke-dasharray="1, 6"
     fill="#eeeeee"
     fill-opacity="0.5"
     fill-rule="evenodd"
     d="m 513,346 -3,-1 -1,2 -2,-2 v 2 l 2,1 -1,7 -6,5 v 9 l 11,13 4,-3 1,-4 5,-1 4,-5 6,-2 -2,-7 4,-5 -1,-2 3,-4 2,-7 h -3 l -1,3 -4,-1 -3,2 1,5 -3,1 3,3 -5,4 -6,-4 -4,-9 z m 51,21 -2,-1 1,1 z m 11,5 6,-2 -1,-1 z m -33,1 1,-1 -2,-1 z m 7,0 h 1 z m 12,10 2,-1 z m -12,-21 h -1 z m 12,8 z m -16,6 1,-3 h -2 z m 18,5 h 2 l -2,-1 z m -8,-10 h 2 l -1,-1 z m -50,14 4,-3 h -4 v 2 z m 38,-6 2,-2 -2,-1 v 2 z m 10,-14 z m -4,0 1,-3 z m 24,9 h 2 v -2 h -3 v 2 z m -66,2 z m 63,-1 2,-2 -2,1 z m -65,4 -1,1 1,-2 z m 34,-9 v 2 z m 1,7 h 2 z m 14,-12 h -1 z m -12,-2 h 1 z m 19,8 v -1 z m -20,-5 1,1 z m 28,10 1,-1 z m -36,-18 1,1 z"
     id="440400" />
  <path
     class="leaflet-interactive"
     stroke="#333333"
     stroke-opacity="1"
     stroke-width="1"
     stroke-linecap="round"
     stroke-linejoin="round"
     stroke-dasharray="1, 6"
     fill="#eeeeee"
     fill-opacity="0.5"
     fill-rule="evenodd"
     d="m 725,296 1,-2 5,-1 5,-5 4,2 1,-1 1,-2 -2,-2 v -4 l 7,-11 v -10 l -4,-2 v 2 l -3,1 v 2 l -5,-1 v 11 h -6 l -2,-2 -1,6 -3,-4 -4,-1 2,-2 -1,-2 -3,2 -1,-2 h -2 l -2,4 h -2 v 2 l 2,1 v 5 h -2 l 1,1 -5,8 -1,5 6,3 3,4 6,-5 3,1 z m 38,-24 -4,-2 -4,3 -1,-2 -4,2 12,3 z"
     id="440500" />
  <path
     class="leaflet-interactive"
     stroke="#333333"
     stroke-opacity="1"
     stroke-width="1"
     stroke-linecap="round"
     stroke-linejoin="round"
     stroke-dasharray="1, 6"
     fill="#eeeeee"
     fill-opacity="0.5"
     fill-rule="evenodd"
     d="m 495,271 -1,1 -4,-3 v -5 l -1,1 -1,-2 -3,2 2,2 -1,3 -3,2 1,1 -2,3 2,2 v -2 h 2 l 3,3 -1,4 -3,3 1,1 -2,2 -1,-2 v 2 h -2 l 5,13 -5,3 -1,-1 -1,4 h -4 l 1,3 -1,-1 -4,3 -3,-1 v 4 h -4 l -6,3 -1,1 2,6 7,-4 2,3 -2,1 v 2 l 3,-1 2,-3 h 4 l 2,-4 -1,4 3,1 5,-3 v -4 l 3,-1 1,-3 7,3 h 5 l 3,8 4,1 h 2 l 3,-5 2,2 6,-4 -1,-1 2,-1 -5,-2 v -3 l -2,-1 1,-3 -3,-5 1,-3 -2,1 -3,-2 2,-3 v -3 h -2 l 2,-2 -2,-3 v -4 l -4,-3 -3,3 v 2 h -2 v -7 h -3 v -4 l -1,-3 -1,2 v -2 z m -12,32 z"
     id="440600" />
  <path
     class="leaflet-interactive"
     stroke="#333333"
     stroke-opacity="1"
     stroke-width="1"
     stroke-linecap="round"
     stroke-linejoin="round"
     stroke-dasharray="1, 6"
     fill="#eeeeee"
     fill-opacity="0.5"
     fill-rule="evenodd"
     d="m 442,346 -1,4 -3,-1 -2,4 -2,2 -1,-1 -1,2 3,3 -1,5 h 5 l 2,3 1,-1 3,3 h 2 l -1,3 8,5 v 4 l 2,2 -2,1 1,1 -4,6 1,3 6,-2 2,-5 h 3 l 3,3 h 7 l 12,-12 5,6 6,-2 4,-7 -2,-7 4,-4 v -4 l 6,-5 1,-7 -2,-2 h 6 v -3 l -3,-6 -2,-1 -2,-6 1,-4 -5,-3 -2,-6 h -5 l -6,-3 -3,1 1,2 -3,1 v 4 l -4,3 -3,-1 v -4 l -2,4 h -4 l -4,4 v -4 l -3,-1 v 9 h -2 l -3,-5 -3,8 -4,-2 v 4 l -4,1 v 7 h -4 l -1,2 z m 40,57 2,-1 -1,-2 2,-3 v -6 h 3 v -2 h -6 v 2 l -5,3 2,2 h 3 l -3,3 2,4 z m -16,-1 h 2 v -2 h 4 l 3,-2 -2,-1 2,-4 h -3 l -2,3 h -2 l 1,1 z m -6,-6 h 1 z m 16,-2 v -1 z m 13,7 1,-1 h -3 l 1,1 z m 9,-17 2,-2 -1,-1 -2,1 v 2 z m -24,17 v -1 z m -4,1 -1,-1 z m 5,-2 z m 8,3 1,-1 z"
     id="440700" />
  <path
     class="leaflet-interactive"
     stroke="#333333"
     stroke-opacity="1"
     stroke-width="1"
     stroke-linecap="round"
     stroke-linejoin="round"
     stroke-dasharray="1, 6"
     fill="#eeeeee"
     fill-opacity="0.5"
     fill-rule="evenodd"
     d="m 345,427 -1,-5 -3,2 -4,-3 3,-4 h -2 l -4,-6 2,-2 -2,-5 -4,-1 1,-1 -3,-5 2,-1 h -2 l -2,-3 2,-6 h -2 l -1,-3 3,-1 v -2 h -4 l -2,-2 -1,2 -3,1 -5,-2 h -2 l -3,3 -5,-2 -4,5 v 5 l -2,4 1,1 -2,2 -1,-1 -4,2 -2,-1 v -2 l -2,2 2,13 8,2 -2,4 -8,1 1,9 -6,6 -1,16 2,7 2,2 2,10 3,1 2,8 4,1 1,2 -3,3 v 2 l 4,4 -1,6 2,2 6,-4 h 3 l 3,3 6,-2 h 7 l 3,-3 h 4 l 7,-9 1,-3 -4,-7 -2,-8 h -5 v -9 l -2,-2 h -6 l -4,-2 -2,-5 2,-6 1,-1 1,2 5,-6 4,-2 1,1 2,-5 5,-2 h 8 z m -9,-19 v 2 l -2,1 5,6 -2,4 4,3 3,-2 1,5 9,-11 6,1 6,-3 -1,-2 h -5 l 1,-1 -2,-4 -1,1 v -2 l -2,-1 -2,-4 1,-2 -2,-1 -3,1 v 9 l -3,-2 v 2 l -4,1 -4,-2 -1,3 z m -7,-28 3,-3 -3,-1 -2,2 2,1 z m -1,8 v 1 z m 10,49 2,-1 4,-7 -1,-1 h -9 l -3,2 7,6 z m -2,0 -2,1 -4,-2 h -6 l -8,8 v 3 l 5,-1 4,-3 h 8 l 3,5 h 2 l 1,-9 -2,-2 z m 13,-31 z m -20,58 h 2 l -1,-2 z m 16,-17 -3,-1 -4,3 3,3 4,-4 z m -6,42 2,-3 -1,1 z m -9,-58 2,1 -1,-1 z m -1,4 2,1 -1,-1 z"
     id="440800" />
  <path
     class="leaflet-interactive"
     stroke="#333333"
     stroke-opacity="1"
     stroke-width="1"
     stroke-linecap="round"
     stroke-linejoin="round"
     stroke-dasharray="1, 6"
     fill="#eeeeee"
     fill-opacity="0.5"
     fill-rule="evenodd"
     d="m 349,406 2,-4 -1,-3 3,-1 5,10 1,-1 2,6 2,-2 3,3 5,-3 h 8 l 7,-2 v 2 h -2 v 3 l 8,-6 5,-1 -3,-6 2,-7 -4,-4 v -2 l 3,-2 -2,-3 -6,-3 -1,-10 1,-3 2,-1 -1,-1 2,-7 7,-4 1,-4 8,-3 5,-6 v -2 h -4 v -4 l -3,1 -3,4 -2,-2 -1,3 -3,2 -2,-3 1,-3 h -5 l -4,2 1,-4 h 2 l -3,-3 -2,1 -5,-3 -4,-6 -3,4 h -5 l -2,3 -3,-1 -1,3 h -8 l -1,8 -4,-1 2,2 1,6 4,5 h -4 l -5,4 v 2 l 2,1 -3,3 -2,-3 -3,-1 -3,4 h -2 l 1,-1 -4,-3 h -2 l 1,1 -3,2 -1,-2 -2,2 3,4 -2,4 2,3 -1,1 2,3 h 4 l -4,4 1,2 -3,-1 -1,5 1,-1 2,2 -2,5 2,3 h 2 -2 l 2,4 -1,1 h 2 v 2 l 3,1 v 2 l 4,4 1,-3 h 3 l 1,2 h 4 l 1,-2 z m -13,2 v 1 z m -8,-18 v -2 l -1,2 z m 21,16 1,2 z m 30,11 v -1 z m -45,-6 z"
     id="440900" />
  <path
     class="leaflet-interactive"
     stroke="#333333"
     stroke-opacity="1"
     stroke-width="1"
     stroke-linecap="round"
     stroke-linejoin="round"
     stroke-dasharray="1, 6"
     fill="#eeeeee"
     fill-opacity="0.5"
     fill-rule="evenodd"
     d="m 485,265 h -2 l -3,-6 h 2 v -3 l -4,-1 2,-4 h -3 v -3 l -2,-2 1,-7 -2,-2 -8,-2 -3,-10 -4,-1 2,-5 v -6 h -2 l -3,-4 -6,-3 1,3 -2,2 -1,-1 1,3 -4,6 -3,1 -5,-5 -4,5 -4,-3 h -5 v 9 l 4,8 -1,3 h -4 v 2 l -3,1 v 7 l -7,-2 -4,1 -2,7 h 3 l -3,6 -1,-1 -7,3 -3,9 -3,1 -2,10 h 4 l 3,3 h 2 l 1,-3 4,5 -3,1 v 2 l 6,1 1,2 7,2 h 13 l 4,4 h 11 l 6,-4 3,2 -3,4 1,7 h -2 l -1,3 h 4 v 8 h 5 v 2 l 7,-4 h 4 v -4 l 2,1 5,-3 1,1 v -4 l 1,2 2,-1 1,-4 1,1 5,-3 -5,-13 h 2 v -2 l 1,2 2,-2 -1,-1 4,-7 h -2 l -1,-3 h -2 v 2 l -2,-2 5,-9 -2,-1 z"
     id="441200" />
  <path
     class="leaflet-interactive"
     stroke="#333333"
     stroke-opacity="1"
     stroke-width="1"
     stroke-linecap="round"
     stroke-linejoin="round"
     stroke-dasharray="1, 6"
     fill="#eeeeee"
     fill-opacity="0.5"
     fill-rule="evenodd"
     d="m 594,327 5,-2 v -2 l 6,-3 1,-2 3,2 -2,8 2,5 8,-1 v 4 l 2,-1 2,-6 6,-5 -2,-2 v -3 l -4,-2 1,-1 -2,-3 v -4 h 3 l 7,-6 4,1 4,-4 h 2 l 4,-3 -1,-4 3,-1 6,-6 -3,-4 h -4 v -3 l -2,-2 h -7 l -8,4 -3,-1 -1,3 -2,-4 -3,2 -4,11 -4,-4 v -6 l -2,-2 -2,1 -2,-6 h -4 l 4,-4 -1,-2 2,-2 -3,-1 v -2 l -2,2 -3,-2 -2,-2 -2,-7 h -5 l -4,-4 -1,2 -1,-1 v -11 l -6,-1 1,-3 -5,-1 -8,3 -1,-1 v 11 h -3 l -2,3 h -4 l -5,6 -1,-1 v 2 l 3,2 v 5 l 7,4 -1,3 h 2 l 1,3 -2,1 1,5 -3,-3 -4,1 1,11 -3,2 v 2 h 7 l 3,3 4,-2 5,6 -1,2 6,1 -1,2 3,5 h -2 v 5 l 2,2 2,-2 h 4 l 1,3 3,-1 v 4 l 2,2 -1,1 5,1 z m 8,6 1,1 z m -1,9 h 2 l -3,-1 z m -1,-16 v 1 z m 15,12 v -1 z m -13,-12 1,1 z m 5,7 z m -5,10 1,-1 z"
     id="441300" />
  <path
     class="leaflet-interactive"
     stroke="#333333"
     stroke-opacity="1"
     stroke-width="1"
     stroke-linecap="round"
     stroke-linejoin="round"
     stroke-dasharray="1, 6"
     fill="#eeeeee"
     fill-opacity="0.5"
     fill-rule="evenodd"
     d="m 713,252 3,-3 5,2 2,-4 -2,-4 6,-3 2,-5 h 5 v -5 h 3 l 1,-3 1,1 v -5 l 2,-2 h 4 l 5,-5 v -2 l -2,-1 v -4 l -5,-7 1,-3 h -2 l -4,-4 v -3 l 4,-4 -1,-3 h -2 l -1,2 h -10 l -5,4 -1,-7 -2,-2 -1,1 -6,-7 3,-2 -1,-3 -6,6 h -5 l 1,-1 -3,-3 v -2 l -4,3 -5,-2 -2,-3 -2,1 -8,-3 2,4 -3,1 1,-1 -3,-2 -1,3 h -2 l 1,1 -2,4 v 6 l 3,1 -3,2 6,7 -11,2 -2,-5 -8,-2 -2,3 1,2 -2,2 1,3 6,3 -3,7 3,7 -1,4 h -2 v 2 l -2,-1 2,6 h -2 l -1,-2 -1,1 v -2 l -3,2 -1,4 2,2 v 5 l -3,2 -4,8 1,1 -3,3 2,1 3,-2 2,6 h 2 v 10 l -2,4 3,6 -1,2 4,-1 v -2 l 3,-1 8,-9 2,3 h 4 l 2,-2 -1,-5 3,-3 4,3 7,-4 v 2 l 9,2 2,-1 v -4 l 3,-3 5,-3 h 2 l 1,2 z"
     id="441400" />
  <path
     class="leaflet-interactive"
     stroke="#333333"
     stroke-opacity="1"
     stroke-width="1"
     stroke-linecap="round"
     stroke-linejoin="round"
     stroke-dasharray="1, 6"
     fill="#eeeeee"
     fill-opacity="0.5"
     fill-rule="evenodd"
     d="m 664,270 -6,4 v 2 l -3,3 v 2 h 2 l -10,9 v 2 h -4 l 1,5 h -2 l -8,7 -4,-1 -2,3 -8,4 2,6 -1,1 4,2 2,5 -1,-1 3,-5 5,-1 2,2 1,-3 h 5 l -2,1 v 2 h 7 v 4 l 2,2 h 6 l 7,3 -1,-3 3,-3 -4,-1 3,-7 6,-1 4,2 3,2 1,5 5,-4 h 4 l 7,-4 2,2 8,-5 1,-2 -2,-1 -2,3 h -3 l -7,-4 -2,2 v -3 l -1,1 -2,-3 2,-2 h -3 2 l 1,-2 -3,-4 -3,-1 -1,2 -5,-5 -3,-1 v -2 l 1,1 1,-2 -1,-1 5,-2 -2,-2 2,-3 -3,-3 -7,2 1,-4 -5,-4 z m 75,188 -1,2 h 7 l 2,4 -3,4 -6,1 1,2 h 6 l 3,-2 1,-8 -4,-4 h -3 z M 632,319 Z m 105,144 h -2 z M 637,322 v -1 z m 49,114 v 2 l 4,3 h 2 l 2,-3 -3,-4 -5,1 z m -1,8 v 2 l 4,2 -3,-6 -1,1 z"
     id="441500" />
  <path
     class="leaflet-interactive"
     stroke="#333333"
     stroke-opacity="1"
     stroke-width="1"
     stroke-linecap="round"
     stroke-linejoin="round"
     stroke-dasharray="1, 6"
     fill="#eeeeee"
     fill-opacity="0.5"
     fill-rule="evenodd"
     d="m 652,286 v -2 h 2 l 2,-3 v -4 h -2 l 1,-2 -3,-5 2,-5 v -10 l -3,-1 -1,-5 -3,2 -1,-1 2,-2 -1,-1 4,-9 3,-2 v -4 l -2,-3 1,-3 3,-3 v 2 l 1,-1 1,2 h 2 l -3,-6 3,1 v -2 h 2 l 1,-3 -3,-8 3,-7 -7,-4 2,-4 -1,-2 2,-3 h 2 v -2 l -6,-7 -4,-2 -3,3 h -5 l -1,2 -10,4 -4,-3 -1,3 h -7 l -4,8 -1,-3 -1,1 -5,-2 -3,6 -3,-4 -3,1 -1,2 -4,-1 -7,5 -3,-4 1,-2 h -6 l 1,1 h -2 l -1,2 3,3 -5,5 1,4 h 2 l -2,7 3,5 -1,1 3,3 6,-1 1,2 h 2 l -1,-4 1,1 5,-5 3,1 v 4 h -2 l -1,3 -1,-2 -2,3 -1,-1 -3,6 -4,2 1,1 -4,10 v 5 l 2,4 1,-2 3,4 h 6 l 3,8 3,3 2,-2 1,2 3,1 -2,2 2,2 -5,4 h 4 l 2,6 1,-1 3,2 v 6 l 4,4 4,-8 v -4 l 2,-1 3,4 3,-3 1,1 4,-3 8,-2 5,3 v 3 h 4 l 2,4 z"
     id="441600" />
  <path
     class="leaflet-interactive"
     stroke="#333333"
     stroke-opacity="1"
     stroke-width="1"
     stroke-linecap="round"
     stroke-linejoin="round"
     stroke-dasharray="1, 6"
     fill="#eeeeee"
     fill-opacity="0.5"
     fill-rule="evenodd"
     d="m 452,394 -1,-3 4,-6 -1,-1 2,-1 -2,-2 v -4 l -3,-3 -4,-1 v -4 l -5,-3 -1,1 -2,-3 -5,1 1,-5 -3,-4 4,-3 1,-4 h 5 v -4 l -5,-1 -6,-6 -1,-3 2,-2 -2,-4 -5,4 -4,-1 3,-3 v -2 l -3,-2 -2,3 1,1 -5,4 -5,10 -4,4 -9,3 v 4 l -7,4 -1,7 -3,4 v 11 h 2 l 7,6 -3,2 v 4 l 4,2 -2,7 4,7 4,-2 1,2 3,-2 h 5 v -3 l 4,-3 h 4 l 2,2 -2,2 h 4 l 5,-4 2,1 3,-2 -1,-2 -3,-1 v -3 l 12,-6 h 2 l 4,6 4,1 z m -9,11 2,-1 h -2 z m -2,-4 v -1 z m -2,-2 v -1 z"
     id="441700" />
  <path
     class="leaflet-interactive"
     stroke="#333333"
     stroke-opacity="1"
     stroke-width="1"
     stroke-linecap="round"
     stroke-linejoin="round"
     stroke-dasharray="1, 6"
     fill="#eeeeee"
     fill-opacity="0.5"
     fill-rule="evenodd"
     d="m 496,168 -14,2 v -4 h -2 l -2,-9 -4,-4 -6,1 -7,-2 -1,-3 -2,4 -3,-4 -4,2 -6,-2 -4,11 1,1 -2,2 1,4 2,1 -1,6 -6,3 -3,5 h -4 v 6 l -2,1 3,3 v 2 h 2 l -1,5 5,8 -3,6 -5,4 4,3 h 3 l -1,-2 3,-3 5,5 3,-1 1,-3 h 2 v -5 l 3,-1 -1,-3 6,2 3,4 h 2 v 6 l -2,4 4,2 2,10 h 3 l 8,4 -2,7 3,2 v 2 l 3,1 -2,3 4,4 -2,1 v 2 l 3,1 v 3 l 4,-2 2,2 1,-1 1,1 -2,2 4,5 16,-5 v -3 l 9,-7 3,-5 h 3 l 3,4 4,-2 4,3 2,-5 v -6 h 5 v -2 h 2 l 4,-5 -6,-5 3,-3 2,1 4,-5 v -5 l 5,-2 -3,-3 1,-1 -3,-1 -3,-10 -5,-3 v 2 l -4,-4 -4,-1 v -2 h -3 l -6,4 h -3 v -2 l -3,-1 -5,3 -3,-3 h -2 l -1,2 -7,-2 v 2 h -2 l -7,-9 h -4 l 2,-5 -1,-3 h 2 l 2,-6 -1,-1 5,-4 -2,-2 1,-1 z"
     id="441800" />
  <path
     class="leaflet-interactive"
     stroke="#333333"
     stroke-opacity="1"
     stroke-width="1"
     stroke-linecap="round"
     stroke-linejoin="round"
     stroke-dasharray="1, 6"
     fill="#eeeeee"
     fill-opacity="0.5"
     fill-rule="evenodd"
     d="m 575,317 v -5 h 2 v -2 l -3,-2 v -4 h -5 l 1,-2 -5,-6 -3,2 -4,-3 -1,1 -15,-2 -3,2 h -4 l -5,4 v 5 l 3,5 v 4 l 7,9 h 4 l 3,-2 3,-6 3,-1 4,1 4,5 3,-1 1,2 h 2 v 2 h 3 l 2,5 2,-5 -2,-4 2,-2 z"
     id="441900" />
  <path
     class="leaflet-interactive"
     stroke="#333333"
     stroke-opacity="1"
     stroke-width="1"
     stroke-linecap="round"
     stroke-linejoin="round"
     stroke-dasharray="1, 6"
     fill="#eeeeee"
     fill-opacity="0.5"
     fill-rule="evenodd"
     d="m 533,344 8,-7 h -3 l -8,-11 -10,-7 -6,4 -2,-2 -6,8 13,27 4,3 6,-3 -2,-4 1,-7 3,-1 z"
     id="中山市" />
  <path
     class="leaflet-interactive"
     stroke="#333333"
     stroke-opacity="1"
     stroke-width="1"
     stroke-linecap="round"
     stroke-linejoin="round"
     stroke-dasharray="1, 6"
     fill="#eeeeee"
     fill-opacity="0.5"
     fill-rule="evenodd"
     d="m 748,266 6,2 4,-3 1,1 7,-2 v -5 l -7,-2 -4,-12 -1,-2 h -2 l -1,-3 2,-4 -3,-5 1,-2 h -2 v -5 l 4,-3 -2,-3 -3,-1 -3,5 -1,-2 -5,3 v 4 l -5,3 v 5 l -3,-1 -3,2 2,1 h -2 v 3 l -6,3 -1,-1 2,2 -1,6 -3,1 -2,-2 -4,4 5,4 h 4 l 2,3 -1,1 3,3 -2,4 7,6 4,-1 v -10 l 2,-2 1,2 h 2 v -2 h 2 l 1,-3 4,3 1,3 z"
     id="445100" />
  <path
     class="leaflet-interactive"
     stroke="#333333"
     stroke-opacity="1"
     stroke-width="1"
     stroke-linecap="round"
     stroke-linejoin="round"
     stroke-dasharray="1, 6"
     fill="#eeeeee"
     fill-opacity="0.5"
     fill-rule="evenodd"
     d="m 725,296 h -5 l -6,5 -3,-4 h -3 l -3,-3 2,-5 -1,-1 2,-1 3,-6 -1,-1 h 2 l -2,-8 h 2 l 2,-4 h 2 l 1,3 3,-3 1,1 -2,3 5,2 2,3 1,-5 h 3 l -5,-2 -1,-4 2,-1 -4,-8 -7,-2 -5,-6 -7,4 -2,3 1,3 -2,1 h -5 l -7,-4 -5,4 -3,-3 -4,3 1,5 -2,2 h -4 l -2,-3 -4,4 -1,3 5,4 -1,4 7,-2 3,3 -2,2 2,2 -1,2 h -3 l -2,5 3,1 5,5 3,-3 4,6 -3,2 h 3 l -1,5 1,-1 1,3 2,-2 6,4 h 3 l 3,-3 3,1 4,-2 5,2 8,-1 4,-5 v -6 z"
     id="445200" />
  <path
     class="leaflet-interactive"
     stroke="#333333"
     stroke-opacity="1"
     stroke-width="1"
     stroke-linecap="round"
     stroke-linejoin="round"
     stroke-dasharray="1, 6"
     fill="#eeeeee"
     fill-opacity="0.5"
     fill-rule="evenodd"
     d="m 463,324 -5,2 -2,-7 1,-1 h -4 l -2,-9 -3,1 v -3 h 2 l 1,-4 -1,-3 3,-3 -1,-2 h -5 l -3,3 h -11 l -4,-4 -4,1 -13,-3 -1,1 -2,-3 -7,-1 v -2 l 2,-1 -2,-5 -2,3 h -2 l -3,-3 -5,2 2,5 v 10 h 3 v 3 l -4,6 v 4 l -11,11 h -9 l 3,3 h 2 l 3,6 9,3 -2,1 -1,3 9,-1 v 6 l 4,-1 1,-4 2,2 3,-3 -1,-1 3,-1 1,3 h 4 v 2 l 11,-15 2,4 -2,1 1,1 -3,1 5,1 4,-4 3,4 -2,2 2,4 8,6 1,-1 3,4 1,-3 h 3 v -7 h 2 l 3,-5 v 2 l 3,-1 3,-6 -1,-1 h 2 v 4 h 5 l -2,-5 1,-1 z"
     id="445300" />
</svg>
