<?xml version="1.0" encoding="UTF-8" standalone="no"?>
<svg
   pointer-events="none"
   class="leaflet-zoom-animated"
   width="1135"
   height="626"
   viewBox="-95 -52 1135 626"
   style="transform: translate3d(-95px, -52px, 0px);"
   version="1.1"
   id="svg1"
   sodipodi:docname="广西壮族自治区.svg"
   inkscape:version="1.4 (86a8ad7, 2024-10-11)"
   xmlns:inkscape="http://www.inkscape.org/namespaces/inkscape"
   xmlns:sodipodi="http://sodipodi.sourceforge.net/DTD/sodipodi-0.dtd"
   xmlns="http://www.w3.org/2000/svg"
   xmlns:svg="http://www.w3.org/2000/svg">
  <defs
     id="defs1" />
  <sodipodi:namedview
     id="namedview1"
     pagecolor="#ffffff"
     bordercolor="#000000"
     borderopacity="0.25"
     inkscape:showpageshadow="2"
     inkscape:pageopacity="0.0"
     inkscape:pagecheckerboard="0"
     inkscape:deskcolor="#d1d1d1"
     inkscape:zoom="1.2412141"
     inkscape:cx="567.58945"
     inkscape:cy="313"
     inkscape:window-width="1920"
     inkscape:window-height="991"
     inkscape:window-x="-9"
     inkscape:window-y="1341"
     inkscape:window-maximized="1"
     inkscape:current-layer="svg1" />
  <path
     class="leaflet-interactive"
     stroke="#000000"
     stroke-opacity="1"
     stroke-width="2"
     stroke-linecap="round"
     stroke-linejoin="round"
     fill="#ffffff"
     fill-opacity="0.2"
     fill-rule="evenodd"
     d="m 620,155 h -5 v -6 l 1,1 2,-3 -2,-2 -1,1 -3,-3 -7,4 -3,-3 -5,5 2,1 -7,10 1,4 -3,3 -6,-2 v -3 l -2,-2 -1,1 2,2 h -2 v 2 l -2,-2 v -3 h -2 l -5,1 -8,6 v 2 h 2 l 5,-4 5,1 -3,6 1,5 2,2 -4,2 -4,-3 h -6 l -3,2 -2,-2 1,-3 -3,-3 h -2 l -3,2 1,1 -2,2 2,4 -1,-1 -5,3 2,2 -1,-1 -2,4 3,3 v 5 l -3,-2 1,-1 -7,-8 -3,1 -6,-6 h -2 l -5,5 1,1 h -6 l 2,2 -1,2 -2,-1 -2,14 h -4 l -12,4 -2,2 -5,-1 2,-1 -3,-7 -3,4 -3,-9 -4,5 -7,3 v -7 l -2,1 -3,-4 1,-2 -2,-3 -5,1 1,-7 -6,-4 v -4 l -11,4 v 4 h -3 l -3,5 1,5 h 2 v 5 l -2,2 1,1 h -6 l -1,5 h -14 l -7,7 -10,5 -11,3 -1,-1 -3,2 -1,-1 -1,1 4,7 -2,7 -2,-1 v 2 l -4,2 -4,6 -5,-5 v -2 l -9,2 -8,-6 -2,1 -3,-3 h -7 l -4,-9 -10,1 -4,-5 -8,5 -3,4 -1,6 -10,3 -2,5 -5,1 -2,3 -6,-3 -5,-5 h -2 l -4,6 2,1 5,15 h 3 l -1,3 h 2 l 4,4 1,-9 3,-1 11,3 8,-2 4,5 h 2 l 3,3 -2,4 5,5 -2,3 h -2 v 2 l 7,5 -1,-2 2,-2 7,6 6,1 2,-8 h 6 l 1,7 8,-3 2,1 v 3 l 4,-3 2,1 1,-5 h 6 l 3,3 v 2 l 3,2 -1,2 7,8 v 3 l -4,3 2,5 -3,8 2,3 h -2 v 2 l -7,6 -1,-3 -5,-1 -2,-2 -4,1 v 3 l -8,5 h -4 l 4,3 v 2 l -1,1 -1,-2 -5,3 -4,5 2,3 -1,1 2,1 -1,6 12,2 4,4 h 2 l 3,5 3,-2 4,1 2,-4 h 8 l 4,1 4,5 -1,1 6,3 7,-4 1,1 4,-4 2,2 2,-1 4,5 2,-2 5,5 5,1 -1,3 -4,2 1,2 -2,1 1,1 -3,3 -1,4 -5,-2 -1,1 -3,9 2,5 -2,2 1,2 h 4 l 4,8 -2,2 2,2 -1,2 2,3 -2,6 1,3 3,-4 4,3 h 7 l 2,4 3,-2 3,1 1,3 -3,2 v 2 l 5,2 7,6 3,1 3,-3 5,7 -1,3 h 2 l 4,-4 h 2 l 1,4 2,1 2,-2 h 10 l 2,-2 6,-1 3,1 1,4 h 2 l 2,3 h 6 l 3,2 6,-1 -3,-2 6,-3 1,1 -3,5 1,1 6,-3 11,-1 8,-9 6,4 -2,2 h 2 l 1,-3 1,3 8,-2 5,3 13,1 1,2 -2,3 -5,1 -1,3 8,4 10,-4 h 14 l 5,-6 v -2 l 5,6 5,1 1,-3 -2,-4 v -5 l 2,-3 1,3 8,-3 -1,-1 2,-8 4,-6 4,2 2,-2 1,1 1,-2 h 4 l 3,2 4,-3 2,2 5,-1 -3,-6 1,-10 -3,-2 2,-2 2,2 2,-3 5,3 -1,1 h 2 l 3,-4 5,4 3,-3 -2,-4 h 2 l 3,-3 4,1 -3,-6 -2,-1 v -4 l -2,-3 h 4 l 2,-8 2,2 2,-2 3,1 1,-3 3,1 2,-3 h 4 l 3,-3 -2,-3 10,-1 10,-10 v -4 l 4,-6 v -2 l -3,-1 -1,-5 2,-1 -3,-8 2,-2 -1,-3 2,-2 v -6 h 2 l 2,-3 2,-8 6,-2 2,1 v -2 l 3,-3 -3,-1 1,-5 5,-3 7,2 v -6 l 3,-2 -1,-1 5,-1 1,-3 -4,-7 v -10 l 2,1 3,-3 h 2 l 5,-6 -1,-5 -4,-4 1,-6 -5,-5 2,-7 3,-1 -2,-2 -6,1 -3,-2 h -8 l -3,2 -2,5 h -3 l -1,3 -8,-3 2,-5 -2,-10 2,-2 -3,-3 3,-3 -4,-3 1,-3 -3,-3 -1,2 h -3 l -2,-3 h -2 l -3,5 -7,3 -1,7 h -4 l -3,2 1,-4 -2,-1 1,-1 -2,-3 3,-8 8,-5 -1,-5 5,-6 2,1 6,-6 2,-6 -2,-12 2,-3 1,1 6,-3 -1,-6 4,-1 -2,-2 -5,1 v -2 h -2 l -4,4 -6,-7 1,-5 4,-6 -1,-3 3,-7 -2,-2 h -4 v -2 l -2,-1 -11,-2 v -2 l -2,-1 h -2 v 7 l -2,2 v -2 l -9,2 -3,-1 1,-3 h -8 v -2 l -4,4 -3,7 h -2 l -7,6 -2,8 -2,2 -4,-1 -3,-7 -2,4 h -4 l -2,-2 2,-6 -1,-3 -8,-2 -4,4 -2,8 h -5 l -1,2 3,6 -3,4 z m -301,68 v 1 z m 257,273 1,1 3,-3 -1,-2 -3,2 z m 8,8 v -1 z m -23,-49 -1,1 2,1 z"
     id="广西壮族自治区" />
  <path
     class="leaflet-interactive"
     stroke="#333333"
     stroke-opacity="1"
     stroke-width="1"
     stroke-linecap="round"
     stroke-linejoin="round"
     stroke-dasharray="1, 6"
     fill="#eeeeee"
     fill-opacity="0.5"
     fill-rule="evenodd"
     d="m 585,338 h -6 l -3,-2 v -2 l -1,2 -3,-3 h -5 l -2,-3 1,-1 -7,-5 1,-2 -4,-11 2,-2 -1,-4 -4,-3 -1,2 -1,-1 -5,3 -7,6 -1,-1 v -5 l -2,-3 h -2 l 1,-1 h -2 l 4,-6 -3,-5 4,-2 -1,-2 -1,1 -2,-2 -4,2 v 5 l -1,2 h -2 v 2 l -2,1 1,2 -2,2 h -2 l 1,-1 -1,1 -3,-5 -2,4 -1,-2 -4,4 -2,-1 -3,3 2,3 -4,7 -2,-3 -4,4 h -4 l -6,4 v 7 l 7,2 2,-2 1,1 -4,7 -3,-1 -5,5 h -8 l 1,2 -2,3 -4,-2 -2,1 1,-2 h -6 l -4,8 4,3 -3,3 h 7 l 2,2 v 9 l 2,3 4,-1 v -2 l 3,-1 h 2 v 2 l 3,1 v -2 l -4,-3 7,-1 v 2 l 3,3 12,3 v 3 l 3,1 -2,6 3,3 3,-4 1,3 -1,3 -6,3 2,2 -3,3 2,2 5,1 v 4 h 2 l -1,2 2,2 v 3 l 3,2 4,-1 -1,2 1,2 h 2 v 2 l 8,-4 5,2 2,-1 -1,-1 5,-8 -1,-3 h 3 l 2,-2 2,1 2,-2 2,1 -1,-3 7,-2 2,-2 2,3 h 3 l 3,-3 3,3 h 8 l 1,-3 h 2 v 2 l 5,2 3,-2 -2,-3 4,-5 7,1 11,-5 -4,-6 h -4 l 2,-3 h -2 l -3,-3 2,-1 -7,-4 -4,-6 2,-4 -3,-2 -3,1 v -10 l -3,-3 1,1 z"
     id="450100" />
  <path
     class="leaflet-interactive"
     stroke="#333333"
     stroke-opacity="1"
     stroke-width="1"
     stroke-linecap="round"
     stroke-linejoin="round"
     stroke-dasharray="1, 6"
     fill="#eeeeee"
     fill-opacity="0.5"
     fill-rule="evenodd"
     d="m 643,256 3,-7 v -7 l -5,1 -2,-3 -2,2 -3,-2 v -2 h -2 l -1,-5 -2,2 -1,-3 -3,-2 -14,-2 v -8 l 2,-6 -1,-7 5,-5 2,-12 1,1 -1,-4 2,-5 -3,-5 5,-6 -2,-2 2,-3 -6,-6 v -2 l 3,-3 h -5 l -1,-3 1,-3 1,1 2,-3 -2,-2 -1,1 -3,-3 -7,4 -3,-3 -5,5 2,1 -7,10 1,4 -3,3 -6,-2 v -3 l -2,-2 -1,1 2,2 h -2 v 2 l -2,-2 v -3 l -7,1 -4,4 h -2 l -2,4 4,-1 3,-3 5,1 -3,6 1,5 2,2 -4,2 -4,-3 h -6 l -3,2 -2,-2 1,-3 -3,-3 -5,2 1,1 -2,2 2,4 h -4 l -2,2 2,2 -1,-1 -2,4 3,3 -1,1 3,11 4,2 -1,2 -1,-1 -1,4 h 5 v -2 l 3,2 3,-3 h 4 l -1,1 3,1 3,-4 2,1 2,-3 3,3 1,4 -2,6 -6,5 v 2 l 3,1 3,-1 1,-2 4,3 v 6 l -2,2 -6,-2 -1,3 -4,2 v 2 l -2,1 3,3 -1,2 h -2 l -2,2 1,1 -5,4 7,5 5,-1 2,2 -3,2 v 4 h -5 l -1,7 2,2 -1,2 3,6 9,3 -2,2 h 4 l 1,3 4,-1 1,-2 3,1 v 3 l 3,1 2,6 h 3 l 6,-5 v -5 l 4,-1 3,-6 h 4 l 8,-8 h 4 l -1,-1 4,-2 2,2 h -2 v 2 l 2,1 4,-2 2,-2 -1,-3 4,-10 1,1 z"
     id="450200" />
  <path
     class="leaflet-interactive"
     stroke="#333333"
     stroke-opacity="1"
     stroke-width="1"
     stroke-linecap="round"
     stroke-linejoin="round"
     stroke-dasharray="1, 6"
     fill="#eeeeee"
     fill-opacity="0.5"
     fill-rule="evenodd"
     d="m 706,222 h -5 l -3,2 1,-4 -2,-1 1,-1 -2,-3 3,-8 8,-5 -1,-5 5,-6 2,1 6,-6 2,-6 -2,-12 2,-3 1,1 6,-3 -1,-6 4,-1 -2,-2 -5,1 v -2 h -2 l -4,4 -6,-7 1,-5 3,-3 v -6 l 3,-7 -2,-2 h -4 v -2 l -2,-1 -11,-2 v -2 l -2,-1 h -2 v 7 l -2,2 v -2 l -9,2 -3,-1 1,-3 h -8 v -2 l -4,4 -3,7 h -2 l -7,6 -2,8 -2,2 -4,-1 -3,-7 -2,4 h -4 l -2,-2 2,-6 -1,-3 -8,-2 -4,4 -2,8 h -5 l -1,2 3,6 -3,4 -1,-1 -3,3 v 2 l 6,6 -2,2 2,3 -5,5 3,5 -2,6 1,4 -1,-1 -2,12 -5,5 1,12 h -2 v 10 l 4,-1 8,3 2,-2 1,2 h 2 l 1,4 2,-2 1,1 -1,4 h 3 l 1,3 2,1 2,-2 2,2 h 5 l 1,2 h -2 l 1,5 -3,8 h 5 l -1,3 h 2 l -2,2 2,2 3,-1 1,4 6,-2 7,1 -1,-3 3,1 2,-4 2,3 2,-3 5,4 6,2 2,-5 h 2 l 1,4 2,1 v 4 l 3,-3 v -2 l 3,2 3,-3 -4,-2 h 2 l 3,-6 v -3 l -4,-5 2,-2 -1,-2 11,-11 v -8 l -4,-1 z"
     id="450300" />
  <path
     class="leaflet-interactive"
     stroke="#333333"
     stroke-opacity="1"
     stroke-width="1"
     stroke-linecap="round"
     stroke-linejoin="round"
     stroke-dasharray="1, 6"
     fill="#eeeeee"
     fill-opacity="0.5"
     fill-rule="evenodd"
     d="m 660,285 1,5 -3,3 v 3 l 9,3 v 3 l 3,-1 3,3 -3,4 2,2 -2,3 3,2 -1,2 3,2 1,6 -3,3 v 4 l -2,1 h 2 v 2 h 2 l 3,3 -3,5 -5,2 v 5 l 3,2 2,-2 h 3 l 3,6 2,-2 1,7 -2,5 2,3 h 3 l -2,5 1,3 3,2 3,6 4,1 2,-3 h 4 l 3,-3 -2,-3 10,-1 10,-10 v -4 l 4,-6 v -2 l -3,-1 -1,-5 2,-1 -3,-8 2,-2 -1,-3 2,-2 v -6 h 2 l 3,-5 1,-6 6,-2 2,1 v -2 l 3,-3 -3,-1 1,-5 2,-2 -1,-10 -6,-3 -1,-4 3,-2 v -2 l -5,-4 v 3 l -2,1 1,1 -6,2 1,9 -3,5 h -8 l -2,-5 h -3 l -4,7 -6,3 1,2 -3,1 -2,8 -3,-3 v -7 l -3,-1 -1,-2 2,-1 v -2 l -5,-5 -5,-1 2,-4 -3,-1 -1,-2 2,-8 -6,-4 v -5 l -3,-2 -1,-5 -3,2 v 2 l -3,-1 1,3 -4,-2 -1,2 -2,-1 -2,2 -1,3 3,-1 -1,4 1,-1 5,3 v 2 l -1,-1 -2,2 3,1 -3,2 -1,-2 -2,3 1,1 -2,1 4,1 z"
     id="450400" />
  <path
     class="leaflet-interactive"
     stroke="#333333"
     stroke-opacity="1"
     stroke-width="1"
     stroke-linecap="round"
     stroke-linejoin="round"
     stroke-dasharray="1, 6"
     fill="#eeeeee"
     fill-opacity="0.5"
     fill-rule="evenodd"
     d="m 610,434 -6,3 -6,-3 h -2 v 2 h -2 l -1,-2 -2,2 -2,-2 v 2 h -2 l 1,1 -2,1 -6,1 -2,-2 -3,2 h -4 l -3,2 1,1 -2,3 -6,2 1,5 2,4 16,2 1,2 -2,3 -5,1 -1,3 8,4 10,-4 h 14 l 5,-6 v -2 l 5,6 5,1 v -14 h -4 l -1,-2 1,-15 h -5 z m -34,62 1,1 3,-3 -1,-2 -3,2 z m 8,8 v -1 z"
     id="450500" />
  <path
     class="leaflet-interactive"
     stroke="#333333"
     stroke-opacity="1"
     stroke-width="1"
     stroke-linecap="round"
     stroke-linejoin="round"
     stroke-dasharray="1, 6"
     fill="#eeeeee"
     fill-opacity="0.5"
     fill-rule="evenodd"
     d="m 513,402 -7,3 -3,6 h -2 v 3 l -5,-1 -14,3 3,4 v 4 l -6,6 1,2 -3,3 2,3 v 5 l -2,5 -4,4 1,4 2,1 2,-2 h 10 l 2,-2 6,-1 3,1 1,4 h 2 l 2,3 h 6 l 3,2 6,-1 -3,-2 6,-3 1,1 -3,5 1,1 6,-3 h 9 l 5,-4 4,-6 -1,-2 -5,-1 1,-3 -4,-6 1,-2 -9,-3 -5,1 v -2 l -4,-3 v -3 l 2,-2 h -2 l 1,-4 -2,-2 3,-3 h 2 l 1,-3 h -2 v -4 h -5 l -4,-5 z"
     id="450600" />
  <path
     class="leaflet-interactive"
     stroke="#333333"
     stroke-opacity="1"
     stroke-width="1"
     stroke-linecap="round"
     stroke-linejoin="round"
     stroke-dasharray="1, 6"
     fill="#eeeeee"
     fill-opacity="0.5"
     fill-rule="evenodd"
     d="m 610,434 -2,-3 1,-4 -3,-6 1,-6 2,-1 v -6 l 3,-2 2,1 -1,-1 3,-3 9,3 1,-4 -3,-4 4,-5 -2,-5 -3,-1 -5,2 -4,-4 v -3 l -2,1 -3,-2 -4,3 h -11 l -4,5 2,3 -3,2 -6,-4 v 2 l -2,1 h -7 l -4,-3 -1,2 -4,1 -3,-3 -2,2 -2,-1 -1,2 -4,1 1,3 -3,1 -3,-2 -2,3 -1,-1 -2,2 v 7 l -4,5 -5,-2 -4,1 -11,7 2,2 -1,3 2,1 -2,2 v 3 l 4,3 v 2 l 9,-1 4,2 v 3 l 4,5 -1,4 5,1 v 3 l 2,-1 3,3 1,-1 2,2 -2,2 h 2 l 1,-3 1,3 8,-2 -1,-7 6,-2 2,-3 -1,-1 3,-2 h 4 l 2,-2 2,2 7,-1 3,-2 v -2 l 2,2 2,-2 1,2 h 2 v -2 h 3 l 1,2 1,-1 3,2 5,-3 z m -49,21 -1,1 2,1 z"
     id="450700" />
  <path
     class="leaflet-interactive"
     stroke="#333333"
     stroke-opacity="1"
     stroke-width="1"
     stroke-linecap="round"
     stroke-linejoin="round"
     stroke-dasharray="1, 6"
     fill="#eeeeee"
     fill-opacity="0.5"
     fill-rule="evenodd"
     d="m 613,382 4,-2 1,-3 4,-1 -3,-6 3,-1 1,-3 3,1 -2,-6 -2,-1 1,1 8,-4 8,6 1,-2 3,5 6,-1 1,3 h 2 v -4 l 4,-9 3,1 2,-2 h 6 v -2 l 3,-2 v -5 l 7,-4 1,-3 -3,-3 -1,1 -1,-3 h -2 l 2,-1 v -5 l 3,-2 -1,-6 -5,-7 2,-1 v -2 l -2,-1 3,-4 -2,-3 -4,1 v -3 l -9,-3 v -2 l 3,-3 -1,-6 -5,2 -1,12 -2,-3 -3,-1 -2,3 h -4 l -3,4 -6,3 -4,7 v 5 l -2,3 1,2 -3,6 -4,-4 -3,3 -1,-1 -2,4 -3,-2 -7,9 -6,-5 h -5 v -2 l -2,-1 -5,5 -4,1 2,4 h -2 l 3,4 v 9 l 3,-1 3,2 -2,4 7,8 4,1 -2,2 2,3 h 3 l -2,2 5,2 v 2 l 3,3 v 3 z"
     id="450800" />
  <path
     class="leaflet-interactive"
     stroke="#333333"
     stroke-opacity="1"
     stroke-width="1"
     stroke-linecap="round"
     stroke-linejoin="round"
     stroke-dasharray="1, 6"
     fill="#eeeeee"
     fill-opacity="0.5"
     fill-rule="evenodd"
     d="m 613,382 1,4 5,3 2,-2 3,1 3,4 -4,5 3,4 -1,5 -2,1 -5,-5 -5,4 1,1 -2,-1 -3,2 v 5 l -2,2 -1,5 3,6 v 8 l 1,-1 1,2 5,1 -1,14 3,2 2,-1 2,3 8,-3 -1,-1 2,-8 4,-6 4,2 2,-2 1,1 1,-2 h 4 l 3,2 4,-3 2,2 h 4 l 1,-1 -3,-6 1,-10 -3,-2 2,-2 2,2 2,-3 5,3 -1,1 h 2 l 3,-4 5,4 3,-3 -2,-4 h 2 l 3,-3 4,1 -3,-6 -2,-1 v -4 l -2,-3 h 4 l 2,-8 2,2 2,-2 h 4 l -3,-8 -4,-1 -1,-3 2,-6 h -2 l -3,-3 2,-5 -1,-7 -1,2 -1,-2 h -2 l -1,-3 -3,-1 -2,2 -3,-2 -7,5 h -7 l -4,8 v 5 h -2 l -1,-3 -6,1 -2,-5 -4,1 -5,-5 h -4 l -5,4 -1,-1 4,5 -2,1 h 2 -3 l -1,3 -2,-1 -1,2 3,6 -8,5 z"
     id="450900" />
  <path
     class="leaflet-interactive"
     stroke="#333333"
     stroke-opacity="1"
     stroke-width="1"
     stroke-linecap="round"
     stroke-linejoin="round"
     stroke-dasharray="1, 6"
     fill="#eeeeee"
     fill-opacity="0.5"
     fill-rule="evenodd"
     d="m 414,212 -16,7 h -6 l -3,2 -1,-1 -1,1 4,7 -2,7 -2,-1 v 2 l -4,2 -4,6 -5,-5 v -2 l -9,2 -8,-6 -2,1 -3,-3 h -7 l -4,-9 -10,1 -4,-5 -8,5 -3,4 -1,6 -10,3 -2,5 -5,1 -2,3 -6,-3 -5,-5 h -2 l -4,6 2,1 5,15 h 3 l -1,3 h 2 l 4,4 1,-9 3,-1 11,3 8,-2 4,5 h 2 l 3,3 -2,4 5,5 -2,3 h -2 v 2 l 7,5 -1,-2 2,-2 7,6 6,1 2,-8 h 6 l 1,7 8,-3 2,1 v 3 l 4,-3 2,1 1,-5 h 6 l 3,3 v 2 l 3,2 -1,2 7,8 v 3 l -4,3 2,5 -3,8 2,3 h -2 v 2 l -7,6 -1,-3 -5,-1 -2,-2 -4,1 -1,4 -7,4 h -4 l 4,3 v 2 l -1,1 -1,-2 -5,3 -4,5 2,3 -1,1 2,1 v 7 h 9 l 6,5 h 2 l 3,5 3,-2 4,1 2,-4 h 8 l 4,1 5,8 4,1 7,-4 1,1 4,-4 2,2 2,-1 4,5 10,-14 -3,-1 1,-7 8,-3 2,-5 6,-1 2,2 h 4 l 5,-4 3,1 4,-2 3,2 2,4 -1,1 2,1 2,-2 2,1 v 2 l 1,-1 5,2 2,-2 v -4 l 7,1 3,-2 1,-3 4,1 4,-7 -1,-1 -2,2 -6,-2 -1,-2 1,-3 -3,-5 2,-4 6,-2 v -4 l -2,-2 h -2 l -2,-3 -6,2 -4,-2 v -2 l -3,-1 1,-2 -2,-1 -5,4 -4,-6 h -3 l -3,-6 -3,3 -4,-1 -3,-5 -4,-1 -3,3 -5,-5 2,-1 -1,-1 h -4 l -2,-5 4,-3 -2,-4 1,-6 -1,-2 -3,-1 -2,-6 -3,-2 1,-4 -2,-2 h -4 l 3,-3 5,-1 -3,-4 -7,-4 2,-2 6,2 4,-6 -8,-10 1,-2 h 2 l -3,-5 -3,3 h -6 z m -95,11 v 1 z"
     id="451000" />
  <path
     class="leaflet-interactive"
     stroke="#333333"
     stroke-opacity="1"
     stroke-width="1"
     stroke-linecap="round"
     stroke-linejoin="round"
     stroke-dasharray="1, 6"
     fill="#eeeeee"
     fill-opacity="0.5"
     fill-rule="evenodd"
     d="m 742,300 10,2 v -6 l 3,-2 -1,-1 5,-1 1,-3 -4,-7 v -10 l 2,1 3,-3 h 2 l 5,-6 -1,-5 -4,-4 1,-6 -5,-5 2,-7 3,-1 -2,-2 -6,1 -3,-2 h -8 l -3,2 -2,5 h -3 l -1,3 -8,-3 2,-5 -2,-10 2,-2 -3,-3 3,-3 -4,-3 1,-3 -3,-3 -1,2 h -3 l -2,-3 h -2 l -3,5 -7,3 v 9 l 4,2 v 7 l -7,8 -3,1 v 3 l -2,2 4,6 v 3 l -3,6 h -2 l 4,1 v 2 l -3,2 -2,-2 -4,5 v -4 l -2,-1 -1,-4 h -2 l -2,5 -6,-2 -4,-4 -2,1 -1,4 3,1 v 6 l 6,4 -2,4 1,6 3,1 -2,4 5,1 5,5 v 2 h -2 l 4,4 -1,1 2,8 3,-1 1,-6 3,-1 v -3 l 1,1 4,-3 4,-7 h 3 l 2,5 2,-1 6,2 3,-6 -1,-9 5,-1 2,-5 4,1 1,4 -3,2 v 2 l 2,3 1,-1 4,3 v 7 z"
     id="451100" />
  <path
     class="leaflet-interactive"
     stroke="#333333"
     stroke-opacity="1"
     stroke-width="1"
     stroke-linecap="round"
     stroke-linejoin="round"
     stroke-dasharray="1, 6"
     fill="#eeeeee"
     fill-opacity="0.5"
     fill-rule="evenodd"
     d="m 414,212 3,2 5,-1 2,-3 2,1 -1,1 2,2 -1,2 h -2 l 8,10 -4,7 -3,-2 h -3 l -2,2 7,4 3,4 -5,1 -3,3 6,2 v 5 l 2,1 2,6 3,1 1,2 -1,6 2,4 -4,3 2,5 h 4 l 1,1 -2,1 5,5 3,-3 3,1 4,5 4,1 2,-3 3,6 h 4 l 4,6 4,-4 h 3 l -1,2 4,5 3,1 6,-2 2,3 h 2 l 2,2 v 4 l -7,3 v 6 l 3,-2 1,1 3,-3 2,1 6,-5 2,3 1,-4 h 2 l 1,-2 -2,-4 3,-3 3,1 2,-4 2,2 2,-4 2,4 3,1 2,-2 -1,-1 2,-4 3,-1 -1,-4 2,-3 2,-1 3,2 2,-2 5,2 -1,-2 3,-1 -1,-5 1,-2 3,1 2,-2 2,-5 -2,-1 v -2 l 1,-2 1,1 2,-2 -1,-1 2,-3 5,1 2,6 2,1 2,-2 v -6 h 5 v -4 l 3,-2 -1,-2 -5,1 -8,-5 5,-3 -1,-2 2,-2 h 2 l 1,-2 -3,-3 7,-8 h 4 l 1,2 3,-2 v -6 l -3,-3 -1,2 h -7 v -2 l 6,-5 2,-6 -3,-7 -3,3 -2,-1 -2,4 -4,-1 1,-1 h -4 l -3,3 -3,-1 -2,2 -3,-2 3,-4 -5,-4 v -4 l -4,-3 1,-1 -7,-8 h -5 l -4,-5 h -2 l -5,5 1,1 h -6 l 2,2 -1,2 -2,-1 -2,14 h -4 l -12,4 -2,2 h -4 l -1,-1 2,-1 -2,-6 -1,-1 -3,4 -3,-9 -4,5 -7,3 v -7 l -2,1 -3,-4 1,-2 -2,-3 -5,1 1,-7 -6,-4 v -4 l -11,4 v 4 l -4,1 -2,4 1,5 h 2 v 5 l -2,2 1,1 h -6 l -1,5 h -14 l -6,6 z"
     id="451200" />
  <path
     class="leaflet-interactive"
     stroke="#333333"
     stroke-opacity="1"
     stroke-width="1"
     stroke-linecap="round"
     stroke-linejoin="round"
     stroke-dasharray="1, 6"
     fill="#eeeeee"
     fill-opacity="0.5"
     fill-rule="evenodd"
     d="m 565,270 -3,-1 v -3 l -3,-3 -4,-1 -2,2 v 3 l -3,1 1,4 -2,6 h -4 l -1,2 1,5 h -3 l 1,2 -2,1 -3,-2 v 3 l -4,2 v 3 h 2 l -1,1 2,1 -4,5 5,5 -1,1 2,4 6,-5 6,-3 1,1 1,-2 4,3 1,3 -2,3 2,3 -1,1 3,7 -1,1 7,6 v 4 l 8,1 v 2 l 3,-2 -1,2 2,2 2,-1 3,3 1,-3 1,1 -1,-3 4,-1 4,-5 6,4 4,-1 3,5 8,-9 4,2 1,-3 4,-3 3,1 1,2 3,-5 -1,-1 2,-4 v -5 l 5,-8 5,-2 4,-5 3,1 1,-3 5,2 1,2 1,-12 6,-3 h -4 l 3,-5 1,2 4,-2 -3,-1 2,-2 -2,-3 h -4 l 1,-4 -3,1 v -3 h -4 v -3 h -3 l -2,-2 2,-2 h -2 l 1,-3 -3,1 -5,-3 -4,10 1,3 -2,2 -4,2 -2,-1 v -2 h 2 l -2,-2 -4,2 1,1 h -4 v 2 l -8,6 h -4 l -1,4 -7,4 1,3 -5,6 h -4 l -2,-6 -3,-1 v -3 l -3,-1 -2,3 h -3 l -1,-3 h -4 l 2,-2 -9,-3 -3,-9 z"
     id="451300" />
  <path
     class="leaflet-interactive"
     stroke="#333333"
     stroke-opacity="1"
     stroke-width="1"
     stroke-linecap="round"
     stroke-linejoin="round"
     stroke-dasharray="1, 6"
     fill="#eeeeee"
     fill-opacity="0.5"
     fill-rule="evenodd"
     d="m 421,366 h 2 v 2 l 4,3 5,1 -1,3 -4,2 1,2 -2,1 1,1 -3,3 -1,4 -5,-2 -1,1 -3,9 2,5 -2,2 1,2 h 4 l 4,8 -2,2 2,2 -1,2 2,3 -2,8 1,1 3,-4 4,3 h 7 l 2,4 3,-2 3,1 1,3 -3,2 v 2 l 5,2 7,6 3,1 3,-3 5,7 -1,3 h 2 l 4,-4 4,-1 v -2 l 3,-2 1,-8 -2,-4 3,-3 -1,-1 3,-3 v -2 l 4,-4 -4,-6 13,-3 6,1 1,-4 1,1 3,-6 h 2 l 1,-2 2,1 3,-3 -4,-6 h -3 l -2,-2 3,-3 -2,-2 1,-2 5,-1 v -6 l -1,3 -2,1 -3,-3 3,-6 -3,-1 -2,-4 -11,-2 -5,-5 h -5 l 4,4 v 2 l -2,1 -1,-4 h -2 l -7,4 -2,-2 v -11 l -9,-1 3,-3 -4,-3 4,-8 -2,-5 -5,-2 -2,2 -3,-1 -5,4 h -4 l -2,-2 -6,1 -2,5 -8,3 -1,7 3,1 -1,3 -8,8 z"
     id="451400" />
</svg>
