<?xml version="1.0" encoding="UTF-8" standalone="no"?>
<svg
   pointer-events="none"
   class="leaflet-zoom-animated"
   width="1447"
   height="865"
   viewBox="-121 -72 1447 865"
   style="transform: translate3d(-121px, -72px, 0px);"
   version="1.1"
   id="svg1"
   sodipodi:docname="新疆维吾尔自治区.svg"
   inkscape:version="1.4 (86a8ad7, 2024-10-11)"
   xmlns:inkscape="http://www.inkscape.org/namespaces/inkscape"
   xmlns:sodipodi="http://sodipodi.sourceforge.net/DTD/sodipodi-0.dtd"
   xmlns="http://www.w3.org/2000/svg"
   xmlns:svg="http://www.w3.org/2000/svg">
  <defs
     id="defs1" />
  <sodipodi:namedview
     id="namedview1"
     pagecolor="#ffffff"
     bordercolor="#000000"
     borderopacity="0.25"
     inkscape:showpageshadow="2"
     inkscape:pageopacity="0.0"
     inkscape:pagecheckerboard="0"
     inkscape:deskcolor="#d1d1d1"
     inkscape:zoom="1.7965318"
     inkscape:cx="783.45399"
     inkscape:cy="489.55438"
     inkscape:window-width="1920"
     inkscape:window-height="991"
     inkscape:window-x="-9"
     inkscape:window-y="1341"
     inkscape:window-maximized="1"
     inkscape:current-layer="svg1" />
  <path
     class="leaflet-interactive"
     stroke="#000000"
     stroke-opacity="1"
     stroke-width="2"
     stroke-linecap="round"
     stroke-linejoin="round"
     fill="#ffffff"
     fill-opacity="0.2"
     fill-rule="evenodd"
     d="m 737,216 -1,-5 -2,-2 -12,-6 3,-4 -3,-3 -1,1 -4,-5 1,-2 h 2 l -2,-8 -5,1 -3,3 -3,-2 -7,-1 -3,1 -3,4 v 4 l 2,2 -2,1 1,3 -5,6 -8,4 h -9 l -3,2 -4,11 2,17 2,4 v 7 l -3,3 v 2 h -6 l -8,7 -5,-5 h -12 l -3,2 -7,-3 -1,1 -13,-8 -3,1 -5,21 -10,22 -2,10 v 2 l 8,7 -1,4 -2,1 -4,-2 h -9 l -3,-5 -5,2 -1,2 h -4 l -7,4 -2,-1 -1,2 -4,-2 -1,2 h -4 l -3,3 -5,-1 -6,5 2,1 v 2 l 4,-1 1,3 3,1 2,3 -2,4 2,7 -1,5 2,2 1,8 6,10 -2,5 2,1 1,4 -10,4 5,4 -8,3 -2,6 3,12 -3,1 1,4 -6,1 -4,4 -14,5 -11,8 -8,3 -2,-1 -2,6 -7,2 -1,4 h -14 l -4,-2 -6,5 v 3 l -2,2 1,2 -4,8 -4,2 -1,-2 -7,1 -1,3 h -5 v -6 l -2,-1 -1,-4 -3,1 v 2 h -2 l -3,3 -8,-2 -2,2 3,3 -1,1 -4,-1 -8,8 h -8 l -2,6 -2,1 v 3 h 2 l 1,4 -2,4 h -5 l -3,3 v 3 l 3,1 2,6 h 2 v 2 l -3,2 2,4 -1,1 2,2 -1,1 5,3 3,-3 v -2 l 7,2 1,-1 7,3 2,4 -2,2 v 5 l 4,11 -2,3 1,3 5,3 v 4 l -8,3 -2,-2 -1,2 -3,-1 -2,3 1,3 1,-1 1,2 3,-2 4,4 7,-2 -1,1 2,1 h 4 l 1,7 4,-2 5,3 2,2 2,5 -1,2 2,3 -3,3 v 2 l 4,1 1,6 h 5 l 4,-3 v 3 l 5,4 12,4 2,2 h 8 l 2,-2 2,2 5,-1 -3,4 v 3 l 1,4 h 2 l 3,13 7,2 v 2 l 3,-1 4,5 h 4 l -1,-2 3,-1 5,1 4,-2 h 6 l 6,-16 4,-2 v -2 h 3 l -2,-2 v -3 l 3,-1 h 4 l 4,3 h 6 l 1,-3 1,2 h 6 l 3,3 h 8 l 4,-2 v -3 l 9,-8 h 2 l 5,2 5,-1 v 4 l 4,4 2,-1 6,2 h 9 l 3,-2 2,2 7,-3 3,-4 6,-1 5,-3 5,-1 7,4 2,-3 9,-3 4,-5 -1,-3 5,-2 h 5 l 6,-3 4,1 8,-4 1,2 h 3 l 20,-4 3,1 4,5 1,-2 h 3 l 6,3 h 4 l 2,3 7,2 h 3 l 3,-5 17,4 1,2 6,-2 -2,-10 1,-2 -5,-1 -3,-3 1,-5 3,-2 h 4 l 2,-3 h 4 v -2 l -3,-3 -3,-8 h -3 l -3,-5 -5,-2 -1,-17 -6,2 -3,-3 v -4 h 7 l 5,-5 12,-2 6,-3 21,-5 1,-1 -2,-6 7,-8 7,-32 19,-3 1,-6 4,-7 12,-12 5,-1 3,-4 6,-3 2,5 2,1 v -2 l 4,-4 8,-2 6,-5 1,-2 -2,-3 3,-2 -4,-3 1,-3 h -2 l 1,-4 8,-5 v -6 l -10,-10 -9,-24 -5,-1 1,-6 2,-2 -1,-1 -9,2 -1,-2 -5,-1 -9,-8 h -2 l -4,-5 -16,-8 h -9 l -2,-2 -9,2 -9,-3 -9,1 -6,-3 h -5 l -1,-2 -7,1 -5,-12 1,-6 7,-9 v -4 l -3,-6 5,-8 -2,-7 -2,-2 1,-2 -3,-4 -2,1 -6,-11 1,-2 -2,-2 1,-1 -3,-8 h -3 l -3,-3 v -3 l -7,1 -1,-2 h -2 l -2,-5 -11,2 -9,-7 z"
     id="新疆维吾尔自治区" />
  <path
     class="leaflet-interactive"
     stroke="#333333"
     stroke-opacity="1"
     stroke-width="1"
     stroke-linecap="round"
     stroke-linejoin="round"
     stroke-dasharray="1, 6"
     fill="#eeeeee"
     fill-opacity="0.5"
     fill-rule="evenodd"
     d="m 711,352 -1,-1 -4,4 -1,7 -8,10 1,3 -3,7 1,1 10,1 6,4 h 5 l 3,2 -3,-4 -9,-5 v -5 l 5,1 15,-2 -1,2 5,2 3,-5 9,-2 v -7 l -5,-2 -5,-5 -1,2 -4,-1 -2,2 -9,-11 v -7 l 5,-21 h -16 l 6,13 v 4 h 2 l 1,3 -1,5 -2,-1 -2,8 z"
     id="650100" />
  <path
     class="leaflet-interactive"
     stroke="#333333"
     stroke-opacity="1"
     stroke-width="1"
     stroke-linecap="round"
     stroke-linejoin="round"
     stroke-dasharray="1, 6"
     fill="#eeeeee"
     fill-opacity="0.5"
     fill-rule="evenodd"
     d="m 654,330 1,-6 3,-1 v -2 h 2 l -1,-6 2,-7 3,-1 4,-6 v -4 l 10,-10 -3,-4 -2,1 -4,-2 -5,2 -4,4 1,2 -2,6 -3,3 h -3 l -1,2 -3,-1 1,2 -5,12 2,3 -1,3 4,1 3,7 z m 3,13 -8,-2 1,5 -2,4 4,-2 2,-4 h 3 z"
     id="650200" />
  <path
     class="leaflet-interactive"
     stroke="#333333"
     stroke-opacity="1"
     stroke-width="1"
     stroke-linecap="round"
     stroke-linejoin="round"
     stroke-dasharray="1, 6"
     fill="#eeeeee"
     fill-opacity="0.5"
     fill-rule="evenodd"
     d="m 811,438 -3,-22 -7,-8 1,-1 -2,-10 v -11 l -6,-16 -6,-2 -11,2 -4,-2 -14,4 -5,-1 -2,-3 -2,1 v -2 l -6,-2 v 7 l -9,2 -3,5 -4,-1 v -3 l -15,2 -5,-1 v 5 l 9,5 4,4 -8,-2 -2,3 4,2 4,-1 2,4 4,2 2,3 v 2 l -7,5 2,6 4,2 1,4 3,3 -1,8 16,3 1,-1 4,2 h 14 l 6,4 35,1 5,-2 z"
     id="650400" />
  <path
     class="leaflet-interactive"
     stroke="#333333"
     stroke-opacity="1"
     stroke-width="1"
     stroke-linecap="round"
     stroke-linejoin="round"
     stroke-dasharray="1, 6"
     fill="#eeeeee"
     fill-opacity="0.5"
     fill-rule="evenodd"
     d="m 803,319 -1,2 2,4 -4,4 -1,10 -2,3 1,10 6,9 -5,2 3,2 -8,5 3,5 3,11 v 11 l 2,10 -1,1 7,8 2,8 -1,7 2,3 v 4 l 44,12 8,-12 8,-7 5,-1 3,-4 6,-3 2,5 2,1 v -2 l 4,-4 8,-2 6,-5 1,-2 -2,-3 3,-2 -4,-3 1,-3 h -2 l 1,-4 8,-5 v -6 l -10,-10 -9,-24 -5,-1 1,-6 2,-2 -1,-1 -9,2 -1,-2 -5,-1 -9,-8 h -2 l -4,-5 -16,-8 h -9 l -2,-2 -9,2 -9,-3 h -12 z"
     id="650500" />
  <path
     class="leaflet-interactive"
     stroke="#333333"
     stroke-opacity="1"
     stroke-width="1"
     stroke-linecap="round"
     stroke-linejoin="round"
     stroke-dasharray="1, 6"
     fill="#eeeeee"
     fill-opacity="0.5"
     fill-rule="evenodd"
     d="m 783,306 -4,2 -6,14 h -50 l -6,28 5,3 1,5 3,3 3,-2 3,1 2,-2 1,2 10,6 5,1 v 2 l 2,-1 6,4 8,-1 6,-3 5,2 11,-2 3,2 h 4 l 1,-2 6,-2 1,-1 -4,-2 5,-1 -6,-9 -1,-11 2,-3 1,-9 4,-5 -2,-4 1,-2 -2,-2 h -5 l -1,-2 -7,1 -2,-8 z m -70,31 -6,-15 v -11 h -38 v 13 h 3 l 2,2 3,9 h 2 l -1,1 2,3 v 8 l -4,9 h -2 l -2,3 -2,7 -3,2 10,5 2,-1 2,4 5,2 2,3 6,1 4,-7 -1,-3 9,-12 2,-8 h 3 l 1,-5 -3,-4 1,-2 -2,-5 4,-1 z"
     id="652300" />
  <path
     class="leaflet-interactive"
     stroke="#333333"
     stroke-opacity="1"
     stroke-width="1"
     stroke-linecap="round"
     stroke-linejoin="round"
     stroke-dasharray="1, 6"
     fill="#eeeeee"
     fill-opacity="0.5"
     fill-rule="evenodd"
     d="m 590,331 v -3 l -5,3 v 4 l 3,1 -8,7 12,3 2,-1 8,7 12,-1 2,3 2,-1 v -5 l 3,-7 -1,-2 h 6 l 1,-2 v -6 l -3,-6 -6,-3 -13,-3 -2,-2 h -2 l -2,4 2,5 h 2 l -3,5 -6,2 h -6 l 1,-1 z m -1,-6 -4,-3 h 6 l 2,-4 h -2 l -1,-3 -6,-1 -3,-5 -5,2 -1,2 h -4 l -7,4 -2,-1 -1,2 -4,-2 -1,2 h -4 l -3,3 -5,-1 -6,5 2,1 v 2 l 6,-1 5,3 h 4 v 4 h 3 l 3,3 10,3 3,-1 4,3 1,-1 1,2 2,-3 6,-3 -3,-2 v -4 l 4,-3 1,3 2,-1 -3,-4 z m 3,5 -1,1 3,2 4,-1 v -2 l -6,-3 v 2 z m -3,-6 3,2 9,-2 -3,-5 -2,1 v 2 l -4,-1 -1,4 z m 10,-9 h -9 l 1,2 5,3 2,-1 1,2 3,-4 z"
     id="652700" />
  <path
     class="leaflet-interactive"
     stroke="#333333"
     stroke-opacity="1"
     stroke-width="1"
     stroke-linecap="round"
     stroke-linejoin="round"
     stroke-dasharray="1, 6"
     fill="#eeeeee"
     fill-opacity="0.5"
     fill-rule="evenodd"
     d="m 675,421 h -3 v 5 h -2 v -2 h -8 l 1,-3 3,-1 -6,-3 2,-4 -2,-6 h -5 l -3,-2 -3,2 v -2 l -8,-3 -4,1 -7,-3 1,7 -2,3 2,12 -2,6 3,5 1,10 -1,32 -14,17 v 32 l 11,12 2,16 -4,4 v 9 l 3,5 5,2 4,4 -1,4 3,4 h 3 v 2 l 7,3 1,9 2,2 6,-2 7,4 2,-3 9,-3 4,-5 -1,-3 10,-2 6,-3 4,1 8,-4 1,2 h 3 l 20,-4 3,1 4,5 1,-2 h 3 l 6,3 h 4 l 2,3 7,2 h 3 l 3,-5 17,4 1,2 6,-2 -2,-10 1,-2 -5,-1 -3,-3 1,-5 3,-2 h 4 l 2,-3 h 4 v -2 l -3,-3 -3,-8 h -3 l -3,-5 -5,-2 -1,-17 -6,2 -3,-3 v -4 h 7 l 5,-5 12,-2 6,-3 21,-5 1,-1 -2,-6 7,-8 7,-32 19,-3 1,-6 -13,-3 -9,-4 h -7 l -11,-5 h -7 l -3,2 -35,-1 -6,-4 -8,1 -2,-2 -4,1 -4,-2 -4,1 -3,-2 h -7 l -2,-1 v -8 l -3,-3 -1,-4 -4,-2 -2,-6 5,-3 2,-4 -8,-9 -4,1 -4,-2 -11,2 v 8 l -2,2 v -2 l -4,2 -3,4 v 2 l 3,2 -3,6 -3,1 1,3 -3,-1 -12,3 z m -75,-23 5,-2 v 2 h 9 l 6,4 5,-3 12,4 4,-1 8,3 v 2 l 2,-2 4,2 h 5 v 3 l 1,-1 1,2 -2,6 4,1 1,-8 6,3 v 2 h 6 v 2 l 3,2 9,2 -1,-3 3,-1 -1,-2 4,-4 -3,-4 3,-4 4,-2 v 2 l 3,-2 -2,-3 1,-5 10,-1 2,-4 -6,-4 h -8 l -5,-3 h -5 l -2,-3 -5,-2 -2,-4 -2,1 -11,-5 -1,2 -9,-2 -4,4 -5,-2 -1,5 h -2 l 2,5 h -5 v 2 l -3,-2 h -12 l -3,3 -1,-1 -7,3 h -9 l -5,4 -3,-1 -1,3 3,3 v 3 z m 72,23 13,1 -8,-5 v -2 h -6 v -2 l -6,-3 -1,8 7,3 z"
     id="652800" />
  <path
     class="leaflet-interactive"
     stroke="#333333"
     stroke-opacity="1"
     stroke-width="1"
     stroke-linecap="round"
     stroke-linejoin="round"
     stroke-dasharray="1, 6"
     fill="#eeeeee"
     fill-opacity="0.5"
     fill-rule="evenodd"
     d="m 503,476 h 2 l 10,-7 h 10 l 12,3 2,-7 -3,-3 3,1 2,-2 1,-9 2,-2 h 2 v 2 l 2,-1 3,2 3,5 3,-3 3,2 3,-2 8,-1 v -2 h 3 l 11,-5 2,-4 6,-4 h 3 l 3,-3 1,-5 8,3 1,4 7,5 2,-1 1,2 1,-2 h 2 l 3,4 1,-1 2,5 5,3 -1,-20 -3,-5 2,-6 -2,-12 v -2 l 2,-1 -1,-6 -5,-2 -5,3 -6,-4 -4,1 -2,-2 -3,2 v -2 h -2 l -8,2 -1,2 h -5 l -1,2 -3,1 -2,-1 -3,2 -9,1 -3,-1 -1,3 -4,-4 -4,2 h -12 v 3 l -3,1 v 5 h -5 l -4,4 -14,5 -16,10 1,3 6,5 3,8 -7,3 1,3 -2,4 -9,6 -2,8 h 6 z m 51,-18 v -2 l -1,1 -2,-4 -3,-2 -2,2 v -3 h -2 l -2,2 -1,9 -2,2 -2,-1 2,3 -4,22 9,5 h 74 l 14,-17 1,-22 -3,-1 -4,-7 -1,1 -3,-4 h -2 v 2 l -2,-2 -2,1 -7,-5 -1,-4 -8,-3 -2,6 -11,6 -7,11 5,8 -17,2 -6,-1 -5,2 -3,-1 1,-2 1,-1 3,2 -2,-3 -1,1 v -2 l -1,1 z"
     id="652900" />
  <path
     class="leaflet-interactive"
     stroke="#333333"
     stroke-opacity="1"
     stroke-width="1"
     stroke-linecap="round"
     stroke-linejoin="round"
     stroke-dasharray="1, 6"
     fill="#eeeeee"
     fill-opacity="0.5"
     fill-rule="evenodd"
     d="m 503,476 -1,-2 -5,1 -1,-5 4,-6 7,-4 2,-4 -1,-3 7,-3 v -3 l -11,-13 h -4 l -2,6 -7,2 -1,4 h -14 l -4,-2 -6,5 v 3 l -2,2 1,2 -4,8 -4,2 -1,-2 -7,1 -1,3 h -5 v -6 l -2,-1 -1,-4 -3,1 v 2 h -2 l -3,3 -8,-2 -2,2 3,3 -1,1 -4,-1 -8,8 h -8 l -2,6 -2,1 v 3 h 2 l 1,4 -2,4 h -5 l -3,3 v 3 l 3,1 2,6 h 2 v 2 l -3,2 2,4 -1,1 2,2 -1,1 5,3 3,-3 v -2 l 7,2 1,-1 7,3 2,4 -2,4 h 6 l 5,2 3,3 1,5 h 10 l -2,8 9,-5 1,3 4,-5 1,1 3,-10 v -6 l -3,-3 h -3 l 2,-1 v -2 h -6 l -9,-10 4,-2 h 5 l -2,-4 2,-1 -3,-2 -6,2 v 6 l -2,1 -3,-1 4,-9 h -2 l -1,3 -2,-1 -3,3 -2,-8 3,-3 -2,-4 h 7 l 5,2 8,-2 6,2 3,-1 5,-6 16,-2 6,-3 12,-1 z"
     id="653000" />
  <path
     class="leaflet-interactive"
     stroke="#333333"
     stroke-opacity="1"
     stroke-width="1"
     stroke-linecap="round"
     stroke-linejoin="round"
     stroke-dasharray="1, 6"
     fill="#eeeeee"
     fill-opacity="0.5"
     fill-rule="evenodd"
     d="m 422,527 4,14 -2,3 1,3 5,3 v 4 l -8,3 -2,-2 -1,2 -3,-1 -2,3 1,3 1,-1 1,2 3,-2 4,4 7,-2 -1,1 2,1 h 4 l 1,7 4,-2 5,3 2,2 2,5 -1,2 2,3 -3,3 v 2 l 4,1 1,6 h 5 l 4,-3 v 3 l 8,6 h 4 l 7,4 h 8 l 3,-6 -1,-7 h 2 l -4,-5 4,-3 -7,-4 -1,-3 -4,-3 h 3 l 3,-3 -4,-4 1,-3 3,-2 1,-4 -2,-5 1,-8 19,-24 18,-12 7,1 3,-20 -12,-7 -6,3 -5,-1 -1,-2 2,-3 1,4 2,-3 h 3 l -2,-1 v -2 l 3,-5 h 4 l -2,-6 h -6 l -10,7 -15,1 -13,4 h -9 l -1,3 -7,5 -6,-2 -8,2 -9,-3 -2,1 1,4 -3,3 2,8 7,-5 -3,9 1,1 4,-1 -1,-4 4,-4 6,1 -2,2 2,4 -9,2 6,7 5,3 h 4 v 2 l -2,1 h 3 l 3,3 v 6 l -3,8 1,2 h -2 l -3,4 -2,-3 -9,5 2,-7 -10,-1 -4,-8 -4,-2 h -5 z m 100,-42 12,7 3,-13 v -7 l -16,-3 2,6 6,-2 2,3 v 3 l -7,1 -1,4 z"
     id="653100" />
  <path
     class="leaflet-interactive"
     stroke="#333333"
     stroke-opacity="1"
     stroke-width="1"
     stroke-linecap="round"
     stroke-linejoin="round"
     stroke-dasharray="1, 6"
     fill="#eeeeee"
     fill-opacity="0.5"
     fill-rule="evenodd"
     d="m 550,584 h 14 l 5,4 2,-8 3,9 -2,11 5,4 v 3 l -3,5 1,1 h 8 l 4,-2 v -3 l 9,-8 7,2 5,-1 v 4 l 4,4 2,-1 6,2 h 9 l 3,-2 2,2 7,-3 3,-4 10,-3 -2,-2 -1,-9 -7,-3 v -2 h -3 l -3,-4 1,-4 -11,-8 -1,-12 4,-4 v -6 l -2,-10 -11,-12 v -32 h -74 l -9,-5 -4,24 h -7 l -18,12 -11,13 -3,4 11,4 4,-3 v 6 l 15,11 2,-1 -1,-5 h 3 v 2 l 10,-7 2,3 9,-9 v -3 l 6,-6 1,1 -3,3 1,5 -2,5 -9,6 -2,4 3,-1 1,2 -5,8 5,5 5,9 -2,4 z m -12,-34 -3,6 -4,-2 1,-4 -6,4 v 5 l -3,-2 -1,1 -17,-13 -3,1 1,-1 -11,-5 -4,7 -2,8 2,5 -1,4 -3,2 -1,3 4,4 -3,3 h -3 l 8,8 4,2 -4,3 v 2 l 4,3 h -2 l 1,7 -2,3 3,3 5,-1 -3,4 v 3 l 1,4 h 2 l 3,13 7,2 v 2 l 3,-1 4,5 h 4 l -1,-2 3,-1 5,1 4,-2 h 6 l 6,-16 4,-2 v -2 h 3 l -2,-2 v -3 l 7,-1 4,3 h 6 l 1,-3 1,2 h 6 l 2,2 3,-5 -1,-5 -4,-2 2,-11 -3,-10 -2,9 -10,-5 h -13 l 1,-6 -4,-7 -5,-4 1,-4 4,-5 v -2 l -4,1 1,-4 10,-6 2,-5 -1,-5 3,-3 -1,-1 -6,6 v 3 l -9,8 z m -4,3 4,-2 -2,-3 -3,1 -1,3 z m 1,2 1,-2 -5,1 4,2 z m 29,29 z"
     id="653200" />
  <path
     class="leaflet-interactive"
     stroke="#333333"
     stroke-opacity="1"
     stroke-width="1"
     stroke-linecap="round"
     stroke-linejoin="round"
     stroke-dasharray="1, 6"
     fill="#eeeeee"
     fill-opacity="0.5"
     fill-rule="evenodd"
     d="m 653,370 -1,-3 -7,-3 1,-1 -7,-1 -10,-7 h -6 l -1,-2 -6,1 -2,-3 -12,1 -8,-7 -2,1 -12,-3 -6,-4 -3,1 1,5 -6,7 -1,5 -4,-2 -2,1 7,2 -2,1 -7,-2 -1,2 2,2 v 2 l -3,1 3,6 -2,5 2,1 1,4 -10,4 5,4 -8,3 -2,6 2,4 -1,1 2,4 3,1 3,-2 6,1 4,-2 1,3 3,1 1,-3 2,1 10,-1 3,-2 2,1 8,-3 1,-2 6,-1 v -4 l -3,-3 1,-3 3,1 v -2 h 3 l 2,-2 h 9 l 7,-2 4,-3 h 14 l 1,2 v -2 h 4 l -1,-5 3,-1 v -4 l 5,2 z m -88,-15 4,-8 3,-1 -1,-5 -10,-4 -3,-3 h -3 v -3 l -9,-4 -1,3 3,1 2,3 -2,4 2,7 -1,5 4,3 v -5 h 2 l 2,9 4,-2 1,1 1,-2 z m 92,-12 3,-8 -1,-1 -8,2 -2,5 5,1 z m -102,19 -1,-1 z"
     id="654000" />
  <path
     class="leaflet-interactive"
     stroke="#333333"
     stroke-opacity="1"
     stroke-width="1"
     stroke-linecap="round"
     stroke-linejoin="round"
     stroke-dasharray="1, 6"
     fill="#eeeeee"
     fill-opacity="0.5"
     fill-rule="evenodd"
     d="m 647,319 -2,-7 5,-10 -1,-1 10,-5 2,-6 -1,-2 3,-3 -11,-6 v -6 l -5,-5 5,-7 -2,-4 -14,-1 -3,2 -7,-3 -1,1 -13,-8 -3,1 -6,24 -9,19 -2,12 8,7 -1,4 6,4 13,3 6,3 3,5 v 9 h -7 l 1,2 -3,7 2,6 2,-1 1,2 h 6 l 9,7 8,1 -1,1 7,3 1,3 3,-2 6,2 4,-2 2,1 -1,-1 4,-3 1,-6 2,-3 h 2 l 3,-6 -4,-7 v -3 l 2,1 1,-2 h 2 l -2,-3 1,-1 h -2 l -3,-9 -2,-2 h -3 v -13 l -9,1 v 9 h -2 v 2 l -3,1 -1,6 1,4 5,1 v 4 l -3,5 h -3 l -2,4 -4,2 2,-4 -1,-5 2,-3 v -4 l -5,-5 -1,-7 -2,1 1,-6 h 2 z m 13,-8 h 47 v -24 l -6,-14 3,-7 v -5 l -4,-4 1,-5 -11,3 -4,-2 -5,2 -20,-1 -12,9 -2,5 5,5 v 5 l 4,4 7,3 6,-3 4,2 2,-1 3,4 -10,10 -1,6 -7,7 z"
     id="654200" />
  <path
     class="leaflet-interactive"
     stroke="#333333"
     stroke-opacity="1"
     stroke-width="1"
     stroke-linecap="round"
     stroke-linejoin="round"
     stroke-dasharray="1, 6"
     fill="#eeeeee"
     fill-opacity="0.5"
     fill-rule="evenodd"
     d="m 732,248 -3,-2 1,-5 5,-10 -1,-1 h 3 l -3,-4 -3,-1 3,-2 -1,-4 4,-3 -1,-5 -14,-8 3,-4 -3,-3 -1,1 -4,-5 1,-2 h 2 l -2,-8 -5,1 -3,3 -8,-3 -5,1 -3,4 v 4 l 2,2 -2,1 1,3 -5,6 -8,4 h -9 l -3,2 -4,11 2,17 2,4 v 7 l -3,3 v 2 l 14,1 7,-2 2,2 11,-3 -1,-5 10,-5 h 2 v 2 h 7 v 2 l 1,-1 10,3 z m 5,-32 -4,3 1,4 -3,2 3,1 3,4 h -3 l 1,1 -5,9 -1,6 3,2 -3,4 -2,1 -9,-3 -3,-3 h -2 l -1,-5 -12,4 v 11 l 4,4 v 5 l -3,7 6,14 v 35 h 66 l 6,-13 4,-3 1,-8 7,-9 v -4 l -3,-6 5,-8 -2,-7 -2,-2 1,-2 -3,-4 -2,1 -6,-11 1,-2 -2,-2 1,-1 -3,-8 h -3 l -3,-3 v -3 l -7,1 -1,-2 h -2 l -2,-5 -11,2 -9,-7 z"
     id="654300" />
  <path
     class="leaflet-interactive"
     stroke="#333333"
     stroke-opacity="1"
     stroke-width="1"
     stroke-linecap="round"
     stroke-linejoin="round"
     stroke-dasharray="1, 6"
     fill="#eeeeee"
     fill-opacity="0.5"
     fill-rule="evenodd"
     d="m 680,340 h -5 l 2,9 2,1 1,-8 z"
     id="石河子市" />
  <path
     class="leaflet-interactive"
     stroke="#333333"
     stroke-opacity="1"
     stroke-width="1"
     stroke-linecap="round"
     stroke-linejoin="round"
     stroke-dasharray="1, 6"
     fill="#eeeeee"
     fill-opacity="0.5"
     fill-rule="evenodd"
     d="m 583,448 -11,4 -1,2 -8,1 -3,2 -2,-2 -2,1 -2,2 1,2 1,-1 v 2 l 1,-1 2,2 -2,1 -1,-2 -2,3 2,1 6,-2 6,1 17,-2 -5,-8 2,-4 z"
     id="阿拉尔市" />
  <path
     class="leaflet-interactive"
     stroke="#333333"
     stroke-opacity="1"
     stroke-width="1"
     stroke-linecap="round"
     stroke-linejoin="round"
     stroke-dasharray="1, 6"
     fill="#eeeeee"
     fill-opacity="0.5"
     fill-rule="evenodd"
     d="m 522,485 3,-3 -1,-1 7,-2 -2,-6 -10,2 v 2 l -3,2 v 2 l 2,1 -3,3 -2,1 v -4 l -3,2 4,4 6,-3 z"
     id="图木舒克市" />
  <path
     class="leaflet-interactive"
     stroke="#333333"
     stroke-opacity="1"
     stroke-width="1"
     stroke-linecap="round"
     stroke-linejoin="round"
     stroke-dasharray="1, 6"
     fill="#eeeeee"
     fill-opacity="0.5"
     fill-rule="evenodd"
     d="m 711,352 v 2 l 2,-8 2,2 1,-3 -1,-6 h -2 l -1,-4 -4,1 2,4 -1,3 3,4 -1,3 z"
     id="五家渠市" />
  <path
     class="leaflet-interactive"
     stroke="#333333"
     stroke-opacity="1"
     stroke-width="1"
     stroke-linecap="round"
     stroke-linejoin="round"
     stroke-dasharray="1, 6"
     fill="#eeeeee"
     fill-opacity="0.5"
     fill-rule="evenodd"
     d="m 712,244 1,3 14,6 5,-5 -12,-3 -1,1 1,-1 -3,-1 z m 0,-2 -1,1 z"
     id="北屯市" />
  <path
     class="leaflet-interactive"
     stroke="#333333"
     stroke-opacity="1"
     stroke-width="1"
     stroke-linecap="round"
     stroke-linejoin="round"
     stroke-dasharray="1, 6"
     fill="#eeeeee"
     fill-opacity="0.5"
     fill-rule="evenodd"
     d="m 666,419 -3,2 -1,3 h 8 v 2 h 2 l -1,-5 z m 13,3 -4,-1 -1,2 h 5 z m -15,-4 z"
     id="铁门关市" />
  <path
     class="leaflet-interactive"
     stroke="#333333"
     stroke-opacity="1"
     stroke-width="1"
     stroke-linecap="round"
     stroke-linejoin="round"
     stroke-dasharray="1, 6"
     fill="#eeeeee"
     fill-opacity="0.5"
     fill-rule="evenodd"
     d="m 591,328 1,-1 8,4 3,-4 -2,-1 v -2 l -4,2 -8,-1 v 2 z m 0,-6 h -6 l 2,2 h 4 z m 0,10 -1,-2 -2,3 h 2 z m 4,0 -1,1 z m 1,-12 -3,-2 -1,1 v 2 l 4,1 z"
     id="双河市" />
  <path
     class="leaflet-interactive"
     stroke="#333333"
     stroke-opacity="1"
     stroke-width="1"
     stroke-linecap="round"
     stroke-linejoin="round"
     stroke-dasharray="1, 6"
     fill="#eeeeee"
     fill-opacity="0.5"
     fill-rule="evenodd"
     d="m 550,351 2,9 2,2 3,-5 -2,-9 h -2 l 1,5 -2,-1 z m 7,6 7,2 2,-1 -6,-2 -1,1 z m 5,-1 3,1 v -2 l -2,-1 z m -7,6 v 2 l 3,-1 -2,-4 v 3 z m 9,-6 1,-1 z"
     id="可克达拉市" />
  <path
     class="leaflet-interactive"
     stroke="#333333"
     stroke-opacity="1"
     stroke-width="1"
     stroke-linecap="round"
     stroke-linejoin="round"
     stroke-dasharray="1, 6"
     fill="#eeeeee"
     fill-opacity="0.5"
     fill-rule="evenodd"
     d="m 532,552 v 1 z m 1,-3 1,-1 -2,2 1,1 z m -26,-2 v -6 l -4,2 -1,3 3,-1 2,3 z m 19,7 v -2 h -3 l 1,5 h -2 l 4,2 z m 38,31 v -2 z m -28,-38 z"
     id="昆玉市" />
  <path
     class="leaflet-interactive"
     stroke="#333333"
     stroke-opacity="1"
     stroke-width="1"
     stroke-linecap="round"
     stroke-linejoin="round"
     stroke-dasharray="1, 6"
     fill="#eeeeee"
     fill-opacity="0.5"
     fill-rule="evenodd"
     d="m 651,336 5,-2 -1,-4 -4,-3 1,-2 -2,-4 -4,-1 v -3 h -2 l -1,6 1,-1 2,2 v 5 l 5,5 z"
     id="胡杨河市" />
</svg>
