<?xml version="1.0" encoding="UTF-8" standalone="no"?>
<svg
   pointer-events="none"
   class="leaflet-zoom-animated"
   width="1447"
   height="865"
   viewBox="-121 -72 1447 865"
   style="transform: translate3d(-121px, -72px, 0px);"
   version="1.1"
   id="svg1"
   sodipodi:docname="江苏省.svg"
   inkscape:version="1.4 (86a8ad7, 2024-10-11)"
   xmlns:inkscape="http://www.inkscape.org/namespaces/inkscape"
   xmlns:sodipodi="http://sodipodi.sourceforge.net/DTD/sodipodi-0.dtd"
   xmlns="http://www.w3.org/2000/svg"
   xmlns:svg="http://www.w3.org/2000/svg">
  <defs
     id="defs1" />
  <sodipodi:namedview
     id="namedview1"
     pagecolor="#ffffff"
     bordercolor="#000000"
     borderopacity="0.25"
     inkscape:showpageshadow="2"
     inkscape:pageopacity="0.0"
     inkscape:pagecheckerboard="0"
     inkscape:deskcolor="#d1d1d1"
     inkscape:zoom="1.2104046"
     inkscape:cx="723.31184"
     inkscape:cy="432.5"
     inkscape:window-width="2400"
     inkscape:window-height="1261"
     inkscape:window-x="-9"
     inkscape:window-y="-9"
     inkscape:window-maximized="1"
     inkscape:current-layer="svg1" />
  <path
     class="leaflet-interactive"
     stroke="#000000"
     stroke-opacity="1"
     stroke-width="2"
     stroke-linecap="round"
     stroke-linejoin="round"
     fill="#ffffff"
     fill-opacity="0.2"
     fill-rule="evenodd"
     d="m 584,250 -3,2 -8,-1 -5,3 -1,-1 -1,3 h -4 l 1,-8 -4,-3 3,-3 1,-4 -9,-3 3,-5 -2,-2 1,-2 h -8 l -5,-3 -5,1 v 3 l -10,-1 1,15 -11,-4 -2,6 -5,1 -1,3 h -3 l -2,-2 -5,1 -8,-8 v -3 l -4,-2 -2,2 -5,1 2,2 -3,1 1,3 -2,1 1,2 h -2 v 3 l -7,2 -3,-10 v -7 l -3,-7 -2,1 -2,-2 1,-6 -4,-5 -5,-1 -2,-3 v -2 h 2 v -3 h -4 v -2 l 4,-1 h -4 v -3 l -5,-2 -1,-2 h -4 v -4 4 h -2 l 1,-4 -2,-1 v 7 l -14,-3 -2,2 -12,3 -2,-1 -4,6 -1,10 -3,1 v 3 l 2,2 -2,6 h 6 v 2 l 4,2 1,5 9,6 1,2 -3,1 16,2 8,9 5,-2 8,2 v 11 l 5,5 h 2 l -2,8 9,5 v 3 h 2 v 2 l 10,2 2,-2 3,1 4,-2 2,2 -1,1 6,4 7,-4 2,1 4,8 4,-3 v -3 l 5,5 v 6 l 3,5 h 5 l -1,11 -3,5 3,3 4,-2 10,1 -1,-1 h 4 l 2,-3 6,2 4,-3 h 4 l 3,3 h 3 l -2,1 1,8 -5,5 -1,15 -4,-2 -3,4 v 9 l -2,3 h -3 l 2,2 -2,6 -3,1 v 3 l 1,2 3,-1 v 3 l 5,7 10,-3 3,-6 3,2 1,12 h -2 l 3,3 2,9 5,2 -7,4 v 5 l 1,3 4,-1 2,5 -2,2 3,4 4,-1 v 4 l 4,2 4,-3 v 2 h 14 l 1,-2 10,2 2,-2 -1,-12 h 7 v -6 h 2 v -4 l 4,-2 5,3 5,-3 3,1 -1,5 h 3 l 1,4 4,5 8,1 2,8 1,18 h -3 v -3 l -3,4 1,2 -2,6 -6,4 -4,-7 -4,2 -5,-5 -5,-1 2,-3 -5,2 -2,-4 -4,2 -1,-2 -4,1 v -2 l -9,4 -1,-2 -5,1 v 2 l 4,3 1,3 -2,3 3,2 h 6 l -2,7 3,6 -2,1 1,2 -3,1 v 8 l -3,3 h -7 l -3,2 -1,-1 v 6 l -11,8 1,5 -3,9 10,6 v 3 l 3,1 -2,7 4,1 2,4 5,-3 4,1 v 2 l 4,2 -5,6 4,2 3,-1 v 2 l 4,-6 3,2 -1,1 2,4 2,-2 4,3 v 20 l -4,4 -6,2 v -3 l -1,1 -3,9 -1,-1 2,3 h 3 l 3,5 h 28 v -2 l 5,-5 h 4 v 3 l 1,-1 5,3 4,-2 2,1 2,-4 1,11 1,1 2,-2 v 3 l 2,-1 4,3 h 6 l 4,3 v 2 h 2 l 7,-6 3,1 3,-2 h 4 l 4,2 v -2 l 5,2 3,-2 8,16 12,9 16,1 5,-2 v 7 l 5,-2 v -2 l 2,2 v 5 l 2,2 -1,2 3,6 h 2 l 5,-8 6,-2 2,1 3,-4 1,2 2,-2 v -4 l -3,-4 1,-1 5,1 2,-4 3,-1 4,2 5,-3 v -7 l -4,-3 2,-3 9,1 9,-3 -2,-12 h 2 v -2 h 7 l -3,-3 1,-3 h -2 v -2 l 3,-2 v -4 l 2,-1 -2,-1 8,-4 v -2 l 1,2 9,-4 3,-4 -21,-22 h -3 l 10,-10 4,-2 h 5 l 6,4 4,7 10,3 5,4 34,9 v -11 l -7,-14 -3,-11 -9,-12 -20,-6 v -3 l -8,-3 4,-4 v -5 l -5,-4 v -8 l -2,-7 -3,-3 -11,-2 -10,-5 -3,-4 -15,-5 2,-5 -2,-3 -4,-2 5,-6 1,-11 -3,-6 -1,-10 -6,-4 -3,-18 1,-1 -3,-2 1,-5 -1,-2 h -4 l -3,-4 -5,-20 -7,-11 -9,-23 -8,-15 -5,-13 -5,-18 v -5 l -24,-14 -8,-4 -12,-2 -4,-4 -18,-9 -2,-4 -9,-5 2,-4 3,-1 -1,-1 -5,-2 h -7 l 11,-1 -4,-1 -1,-2 v 2 h -11 l -7,-3 -3,-4 1,-1 -2,-5 3,-17 4,-4 1,5 h 2 l -2,-4 1,-3 -2,-3 -10,1 -3,2 -1,4 h -11 l -13,3 v 10 l -3,3 -2,7 -3,1 v 5 h -3 l -2,4 2,3 2,-1 2,2 -9,5 -2,-2 -3,1 -3,-3 h -7 v 2 l -3,3 -2,-1 1,5 -2,2 -1,-1 -2,3 2,8 -2,6 z m 41,316 v 2 z M 856,458 h 3 z"
     id="江苏省" />
  <path
     class="leaflet-interactive"
     stroke="#333333"
     stroke-opacity="1"
     stroke-width="1"
     stroke-linecap="round"
     stroke-linejoin="round"
     stroke-dasharray="1, 6"
     fill="#eeeeee"
     fill-opacity="0.5"
     fill-rule="evenodd"
     d="m 644,465 -3,-6 -4,2 -5,-5 -5,-1 2,-3 -5,2 -2,-4 -4,2 -1,-2 -4,1 v -2 l -9,4 -1,-2 -5,1 v 2 l 4,3 1,3 -2,3 3,2 h 6 l -2,7 3,6 -2,1 1,2 -3,1 v 8 l -3,3 h -7 l -3,2 -1,-1 v 6 l -11,8 1,5 -3,9 10,6 v 3 l 3,1 -2,7 4,1 2,4 5,-3 4,1 v 2 l 4,2 -5,6 4,2 3,-1 v 2 l 4,-6 3,2 -1,1 2,4 2,-2 4,3 v 20 l -2,3 -8,3 v -3 l -4,7 v 3 l -1,-1 2,3 h 3 l 3,5 h 28 v -2 l 5,-5 h 2 l 3,-5 -1,-3 -3,-1 v -6 l -3,-1 2,-2 -1,-2 5,-4 h -2 v -2 l 3,-3 2,-6 h -2 l -2,-6 -12,-12 -7,3 2,-4 -3,-3 12,-4 1,-6 -4,-2 -2,1 -2,-2 2,-2 5,1 2,-2 -3,-6 1,-6 -2,-2 -2,1 -5,-2 12,-8 5,1 5,-3 -6,-3 h -9 l -4,-2 -1,-9 2,-2 -3,-6 3,-5 z m -19,101 v 2 z"
     id="320100" />
  <path
     class="leaflet-interactive"
     stroke="#333333"
     stroke-opacity="1"
     stroke-width="1"
     stroke-linecap="round"
     stroke-linejoin="round"
     stroke-dasharray="1, 6"
     fill="#eeeeee"
     fill-opacity="0.5"
     fill-rule="evenodd"
     d="m 686,605 4,3 v 2 h 2 l 7,-6 3,1 3,-2 h 4 l 4,2 v -2 l 5,2 21,-11 9,-9 11,-7 8,-4 9,-1 4,-6 3,-2 v 2 l 1,-1 -1,-6 h -4 l -1,-2 5,-2 v -4 h -2 l -1,-2 3,-4 -1,-8 h -5 v -5 l -7,-7 -7,-2 1,-1 -2,-7 -12,6 -15,-2 -4,-2 -2,2 v 2 l 2,1 -3,3 2,2 v 6 h 3 l 5,-4 h 8 l -2,4 3,7 h -4 l -1,9 -2,-1 v 4 l -6,7 1,3 h 3 l -1,1 3,4 -2,4 -4,3 -2,8 5,1 1,2 h -4 l -3,-3 2,-14 -7,-2 v -2 l -3,-2 h -7 l -1,2 h -2 l -2,-2 -7,-1 -4,-5 h -2 l -2,1 -1,4 h -2 l -2,6 h -2 v 3 l 2,1 -1,4 -2,-1 v 3 h -2 l 1,2 -2,16 3,2 -1,5 z"
     id="320200" />
  <path
     class="leaflet-interactive"
     stroke="#333333"
     stroke-opacity="1"
     stroke-width="1"
     stroke-linecap="round"
     stroke-linejoin="round"
     stroke-dasharray="1, 6"
     fill="#eeeeee"
     fill-opacity="0.5"
     fill-rule="evenodd"
     d="m 584,250 -3,2 -8,-1 -5,3 -1,-1 -1,3 h -4 l 1,-8 -4,-3 3,-3 1,-4 -9,-3 3,-5 -2,-2 1,-2 h -8 l -5,-3 -5,1 v 3 l -10,-1 1,15 -11,-4 -2,6 -5,1 -1,3 h -3 l -2,-2 -5,1 -8,-8 v -3 l -4,-2 -2,2 -5,1 2,2 -3,1 1,3 -2,1 1,2 h -2 v 3 l -7,2 -3,-10 v -7 l -3,-7 -2,1 -2,-2 1,-6 -4,-5 -5,-1 -2,-3 v -2 h 2 v -3 h -4 v -2 l 4,-1 h -4 v -3 l -5,-2 -1,-2 h -4 v -4 4 h -2 l 1,-4 -2,-1 v 7 l -14,-3 -2,2 -12,3 -2,-1 -4,6 -1,10 -3,1 v 3 l 2,2 -2,6 h 6 v 2 l 4,2 1,5 9,6 1,2 -3,1 16,2 8,9 5,-2 8,2 v 11 l 5,5 h 2 l -2,8 9,5 v 3 h 2 v 2 l 10,2 2,-2 3,1 4,-2 2,2 -1,1 6,4 7,-4 2,1 4,8 4,-3 v -3 l 5,5 v 6 l 3,5 h 5 l -1,11 -3,5 3,3 4,-2 10,1 -1,-1 h 4 l 2,-3 4,2 6,-3 h 4 l 3,3 3,-2 -2,-4 3,-3 -1,-4 -5,-10 -1,2 -3,-1 v -2 l -4,-2 -1,-2 1,-2 2,1 v -5 l -1,-4 h -4 v -6 l 5,-1 1,-2 6,4 2,-2 -1,-1 h 4 l 4,7 h 5 l 1,-2 17,2 3,-2 -2,-1 2,-5 4,1 1,-15 5,-2 -1,-3 2,-4 3,-2 v -2 l -3,-3 -5,1 v 2 l -6,-3 -5,4 -4,-2 -1,1 z"
     id="320300" />
  <path
     class="leaflet-interactive"
     stroke="#333333"
     stroke-opacity="1"
     stroke-width="1"
     stroke-linecap="round"
     stroke-linejoin="round"
     stroke-dasharray="1, 6"
     fill="#eeeeee"
     fill-opacity="0.5"
     fill-rule="evenodd"
     d="m 731,518 -5,-4 h -5 l -4,-5 h -6 l -3,4 v 7 l 2,3 h -3 l 2,1 -3,4 2,3 h 4 l -3,4 1,1 -3,-1 -2,9 -3,-1 -7,-7 -1,1 -4,-7 -6,1 -6,-4 -2,2 2,4 -1,1 -8,-4 -4,10 v 3 l 3,4 -3,5 -6,3 -5,11 2,-1 -5,5 2,10 3,2 1,3 -3,5 h 2 v 3 l 1,-1 5,3 4,-2 2,1 2,-4 v 9 l 2,3 2,-2 v 3 l 2,-1 4,3 h 6 l 2,-6 -3,-9 2,-10 -1,-2 h 2 v -3 l 2,1 2,-4 h -3 v -3 l 9,-12 h 2 l 3,5 7,1 3,2 h 2 l 1,-2 h 7 l 3,2 2,4 h 4 l 1,2 -2,12 1,2 5,1 v -2 h -3 l -2,-3 2,-6 5,-3 1,-4 -1,-2 -1,1 v -3 l -4,-2 v -2 l 6,-6 v -5 l 2,1 1,-9 h 4 l -3,-7 2,-4 h -8 l -5,4 h -3 l -2,-4 2,-1 -2,-3 3,-3 -2,-1 v -2 z"
     id="320400" />
  <path
     class="leaflet-interactive"
     stroke="#333333"
     stroke-opacity="1"
     stroke-width="1"
     stroke-linecap="round"
     stroke-linejoin="round"
     stroke-dasharray="1, 6"
     fill="#eeeeee"
     fill-opacity="0.5"
     fill-rule="evenodd"
     d="m 721,603 8,16 12,9 16,1 5,-2 v 7 l 5,-2 v -2 l 2,2 v 5 l 2,2 -1,2 3,6 h 2 l 5,-8 6,-2 2,1 3,-4 1,2 2,-2 v -4 l -3,-4 1,-1 5,1 2,-4 3,-1 4,2 5,-3 v -7 l -4,-3 2,-3 9,1 9,-3 -2,-12 h 2 v -2 h 7 l -3,-3 1,-3 h -2 v -2 l 3,-2 v -4 l 2,-1 -2,-1 8,-4 v -2 l 1,2 9,-4 3,-4 -21,-22 h -3 l -5,-3 -13,-1 -12,-24 -14,2 -10,-3 -1,-2 h -4 l -9,6 2,6 -1,2 7,2 7,7 v 5 h 5 l 1,8 -3,3 v 3 h 3 v 3 l -3,3 h -2 l 1,2 h 4 l 1,6 -1,1 v -2 l -3,2 -4,6 -9,1 -8,4 -11,7 -9,9 z"
     id="320500" />
  <path
     class="leaflet-interactive"
     stroke="#333333"
     stroke-opacity="1"
     stroke-width="1"
     stroke-linecap="round"
     stroke-linejoin="round"
     stroke-dasharray="1, 6"
     fill="#eeeeee"
     fill-opacity="0.5"
     fill-rule="evenodd"
     d="m 747,450 2,2 3,-1 1,2 2,22 2,1 4,-2 v 27 h 6 l 8,4 1,3 3,1 v 4 l 3,1 6,1 5,-2 h 7 l 12,24 13,1 5,3 10,-10 4,-2 h 5 l 6,4 4,7 10,3 5,4 34,9 v -11 l -7,-14 -3,-11 -9,-12 -20,-6 v -3 l -8,-3 4,-4 v -5 l -5,-4 v -8 l -2,-7 -3,-3 -11,-2 -10,-5 -3,-4 -15,-5 2,-5 -11,3 v 2 l -6,4 v -3 h -5 v 2 l -4,-2 -3,3 -3,-5 -1,2 v -3 l -2,-2 -5,2 -3,-1 -1,2 -5,-1 -1,-5 -5,-4 -5,2 -1,-1 -3,3 h -5 l 1,3 -2,5 z m 109,8 h 3 z"
     id="320600" />
  <path
     class="leaflet-interactive"
     stroke="#333333"
     stroke-opacity="1"
     stroke-width="1"
     stroke-linecap="round"
     stroke-linejoin="round"
     stroke-dasharray="1, 6"
     fill="#eeeeee"
     fill-opacity="0.5"
     fill-rule="evenodd"
     d="m 713,245 -4,-4 -18,-9 -2,-4 -9,-5 2,-4 3,-1 -1,-1 -5,-2 h -7 l 11,-1 -4,-1 -1,-2 v 2 h -11 l -7,-3 -3,-4 1,-1 -2,-5 2,-15 5,-6 1,5 h 2 l -2,-4 1,-3 -2,-3 h -2 l -8,1 -3,2 -1,4 h -11 l -13,3 v 10 l -3,3 -2,7 -3,1 v 5 h -3 l -2,4 2,3 2,-1 2,2 -9,5 -2,-2 -3,1 -3,-3 h -7 v 2 l -3,3 -2,-1 1,5 -2,2 -1,-1 -2,3 2,10 -2,3 -1,7 1,-1 4,2 5,-4 6,3 1,-3 h 3 l 4,3 -3,6 2,2 7,2 1,-1 1,3 7,-7 2,1 7,-2 1,3 4,-4 v -2 l 4,1 v -3 h 5 v 2 h -2 l -1,3 v 5 l 2,-1 -1,9 h 2 l 1,6 h 3 l 1,5 -2,2 5,3 v 3 l 6,6 h 13 l 2,4 1,-1 2,3 8,-6 3,3 1,-2 -2,-4 3,-2 -1,-3 h -3 l -2,-3 1,-4 -2,1 4,-5 14,-8 4,-7 5,-4 -2,-3 1,-5 2,-1 z"
     id="320700" />
  <path
     class="leaflet-interactive"
     stroke="#333333"
     stroke-opacity="1"
     stroke-width="1"
     stroke-linecap="round"
     stroke-linejoin="round"
     stroke-dasharray="1, 6"
     fill="#eeeeee"
     fill-opacity="0.5"
     fill-rule="evenodd"
     d="m 654,426 9,3 5,-2 1,-8 -2,-12 2,-1 2,-5 -2,-1 -4,-8 -5,-2 -2,1 v -6 l -7,-1 1,-7 2,-2 8,-1 -3,-5 5,-2 12,-1 5,-3 h 8 l 5,-3 -12,-11 1,-1 -4,-11 4,-1 -2,-4 3,-4 2,-8 3,-5 7,-6 v -5 h -2 l -2,-6 h -2 l -4,-4 -8,6 -2,-3 -1,1 -2,-4 h -13 l -6,-6 -2,1 v 3 l -11,10 1,3 -2,3 -2,1 -5,-2 -4,3 h -4 l -4,5 -2,8 2,8 -2,1 v 4 l -3,2 4,7 -2,14 -3,6 3,4 -25,9 -8,9 -15,-2 -3,2 v 10 h -2 l 3,3 2,9 5,2 -7,4 1,8 4,-1 2,5 -2,2 3,4 4,-1 1,5 3,1 4,-3 v 2 h 14 l 1,-2 10,2 2,-2 -1,-12 h 7 v -6 h 2 v -4 l 4,-2 5,3 5,-3 3,1 -1,5 h 3 l 1,4 5,5 z"
     id="320800" />
  <path
     class="leaflet-interactive"
     stroke="#333333"
     stroke-opacity="1"
     stroke-width="1"
     stroke-linecap="round"
     stroke-linejoin="round"
     stroke-dasharray="1, 6"
     fill="#eeeeee"
     fill-opacity="0.5"
     fill-rule="evenodd"
     d="m 818,444 -2,-3 -4,-2 5,-6 1,-13 -3,-4 -1,-10 -6,-4 -3,-18 1,-1 -3,-2 1,-5 -1,-2 h -4 l -3,-4 -5,-20 -7,-11 -22,-51 -5,-18 v -5 l -32,-18 -12,-2 -4,8 2,2 -9,12 -14,8 -4,4 h 2 l -1,4 2,3 1,-1 3,3 -3,3 2,3 -1,2 7,8 v 4 l -9,10 -3,10 -3,4 2,4 -3,1 3,11 -1,1 12,10 -5,4 1,3 h 3 l 4,10 4,-1 2,2 -2,6 3,1 v 4 h 2 v 5 l 8,-3 12,1 10,-4 12,5 8,1 v 20 l -2,2 -5,1 -4,-2 v 6 l 3,2 -3,3 1,1 -3,2 v 2 l 4,1 2,-2 v 2 l -9,11 -1,7 8,-1 v 2 l 2,-8 h 5 l 3,-3 1,1 5,-2 8,9 3,1 v -2 h 11 v 4 l 1,-2 3,5 3,-3 4,2 v -2 h 5 v 3 l 10,-7 z"
     id="320900" />
  <path
     class="leaflet-interactive"
     stroke="#333333"
     stroke-opacity="1"
     stroke-width="1"
     stroke-linecap="round"
     stroke-linejoin="round"
     stroke-dasharray="1, 6"
     fill="#eeeeee"
     fill-opacity="0.5"
     fill-rule="evenodd"
     d="m 658,491 h 15 l 4,-4 h 7 l 6,-3 v 6 l 4,-2 v 4 l 1,-4 3,-1 2,-3 2,1 3,-4 7,1 4,-8 -1,-2 2,-4 -2,-3 -3,-1 2,-8 -2,-3 v -6 l 3,-1 6,2 -2,-6 h -2 l -3,-7 3,-3 -7,-4 1,-5 -2,-3 v -4 l -5,2 -2,-3 v -9 l -2,-7 -4,-5 1,-4 4,-3 2,-4 h -2 l -1,-2 3,-4 -2,-2 h -5 v -4 h -2 l -1,-5 h -2 l -3,-4 -12,4 -12,1 -5,2 3,5 -10,2 -1,8 7,1 v 6 l 2,-1 5,2 4,8 2,1 v 2 l -4,4 2,12 -1,8 -5,2 -8,-3 3,27 h -3 v -3 l -3,4 1,2 -2,6 -6,4 -3,-1 -3,5 3,6 -2,1 1,9 4,3 h 9 z"
     id="321000" />
  <path
     class="leaflet-interactive"
     stroke="#333333"
     stroke-opacity="1"
     stroke-width="1"
     stroke-linecap="round"
     stroke-linejoin="round"
     stroke-dasharray="1, 6"
     fill="#eeeeee"
     fill-opacity="0.5"
     fill-rule="evenodd"
     d="m 659,555 6,-3 3,-5 v -3 l -3,-1 v -3 l 4,-10 8,4 1,-1 -2,-4 2,-2 6,4 6,-1 4,7 1,-1 2,3 8,5 2,-9 3,1 -1,-1 3,-4 h -3 l -3,-3 3,-3 -2,-2 h 3 l -2,-2 v -8 l 2,-3 4,-2 4,2 3,4 h 5 l -4,-8 -4,-18 -4,-5 -3,-2 h -6 l -3,4 -2,-1 -2,3 h -3 l -1,5 -1,-4 -1,2 h -2 v -6 h -3 l -3,4 -7,-1 -4,4 -12,-1 -3,1 2,1 -5,3 -5,-1 -8,4 -2,3 h -2 l 8,4 v 6 l 3,5 -2,3 h -7 l 2,3 h 5 l 1,5 -2,3 -1,-1 -10,4 3,5 h -2 v 2 l 7,-3 9,10 3,1 2,7 2,-1 z"
     id="321100" />
  <path
     class="leaflet-interactive"
     stroke="#333333"
     stroke-opacity="1"
     stroke-width="1"
     stroke-linecap="round"
     stroke-linejoin="round"
     stroke-dasharray="1, 6"
     fill="#eeeeee"
     fill-opacity="0.5"
     fill-rule="evenodd"
     d="m 779,513 1,-2 -4,-3 -1,-3 -8,-4 h -6 v -27 l -4,2 -2,-2 -3,-13 v -10 h -4 l -3,-4 -2,2 h -3 l -1,-2 1,-5 9,-11 v -2 l -4,3 -2,-1 v -3 l 3,-1 -1,-1 3,-4 -3,-2 v -6 l 4,2 5,-1 2,-2 v -20 l -8,-1 -12,-5 -5,3 h -17 l -8,3 v -4 l -2,-1 -1,-5 -2,4 -4,2 -1,4 4,6 2,7 v 9 l 2,3 4,-2 3,6 -2,6 h 4 l 1,3 3,1 -3,3 2,2 1,5 h 2 l 2,6 -8,-2 -1,1 v 6 l 2,3 -2,8 3,1 2,3 -2,3 v 9 l -3,2 6,6 4,18 4,8 4,4 5,2 15,2 11,-5 10,-7 h 4 l 1,2 z"
     id="321200" />
  <path
     class="leaflet-interactive"
     stroke="#333333"
     stroke-opacity="1"
     stroke-width="1"
     stroke-linecap="round"
     stroke-linejoin="round"
     stroke-dasharray="1, 6"
     fill="#eeeeee"
     fill-opacity="0.5"
     fill-rule="evenodd"
     d="m 654,288 v -3 l -3,-3 h -2 l 2,-2 -1,-5 h -3 l -1,-6 h -2 l 1,-9 -2,1 v -5 l 1,-3 h 2 v -2 h -5 v 2 h -4 v 2 l -4,4 -1,-3 -7,2 -2,-1 -7,7 -1,-3 -1,1 -9,-4 -2,2 1,3 -5,2 -1,3 v 12 l -4,-1 -2,4 2,2 -5,2 -8,-2 h -7 l -6,2 -4,-7 h -3 l -1,3 -4,-1 -3,-3 -1,2 -5,1 -1,4 2,3 3,-1 1,4 v 4 h -2 l -1,2 5,6 3,1 v -2 l 2,2 5,12 -3,3 2,4 v 2 l -2,1 1,8 -5,5 -1,15 -4,-2 -3,4 v 9 l -2,3 h -3 l 2,2 -1,4 -1,2 -3,1 1,5 3,-1 v 3 l 5,7 10,-3 3,-6 4,4 3,-2 15,2 8,-9 25,-9 -3,-4 3,-6 2,-14 -4,-7 3,-2 v -4 l 2,-1 -2,-13 3,-5 4,-3 9,-3 3,2 2,-1 2,-6 10,-10 1,-4 z"
     id="321300" />
</svg>
