<?xml version="1.0" encoding="UTF-8" standalone="no"?>
<svg
   pointer-events="none"
   class="leaflet-zoom-animated"
   width="1135"
   height="626"
   viewBox="-95 -52 1135 626"
   style="transform: translate3d(-95px, -52px, 0px);"
   version="1.1"
   id="svg1"
   sodipodi:docname="河南省.svg"
   inkscape:version="1.4 (86a8ad7, 2024-10-11)"
   xmlns:inkscape="http://www.inkscape.org/namespaces/inkscape"
   xmlns:sodipodi="http://sodipodi.sourceforge.net/DTD/sodipodi-0.dtd"
   xmlns="http://www.w3.org/2000/svg"
   xmlns:svg="http://www.w3.org/2000/svg">
  <defs
     id="defs1" />
  <sodipodi:namedview
     id="namedview1"
     pagecolor="#ffffff"
     bordercolor="#000000"
     borderopacity="0.25"
     inkscape:showpageshadow="2"
     inkscape:pageopacity="0.0"
     inkscape:pagecheckerboard="0"
     inkscape:deskcolor="#d1d1d1"
     inkscape:zoom="1.672524"
     inkscape:cx="567.70486"
     inkscape:cy="312.99999"
     inkscape:window-width="2400"
     inkscape:window-height="1261"
     inkscape:window-x="-9"
     inkscape:window-y="-9"
     inkscape:window-maximized="1"
     inkscape:current-layer="svg1" />
  <path
     class="leaflet-interactive"
     stroke="#000000"
     stroke-opacity="1"
     stroke-width="2"
     stroke-linecap="round"
     stroke-linejoin="round"
     fill="#ffffff"
     fill-opacity="0.2"
     fill-rule="evenodd"
     d="m 362,338 1,7 -2,3 2,3 v 4 l -2,1 v 7 l 4,3 -1,3 4,-2 2,4 3,1 1,4 -3,1 5,1 3,4 v 2 l -2,1 v 5 l 2,-1 3,4 3,1 3,6 h 4 l -1,2 h -2 l 3,1 5,9 h 2 l 3,-3 5,2 7,6 h 3 v 2 l 6,-1 2,5 4,-2 4,6 3,2 -1,-3 4,1 8,6 3,-4 5,2 v -2 h 5 l 1,-2 13,4 7,-4 2,2 h 7 l -1,-2 3,-2 8,4 1,-4 h 3 l 8,7 -1,1 2,2 h 3 l 2,2 6,-5 h 2 v 2 -2 l 2,-1 -1,-1 1,1 6,-6 4,1 v 3 h 2 v 7 l -2,1 v 2 l 3,4 -2,2 1,2 -2,2 -1,-1 1,4 3,3 -2,2 1,2 3,1 -1,3 2,1 1,5 h 3 l 2,-3 2,2 -1,3 3,5 4,-1 5,-4 v -2 l 1,1 2,-2 3,2 1,-1 3,6 9,3 6,-3 1,2 2,-2 2,5 -3,4 1,7 2,-2 h 3 l 2,3 h 2 l -1,1 h 4 l 5,5 h 7 l 2,-2 1,1 2,-4 5,2 3,-8 6,5 -2,7 1,2 h 2 l 1,3 6,-1 2,-2 -1,-6 4,-3 -1,-2 4,-3 v -3 l 3,-4 h 2 l 7,-6 4,1 2,-2 5,2 5,-3 -1,-10 2,-6 -1,-3 2,-2 v -6 l -2,-2 -3,-21 1,-1 -1,-2 h -2 l 5,-5 h -2 l -6,8 -1,-2 h -6 l 1,1 -2,1 1,1 -2,3 -2,1 -1,-2 -3,2 1,-1 -9,-9 v -2 h -9 v -2 h -4 l -3,-2 2,-4 -1,1 v -2 l -1,-1 v 2 l -1,-2 1,-8 h 2 l -2,-2 1,-3 h -2 l -2,-3 -7,-1 v -2 h -5 l -4,-3 v -4 h 3 l -3,-5 3,-5 3,2 v 2 l 5,2 h 6 l 4,-4 h 5 v -4 l 3,-6 -1,-2 2,-2 -1,-4 h -2 v -6 h 2 l 1,-4 -1,-1 h 3 l 5,-5 5,1 6,-2 -3,-9 1,-1 -3,-4 1,-2 h 3 l 1,-6 -6,-1 2,-2 -1,-1 2,-7 4,-2 v -2 l 8,-1 5,6 2,-3 2,2 h 3 l 2,3 -1,6 1,-1 3,2 v 5 l 4,3 v 2 h 2 l 1,3 7,-1 5,-4 h 4 l 1,-2 1,1 v -4 l 6,-3 1,1 2,-3 4,2 1,-6 -8,-13 3,-3 -2,-6 3,-2 -5,-2 -3,2 h -6 l -1,-4 -5,-4 -4,-1 -3,-6 2,-4 v -5 l -3,2 -4,-5 -3,2 -2,-2 -4,3 -7,1 -8,-3 -2,4 -4,-2 h -6 l -5,-6 v -7 l -3,-7 -5,-2 -5,1 v -4 l -3,-1 1,-3 -6,-4 -6,2 h -7 l -3,-4 -1,2 -2,-1 1,-3 h -2 l 4,-4 -2,-6 6,-2 -1,-4 h 2 l 5,-9 4,-2 -1,-2 h 8 l 9,-6 v -5 l 3,-1 v -2 l 8,-11 12,-2 v -3 l 5,-5 4,1 3,-3 -1,-3 h 2 l 1,-3 h 8 l 1,-6 1,1 2,-6 -3,-1 -4,5 -13,3 -1,3 h -5 l -4,4 h -4 l -7,4 -7,7 -2,-1 3,-10 -1,-3 2,-1 v -2 l 4,-1 -1,-4 3,-5 -1,-4 -3,3 -1,-2 v 2 h -2 v 3 l -2,1 -3,-2 -4,-7 -2,-1 -2,2 -2,-2 -2,1 v 2 l -3,-1 -1,6 -8,5 -2,-8 h -2 v 2 h -5 l -3,-3 -1,2 -1,-1 -7,2 -1,-2 -6,-3 -1,1 v -2 l -7,-2 -1,-3 -7,1 -1,-2 -1,2 h -2 l -3,-3 -5,1 -1,-2 2,-2 h -2 l -1,-3 -3,1 1,3 -3,-4 1,1 -3,3 -2,-4 -3,2 -6,-2 -2,8 -3,4 1,-1 2,2 h -2 l 1,1 -2,1 3,3 -4,1 2,1 -1,5 2,2 -1,3 h -3 v 9 l 2,3 h -3 l -2,2 v 9 l 2,1 v 4 l -4,-2 -1,1 1,2 -3,4 v 4 h -6 l -4,4 -3,-1 v 4 l -8,-2 v 4 l -4,6 -5,-3 h -3 v 5 l -3,1 -1,3 -3,1 -4,-2 -4,5 h -3 l -4,-5 -2,2 1,1 -5,1 -9,-2 -9,2 1,-3 -4,1 -7,-3 h -4 l 1,3 -2,4 v 11 l -6,-3 -9,1 -1,4 -1,-1 -1,2 -1,-1 -5,3 v 3 l -4,2 -3,6 -1,-1 -3,2 -7,1 -4,-1 -6,3 -5,-2 -3,4 -9,5 -3,-2 -3,7 h -2 l -1,2 -3,-3 h -2 l -3,4 h -21 l -1,3 h 2 l -3,3 3,8 4,2 1,-1 1,4 v 2 l -4,4 v 3 l 8,2 v 2 l 5,2 v 3 l -3,2 v 5 l 3,1 3,6 -6,4 3,4 2,-1 8,6 3,5 -1,2 5,5 h 3 l 4,4 z m 2,29 -2,1 z m 287,-212 1,-1 z M 540,436 v -2 l -2,1 v 2 l 1,-2 z m -67,-6 h -1 z"
     id="河南省" />
  <path
     class="leaflet-interactive"
     stroke="#333333"
     stroke-opacity="1"
     stroke-width="1"
     stroke-linecap="round"
     stroke-linejoin="round"
     stroke-dasharray="1, 6"
     fill="#eeeeee"
     fill-opacity="0.5"
     fill-rule="evenodd"
     d="m 569,232 -7,-3 h -6 l -4,5 -9,1 -5,-3 -4,1 -2,-2 h -4 l -3,-3 -6,1 -1,-2 h -4 l -2,3 -5,-1 -4,5 -4,1 1,2 -6,2 -4,-3 -3,3 -3,-2 -2,1 -1,3 h -3 v 2 h 6 l 2,4 -2,3 h -5 v 5 l 4,6 6,2 -2,-1 -3,5 h -6 l -2,-2 -3,1 v 11 h 5 l 4,4 5,-1 9,3 h 3 l 6,-4 v -2 l 2,1 3,-2 1,-4 h 2 l 2,3 1,-1 1,3 h 6 l 3,3 1,-1 6,3 8,-4 h 6 v -5 l 2,-4 2,-1 v 2 h 4 v -3 l 2,-2 4,1 v -6 l 4,-5 v -5 l -2,-3 3,-3 -4,-4 5,-1 2,-6 z"
     id="410100" />
  <path
     class="leaflet-interactive"
     stroke="#333333"
     stroke-opacity="1"
     stroke-width="1"
     stroke-linecap="round"
     stroke-linejoin="round"
     stroke-dasharray="1, 6"
     fill="#eeeeee"
     fill-opacity="0.5"
     fill-rule="evenodd"
     d="m 547,278 1,3 1,-1 8,5 2,-1 3,2 v 2 l 5,-1 5,-5 9,3 v -2 h 2 l 1,-2 -1,-3 4,2 1,-1 2,4 8,1 3,2 8,-4 3,1 1,-1 -3,-4 v -3 l 2,-1 -3,-1 v -3 l 5,-4 -2,-13 3,-2 -2,-2 -3,1 v -4 h -2 v -2 l 3,-1 3,3 4,-2 h 8 l 1,-2 h 8 l 1,-3 -2,-3 1,-2 -3,-1 1,-3 -6,-4 -6,2 h -7 l -3,-4 -1,2 -4,-1 -4,4 3,3 -3,3 -4,-2 -9,1 -8,-3 -4,2 -8,-1 -2,7 -5,1 4,4 -3,3 2,2 v 8 l -1,-1 -3,4 v 5 h -4 l -2,2 v 3 h -4 v -2 l -3,1 -1,8 z"
     id="410200" />
  <path
     class="leaflet-interactive"
     stroke="#333333"
     stroke-opacity="1"
     stroke-width="1"
     stroke-linecap="round"
     stroke-linejoin="round"
     stroke-dasharray="1, 6"
     fill="#eeeeee"
     fill-opacity="0.5"
     fill-rule="evenodd"
     d="m 378,320 15,5 5,-1 8,5 2,-1 6,3 1,3 5,3 7,-1 1,-3 3,2 1,-1 -2,-3 3,-1 4,-5 v 2 l 5,-1 2,-6 -1,-1 6,-3 3,3 h 2 l 7,-7 -3,-1 3,-5 -1,-4 3,-1 3,-8 -5,-11 4,-4 3,-1 v 2 l 8,-2 h -3 l -1,-3 2,-4 -1,-4 2,-1 3,2 h 6 l 3,-5 2,1 -2,-2 -5,-1 -3,-5 v -4 l 2,-2 2,1 3,-3 -2,-1 v -2 l -6,-1 v -4 h -6 l -5,-2 v -5 h -3 l -2,-3 -1,2 -2,-1 -1,2 1,-1 1,3 h -2 l -2,-2 h -5 l -7,-3 -2,1 -9,-7 -4,1 -2,-3 -3,-1 -2,3 3,4 h -2 l 2,1 -7,5 1,2 6,2 v 2 l 2,1 1,3 -2,2 1,2 -3,5 1,1 -4,4 -4,-4 h -2 l -8,5 -2,3 1,1 -8,-2 -12,7 -5,-1 -2,1 v 2 l -3,-1 -2,5 h -2 l -2,3 4,4 -2,7 13,10 -2,3 1,5 -4,5 h -4 l 1,1 -2,2 3,5 z m 50,-77 h -1 z"
     id="410300" />
  <path
     class="leaflet-interactive"
     stroke="#333333"
     stroke-opacity="1"
     stroke-width="1"
     stroke-linecap="round"
     stroke-linejoin="round"
     stroke-dasharray="1, 6"
     fill="#eeeeee"
     fill-opacity="0.5"
     fill-rule="evenodd"
     d="m 528,326 -2,-3 -7,1 -5,-4 h 2 l -3,-7 4,-5 -1,-7 h -4 v -2 l -6,-4 -1,2 -5,-1 -6,-14 -7,-2 -7,1 1,-2 -3,-2 -9,2 -3,-1 -4,4 1,7 3,4 -3,8 -3,1 2,2 -4,6 3,2 -7,7 h -2 l -2,-3 -7,3 1,1 -2,5 4,2 1,3 5,-1 10,7 2,-2 h 4 l 8,4 2,-2 h 3 l 1,-2 h 5 v 2 l 6,3 v 8 l 9,1 6,6 8,1 v 8 l -2,4 1,3 h 15 l 2,-3 -3,-4 5,-11 -1,-4 -8,2 -4,-1 -1,-2 1,-5 4,1 1,-7 4,-3 -3,-6 z"
     id="410400" />
  <path
     class="leaflet-interactive"
     stroke="#333333"
     stroke-opacity="1"
     stroke-width="1"
     stroke-linecap="round"
     stroke-linejoin="round"
     stroke-dasharray="1, 6"
     fill="#eeeeee"
     fill-opacity="0.5"
     fill-rule="evenodd"
     d="m 582,188 v 11 l -2,8 3,3 h 3 v -2 l 9,-6 4,1 v -4 h 6 l 5,-4 6,1 2,-3 -1,-5 h -2 l 2,-5 -6,-6 3,-4 -2,-8 4,-4 -1,-3 2,-2 1,-5 v -6 l -4,-2 -1,-7 -3,-1 v 2 h -5 l -3,-3 -1,2 -1,-1 -7,2 -1,-2 -6,-3 -1,1 v -2 l -7,-2 -1,-3 -7,1 -1,-2 -1,2 h -2 l -3,-3 -5,1 -1,-2 2,-2 h -2 l -1,-3 -3,1 1,3 -3,-4 1,1 -3,3 -2,-4 -3,2 -6,-2 -2,8 -3,4 1,-1 2,2 h -2 l 1,1 -2,1 3,3 -4,1 2,1 -1,5 2,4 -4,1 v 9 l 2,3 5,1 1,4 3,2 -2,5 1,1 9,-1 v -2 l 2,1 7,-5 1,-4 -4,1 1,-2 -2,-3 h 2 l 3,-5 -3,-2 v -2 l 2,1 6,-7 1,5 3,-1 4,2 v 2 l 1,-1 v 3 h -2 l -3,6 3,6 5,-4 14,-2 3,3 9,4 -2,5 -9,6 -5,1 v 2 l -6,4 -1,2 z"
     id="410500" />
  <path
     class="leaflet-interactive"
     stroke="#333333"
     stroke-opacity="1"
     stroke-width="1"
     stroke-linecap="round"
     stroke-linejoin="round"
     stroke-dasharray="1, 6"
     fill="#eeeeee"
     fill-opacity="0.5"
     fill-rule="evenodd"
     d="m 554,170 5,5 v 5 l 8,5 1,-1 5,2 -1,3 3,2 2,-2 5,-1 -2,-4 4,-2 3,-3 -1,-1 h 4 l 8,-4 4,-4 1,-4 -2,-2 -7,-2 -2,-3 -14,2 -4,2 -2,3 -3,-7 4,-4 -1,-2 h 2 v -3 l -1,1 v -2 l -8,-2 v -4 l -3,2 v 3 l -3,2 -2,-1 -1,2 4,2 -1,3 -4,2 2,3 -1,1 h 3 v 4 l -5,3 z"
     id="410600" />
  <path
     class="leaflet-interactive"
     stroke="#333333"
     stroke-opacity="1"
     stroke-width="1"
     stroke-linecap="round"
     stroke-linejoin="round"
     stroke-dasharray="1, 6"
     fill="#eeeeee"
     fill-opacity="0.5"
     fill-rule="evenodd"
     d="m 616,196 -6,-1 -5,4 h -6 v 4 l -3,-1 -5,2 -5,6 h -3 l -3,-3 2,-8 v -11 l -5,1 -2,2 -3,-2 1,-3 -5,-2 -1,1 -7,-4 -2,-2 v -7 l -4,-2 h -3 l -1,2 -9,1 -1,-1 2,-5 -3,-2 -1,-4 -3,-1 h -5 l -2,2 v 9 l 2,1 v 4 l -4,-2 v 3 l -4,7 1,1 h -6 l -2,2 v 2 l 3,1 2,3 2,10 h 2 v 10 l 5,3 3,7 -4,8 6,2 6,-1 2,3 10,-1 4,-5 h 5 l 8,4 h 7 l 5,-2 7,3 h 16 l 1,-2 -3,-2 4,-5 3,-1 v -2 h -2 l 4,-4 -2,-6 6,-2 -1,-4 3,-1 3,-6 -4,-2 z"
     id="410700" />
  <path
     class="leaflet-interactive"
     stroke="#333333"
     stroke-opacity="1"
     stroke-width="1"
     stroke-linecap="round"
     stroke-linejoin="round"
     stroke-dasharray="1, 6"
     fill="#eeeeee"
     fill-opacity="0.5"
     fill-rule="evenodd"
     d="m 479,240 1,1 3,-4 3,2 3,-1 1,-2 4,3 6,-2 -1,-2 6,-2 2,-4 5,1 4,-3 h 2 v 2 l 7,-1 3,3 4,-8 -3,-7 h -2 l -3,-3 v -10 h -2 l -2,-10 -5,-6 -2,2 -3,-1 v 4 l -8,-2 v 4 l -4,6 -5,-3 h -3 v 5 l -3,1 -1,3 -3,1 -4,-2 -3,3 -2,13 -6,6 -6,2 2,3 h 2 l 1,5 5,2 h 6 z"
     id="410800" />
  <path
     class="leaflet-interactive"
     stroke="#333333"
     stroke-opacity="1"
     stroke-width="1"
     stroke-linecap="round"
     stroke-linejoin="round"
     stroke-dasharray="1, 6"
     fill="#eeeeee"
     fill-opacity="0.5"
     fill-rule="evenodd"
     d="m 620,199 2,-3 3,-1 -1,-2 h 8 l 9,-6 v -5 l 3,-1 v -2 l 8,-11 12,-2 v -3 l 5,-5 4,1 3,-3 -1,-3 h 2 l 1,-3 h 8 l 1,-6 1,1 2,-6 -3,-1 -4,5 -13,3 -1,3 h -5 l -4,4 h -4 l -7,4 -7,7 -2,-1 3,-10 -1,-3 2,-1 v -2 l 4,-1 -1,-4 3,-5 -1,-4 -3,3 -1,-2 v 2 h -2 v 3 l -2,1 -9,-10 -2,2 -2,-2 -2,1 v 2 l -3,-1 -1,6 -8,5 4,2 v 5 l -3,13 -3,3 2,7 -3,3 2,4 h 3 l 1,3 -2,4 2,3 -1,1 2,1 -2,4 1,2 z m 31,-44 1,-1 z"
     id="410900" />
  <path
     class="leaflet-interactive"
     stroke="#333333"
     stroke-opacity="1"
     stroke-width="1"
     stroke-linecap="round"
     stroke-linejoin="round"
     stroke-dasharray="1, 6"
     fill="#eeeeee"
     fill-opacity="0.5"
     fill-rule="evenodd"
     d="m 571,284 -8,4 -3,-4 -5,1 v -2 l -1,1 -2,-3 h -4 l -1,-3 -9,1 -3,3 h -2 l -5,-3 -2,1 -5,-3 -1,1 -4,-2 v -2 l -1,1 -4,-3 v 2 l -4,4 -2,-1 v 2 l -5,4 h -5 v 4 l 2,1 3,7 5,2 2,-2 5,4 v 3 l 3,-1 2,7 -4,5 3,7 h -2 l 8,4 5,-1 2,5 h 7 v -2 l 1,1 2,-2 -2,-2 2,-3 v -3 h -2 v -2 l 6,-3 v 2 h 2 v -5 l 8,-4 h 3 l 2,1 v 2 l 5,2 -1,4 5,6 6,2 2,-1 v -16 l -4,-9 2,-2 -1,-9 z m -28,29 z"
     id="411000" />
  <path
     class="leaflet-interactive"
     stroke="#333333"
     stroke-opacity="1"
     stroke-width="1"
     stroke-linecap="round"
     stroke-linejoin="round"
     stroke-dasharray="1, 6"
     fill="#eeeeee"
     fill-opacity="0.5"
     fill-rule="evenodd"
     d="m 534,350 2,-2 h 6 l 4,-4 6,1 5,-5 10,8 1,-2 5,-1 1,-7 -2,-1 -1,-9 -9,3 -2,-5 5,-8 -3,-4 1,-4 h -2 l -4,-5 -12,4 v 5 l -5,-1 -3,3 2,1 v 5 l -2,1 2,2 -2,2 -1,-1 v 2 h -7 v -2 l -2,1 1,4 3,2 -5,3 -1,7 h -4 l -1,6 h 14 z"
     id="411100" />
  <path
     class="leaflet-interactive"
     stroke="#333333"
     stroke-opacity="1"
     stroke-width="1"
     stroke-linecap="round"
     stroke-linejoin="round"
     stroke-dasharray="1, 6"
     fill="#eeeeee"
     fill-opacity="0.5"
     fill-rule="evenodd"
     d="m 424,220 h -10 l -1,4 -1,-1 -1,2 -1,-1 -5,3 v 3 l -4,2 -3,6 -1,-1 -3,2 -7,1 -4,-1 -6,3 -5,-2 -3,4 -9,5 -3,-2 -3,7 h -2 l -1,2 -3,-3 h -2 l -3,4 h -21 l -1,3 h 2 l -3,3 3,8 4,2 1,-1 1,4 v 2 l -4,4 v 3 l 8,2 v 2 l 5,2 v 3 l -3,2 v 5 l 3,1 3,6 -6,4 3,4 2,-1 8,6 3,5 -1,2 5,5 h 3 l 5,6 6,-3 2,-4 -1,-3 3,-1 2,-7 2,-2 1,1 -3,-8 h 2 v -3 l 3,1 4,-4 -1,-5 2,-6 -4,-1 -9,-7 2,-3 v -4 l -3,-6 3,-1 2,-5 3,1 1,-3 6,1 7,-4 1,-2 2,1 4,-2 5,2 v -3 l 10,-6 h 2 l 4,4 1,-1 6,-13 -3,-6 -7,-3 2,-3 5,-2 -2,-1 2,-3 -3,-2 1,-2 z m 4,23 z"
     id="411200" />
  <path
     class="leaflet-interactive"
     stroke="#333333"
     stroke-opacity="1"
     stroke-width="1"
     stroke-linecap="round"
     stroke-linejoin="round"
     stroke-dasharray="1, 6"
     fill="#eeeeee"
     fill-opacity="0.5"
     fill-rule="evenodd"
     d="m 362,338 1,7 -2,3 2,3 v 4 l -2,1 v 7 l 4,3 -1,3 4,-2 2,4 3,1 1,4 -3,1 5,1 3,4 v 2 l -2,1 v 5 l 2,-1 3,4 3,1 3,6 h 4 l -1,2 h -2 l 3,1 5,9 h 2 l 3,-3 5,2 7,6 h 3 v 2 l 6,-1 2,5 4,-2 4,6 3,2 -1,-3 4,1 8,6 3,-4 5,2 v -2 h 5 l 1,-2 13,4 7,-4 2,2 h 7 l -1,-2 3,-2 8,4 1,-4 h 3 l 8,7 -1,1 2,2 h 3 l 2,2 6,-5 h 2 v 2 -2 l 2,-1 -1,-1 1,1 6,-6 1,1 2,-4 h 2 v -6 l 3,-6 -7,-6 -2,1 -1,-2 -2,1 v 3 h -2 l 1,1 -4,5 -1,-1 -4,2 -3,-3 -3,3 -6,-2 -4,2 -1,-1 -1,-5 2,-2 h 2 l 1,2 1,-1 -5,-4 -2,-10 3,-6 -8,-2 2,-5 5,-4 7,-1 5,-3 -1,-5 2,-4 v -7 l -10,-3 -4,-5 -9,-1 v -8 l -6,-5 h -4 l -3,3 h -6 l -6,-3 -3,1 -1,-2 -2,3 h -2 l -7,-7 -6,1 -3,-4 h -7 l -6,5 v 4 l -3,-2 -1,3 -6,1 -5,-2 -2,-4 -6,-3 -2,1 -5,-4 h -8 l -6,-3 -8,-1 -2,-2 -5,10 h -2 l 1,3 -3,5 -5,2 z m 2,29 -2,1 z m 109,63 h -1 z"
     id="411300" />
  <path
     class="leaflet-interactive"
     stroke="#333333"
     stroke-opacity="1"
     stroke-width="1"
     stroke-linecap="round"
     stroke-linejoin="round"
     stroke-dasharray="1, 6"
     fill="#eeeeee"
     fill-opacity="0.5"
     fill-rule="evenodd"
     d="m 661,299 8,-1 5,6 2,-3 2,2 h 3 l 2,3 -1,6 1,-1 3,2 v 5 l 4,3 v 2 h 2 l 1,3 7,-1 5,-4 h 4 l 1,-2 1,1 v -4 l 6,-3 1,1 2,-3 4,2 1,-1 v -5 l -8,-13 3,-3 -2,-6 3,-2 -5,-2 -3,2 h -6 l -1,-4 -5,-4 -4,-1 -3,-6 2,-4 v -5 l -3,2 -4,-5 -3,2 -2,-2 -4,3 -7,1 -8,-3 -2,4 -4,-2 h -6 l -5,-6 v -7 l -3,-7 -5,-2 h -4 l -1,4 h -5 l -1,2 -1,-1 -2,2 h -8 l -3,2 -4,-3 -3,1 v 2 h 2 v 4 h 5 l -1,2 h -2 l 2,13 -3,4 -1,-1 -1,5 3,1 -2,4 6,6 2,-1 8,5 2,4 -2,7 2,1 -1,2 h -3 l -2,6 h 8 l 2,-2 -1,-1 3,1 3,-4 1,2 3,-2 6,3 7,-4 v -3 l 6,-1 z"
     id="411400" />
  <path
     class="leaflet-interactive"
     stroke="#333333"
     stroke-opacity="1"
     stroke-width="1"
     stroke-linecap="round"
     stroke-linejoin="round"
     stroke-dasharray="1, 6"
     fill="#eeeeee"
     fill-opacity="0.5"
     fill-rule="evenodd"
     d="m 538,437 3,6 -2,2 1,2 -2,2 -1,-1 v 2 l 4,5 -2,2 1,2 3,1 -1,3 2,1 1,5 h 3 l 2,-3 2,2 -1,3 3,5 4,-1 5,-4 v -2 l 1,1 2,-2 3,2 1,-1 3,6 9,3 6,-3 1,2 2,-2 2,5 -3,4 1,7 2,-2 h 3 l 2,3 h 2 l -1,1 h 4 l 5,5 h 7 l 2,-2 1,1 2,-4 5,2 3,-8 6,5 -2,7 1,2 h 2 l 1,3 6,-1 2,-2 -1,-6 4,-3 -1,-2 4,-3 v -3 l 3,-4 h 2 l 7,-6 4,1 2,-2 5,2 5,-3 -1,-10 2,-6 -1,-3 2,-2 v -6 l -2,-2 -3,-21 1,-1 -1,-2 h -2 l 5,-5 h -2 l -6,8 -1,-2 h -6 l 1,1 -2,1 1,1 -2,3 -2,1 -1,-2 -3,2 1,-1 -9,-9 v -2 h -9 v -2 h -4 l -3,-2 -3,2 -1,-2 -11,-4 -3,1 -1,2 h -5 l -2,3 2,1 -3,5 -3,-3 -7,3 -2,-1 -1,6 5,4 -2,2 1,1 -6,5 -2,-2 -5,2 -4,-1 -3,-6 -2,1 v -4 l -3,-2 v -2 l -2,2 -1,-4 h -2 v 2 l -5,1 -2,-7 v 2 l -5,1 -4,-8 -5,-1 -5,6 v 6 h -2 l -1,3 2,1 v 3 h 2 l -1,7 z m 2,-1 v -2 l -2,1 v 2 l 1,-2 z"
     id="411500" />
  <path
     class="leaflet-interactive"
     stroke="#333333"
     stroke-opacity="1"
     stroke-width="1"
     stroke-linecap="round"
     stroke-linejoin="round"
     stroke-dasharray="1, 6"
     fill="#eeeeee"
     fill-opacity="0.5"
     fill-rule="evenodd"
     d="m 612,374 3,-5 3,2 v 2 l 5,2 h 6 l 4,-4 h 5 v -4 l 3,-6 -1,-2 2,-2 -1,-4 h -2 v -6 h 2 l 1,-4 -1,-1 h 3 l 5,-5 5,1 6,-2 -3,-9 1,-1 -3,-4 1,-2 h 3 l 1,-6 -6,-1 2,-2 -1,-1 2,-7 4,-2 v -2 l -1,-2 h -6 l -1,5 -4,1 -1,2 -7,-3 -2,2 -1,-2 -4,4 -2,-1 -2,3 -3,-1 -3,2 -2,-1 2,-6 4,-2 v -8 l -3,-5 -12,-5 h -4 l -7,4 -12,-3 -2,-3 -5,-2 -1,2 2,1 -1,2 h -2 v 2 h -4 l -1,-2 -3,-1 -1,2 v 15 l 3,5 v 17 l -2,1 -6,-3 h -4 l 1,2 -3,1 -1,4 2,5 9,-4 2,8 v 10 h 10 l 5,4 3,-1 1,5 3,2 1,-1 3,4 h 2 l 1,3 -4,7 6,5 v 3 l 5,1 1,-2 h 2 z"
     id="411600" />
  <path
     class="leaflet-interactive"
     stroke="#333333"
     stroke-opacity="1"
     stroke-width="1"
     stroke-linecap="round"
     stroke-linejoin="round"
     stroke-dasharray="1, 6"
     fill="#eeeeee"
     fill-opacity="0.5"
     fill-rule="evenodd"
     d="m 543,412 v -2 l 6,1 3,8 6,-1 v -2 l 2,7 h 5 v -3 h 2 l 1,3 h 3 l -1,1 3,5 4,1 v 3 l 2,2 7,1 1,-2 2,2 6,-5 -1,-1 2,-2 -5,-4 1,-6 h 8 v -2 l 2,2 1,-1 1,2 3,-4 -2,-4 7,-1 4,-3 9,2 3,3 4,-1 -1,-3 1,1 1,-2 -1,1 v -2 l -1,-1 v 2 l -1,-2 1,-8 h 2 l -2,-2 1,-3 h -2 l -2,-3 -7,-1 v -2 h -5 l -5,-4 2,-1 -1,-2 h 3 l -3,-5 -2,1 v 2 l -6,-1 v -2 l -6,-6 4,-7 -3,-4 h -2 l -1,-3 -1,1 -3,-2 -1,-5 -5,1 -3,-4 -5,2 -4,-3 -2,2 -5,1 -3,-1 -1,-3 h -2 l 1,-1 -4,-2 -6,5 -6,-1 -12,6 v 2 l -3,2 -2,9 2,4 -1,3 -12,-1 -7,6 -9,1 -6,9 7,2 -2,6 2,10 5,4 -1,1 -3,-3 -2,3 2,6 4,-2 6,2 2,-3 6,3 2,-2 1,1 4,-5 -1,-1 h 2 v -4 l 3,2 2,-1 4,4 1,-1 2,4 z"
     id="411700" />
  <path
     class="leaflet-interactive"
     stroke="#333333"
     stroke-opacity="1"
     stroke-width="1"
     stroke-linecap="round"
     stroke-linejoin="round"
     stroke-dasharray="1, 6"
     fill="#eeeeee"
     fill-opacity="0.5"
     fill-rule="evenodd"
     d="m 475,210 h -3 l -4,-5 -2,2 1,1 -5,1 -9,-2 -9,2 1,-3 -4,1 -7,-3 h -4 v 16 l -2,3 8,2 3,4 17,3 4,2 -2,-4 2,1 5,-4 h 4 l 4,-4 2,-12 z"
     id="济源市" />
</svg>
