<?xml version="1.0" encoding="UTF-8" standalone="no"?>
<svg
   pointer-events="none"
   class="leaflet-zoom-animated"
   width="1135"
   height="626"
   viewBox="-95 -52 1135 626"
   style="transform: translate3d(-95px, -52px, 0px);"
   version="1.1"
   id="svg1"
   sodipodi:docname="河北省.svg"
   inkscape:version="1.4 (86a8ad7, 2024-10-11)"
   xmlns:inkscape="http://www.inkscape.org/namespaces/inkscape"
   xmlns:sodipodi="http://sodipodi.sourceforge.net/DTD/sodipodi-0.dtd"
   xmlns="http://www.w3.org/2000/svg"
   xmlns:svg="http://www.w3.org/2000/svg">
  <defs
     id="defs1" />
  <sodipodi:namedview
     id="namedview1"
     pagecolor="#ffffff"
     bordercolor="#000000"
     borderopacity="0.25"
     inkscape:showpageshadow="2"
     inkscape:pageopacity="0.0"
     inkscape:pagecheckerboard="0"
     inkscape:deskcolor="#d1d1d1"
     inkscape:zoom="1.672524"
     inkscape:cx="567.70487"
     inkscape:cy="313"
     inkscape:window-width="1920"
     inkscape:window-height="991"
     inkscape:window-x="-9"
     inkscape:window-y="1341"
     inkscape:window-maximized="1"
     inkscape:current-layer="svg1" />
  <path
     class="leaflet-interactive"
     stroke="#000000"
     stroke-opacity="1"
     stroke-width="2"
     stroke-linecap="round"
     stroke-linejoin="round"
     fill="#ffffff"
     fill-opacity="0.2"
     fill-rule="evenodd"
     d="m 509,219 2,3 h 2 v -5 h 6 l 2,-2 v -3 l 3,3 -1,3 6,7 h 2 l 6,9 6,-1 8,3 h 10 v 2 l -2,-1 -4,5 h -5 v 3 l -3,1 3,3 -2,4 3,5 h 2 v 3 l 10,1 5,7 -1,1 h 3 l 2,2 v 3 h 2 l -1,3 -3,-2 h -8 l 1,1 -2,4 2,4 v 5 l 5,5 -2,4 2,2 1,-1 1,3 3,-4 7,2 -1,6 -2,1 v 4 l -3,1 h 3 l -1,2 6,1 4,4 -1,3 2,-1 2,2 5,9 6,1 v 2 l 6,4 h 2 l 3,-4 -2,-1 -1,-6 2,-1 v -2 l 2,-1 6,2 9,-3 -3,2 v 2 l 6,-4 7,-9 4,-2 2,-3 -2,-5 4,-13 5,-5 3,-1 1,-5 3,1 1,-2 7,-1 2,-3 v 2 h 2 l -2,-3 1,-1 -5,-2 v -9 l -2,1 -2,-3 -2,1 1,-3 -2,-3 v -7 l -2,-3 1,-3 h -15 l -1,-3 h -3 l -1,-2 2,-1 v -2 l -6,1 -1,-2 -1,1 -2,-2 v -2 h -3 l 1,-2 -3,-1 2,-10 h 5 l 1,-2 -4,-2 1,-3 h 5 l 1,-3 4,-3 -1,-2 4,-4 v -2 h -2 v 2 l -9,-2 -5,1 -2,-5 -4,1 v 2 l -11,-2 -6,3 -2,-2 1,-3 -4,-5 2,-2 -1,-3 -4,-2 v -4 l -3,-2 -1,-3 2,-5 h 2 l 3,4 1,-1 2,-6 -3,-3 2,-4 -3,-2 2,-2 -2,-3 -2,1 v 3 l -4,-1 1,-2 -3,-2 1,-4 -6,-3 4,-4 -2,-2 v -4 l -10,-12 v -2 l -4,2 -11,-1 -1,3 -3,2 2,1 -1,3 -6,-2 h -8 l -1,2 -7,3 v 11 l -1,2 h -5 l 5,6 -1,5 -3,2 -8,3 h -4 l -2,-3 -3,3 h -2 l 1,-3 -2,-2 -6,5 -2,4 -4,1 v 5 h -4 l -5,-11 -4,1 -10,8 -13,7 3,5 -3,1 -1,-2 -1,3 h -3 v -2 l -3,-1 -12,2 v -13 l 3,-3 v -6 l -4,-6 -1,-6 h -2 l -1,2 h -11 l -3,5 3,4 -5,2 -2,-1 -8,11 3,9 -2,3 1,4 -6,-2 -6,2 -5,6 4,1 -2,5 3,4 1,-2 1,2 -1,3 -3,1 -2,4 -3,1 9,10 h 2 l -1,6 8,12 3,2 1,4 -2,3 2,2 -1,1 2,4 6,-1 1,2 h 2 v 3 l -2,2 -10,2 -1,2 -8,1 2,4 -1,2 -2,1 -2,-3 -1,4 -3,2 5,1 1,5 1,-1 5,2 2,-2 1,2 -2,1 9,1 2,15 4,2 2,-1 v 2 l -7,18 3,1 v 2 l -3,2 -1,-1 -2,6 -10,2 -3,-5 h -2 l -10,8 -1,6 4,4 -1,4 -2,-1 -1,3 h -2 l -1,3 -4,1 -1,4 -2,1 1,6 -2,5 3,9 h 5 l 1,3 5,1 -1,2 3,4 -1,3 2,1 3,6 v 4 h 2 l 1,2 -2,4 3,-1 4,2 -6,14 -5,7 -3,9 h -3 l -1,5 2,4 -2,3 2,5 -1,-1 -1,2 -2,-2 -2,4 1,1 -10,4 2,1 -2,3 3,1 v 2 l 3,2 -2,4 7,4 1,4 h 7 l 2,2 2,-2 v 2 l 1,-2 h 2 l -1,1 h 2 l -1,2 2,2 h 12 v 2 l 9,3 3,3 6,-2 1,2 h 3 l 2,-2 2,1 v 5 l 4,-1 2,-5 3,-1 1,-2 5,1 3,6 3,-1 3,-4 1,1 v -7 l -5,-2 1,-2 -4,-4 1,-1 -2,-3 8,-13 3,-3 1,1 v -2 h 5 l 4,-7 1,1 2,-4 -1,-1 4,-4 2,-9 3,-2 v -5 l 9,-3 3,1 2,-2 -2,-4 h 2 v -3 l 3,-3 4,6 17,-21 29,-1 5,-11 8,-3 5,-9 5,-5 -1,-3 -6,2 -1,-1 -2,-5 -4,-3 2,-1 -2,-1 v -5 l -18,5 1,-3 -2,-2 -6,3 -2,-7 -8,1 v -4 h -6 l -1,-13 3,-5 3,1 3,-4 -3,-6 2,-7 h -2 l -1,-2 2,-4 -4,-2 2,-1 -2,-4 1,-4 h -5 l 1,2 -7,-2 -6,7 -1,-1 v 2 h 2 l -1,3 -8,-4 -3,-5 h -10 l -1,2 -1,-3 -5,6 -3,-1 -4,-6 -4,2 -1,-2 -2,2 1,-2 -2,-3 v -4 l -2,-1 6,-3 -3,-2 1,-2 -2,-3 -2,-2 -1,1 1,-5 5,-4 9,-3 1,-2 1,2 h 2 l 4,-7 h 2 l -9,-11 v -3 h -2 l 1,-3 7,-4 5,2 6,-5 5,-8 2,2 h 7 l -5,-9 z m 38,52 -7,1 -1,2 -4,-2 -8,3 1,7 6,3 2,3 -3,2 1,2 h -2 l 1,2 3,-1 v 4 h 9 v -6 l 2,-1 -2,-4 4,-1 -4,-2 -1,-3 3,-4 -1,-4 h 2 z m 27,41 h -6 v -2 h -3 l -3,3 v 2 l 3,-1 3,2 v -2 h 4 z m 38,19 z m 11,-5 -2,3 2,-1 z m -1,0 -2,1 h 2 z"
     id="河北省" />
  <path
     class="leaflet-interactive"
     stroke="#333333"
     stroke-opacity="1"
     stroke-width="1"
     stroke-linecap="round"
     stroke-linejoin="round"
     stroke-dasharray="1, 6"
     fill="#eeeeee"
     fill-opacity="0.5"
     fill-rule="evenodd"
     d="m 394,349 -2,-1 -1,3 -3,1 v 2 l -4,1 -1,4 -2,1 1,6 -2,5 3,9 h 5 l 1,3 5,1 -1,2 3,4 -1,3 2,1 3,6 v 4 h 2 l 1,2 -2,4 3,-1 4,2 -6,14 h 2 l 2,-3 1,1 2,-3 5,2 9,-5 5,2 3,-1 3,-4 h 4 v -2 l 4,-3 h 3 l 2,-2 2,1 2,-4 h 2 l 1,3 4,2 1,5 3,-3 v -2 h 3 l -3,-2 2,-1 -1,-5 2,-1 h -2 v -2 l 5,-2 -1,-3 2,-5 h -5 l -2,-10 -3,1 v -3 l -3,3 -6,-3 -1,2 -6,-2 v 2 l -2,-2 3,-3 -1,-3 -3,-3 -1,1 -1,-4 -6,1 -4,-7 -3,1 1,-4 -4,-3 h -7 l -10,3 -1,-2 -3,1 -6,-5 z"
     id="130100" />
  <path
     class="leaflet-interactive"
     stroke="#333333"
     stroke-opacity="1"
     stroke-width="1"
     stroke-linecap="round"
     stroke-linejoin="round"
     stroke-dasharray="1, 6"
     fill="#eeeeee"
     fill-opacity="0.5"
     fill-rule="evenodd"
     d="m 643,309 -1,1 -4,-3 -7,1 -4,-4 1,-1 -5,-2 -4,-11 2,-2 -1,-2 4,-8 -1,-6 2,-5 -6,-4 -2,1 -3,-3 -5,-1 -1,-10 -2,2 -5,-2 -4,1 -3,-3 -9,10 -10,2 -3,2 -2,-1 -6,3 4,5 -1,1 h 3 l 2,2 v 3 h 2 l -1,3 -3,-2 h -8 l 1,1 -2,4 2,4 v 5 l 5,5 -2,4 2,2 1,-1 1,3 3,-4 7,2 -1,6 -2,1 v 4 l -3,1 h 3 l -1,2 6,1 4,4 -1,3 2,-1 2,2 5,9 6,1 v 2 l 6,4 h 2 l 3,-4 -2,-1 -1,-6 2,-1 v -2 l 2,-1 6,2 9,-3 -3,2 v 2 l 6,-4 4,-6 9,-8 z m -69,3 h -6 v -2 h -3 l -3,3 v 2 l 3,-1 3,2 v -2 h 4 z m 38,19 z m 11,-5 -2,3 2,-1 z m -1,0 -2,1 h 2 z"
     id="130200" />
  <path
     class="leaflet-interactive"
     stroke="#333333"
     stroke-opacity="1"
     stroke-width="1"
     stroke-linecap="round"
     stroke-linejoin="round"
     stroke-dasharray="1, 6"
     fill="#eeeeee"
     fill-opacity="0.5"
     fill-rule="evenodd"
     d="m 643,309 -2,-4 4,-13 5,-5 3,-1 v -4 l 12,-3 2,-3 v 2 h 2 l -2,-3 1,-1 -5,-2 v -9 l -2,1 -2,-3 -2,1 1,-3 -2,-3 v -7 l -2,-3 1,-3 -12,1 -3,-1 -3,-4 -4,2 -1,-2 -5,5 -3,-1 -5,2 -1,2 -3,-1 -3,4 1,3 -4,6 16,8 v 3 l -2,2 1,6 -2,2 -2,6 1,2 -2,2 4,11 5,2 -1,1 4,4 7,-1 4,3 z"
     id="130300" />
  <path
     class="leaflet-interactive"
     stroke="#333333"
     stroke-opacity="1"
     stroke-width="1"
     stroke-linecap="round"
     stroke-linejoin="round"
     stroke-dasharray="1, 6"
     fill="#eeeeee"
     fill-opacity="0.5"
     fill-rule="evenodd"
     d="m 469,464 -6,-1 -2,-2 1,-3 -8,1 1,-2 -3,-2 -1,-3 h -9 l -5,3 -2,-2 -4,3 h -4 v 3 l -3,1 -9,-2 -9,1 -5,-4 -2,-4 -6,-2 -3,4 2,5 -1,-1 -1,2 -2,-2 -2,4 1,1 -10,4 2,1 -2,3 4,2 -1,1 3,2 -2,4 7,4 1,4 h 7 l 2,2 2,-2 v 2 l 1,-2 h 2 l -1,1 h 2 l -1,2 2,2 h 12 v 2 l 9,3 3,3 6,-2 1,2 h 3 l 2,-2 2,1 v 5 l 4,-1 2,-5 3,-1 1,-2 5,1 3,6 3,-1 3,-4 1,1 v -7 l -5,-2 1,-2 -4,-4 1,-1 -2,-3 8,-13 z"
     id="130400" />
  <path
     class="leaflet-interactive"
     stroke="#333333"
     stroke-opacity="1"
     stroke-width="1"
     stroke-linecap="round"
     stroke-linejoin="round"
     stroke-dasharray="1, 6"
     fill="#eeeeee"
     fill-opacity="0.5"
     fill-rule="evenodd"
     d="m 458,413 v -4 l -5,-5 h -2 l -2,4 h -7 l -4,4 v 2 h -4 l -2,4 -4,1 -5,-2 -8,5 -5,-2 -2,1 -8,6 -6,14 h -3 v 8 l 8,2 2,4 5,4 7,-1 10,2 4,-1 v -3 h 4 l 4,-3 2,2 4,-3 h 10 l 1,3 3,2 -1,2 8,-1 v 5 l 1,-1 2,2 h 6 v -2 h 5 l 4,-7 1,1 2,-4 -1,-1 4,-4 -7,-12 -17,-10 4,-2 v -2 l -3,-3 v 2 l -3,-3 -4,1 -1,-2 2,-3 z"
     id="130500" />
  <path
     class="leaflet-interactive"
     stroke="#333333"
     stroke-opacity="1"
     stroke-width="1"
     stroke-linecap="round"
     stroke-linejoin="round"
     stroke-dasharray="1, 6"
     fill="#eeeeee"
     fill-opacity="0.5"
     fill-rule="evenodd"
     d="m 462,378 4,-5 h 13 v -6 l 5,-5 h 6 v -12 l 4,-5 v -3 l 5,-4 5,1 2,-1 v -2 h 2 l -2,-2 1,-4 -5,-4 v -11 l -4,-1 v -5 l 5,-5 v -2 l -2,-2 h -10 l -1,2 -1,-3 -5,6 -3,-1 -4,-6 -4,2 -1,-2 -2,2 1,-2 -2,-3 v -4 l -2,-1 6,-3 -3,-2 1,-2 -4,-5 -4,4 -3,9 -5,2 v 2 l -6,-2 -10,7 -3,-2 h -2 v 2 l -3,-1 -1,3 -2,-2 -2,6 -2,1 -1,7 -3,6 3,1 v 2 l -3,2 -1,-1 -2,6 -10,2 -3,-5 h -2 l -11,10 v 4 l 4,4 -1,4 h 2 l 5,5 2,-1 4,2 8,-3 h 7 l 4,4 -1,3 3,-1 4,7 6,-1 1,4 1,-2 4,7 -2,3 1,2 v -2 l 3,2 h 3 v -2 l 7,3 2,-3 3,3 z"
     id="130600" />
  <path
     class="leaflet-interactive"
     stroke="#333333"
     stroke-opacity="1"
     stroke-width="1"
     stroke-linecap="round"
     stroke-linejoin="round"
     stroke-dasharray="1, 6"
     fill="#eeeeee"
     fill-opacity="0.5"
     fill-rule="evenodd"
     d="m 509,219 -5,-6 2,-1 -3,-3 v -6 l -2,-3 1,-3 -3,-4 h -3 l -4,-3 -4,-13 8,-8 h -3 l -5,-11 -4,1 -10,8 -13,7 2,2 v 4 h -2 l -1,-2 -1,3 h -3 v -2 l -3,-1 -12,2 v -13 l 3,-3 v -6 l -4,-6 -1,-6 h -2 l -1,2 h -11 l -3,5 3,4 -5,2 -2,-1 -8,11 3,9 -2,3 1,4 -6,-2 -6,2 -1,2 -1,-1 v 2 l -2,1 -1,2 4,1 -2,5 3,4 1,-2 1,2 -1,3 -3,1 -2,4 -3,1 9,10 h 2 l -1,6 8,12 3,2 1,4 -2,3 2,2 -1,1 2,4 6,-1 1,2 h 2 v 3 l -2,2 -10,2 -1,2 -8,1 2,4 -1,2 -2,1 -2,-3 -1,4 -3,2 5,1 1,5 1,-1 5,2 2,-2 1,2 -2,1 9,1 2,15 4,2 2,-1 v 2 l 1,-2 2,2 1,-3 3,1 v -2 l 5,1 8,-4 1,-2 6,2 1,-2 5,-2 3,-9 h 2 l 2,-8 5,-4 9,-3 1,-2 1,2 h 2 l 4,-7 h 2 l -9,-11 v -3 h -2 l 1,-3 7,-4 5,2 6,-5 5,-8 2,2 h 7 l -5,-9 z"
     id="130700" />
  <path
     class="leaflet-interactive"
     stroke="#333333"
     stroke-opacity="1"
     stroke-width="1"
     stroke-linecap="round"
     stroke-linejoin="round"
     stroke-dasharray="1, 6"
     fill="#eeeeee"
     fill-opacity="0.5"
     fill-rule="evenodd"
     d="m 636,239 -1,-1 2,-1 v -2 h -8 l -2,-4 h -3 l 1,-2 -3,-1 v -3 l 2,-3 v -4 h 5 l 1,-2 -4,-2 1,-3 h 5 l 1,-3 4,-3 -1,-2 4,-4 v -2 h -2 v 2 l -9,-2 -5,1 -2,-5 -4,1 v 2 l -11,-2 -6,3 -2,-2 1,-3 -4,-5 2,-2 -1,-3 -4,-2 v -4 l -3,-2 -1,-3 2,-5 h 2 l 3,4 1,-1 2,-6 -3,-3 2,-4 -3,-2 2,-2 -2,-3 -2,1 v 3 l -4,-1 1,-2 -3,-2 1,-4 -6,-3 4,-4 -2,-2 v -4 l -10,-12 v -2 l -4,2 -11,-1 -1,3 -3,2 2,1 -1,3 -6,-2 h -8 l -1,2 -7,3 v 11 l -1,2 h -5 l 5,6 -1,5 -11,5 h -4 l -2,-3 -3,3 h -2 l 1,-3 -2,-2 -2,1 -6,8 -4,1 v 5 l -9,8 4,13 4,3 h 3 l 3,3 v 9 l 4,7 -2,1 7,9 3,-1 -1,-4 h 6 l 2,-2 v -3 l 3,3 -1,3 6,7 h 2 l 6,9 6,-1 8,3 h 10 v 2 l -2,-1 -4,5 h -5 v 3 l -3,1 3,3 -2,4 3,5 h 2 l 1,4 4,-1 8,3 4,-3 2,1 3,-2 10,-2 9,-10 3,3 3,-1 6,2 2,-2 1,9 4,-6 -2,-3 4,-4 3,1 3,-3 h 6 v -2 l 5,-3 1,2 1,-1 z"
     id="130800" />
  <path
     class="leaflet-interactive"
     stroke="#333333"
     stroke-opacity="1"
     stroke-width="1"
     stroke-linecap="round"
     stroke-linejoin="round"
     stroke-dasharray="1, 6"
     fill="#eeeeee"
     fill-opacity="0.5"
     fill-rule="evenodd"
     d="m 508,417 4,6 17,-21 29,-1 5,-11 5,-1 5,-4 8,-14 h -8 l -2,-5 -4,-3 2,-1 -2,-1 v -5 l -18,5 1,-3 -2,-2 -6,3 -2,-4 1,-2 h -9 v -4 l -5,1 1,5 -6,4 1,3 -3,3 -7,-1 v -4 l -4,-6 3,-6 -7,-3 -4,-4 1,-2 -3,-1 -5,3 1,2 -5,6 v 13 h -6 l -5,5 v 4 l 6,2 v 4 l 1,3 2,1 v 3 l 1,-1 3,3 3,-2 -1,4 2,2 v 8 h 3 l 1,-3 3,1 4,-4 h 11 l -2,9 h -2 v 5 l -4,4 -1,5 -2,1 z"
     id="130900" />
  <path
     class="leaflet-interactive"
     stroke="#333333"
     stroke-opacity="1"
     stroke-width="1"
     stroke-linecap="round"
     stroke-linejoin="round"
     stroke-dasharray="1, 6"
     fill="#eeeeee"
     fill-opacity="0.5"
     fill-rule="evenodd"
     d="m 503,304 -4,3 -1,6 4,2 -1,7 1,3 5,5 -1,5 2,1 -7,4 1,2 10,6 -1,4 -2,1 1,4 3,3 v 4 l 6,1 4,-3 -1,-3 6,-4 -3,-12 v -7 l 3,-5 3,1 3,-4 -3,-6 2,-7 h -2 l -1,-2 2,-4 -4,-2 2,-1 -2,-4 1,-4 h -5 l 1,2 -7,-2 -6,7 -1,-1 v 2 h 2 l -1,3 -8,-4 z m 44,-33 -7,1 -1,2 -4,-2 -8,3 1,7 6,3 2,3 -3,2 1,2 h -2 l 1,2 3,-1 v 4 h 9 v -6 l 2,-1 -2,-4 4,-1 -4,-2 -1,-3 3,-4 -1,-4 h 2 z"
     id="131000" />
  <path
     class="leaflet-interactive"
     stroke="#333333"
     stroke-opacity="1"
     stroke-width="1"
     stroke-linecap="round"
     stroke-linejoin="round"
     stroke-dasharray="1, 6"
     fill="#eeeeee"
     fill-opacity="0.5"
     fill-rule="evenodd"
     d="m 486,447 2,-9 3,-2 v -5 l 9,-3 3,1 2,-2 -2,-4 h 2 v -3 l 3,-3 -1,-1 2,-1 1,-5 4,-4 v -5 h 2 l 2,-9 h -11 l -2,3 h -5 l -1,3 h -3 l 2,-2 -4,-5 2,-1 -2,-2 1,-3 -3,1 -5,-3 1,-2 -2,-1 -1,-7 -5,-2 -1,2 -9,1 v -2 l -2,2 -2,-1 -2,2 1,1 -3,2 2,10 h 5 l -2,4 1,4 h -2 l -3,4 h 2 l -2,3 1,3 -2,1 2,2 -3,1 1,1 -2,3 h -4 l -1,4 5,-1 3,3 v -2 l 3,3 v 2 l -4,2 8,4 1,2 h 3 v 2 l 7,5 3,6 z"
     id="131100" />
</svg>
