<?xml version="1.0" encoding="UTF-8" standalone="no"?>
<svg
   pointer-events="none"
   class="leaflet-zoom-animated"
   width="1135"
   height="626"
   viewBox="-95 -52 1135 626"
   style="transform: translate3d(-95px, -52px, 0px);"
   version="1.1"
   id="svg1"
   sodipodi:docname="浙江省.svg"
   inkscape:version="1.4 (86a8ad7, 2024-10-11)"
   xmlns:inkscape="http://www.inkscape.org/namespaces/inkscape"
   xmlns:sodipodi="http://sodipodi.sourceforge.net/DTD/sodipodi-0.dtd"
   xmlns="http://www.w3.org/2000/svg"
   xmlns:svg="http://www.w3.org/2000/svg">
  <defs
     id="defs1" />
  <sodipodi:namedview
     id="namedview1"
     pagecolor="#ffffff"
     bordercolor="#000000"
     borderopacity="0.25"
     inkscape:showpageshadow="2"
     inkscape:pageopacity="0.0"
     inkscape:pagecheckerboard="0"
     inkscape:deskcolor="#d1d1d1"
     inkscape:zoom="1.672524"
     inkscape:cx="567.70487"
     inkscape:cy="408.6638"
     inkscape:window-width="1920"
     inkscape:window-height="991"
     inkscape:window-x="-9"
     inkscape:window-y="1341"
     inkscape:window-maximized="1"
     inkscape:current-layer="svg1" />
  <path
     class="leaflet-interactive"
     stroke="#000000"
     stroke-opacity="1"
     stroke-width="2"
     stroke-linecap="round"
     stroke-linejoin="round"
     fill="#ffffff"
     fill-opacity="0.2"
     fill-rule="evenodd"
     d="m 333,280 -2,-2 -1,8 h -9 v 8 l -3,1 v 3 l -2,2 h -7 l -1,7 -3,1 -1,4 2,2 -1,5 1,2 3,1 -1,4 2,1 v 2 h 2 l -1,2 2,-3 1,4 h 5 l 1,3 h 2 l -3,4 1,1 5,-2 5,10 5,1 2,3 v 9 l 4,2 v 5 l -2,4 2,10 h -2 3 l 1,2 3,1 -2,1 -3,6 4,6 -1,2 2,-1 -5,5 1,2 4,3 1,-4 3,1 2,-2 h 3 l 1,3 h 2 l 2,-2 2,1 3,-5 h 2 l 3,6 6,3 -5,6 4,2 v 3 l -6,3 -2,5 1,7 2,3 6,3 3,11 -1,2 6,9 h -2 l -1,2 4,7 -2,7 -3,2 3,5 6,3 3,-3 -1,-2 h 4 l 1,2 5,2 2,-2 2,1 -2,1 1,3 2,1 h 11 l 2,-4 5,-3 1,-4 6,-1 1,3 4,-3 2,-12 h 4 v -2 h 6 l 4,3 -2,6 4,1 -1,4 h 3 l 1,2 v 6 l -2,3 9,10 -1,3 4,1 3,-3 8,1 v -2 l 6,-5 4,4 8,-8 12,-1 -1,2 2,2 h 2 l 1,-2 2,2 1,-1 1,7 h 2 l 5,8 -3,1 3,9 8,2 5,-9 v -2 l -2,-1 2,-6 9,-5 v -6 l 3,-6 -2,-1 -5,-9 4,-3 2,-7 7,-6 v -4 l 6,1 9,-14 3,1 5,5 7,3 5,-1 -2,2 1,1 5,-4 -1,-5 -3,-1 1,-2 -10,1 -6,-5 6,-16 5,-4 3,11 h 10 l 4,-3 1,-5 2,-2 h 3 l 3,-7 5,-5 3,-6 h 4 l 4,3 v 2 l 5,1 2,-3 -1,-2 3,-4 -3,-1 v -2 l 5,-5 -3,-4 1,-2 -4,-10 -4,-2 -4,-7 13,-5 2,-13 -1,-3 -3,-2 9,2 1,-5 -6,-9 1,-4 -5,-3 v -5 l -5,-7 10,5 3,-1 2,-4 2,7 2,-1 2,3 4,-2 2,4 2,-1 2,3 2,-1 2,-10 -4,-3 3,-4 -1,-3 3,-2 -6,-3 2,-4 -2,-4 5,-8 -2,-6 1,-6 2,-2 -3,-6 -6,-1 -3,2 -3,-2 8,-10 7,-2 4,-6 9,-6 -3,-3 h -2 l -1,2 h -6 l -1,-4 -3,-3 h -2 l -3,4 -12,-8 h -5 l -3,-2 -7,-8 -2,-6 -9,-12 -9,-8 -2,-4 -4,-3 h -10 l -12,-12 -3,-5 8,-4 2,-3 5,-1 3,-4 h 2 l -1,-5 -4,-6 -4,1 -6,-2 2,-4 -2,-3 -5,1 -2,2 -2,-1 -2,2 3,-6 -3,-3 v -12 h -3 l -1,-2 -1,3 -4,-1 -3,3 -4,-2 -4,1 -2,4 h -6 l 3,4 v 4 l -2,2 -1,-2 -3,4 -6,-1 -6,9 -3,1 -6,-18 v 3 l -5,2 v -7 l -5,2 -15,-1 -13,-9 -8,-15 -3,1 -5,-2 v 2 l -2,1 -2,-3 h -3 l -4,2 -3,-1 -5,4 3,2 -2,2 v 8 l -4,4 -3,9 2,7 h -2 l -4,6 h -3 l 1,7 -5,6 h -2 l -2,-4 -5,3 -2,4 -7,1 3,3 -3,4 3,3 4,-2 2,1 v 8 l 2,3 -1,1 2,1 v 2 l 3,1 -5,3 v -2 l -2,-1 -5,4 -2,-1 -2,6 -12,-4 -3,2 -5,-2 -4,-4 -7,5 2,10 2,1 -1,3 -6,2 1,2 h 3 l -2,3 v 5 l 3,4 -1,10 -4,-1 v 5 l -6,6 -2,-1 v 3 l -2,1 v 8 l -2,3 h -2 l -4,7 h -7 l -7,7 v 6 l -10,1 -3,3 z m 356,-62 4,-1 -2,-3 h -8 l -7,-5 -6,1 -8,-4 -2,2 8,18 h 13 l 7,3 3,3 6,-4 v -4 l -5,-6 -2,1 z m 34,-79 -1,-1 z m -44,66 v 5 l 2,1 5,-6 -5,-1 z m 6,51 3,3 h 3 l -6,-4 z m 20,-109 1,5 9,-1 z m -24,44 h -3 l -4,3 h -4 l 8,5 9,2 -1,-6 2,-1 -3,-4 h -3 z m 14,8 -4,1 5,1 3,-1 v -2 l 3,4 3,-3 -3,-3 -7,1 z m -27,112 -1,3 4,-1 1,-2 -1,1 -2,-4 v 3 z m 59,-175 h 2 l -1,-2 z m -75,222 1,1 3,-4 -4,1 1,1 z m 85,-216 v 1 z m -94,220 h 5 -3 l 1,-1 -2,-1 v 2 z m 53,-130 -1,1 5,4 v 5 l 4,1 -2,-4 h 2 l 1,-4 -2,-1 h 2 l -2,-4 h -5 z m 9,-50 v -4 l -5,-1 1,-2 h -9 l -1,6 12,1 z m -18,162 h 1 z m -5,-57 4,-3 -4,2 z m -72,134 1,-1 z m 48,-61 2,-1 h -2 z m -7,-6 2,-1 v -4 l -1,3 z m 44,-183 2,1 v -2 z m 12,9 1,2 2,-1 -2,-1 z m -70,214 h 1 z m 72,-193 3,2 -2,-2 z m -19,41 -2,-1 -2,2 8,7 1,-1 -2,-4 2,-1 -4,-3 z m 3,-69 h 2 z m -8,90 2,1 z m -113,206 2,-1 -1,-1 z M 730,205 v -2 z m -25,17 v -1 z m -22,23 1,1 -1,-2 -1,1 z m -36,76 3,4 1,-4 -2,-2 -3,1 z m -54,151 1,1 v -2 z m 89,-190 1,1 v -2 z m -14,-17 v 2 l 1,-2 z m 21,77 h 1 z m 25,-140 -1,-1 z m -53,-59 1,8 3,5 6,3 1,2 5,1 1,-1 -11,-6 -2,-3 -2,-10 z m 63,61 1,2 -1,-3 z m -34,-2 1,-1 z m -34,183 2,-3 -2,-2 -2,2 v 3 z m -20,20 v -1 z m -51,37 h 1 z m 97,-180 3,-4 -1,-2 -5,-4 -1,-5 -5,1 -3,7 2,2 4,-2 3,6 h 3 z m 5,-3 h 1 z m 21,-112 -1,-2 v 2 z m -10,15 2,1 z m -25,0 -2,1 1,2 3,-2 z m 26,80 1,2 v -2 z m -12,19 h 1 z m -23,45 h 1 z m -52,119 v -2 l -1,2 z m 96,-194 -1,2 z m 10,-74 -1,-1 h 2 l -2,-2 -1,3 z m -36,44 v 2 h 2 l -1,-2 z m 22,-41 h 1 z m -40,121 1,-1 z m -77,177 z m 0,-1 v -1 z m 67,-67 4,-2 -2,-1 -2,2 z m 31,-188 h 3 z m -21,76 h 2 l -1,-1 z m -27,42 v -2 z m 43,-55 -1,1 z m -42,56 h 1 z m 34,-115 -1,-2 h -3 v 4 l 3,-1 z m 29,22 1,-3 h 2 l -2,-1 v -2 l -2,1 v 5 z m -45,-12 -3,-1 -2,5 v 6 l 3,3 6,-3 -1,-5 -4,-5 z m -72,275 v -2 l -3,-2 -2,2 4,1 z M 695,201 h 1 z m -45,17 2,1 v -2 h -2 z m 11,92 2,3 v -3 z m 34,-67 v -1 z m -26,8 -2,1 v 3 l 3,-4 z m -103,214 1,-1 z m 28,8 h 2 z M 713,157 Z m -34,4 -1,-1 z m 52,46 v -1 z m -17,-52 1,1 -1,-2 z m -54,58 -2,2 1,3 h 2 l 1,-2 -1,-3 z m -78,242 -1,1 2,-1 z m 80,-260 4,-2 -2,-3 1,-1 -5,1 -1,3 z m 66,10 1,1 -2,-3 z m -92,118 -1,1 h 2 z m 1,72 z m 49,-150 1,1 z m -27,81 3,-1 z m 45,-173 -1,1 h 2 z m -52,237 1,-1 z m 14,-85 v 2 l 1,-1 z m -35,-143 2,-1 h -2 z m 51,66 h -3 l 3,2 2,-1 z m -5,-26 h 2 z m -24,11 1,1 z m 33,40 h 1 z m -20,34 h 1 z m -78,171 h 1 z m 96,-204 h 1 z m -125,212 1,1 z m 133,-212 2,-1 -5,-2 -1,-3 h -3 l 2,4 3,2 z m -97,198 h -1 z m 85,-288 z m 9,6 2,1 -1,-1 z m -57,240 1,-1 z m 32,-115 -1,-1 z m 71,-84 1,1 -1,-2 z m -52,36 -1,1 2,-1 z m -124,223 -1,1 2,-2 z M 679,229 v 2 h 2 v -2 z m 28,-1 v 1 z m -87,198 2,-2 1,1 v -2 l -2,2 z m 88,-244 h 1 z m -102,242 3,-1 z m 90,-262 -1,1 2,-1 z m -6,35 v 4 l 4,-2 -1,-2 z m 1,43 3,1 3,-2 v -2 l -5,1 z m 34,-100 1,-1 h -2 z m 12,12 1,-4 -3,2 1,1 z m -73,63 -1,1 z m -71,259 1,-1 z m -9,-34 5,-3 -2,-2 -9,2 v 2 h 4 z m 65,-70 -1,1 h 2 z m 23,-144 v 2 l 2,-1 -1,-2 z m 7,3 h -2 z m -15,-11 1,-2 -2,1 z m -99,245 -1,1 h 2 z M 701,147 v -2 z m -19,141 z m -45,30 1,-1 z m 55,-160 h -1 z m -100,279 5,-3 -5,-1 -2,3 z m 89,-191 1,1 v -2 l -2,1 z m 26,-16 z m -119,202 2,-1 h -2 z M 742,152 v -3 h -3 l 2,1 z m -75,83 1,1 -2,-2 z m 11,-8 h 1 z m -4,4 -1,-1 v 2 h 2 z m 12,24 h 1 z m -1,-25 6,2 -3,-3 -5,-1 z m -9,-1 v -1 z m -13,-10 -1,1 z m 5,11 1,2 2,-2 -1,-1 z m -89,206 4,-3 -4,1 z m 110,-197 2,1 -1,-2 h -2 z m -6,11 h 1 z m -23,138 1,-1 z m 6,-152 h 1 z m 26,-3 h 2 v -2 l -2,1 z m -7,25 h 2 z m -15,-31 v -1 z m -88,265 1,1 z m 3,-4 h 1 z M 693,236 h 1 z M 583,485 v 1 z"
     id="浙江省" />
  <path
     class="leaflet-interactive"
     stroke="#333333"
     stroke-opacity="1"
     stroke-width="1"
     stroke-linecap="round"
     stroke-linejoin="round"
     stroke-dasharray="1, 6"
     fill="#eeeeee"
     fill-opacity="0.5"
     fill-rule="evenodd"
     d="m 549,195 -2,-10 -6,-1 -15,1 -2,1 -3,6 -3,-3 2,-4 -5,1 -3,-2 3,-4 -2,-10 h -2 l -1,2 -11,1 1,1 -3,2 v -2 l -3,1 -2,-1 1,-1 h -3 v 7 l -6,-2 -4,2 -3,-3 h -5 l 1,-2 -6,-4 h -5 l 1,-4 -6,-1 v 14 l -5,4 h -2 v -3 l 2,-2 -5,2 -3,-2 -5,4 -4,-1 -8,6 -3,1 v -2 l -2,-1 -5,4 -2,-1 -2,6 -12,-4 -3,2 -5,-2 -4,-4 -7,5 2,10 2,1 -1,3 -6,2 1,2 h 3 l -2,3 v 5 l 3,4 -1,10 -4,-1 v 5 l -6,6 -2,-1 v 3 l -2,1 v 8 l -2,3 h -2 l -4,7 h -7 l -7,7 v 6 l -10,1 -4,4 10,11 h 5 l 1,2 8,2 2,5 h -2 v 4 l 3,5 h 6 l 5,-3 v -2 l 5,-5 1,1 7,-6 5,4 v 3 l 3,2 -1,1 3,3 10,-3 1,2 1,-1 3,2 3,-4 v -4 l 4,4 6,-3 2,-4 -1,-10 4,-2 2,3 h 4 l 3,7 h 2 l 3,-4 h 7 l 3,-6 h 6 l 1,-8 h 2 l -2,-4 4,-1 v -4 l 2,-1 -1,-3 2,-3 4,-2 5,2 7,-2 v -2 l -5,-1 -2,-5 h 11 l 2,-7 5,1 4,-5 1,-5 h 4 l 3,-4 h 3 l 2,3 3,-1 3,-3 v -2 h 2 v -3 l -4,-5 1,-5 -4,-1 2,-3 1,1 3,-3 4,2 2,-2 v 2 h 2 l 4,-4 3,2 7,1 4,-8 3,-1 2,-3 z"
     id="330100" />
  <path
     class="leaflet-interactive"
     stroke="#333333"
     stroke-opacity="1"
     stroke-width="1"
     stroke-linecap="round"
     stroke-linejoin="round"
     stroke-dasharray="1, 6"
     fill="#eeeeee"
     fill-opacity="0.5"
     fill-rule="evenodd"
     d="m 563,197 5,11 v 5 l 2,3 h 2 l 4,8 5,1 2,2 -4,3 -2,6 3,5 4,1 v 4 l -2,3 -6,3 v 2 l 2,1 -3,2 1,1 h -2 l 2,2 4,-2 2,3 -1,2 4,3 v 5 l 5,3 h 5 l 1,2 -2,2 2,14 -4,4 1,1 -2,2 v 4 l -2,1 2,3 -1,1 5,1 1,3 3,2 -1,4 4,2 v -2 l 2,1 2,-3 2,-4 -1,-2 2,-1 3,5 4,-1 7,3 2,-4 h 5 l 10,5 3,-1 2,-4 2,7 2,-1 2,3 4,-2 2,4 2,-1 2,3 2,-1 2,-10 -4,-3 3,-4 -1,-3 3,-2 -6,-3 2,-4 -2,-4 5,-8 -2,-6 1,-6 2,-2 -3,-6 -6,-1 -3,2 -3,-2 8,-10 7,-2 4,-6 8,-5 v -3 l -4,-1 -1,2 h -6 l -1,-4 -3,-3 h -2 l -3,4 -12,-8 h -5 l -3,-2 -7,-8 -2,-6 -9,-12 -9,-8 -2,-4 -4,-3 h -10 l -9,-9 -3,9 -5,5 v 2 l -11,5 z m 105,114 -1,3 4,-1 1,-2 -1,1 -2,-4 v 3 z m 19,33 h 1 z m -5,-57 4,-3 -4,2 z m -35,34 3,4 1,-4 -2,-2 -3,1 z m 35,-39 1,1 v -2 z m -14,-17 v 2 l 1,-2 z m 21,77 h 1 z m -25,-36 h 1 z m 0,-25 1,-1 z m 0,-3 h 2 l -1,-1 z m -3,32 2,3 v -3 z m -2,16 3,-1 z m 7,-21 v 2 l 1,-1 z m 0,-18 h 1 z m -2,8 -1,-1 z m 18,-7 z m -15,-53 1,1 -2,-2 z m -1,1 h 1 z"
     id="330200" />
  <path
     class="leaflet-interactive"
     stroke="#333333"
     stroke-opacity="1"
     stroke-width="1"
     stroke-linecap="round"
     stroke-linejoin="round"
     stroke-dasharray="1, 6"
     fill="#eeeeee"
     fill-opacity="0.5"
     fill-rule="evenodd"
     d="m 585,419 2,-3 1,-10 3,-1 2,-4 v -6 l 4,-1 1,-2 -10,-13 -1,1 -1,-2 h -2 l -3,6 -7,1 -4,-4 -7,2 -4,-4 1,-2 -9,-7 h -3 l -3,4 -2,-1 v 2 h -2 v 2 l -4,2 -8,-3 v -2 l -2,-1 h -3 l -1,5 -2,2 1,3 -2,2 -1,-1 -1,7 -3,-2 -1,4 v 2 l 3,3 -2,1 6,3 3,7 -3,4 2,1 -2,2 1,1 -3,1 2,4 -4,2 1,3 -3,2 v 6 l -6,3 -2,-1 -2,3 h -3 l -2,-4 -6,-1 h -2 l -1,2 -1,-1 -4,4 h -5 l -1,-4 -5,2 -3,-2 -1,3 -1,-2 -1,1 1,2 -2,3 -2,-2 -2,2 1,4 -2,8 v -2 l -11,10 -2,5 2,2 -2,6 4,1 -1,4 h 3 l 1,2 v 6 l -2,3 9,10 -1,3 4,1 3,-3 8,1 v -2 l 6,-5 4,4 8,-8 12,-1 -1,2 2,2 h 2 l 1,-2 2,2 1,-1 1,7 h 2 l 5,8 -3,1 3,9 8,2 5,-9 v -2 l -2,-1 2,-6 9,-5 v -6 l 3,-6 -2,-1 -5,-9 4,-3 2,-7 7,-6 v -4 l 6,1 9,-14 3,1 5,5 7,3 5,-1 -2,2 1,1 5,-4 -1,-5 -3,-1 1,-2 -10,1 -6,-5 6,-16 3,-3 z m -13,50 2,-1 -1,-1 z m 21,3 1,1 v -2 z m -8,-30 h 1 z m 2,16 z m 0,-1 v -1 z m -3,34 v -2 l -3,-2 -2,2 4,1 z m -18,-26 1,-1 z m 28,8 h 2 z m -12,-18 -1,1 2,-1 z m 6,3 h 1 z m -29,8 1,1 z m 36,-14 h -1 z m -36,18 -1,1 2,-2 z m 34,4 1,-1 z m -9,-34 5,-3 -2,-2 -9,2 v 2 h 4 z m -19,23 -1,1 h 2 z m 27,-26 5,-3 -5,-1 -2,3 z m -13,-1 4,-3 -4,1 z m 3,56 1,1 z m 3,-4 h 1 z m -2,-3 v 1 z"
     id="330300" />
  <path
     class="leaflet-interactive"
     stroke="#333333"
     stroke-opacity="1"
     stroke-width="1"
     stroke-linecap="round"
     stroke-linejoin="round"
     stroke-dasharray="1, 6"
     fill="#eeeeee"
     fill-opacity="0.5"
     fill-rule="evenodd"
     d="m 549,195 10,3 19,-8 v -2 l 5,-5 3,-9 -6,-8 8,-4 2,-3 5,-1 3,-4 h 2 l -1,-5 -4,-6 -4,1 -6,-2 2,-4 -2,-3 -5,1 -2,2 -2,-1 -2,2 3,-6 -3,-3 v -12 h -3 l -1,-2 -1,3 -4,-1 -3,3 -4,-2 -4,1 -2,4 h -6 l 3,4 v 4 l -2,2 -1,-2 -3,4 -6,-1 -7,10 h -4 l 2,3 -2,3 h -2 l 1,2 -8,3 -1,-1 -1,4 -4,3 2,2 -2,2 v 3 l 2,1 2,10 -3,4 3,2 5,-1 -2,4 3,3 3,-6 2,-1 15,-1 6,1 1,9 z"
     id="330400" />
  <path
     class="leaflet-interactive"
     stroke="#333333"
     stroke-opacity="1"
     stroke-width="1"
     stroke-linecap="round"
     stroke-linejoin="round"
     stroke-dasharray="1, 6"
     fill="#eeeeee"
     fill-opacity="0.5"
     fill-rule="evenodd"
     d="m 528,145 -6,-18 v 3 l -5,2 v -7 l -5,2 -15,-1 -13,-9 -8,-15 -3,1 -5,-2 v 2 l -2,1 -2,-3 -7,2 -3,-1 -5,4 3,2 -2,2 v 8 l -4,4 -3,9 2,7 h -2 l -4,6 h -3 l 1,7 -5,6 h -2 l -2,-4 -5,3 -2,4 -7,1 3,3 -3,4 3,3 4,-2 2,1 v 8 l 2,3 -1,1 2,1 v 2 l 3,1 h 2 l 3,-4 5,1 4,-4 3,2 6,-2 -2,2 v 3 l 5,-2 2,-2 v -14 l 6,1 -1,4 h 5 l 2,2 1,-1 2,5 h 5 l 3,3 2,-2 8,2 v -6 h 7 v 2 l 3,-1 -1,-2 h 2 l 1,-2 7,1 4,-8 -2,-2 4,-3 v -4 l 2,1 8,-3 -1,-1 4,-4 -2,-3 z"
     id="330500" />
  <path
     class="leaflet-interactive"
     stroke="#333333"
     stroke-opacity="1"
     stroke-width="1"
     stroke-linecap="round"
     stroke-linejoin="round"
     stroke-dasharray="1, 6"
     fill="#eeeeee"
     fill-opacity="0.5"
     fill-rule="evenodd"
     d="m 481,259 2,2 h 4 l -1,1 2,2 -3,1 -1,5 h 3 l 3,4 h 2 v 4 l 6,-2 3,-3 8,6 -2,2 2,3 -2,5 3,4 5,-6 h 2 v -4 h 4 l 2,-3 4,-2 4,3 v 7 l 4,2 -1,1 4,4 7,1 1,-2 h 2 v 4 h 6 v 7 l 5,1 2,-3 5,2 -1,-2 2,-5 2,2 h 2 v -2 h 7 l 2,-2 5,2 v -3 l 4,-1 1,2 h 2 v -2 l 4,-2 -2,-6 v -8 l 2,-2 -1,-2 -1,1 -9,-3 1,-2 -2,-6 -3,-1 1,-2 -2,-3 -4,2 -2,-1 4,-4 -2,-1 v -2 h 2 l -1,-2 5,-1 2,-3 v -4 l -8,-6 2,-1 -1,-1 2,-4 4,-3 -2,-2 -5,-1 -3,-3 1,-1 -3,-5 -1,1 -7,-19 -7,1 -7,-3 -4,6 -3,1 -4,8 -9,-3 -3,1 -2,3 h -2 v -2 l -2,2 -1,-2 -5,3 -2,-1 -2,3 4,1 -1,5 4,5 v 3 h -2 v 2 l -3,3 -2,-1 -1,2 -2,-3 h -3 l -3,4 h -3 l -6,10 -2,-2 -3,1 -2,6 -8,2 -3,-2 3,7 1,-1 3,2 z"
     id="330600" />
  <path
     class="leaflet-interactive"
     stroke="#333333"
     stroke-opacity="1"
     stroke-width="1"
     stroke-linecap="round"
     stroke-linejoin="round"
     stroke-dasharray="1, 6"
     fill="#eeeeee"
     fill-opacity="0.5"
     fill-rule="evenodd"
     d="m 422,351 1,4 h 2 l 3,-3 3,4 5,-2 -2,12 1,2 2,-1 v 2 l 2,1 -1,6 1,-1 6,4 h 5 l 1,-2 3,2 3,-1 6,-7 -2,-2 1,-2 3,1 2,-2 v -4 l 10,-11 h 5 l 4,4 5,-3 1,2 4,1 1,-3 h 5 l 1,-4 4,-4 1,-8 4,2 -1,3 3,2 2,4 3,1 v -2 l 2,-1 2,2 h 4 l 4,-6 1,3 h 3 l 8,-4 2,-8 h 5 v -5 l -3,-1 v -5 l 3,-4 h 2 l -3,-1 1,-3 5,-4 -2,-8 1,-3 -7,-1 1,-3 h -2 l -1,2 -7,-1 -4,-4 1,-1 -4,-2 v -7 h -2 l -2,-3 -4,2 -2,3 h -4 l 1,4 h -3 l -5,6 -3,-4 2,-3 -2,-5 2,-2 -7,-6 -7,5 h -3 v -4 h -2 l -3,-4 h -3 l 1,-5 3,-1 -2,-4 v 2 h -3 l -2,-3 -5,2 -7,-2 -4,2 -2,3 1,3 -2,1 v 3 l -4,2 2,3 -2,1 -1,8 h -6 l -3,6 h -7 l -2,4 h -2 l -3,-3 v -4 l -2,-2 -1,2 h -2 l -1,-3 -4,2 v 10 l -2,1 v 3 h -3 l -5,6 1,6 3,5 5,4 v 9 l -2,2 v 3 l 3,4 -1,4 -2,1 3,3 -1,2 z"
     id="330700" />
  <path
     class="leaflet-interactive"
     stroke="#333333"
     stroke-opacity="1"
     stroke-width="1"
     stroke-linecap="round"
     stroke-linejoin="round"
     stroke-dasharray="1, 6"
     fill="#eeeeee"
     fill-opacity="0.5"
     fill-rule="evenodd"
     d="m 422,351 2,-3 -3,-2 3,-6 -4,-7 3,-2 v -9 l -3,-1 v -2 l -3,-2 -3,-8 2,-5 h -2 l -2,-4 -2,3 2,1 v 2 h -2 v 2 l -4,-2 -1,1 v -2 l -11,3 -3,-2 1,-2 -4,-4 1,-1 -5,-4 -10,7 -4,6 -4,2 h -6 l -3,-5 v -3 h 2 l -3,-7 -1,1 -5,-2 -1,-2 -7,-1 -11,-13 -1,8 h -9 v 8 l -3,1 v 3 l -2,2 h -7 l -1,7 -3,1 v 11 l 1,2 3,1 -1,4 2,1 v 2 h 2 l -1,2 2,-3 1,4 h 5 l 1,3 h 2 l -3,4 1,1 5,-2 5,10 5,1 2,3 v 9 l 4,2 v 5 l -2,4 2,10 h -2 3 l 1,2 3,1 -2,1 -3,6 4,6 -1,2 2,-1 -5,5 5,5 1,-4 3,1 2,-2 h 3 l 1,3 7,-2 8,-14 h -4 v -9 l 3,-3 2,1 4,-3 5,3 4,-5 -1,-3 2,-5 5,-2 4,-5 15,-6 4,1 4,-5 3,-1 z"
     id="330800" />
  <path
     class="leaflet-interactive"
     stroke="#333333"
     stroke-opacity="1"
     stroke-width="1"
     stroke-linecap="round"
     stroke-linejoin="round"
     stroke-dasharray="1, 6"
     fill="#eeeeee"
     fill-opacity="0.5"
     fill-rule="evenodd"
     d="m 689,218 4,-1 -2,-3 h -8 l -7,-5 -6,1 -8,-4 -2,2 8,18 h 13 l 7,3 3,3 6,-4 v -4 l -5,-6 -2,1 z m 34,-79 -1,-1 z m -44,66 v 5 l 2,1 5,-6 -5,-1 z m 6,51 3,3 h 3 l -6,-4 z m 20,-109 1,5 9,-1 z m -24,44 h -3 l -4,3 h -4 l 8,5 9,2 -1,-6 2,-1 -3,-4 h -3 z m 14,8 -4,1 5,1 3,-1 v -2 l 3,4 3,-3 -3,-3 -7,1 z m 32,-63 h 2 l -1,-2 z m 10,6 v 1 z m -41,90 -1,1 5,4 v 5 l 4,1 -2,-4 h 2 l 1,-4 -2,-1 h 2 l -2,-4 h -5 z m 9,-50 v -4 l -5,-1 1,-2 h -9 l -1,6 12,1 z m -10,-11 2,1 v -2 z m 12,9 1,2 2,-1 -2,-1 z m 2,21 3,2 -2,-2 z m -19,41 -2,-1 -2,2 8,7 1,-1 -2,-4 2,-1 -4,-3 z m 3,-69 h 2 z m -8,90 2,1 z m 45,-58 v -2 z m -25,17 v -1 z m -22,23 1,1 -1,-2 -1,1 z m 31,-43 -1,-1 z m -53,-59 1,8 3,5 6,3 1,2 5,1 1,-1 -11,-6 -2,-3 -2,-10 z m 63,61 1,2 -1,-3 z m -34,-2 1,-1 z m -8,60 3,-4 -1,-2 -5,-4 -1,-5 -5,1 -3,7 2,2 4,-2 3,6 h 3 z m 5,-3 h 1 z m 21,-112 -1,-2 v 2 z m -10,15 2,1 z m -25,0 -2,1 1,2 3,-2 z m 26,80 1,2 v -2 z m -12,19 h 1 z m 21,-30 -1,2 z m 10,-74 -1,-1 h 2 l -2,-2 -1,3 z m -36,44 v 2 h 2 l -1,-2 z m 22,-41 h 1 z m -19,42 h 3 z m -5,63 -1,1 z m -8,-59 -1,-2 h -3 v 4 l 3,-1 z m 29,22 1,-3 h 2 l -2,-1 v -2 l -2,1 v 5 z m -45,-12 -3,-1 -2,5 v 6 l 3,3 6,-3 -1,-5 -4,-5 z m 39,-15 h 1 z m -45,17 2,1 v -2 h -2 z m 45,25 v -1 z m -26,8 -2,1 v 3 l 3,-4 z m 44,-94 z m -34,4 -1,-1 z m 52,46 v -1 z m -17,-52 1,1 -1,-2 z m -54,58 -2,2 1,3 h 2 l 1,-2 -1,-3 z m 2,-18 4,-2 -2,-3 1,-1 -5,1 -1,3 z m 66,10 1,1 -2,-3 z m -42,40 1,1 z m 18,-92 -1,1 h 2 z m -73,9 2,-1 h -2 z m 46,40 h 2 z m -24,11 1,1 z m 33,40 h 1 z m -4,-25 h -3 l 3,2 2,-1 z m 2,26 h 1 z m 8,0 2,-1 -5,-2 -1,-3 h -3 l 2,4 3,2 z m -12,-90 z m 9,6 2,1 -1,-1 z m 46,41 1,1 -1,-2 z m -52,36 -1,1 2,-1 z m -4,-18 v 2 h 2 v -2 z m 28,-1 v 1 z m 1,-46 h 1 z m -12,-20 -1,1 2,-1 z m -6,35 v 4 l 4,-2 -1,-2 z m 1,43 3,1 3,-2 v -2 l -5,1 z m 34,-100 1,-1 h -2 z m 12,12 1,-4 -3,2 1,1 z m -73,63 -1,1 z m 8,11 v 2 l 2,-1 -1,-2 z m 7,3 h -2 z m -15,-11 1,-2 -2,1 z m 37,-71 v -2 z m -9,11 h -1 z m -11,88 1,1 v -2 l -2,1 z m 26,-16 z m 35,-78 v -3 h -3 l 2,1 z m -64,75 h 1 z m -4,4 -1,-1 v 2 h 2 z m 12,24 h 1 z m -1,-25 6,2 -3,-3 -5,-1 z m -9,-1 v -1 z m -13,-10 -1,1 z m 5,11 1,2 2,-2 -1,-1 z m 21,9 2,1 -1,-2 h -2 z m -6,11 h 1 z m 9,-17 h 2 v -2 l -2,1 z m -7,25 h 2 z m -15,-31 v -1 z m 23,9 h 1 z"
     id="330900" />
  <path
     class="leaflet-interactive"
     stroke="#333333"
     stroke-opacity="1"
     stroke-width="1"
     stroke-linecap="round"
     stroke-linejoin="round"
     stroke-dasharray="1, 6"
     fill="#eeeeee"
     fill-opacity="0.5"
     fill-rule="evenodd"
     d="m 630,312 h -4 l -3,3 h -4 l -3,-2 -4,1 -2,-5 -2,1 -3,7 -3,1 v 2 l -4,-2 -2,-8 -6,-2 1,-1 -2,-3 2,-5 2,-1 -4,-4 -3,1 -1,3 -4,-2 -3,2 h -7 v 2 l -4,-2 -2,4 1,3 -5,-2 -2,3 h -5 l 1,3 -6,6 3,2 h -2 l -3,4 v 4 l 1,2 h 2 v 5 h -5 l -2,8 -8,4 h -2 l -2,-3 -4,7 -3,-2 -3,2 -1,4 -3,2 v 3 l -2,1 v 3 l -2,1 5,11 h -4 l -1,3 -3,2 v 3 l 2,-2 8,6 2,-2 -1,-3 3,-6 3,-1 2,1 v 2 l 8,3 3,-1 v -2 h 2 l 1,-3 2,1 6,-4 8,5 v 4 l 4,4 h 4 l 1,-2 h 2 l 2,3 5,1 4,-1 3,-6 h 2 l 1,2 1,-1 6,7 1,4 3,1 -1,3 -4,1 v 6 l -2,4 -3,1 -1,10 -2,3 3,11 h 10 l 4,-3 1,-5 2,-2 h 3 l 3,-7 5,-5 3,-6 h 4 l 4,3 v 2 l 5,1 2,-3 -1,-2 3,-4 -3,-1 v -2 l 5,-5 -3,-4 1,-2 -4,-10 -4,-2 -4,-7 13,-5 2,-13 -1,-3 -3,-2 9,2 1,-5 -6,-9 1,-4 -5,-3 v -5 l -4,-4 z m 22,46 1,1 3,-4 -4,1 1,1 z m -9,4 h 5 -3 l 1,-1 -2,-1 v 2 z m -33,59 1,-1 z m 48,-61 2,-1 h -2 z m -7,-6 2,-1 v -4 l -1,3 z m -14,40 h 1 z m 19,-9 2,-3 -2,-2 -2,2 v 3 z m -20,20 v -1 z m -24,20 v -2 l -1,2 z m 42,-35 4,-2 -2,-1 -2,2 z m -17,-70 v -2 z m 1,1 h 1 z m -2,2 -1,1 h 2 z m 1,72 z m 15,-5 1,-1 z m -20,20 1,-1 z m -12,16 2,-2 1,1 v -2 l -2,2 z m -14,-2 3,-1 z m 43,-54 -1,1 h 2 z m -12,-52 1,-1 z m -49,114 2,-1 h -2 z m 72,-44 1,-1 z"
     id="331000" />
  <path
     class="leaflet-interactive"
     stroke="#333333"
     stroke-opacity="1"
     stroke-width="1"
     stroke-linecap="round"
     stroke-linejoin="round"
     stroke-dasharray="1, 6"
     fill="#eeeeee"
     fill-opacity="0.5"
     fill-rule="evenodd"
     d="m 523,347 -1,-2 -3,1 v 2 l -2,-1 -5,-4 v -5 l -3,-1 -1,-2 -2,4 1,5 -4,3 -1,5 h -5 l -1,3 -4,-1 -1,-2 -5,3 -4,-4 -6,1 -8,10 -1,4 -2,2 h -4 l 2,3 -1,2 -1,-1 -7,7 -3,-2 v 2 h -6 l -6,-4 -1,2 1,-6 -2,-4 -2,1 -1,-2 2,-12 -5,2 -3,-4 h -2 l -2,3 -3,-6 -3,1 -4,5 -4,-1 -2,2 -7,1 -6,3 -6,7 h -3 l -2,5 1,3 -4,5 -5,-3 -8,5 -1,9 h 4 l -3,7 -3,3 h 2 l 3,6 6,3 -5,6 4,2 v 3 l -6,3 v 2 l -2,1 1,9 2,3 6,3 3,11 -1,2 6,9 h -2 l -1,2 4,7 -2,7 -3,2 5,7 4,1 3,-3 -1,-2 h 4 l 1,2 5,2 2,-2 2,1 -2,1 1,3 2,1 h 11 l 2,-4 5,-3 1,-4 6,-1 1,3 2,-1 3,-5 1,-9 h 4 v -2 l 8,1 2,-2 v -3 l 9,-9 h 3 v -11 l 2,-2 2,2 2,-3 -2,-2 2,-1 1,2 1,-3 2,2 6,-2 1,4 h 5 l 6,-5 7,1 3,4 h 4 v -3 h 8 l 1,-8 3,-1 -1,-3 4,-3 v -2 l -2,-1 3,-2 v -6 l 2,-2 -2,-2 -1,-5 -6,-3 2,-1 -3,-3 v -6 l 4,2 1,-7 -1,-2 h -3 l -3,-3 -1,2 -1,-3 4,-5 1,1 3,-3 -4,-5 -1,-4 3,-2 -1,-1 2,-2 v -3 l 4,-3 v -3 z"
     id="331100" />
</svg>
