<?xml version="1.0" encoding="UTF-8" standalone="no"?>
<svg
   pointer-events="none"
   class="leaflet-zoom-animated"
   width="1111"
   height="640"
   viewBox="-93 -53 1111 640"
   style="transform: translate3d(-93px, -53px, 0px);"
   version="1.1"
   id="svg1"
   sodipodi:docname="海南省.svg"
   inkscape:version="1.4 (86a8ad7, 2024-10-11)"
   xmlns:inkscape="http://www.inkscape.org/namespaces/inkscape"
   xmlns:sodipodi="http://sodipodi.sourceforge.net/DTD/sodipodi-0.dtd"
   xmlns="http://www.w3.org/2000/svg"
   xmlns:svg="http://www.w3.org/2000/svg">
  <defs
     id="defs1" />
  <sodipodi:namedview
     id="namedview1"
     pagecolor="#ffffff"
     bordercolor="#000000"
     borderopacity="0.25"
     inkscape:showpageshadow="2"
     inkscape:pageopacity="0.0"
     inkscape:pagecheckerboard="0"
     inkscape:deskcolor="#d1d1d1"
     inkscape:zoom="9.7125"
     inkscape:cx="520.10296"
     inkscape:cy="188.67439"
     inkscape:window-width="1920"
     inkscape:window-height="991"
     inkscape:window-x="-9"
     inkscape:window-y="-9"
     inkscape:window-maximized="1"
     inkscape:current-layer="svg1" />
  <path
     class="leaflet-interactive"
     stroke="#000000"
     stroke-opacity="1"
     stroke-width="2"
     stroke-linecap="round"
     stroke-linejoin="round"
     fill="#ffffff"
     fill-opacity="0.2"
     fill-rule="evenodd"
     d="m 443,129 h -9 l -7,3 -3,-1 -9,11 -6,3 v 21 l 21,8 4,-1 1,-4 h 5 l 6,-6 5,-1 3,-5 v -6 l 3,-7 7,-6 v -3 l -2,-6 -5,-1 -1,-2 -4,2 h -9 z m 47,377 h 2 l -1,-1 z m 24,-98 2,-1 -1,2 2,-3 -1,-2 -1,3 z m -28,98 1,1 v -2 z m -13,-306 3,-1 h -3 z m 143,44 v 2 h 2 -2 v -3 z M 491,504 v -1 z m -11,-284 2,-1 h -4 l 3,1 z m -2,-1 -2,1 h 3 -3 z m 51,201 2,2 9,-2 4,-6 -2,-2 z m 2,-29 1,2 z m -1,1 h 1 z M 485,217 h 1 z m -5,-3 v -1 z m 56,180 1,1 -1,-2 z m -45,-193 1,1 z m 56,156 1,1 z m 26,15 1,1 v -3 z m -28,-6 h 2 z m -19,54 h 1 z m -98,6 1,1 3,-4 3,-1 4,1 -3,-2 h -4 l -2,3 z m 155,-35 1,-1 z m -87,-166 4,-1 -1,-1 z m 2,167 h 1 z m 44,-46 h 2 v -2 z m -47,-128 -1,1 4,-1 z m 93,138 -1,1 3,1 1,-1 h -3 l 1,-1 z m -94,-153 -1,-1 z m -20,11 h 1 z m 91,154 1,-1 z m -19,39 h 2 z m -3,2 2,-1 z m 15,-7 2,2 1,-1 -2,-1 z m -29,9 1,2 v -2 z m 35,-31 v -1 z m 23,4 h 1 z m -64,5 2,-1 z m 24,-47 2,-2 -2,1 z m -2,-10 v -2 z m 7,13 v -1 z m -76,-131 1,1 -1,-2 z m 54,177 v 1 z m -91,24 1,1 2,-2 h -3 z m 154,-85 1,2 z M 479,211 Z m 18,3 2,-1 h -2 z m -17,10 2,-1 z m 48,141 v -3 z m 21,43 1,1 z m 11,-47 h 1 z m -13,-140 3,-1 h -3 z m 29,160 -1,1 h 2 z m -53,2 h 1 z m 23,38 1,-1 z m -4,-72 1,-2 z m 75,-2 1,1 v -2 z m -80,13 2,-1 h -2 z m 10,-29 h 1 z m 44,23 2,-1 z m -140,55 3,-1 h -3 z m 109,-9 h 1 z m -47,10 1,-1 z m 20,-66 v -1 z m 72,14 1,-1 z M 536,224 h 2 z m -82,187 h 1 z m 111,-11 1,1 v -2 z m -90,22 2,-1 -1,-1 z m 3,-26 h 1 z m -27,20 v -1 z m 42,-26 h 1 z m -9,20 h 2 l -1,-1 z m 94,-47 v -1 z m 27,-14 4,1 -1,-2 h -2 z m -54,80 v 1 z m -73,-10 1,-1 z m 20,43 v -1 z m 47,-70 2,-1 h -2 z m 6,20 1,-1 z m -29,23 v 1 z m 70,-218 1,1 v -2 z m 15,146 h 1 z M 508,142 v -1 z m 33,82 h 2 l -1,-1 z m -14,-74 2,-1 h -2 z m -27,328 1,1 v -2 z m -23,-65 2,1 -1,-1 z m 14,-22 h 1 z m 15,24 1,-1 z m -7,52 1,2 v -2 z m -1,-2 v -1 z m 64,-192 h 2 z m -56,207 v -1 z m -8,-2 h 2 l -1,-1 z m -7,-271 -1,-1 z m 0,25 h -1 z m 9,240 v -1 z m 53,-49 1,-1 z m -78,-7 1,1 1,-2 z m 55,-187 1,1 z m 22,-5 v 1 z m 42,163 -1,1 z m -94,-171 1,-1 z m 71,139 h 1 z m -74,21 h 2 z m 48,-143 v 1 z m 61,107 v 2 z m 9,1 v 1 z m -80,38 h 1 z"
     id="海南省" />
  <path
     class="leaflet-interactive"
     stroke="#333333"
     stroke-opacity="1"
     stroke-width="1"
     stroke-linecap="round"
     stroke-linejoin="round"
     stroke-dasharray="1, 6"
     fill="#eeeeee"
     fill-opacity="0.5"
     fill-rule="evenodd"
     d="m 443,129 2,8 3,-1 2,4 1,-1 3,2 2,-8 -1,-3 -4,-3 -8,1 z"
     id="460100" />
  <path
     class="leaflet-interactive"
     stroke="#333333"
     stroke-opacity="1"
     stroke-width="1"
     stroke-linecap="round"
     stroke-linejoin="round"
     stroke-dasharray="1, 6"
     fill="#eeeeee"
     fill-opacity="0.5"
     fill-rule="evenodd"
     d="m 416,169 14,5 4,-1 2,-7 -1,-1 -2,3 h -3 l -1,-4 h -6 l -5,3 z"
     id="460200" />
  <path
     class="leaflet-interactive"
     stroke="#333333"
     stroke-opacity="1"
     stroke-width="1"
     stroke-linecap="round"
     stroke-linejoin="round"
     stroke-dasharray="1, 6"
     fill="#eeeeee"
     fill-opacity="0.5"
     fill-rule="evenodd"
     d="m 514,408 2,-1 -1,2 2,-3 -1,-2 -1,3 z m -41,-208 3,-1 h -3 z m 143,44 v 2 h 2 -2 v -3 z m -136,-24 2,-1 h -4 l 3,1 z m 49,200 2,2 9,-2 4,-6 -2,-2 z m -51,-201 -2,1 h 3 -3 z m 53,172 1,2 z m -1,1 h 1 z M 485,217 h 1 z m -5,-3 v -1 z m 56,180 1,1 -1,-2 z m -45,-193 1,1 z m 82,171 1,1 v -3 z m -28,-6 h 2 z m 2,-9 1,1 z m -119,69 1,1 3,-4 3,-1 4,1 -3,-2 h -4 l -2,3 z m 98,-6 h 1 z m 57,-29 1,-1 z m -87,-166 4,-1 -1,-1 z m 2,167 h 1 z m 60,11 h 2 z m -16,-57 h 2 v -2 z m -47,-128 -1,1 4,-1 z m -1,-15 -1,-1 z m -20,11 h 1 z m 91,154 1,-1 z m 23,-12 -1,1 3,1 1,-1 h -3 l 1,-1 z m -59,55 1,2 v -2 z m 14,-2 2,-1 z m 3,-2 h 2 z m 18,-27 v -1 z m -41,9 2,-1 z m 64,-5 h 1 z m -88,97 v -1 z m 31,-90 v 1 z m -44,115 1,1 z m -47,-91 1,1 2,-2 h -3 z m 108,-73 2,-2 -2,1 z m 5,3 v -1 z m -76,-131 1,1 -1,-2 z m 69,118 v -2 z m -48,-118 2,-1 h -2 z m 52,194 1,1 z m 44,-78 1,2 z M 479,211 Z m 49,154 v -3 z m -48,-141 2,-1 z m 20,255 h 1 z m 76,-98 -1,1 h 2 z m -53,2 h 1 z m 24,-162 3,-1 h -3 z m 13,140 h 1 z m -14,60 1,-1 z m 14,-21 h 1 z m -109,9 3,-1 h -3 z m 62,1 1,-1 z m 24,-50 2,-1 h -2 z m 5,-11 1,-2 z m 5,-18 h 1 z m 44,23 2,-1 z m 26,-7 1,1 v -2 z M 496,479 h 1 z m -5,27 v -1 z m 0,-2 h 1 z m 74,-104 1,1 v -2 z m -114,16 v -1 z m 3,-5 h 1 z m 21,11 2,-1 -1,-1 z m 9,-12 h 2 l -1,-1 z m 9,-20 h 1 z m 112,-32 1,-1 z M 536,224 h 2 z m -3,120 v -1 z m -55,52 h 1 z m 100,-49 1,-1 z m -27,82 v 1 z m -29,6 v 1 z m -24,27 v -1 z m 53,-50 1,-1 z m -73,7 1,-1 z m 67,-27 2,-1 h -2 z m 33,-29 v -1 z m 27,-14 4,1 -1,-2 h -2 z M 498,465 v -1 z m 1,2 1,2 v -2 z m 1,11 1,1 v -2 z m -23,-65 2,1 -1,-1 z m 29,2 1,-1 z m -15,-24 h 1 z m 116,-28 h 1 z m -15,-146 1,1 v -2 z m -51,7 h 2 l -1,-1 z m -33,-82 v -1 z m 19,8 2,-1 h -2 z m -29,328 h 2 l -1,-1 z m 8,2 v -1 z m 56,-207 h 2 z m -71,-66 -1,-1 z m 0,25 h -1 z m 9,240 v -1 z m 53,-49 1,-1 z m -78,-7 1,1 1,-2 z m 77,-192 v 1 z m 42,163 -1,1 z m -64,-158 1,1 z m -30,-13 1,-1 z m 71,139 h 1 z m -74,21 h 2 z m 48,-143 v 1 z m 61,107 v 2 z m 9,1 v 1 z m -80,38 h 1 z"
     id="460300" />
  <path
     class="leaflet-interactive"
     stroke="#333333"
     stroke-opacity="1"
     stroke-width="1"
     stroke-linecap="round"
     stroke-linejoin="round"
     stroke-dasharray="1, 6"
     fill="#eeeeee"
     fill-opacity="0.5"
     fill-rule="evenodd"
     d="m 416,141 5,3 h 7 v 2 h 2 l 2,3 2,-3 -2,-2 h 2 l 1,-3 -5,-4 1,-1 -2,-4 -5,-1 -3,3 v 2 l -4,3 z"
     id="460400" />
  <path
     class="leaflet-interactive"
     stroke="#333333"
     stroke-opacity="1"
     stroke-width="1"
     stroke-linecap="round"
     stroke-linejoin="round"
     stroke-dasharray="1, 6"
     fill="#eeeeee"
     fill-opacity="0.5"
     fill-rule="evenodd"
     d="m 434,157 -3,-1 -2,-3 -4,3 v 4 l 2,2 h 3 l -1,-1 h 2 l 2,-3 z"
     id="469001" />
  <path
     class="leaflet-interactive"
     stroke="#333333"
     stroke-opacity="1"
     stroke-width="1"
     stroke-linecap="round"
     stroke-linejoin="round"
     stroke-dasharray="1, 6"
     fill="#eeeeee"
     fill-opacity="0.5"
     fill-rule="evenodd"
     d="m 454,151 3,-7 -3,1 -2,-3 -4,4 v 2 h -3 l -2,2 1,4 8,-3 z"
     id="469002" />
  <path
     class="leaflet-interactive"
     stroke="#333333"
     stroke-opacity="1"
     stroke-width="1"
     stroke-linecap="round"
     stroke-linejoin="round"
     stroke-dasharray="1, 6"
     fill="#eeeeee"
     fill-opacity="0.5"
     fill-rule="evenodd"
     d="m 457,144 7,-6 v -3 l -2,-6 -5,-1 -1,-2 -4,2 4,5 -2,3 1,4 -3,1 1,4 2,-1 z"
     id="469005" />
  <path
     class="leaflet-interactive"
     stroke="#333333"
     stroke-opacity="1"
     stroke-width="1"
     stroke-linecap="round"
     stroke-linejoin="round"
     stroke-dasharray="1, 6"
     fill="#eeeeee"
     fill-opacity="0.5"
     fill-rule="evenodd"
     d="m 444,154 -4,6 1,2 4,2 6,-2 3,-5 v -6 l -8,3 -1,-1 z"
     id="469006" />
  <path
     class="leaflet-interactive"
     stroke="#333333"
     stroke-opacity="1"
     stroke-width="1"
     stroke-linecap="round"
     stroke-linejoin="round"
     stroke-dasharray="1, 6"
     fill="#eeeeee"
     fill-opacity="0.5"
     fill-rule="evenodd"
     d="m 420,156 -4,-8 h -4 l -3,-3 -1,12 2,3 10,-3 z"
     id="469007" />
  <path
     class="leaflet-interactive"
     stroke="#333333"
     stroke-opacity="1"
     stroke-width="1"
     stroke-linecap="round"
     stroke-linejoin="round"
     stroke-dasharray="1, 6"
     fill="#eeeeee"
     fill-opacity="0.5"
     fill-rule="evenodd"
     d="m 445,148 h 2 l 2,-4 3,-2 v -2 h -2 l -2,-4 -5,2 v 2 l 1,-1 1,2 v 5 z"
     id="469021" />
  <path
     class="leaflet-interactive"
     stroke="#333333"
     stroke-opacity="1"
     stroke-width="1"
     stroke-linecap="round"
     stroke-linejoin="round"
     stroke-dasharray="1, 6"
     fill="#eeeeee"
     fill-opacity="0.5"
     fill-rule="evenodd"
     d="m 443,150 2,-4 -1,-3 2,-2 -2,-2 -3,4 -2,-1 -3,3 v 2 l 5,3 z"
     id="469022" />
  <path
     class="leaflet-interactive"
     stroke="#333333"
     stroke-opacity="1"
     stroke-width="1"
     stroke-linecap="round"
     stroke-linejoin="round"
     stroke-dasharray="1, 6"
     fill="#eeeeee"
     fill-opacity="0.5"
     fill-rule="evenodd"
     d="m 443,140 v -2 l 3,-1 -3,-5 1,-2 h -7 l 1,5 -1,3 -2,1 -1,5 9,-3 -1,-1 z"
     id="469023" />
  <path
     class="leaflet-interactive"
     stroke="#333333"
     stroke-opacity="1"
     stroke-width="1"
     stroke-linecap="round"
     stroke-linejoin="round"
     stroke-dasharray="1, 6"
     fill="#eeeeee"
     fill-opacity="0.5"
     fill-rule="evenodd"
     d="m 437,130 -3,-1 -5,2 2,5 -1,1 3,3 4,-2 v -6 z"
     id="469024" />
  <path
     class="leaflet-interactive"
     stroke="#333333"
     stroke-opacity="1"
     stroke-width="1"
     stroke-linecap="round"
     stroke-linejoin="round"
     stroke-dasharray="1, 6"
     fill="#eeeeee"
     fill-opacity="0.5"
     fill-rule="evenodd"
     d="m 424,154 1,1 8,-4 v -2 l -3,-3 h -2 v -2 h -7 l -1,-2 -2,1 v 2 l 3,2 -1,2 4,3 z"
     id="469025" />
  <path
     class="leaflet-interactive"
     stroke="#333333"
     stroke-opacity="1"
     stroke-width="1"
     stroke-linecap="round"
     stroke-linejoin="round"
     stroke-dasharray="1, 6"
     fill="#eeeeee"
     fill-opacity="0.5"
     fill-rule="evenodd"
     d="m 418,143 -2,-2 -7,4 3,3 2,-1 6,6 -1,3 h 4 l 1,-4 -3,-1 v -4 l -3,-2 z"
     id="469026" />
  <path
     class="leaflet-interactive"
     stroke="#333333"
     stroke-opacity="1"
     stroke-width="1"
     stroke-linecap="round"
     stroke-linejoin="round"
     stroke-dasharray="1, 6"
     fill="#eeeeee"
     fill-opacity="0.5"
     fill-rule="evenodd"
     d="m 427,163 -3,-9 -1,2 -6,3 -7,1 -1,6 7,3 6,-3 v -2 h 3 z"
     id="469027" />
  <path
     class="leaflet-interactive"
     stroke="#333333"
     stroke-opacity="1"
     stroke-width="1"
     stroke-linecap="round"
     stroke-linejoin="round"
     stroke-dasharray="1, 6"
     fill="#eeeeee"
     fill-opacity="0.5"
     fill-rule="evenodd"
     d="m 440,160 h -4 l -1,-2 2,6 -2,3 1,2 6,-1 1,-3 2,-1 -4,-2 z"
     id="469028" />
  <path
     class="leaflet-interactive"
     stroke="#333333"
     stroke-opacity="1"
     stroke-width="1"
     stroke-linecap="round"
     stroke-linejoin="round"
     stroke-dasharray="1, 6"
     fill="#eeeeee"
     fill-opacity="0.5"
     fill-rule="evenodd"
     d="m 434,157 -1,3 h -3 v 2 l -3,1 3,2 v 3 h 3 l 4,-4 -2,-6 z"
     id="469029" />
  <path
     class="leaflet-interactive"
     stroke="#333333"
     stroke-opacity="1"
     stroke-width="1"
     stroke-linecap="round"
     stroke-linejoin="round"
     stroke-dasharray="1, 6"
     fill="#eeeeee"
     fill-opacity="0.5"
     fill-rule="evenodd"
     d="m 437,144 h -5 l 2,2 -1,5 -4,2 2,3 2,-1 3,5 6,-2 -1,-2 3,-2 -1,-4 -7,-3 v -2 z"
     id="469030" />
</svg>
