<?xml version="1.0" encoding="UTF-8" standalone="no"?>
<svg
   pointer-events="none"
   class="leaflet-zoom-animated"
   width="1135"
   height="626"
   viewBox="-95 -52 1135 626"
   style="transform: translate3d(-95px, -52px, 0px);"
   version="1.1"
   id="svg1"
   sodipodi:docname="湖南省.svg"
   inkscape:version="1.4 (86a8ad7, 2024-10-11)"
   xmlns:inkscape="http://www.inkscape.org/namespaces/inkscape"
   xmlns:sodipodi="http://sodipodi.sourceforge.net/DTD/sodipodi-0.dtd"
   xmlns="http://www.w3.org/2000/svg"
   xmlns:svg="http://www.w3.org/2000/svg">
  <defs
     id="defs1" />
  <sodipodi:namedview
     id="namedview1"
     pagecolor="#ffffff"
     bordercolor="#000000"
     borderopacity="0.25"
     inkscape:showpageshadow="2"
     inkscape:pageopacity="0.0"
     inkscape:pagecheckerboard="0"
     inkscape:deskcolor="#d1d1d1"
     inkscape:zoom="1.672524"
     inkscape:cx="567.70487"
     inkscape:cy="313"
     inkscape:window-width="1920"
     inkscape:window-height="991"
     inkscape:window-x="-9"
     inkscape:window-y="1341"
     inkscape:window-maximized="1"
     inkscape:current-layer="svg1" />
  <path
     class="leaflet-interactive"
     stroke="#000000"
     stroke-opacity="1"
     stroke-width="2"
     stroke-linecap="round"
     stroke-linejoin="round"
     fill="#ffffff"
     fill-opacity="0.2"
     fill-rule="evenodd"
     d="m 490,387 v 2 l 6,2 h 7 l 1,3 h 4 l -2,8 1,4 -2,2 2,1 -4,3 -1,4 4,7 2,1 3,-4 7,1 3,2 -4,1 1,5 -3,3 h -4 l -2,2 v 4 l 3,4 -2,2 1,2 -3,8 -5,5 -2,-1 -4,6 v 4 l -9,8 -2,6 2,3 v 5 l 7,-1 1,-7 8,-4 3,-4 3,3 4,-2 4,3 -2,2 1,2 3,1 -3,4 3,3 -2,2 2,9 -3,6 7,3 h 2 l 1,-4 4,1 1,-5 2,-2 h 9 l 3,2 5,-1 4,2 5,-6 4,-1 1,-5 -3,-6 2,-2 -1,-1 4,-11 h 3 v 2 l 6,-2 4,4 2,-3 8,4 6,-1 4,4 v 4 l 4,5 v 4 h 6 l 2,-2 h 6 l 1,-2 -2,-6 2,-3 -3,-5 4,-4 -2,-3 -6,1 -3,-6 1,-1 3,2 4,-4 3,1 7,-6 -1,-1 2,-3 2,1 3,-3 h 5 v 5 l 1,-1 3,2 v 2 h 2 l 3,3 6,-1 1,2 h 2 v 2 l 8,-3 6,2 5,-4 v -4 h 4 v -4 l 1,-2 h 2 v -3 l -3,-4 -2,-8 2,-1 6,-13 -2,-5 3,-5 8,-4 1,1 3,-3 v -2 l -4,-2 -6,3 -5,-1 -4,2 7,-13 -1,-3 5,-7 h -2 l 2,-7 h -4 l -4,-3 h -5 l -4,-7 -1,-6 6,-11 -4,-3 -1,-3 h -2 l -1,-4 h -2 v -4 l 3,-2 2,-4 v -6 l 2,-5 -1,-1 -10,4 -7,-2 1,-3 -2,-5 h 2 l 1,-2 -1,-2 -1,1 -2,-2 2,-2 v -4 l 11,-14 -3,-4 3,-6 3,-2 2,1 1,-2 2,1 2,-3 1,1 2,-2 5,-1 -4,-8 6,-1 11,-11 v -5 h -2 l -2,-3 2,-3 -9,-6 3,-4 -1,-5 3,-6 -1,-5 -5,-1 v -3 l -2,-2 -1,2 -1,-5 -2,1 -2,-8 -4,1 v -2 h -2 l -2,-3 -5,3 -1,-2 -2,1 v -3 l -2,-2 2,-6 -6,-2 4,-9 3,-2 1,1 2,-4 -4,-5 -4,-1 7,-4 -5,-7 h -8 l 3,-12 -1,-1 -9,7 -16,20 -6,4 -2,-6 -2,-1 -4,4 -3,-7 v -3 l 6,-7 1,-6 -6,7 v -4 l -3,-4 -6,4 v 4 l -4,3 -1,-1 -2,4 h -5 l -2,-2 -2,2 -6,-2 -2,1 -3,6 -3,-1 -3,4 1,-7 -4,-3 1,-2 -3,2 -2,-2 h -4 l -1,-2 h -2 l 1,-4 -8,-4 1,-3 -14,-6 -5,2 h -5 l -5,-3 -7,1 -2,-1 v -2 l -3,1 v -2 l -5,-5 -21,-2 v -4 l -7,-1 -5,1 1,5 -2,1 -4,-3 -4,2 -7,-1 1,4 3,2 -3,1 v 4 l 4,6 h 3 l 1,6 -7,4 -4,-1 -6,6 -2,-3 -2,1 -4,-6 -6,-1 -3,-3 -5,2 -10,-1 -8,3 1,3 -3,2 -1,5 -4,-2 h -4 l -1,2 -2,-2 -2,2 v 3 l -3,1 1,2 -1,1 -2,-2 v 6 l -4,3 2,1 v 2 h -3 v 7 l -5,4 1,7 -3,1 v 2 l 5,2 -5,12 v 8 l 2,1 -1,1 3,1 -2,6 -6,3 2,2 2,-2 5,1 -4,12 2,5 -1,5 2,1 v 2 l 3,-2 v 2 h 2 l -5,17 h 2 v -2 l 3,1 -5,7 1,6 2,2 -1,4 3,4 -1,1 h 4 l 3,3 -1,9 h -3 l -7,6 -1,4 -5,-2 -3,2 v -2 l -2,1 -1,5 -3,3 -1,-1 -1,4 -8,5 1,3 -2,4 -7,2 6,5 3,-1 v 2 l 2,-4 7,-4 3,-1 1,1 -2,3 4,1 6,-7 1,2 8,-2 3,3 h 2 v 4 l 3,-1 2,4 v 5 l -7,4 v 2 l 2,-2 3,1 v 9 h 4 v 2 l -8,-2 -5,2 v 2 l -6,1 3,3 2,-1 3,9 -2,1 1,2 -2,1 1,1 -7,10 5,4 7,-3 1,1 -2,4 2,3 v 4 l 2,-1 1,2 -4,4 5,6 7,-4 1,2 h 3 l 2,2 -2,3 -1,-1 v 6 l 4,-1 2,2 3,-3 -1,-5 -2,-1 1,-3 h 5 l 2,-8 4,-4 5,3 2,-1 2,3 -3,6 3,2 h 4 l 2,-4 3,4 v 3 l 3,1 3,-2 2,-8 7,-6 h 2 l 5,-10 2,-1 v 2 h 7 v 3 l 2,1 10,-2 v 2 l 2,-2 v -7 l 3,1 z m -99,-34 h 1 z m 223,-215 -1,-2 -1,1 z m -219,222 -1,-1 z"
     id="湖南省" />
  <path
     class="leaflet-interactive"
     stroke="#333333"
     stroke-opacity="1"
     stroke-width="1"
     stroke-linecap="round"
     stroke-linejoin="round"
     stroke-dasharray="1, 6"
     fill="#eeeeee"
     fill-opacity="0.5"
     fill-rule="evenodd"
     d="m 548,267 -1,3 1,1 2,-2 5,7 h 8 l 4,-5 12,1 2,-3 h -2 l 2,-1 -1,-2 4,-2 11,13 1,-4 4,2 2,-2 1,-6 3,-1 -2,-2 h 3 l 2,6 1,-1 2,2 3,-3 3,3 3,-3 h 2 v 3 l 3,4 2,-6 5,-2 3,3 v 9 h 9 v -2 l 10,-6 1,6 v -2 l 3,1 1,2 h 3 l 8,-8 2,1 1,-2 2,1 2,-3 1,1 2,-2 5,-1 -4,-8 6,-1 11,-11 v -5 h -2 l -2,-3 2,-3 -9,-6 -4,1 -2,-2 -3,3 h -6 l -2,5 -7,3 -4,-2 v -2 l -3,-3 -6,-1 -3,-5 -3,1 1,-4 -6,2 -2,-2 -3,1 -2,-3 -3,6 v 6 l -2,2 h -2 l 1,-1 -4,-2 -5,4 -2,-1 v -3 h -10 v -3 l -5,4 -3,-2 -1,1 -6,10 v 4 l -10,1 -2,2 -2,-1 v 2 l -2,-1 v 2 h -3 l -3,3 -7,-4 -8,2 -7,10 2,3 z"
     id="430100" />
  <path
     class="leaflet-interactive"
     stroke="#333333"
     stroke-opacity="1"
     stroke-width="1"
     stroke-linecap="round"
     stroke-linejoin="round"
     stroke-dasharray="1, 6"
     fill="#eeeeee"
     fill-opacity="0.5"
     fill-rule="evenodd"
     d="m 665,277 -4,1 -4,-3 -1,2 -1,-5 h -3 l -7,4 -1,3 h -7 l -2,-5 v -6 h -5 l -2,2 -1,5 -3,-3 -1,1 -5,10 2,1 v 4 h 2 l -4,5 3,3 -5,4 v 7 l 2,5 2,1 1,8 h 2 v 2 l 3,3 1,-3 9,3 v 2 l -4,4 h -3 l 4,10 -1,1 2,3 h 2 l -3,5 4,7 2,-3 h 5 l 2,3 -3,5 2,4 -1,3 2,3 6,-3 2,2 3,7 -1,8 2,6 6,3 2,4 v 2 l -3,2 1,5 2,1 3,-4 h 4 l 8,-7 5,-10 -1,-3 5,-7 h -2 l 2,-7 h -4 l -4,-3 h -5 l -4,-7 -1,-6 6,-11 -4,-3 -1,-3 h -2 l -1,-4 h -2 v -4 l 3,-2 2,-4 v -6 l 2,-5 -1,-1 -10,4 -7,-2 1,-3 -2,-5 h 2 l 1,-2 -1,-2 -1,1 -2,-2 2,-2 v -4 l 11,-14 -3,-4 z"
     id="430200" />
  <path
     class="leaflet-interactive"
     stroke="#333333"
     stroke-opacity="1"
     stroke-width="1"
     stroke-linecap="round"
     stroke-linejoin="round"
     stroke-dasharray="1, 6"
     fill="#eeeeee"
     fill-opacity="0.5"
     fill-rule="evenodd"
     d="m 554,275 1,5 3,3 1,-1 3,5 -5,3 2,5 h 3 l 1,-2 4,1 2,-3 4,-1 1,4 h -2 l 3,4 -2,7 1,1 1,-1 2,2 4,-4 v 2 l 8,6 3,-3 h 5 l 1,4 6,1 3,4 5,-2 1,1 1,-6 h 3 l -1,-9 3,-3 -1,-1 3,-1 -2,-3 -1,1 v -2 l 4,-3 -2,-1 v -4 l -2,-1 3,-3 3,-8 -1,-4 h -2 v 2 l -3,1 -4,-3 v 2 l -3,1 v -2 l -1,-1 -1,2 v -2 l -5,-5 v 2 l 2,1 -3,1 -1,6 -2,2 -4,-2 v 4 h -2 l -2,-5 -2,-2 -1,1 -5,-7 -4,2 1,2 -2,4 -11,-1 -8,6 -1,-2 -4,1 z"
     id="430300" />
  <path
     class="leaflet-interactive"
     stroke="#333333"
     stroke-opacity="1"
     stroke-width="1"
     stroke-linecap="round"
     stroke-linejoin="round"
     stroke-dasharray="1, 6"
     fill="#eeeeee"
     fill-opacity="0.5"
     fill-rule="evenodd"
     d="m 618,310 -5,1 v 4 l -6,2 -4,-5 -6,-1 1,-3 h -5 l -1,2 -2,-1 v 2 l -2,-1 -2,4 h -2 l -1,2 -10,-1 -1,4 h -2 l -1,3 -4,-4 -1,5 -7,7 v 6 l 2,4 -5,5 -1,-1 -5,3 -1,-5 -2,-2 -1,1 -2,-1 v -2 l -1,1 -5,-3 -2,3 h -2 l -2,6 -3,-1 v 5 l -3,4 4,4 3,-1 v -3 l 4,-1 5,5 2,-2 v 2 l 4,-1 8,14 2,-4 4,2 1,-2 1,2 h 2 l -1,2 2,2 -2,2 v 3 l 5,-3 1,1 v 2 l -5,1 1,1 -2,3 v 6 l 3,1 v 2 h 2 l -2,10 h 2 l 1,3 h 4 l 3,-3 1,1 1,-3 9,3 v 2 l 4,-2 1,-5 2,2 2,7 2,-2 h 4 l 1,-2 1,1 v -4 h 2 l 1,3 3,1 4,-2 5,1 1,-6 9,-6 v -6 l 3,-1 -1,-2 2,-2 -5,-4 2,-2 v -9 l -4,-3 1,-1 -3,-3 4,-1 -1,-3 8,2 -2,-4 3,-5 -3,-1 v -5 l -4,-5 v -3 l 4,-1 3,-3 v -2 l -2,-2 -6,-1 -2,3 -3,-3 1,-1 -3,-1 v -5 l -1,-3 h -2 z"
     id="430400" />
  <path
     class="leaflet-interactive"
     stroke="#333333"
     stroke-opacity="1"
     stroke-width="1"
     stroke-linecap="round"
     stroke-linejoin="round"
     stroke-dasharray="1, 6"
     fill="#eeeeee"
     fill-opacity="0.5"
     fill-rule="evenodd"
     d="m 490,387 4,-10 v -6 h 2 l 2,-3 v 5 l 2,3 -1,3 3,1 7,-3 -1,-4 2,-5 -3,-4 3,-2 v -7 l 3,-4 11,1 3,-3 -1,-3 2,-2 2,1 2,-3 -1,-1 5,-5 5,3 1,-1 v 2 l 2,1 1,-1 2,2 v 5 l 5,-3 3,1 2,-4 h 2 l -2,-5 v -6 l 3,-3 -2,-1 v -5 l -5,-3 -1,-3 h -2 l -5,-7 -2,1 -10,-7 -1,2 -2,-3 1,-1 h -2 l -3,-4 -9,3 -4,4 -3,-1 -1,-2 -4,3 -2,-2 -1,1 -3,-3 -2,1 -3,-2 v -2 h -4 l -2,-3 -8,1 v 4 l -3,3 -4,-3 v -2 l -5,2 -2,3 4,7 -6,13 h -2 l -1,-2 -3,3 h -2 l -2,4 -2,1 -2,-2 -3,5 h -5 l -4,3 v 4 l -3,2 v 2 l -5,5 v 4 l -2,1 2,6 -2,3 2,3 h -2 l -2,3 -2,-2 -5,1 -3,2 v 2 h -2 l 4,7 -2,4 4,-1 3,4 1,-1 2,5 v 4 l -2,2 1,2 -2,3 5,4 2,-1 2,3 -3,6 3,2 h 4 l 2,-4 4,8 5,-2 2,-8 7,-6 h 2 l 5,-10 2,-1 v 2 h 7 v 3 l 2,1 10,-2 v 2 l 2,-2 v -7 l 3,1 z"
     id="430500" />
  <path
     class="leaflet-interactive"
     stroke="#333333"
     stroke-opacity="1"
     stroke-width="1"
     stroke-linecap="round"
     stroke-linejoin="round"
     stroke-dasharray="1, 6"
     fill="#eeeeee"
     fill-opacity="0.5"
     fill-rule="evenodd"
     d="m 574,157 1,5 h 2 l 5,7 h 2 l 4,4 7,-2 3,3 -1,6 5,3 h 2 l 1,-2 v 3 l 8,1 2,6 -7,9 -4,3 -7,2 v 6 l -8,4 1,1 -3,4 1,2 4,1 -2,4 2,2 8,-4 1,3 -3,1 3,3 4,-4 1,3 h 10 l 1,4 6,-4 4,1 -1,2 h 2 l 2,-2 v -6 l 3,-5 2,2 3,-1 2,2 2,-2 h 4 l -1,4 2,-1 3,2 1,3 6,1 7,7 7,-3 2,-5 h 5 l 3,-3 3,2 5,-1 2,-4 -1,-5 3,-6 -1,-5 -5,-1 v -3 l -2,-2 -1,2 -1,-5 -2,1 -2,-8 -4,1 v -2 h -2 l -2,-3 -5,3 -1,-2 -2,1 v -3 l -2,-2 2,-6 -6,-2 4,-9 3,-2 1,1 2,-4 -4,-5 -4,-1 7,-4 -5,-7 h -8 l 3,-12 -1,-1 -9,7 -16,20 -6,4 -2,-6 -2,-1 -4,4 -3,-7 v -3 l 6,-7 1,-6 -6,7 v -4 l -3,-4 -6,4 v 4 l -4,3 -1,-1 -2,4 h -5 l -2,-2 -2,2 -6,-2 -2,1 -3,6 h -4 z m 40,-19 -1,-2 -1,1 z"
     id="430600" />
  <path
     class="leaflet-interactive"
     stroke="#333333"
     stroke-opacity="1"
     stroke-width="1"
     stroke-linecap="round"
     stroke-linejoin="round"
     stroke-dasharray="1, 6"
     fill="#eeeeee"
     fill-opacity="0.5"
     fill-rule="evenodd"
     d="m 572,159 1,-7 -4,-3 1,-2 -3,2 -2,-2 h -4 l -1,-2 h -2 l 1,-4 -8,-4 1,-3 -10,-5 -6,-1 -3,2 h -5 l -5,-3 -7,1 -2,-1 v -2 l -3,1 v -2 l -5,-5 -21,-2 v -4 l -5,-1 -7,1 1,5 -2,1 -4,-3 -4,2 -7,-1 1,4 3,2 -3,1 v 4 l 4,6 h 3 l 1,6 4,4 2,1 1,-2 1,2 h 13 l 4,1 2,4 h 4 l 3,2 6,-1 5,7 -1,7 -4,2 v 6 l -2,5 -9,2 -4,7 -5,-2 -6,4 7,7 h 2 l -3,4 11,14 -1,4 -4,1 2,2 h -4 l -5,3 1,3 7,-3 2,5 h -4 l -5,5 -1,-1 -5,6 17,-4 2,-4 3,-1 9,1 3,-3 h 6 l 6,-6 4,2 1,-1 2,3 3,-2 1,-3 h 3 l 3,3 1,-2 2,1 3,-2 v -2 l 6,3 v -2 h 3 l 2,2 5,-3 1,1 5,-4 3,-6 -4,-4 v -18 l -3,-1 -1,-3 3,-4 -1,-6 h 2 l 3,-14 z"
     id="430700" />
  <path
     class="leaflet-interactive"
     stroke="#333333"
     stroke-opacity="1"
     stroke-width="1"
     stroke-linecap="round"
     stroke-linejoin="round"
     stroke-dasharray="1, 6"
     fill="#eeeeee"
     fill-opacity="0.5"
     fill-rule="evenodd"
     d="m 450,204 h 5 l 2,-2 2,2 v -4 l 2,-1 -1,-2 2,-2 1,3 h 2 l 4,4 h 7 l 1,-3 2,1 v -4 l 4,-1 1,-3 -4,-3 2,-2 4,-2 4,2 5,-5 v -2 l 4,-2 h 5 l 2,-4 v -7 h 2 v -2 h 2 l 1,-2 v -5 l -3,-4 -4,-3 -4,1 -6,-2 -1,-2 h -2 v -2 l -11,-2 -5,1 -1,-2 -2,2 -4,-2 v -2 l -2,-1 -7,4 -4,-1 -6,6 -2,-3 -2,1 -4,-6 -6,-1 -3,-3 -5,2 -10,-1 -7,2 v 4 l -3,2 -1,3 2,2 1,-1 2,3 -3,3 5,8 -1,1 2,2 7,-4 2,7 -2,2 4,2 5,-2 2,2 v 3 h -2 l 1,7 3,1 1,-2 7,4 v 3 l 3,-1 -1,2 3,3 -2,5 4,3 -1,2 z"
     id="430800" />
  <path
     class="leaflet-interactive"
     stroke="#333333"
     stroke-opacity="1"
     stroke-width="1"
     stroke-linecap="round"
     stroke-linejoin="round"
     stroke-dasharray="1, 6"
     fill="#eeeeee"
     fill-opacity="0.5"
     fill-rule="evenodd"
     d="m 598,230 1,-2 h 2 v -2 l -3,-1 -2,3 -4,1 -2,-2 2,-2 -1,-2 -4,-2 1,-4 2,-1 -1,-1 8,-4 -1,-4 2,-3 10,-3 7,-10 -3,-7 h -6 l -1,-3 -1,2 -6,-2 -1,-1 2,-6 -4,-3 -4,2 h -5 l -2,-4 h -2 l -3,-3 -5,-9 -2,2 1,7 -3,4 1,4 h -2 v 6 l -3,4 v 2 l 4,2 v 18 l 4,4 -3,6 -5,4 -1,-1 -5,3 -2,-2 h -2 v 2 l -7,-3 v 2 l -3,2 -2,-1 v 2 l -8,-3 v 3 l -2,2 -3,-3 -1,1 -4,-2 -6,6 h -6 l -3,3 -8,-1 -3,1 -1,3 -2,1 -17,4 -8,7 1,2 h 3 v 4 l 4,2 -2,8 5,2 -2,3 3,2 4,-5 7,5 7,-12 3,1 4,-6 2,2 h 3 v 2 l 3,-2 4,1 v 11 h 2 v -2 l 1,3 h 3 l -3,3 1,1 3,-3 v -2 l 1,2 h 3 l 1,-2 1,3 2,1 4,-2 1,2 1,-3 6,-1 1,-2 -2,-3 7,-10 8,-2 7,4 3,-3 1,1 1,-3 2,1 5,-3 9,-1 1,-6 6,-8 z"
     id="430900" />
  <path
     class="leaflet-interactive"
     stroke="#333333"
     stroke-opacity="1"
     stroke-width="1"
     stroke-linecap="round"
     stroke-linejoin="round"
     stroke-dasharray="1, 6"
     fill="#eeeeee"
     fill-opacity="0.5"
     fill-rule="evenodd"
     d="m 577,471 3,4 2,-3 8,4 6,-1 4,4 v 4 l 4,5 v 4 h 6 l 2,-2 h 6 l 1,-2 -2,-6 2,-3 -3,-5 4,-4 -2,-3 -6,1 -3,-6 1,-1 3,2 4,-4 3,1 7,-6 -1,-1 2,-3 2,1 3,-3 h 5 v 5 l 1,-1 3,2 v 2 h 2 l 3,3 6,-1 1,2 h 2 v 2 l 8,-3 4,2 4,-1 4,-5 -1,-2 h 4 v -4 l 1,-2 h 2 l -5,-15 2,-1 6,-13 -2,-5 3,-5 8,-4 1,1 3,-3 v -2 l -4,-2 -6,3 -5,-1 -2,2 h -2 v -2 l -6,6 -5,1 -1,3 -3,-1 -1,-5 h 2 l 1,-4 -2,-4 -6,-3 -2,-6 1,-10 -5,-7 -3,3 h -3 l -2,-3 1,-3 -2,-4 3,-5 -6,-3 -2,1 v 2 h -2 l 1,-2 -2,-2 -1,1 -6,-2 v 3 l -4,1 v 2 l 6,7 v 6 l -2,2 5,5 -2,2 v 3 h -2 v 6 h -2 l -1,3 -1,-1 -2,3 -3,1 1,2 -2,4 -5,-1 -4,2 -3,-1 -1,-3 h -2 l -1,5 h -6 l -1,2 -1,-1 2,-1 -3,-2 v -3 l -2,-2 -2,6 -3,1 v -2 l -9,-3 -1,3 -1,-1 -3,3 -1,-1 -3,2 v 2 h 6 l -2,8 1,3 -3,3 6,-1 2,4 -2,2 2,2 v 4 l -4,3 -1,-2 -4,1 -1,2 1,9 5,2 2,-1 5,10 -1,1 h 2 v 2 l -1,-1 -6,6 2,4 -1,1 z"
     id="431000" />
  <path
     class="leaflet-interactive"
     stroke="#333333"
     stroke-opacity="1"
     stroke-width="1"
     stroke-linecap="round"
     stroke-linejoin="round"
     stroke-dasharray="1, 6"
     fill="#eeeeee"
     fill-opacity="0.5"
     fill-rule="evenodd"
     d="m 577,471 1,-3 -2,-4 6,-6 1,1 v -2 h -2 l 1,-1 -4,-10 -3,1 -5,-2 1,-2 -2,-1 1,-8 3,-1 2,2 4,-2 v -5 l -2,-2 2,-2 -3,-4 -4,1 2,-4 -1,-1 2,-8 -1,-2 -5,1 -1,-6 h -2 l 2,-10 h -2 v -2 l -3,-3 2,-7 -1,-1 5,-1 v -2 l -1,-1 -4,3 v -8 l -8,-3 -2,1 1,3 -4,-3 v -3 l -3,-3 1,-2 -4,-3 -2,1 -1,-2 -2,2 -4,-5 -4,1 -2,4 h -2 l -5,-6 h -11 l -2,3 v 8 l -3,2 3,3 -2,6 1,4 -8,3 -2,-3 1,-1 -2,-3 v -4 h -2 v 2 h -2 v 6 l -4,12 6,2 h 7 l 1,3 h 4 l -2,8 1,4 -2,2 2,1 -4,3 -1,4 4,7 2,1 3,-4 7,1 3,2 -4,1 1,5 -3,3 h -4 l -2,2 v 4 l 3,4 -2,2 1,2 -3,8 -5,5 -2,-1 -4,6 v 4 l -9,8 -2,6 2,3 v 5 l 7,-1 1,-7 8,-4 3,-4 3,3 4,-2 4,3 -2,2 1,2 3,1 -3,4 3,3 -2,2 2,9 -3,6 9,3 1,-4 4,1 1,-5 2,-2 h 9 l 3,2 5,-1 4,2 5,-6 4,-1 1,-5 -3,-6 2,-2 -1,-1 3,-10 4,-1 v 2 h 2 l 4,-2 z"
     id="431100" />
  <path
     class="leaflet-interactive"
     stroke="#333333"
     stroke-opacity="1"
     stroke-width="1"
     stroke-linecap="round"
     stroke-linejoin="round"
     stroke-dasharray="1, 6"
     fill="#eeeeee"
     fill-opacity="0.5"
     fill-rule="evenodd"
     d="m 388,289 3,3 -1,9 h -3 l -7,6 -1,4 -5,-2 -3,2 v -2 l -2,1 -1,5 -3,3 -1,-1 -1,4 -8,5 1,3 -2,4 -7,2 6,5 3,-1 v 2 l 2,-4 7,-4 3,-1 1,1 -2,3 4,1 6,-7 1,2 8,-2 3,3 h 2 v 4 l 3,-1 2,4 v 5 l -7,4 v 2 l 2,-2 3,1 v 9 h 4 v 2 l -8,-2 -5,2 v 2 l -6,1 3,3 2,-1 3,9 -2,1 1,2 -2,1 1,1 -7,10 5,4 7,-3 1,1 -2,4 2,3 v 4 l 2,-1 1,2 -4,4 5,6 7,-4 1,2 h 3 l 2,2 -2,3 -1,-1 v 6 l 4,-1 2,2 3,-3 -1,-5 -2,-1 1,-3 h 5 l 2,-8 6,-7 -1,-2 2,-3 -2,-9 -1,1 -3,-4 -3,1 v -8 l -3,-2 5,-5 5,-1 2,2 2,-3 h 2 l -2,-2 2,-4 -2,-6 3,-2 -1,-3 5,-4 6,-12 7,-1 1,-4 5,2 1,-4 3,-1 2,-3 4,2 6,-13 -4,-6 2,-4 5,-2 v 2 l 3,3 4,-3 1,-5 -6,-9 1,-5 6,1 6,-5 -1,-3 3,-3 h -2 v -2 l 3,-1 -3,-2 -4,5 h -2 l -1,-1 2,-4 -3,-1 -2,-4 2,-5 h -2 l -2,-2 1,-2 -5,-3 16,-16 3,-2 h 4 l -2,-2 v -3 l -6,3 -2,-3 4,-1 1,-2 h 3 l -1,-2 3,-1 2,-4 -11,-14 3,-4 -6,-3 1,2 -5,1 1,2 -1,2 -2,-1 -1,3 h -7 l -4,-4 h -2 l -1,-3 -2,2 1,1 -2,1 v 6 l -2,-3 -2,2 h -5 l 1,2 -4,3 v 3 l -4,2 v 6 l -4,2 1,6 -4,-2 v 9 h -4 l 2,6 1,-1 4,3 -2,3 v 4 l 4,2 v 2 h -4 v 4 l -2,1 1,2 -3,1 1,3 -2,5 -3,2 -1,3 h -2 l -1,-2 -3,-1 -3,1 -4,-3 -3,1 -1,-4 h -2 l -3,6 -5,2 1,5 -6,4 -1,-2 -3,2 -1,-1 -3,5 z m 3,64 h 1 z m 4,7 -1,-1 z"
     id="431200" />
  <path
     class="leaflet-interactive"
     stroke="#333333"
     stroke-opacity="1"
     stroke-width="1"
     stroke-linecap="round"
     stroke-linejoin="round"
     stroke-dasharray="1, 6"
     fill="#eeeeee"
     fill-opacity="0.5"
     fill-rule="evenodd"
     d="m 560,326 4,-3 1,-5 3,4 2,-3 h 2 l 1,-4 9,1 2,-2 1,1 2,-4 -6,-6 v -2 l -4,4 -4,-2 2,-4 -3,-6 2,-1 -1,-3 -4,-1 -2,4 h -9 l -1,-3 1,-2 h 2 l -1,-1 1,1 2,-2 -2,-2 1,-1 -4,-2 -5,-11 -2,-2 -2,2 -1,-1 1,-3 h -5 l -2,1 v 2 l -2,-2 -3,2 -2,-4 -2,2 -4,-2 v 2 l -3,3 -1,-1 2,-3 h -2 l -1,-3 v 2 h -2 v -11 h -10 l -1,-3 -5,6 -4,-1 -6,12 -3,-2 h -4 v 2 h 2 l -7,11 -6,-1 -2,5 4,8 3,2 6,-1 1,3 h 5 l 1,3 h 3 l 7,4 4,-3 1,2 3,1 5,-5 2,1 5,-3 4,4 h 2 v 4 l 2,-2 10,7 1,-1 6,7 h 2 l 6,6 1,6 z"
     id="431300" />
  <path
     class="leaflet-interactive"
     stroke="#333333"
     stroke-opacity="1"
     stroke-width="1"
     stroke-linecap="round"
     stroke-linejoin="round"
     stroke-dasharray="1, 6"
     fill="#eeeeee"
     fill-opacity="0.5"
     fill-rule="evenodd"
     d="m 388,289 3,-6 h 8 l 3,-3 -1,-5 2,1 4,-4 2,-5 h 3 v 4 l 3,-1 3,3 4,-1 3,1 v 2 l 4,-1 -1,-2 6,-6 -2,-4 4,-1 v -4 l 2,-1 -1,-2 h 4 v -2 l -5,-4 1,-4 2,-1 -4,-3 -1,1 -2,-5 3,-1 1,-9 4,2 -1,-5 1,-2 1,1 v -2 h 2 v -6 l 3,-1 3,-6 2,-1 -1,-2 h -2 l 1,-2 -4,-3 2,-4 v -3 l -2,1 -1,-2 1,-2 -3,1 v -3 h -2 v -2 l -4,-2 -2,2 -3,-1 v -11 l -3,-1 -2,2 -4,-2 1,-2 -2,-7 h -2 l -5,5 -6,-12 3,-3 -1,-3 -6,1 -2,-2 h -4 l -1,2 -2,-2 -2,2 v 3 l -3,1 1,2 -1,1 -2,-2 v 6 l -4,3 2,1 v 2 h -3 v 7 l -5,4 1,7 -3,1 v 2 l 5,2 -5,12 v 8 l 2,1 -1,1 3,1 -2,6 -6,3 2,2 2,-2 5,1 -4,12 2,5 -1,5 2,1 v 2 l 3,-2 v 2 h 2 l -5,17 h 2 v -2 l 3,1 -5,7 1,6 2,2 -1,4 3,4 -1,1 h 3 z"
     id="433100" />
</svg>
