<?xml version="1.0" encoding="UTF-8" standalone="no"?>
<svg
   pointer-events="none"
   class="leaflet-zoom-animated"
   width="1135"
   height="626"
   viewBox="-95 -52 1135 626"
   style="transform: translate3d(-95px, -52px, 0px);"
   version="1.1"
   id="svg1"
   sodipodi:docname="湖北省.svg"
   inkscape:version="1.4 (86a8ad7, 2024-10-11)"
   xmlns:inkscape="http://www.inkscape.org/namespaces/inkscape"
   xmlns:sodipodi="http://sodipodi.sourceforge.net/DTD/sodipodi-0.dtd"
   xmlns="http://www.w3.org/2000/svg"
   xmlns:svg="http://www.w3.org/2000/svg">
  <defs
     id="defs1" />
  <sodipodi:namedview
     id="namedview1"
     pagecolor="#ffffff"
     bordercolor="#000000"
     borderopacity="0.25"
     inkscape:showpageshadow="2"
     inkscape:pageopacity="0.0"
     inkscape:pagecheckerboard="0"
     inkscape:deskcolor="#d1d1d1"
     inkscape:zoom="1.672524"
     inkscape:cx="567.70486"
     inkscape:cy="312.99999"
     inkscape:window-width="1920"
     inkscape:window-height="991"
     inkscape:window-x="-9"
     inkscape:window-y="-9"
     inkscape:window-maximized="1"
     inkscape:current-layer="svg1" />
  <path
     class="leaflet-interactive"
     stroke="#000000"
     stroke-opacity="1"
     stroke-width="2"
     stroke-linecap="round"
     stroke-linejoin="round"
     fill="#ffffff"
     fill-opacity="0.2"
     fill-rule="evenodd"
     d="m 445,159 h -2 l 2,-3 -3,-4 h -2 l -3,4 -6,1 v 3 h -4 l -4,5 -3,-5 -1,1 -3,-2 -2,-7 -6,6 -16,2 -3,-4 -10,1 -10,-4 -10,1 -6,-3 v 3 h -6 l -5,6 5,1 4,3 6,-1 8,4 -2,11 2,3 7,-2 2,2 6,1 4,2 3,3 -1,2 3,2 -1,5 3,4 -2,3 -3,-2 -2,1 v 2 l -4,3 -8,-4 h -18 v 5 l -5,5 -1,5 h -2 v 8 l 3,5 4,2 -1,5 2,2 -2,5 2,8 -3,3 4,6 -3,2 1,4 -2,1 10,2 v 5 l 2,2 -3,4 1,1 6,-1 4,3 h 6 l -3,3 4,1 1,2 8,4 4,17 -1,3 -4,2 1,8 2,-1 v 2 l -2,3 1,2 -2,5 -3,3 -3,-2 -2,-5 -3,1 -3,-2 -9,5 -4,5 -1,-1 -8,10 -2,1 v -2 l -3,2 -9,11 1,-4 -3,-4 1,-1 -2,-1 -10,8 -4,-6 3,-2 -5,-2 -5,2 -10,10 -2,-2 -3,2 -2,-2 -1,-5 h -2 l -6,9 -1,-2 -3,-1 -6,2 1,6 -2,1 12,10 -2,11 -2,2 v 16 l -6,-2 -4,3 v 2 h 4 l -1,2 2,4 4,2 1,-2 h 2 l -2,-2 4,-7 h 4 l 2,3 v 9 h 2 l 3,4 v -4 h 2 v 4 l 2,1 1,-3 1,3 h 2 l -1,2 3,1 -3,9 5,4 -2,6 h 5 v -2 h 3 l 1,-3 2,1 2,2 -1,5 3,2 -2,2 2,5 1,-1 5,5 3,-1 v -5 l -2,-2 6,-4 v -7 h 2 l 1,-2 -2,-1 4,-3 v -6 l 2,1 v -2 l 3,-1 1,-5 3,2 3,-2 6,2 1,-5 3,-1 -1,-4 3,-2 h 15 l 5,-2 3,3 6,1 3,3 v 2 l 4,1 1,2 5,-3 1,-3 4,1 5,-3 2,-4 -1,-3 -5,-2 -2,-4 v -4 l 2,-1 -3,-3 v -2 h 7 l 3,-2 4,3 3,-2 -1,-4 5,-1 7,1 v 4 l 16,2 2,-1 6,3 2,5 3,-1 1,3 8,-1 1,2 4,1 10,-2 14,6 -1,3 6,3 1,-1 1,6 7,3 1,2 2,-3 4,7 -1,4 3,-3 3,1 4,-7 h 4 l 2,2 3,-2 2,2 1,-1 4,2 2,-4 5,-4 v -3 l 7,-5 2,1 v 8 l 6,-7 -1,5 -6,7 v 3 l 2,8 4,-4 h 3 l 1,7 5,-2 14,-18 13,-11 1,1 -2,3 -1,9 7,-1 4,6 1,-1 1,3 -7,4 3,1 5,5 -2,3 -4,1 v 3 l -4,6 6,3 -2,4 2,7 2,-2 v 3 l 6,-3 2,3 h 2 v 2 l 4,-2 8,-11 h 7 l 5,-2 v -8 l 3,-1 3,3 6,-2 2,2 h 3 l 10,-6 h 3 l 2,3 5,-3 3,1 2,-3 1,1 1,-5 -3,3 -2,-3 3,-4 v 2 l 1,-1 v 2 h 2 v -4 l 3,-2 2,2 3,-1 v 3 l 5,1 v -6 h -2 l 1,-5 h -2 v -2 l 3,2 h 6 l 2,2 4,-2 1,1 7,-7 v -4 l 3,-4 h 10 l 15,9 h 4 l 11,-7 v -4 l -4,-7 1,-12 -2,-2 v -4 l -5,-6 -5,-2 1,-1 -2,-4 3,-3 -3,-3 2,-4 -10,-13 1,-5 3,1 3,-3 -1,-3 2,-4 9,-6 h 3 l -1,-3 -3,-1 v -2 l -5,-1 1,-1 -4,-3 -1,-3 -6,2 -6,-7 h -2 l -4,5 -2,-1 -2,-7 -5,-2 1,-3 -2,-2 h -4 v -5 l -7,2 v -2 l -3,-1 -1,-2 2,-7 -5,-5 -2,1 -2,6 -5,-1 -2,4 -1,-1 -9,2 -3,-1 v -3 l -6,-1 1,-1 h -2 l -2,-3 -4,2 -1,-1 -1,-6 3,-4 -1,-5 h -2 v 2 l -2,-2 -4,3 -11,-2 -3,-6 -4,-2 -2,2 -1,-1 v 2 l -5,4 -4,1 -3,-5 1,-2 -2,-2 -2,2 -4,-1 v -4 l -2,-3 1,-1 -4,-2 2,-3 -4,-4 v -3 l 1,1 2,-2 -1,-2 2,-2 -3,-3 2,-10 -5,-5 -7,6 -1,-1 1,1 -3,3 1,-2 h -2 l -6,5 -4,-2 -10,-10 -4,1 v 2 l -2,1 -1,-2 -5,-2 -3,2 1,2 h -7 l -2,-2 -8,4 -11,-4 -8,4 -3,-2 -6,3 -6,-5 -2,1 -1,-2 v 2 l -4,-2 -3,-5 -4,2 -2,-5 -6,1 v -2 h -2 l -8,-6 h -4 v -2 l -6,3 -6,-10 h -2 2 l 1,-3 -1,-1 -2,2 -4,-6 -5,-2 -1,-4 -1,2 -1,-4 2,-3 -2,-5 h -6 l 1,-2 h 2 v -2 l -7,-7 -3,2 z m 176,68 -1,-1 v 2 z M 445,156 v 2 l 1,-1 z m 108,65 h 1 z m 12,193 -1,1 h 3 z"
     id="湖北省" />
  <path
     class="leaflet-interactive"
     stroke="#333333"
     stroke-opacity="1"
     stroke-width="1"
     stroke-linecap="round"
     stroke-linejoin="round"
     stroke-dasharray="1, 6"
     fill="#eeeeee"
     fill-opacity="0.5"
     fill-rule="evenodd"
     d="m 617,370 2,1 3,8 -2,2 1,2 4,2 2,-1 3,-6 3,-2 3,2 2,6 1,-1 5,3 2,6 h 2 l 1,6 4,1 6,-3 11,5 v -4 h 2 l -4,-10 4,-9 2,-1 -1,-11 4,-3 -1,-6 8,-4 6,-1 v -3 h -2 l -2,-4 6,-3 v -3 h 4 l 1,2 v -2 l 4,-4 h 3 l -1,-1 2,-1 -6,-5 1,-2 -5,-3 h -3 l -1,5 -3,-1 v -3 l -3,3 -1,-3 -3,1 -1,3 -4,1 -7,-6 -1,-2 2,-6 -9,-10 3,-4 h -5 l -5,-4 -3,1 -4,7 5,5 -5,5 1,5 h -2 l 1,21 h -17 l -1,5 1,-1 3,3 -2,2 1,5 -4,2 v 2 h -2 l -1,3 h -2 l -1,3 -6,4 z m 79,-48 h -1 z m 2,2 v -1 z"
     id="420100" />
  <path
     class="leaflet-interactive"
     stroke="#333333"
     stroke-opacity="1"
     stroke-width="1"
     stroke-linecap="round"
     stroke-linejoin="round"
     stroke-dasharray="1, 6"
     fill="#eeeeee"
     fill-opacity="0.5"
     fill-rule="evenodd"
     d="m 671,394 1,3 h -2 v 6 h 4 l 7,3 v 4 l 2,3 -1,3 2,2 h 4 l 3,3 2,6 4,5 3,-2 2,2 3,-1 v 3 l 3,1 h 2 v -6 h -2 l 1,-5 h -2 v -2 l 3,2 h 6 l 2,2 4,-2 1,1 7,-7 v -4 l 3,-4 h -2 l -5,-6 -9,-17 -6,-5 h -5 l -1,-3 -7,4 -6,-2 v -3 h -2 l -1,-3 -4,2 -3,-2 -4,5 5,11 -2,5 h -8 l -1,-2 z m 38,-13 v -1 z"
     id="420200" />
  <path
     class="leaflet-interactive"
     stroke="#333333"
     stroke-opacity="1"
     stroke-width="1"
     stroke-linecap="round"
     stroke-linejoin="round"
     stroke-dasharray="1, 6"
     fill="#eeeeee"
     fill-opacity="0.5"
     fill-rule="evenodd"
     d="m 445,156 -3,-4 h -2 l -3,4 -6,1 v 3 h -4 l -4,5 -3,-5 -1,1 -3,-2 -2,-7 -6,6 -16,2 -3,-4 -10,1 -10,-4 -10,1 -6,-3 v 3 h -6 l -5,6 5,1 4,3 6,-1 8,4 -2,11 2,3 7,-2 2,2 10,3 3,3 -1,2 3,2 -1,5 3,4 -2,3 -3,-2 -2,1 v 2 l -4,3 -8,-4 h -18 v 5 l -5,5 -1,5 h -2 v 8 l 3,5 4,2 -1,5 2,2 -2,5 2,8 -3,3 4,6 -3,2 1,4 -2,1 10,2 v 5 l 2,2 -3,4 1,1 6,-1 8,4 4,-2 1,1 3,-3 -1,-1 h 2 l 2,-3 h 3 l 3,3 1,-2 -2,-2 2,-2 -1,-2 2,-5 3,-2 h 4 l 1,-3 7,-1 -1,-1 h 2 l -1,-1 2,-1 1,2 9,-2 6,2 2,-2 5,1 v -2 h 5 l 2,2 1,-1 1,3 1,-1 -1,-6 -2,-2 1,-4 2,-2 5,6 -1,-4 h -2 l 2,-2 v -3 h -2 l 2,-3 9,-4 2,-4 -3,-6 2,-1 -1,-1 11,-9 h 5 v -3 l 3,-3 1,1 3,-6 v -2 h -2 l -6,-10 h -2 2 l 1,-3 -1,-1 -2,2 -4,-6 -5,-2 -1,-4 -1,2 -1,-4 2,-3 -2,-5 h -6 l 1,-2 h 2 v -2 l -7,-7 -3,2 v -2 l -2,1 2,-1 z m 7,89 -4,2 1,1 3,-2 z m -10,4 1,5 v -4 z m 3,-93 v 2 l 1,-1 z"
     id="420300" />
  <path
     class="leaflet-interactive"
     stroke="#333333"
     stroke-opacity="1"
     stroke-width="1"
     stroke-linecap="round"
     stroke-linejoin="round"
     stroke-dasharray="1, 6"
     fill="#eeeeee"
     fill-opacity="0.5"
     fill-rule="evenodd"
     d="m 512,349 v -3 l -2,-1 v -8 l -2,-3 v -8 l -3,-6 -4,-1 3,-4 -1,-4 h -2 v -2 l -2,2 v -4 h -3 l -3,-4 -1,1 -2,-2 v -5 l -4,1 -3,-2 -7,5 h -3 l -3,-2 v -3 l -4,2 -6,-3 v -4 l -2,-2 h -2 l -1,2 h -4 l -2,2 -3,-2 -1,1 v -11 h -6 l -2,1 v 2 l -4,2 -4,-4 -3,1 -2,5 -6,-1 -3,7 v 4 l -2,2 -2,-4 -5,5 1,3 4,1 -2,1 v 4 l 4,4 -5,4 1,3 -2,1 -2,9 2,2 h -3 l -5,7 v 2 l 6,-2 3,4 v 6 l -2,3 2,4 1,-1 v 2 l -4,5 h -3 l -1,17 -6,1 5,8 -2,13 h 7 l 7,-8 5,1 3,-2 4,3 3,-2 -1,-4 5,-1 7,1 v 4 l 16,2 8,-1 2,-3 3,-1 v -2 l 9,2 4,-3 v -4 l 2,-3 -3,-1 3,-2 1,-3 7,-4 h 2 l 4,6 4,1 2,-6 4,6 h 4 v -2 l -5,-4 1,-4 -2,-3 h -2 v -4 l 4,-1 1,-4 h -2 l 3,-3 v -3 h 3 z m -66,-58 2,1 -1,-1 z m 35,96 -1,-1 z m 31,-39 v -2 l -1,1 z"
     id="420500" />
  <path
     class="leaflet-interactive"
     stroke="#333333"
     stroke-opacity="1"
     stroke-width="1"
     stroke-linecap="round"
     stroke-linejoin="round"
     stroke-dasharray="1, 6"
     fill="#eeeeee"
     fill-opacity="0.5"
     fill-rule="evenodd"
     d="m 480,203 -3,8 -1,-1 -3,3 v 3 h -5 l -11,9 1,1 -2,1 3,5 -2,4 -6,4 1,5 -6,3 1,2 1,-1 1,3 -5,-5 -2,2 2,2 -1,11 v -3 l -2,1 -2,-2 h -5 v 2 l -5,-1 -2,2 6,5 2,7 6,2 -2,6 h 6 v 9 l 3,1 1,2 1,-2 8,-2 2,2 v 3 l 5,4 4,-2 1,4 3,1 10,-5 2,2 5,-2 v 5 l 8,6 5,-4 v -11 l 2,-2 5,1 7,-3 2,1 1,-5 5,-1 9,3 8,-5 10,7 v -5 l 3,-2 v -13 l 5,-1 2,-4 2,1 3,-4 h 3 l -1,-3 4,-6 -2,-4 3,-7 -1,-12 3,-1 1,-2 -2,-4 h 3 v -3 l -5,-2 -3,2 1,2 h -7 l -2,-2 -6,4 -13,-4 -8,4 -3,-2 -6,3 -6,-5 -2,1 -1,-2 v 2 l -4,-2 -3,-5 -4,2 -2,-5 -6,1 v -2 h -2 l -8,-6 h -4 v -2 l -3,2 z m -28,42 -1,-5 -5,4 h 2 v 3 l 3,-2 z m -10,9 -1,-1 z m 4,37 -1,1 z m 107,-70 h 1 z"
     id="420600" />
  <path
     class="leaflet-interactive"
     stroke="#333333"
     stroke-opacity="1"
     stroke-width="1"
     stroke-linecap="round"
     stroke-linejoin="round"
     stroke-dasharray="1, 6"
     fill="#eeeeee"
     fill-opacity="0.5"
     fill-rule="evenodd"
     d="m 705,379 1,-2 -2,-6 -3,-3 -2,1 -8,-2 -2,-4 1,-6 -2,-4 h -4 l -8,4 1,6 -2,2 -1,-1 -1,2 1,11 -2,1 -4,11 5,7 3,-1 4,2 v -2 l 1,1 2,-4 -2,-5 1,-2 -4,-3 v -2 l 4,-6 3,3 3,-2 2,3 h 2 l -1,3 6,2 h 3 v -2 l 4,-2 z"
     id="420700" />
  <path
     class="leaflet-interactive"
     stroke="#333333"
     stroke-opacity="1"
     stroke-width="1"
     stroke-linecap="round"
     stroke-linejoin="round"
     stroke-dasharray="1, 6"
     fill="#eeeeee"
     fill-opacity="0.5"
     fill-rule="evenodd"
     d="m 512,349 4,8 -1,1 4,2 v 4 h 2 v -3 h 2 l 4,3 -1,1 3,4 2,-2 5,-1 4,3 1,-3 3,-1 v -6 l 2,2 1,-1 v -7 l 2,-2 h 4 l -7,-1 v -4 h 2 l 10,-9 5,9 7,-4 1,-2 2,1 3,-1 v -2 l 4,1 4,-2 5,-6 3,1 v -3 h 3 l -1,-1 2,-4 1,1 4,-5 2,-12 -6,-6 -2,1 v -2 l -3,-3 -2,1 -5,-5 -9,-4 -6,1 -2,-3 -2,1 -1,-5 -5,-5 -4,-1 -1,3 -3,1 1,6 -11,-7 -8,5 -11,-3 -4,2 v 4 l -3,-1 -5,3 -6,-1 -2,2 v 12 l -5,3 1,3 2,-1 v 2 h 2 l -1,2 2,3 -3,3 3,1 1,3 3,2 v 9 l 2,3 v 8 l 2,1 z m -1,-2 z m 35,-1 h 1 z"
     id="420800" />
  <path
     class="leaflet-interactive"
     stroke="#333333"
     stroke-opacity="1"
     stroke-width="1"
     stroke-linecap="round"
     stroke-linejoin="round"
     stroke-dasharray="1, 6"
     fill="#eeeeee"
     fill-opacity="0.5"
     fill-rule="evenodd"
     d="m 601,369 2,1 3,-3 v -2 l 3,-3 h 2 v 4 l 6,4 -1,-1 4,-2 3,-5 h 2 v -2 l 3,-1 1,-3 3,-1 -1,-5 2,-2 -3,-2 v -4 l 5,-2 h 6 l 5,2 1,-1 -1,-20 2,-1 -1,-5 5,-5 -3,-1 -2,-5 4,-6 3,-1 3,3 7,1 -1,-4 4,-8 h 2 l -1,-5 4,-3 -1,-6 3,-4 -1,-5 h -2 v 2 l -2,-2 -4,3 -11,-2 -3,-6 -4,-2 -2,2 -1,-1 -2,5 v 5 l 2,3 -3,9 2,2 -3,3 v 4 h -6 v 3 l -2,1 -2,-4 -1,2 -3,-3 -3,1 -5,-2 -6,6 -3,-3 -3,3 -5,-4 -8,2 -1,7 3,3 h 3 l 3,4 h 2 v 8 l -2,1 v 3 l -3,5 h -2 l -2,4 1,1 h -2 l -1,2 1,3 h 2 l 4,5 -1,5 2,4 -1,1 2,2 -2,5 2,12 z m -1,-7 v -2 l -1,2 z m -4,-14 z"
     id="420900" />
  <path
     class="leaflet-interactive"
     stroke="#333333"
     stroke-opacity="1"
     stroke-width="1"
     stroke-linecap="round"
     stroke-linejoin="round"
     stroke-dasharray="1, 6"
     fill="#eeeeee"
     fill-opacity="0.5"
     fill-rule="evenodd"
     d="m 480,386 1,1 -4,4 -9,-2 -5,4 v 2 l -5,1 4,2 2,5 3,-1 1,3 8,-1 1,2 4,1 10,-2 14,6 -1,3 6,3 1,-1 1,6 7,3 1,2 2,-3 4,7 -1,4 3,-3 3,1 4,-7 h 4 l 2,2 3,-2 2,2 1,-1 4,2 2,-4 5,-4 v -3 l 7,-5 2,1 v 8 l 6,-7 -1,5 -6,7 v 3 l 2,8 4,-4 h 3 l 1,7 5,-2 14,-18 17,-15 4,-2 h 7 l 6,-7 12,-5 v -2 l -9,-7 -2,2 h -5 l -3,4 h -3 l -2,3 h -6 l -5,2 -7,-8 -4,-2 h -2 v 2 l -2,1 -10,1 h -4 l -3,-4 -3,5 -7,-3 -1,-2 -4,2 v 6 l -4,1 -11,-4 v -8 l -4,-4 -1,-6 2,-2 -4,-3 -6,1 -2,2 -5,-8 -4,1 1,1 -2,1 v -4 l -4,-2 1,-1 -4,-8 -4,1 -3,6 h 2 l -1,4 -4,1 -1,2 v 2 l 4,1 v 6 l 5,5 -4,1 -4,-6 -2,6 -4,-1 -3,-3 v -2 l -3,-1 -7,4 -1,3 -3,2 3,1 z m 151,10 -2,2 2,-1 z m -152,-8 2,-1 -1,-1 z m 86,26 -1,1 h 3 z"
     id="421000" />
  <path
     class="leaflet-interactive"
     stroke="#333333"
     stroke-opacity="1"
     stroke-width="1"
     stroke-linecap="round"
     stroke-linejoin="round"
     stroke-dasharray="1, 6"
     fill="#eeeeee"
     fill-opacity="0.5"
     fill-rule="evenodd"
     d="m 709,381 v 2 l 2,-1 6,5 9,17 5,6 h 12 l 15,9 h 4 l 11,-7 v -4 l -4,-7 1,-12 -2,-2 v -4 l -5,-6 -5,-2 1,-1 -2,-4 3,-3 -3,-3 2,-4 -10,-13 1,-5 3,1 3,-3 -1,-3 2,-4 9,-6 h 3 l -1,-3 -3,-1 v -2 h -4 v -2 l -4,-3 -1,-3 -6,2 -6,-7 h -2 l -4,5 -2,-1 -2,-7 -5,-2 1,-3 -2,-2 h -4 v -5 l -7,2 v -2 l -3,-1 -1,-2 2,-7 -5,-5 -2,1 -2,6 -5,-1 -2,4 -1,-1 -9,2 -3,-1 v -3 l -6,-1 1,-1 h -2 l -2,-3 -4,2 -1,-1 -2,2 -1,-1 v 6 l -2,1 v 4 h -2 l -2,4 1,4 -3,4 5,5 -1,1 5,4 -2,5 1,3 7,6 5,-1 v -2 l 3,-2 1,3 2,-3 3,4 2,-2 v -3 l 4,-2 1,4 1,-3 1,1 v 4 l 6,6 -3,2 -1,-1 -4,7 -1,-2 h -3 l -4,5 -3,1 2,2 -1,1 3,1 v 2 l -3,1 3,5 -1,5 2,5 8,2 2,-1 3,2 2,7 -1,4 2,2 3,-2 z m -13,-59 v 2 z m 12,61 1,-1 -2,1 z"
     id="421100" />
  <path
     class="leaflet-interactive"
     stroke="#333333"
     stroke-opacity="1"
     stroke-width="1"
     stroke-linecap="round"
     stroke-linejoin="round"
     stroke-dasharray="1, 6"
     fill="#eeeeee"
     fill-opacity="0.5"
     fill-rule="evenodd"
     d="m 670,401 -10,-5 -7,3 -4,-1 -1,-5 -2,-1 -3,-8 h -4 v -2 l -6,-6 -3,2 -3,7 5,-2 9,6 v 2 l -10,5 -2,3 -1,-1 -2,4 -3,2 h -7 l -4,2 -4,4 1,1 -2,3 -1,9 7,-1 6,8 -7,4 3,1 5,5 -2,3 -4,1 v 3 l -4,6 6,3 -2,4 2,7 2,-2 v 3 l 6,-3 2,3 h 2 v 2 h 2 l 9,-10 1,-3 h 7 l 5,-2 v -8 l 3,-1 3,3 6,-2 2,2 h 3 l 10,-6 h 3 l 2,3 5,-3 3,1 2,-3 1,1 1,-5 -3,3 -2,-3 3,-4 1,3 h 2 l 1,-2 -4,-5 -5,-11 h -5 l -2,-2 v -10 l -8,-2 1,-1 h -5 z m -39,-5 -3,2 2,-1 z"
     id="421200" />
  <path
     class="leaflet-interactive"
     stroke="#333333"
     stroke-opacity="1"
     stroke-width="1"
     stroke-linecap="round"
     stroke-linejoin="round"
     stroke-dasharray="1, 6"
     fill="#eeeeee"
     fill-opacity="0.5"
     fill-rule="evenodd"
     d="m 643,263 -8,4 -2,-2 v -5 l -2,-2 -2,2 -4,-1 v -4 l -2,-3 1,-1 -4,-2 2,-3 -4,-4 v -3 l 1,1 2,-2 -1,-2 2,-2 -3,-3 v -4 l 2,-2 v -4 l -2,-3 -3,-2 -7,6 -1,-1 1,1 -3,3 1,-2 h -2 l -6,5 -4,-2 -6,-7 -6,-3 -5,5 h -3 l 2,3 -1,3 -3,1 1,11 -3,5 v 6 l 2,1 -4,6 1,3 h -3 l -7,7 h -5 l -1,10 9,5 2,2 1,5 1,-1 3,3 h 11 v 2 l 4,1 5,5 3,-2 1,-5 2,1 6,-2 4,4 3,-3 3,3 6,-6 7,3 1,-2 2,3 1,-2 3,3 -1,1 3,-3 5,-1 1,-4 3,-3 -2,-1 3,-9 -2,-3 v -6 z m -22,-36 -1,-1 v 2 z"
     id="421300" />
  <path
     class="leaflet-interactive"
     stroke="#333333"
     stroke-opacity="1"
     stroke-width="1"
     stroke-linecap="round"
     stroke-linejoin="round"
     stroke-dasharray="1, 6"
     fill="#eeeeee"
     fill-opacity="0.5"
     fill-rule="evenodd"
     d="m 407,299 -6,-5 h -2 l -7,7 h -3 l -1,2 3,9 -1,3 -4,2 1,8 2,-1 v 2 l -2,3 1,2 -2,5 -3,3 -3,-2 -2,-5 -3,1 -3,-2 -9,5 -4,5 -1,-1 -8,10 -2,1 v -2 l -3,2 -9,11 1,-4 -3,-4 1,-1 -2,-1 -10,8 -4,-6 3,-2 -5,-2 -5,2 -10,10 -2,-2 -3,2 -2,-2 -1,-5 h -2 l -6,9 -1,-2 -3,-1 -6,2 1,6 -2,1 12,10 -2,11 -2,2 v 16 l -6,-2 -4,3 v 2 h 4 l -1,2 2,4 4,2 1,-2 h 2 l -2,-2 4,-7 h 4 l 2,3 v 9 h 2 l 3,4 v -4 h 2 v 4 l 2,1 1,-3 1,3 h 2 l -1,2 3,1 -3,9 5,4 -2,6 h 5 v -2 h 3 l 1,-3 2,1 2,2 -1,5 3,2 -2,4 8,7 3,-1 v -5 l -2,-2 6,-4 v -7 h 2 l 1,-2 -2,-1 4,-3 v -6 l 2,1 v -2 l 3,-1 1,-5 3,2 3,-2 6,2 1,-5 3,-1 -1,-4 3,-2 h 15 l 5,-2 3,3 6,1 3,3 v 2 l 4,1 1,2 5,-3 1,-3 4,1 7,-5 -1,-5 -5,-2 -2,-4 v -4 l 2,-1 -1,-2 h -4 l -3,4 h -7 l 2,-10 -1,-1 2,-2 -5,-4 1,-1 -2,-3 6,-1 1,-17 h 3 l 4,-5 v -2 l -1,1 -2,-4 2,-4 v -5 l -3,-4 -6,2 1,-5 4,-4 h 3 l -2,-2 3,-13 5,-3 -3,-3 -1,-4 v -2 l 2,-1 -5,-2 1,-3 z"
     id="422800" />
  <path
     class="leaflet-interactive"
     stroke="#333333"
     stroke-opacity="1"
     stroke-width="1"
     stroke-linecap="round"
     stroke-linejoin="round"
     stroke-dasharray="1, 6"
     fill="#eeeeee"
     fill-opacity="0.5"
     fill-rule="evenodd"
     d="m 601,369 -1,1 -5,-3 h -11 l -1,-2 -2,2 -3,-5 h -2 v -2 l -1,1 -2,-2 h -5 v 4 l 3,1 -3,6 2,6 2,1 -1,4 6,7 14,-1 2,-3 h 2 l 5,3 6,7 4,-2 h 7 l 1,-3 2,1 4,-3 -1,-4 h -2 l -1,-2 2,-2 v -2 h -2 v -6 l -9,-4 v -5 h -2 l -3,3 v 2 l -4,2 z m 19,7 v 1 z"
     id="429004" />
  <path
     class="leaflet-interactive"
     stroke="#333333"
     stroke-opacity="1"
     stroke-width="1"
     stroke-linecap="round"
     stroke-linejoin="round"
     stroke-dasharray="1, 6"
     fill="#eeeeee"
     fill-opacity="0.5"
     fill-rule="evenodd"
     d="m 541,369 -2,2 1,6 4,4 1,9 14,3 v -6 h 2 l 2,-3 6,5 3,-1 v -11 l -4,-7 3,-3 v -3 l -3,-1 -1,-6 -2,-1 -2,2 v 4 l -6,-6 h -6 l -1,-1 3,-3 -2,-2 -2,3 h -2 v 6 l -1,2 -2,-2 v 6 l -3,1 v 2 z m 9,-17 h -2 z m 20,15 v 1 z m 3,17 z m -3,-21 z"
     id="429005" />
  <path
     class="leaflet-interactive"
     stroke="#333333"
     stroke-opacity="1"
     stroke-width="1"
     stroke-linecap="round"
     stroke-linejoin="round"
     stroke-dasharray="1, 6"
     fill="#eeeeee"
     fill-opacity="0.5"
     fill-rule="evenodd"
     d="m 600,362 -1,-6 2,-5 -5,-3 1,-3 h 2 v -5 l -9,-9 -4,4 -1,-1 -2,4 -3,1 -4,-2 -2,4 -2,-1 -9,7 -3,-3 v -4 l -2,-3 -13,11 3,3 h 5 l -3,3 2,3 6,-1 1,3 4,3 v -4 l 2,-2 4,4 h 7 v 2 h 2 l 3,5 2,-2 2,2 h 10 l 5,3 v -7 z m -1,-17 h -2 l -1,3 3,1 v -3 z m 1,16 h 1 z m -40,-17 h 1 z m -14,2 z m 36,20 -1,1 z"
     id="429006" />
  <path
     class="leaflet-interactive"
     stroke="#333333"
     stroke-opacity="1"
     stroke-width="1"
     stroke-linecap="round"
     stroke-linejoin="round"
     stroke-dasharray="1, 6"
     fill="#eeeeee"
     fill-opacity="0.5"
     fill-rule="evenodd"
     d="m 377,285 -3,3 4,1 4,4 h 3 l 5,9 9,-8 8,5 4,-3 2,4 2,-1 2,-12 7,1 2,-5 3,-1 4,4 6,-5 2,-5 -6,-3 -2,-7 -3,-1 -3,-4 -5,-2 -10,2 -1,-2 -2,1 1,1 h -2 v 2 l -4,-1 -2,4 h -5 l -4,3 v 5 l -2,3 2,2 -1,1 -6,-2 -4,3 1,1 -3,3 h -2 z"
     id="429021" />
</svg>
