<?xml version="1.0" encoding="UTF-8" standalone="no"?>
<svg
   pointer-events="none"
   class="leaflet-zoom-animated"
   width="1447"
   height="865"
   viewBox="-121 -72 1447 865"
   style="transform: translate3d(-121px, -72px, 0px);"
   version="1.1"
   id="svg1"
   sodipodi:docname="甘肃省.svg"
   inkscape:version="1.4 (86a8ad7, 2024-10-11)"
   xmlns:inkscape="http://www.inkscape.org/namespaces/inkscape"
   xmlns:sodipodi="http://sodipodi.sourceforge.net/DTD/sodipodi-0.dtd"
   xmlns="http://www.w3.org/2000/svg"
   xmlns:svg="http://www.w3.org/2000/svg">
  <defs
     id="defs1" />
  <sodipodi:namedview
     id="namedview1"
     pagecolor="#ffffff"
     bordercolor="#000000"
     borderopacity="0.25"
     inkscape:showpageshadow="2"
     inkscape:pageopacity="0.0"
     inkscape:pagecheckerboard="0"
     inkscape:deskcolor="#d1d1d1"
     inkscape:zoom="1.2104046"
     inkscape:cx="723.31184"
     inkscape:cy="498.5936"
     inkscape:window-width="1920"
     inkscape:window-height="991"
     inkscape:window-x="-9"
     inkscape:window-y="1341"
     inkscape:window-maximized="1"
     inkscape:current-layer="svg1" />
  <path
     class="leaflet-interactive"
     stroke="#000000"
     stroke-opacity="1"
     stroke-width="2"
     stroke-linecap="round"
     stroke-linejoin="round"
     fill="#ffffff"
     fill-opacity="0.2"
     fill-rule="evenodd"
     d="m 925,532 -3,2 2,7 -1,-1 -1,3 3,9 -5,6 -1,-1 v 2 h -2 v -2 l -4,-4 v -3 h -2 l -1,-2 -3,4 v -2 l -3,-3 -7,3 v -2 l 7,-3 -6,-2 h -2 l -1,2 -1,-4 -3,-2 v -2 h -2 l 1,-2 h -2 l 3,-3 -4,-1 -4,3 -1,-2 -2,1 -4,-4 v -2 l -2,1 1,-3 -3,-2 v -8 l 4,-4 h 3 l 1,-3 -7,-19 -5,-3 1,-3 -3,-7 3,-2 2,1 1,-4 -3,-2 -1,-3 h -2 l -2,-6 h -6 l -3,-2 -5,-10 -4,-2 -4,3 -4,-3 3,-4 3,-1 -3,-2 1,-2 -7,-2 -15,2 -15,-12 -9,-10 -12,-4 -2,-13 8,-4 -1,-7 -4,-8 20,-14 8,-14 6,-3 2,-8 -8,-13 2,-7 -5,-2 h -6 l -22,7 -13,10 -3,4 -18,-4 -7,-5 -12,5 -17,4 11,12 -13,13 -6,-1 -1,2 -3,-4 -10,-3 v -5 h -4 l -2,-5 1,-5 -12,5 v -3 l -6,-2 2,-6 -2,-4 v -12 h -15 v -5 l -8,-1 -1,-6 -3,-5 -15,-6 -4,-4 -7,-2 -10,1 8,-3 6,-5 6,-1 5,-10 8,-5 v -16 l 3,-4 v -6 l -8,-12 -18,-1 -5,5 -17,-1 -1,7 -3,4 -3,-1 -2,-5 -9,5 1,5 -6,-5 v -5 l -5,2 3,4 -13,7 -1,-21 -16,-11 -16,-21 2,-5 8,-8 -31,-70 -8,2 -27,2 -13,8 -4,4 -2,6 4,2 -1,5 6,7 -4,4 2,8 -4,6 -9,4 -8,1 -5,3 -9,7 -3,6 -5,-7 1,-2 -3,-3 -13,6 -5,8 -10,2 -16,15 -17,23 1,5 -3,8 -38,5 -1,16 -5,9 -2,17 -5,21 -5,9 -7,6 -1,11 5,2 4,-4 15,-3 7,1 4,-2 v 3 l 4,5 v 8 l 3,1 21,-2 7,3 v 3 l -6,1 5,5 23,-3 8,25 6,-3 h 8 l 2,-2 h 5 l 5,1 6,6 3,-1 9,2 7,-6 h 2 l 4,3 1,-1 2,4 9,7 2,-1 5,2 4,-1 1,-4 3,-3 12,3 -1,-6 3,-5 v -2 l -2,-1 3,-2 3,1 v -6 l 6,2 6,-2 v -5 h -2 l 1,-3 -2,-3 v -5 l -2,-2 1,-10 2,-4 -2,-3 2,-1 10,1 8,3 12,8 2,3 14,6 3,4 8,-6 -1,-1 2,-7 h 5 v 2 l 8,4 9,-10 h 2 v 2 l 4,3 10,4 -3,2 5,5 6,3 6,7 v 2 l 4,1 3,6 7,5 17,8 2,3 1,-6 -8,-8 1,-3 10,4 1,5 2,-2 2,5 h 3 l 1,2 2,-1 5,3 1,-2 5,1 6,6 3,-2 1,2 -3,6 2,3 2,-1 7,5 2,4 9,4 4,-5 7,3 3,4 6,3 1,3 6,-5 4,3 1,5 3,3 -1,3 15,11 9,10 -7,3 1,3 -2,4 5,2 v 2 l 3,1 4,5 -6,4 4,5 4,2 -1,3 2,1 2,8 7,6 h 2 v 2 l 2,1 -4,1 -2,5 -3,1 4,4 v 9 h -7 l -5,3 v 5 l 5,8 -4,2 h 2 l -1,2 -10,-5 -5,10 -5,-2 -1,1 2,5 -2,2 4,2 v 6 l -3,1 -1,5 -3,-1 v 2 l -5,2 -3,5 1,1 -4,-1 -3,2 1,16 2,2 h 5 l 8,10 h -3 l -3,5 -2,-1 -6,10 -4,-2 -5,1 -1,2 -3,-1 -6,-6 -2,1 -5,-3 h -3 l 1,-1 -7,-4 -5,1 -4,-3 h -4 l -1,3 h -2 l -3,8 2,1 9,15 7,2 v 11 h 12 l 3,-3 6,6 1,6 5,-1 v -2 h 2 l 2,-3 2,1 v 3 l 3,4 -2,1 -2,6 -4,3 v 2 l 3,2 -1,4 2,1 3,-3 v -2 h 6 l 2,-4 h 2 l 1,2 2,-1 -1,-5 3,-4 5,1 4,-3 v -6 l -6,-4 -1,-2 2,-3 h -3 l 2,-1 -1,-2 h -3 l 1,-5 -6,-5 h 5 l 2,-2 5,1 2,-6 h 10 l -3,-3 6,-5 h 3 v -2 h 3 v -2 h 3 l 3,6 h 3 l 3,2 v 3 l 3,1 -3,3 2,2 -2,2 3,3 -1,5 h 4 l 5,4 h 3 l 4,-4 2,4 -2,4 h 2 v -2 l 2,-1 8,4 4,-2 h 9 l 5,4 -1,4 3,7 h 2 l 2,4 6,1 -2,1 1,1 -4,-2 -1,1 3,11 -1,3 4,2 -4,4 -2,-1 -1,4 2,3 12,6 2,3 h 9 l 4,3 5,-3 3,3 4,-1 3,-3 1,1 9,-5 -3,-3 -1,-4 2,-3 8,3 10,-4 2,1 3,-6 v -6 l -2,1 3,-3 v 2 -3 l -2,-2 -2,1 -3,-2 -4,-6 h 4 l 2,-2 -1,-2 6,-7 v -2 h 6 l 5,4 4,-3 2,1 5,-2 1,4 4,2 2,-6 -2,-4 -3,-1 -1,-5 2,-2 -4,-4 3,-4 1,-7 h 3 l 1,-2 -1,-5 h -3 l 1,-3 6,3 3,-6 -5,-4 -1,-3 -6,-3 h -6 l 1,-1 -2,-2 6,-4 1,1 v -4 l 4,-2 2,-3 -2,-2 -3,-10 4,-4 2,1 5,-2 h 8 l 5,4 2,-1 2,4 4,3 v 2 l 4,-1 1,-2 11,2 2,-4 3,1 -1,2 2,-2 h 5 l 4,-2 -5,-4 -5,-10 h 2 l 3,-4 8,4 h 5 l 6,-3 6,2 2,-2 8,1 4,-2 1,-12 -5,-7 -1,-12 9,-8 -1,-2 2,-5 -3,-4 v -10 l -2,-3 -5,-2 1,2 -3,1 -5,-8 h -6 v -4 l -2,4 -8,-4 v -3 2 h -3 l 1,-3 -2,-1 v -2 l -1,1 -3,-3 -11,-3 -2,1 v -2 l -3,-3 h -7 l -2,-11 -2,1 -2,-3 -4,2 -3,-2 v 2 l -6,-2 v 3 l -5,-4 -3,3 -5,-2 v 3 l 3,4 h -2 l 1,1 -1,2 h -2 v 2 l -2,-3 v 2 l 3,2 v 2 l 1,-1 v 10 l -2,-2 -3,2 -2,6 -2,-1 v 2 l 2,1 h -4 l -1,2 7,4 -2,4 2,1 -1,5 -1,-1 1,3 5,-2 2,2 1,-1 2,3 1,-1 1,2 3,-1 6,8 -3,8 2,-1 -4,4 3,4 v 3 l -4,1 -1,2 -3,-1 v 2 l -6,-3 h -4 z m -21,13 1,2 v -2 h 2 l -1,-1 z M 758,496 v 1 z m 147,52 1,1 z m 20,-16 z"
     id="甘肃省" />
  <path
     class="leaflet-interactive"
     stroke="#333333"
     stroke-opacity="1"
     stroke-width="1"
     stroke-linecap="round"
     stroke-linejoin="round"
     stroke-dasharray="1, 6"
     fill="#eeeeee"
     fill-opacity="0.5"
     fill-rule="evenodd"
     d="m 791,462 -7,-2 -4,1 v 2 l 3,2 3,-2 4,4 -1,2 -2,-2 -1,3 h -2 l -3,-5 h -3 l -1,-3 -1,2 h -14 l -2,2 1,1 -4,2 2,2 -1,3 h -2 l -1,5 -5,-2 1,-2 h 2 v -2 l -6,4 4,5 4,2 -1,3 2,1 2,8 7,6 h 2 v 2 h 4 v 2 l 8,3 1,-1 1,2 h 3 v 2 l 2,1 1,-2 5,1 4,10 2,-1 3,2 v 2 l 3,1 v 2 l 3,1 7,7 3,2 2,-2 2,4 3,1 6,-17 h 2 l -1,-6 3,-2 3,-6 v -3 h -2 l -1,-2 2,-2 -2,-4 v -6 l -1,-1 -3,3 h -4 l -5,3 -1,-1 -3,6 v -5 l -4,-5 -1,-4 1,-5 h -3 l -4,-7 2,-1 v -2 l -2,-1 1,-2 -4,1 v -2 l -2,-1 -1,1 2,1 -6,1 -3,-3 1,-1 -3,-5 z m -33,34 v 1 z"
     id="620100" />
  <path
     class="leaflet-interactive"
     stroke="#333333"
     stroke-opacity="1"
     stroke-width="1"
     stroke-linecap="round"
     stroke-linejoin="round"
     stroke-dasharray="1, 6"
     fill="#eeeeee"
     fill-opacity="0.5"
     fill-rule="evenodd"
     d="m 532,303 5,3 12,-4 6,4 2,-3 -3,-4 6,-4 2,-3 -1,-3 -1,-2 -7,1 -12,-2 v 2 l -3,2 2,1 -3,2 3,3 -3,3 z"
     id="嘉峪关市" />
  <path
     class="leaflet-interactive"
     stroke="#333333"
     stroke-opacity="1"
     stroke-width="1"
     stroke-linecap="round"
     stroke-linejoin="round"
     stroke-dasharray="1, 6"
     fill="#eeeeee"
     fill-opacity="0.5"
     fill-rule="evenodd"
     d="m 723,351 -13,13 -6,-1 -6,8 2,3 -3,1 1,3 -6,2 -1,2 -1,-1 v 3 h 2 l 5,6 -3,3 -2,6 9,1 5,-1 1,-2 5,2 2,-2 h 6 l 1,3 3,1 4,-2 2,1 1,-4 5,-2 3,2 6,-4 5,2 3,-3 -2,-5 1,-6 -6,-1 2,-3 -3,-2 -7,-10 2,-15 -7,-1 -1,2 -14,-5 z"
     id="620300" />
  <path
     class="leaflet-interactive"
     stroke="#333333"
     stroke-opacity="1"
     stroke-width="1"
     stroke-linecap="round"
     stroke-linejoin="round"
     stroke-dasharray="1, 6"
     fill="#eeeeee"
     fill-opacity="0.5"
     fill-rule="evenodd"
     d="m 879,532 -3,-3 v -2 l -2,1 1,-3 -3,-2 -1,-3 1,-5 4,-4 h 3 l 1,-3 -5,-12 1,-1 -3,-6 -5,-3 1,-3 -3,-5 v -2 l 6,-2 v -3 l -3,-2 -1,-3 h -2 l -2,-6 h -6 l -3,-2 -5,-10 -4,-2 -4,3 -4,-3 3,-4 3,-1 -3,-2 1,-2 -7,-2 -15,2 -16,-13 -4,5 v 17 l -4,2 -2,9 -1,-1 -2,3 3,9 -1,1 5,3 h 4 l -2,-2 1,-1 2,3 4,-1 -1,1 2,1 v 3 h -2 l 4,8 h 3 l -1,5 2,2 -1,2 4,5 v 5 l 3,-6 h 5 l 1,-2 1,1 6,-4 1,1 v 6 l 2,4 -2,2 1,2 h 2 v 5 l -3,3 1,1 6,-2 2,6 1,-1 2,4 5,3 1,4 4,3 -2,11 3,3 h 3 v 2 h 2 l 8,-4 h 6 l -1,-1 3,-5 h 2 l -3,-6 z"
     id="620400" />
  <path
     class="leaflet-interactive"
     stroke="#333333"
     stroke-opacity="1"
     stroke-width="1"
     stroke-linecap="round"
     stroke-linejoin="round"
     stroke-dasharray="1, 6"
     fill="#eeeeee"
     fill-opacity="0.5"
     fill-rule="evenodd"
     d="m 924,572 -1,-2 -2,1 -2,-6 -2,1 -2,-3 -5,1 -1,2 h -4 l -2,2 -1,-2 -5,4 -4,-1 -1,2 -9,-8 -2,2 v 4 l -4,-4 -4,5 h -3 v 2 h -2 l -1,4 h -2 l -1,-2 h -5 l 1,1 -2,2 -5,-2 -2,6 -12,-1 -1,12 5,-1 -1,5 1,2 2,-1 v 5 l 2,-1 v 3 l 2,-1 2,2 9,-1 4,-5 h 4 l 2,5 8,2 2,5 2,-1 v 12 l 2,1 h 2 v -2 l 4,-3 2,1 v 2 l 4,-2 v 2 l 7,-2 5,3 h 3 l 2,-1 2,-6 h 2 l 1,3 -1,4 h 4 l 3,-3 2,-7 6,3 3,-6 -5,-4 -1,-3 -6,-3 h -6 l 1,-1 -2,-2 6,-4 1,1 v -4 l 4,-2 2,-3 -4,-7 v -4 z"
     id="620500" />
  <path
     class="leaflet-interactive"
     stroke="#333333"
     stroke-opacity="1"
     stroke-width="1"
     stroke-linecap="round"
     stroke-linejoin="round"
     stroke-dasharray="1, 6"
     fill="#eeeeee"
     fill-opacity="0.5"
     fill-rule="evenodd"
     d="m 791,462 1,-5 h 2 l 1,-2 -1,-2 2,-5 4,-2 v -16 l 4,-6 -8,-9 -12,-4 -2,-13 8,-4 -1,-7 -4,-8 20,-14 8,-14 6,-3 2,-8 -8,-13 2,-7 -5,-2 h -6 l -22,7 -13,10 -3,4 -18,-4 -7,-5 -12,5 -17,4 11,12 -5,-6 6,1 8,4 1,-2 7,1 -2,15 7,10 3,2 -2,3 h 6 l -1,7 2,5 -2,3 -6,-2 -5,4 -4,-2 -6,2 v 4 l -1,-1 -5,2 4,2 -6,3 6,6 1,-1 -5,7 -2,6 4,5 -1,3 15,11 9,10 -7,3 1,3 -2,4 h 2 l 3,2 v 2 l 3,1 4,5 v 2 h -2 l -1,2 5,2 v -3 l 2,-3 1,1 1,-3 -2,-2 h 2 l 3,-5 7,-2 6,2 2,-2 v 3 l 5,1 2,4 h 2 l 1,-2 2,1 1,-2 -4,-4 -4,2 -2,-4 6,-1 4,2 z"
     id="620600" />
  <path
     class="leaflet-interactive"
     stroke="#333333"
     stroke-opacity="1"
     stroke-width="1"
     stroke-linecap="round"
     stroke-linejoin="round"
     stroke-dasharray="1, 6"
     fill="#eeeeee"
     fill-opacity="0.5"
     fill-rule="evenodd"
     d="m 722,424 2,-6 5,-6 -5,-5 h -2 l 6,-4 -6,-2 -2,-4 h -5 l -3,2 -4,-2 -2,2 -2,-1 -3,2 -9,-1 2,-6 3,-3 -5,-6 h -2 v -3 l 1,1 7,-4 v -7 l 2,-4 3,-2 -3,-4 -11,-4 1,-4 h -4 l -2,-5 1,-5 -12,5 v -3 l -6,-2 2,-6 -2,-4 v -12 h -15 v -5 l -8,-1 -1,-6 -3,-5 -5,-1 -10,-5 -4,-4 -7,-2 -16,3 -4,-1 -2,3 -7,-3 -3,4 -1,7 h -5 l -1,5 6,1 2,-3 h 2 l 2,1 v 3 l 7,6 4,6 -2,4 h -3 l -1,7 -3,-6 -7,-4 -4,1 -8,-6 -6,-2 v -2 l -1,1 v -2 l -5,-4 -2,3 -3,-3 2,-5 -7,-4 -11,4 -5,-3 -4,2 -4,-1 -8,9 -2,4 v 6 l -3,3 1,11 11,7 2,3 14,6 3,4 8,-6 -1,-1 2,-7 h 5 v 2 l 8,4 9,-10 h 2 v 2 l 4,3 10,4 -3,2 5,5 6,3 6,7 v 2 l 4,1 3,6 7,5 17,8 2,3 1,-6 -8,-8 1,-3 10,4 1,5 2,-2 2,5 h 3 l 1,2 2,-1 5,3 1,-2 5,1 6,6 3,-2 1,2 -3,6 2,3 2,-1 7,5 2,4 9,4 4,-5 7,3 3,4 6,3 1,3 6,-5 4,3 v 2 z"
     id="620700" />
  <path
     class="leaflet-interactive"
     stroke="#333333"
     stroke-opacity="1"
     stroke-width="1"
     stroke-linecap="round"
     stroke-linejoin="round"
     stroke-dasharray="1, 6"
     fill="#eeeeee"
     fill-opacity="0.5"
     fill-rule="evenodd"
     d="m 906,549 -2,-2 -7,3 v -2 l 7,-3 -6,-2 h -2 l -1,2 -1,-4 -3,-2 v -2 h -2 l 1,-2 h -2 l 3,-3 -2,-1 -6,3 -1,-2 -5,1 3,6 h -2 v 3 l -3,2 1,1 -4,1 6,7 v -2 l 3,3 2,7 h 2 l 1,6 4,4 h 2 v -2 l 5,1 2,-3 3,-1 v 2 l 13,-5 2,3 2,-1 2,6 3,1 4,-4 2,1 5,-2 h 8 l 5,4 2,-1 2,4 4,3 v 2 l 4,-1 1,-2 11,2 2,-4 3,1 -1,2 2,-2 h 5 l 4,-2 -5,-4 -5,-10 h 2 l 3,-4 -3,-7 -1,1 -6,-4 -2,2 -9,-3 h -4 l -2,2 -2,-1 -1,2 h -2 v -2 l -8,-8 -12,-6 h -4 l -4,3 2,7 -1,-1 -1,3 3,9 -5,6 -1,-1 v 2 h -2 v -2 l -4,-4 v -3 h -2 l -1,-2 -3,4 -1,-2 z m -2,-4 1,2 v -2 h 2 l -1,-1 z m 1,3 1,1 z m 20,-16 z"
     id="620800" />
  <path
     class="leaflet-interactive"
     stroke="#333333"
     stroke-opacity="1"
     stroke-width="1"
     stroke-linecap="round"
     stroke-linejoin="round"
     stroke-dasharray="1, 6"
     fill="#eeeeee"
     fill-opacity="0.5"
     fill-rule="evenodd"
     d="m 604,293 8,-3 6,-5 6,-1 5,-10 8,-5 v -16 l 3,-4 v -6 l -6,-10 -2,-2 -18,-1 -5,5 -17,-1 -1,7 -3,4 -3,-1 -2,-5 -9,5 1,5 -6,-5 v -5 l -5,2 3,4 -13,7 -1,-21 -16,-11 -16,-21 2,-5 8,-8 -31,-70 -8,2 -27,2 -13,8 -4,4 -2,6 4,2 -1,5 6,7 -4,4 2,8 -4,6 -9,4 -8,1 -5,3 -9,7 -3,6 -5,-7 1,-2 -3,-3 -13,6 -5,8 -10,2 -16,15 -17,23 1,5 -3,8 -38,5 -1,16 -5,9 -2,17 -5,21 -5,9 -7,6 -1,11 5,2 4,-4 15,-3 7,1 4,-2 v 3 l 4,5 v 8 l 3,1 21,-2 7,3 v 3 l -6,1 5,5 23,-3 8,25 6,-3 h 8 l 2,-2 h 5 l 5,1 6,6 3,-1 9,2 7,-6 h 2 l 4,3 1,-1 2,4 9,7 2,-1 5,2 4,-1 1,-4 3,-3 12,3 -1,-6 3,-5 v -2 l -2,-1 3,-2 3,1 v -6 l 6,2 6,-2 v -5 h -2 l 1,-3 -2,-3 v -5 l -2,-2 1,-10 2,-4 -2,-3 h 12 l 9,4 -1,-10 3,-4 v -6 l 2,-4 8,-9 4,1 12,-9 -3,-3 3,-2 -2,-1 3,-2 v -2 l 11,2 8,-1 2,5 -3,4 -5,3 3,3 -4,9 3,3 2,-3 5,4 v 2 l 1,-1 v 2 l 6,2 8,6 4,-1 7,4 3,5 1,-6 h 3 l 2,-4 -4,-6 -6,-4 -2,-6 h -3 l -2,2 h -6 v -2 l 1,-3 h 5 l 1,-7 3,-4 4,1 1,2 h 2 l 2,-3 h 6 z m -72,10 z"
     id="620900" />
  <path
     class="leaflet-interactive"
     stroke="#333333"
     stroke-opacity="1"
     stroke-width="1"
     stroke-linecap="round"
     stroke-linejoin="round"
     stroke-dasharray="1, 6"
     fill="#eeeeee"
     fill-opacity="0.5"
     fill-rule="evenodd"
     d="m 937,534 5,3 8,8 v 2 h 2 l 1,-2 2,1 1,-2 h 5 l 4,2 7,-1 6,4 1,-1 1,4 4,5 6,2 h 5 l 6,-3 4,2 4,-2 8,1 4,-2 1,-12 -5,-7 -1,-12 1,-2 6,-3 v -2 l 2,-1 -1,-2 2,-5 -3,-4 v -10 l -2,-3 -5,-2 1,2 -3,1 -5,-8 h -6 v -4 l -2,4 -8,-4 v -3 2 h -3 l 1,-3 -2,-1 v -2 l -1,1 -3,-3 -11,-3 -2,1 v -2 l -3,-3 h -7 l -2,-11 -2,1 -2,-3 -4,2 -3,-2 v 2 l -6,-2 v 3 l -5,-4 -3,3 -5,-2 v 3 l 3,4 h -2 l 1,1 -1,2 h -2 v 2 l -2,-3 v 2 l 3,2 v 2 l 1,-1 v 10 l -2,-2 -3,2 -2,6 -2,-1 v 2 l 2,1 h -4 l -1,2 7,4 -2,4 2,1 -1,5 -1,-1 1,3 h 2 l 1,-2 4,2 1,-1 2,3 h 5 l 4,4 -1,1 h 2 l -1,1 2,2 -3,8 2,-1 -4,4 3,4 v 3 l -4,1 -1,2 -3,-1 v 2 z"
     id="621000" />
  <path
     class="leaflet-interactive"
     stroke="#333333"
     stroke-opacity="1"
     stroke-width="1"
     stroke-linecap="round"
     stroke-linejoin="round"
     stroke-dasharray="1, 6"
     fill="#eeeeee"
     fill-opacity="0.5"
     fill-rule="evenodd"
     d="m 886,565 -7,-14 -1,2 -4,-6 -4,-2 -10,4 v -2 l -1,1 -5,-4 2,-10 -4,-4 -1,-4 -5,-3 -2,-4 -1,1 -2,-6 -8,2 -2,2 1,6 h -2 l -1,6 -3,2 -2,8 h -3 l -2,-4 -2,2 -10,-9 h -3 l -3,-6 -5,-1 -2,-2 -1,2 h -2 l -1,-2 -3,3 18,22 -3,3 1,3 h -2 l -4,8 1,6 2,1 -1,3 5,5 1,-1 4,3 h 3 v 4 l -2,2 2,3 -3,3 -5,-1 v 8 l -1,3 h -2 l 2,7 -6,6 4,2 h 5 l 6,8 2,-1 v -2 l 5,-2 -3,-6 4,-3 3,2 1,-2 6,2 2,6 3,2 8,-3 4,1 3,-3 v -4 l 6,-2 v -2 l -5,1 -2,-2 -2,1 v -3 l -2,1 v -5 l -1,1 -2,-2 1,-5 -5,1 1,-2 -2,-2 2,-1 v -7 l 12,1 2,-6 5,2 2,-1 -1,-2 h 5 l 3,2 1,-4 6,-3 3,-4 4,4 v -4 l 2,-2 1,1 z"
     id="621100" />
  <path
     class="leaflet-interactive"
     stroke="#333333"
     stroke-opacity="1"
     stroke-width="1"
     stroke-linecap="round"
     stroke-linejoin="round"
     stroke-dasharray="1, 6"
     fill="#eeeeee"
     fill-opacity="0.5"
     fill-rule="evenodd"
     d="m 925,615 -4,7 h -4 l 1,-4 -1,-3 h -2 l -1,4 -3,3 h -3 l -4,-3 -6,2 h -2 v -2 l -4,2 v -2 l -2,-1 -4,3 v 2 h -4 v -12 l -3,-1 -1,-4 -9,-3 -2,-4 h -3 l -2,4 -4,2 -2,-1 -1,3 h -5 v 4 l -3,4 -3,-1 -9,3 -4,-3 v -3 l -5,-4 h -2 l -1,2 -3,-2 -4,3 3,6 -5,2 v 2 l -2,1 1,4 22,16 -2,3 2,3 -1,1 2,-1 -1,2 8,9 1,6 2,2 h -4 l -2,3 -3,1 -2,-1 1,-1 -2,-4 -5,2 1,1 -4,-2 -1,1 3,11 -1,3 4,2 -4,4 h -3 l 1,5 3,1 2,3 8,3 2,3 h 9 l 4,3 5,-3 3,3 17,-8 -3,-3 -1,-4 2,-3 8,3 10,-4 2,1 3,-6 v -6 l -2,1 3,-3 v 2 -3 l -2,-2 -2,1 -3,-2 -4,-6 h 4 l 2,-2 -1,-2 6,-7 v -2 h 6 l 5,4 4,-3 2,1 5,-2 2,5 3,1 1,-2 1,-4 -2,-4 -3,-1 -1,-5 2,-2 -4,-4 3,-4 1,-7 h 3 l 1,-2 -1,-5 h -2 z"
     id="621200" />
  <path
     class="leaflet-interactive"
     stroke="#333333"
     stroke-opacity="1"
     stroke-width="1"
     stroke-linecap="round"
     stroke-linejoin="round"
     stroke-dasharray="1, 6"
     fill="#eeeeee"
     fill-opacity="0.5"
     fill-rule="evenodd"
     d="m 754,545 6,5 h 3 l 1,8 5,-1 4,3 5,-1 4,6 h 8 l 4,2 3,4 1,-1 1,2 -3,1 3,-1 v 2 l -3,2 1,2 7,-1 -1,-4 h -2 l -2,-3 1,-4 -2,-1 -1,-5 4,-9 h 2 l -1,-3 3,-2 -4,-7 -14,-16 v -2 l 2,-1 2,2 h 2 l 1,-2 -2,-8 -4,-1 -2,2 -2,-1 v -2 l -4,-2 -3,1 -1,-2 -5,-1 v -2 l -6,2 -2,5 -3,1 4,4 v 9 h -7 l -6,5 6,11 -4,2 h 3 z"
     id="622900" />
  <path
     class="leaflet-interactive"
     stroke="#333333"
     stroke-opacity="1"
     stroke-width="1"
     stroke-linecap="round"
     stroke-linejoin="round"
     stroke-dasharray="1, 6"
     fill="#eeeeee"
     fill-opacity="0.5"
     fill-rule="evenodd"
     d="m 812,621 -6,-8 -9,-2 5,-6 1,-4 -2,-2 3,-3 v -8 h 5 l 3,-3 -2,-3 2,-2 v -4 l -7,-3 -1,4 -7,1 -1,-2 3,-2 v -2 l -2,1 1,-3 -1,1 -3,-4 -6,-3 -2,2 -4,-1 -4,-5 h -5 l -4,-3 h -4 l -1,2 v -6 l -2,-4 -1,1 -7,-4 -2,-3 -6,-1 -2,-2 -5,10 -5,-2 -1,1 2,5 -2,2 4,2 1,4 -2,3 h -2 v 4 h -4 v 2 l -5,2 -3,5 1,1 -4,-1 -3,2 1,16 2,2 h 5 l 8,10 h -3 l -3,5 -2,-1 -6,10 -4,-2 -5,1 -1,2 -3,-1 -6,-6 -2,1 -5,-3 h -3 l 1,-1 -7,-4 -5,1 -4,-3 h -4 l -1,3 h -2 l -3,8 2,1 9,15 7,2 v 11 h 12 l 3,-3 6,6 1,6 5,-1 v -2 h 2 l 2,-3 2,1 v 3 l 3,4 -2,1 -2,6 -4,3 v 2 l 3,2 -1,4 2,1 3,-3 v -2 h 6 l 2,-4 h 2 l 1,2 2,-1 -1,-5 3,-4 5,1 4,-3 v -6 l -6,-4 -1,-2 2,-3 h -3 l 2,-1 -1,-2 h -3 l 1,-5 -6,-5 h 5 l 2,-2 5,1 2,-6 h 10 l -3,-3 6,-5 h 3 v -2 h 3 v -2 h 3 l 3,6 h 3 l 3,2 v 3 l 3,1 -3,3 2,2 -2,2 3,3 -1,5 h 4 l 5,4 h 3 l 4,-4 2,4 -2,4 h 2 v -2 l 2,-1 8,4 4,-2 h 9 l 5,4 v 8 l 2,1 v 2 h 2 l 2,4 h 9 l 2,6 h 4 l 1,-4 h 5 l -2,-1 v -4 l -3,-5 -4,-3 1,-2 -3,-2 1,-2 -2,1 1,-1 -2,-2 2,-3 -6,-6 h -2 l -12,-9 -3,-4 z"
     id="623000" />
</svg>
