<?xml version="1.0" encoding="UTF-8" standalone="no"?>
<svg
   pointer-events="none"
   class="leaflet-zoom-animated"
   width="1135"
   height="626"
   viewBox="-95 -52 1135 626"
   style="transform: translate3d(-95px, -52px, 0px);"
   version="1.1"
   id="svg1"
   sodipodi:docname="福建省.svg"
   inkscape:version="1.4 (86a8ad7, 2024-10-11)"
   xmlns:inkscape="http://www.inkscape.org/namespaces/inkscape"
   xmlns:sodipodi="http://sodipodi.sourceforge.net/DTD/sodipodi-0.dtd"
   xmlns="http://www.w3.org/2000/svg"
   xmlns:svg="http://www.w3.org/2000/svg">
  <defs
     id="defs1" />
  <sodipodi:namedview
     id="namedview1"
     pagecolor="#ffffff"
     bordercolor="#000000"
     borderopacity="0.25"
     inkscape:showpageshadow="2"
     inkscape:pageopacity="0.0"
     inkscape:pagecheckerboard="0"
     inkscape:deskcolor="#d1d1d1"
     inkscape:zoom="1.4341496"
     inkscape:cx="524.00391"
     inkscape:cy="405.46676"
     inkscape:window-width="1920"
     inkscape:window-height="991"
     inkscape:window-x="-9"
     inkscape:window-y="1341"
     inkscape:window-maximized="1"
     inkscape:current-layer="svg1" />
  <path
     class="leaflet-interactive"
     stroke="#000000"
     stroke-opacity="1"
     stroke-width="2"
     stroke-linecap="round"
     stroke-linejoin="round"
     fill="#ffffff"
     fill-opacity="0.2"
     fill-rule="evenodd"
     d="m 528,410 5,-3 h 4 l 3,3 v 4 l 4,-1 4,-4 -2,-5 1,-2 h 3 l 5,-5 v -2 h -3 l -2,-2 -2,1 -2,-1 v -2 l 3,-2 v 2 l 3,1 1,-2 h 5 v -2 h 10 l -5,-4 7,-1 -2,-2 2,-5 -1,-1 -2,3 h -2 v -2 l -4,-2 6,-3 h -2 l 2,-5 -5,-4 1,-1 h 7 -2 l -1,2 1,2 h 5 l -3,3 v 2 l 2,2 6,1 -3,1 2,5 -1,-1 2,-2 -1,-2 2,-1 v -4 h -2 l 1,-1 -3,-2 1,-2 4,3 3,-1 3,2 3,-2 -2,-3 6,-1 v -2 h -2 l -3,-4 h -4 l -2,-3 h -3 v -5 h 4 v -2 l 2,-1 v 4 l 6,1 v -8 l 5,3 2,-1 -2,5 1,1 3,-2 v 5 l 3,1 3,-3 -2,-2 1,-1 2,8 4,-2 h -2 2 l 1,-4 -4,-1 4,-3 v 2 h 2 l 3,3 3,-4 h 3 l 1,-2 -1,1 -2,-4 5,-3 -4,-1 1,-1 -3,-1 -1,-3 -4,1 -3,3 3,6 h -2 l -3,3 -2,-2 -1,-6 h -4 v -3 h -4 v -3 l 7,-1 3,-3 v -11 l 4,-1 1,-3 1,-6 -3,-1 -2,-6 h -2 l -1,-3 5,-6 -1,-1 7,-2 2,1 v -2 l 3,-2 3,1 4,-3 v -2 l -4,2 -1,-1 -3,-5 -3,-11 -3,-2 h -5 l -3,2 -2,-2 4,-5 -1,-1 h 2 l -1,-3 4,4 h 9 l 1,3 3,-1 -1,-3 3,-3 v -3 l 8,1 -5,3 -1,5 -2,2 -6,2 -1,6 h 4 l 5,-6 1,1 10,-4 -2,-4 3,-2 -3,-1 2,-4 h -3 v -2 h -2 l -1,-3 5,-2 v -2 l 6,1 2,-2 v -3 l 2,-1 -1,-3 h 2 l -1,-4 h 7 l 4,-4 -3,-4 v -6 l -4,-5 v -4 l -5,1 -1,-4 -2,2 h -6 l 1,1 -3,1 -3,4 -4,-3 -3,4 h -6 l -2,2 -3,-1 1,-1 -3,-3 1,-1 -4,-4 1,-6 -2,-2 -1,1 1,-3 -3,-4 1,-3 -3,-1 h -4 v 2 l -1,-1 -2,3 1,1 -3,6 h -5 l -8,8 -9,-1 v -4 l -2,2 -3,-1 -1,-2 h -2 v 2 h -2 l -1,2 -3,-1 -3,-5 4,-3 v -4 l -3,-4 2,-2 -4,-6 1,-2 -2,-2 v -4 l -6,-5 -1,-6 3,-4 3,-1 -1,-4 -2,1 3,-5 -6,-6 -3,3 -5,1 v -2 h -2 l -5,3 -4,-4 -5,5 h -2 l 4,4 -2,7 -2,-1 -7,3 -3,-1 -4,7 -6,-2 -1,2 h -4 l -6,3 -3,3 v 4 l -3,2 -8,-4 -2,-6 -4,-3 -7,7 -4,2 -1,-3 -4,4 h 2 v 5 l -2,3 -4,2 v 2 l -6,-1 -1,5 -2,-3 h -2 l -1,3 -1,-1 1,6 1,1 3,-2 2,5 -1,1 2,5 -2,6 5,3 -9,11 v 4 l -6,4 -17,4 -8,9 v 6 l -3,3 2,5 2,1 -2,6 6,7 -2,3 1,2 -4,2 v -2 l -3,-1 -8,11 2,7 4,-1 1,3 -7,7 -2,5 -14,7 3,8 -3,-1 -2,5 h -3 v 11 l -1,2 h -2 l 1,7 -2,1 1,5 -2,3 h -2 l -1,4 -5,2 v 4 h 2 l -1,2 4,5 -4,3 3,2 v 2 l -2,-2 -1,1 2,2 5,3 2,-1 5,5 h 3 l 3,-3 3,6 h 4 l 6,-6 2,3 -3,3 h 2 l 3,6 2,-1 2,2 1,7 5,-4 h 10 l 1,-2 h 2 l 1,2 -4,7 7,7 h -2 l 2,5 1,-1 1,2 1,6 h 2 l -1,5 h 2 l 3,3 -5,5 v 3 h 2 l -1,2 3,5 -2,3 v 4 l 4,2 4,12 7,2 v 5 l 6,-1 2,2 h 4 l 5,-2 v -4 l 3,-2 v -3 l 7,-1 3,-5 1,-6 6,-1 5,-7 4,-2 1,-4 6,-9 9,-4 -3,-7 h -2 l 1,-3 -3,-1 2,-8 5,-4 3,4 3,1 8,-2 -1,-2 z m 3,4 h -2 l 1,2 -2,2 -3,-2 -2,1 v 6 h 2 l 3,-3 4,2 3,-3 -4,-6 z m 68,-48 5,2 v -2 l 2,-1 h -4 l -1,-3 h -4 v 3 z m 66,-84 h -2 l 1,-1 v 2 l 1,-2 z m -39,56 v -2 l -1,2 z m 53,-101 z m -2,-1 h 1 z m -28,5 v 2 z m -43,94 2,-2 -1,-1 -3,2 z m 27,-42 v -2 l -2,4 v -2 z m -2,19 v -1 z m 22,-71 h -2 l 2,1 z m -33,19 h 2 l -2,-1 z m -6,94 h 2 l -3,-1 z m -1,4 1,-3 z m -94,64 3,-3 -2,-1 -2,4 z M 655,262 h 1 z m -28,-3 2,2 -1,-2 z M 485,466 Z m -1,-1 z m 33,-50 -1,-3 -5,-1 -3,6 2,3 3,1 4,-5 z m 111,-116 3,-2 -3,-1 -1,2 z m -18,0 1,-2 -4,-1 z m 15,-20 v -1 z m -5,-12 h 1 z m -106,161 -1,-2 z m 85,-72 1,-1 -2,1 z m 56,-98 h 2 l -1,-1 z m -20,15 h 2 v -2 h -2 l -1,2 z m 7,-5 h 1 z m -31,66 h 4 v -2 l -3,1 z m 31,-75 h -1 z m -1,11 h 1 z m -29,56 v -1 z m -6,35 h -1 z m 6,-62 v 1 z m -20,72 z m 65,-132 h 1 z m -88,128 h -1 z m 64,-98 z m -16,-5 4,1 -1,-2 z m -15,97 h -1 z m 15,-3 h 1 z m 10,-80 1,1 z m 6,13 z m -63,86 z m -87,88 v -1 z m 146,-154 1,-1 h -2 z m -58,61 h 1 z m 39,-40 v -1 z m -4,34 h 1 z m -13,-17 1,-1 z m -65,62 h 1 z m 62,-54 z m -81,63 -1,-1 z M 620,265 Z m 39,-36 z m -18,40 3,-4 h -2 l -2,2 1,1 z m 6,-23 v -1 z m -41,116 z m 35,-89 h 1 z m -32,27 z m 23,-11 z m 15,-5 z m -37,48 h 1 z m 46,-90 h 2 l -2,-4 -3,1 v 2 l 2,1 z m -14,9 1,1 -1,-2 z m -31,12 h 4 l 2,-4 h -5 l -2,3 z m -5,69 z m -36,35 1,-1 -2,1 z m 48,-107 v -1 z m -26,96 z m 6,25 -1,-1 z"
     id="福建省" />
  <path
     class="leaflet-interactive"
     stroke="#333333"
     stroke-opacity="1"
     stroke-width="1"
     stroke-linecap="round"
     stroke-linejoin="round"
     stroke-dasharray="1, 6"
     fill="#eeeeee"
     fill-opacity="0.5"
     fill-rule="evenodd"
     d="m 620,269 -2,-2 h -5 l -1,3 -4,1 -9,-8 h -4 l -5,4 h -3 l -1,3 -1,-1 -2,2 -2,-4 -4,3 -4,-2 -1,-3 h -2 l -1,3 -4,3 v 3 h -3 l -5,4 -2,-3 1,-1 -4,-2 1,1 -2,1 v 2 l 4,8 h -5 l -3,4 v 4 l -4,-1 v 2 l -2,1 -1,4 3,6 h -6 v 11 h -2 l -1,3 -2,-4 -2,2 1,3 -2,2 2,2 1,5 4,2 2,3 8,-4 4,2 1,-1 v 2 l 6,-4 4,1 -1,1 5,-5 v 4 l 2,-2 10,-1 1,1 -2,2 h 2 v 8 l 3,4 2,-2 1,3 -2,4 3,-1 v 4 l 6,1 v -8 l 5,3 2,-1 -2,5 1,1 3,-2 v 5 l 3,1 3,-3 -2,-2 1,-1 2,8 4,-2 h -2 2 l 1,-4 -4,-1 4,-3 v 2 h 2 l 1,2 h 4 -2 l 3,-3 h 3 l 1,-2 -1,1 -2,-4 5,-3 -4,-1 1,-1 -3,-1 -1,-3 -4,1 -3,3 3,6 h -2 l -3,3 -2,-2 -1,-6 h -4 v -3 h -4 v -3 l 7,-1 3,-3 v -11 l 4,-1 1,-3 1,-6 -3,-1 -2,-6 h -2 l -1,-3 5,-6 -1,-1 7,-2 2,1 v -2 l 3,-2 3,1 4,-3 v -2 l -4,2 -1,-1 -4,-10 z m 45,13 h -2 l 1,-1 v 2 l 1,-2 z m -39,56 v -2 l -1,2 z m -20,-3 2,-2 -1,-1 -3,2 z m 27,-42 v -2 l -2,4 v -2 z m -2,19 v -1 z m -17,42 h 2 l -3,-1 z m -1,4 1,-3 z m 15,-59 3,-2 -3,-1 -1,2 z m -18,0 1,-2 -4,-1 z m 15,-20 v -1 z m -26,77 1,-1 -2,1 z m 12,-22 h 4 v -2 l -3,1 z m 1,-8 v -1 z m 0,-27 v 1 z m 5,59 h 1 z m 10,-80 1,1 z m 6,13 z m -4,20 1,-1 h -2 z m -19,21 v -1 z m -17,17 1,-1 z m 16,-49 z m 23,-11 z m 15,-5 z m -37,48 h 1 z m -4,0 z"
     id="350100" />
  <path
     class="leaflet-interactive"
     stroke="#333333"
     stroke-opacity="1"
     stroke-width="1"
     stroke-linecap="round"
     stroke-linejoin="round"
     stroke-dasharray="1, 6"
     fill="#eeeeee"
     fill-opacity="0.5"
     fill-rule="evenodd"
     d="m 507,421 2,-8 5,-4 3,4 3,1 8,-2 -2,-4 v -8 l -2,-3 h 2 v -2 l -4,-4 -3,1 -2,-5 h -4 l -4,3 v -2 l -1,1 -2,-2 h -2 l 1,1 -3,2 -2,-2 -2,1 4,2 v 4 l -2,3 2,5 -3,4 h -2 v 2 l 5,7 -1,2 3,3 h 2 z m 10,-6 -1,-3 -5,-1 -3,6 2,3 3,1 4,-5 z m 11,-4 h 1 z m -19,9 -1,-1 z"
     id="350200" />
  <path
     class="leaflet-interactive"
     stroke="#333333"
     stroke-opacity="1"
     stroke-width="1"
     stroke-linecap="round"
     stroke-linejoin="round"
     stroke-dasharray="1, 6"
     fill="#eeeeee"
     fill-opacity="0.5"
     fill-rule="evenodd"
     d="m 562,362 5,-2 3,1 h -2 l -1,2 1,2 h 5 l -3,3 v 2 l 2,2 6,1 -3,1 2,5 -1,-1 2,-2 -1,-2 2,-1 v -4 h -2 l 1,-1 -3,-2 1,-2 4,3 3,-1 3,2 3,-2 -2,-3 6,-1 v -2 h -2 l -3,-4 h -4 l -2,-3 -4,-1 1,-4 h 4 l -1,-4 1,1 1,-2 -1,-4 -2,2 -3,-3 v -9 h -2 l 2,-2 -1,-1 -10,1 -2,2 v -4 l -4,5 -4,-2 -6,4 v -2 l -1,1 -7,-2 v 2 l -1,-1 -4,4 1,1 -2,5 -3,3 1,8 3,3 -1,3 1,-1 v 2 l 2,1 h 7 l -1,1 3,1 -2,4 2,3 5,-2 v -2 h 5 l 1,-2 z m 37,4 5,2 v -2 l 2,-1 h -4 l -1,-3 h -4 v 3 z m 7,-5 h -1 z m -14,10 z m 10,-10 h -1 z m -31,11 h 1 z m 35,-6 h 1 z m -16,-9 z m 16,5 z m -36,5 1,-1 -2,1 z m 22,-11 z m 6,25 -1,-1 z"
     id="350300" />
  <path
     class="leaflet-interactive"
     stroke="#333333"
     stroke-opacity="1"
     stroke-width="1"
     stroke-linecap="round"
     stroke-linejoin="round"
     stroke-dasharray="1, 6"
     fill="#eeeeee"
     fill-opacity="0.5"
     fill-rule="evenodd"
     d="m 486,343 h 2 l 3,3 v -3 h 2 l 1,2 8,-3 1,1 4,-6 v -2 l -3,1 -3,-3 1,-2 h 2 l 1,-3 -1,1 -2,-4 h 2 l 2,-7 1,1 5,-4 7,2 3,-4 h 5 l 1,3 4,-2 2,4 v -3 l 3,1 v -12 l 6,-1 -3,-7 2,-3 1,1 v -2 l 4,-1 -1,-2 -10,-7 -3,2 -2,-3 h 2 v -2 l -6,1 -1,-2 -1,1 v -2 l -12,5 -5,-5 v -2 h -2 l 1,-3 h -2 l -1,-2 1,-3 -8,1 -2,-2 v -6 l -9,1 -3,2 v -2 h -2 l -3,-3 4,-4 1,-4 -5,-5 -1,-3 h -4 l -1,-2 3,-3 -5,-2 -1,1 -5,-7 -6,-2 v 4 l -3,3 -5,-6 -2,2 -4,-1 -8,5 -17,4 -8,9 v 6 l -3,3 2,5 2,1 -2,6 6,7 -2,3 1,2 -2,2 h -2 v -2 l -3,-1 -8,11 2,7 4,-1 1,3 -6,6 1,2 4,1 1,3 3,-3 3,2 3,-3 1,5 6,4 v 3 h 3 l -1,2 3,3 3,-1 3,-4 3,1 3,-2 4,8 -1,5 5,2 2,6 2,1 3,-6 3,-2 v -5 l 6,-3 2,9 2,-1 2,-4 -1,-1 h 2 l 1,2 3,-1 4,5 2,-1 5,6 2,-1 v 2 l -4,2 1,2 z"
     id="350400" />
  <path
     class="leaflet-interactive"
     stroke="#333333"
     stroke-opacity="1"
     stroke-width="1"
     stroke-linecap="round"
     stroke-linejoin="round"
     stroke-dasharray="1, 6"
     fill="#eeeeee"
     fill-opacity="0.5"
     fill-rule="evenodd"
     d="m 562,362 h -2 l -1,2 h -5 v 2 l -5,2 -2,-3 2,-1 v -3 h -2 l -1,-3 -8,1 v -4 l -3,-4 -1,-7 5,-8 v -3 l -8,-8 -2,-4 2,-4 -2,-2 -1,1 -1,-3 h -5 v 2 l -3,2 -7,-2 -4,4 -3,-1 1,2 -2,5 h -2 l 2,4 1,-1 -5,5 4,3 3,-1 v 2 l -4,5 -9,3 -1,-2 h -2 v 3 l -3,-3 h -2 l -2,10 -6,6 v 2 l 2,1 -1,2 -2,-1 -2,3 7,4 1,3 4,3 -1,3 -7,3 v 5 l 2,3 5,-2 6,2 v -2 l 4,1 v -2 l 6,3 3,-2 -2,-1 h 2 l 3,2 1,-1 v 2 l 3,-3 h 5 v 2 l 2,1 -1,1 h 4 l 4,5 -2,1 3,6 -2,5 1,-1 2,3 5,-3 h 4 l 3,3 v 4 h 2 l 6,-5 -2,-5 1,-2 h 3 l 5,-5 v -2 h -3 l -2,-2 -2,1 -2,-1 v -2 l 3,-2 v 2 l 3,1 1,-2 h 5 v -2 h 10 l -5,-4 7,-1 -2,-2 2,-5 -1,-1 -2,3 h -2 v -2 l -4,-2 6,-3 h -2 l 2,-5 -4,-3 z m -31,52 h -2 l 1,2 -2,2 -3,-2 -2,1 v 6 h 2 l 3,-3 4,2 3,-3 -4,-6 z m -12,8 3,-3 -2,-1 -2,4 z m 50,-55 h -1 z m 1,10 z"
     id="350500" />
  <path
     class="leaflet-interactive"
     stroke="#333333"
     stroke-opacity="1"
     stroke-width="1"
     stroke-linecap="round"
     stroke-linejoin="round"
     stroke-dasharray="1, 6"
     fill="#eeeeee"
     fill-opacity="0.5"
     fill-rule="evenodd"
     d="m 433,424 1,6 h 2 l -1,5 h 2 l 3,3 -5,5 v 3 h 2 l -1,2 3,5 -2,3 v 4 l 4,2 4,12 7,2 v 5 l 6,-1 2,2 9,-2 v -4 l 3,-2 v -3 l 7,-1 3,-5 1,-6 6,-1 5,-7 4,-2 1,-4 6,-9 9,-4 -3,-7 h -2 l 1,-3 -6,-1 -3,-3 1,-2 -4,-3 -1,-6 h 2 l 3,-4 -2,-5 2,-3 v -4 h -2 l -4,-4 v 2 l -3,-1 v 2 h -4 l -1,-2 -6,2 -3,-2 v -6 h 2 l 6,-5 -1,-3 -1,1 -2,-4 -3,-1 v -2 l -5,-2 v -2 2 l -1,-1 -3,5 2,3 -2,10 -4,-2 -9,1 v -2 l -3,2 -1,4 h -2 l -1,6 -3,3 h -3 l -2,-3 v 2 l -2,1 v 5 l 2,4 -3,8 h -4 l -2,2 2,6 -1,3 h -2 z m 52,42 z m -1,-1 z m 30,-37 -1,-2 z m -31,37 v -1 z"
     id="350600" />
  <path
     class="leaflet-interactive"
     stroke="#333333"
     stroke-opacity="1"
     stroke-width="1"
     stroke-linecap="round"
     stroke-linejoin="round"
     stroke-dasharray="1, 6"
     fill="#eeeeee"
     fill-opacity="0.5"
     fill-rule="evenodd"
     d="m 585,206 -9,-1 v -4 l -2,2 -3,-1 -1,-2 h -2 v 2 h -2 l -1,2 -3,-1 -3,-5 4,-3 v -4 l -3,-4 2,-2 -4,-6 v -6 l -7,-7 -1,-6 3,-4 3,-1 -1,-4 -2,1 3,-5 -6,-6 -3,3 -5,1 v -2 h -2 l -5,3 -4,-4 -5,5 h -2 l 4,4 -2,7 -2,-1 -7,3 -3,-1 -4,7 -6,-2 -1,2 h -4 l -6,3 -3,3 v 4 l -3,2 -8,-4 -2,-6 -4,-3 -7,7 -4,2 -1,-3 -4,4 h 2 v 5 l -2,3 -4,2 v 2 l -6,-1 -1,5 -2,-3 h -2 l -1,3 -1,-1 1,6 1,1 3,-2 2,5 -1,1 2,5 -2,6 5,3 -9,11 1,3 1,-1 1,2 h 3 l 2,-2 5,6 3,-3 v -4 l 6,2 2,4 2,-1 -1,1 3,3 1,-1 3,2 -2,5 h 5 l 6,8 -2,5 -3,2 5,4 v 2 l 2,-2 10,-2 v 7 l 2,2 7,-1 v 5 h 3 l -1,3 1,-1 1,3 5,5 2,-2 h 6 v -2 l 3,-1 3,3 h 6 l -2,1 2,2 3,-1 6,3 5,6 v -7 l -3,-2 h -4 l -1,-3 5,-8 v -2 l -3,-1 2,-8 h -2 v -2 l 4,-7 -1,-3 5,-3 -2,-5 h 7 l 4,-3 v -2 l 5,-6 3,-1 -2,-4 4,1 v 4 h 6 l 2,3 4,-4 h 2 l -2,-1 v -5 l 2,-2 2,2 2,-1 -4,-3 v -4 l 4,-5 -1,-2 z"
     id="350700" />
  <path
     class="leaflet-interactive"
     stroke="#333333"
     stroke-opacity="1"
     stroke-width="1"
     stroke-linecap="round"
     stroke-linejoin="round"
     stroke-dasharray="1, 6"
     fill="#eeeeee"
     fill-opacity="0.5"
     fill-rule="evenodd"
     d="m 401,306 -3,3 v 2 l -14,7 3,8 -3,-1 -2,5 h -3 v 11 l -1,2 h -2 l 1,7 -2,1 1,5 -2,3 h -2 l -1,4 -5,2 v 4 h 2 l -1,2 4,5 -4,3 3,2 v 2 l -2,-2 -1,1 7,5 2,-1 5,5 h 3 l 3,-3 3,6 h 4 l 6,-6 2,3 -3,3 h 2 l 3,6 2,-1 2,2 1,7 5,-4 h 10 l 1,-2 h 2 l 1,2 -4,7 4,5 h 2 l 1,2 h -2 l 2,5 1,-1 1,2 2,-1 1,-3 -2,-6 2,-2 5,-1 v -5 l 2,-2 -2,-8 2,-4 1,3 h 4 l 3,-3 1,-6 h 2 l 4,-6 v 2 h 14 l -1,-4 2,-5 -3,-3 2,-3 8,-5 -2,-1 4,-4 3,-7 -1,-2 2,-2 v -3 h -2 v -2 h 2 l 2,-4 -2,1 -4,-6 -3,1 -5,-5 -2,1 v -2 h -3 l 1,1 -4,5 -2,-9 h -2 v 2 l -5,2 -1,3 h 2 l -3,5 -3,3 h -2 l -2,-6 -5,-2 1,-4 -4,-9 -3,2 -3,-1 -3,4 -3,1 -3,-3 v -3 l -1,1 -1,-3 -6,-4 -1,-5 v 2 l -6,-1 -3,3 -2,-4 h -3 z"
     id="350800" />
  <path
     class="leaflet-interactive"
     stroke="#333333"
     stroke-opacity="1"
     stroke-width="1"
     stroke-linecap="round"
     stroke-linejoin="round"
     stroke-dasharray="1, 6"
     fill="#eeeeee"
     fill-opacity="0.5"
     fill-rule="evenodd"
     d="m 620,269 -1,-3 -3,-2 h -5 l -3,2 -2,-2 4,-5 -1,-1 h 2 l -1,-3 4,4 h 9 l 1,3 3,-1 -1,-3 3,-3 v -3 l 8,1 -5,3 -1,5 -2,2 -6,2 -1,6 h 4 l 3,-3 v -2 l 13,-4 -2,-4 3,-2 -3,-1 2,-4 h -3 v -2 h -2 l -1,-3 5,-2 v -2 l 6,1 2,-2 v -3 l 2,-1 -1,-3 h 2 l -1,-4 h 7 l 4,-4 -3,-4 v -6 l -4,-5 v -4 l -5,1 -1,-4 -2,2 h -6 l 1,1 -3,1 -3,4 -4,-3 -3,4 h -6 l -2,2 -3,-1 1,-1 -3,-3 1,-1 -4,-4 1,-6 -2,-2 -1,1 1,-3 -3,-4 1,-3 -7,-1 v 2 l -1,-1 -2,3 1,1 -3,6 h -5 l -8,8 1,3 -4,8 4,4 -1,1 -3,-2 -2,2 v 5 h 2 l -1,1 -5,4 -3,-3 h -4 l -1,-4 -4,-1 2,4 -4,2 -5,8 -3,2 h -7 l 2,2 v 4 l -5,2 1,3 -4,7 v 2 h 2 l -2,8 h 3 v 3 l -5,8 1,3 h 4 l 3,2 -1,1 2,3 2,-3 5,-1 -2,-6 -2,-1 v -3 l 2,-1 -1,-1 h 2 l 3,5 h 2 l 3,-3 3,1 v -4 l 3,-1 v -2 l 4,-3 v 2 h 3 l 2,3 4,-3 2,4 2,-2 1,1 2,-4 1,1 6,-3 -1,-1 7,1 5,6 h 5 l 2,-3 6,1 z m -63,8 v 1 z m 122,-40 z m -2,-1 h 1 z m -28,5 v 2 z m 4,0 h -2 l 2,1 z m -33,19 h 2 l -2,-1 z m 35,2 h 1 z m -28,-3 2,2 -1,-2 z m -7,8 h 1 z m 35,-9 h 2 l -1,-1 z m -20,15 h 2 v -2 h -2 l -1,2 z m 7,-5 h 1 z m 0,-9 h -1 z m -1,11 h 1 z m 16,-31 h 1 z m -24,30 z m -16,-5 4,1 -1,-2 z m 3,1 z m 39,-36 z m -18,40 3,-4 h -2 l -2,2 1,1 z m 6,-23 v -1 z m -6,27 h 1 z m 15,-31 h 2 l -2,-4 -3,1 v 2 l 2,1 z m -14,9 1,1 -1,-2 z m -31,12 h 4 l 2,-4 h -5 l -2,3 z m 7,-3 v -1 z"
     id="350900" />
</svg>
