<?xml version="1.0" encoding="UTF-8" standalone="no"?>
<svg
   pointer-events="none"
   class="leaflet-zoom-animated"
   width="1447"
   height="865"
   viewBox="-121 -72 1447 865"
   style="transform: translate3d(-121px, -72px, 0px);"
   version="1.1"
   id="svg1"
   sodipodi:docname="西藏自治区.svg"
   inkscape:version="1.4 (86a8ad7, 2024-10-11)"
   xmlns:inkscape="http://www.inkscape.org/namespaces/inkscape"
   xmlns:sodipodi="http://sodipodi.sourceforge.net/DTD/sodipodi-0.dtd"
   xmlns="http://www.w3.org/2000/svg"
   xmlns:svg="http://www.w3.org/2000/svg">
  <defs
     id="defs1" />
  <sodipodi:namedview
     id="namedview1"
     pagecolor="#ffffff"
     bordercolor="#000000"
     borderopacity="0.25"
     inkscape:showpageshadow="2"
     inkscape:pageopacity="0.0"
     inkscape:pagecheckerboard="0"
     inkscape:deskcolor="#d1d1d1"
     inkscape:zoom="0.8982659"
     inkscape:cx="723.05985"
     inkscape:cy="432.5"
     inkscape:window-width="1920"
     inkscape:window-height="991"
     inkscape:window-x="-9"
     inkscape:window-y="1341"
     inkscape:window-maximized="1"
     inkscape:current-layer="svg1" />
  <path
     class="leaflet-interactive"
     stroke="#000000"
     stroke-opacity="1"
     stroke-width="2"
     stroke-linecap="round"
     stroke-linejoin="round"
     fill="#ffffff"
     fill-opacity="0.2"
     fill-rule="evenodd"
     d="m 927,371 -2,-4 h -2 l -3,-4 -1,3 -5,1 -1,2 -3,-2 -1,4 -8,1 v 2 l -3,2 -4,-2 -3,1 -1,-2 -2,2 -9,-7 -9,6 -3,-5 h -2 l -1,2 -4,-5 h -2 l -3,-3 -1,2 -4,1 -3,-6 -10,1 -5,-3 -2,3 -2,-2 -3,1 -3,-2 h -5 l -1,2 -1,-1 -2,2 -3,-2 v -3 l 2,-2 -6,-2 -7,3 -5,-7 -7,-2 -7,-6 -5,2 -8,-4 -3,2 -1,-1 -1,2 -3,-2 h -8 v 2 l -1,-2 -8,-1 -8,-6 -9,-3 -4,-7 -6,-2 -1,-3 -5,-3 1,-6 -4,-4 1,-2 -4,-4 h -2 l -8,-10 3,-4 6,-2 v -7 l 2,-2 -3,-4 v -13 l -3,-1 -1,-3 7,-6 -4,-6 -9,2 v -12 l -6,-7 4,-3 -2,-1 v -3 l 8,-4 1,1 2,-4 v -2 l -1,1 -1,-2 1,-3 h 2 l -1,-7 3,-8 h -10 l -7,-4 -1,-7 3,2 6,-1 4,-3 -8,-3 -8,-6 -2,1 -3,-4 -1,2 -4,1 -3,-3 -4,-1 -2,-3 -6,2 v 2 l -8,-5 -1,-4 -4,1 -6,-3 v 2 l -6,-1 -1,2 -2,-1 -2,2 -6,-1 -4,3 -16,2 h -4 l -2,-4 h -2 l -4,4 h -5 l -2,3 -7,-1 -3,3 -3,-2 h -4 l -3,3 -9,2 -2,-1 -12,5 v 5 l -5,10 -5,5 -11,1 -8,7 -2,-2 -7,-2 -4,-4 -10,2 -13,7 -15,4 1,4 -6,4 -6,1 -1,2 -6,-4 -6,1 -2,3 -8,-1 -2,2 h -5 v -2 l -2,1 -2,-2 -10,-2 -1,2 -4,-1 -2,-1 v -2 l -4,-1 v -7 l -2,-2 1,-2 -8,-1 -3,3 -8,-4 h -6 l -3,3 -2,6 -11,6 -1,-1 v 6 l -2,3 -1,-1 -2,3 h -9 l -2,2 h -8 l -3,-5 -4,-2 h -4 v 2 h -3 l -1,-3 -5,-2 -2,1 v 3 l -6,1 -3,-2 -7,1 -1,-3 h -7 l -4,-3 -2,3 -3,1 -2,4 4,5 h -4 l -3,5 -4,3 h -3 v 9 l -2,1 v 2 h -3 l -2,7 1,2 -2,1 1,1 -2,4 1,3 -3,3 h -12 l -13,3 -9,-1 -2,2 2,3 -2,2 -1,-1 -4,10 h -5 l -2,3 h -4 v 2 l 4,4 -1,3 2,1 v 10 l -4,3 1,3 h 2 l 4,11 h 3 l 6,6 3,6 3,1 v 9 l 4,4 -1,8 h 2 l 1,4 v 6 l -2,5 -1,-1 -5,4 -1,5 -4,-1 -2,3 -9,-8 -1,-12 -15,7 -1,2 5,11 -2,5 -2,1 2,5 2,-1 5,5 -1,1 8,5 -5,4 4,10 h 2 l 2,3 v 2 l -5,4 3,4 -2,2 1,4 4,1 3,3 3,4 -1,3 6,6 5,-1 1,4 3,-1 1,-3 4,-3 1,3 3,-1 5,6 3,-3 4,2 3,4 4,2 -1,1 3,2 v 4 l 8,7 4,-1 4,1 1,2 h 4 l 1,2 h 3 l 2,2 4,-1 8,8 10,4 4,12 h 5 l 3,-4 v -2 l -2,-1 h 3 l 3,-3 2,-5 -1,-6 7,2 v -3 l 2,1 1,-2 17,7 4,-2 2,3 -1,4 4,2 -1,5 17,7 4,5 -1,1 5,1 -2,3 6,2 1,2 5,-1 1,3 2,-1 3,3 2,-1 7,3 v 4 h 2 l 5,5 1,5 7,7 h 2 l 4,-4 h 3 l 1,-3 1,1 6,-2 2,2 h 4 v 2 h 4 l -1,6 1,5 h 2 l -1,7 9,3 -1,1 h 2 l 2,5 3,-1 5,2 2,4 7,3 h 5 l 4,-5 h 4 l 2,2 v 5 l -4,4 1,6 h 4 l 3,3 3,-1 2,2 1,-2 5,-1 4,1 v 3 l 4,-7 4,10 h 3 l 2,7 4,3 -1,3 4,2 4,-2 -2,-8 h 2 l 3,-4 1,9 4,1 5,4 5,-3 -1,-2 3,-6 2,2 4,-2 3,2 -1,1 2,2 6,1 1,2 h 4 l 6,7 h 9 l 3,-2 -1,1 2,1 5,-2 2,2 2,-1 1,2 h 3 l 4,-7 7,3 3,-1 3,2 v -3 l 2,-2 2,1 2,-2 1,2 4,-3 2,1 11,-7 2,2 h 4 l 5,9 v 8 l -4,9 v 5 l 2,5 h 2 l 1,5 3,3 h 2 l 3,-1 v -2 l 5,-5 -4,-5 v -4 l 3,-1 -2,-2 3,-3 2,-7 6,-4 11,-15 h 6 l 4,-4 4,3 5,1 v 2 l 7,-3 9,5 v 2 h 9 l 1,2 1,-2 4,-1 4,2 2,3 4,2 2,-1 v 3 l 5,3 h 2 l 4,-8 2,1 4,-4 13,9 -4,3 h 4 l 1,3 -1,4 -3,3 v 3 l 7,5 8,-1 5,1 2,2 4,8 h -2 l -1,4 -2,1 v 5 l 5,6 -1,5 25,-5 5,3 6,-1 10,2 20,-3 12,-4 1,-8 20,-21 h 7 l 10,-3 13,-8 16,-7 3,-5 v -4 l 3,-3 16,-5 2,-2 4,1 v 2 l 5,3 12,-2 1,4 3,2 2,-3 2,1 2,4 h 2 l 6,6 5,1 2,3 h 5 l 3,2 v 2 h 2 v 3 h 2 v -2 l 7,-6 3,-1 v 2 h 2 l 2,-7 -1,-3 -3,1 2,-10 h 2 l 1,-3 2,2 v -2 l 2,-1 v -8 l 3,-3 h 4 l 6,11 5,-2 4,4 v 4 h 3 l 3,3 3,-4 1,1 2,-2 -2,-6 1,1 2,-3 3,5 2,10 9,-4 2,1 4,-3 -1,-3 2,-2 -3,-8 -3,-2 1,-2 -2,-6 4,-3 -2,-13 3,1 3,-2 4,10 5,-1 v -3 h -2 v -5 l 4,-3 -2,-8 6,-2 -2,-18 -3,-4 1,-9 3,-6 -2,-5 1,-3 -3,-3 v -9 l -4,-19 3,-3 -8,-9 1,-5 -9,-10 1,-8 h 3 l 2,4 h 2 l 4,-6 -15,-15 v -2 l -6,-8 -1,-3 2,-1 v -4 l -4,-6 h -2 v -3 l -4,-5 1,-1 -2,-5 -12,-7 h -6 v -2 h -14 l -2,-3 h -2 l -1,2 h -2 v 2 h 2 l -2,4 2,1 2,5 -3,3 -1,-2 -2,1 -1,2 v 6 l 2,1 v 2 l -3,1 -1,-2 v 2 l -3,2 -9,-2 v 3 l -5,1 1,1 -4,-3 h -3 l 1,4 3,3 -2,4 3,4 v 2 l -3,2 -3,-3 h -8 l -3,-2 -4,-9 h -5 l -4,8 3,2 -1,1 2,2 -2,4 -3,1 v -5 h -2 l -6,-7 h -3 l -4,7 -4,-4 h -11 l -6,-9 2,-4 h 2 v -8 l -3,-2 -2,2 -2,-1 -3,-6 1,-2 -7,4 v -4 h 4 l 3,-2 -2,-2 h -12 l -7,-7 z"
     id="西藏自治区" />
  <path
     class="leaflet-interactive"
     stroke="#333333"
     stroke-opacity="1"
     stroke-width="1"
     stroke-linecap="round"
     stroke-linejoin="round"
     stroke-dasharray="1, 6"
     fill="#eeeeee"
     fill-opacity="0.5"
     fill-rule="evenodd"
     d="m 726,542 4,4 8,-2 4,-4 3,1 10,-3 3,-3 4,-1 3,-4 8,2 7,-4 h 4 l 1,3 h 4 l 4,-3 h 8 l 6,3 2,-2 h 3 l 7,-4 v -10 l -4,2 -3,-4 -3,-1 v -4 l 2,1 5,-3 2,1 5,-7 3,1 3,-7 -15,-2 -2,-3 -3,5 -9,2 -1,-3 -3,-3 -1,1 -1,-7 -1,-2 -1,1 1,-3 4,-1 -8,-9 v -3 l -7,4 h -4 v -2 l -3,-1 -4,-17 -3,-1 -4,2 -2,-2 -2,2 3,3 -3,1 1,1 -2,2 -4,-3 -2,-4 h -9 l -7,23 3,6 -8,5 -2,-1 -3,6 h -6 l -1,5 -8,13 -6,-2 -3,1 v 8 l 2,3 -4,3 1,2 -2,6 h 2 l -2,6 6,4 16,1 z"
     id="540100" />
  <path
     class="leaflet-interactive"
     stroke="#333333"
     stroke-opacity="1"
     stroke-width="1"
     stroke-linecap="round"
     stroke-linejoin="round"
     stroke-dasharray="1, 6"
     fill="#eeeeee"
     fill-opacity="0.5"
     fill-rule="evenodd"
     d="m 705,507 v -3 l -3,-1 v -6 h -5 l -1,-2 -9,-3 -6,2 -2,-3 h -5 v -2 l -12,6 -14,-1 -5,9 -3,-2 1,-5 -4,-4 -8,2 -3,-3 h -2 l -1,-5 -2,1 -11,-2 -2,3 -9,-3 -1,1 v -6 l -2,-1 v -2 h -14 l -1,-9 -3,-4 v -8 l -4,7 -6,4 -1,-1 4,-5 1,-4 -7,1 -4,4 4,7 -2,1 1,1 h 4 l -1,-4 h 2 v 4 l -2,3 2,1 1,-2 1,5 -1,1 -3,-3 -2,2 -4,-1 -2,1 2,4 h -8 l 1,2 h 2 l -2,1 -1,-3 -4,-1 -2,-3 v -8 l -5,-15 -5,-2 -3,2 -1,3 h -2 l 1,2 -4,6 -2,1 v -2 l -4,1 -2,-2 -1,3 2,3 h -5 l -1,2 2,2 h 5 l 1,11 2,3 -3,-1 v 2 l -3,3 -2,-1 4,7 v 2 l -3,-2 v 7 l -5,2 1,4 -7,1 v 2 l 3,1 -1,2 h -2 v -2 l -4,-2 -3,3 v 5 l -9,1 -15,-14 -6,-2 1,-9 -2,-2 v -3 l -4,-2 -2,-6 h -4 l -2,-3 2,-2 -1,-1 2,-1 v -2 l -2,-1 6,-11 6,-5 h 2 l -1,-3 -3,-2 1,-1 -4,-3 1,-2 -2,-4 v -5 l -4,-1 -1,-2 -5,1 -8,-3 v -2 l 10,-5 4,1 7,-9 -3,-2 h -5 l -2,-5 -2,-1 -2,1 2,8 -4,1 -1,-2 -3,-1 -5,3 -3,-1 -5,3 h -18 l -7,-1 -1,-4 -3,-3 -2,2 1,1 -3,1 v -2 h -3 l -1,2 -5,2 1,-1 -3,-1 -2,1 3,3 -4,1 -3,-2 v 3 l 5,3 2,12 -1,5 -1,-1 -6,2 -1,7 5,5 2,-1 4,7 6,1 1,4 -2,6 -3,5 -6,-2 v -5 l -4,-3 -2,-4 -5,-1 -3,4 1,6 -2,4 2,6 -3,3 -6,-4 v 2 l -2,1 v -2 h -7 l 1,2 -2,5 -5,4 3,1 -1,5 17,7 4,5 -1,1 h 4 l 1,1 -2,3 6,2 1,2 5,-1 1,3 2,-1 3,3 2,-1 7,3 v 4 h 2 l 5,5 1,5 7,7 h 2 l 4,-4 h 3 l 1,-3 1,1 6,-2 2,2 h 4 v 2 h 4 l -1,6 1,5 h 2 l -1,7 9,3 -1,1 h 2 l 2,5 3,-1 5,2 2,4 7,3 h 5 l 4,-5 h 4 l 2,2 v 5 l -4,4 1,6 h 4 l 3,3 3,-1 2,2 1,-2 5,-1 4,1 v 3 l 4,-7 4,10 h 3 l 2,7 4,3 -1,3 4,2 4,-2 -2,-8 h 2 l 3,-4 1,9 4,1 5,4 5,-3 -1,-2 3,-6 2,2 4,-2 3,2 -1,1 2,2 6,1 1,2 h 4 l 6,7 h 9 l 3,-2 -1,1 2,1 5,-2 2,2 2,-1 1,2 h 3 l 4,-7 7,3 3,-1 3,2 v -3 l 2,-2 2,1 2,-2 1,2 4,-3 2,1 6,-3 2,-3 1,1 2,-2 2,2 h 4 l 5,9 v 8 l -4,9 v 5 l 8,13 5,-1 v -2 l 5,-5 -4,-5 v -4 l 3,-1 -2,-2 3,-3 2,-7 6,-4 11,-15 h 6 l 4,-4 4,3 5,1 v 2 l 7,-3 1,1 v -4 l 2,-3 -5,-4 -1,1 -1,-2 2,-9 -2,-4 6,-8 -2,-8 3,-5 -1,-3 6,-10 -7,-2 h -12 l -7,-4 v -3 l 2,-2 -3,-4 2,-1 v -4 l 4,-3 -2,-3 1,-9 z m -188,-52 3,9 h 3 l 1,-1 -2,-3 h 3 l 1,-2 -8,-3 z"
     id="540200" />
  <path
     class="leaflet-interactive"
     stroke="#333333"
     stroke-opacity="1"
     stroke-width="1"
     stroke-linecap="round"
     stroke-linejoin="round"
     stroke-dasharray="1, 6"
     fill="#eeeeee"
     fill-opacity="0.5"
     fill-rule="evenodd"
     d="m 1105,587 v -2 l -3,-2 1,-2 -2,-6 4,-3 -2,-13 3,1 3,-2 4,10 5,-1 v -3 h -2 v -5 l 4,-3 -2,-8 6,-2 -2,-18 -3,-4 1,-9 3,-6 -2,-5 1,-3 -3,-3 v -9 l -4,-19 3,-3 -8,-9 1,-5 -9,-10 1,-8 h 3 l 2,4 h 2 l 4,-6 -15,-15 v -2 l -6,-8 -1,-3 2,-1 v -4 l -4,-6 h -2 v -3 l -4,-5 1,-1 -2,-5 -12,-7 h -6 v -2 h -14 l -2,-3 h -2 l -1,2 h -2 v 2 h 2 l -2,4 2,1 2,5 -3,3 -1,-2 -2,1 -1,2 v 6 l 2,1 v 2 l -3,1 -1,-2 v 2 l -3,2 -9,-2 v 3 l -5,1 1,1 -4,-3 h -3 l 1,4 3,3 -2,4 3,4 v 2 l -3,2 -3,-3 h -8 l -3,-2 -4,-9 h -5 l -4,8 3,2 -1,1 2,2 -2,4 -3,1 v -5 h -2 l -6,-7 h -3 l -4,7 -4,-4 h -11 l -6,-9 2,-4 h 2 v -8 l -3,-2 -2,2 -2,-1 -3,-6 1,-2 -7,4 -1,-2 1,-2 6,-1 1,-1 -2,-2 h -12 l -7,-7 -6,4 4,6 v 4 l -4,3 -1,6 2,3 -1,11 5,3 v 3 l -4,3 v 2 l 2,-1 2,2 v 3 l 6,1 1,3 -2,4 5,4 1,6 2,2 -13,6 -2,-2 v -7 l 2,-5 -1,-1 -6,2 -2,-3 2,-2 -1,-1 -11,7 -2,-1 -4,12 2,1 v 3 l 4,5 -1,4 -15,-2 -4,2 -1,-2 -9,-3 -4,4 4,1 1,2 -2,2 5,4 v 2 l 9,3 8,6 8,-6 2,1 v 2 h 11 l -1,-2 4,-2 5,2 2,-2 12,3 v -4 l 2,-1 3,2 3,-2 4,6 5,-3 9,2 2,2 -1,2 6,7 3,1 -1,1 3,4 5,-1 3,1 v 2 h 4 l 1,-4 3,-2 6,-1 3,4 4,-2 3,3 v 4 l -2,1 3,1 -1,5 -3,3 -4,9 1,4 3,2 v 2 h 2 l 2,4 -1,4 h -2 l 5,4 -1,2 -3,-1 -3,2 6,5 2,5 3,-1 5,4 2,-5 h 2 v -6 l -2,-2 2,-1 1,-6 2,1 1,-3 4,5 6,-1 v 2 l 3,3 v 3 l 2,1 v 11 h 4 l 3,-2 -2,-1 1,-3 2,1 2,-2 -3,-4 8,3 6,7 4,-2 4,3 1,3 1,-1 v 4 l 4,5 3,-3 6,8 h 4 l 2,9 2,4 4,3 z"
     id="540300" />
  <path
     class="leaflet-interactive"
     stroke="#333333"
     stroke-opacity="1"
     stroke-width="1"
     stroke-linecap="round"
     stroke-linejoin="round"
     stroke-dasharray="1, 6"
     fill="#eeeeee"
     fill-opacity="0.5"
     fill-rule="evenodd"
     d="m 899,480 -2,2 v 3 l -3,1 -1,4 -6,-2 -6,3 h -7 l -8,-3 v -3 l -3,-4 -4,-2 -6,5 -5,-5 v -4 l -7,-1 v 4 h -4 v 6 l -2,5 -2,-1 v 2 h -4 v 6 l -3,5 -3,-1 -3,3 v 2 l -8,4 -2,-1 -1,4 3,1 2,4 3,-2 7,2 1,4 -3,6 1,2 5,-6 h 11 l 2,-3 5,4 5,9 v 8 h -2 l -5,9 -7,5 -1,5 -4,4 v 2 h -10 l -1,4 2,3 3,-5 14,6 3,-4 2,2 17,-1 1,2 h 5 v 2 l 8,1 5,-2 6,6 v 9 l 2,2 5,1 5,6 v 8 l 2,4 4,2 2,3 -1,8 3,1 -7,6 2,3 1,-2 h 7 l 10,-3 13,-8 16,-7 3,-5 v -4 l 3,-3 16,-5 2,-2 4,1 v 2 l 5,3 12,-2 1,4 3,2 2,-3 2,1 2,4 h 2 l 6,6 5,1 2,3 h 5 l 3,2 v 2 h 2 v 3 h 2 v -2 l 7,-6 3,-1 v 2 h 2 l 2,-7 -1,-3 -3,1 2,-10 h 2 l 1,-3 2,2 v -2 l 2,-1 v -8 l 3,-3 h 4 l 6,11 5,-2 4,4 v 4 h 3 l 3,3 3,-4 1,1 2,-2 -2,-6 1,1 2,-3 3,5 2,10 9,-4 2,1 4,-3 v -8 l -8,-7 -5,-14 -3,1 -6,-8 -2,3 h -2 l -3,-5 v -4 l -1,1 -4,-6 -5,2 -6,-7 -6,-3 h -2 v 2 l 3,2 -2,2 -1,-1 -2,3 2,1 -3,2 h -4 v -11 h -2 l -3,-9 -5,1 -5,-5 -1,3 h -3 v 4 l -2,2 2,2 v 6 l -3,1 v 4 l -6,-4 -3,1 -2,-5 -6,-5 3,-2 h 4 l -5,-5 h 2 l 1,-4 -8,-11 8,-17 -1,-2 h -2 l 2,-1 v -4 l -3,-2 -2,-1 -2,2 -3,-4 -9,3 -1,4 h -3 l -3,-3 -6,1 -3,-3 1,-2 -3,-1 -6,-7 v -4 l -12,-2 -3,3 -2,-2 1,-2 -3,-2 -3,2 -5,-2 v 4 l -4,1 -8,-3 -2,2 -5,-2 -4,2 1,2 h -5 l -2,-2 v 2 h -4 v -2 l -2,-1 -7,5 z"
     id="540400" />
  <path
     class="leaflet-interactive"
     stroke="#333333"
     stroke-opacity="1"
     stroke-width="1"
     stroke-linecap="round"
     stroke-linejoin="round"
     stroke-dasharray="1, 6"
     fill="#eeeeee"
     fill-opacity="0.5"
     fill-rule="evenodd"
     d="m 726,542 -6,10 1,2 -3,6 2,7 -2,6 -3,1 -2,4 3,2 v 4 l -2,1 1,6 1,-1 v 2 h 4 l 1,2 -2,3 v 4 l 4,1 4,3 v 2 h 9 l 1,2 1,-2 4,-1 4,2 2,3 4,2 2,-1 v 3 l 5,3 h 2 l 4,-8 2,1 4,-4 6,3 1,3 6,3 -4,3 h 4 l 1,3 -1,4 -3,3 v 3 l 7,5 8,-1 5,1 2,2 4,8 h -2 l -1,4 -2,1 v 5 l 5,6 -1,5 25,-5 5,3 6,-1 10,2 20,-3 12,-4 1,-8 19,-19 -2,-2 1,-2 6,-5 -3,-1 2,-5 -1,-3 -3,-4 -3,-1 -2,-4 v -8 l -6,-7 h -4 l -2,-2 v -9 h -2 l -4,-6 -5,2 -8,-1 v -2 h -5 l -1,-2 -17,1 -1,-2 -3,1 -1,3 -4,-3 -9,-3 -4,5 -2,-3 1,-4 2,-1 7,2 5,-7 1,-5 7,-5 4,-8 4,-3 -2,-8 -4,-7 -5,-4 -2,3 -4,1 -2,-2 -4,2 -1,-1 -4,6 -2,-2 3,-6 -1,-4 -5,-2 v 10 l -12,6 -9,-3 h -4 l -5,3 h -4 l -1,-3 h -4 l -6,4 -9,-2 -3,4 -11,6 h -9 l -4,4 -8,2 -3,-3 z"
     id="540500" />
  <path
     class="leaflet-interactive"
     stroke="#333333"
     stroke-opacity="1"
     stroke-width="1"
     stroke-linecap="round"
     stroke-linejoin="round"
     stroke-dasharray="1, 6"
     fill="#eeeeee"
     fill-opacity="0.5"
     fill-rule="evenodd"
     d="m 927,371 -2,-4 h -2 l -3,-4 -1,3 -5,1 -1,2 -3,-2 -1,4 -8,1 v 2 l -3,2 -4,-2 -3,1 -1,-2 -2,2 -9,-7 -9,6 -3,-5 h -2 l -1,2 -4,-5 h -2 l -3,-3 -1,2 -4,1 -3,-6 -10,1 -5,-3 -2,3 -2,-2 -3,1 -3,-2 h -5 l -1,2 -1,-1 -2,2 -3,-2 v -3 l 2,-2 -6,-2 -7,3 -5,-7 -7,-2 -7,-6 -5,2 -8,-4 -3,2 -1,-1 -1,2 -3,-2 h -8 v 2 l -1,-2 -8,-1 -8,-6 -9,-3 -4,-7 -6,-2 -1,-3 -5,-3 1,-6 -4,-4 1,-2 -4,-4 h -2 l -8,-10 3,-4 6,-2 v -7 l 2,-2 -3,-4 v -13 l -3,-1 -1,-3 7,-6 -4,-6 -9,2 v -12 l -6,-7 4,-3 -2,-1 v -3 l 8,-4 1,1 2,-4 v -2 l -1,1 -1,-2 1,-3 h 2 l -1,-7 3,-8 h -10 l -7,-4 -1,-7 3,2 6,-1 4,-3 -8,-3 -8,-6 -2,1 -3,-4 -1,2 -4,1 -3,-3 -4,-1 -2,-3 -6,2 v 2 l -8,-5 -1,-4 -4,1 -6,-3 v 2 l -6,-1 -1,2 -2,-1 -2,2 -6,-1 -4,3 -16,2 h -4 l -2,-4 h -2 l -4,4 h -5 l -2,3 -7,-1 -3,3 -3,-2 h -4 l -3,3 -9,2 -2,-1 -12,5 v 5 l -6,11 3,5 5,2 2,3 1,8 -3,3 2,5 -2,1 v 2 l -3,1 3,9 -6,13 h 2 l -2,6 -3,3 v 6 l -5,7 8,4 3,4 -2,4 v 5 l 3,5 v 5 l 2,2 -1,2 2,4 -2,8 -2,2 4,6 v 6 l 3,4 -3,1 -1,4 -10,6 v 2 l 2,1 h 5 l -3,5 1,1 -3,3 1,2 -2,2 3,3 -2,3 -8,6 h -6 l -12,6 -4,-1 -8,8 1,1 -2,1 1,2 -2,5 -6,10 4,6 v 18 l 2,-1 4,2 3,4 3,-2 2,1 v 2 l 5,3 -1,2 2,1 1,4 12,4 2,2 7,2 3,-1 v 2 h 2 l 1,10 4,2 2,3 v 6 l 4,5 v 9 l 2,3 3,-1 2,5 2,-1 h -2 l -1,-2 h 8 l -2,-4 1,-1 5,1 2,-2 3,3 1,-1 -1,-4 -3,1 2,-8 h -2 v 4 l -4,-1 2,-1 -1,-4 -3,-3 4,-4 7,-1 -1,4 -4,5 1,1 6,-4 1,-5 2,-2 2,1 -1,7 3,4 v 7 l 9,3 1,-2 4,1 3,3 v 6 l 1,-1 8,3 3,-3 11,2 1,-1 2,5 h 2 l 2,3 9,-2 4,4 -1,5 3,2 5,-8 h 14 l 3,-3 h 4 l 5,-3 v 2 h 4 l 3,3 h 2 v -2 h 4 l 7,3 2,-1 1,3 h 5 v 6 h 2 l 2,4 6,2 8,-13 v -4 l 3,-2 4,1 3,-6 2,1 7,-5 -2,-6 7,-23 h 9 l 6,7 2,-2 -1,-1 3,-1 -3,-3 2,-2 2,2 7,-1 4,17 3,1 v 2 h 4 l 7,-4 1,4 7,8 -4,1 -1,3 h 2 v 6 l 1,2 h 3 l 1,5 6,-2 2,1 5,-6 2,3 15,2 v -4 h 4 v -2 l 2,1 2,-5 v -6 h 4 v -4 l 7,1 v 3 l 4,4 v 2 l 6,-3 1,-2 4,2 3,3 v 4 l 4,2 11,1 4,-1 1,-2 6,2 1,-4 4,-1 2,-5 -8,-6 -9,-3 v -2 l -3,-3 h -2 l 2,-3 -1,-2 -4,-1 4,-4 10,5 h 18 l 2,-4 -4,-5 v -3 l -2,-1 1,-5 3,-6 h 2 l 3,-3 h 3 l 4,-4 2,1 -2,2 2,3 6,-2 1,1 -2,5 v 7 l 2,2 13,-6 -2,-2 -2,-7 -4,-2 v -3 l 2,-2 -1,-3 -5,-1 -3,-5 -2,1 v -2 l 4,-3 v -3 l -5,-2 1,-11 -2,-4 1,-6 4,-3 1,-4 -4,-4 v -2 l 3,-3 z m -393,84 -1,-5 -2,-1 h -9 l -1,2 -3,1 -1,3 9,3 -1,2 h -3 l 2,3 -4,1 2,2 4,-1 v 2 l 3,-2 v -3 h 2 v -4 h 2 z"
     id="540600" />
  <path
     class="leaflet-interactive"
     stroke="#333333"
     stroke-opacity="1"
     stroke-width="1"
     stroke-linecap="round"
     stroke-linejoin="round"
     stroke-dasharray="1, 6"
     fill="#eeeeee"
     fill-opacity="0.5"
     fill-rule="evenodd"
     d="m 531,188 -4,4 h -8 l -5,2 -6,6 -2,-2 -7,-2 -4,-4 -10,2 -13,7 -15,4 1,4 -6,4 -6,1 -1,2 -6,-4 -6,1 -2,3 -8,-1 -2,2 h -5 v -2 l -2,1 -2,-2 -10,-2 -1,2 -4,-1 -2,-1 v -2 l -4,-1 v -7 l -2,-2 1,-2 -8,-1 -3,3 -8,-4 h -6 l -3,3 -2,6 -11,6 -1,-1 v 6 l -2,3 -1,-1 -2,3 h -9 l -2,2 h -8 l -3,-5 -4,-2 h -4 v 2 h -3 l -1,-3 -5,-2 -2,1 v 3 l -6,1 -3,-2 -7,1 -1,-3 h -7 l -4,-3 -2,3 -3,1 -2,4 4,5 h -4 l -3,5 -4,3 h -3 v 9 l -2,1 v 2 h -3 l -2,7 1,2 -2,1 1,1 -2,4 1,3 -3,3 h -12 l -13,3 -9,-1 -2,2 2,3 -2,2 -1,-1 -4,10 h -5 l -2,3 h -4 v 2 l 4,4 -1,3 2,1 v 10 l -4,3 1,3 h 2 l 4,11 h 3 l 6,6 3,6 3,1 v 9 l 4,4 -1,8 h 2 l 1,4 v 6 l -2,5 -1,-1 -5,4 -1,5 -4,-1 -2,3 -9,-8 -1,-12 -15,7 -1,2 5,11 -2,5 -2,1 2,5 2,-1 5,5 -1,1 8,5 -5,4 4,10 h 2 l 2,3 v 2 l -5,4 3,4 -2,2 1,4 4,1 3,3 3,4 -1,3 6,6 5,-1 1,4 3,-1 1,-3 4,-3 1,3 3,-1 5,6 3,-3 4,2 3,4 4,2 -1,1 3,2 v 4 l 8,7 4,-1 4,1 1,2 h 4 l 1,2 h 3 l 2,2 4,-1 8,8 10,4 4,12 h 5 l 3,-4 v -2 l -2,-1 h 3 l 5,-8 -1,-6 7,2 v -3 l 2,1 1,-2 17,7 4,-2 2,3 v 5 l 5,-4 2,-5 -1,-2 h 7 v 3 l 2,-1 v -3 l 6,4 2,-1 v -20 l 6,-2 2,1 1,4 5,2 -1,4 6,4 6,-11 -2,-5 h -5 l -4,-7 h -4 l -3,-4 1,-7 5,-2 2,1 1,-5 -2,-8 1,-4 -3,-1 -4,-4 1,-1 3,2 4,-1 -3,-2 2,-2 4,2 4,-4 6,2 -1,-2 2,-2 3,3 1,4 7,1 h 18 l 4,-3 6,1 1,-3 h 5 l 1,3 h 4 l -2,-7 1,-3 3,1 2,5 h 5 l 3,2 -2,1 -4,8 -5,-1 -10,5 v 2 l 7,3 6,-1 1,2 4,1 1,11 4,2 -1,2 4,4 -6,4 -4,5 -1,6 -3,1 2,4 -2,1 1,1 -2,2 3,3 h 3 l 4,8 h 2 v 3 l 2,2 -1,9 6,1 4,6 10,7 v 2 l 10,-1 v -5 l 3,-3 1,2 h 3 v 2 h 2 l 1,-1 -3,-2 v -2 l 7,-1 v -5 l 4,-1 v -7 l 3,2 -1,-6 -3,-2 h 2 l 3,-3 v -2 l 3,1 -2,-3 -1,-11 h -5 l -2,-2 1,-2 h 5 l -2,-2 1,-6 -3,-7 1,-3 3,-3 h 9 l 3,1 1,5 3,-2 v -4 l -3,-8 h -8 l -16,-7 -1,-4 -2,-1 1,-2 -3,-1 -2,-4 -2,-1 -2,2 -7,-6 -3,1 v -18 l -4,-5 6,-11 3,-11 4,-1 3,-5 4,1 12,-6 h 6 l 4,-4 4,-1 2,-4 -3,-3 2,-2 -1,-2 3,-2 -1,-2 3,-4 -3,-2 -4,1 v -3 l 9,-6 4,-5 -2,-4 v -6 l -4,-6 4,-7 -2,-7 1,-2 -2,-2 v -5 l -3,-5 v -5 l 2,-3 -3,-5 -8,-4 2,-4 3,-2 v -7 l 3,-3 2,-6 h -2 l 6,-13 -3,-9 3,-1 v -2 h 2 l -2,-5 3,-4 -1,-8 -10,-9 z"
     id="542500" />
</svg>
