<?xml version="1.0" encoding="UTF-8" standalone="no"?>
<svg
   pointer-events="none"
   class="leaflet-zoom-animated"
   width="1135"
   height="626"
   viewBox="-95 -52 1135 626"
   style="transform: translate3d(-95px, -52px, 0px);"
   version="1.1"
   id="svg1"
   sodipodi:docname="贵州省.svg"
   inkscape:version="1.4 (86a8ad7, 2024-10-11)"
   xmlns:inkscape="http://www.inkscape.org/namespaces/inkscape"
   xmlns:sodipodi="http://sodipodi.sourceforge.net/DTD/sodipodi-0.dtd"
   xmlns="http://www.w3.org/2000/svg"
   xmlns:svg="http://www.w3.org/2000/svg">
  <defs
     id="defs1" />
  <sodipodi:namedview
     id="namedview1"
     pagecolor="#ffffff"
     bordercolor="#000000"
     borderopacity="0.25"
     inkscape:showpageshadow="2"
     inkscape:pageopacity="0.0"
     inkscape:pagecheckerboard="0"
     inkscape:deskcolor="#d1d1d1"
     inkscape:zoom="1.2412141"
     inkscape:cx="504.74775"
     inkscape:cy="406.45689"
     inkscape:window-width="1920"
     inkscape:window-height="991"
     inkscape:window-x="-9"
     inkscape:window-y="1341"
     inkscape:window-maximized="1"
     inkscape:current-layer="svg1" />
  <path
     class="leaflet-interactive"
     stroke="#000000"
     stroke-opacity="1"
     stroke-width="2"
     stroke-linecap="round"
     stroke-linejoin="round"
     fill="#ffffff"
     fill-opacity="0.2"
     fill-rule="evenodd"
     d="m 670,299 3,-4 -1,-3 9,-6 v -3 l 1,1 3,-3 v -3 l 2,-1 h -2 l 2,-2 1,2 3,-2 5,2 2,-5 6,-5 h 3 l 1,-9 -4,-3 h -3 l 1,-1 -3,-4 1,-4 -2,-2 -1,-6 1,-3 4,-3 -2,-2 -3,3 v -4 l 3,-5 -1,-1 2,-6 2,-2 h -2 l -1,-2 -2,2 -3,-3 1,-5 -2,-4 2,-4 -6,1 -3,8 1,1 -5,7 v 5 l -4,-2 -1,4 -5,-2 v -2 l -6,1 -2,-3 -2,4 -3,-7 3,-2 -1,-1 2,-4 h -2 l 2,-3 -3,-2 1,-1 -3,-3 v 2 l -4,1 3,3 v 2 l -2,1 1,3 -4,1 -3,-3 3,-3 -3,-9 3,-1 -1,-3 2,-3 -4,-2 -6,2 -9,-5 3,-8 -2,-1 v -8 l -3,-5 -1,-7 -3,4 -3,-3 -3,2 -5,-3 -3,4 h -5 l -4,2 -1,3 h -2 l -3,-9 1,-4 -3,-2 v -2 l -4,4 h -2 l -3,-2 -1,1 -3,-5 -5,4 -3,-3 -2,2 1,6 -3,2 1,3 -2,2 3,1 2,4 -3,7 h -4 v 3 l -7,2 1,-4 -3,-4 -7,1 -1,-2 -1,3 v -2 h -2 v 2 h -2 v 6 l -2,1 -2,-4 -1,2 -1,-1 -1,2 -3,1 3,6 -1,4 h -2 l -1,3 -2,-3 -1,1 -1,2 2,1 -3,1 -1,2 2,3 v 2 l -2,1 -2,-1 v -2 l -3,1 -3,-3 v 2 h -2 v -2 l 3,-2 v -4 l 2,-2 -1,-1 2,-1 -3,-1 1,-2 -1,1 -3,-3 -1,-4 h -2 l -3,-4 -1,5 5,6 -3,6 2,2 -3,-2 2,4 -1,1 -6,-3 -1,7 -4,-1 -1,-3 -6,-3 -3,-5 h -4 l -2,-4 h -2 v -2 l -4,-2 -1,3 h -2 l 1,2 -3,1 1,4 h -8 l -2,2 -1,-2 -1,2 -2,-1 -1,5 -4,1 v 6 h 2 l -1,8 6,4 2,-3 h 2 v -2 l 7,8 -2,2 v 4 l 2,2 3,-2 2,3 h 4 l -1,-2 5,-2 5,1 6,6 -2,3 6,4 -2,5 h 2 l 1,3 -2,1 2,2 -10,5 -3,-2 h -5 l -9,4 v -2 l -4,1 -1,2 h -8 v 2 h -4 l -1,2 -8,-8 h -8 l -4,2 -2,3 v 6 l -5,5 h 2 v 2 l -2,2 1,1 -3,7 -1,1 v -2 l -3,-2 -6,2 -1,-1 -9,8 -2,-1 -1,-3 -4,2 -2,-2 -9,3 -4,-2 -3,-5 -9,-5 -2,2 v 3 l -5,5 1,2 -6,3 -3,-3 v -2 h -3 l -4,-3 v -4 h -5 l -5,11 -4,1 -5,8 -6,3 2,4 h -3 v 4 l 6,-3 5,8 v 4 l -5,4 v 2 l 1,4 h 3 l -1,8 4,7 17,1 -1,-3 4,-6 7,2 h 8 l 3,-7 4,5 -1,2 2,3 h 6 v 4 l 3,1 1,4 2,1 1,4 -2,4 h -4 l -3,5 -2,12 -4,1 1,5 -3,6 1,7 -5,7 v -2 l -2,-1 -1,10 8,4 -1,5 2,2 v -2 l 7,-2 -1,8 7,5 -1,4 4,-1 2,3 h 6 v 6 l -1,1 -4,-4 -5,11 h -3 l 4,1 2,4 -8,8 -4,10 5,3 1,3 h 5 v 2 l 2,1 2,-3 5,-1 4,-6 7,-2 4,-10 8,-5 4,3 v 2 l 11,-1 4,9 2,1 4,-1 4,3 2,-1 8,6 4,-2 h 5 v 2 l 5,4 4,-5 4,-2 v -2 l 2,1 2,-8 -4,-6 1,-1 1,1 3,-2 h 6 l 13,-5 1,-2 h 3 l 6,-7 h 14 l 1,-5 6,1 -1,-2 2,-1 v -5 l -2,-1 -1,-5 3,-4 4,-2 -1,-2 2,-2 h 4 l 4,-3 1,4 6,5 -1,6 5,-1 3,9 2,-1 2,2 -2,3 1,2 7,-4 1,1 -1,-1 3,-4 2,1 -1,1 3,7 3,-4 1,1 2,6 -2,2 h 5 l 7,-4 11,-2 2,-5 v -8 l 3,-1 -2,-2 2,-2 4,2 -1,-1 4,-4 v -2 l 3,-1 5,7 4,-1 1,3 4,2 3,6 1,-5 -3,-3 2,-5 1,2 -2,-2 4,-3 2,1 v -2 l -2,-1 2,-5 4,-1 4,8 1,-2 h 8 l 3,3 3,-1 2,-2 -2,-1 -1,-5 3,-6 -5,-1 -4,4 h -3 v -2 l 8,-6 4,1 2,-2 2,1 v 4 l 3,-2 -2,-2 1,-1 2,4 5,3 4,-2 v -7 l 6,-7 -1,-2 4,-5 -2,-2 v -3 l 4,-1 -1,-3 h -2 l -2,-6 2,-4 -1,-1 -6,3 -6,-3 3,-8 4,-3 v -4 l 2,-1 -3,-9 -2,1 -3,-3 7,-2 -1,-1 2,1 2,-3 h 3 l -3,-9 1,-2 4,-2 1,1 1,-7 -2,-4 h -4 2 l -2,-2 1,-1 h -2 l -2,-3 -7,2 h -2 l -1,-2 -6,7 -4,-1 2,-3 -1,-1 -10,5 -2,4 v -2 l -3,2 -6,-6 7,-2 z m -244,158 1,-1 z m 282,-137 2,6 1,-9 -3,-2 -1,1 2,3 z m 7,5 -3,1 3,1 z"
     id="贵州省" />
  <path
     class="leaflet-interactive"
     stroke="#333333"
     stroke-opacity="1"
     stroke-width="1"
     stroke-linecap="round"
     stroke-linejoin="round"
     stroke-dasharray="1, 6"
     fill="#eeeeee"
     fill-opacity="0.5"
     fill-rule="evenodd"
     d="m 562,282 -7,2 -5,-2 -8,6 -3,-4 h -2 l -4,8 -1,-5 -2,-2 h -5 v 2 l -10,6 -5,5 3,9 -4,2 -1,6 h -4 l -2,3 -2,-1 v -2 l -7,4 1,4 2,1 v 6 l -3,1 v 2 l 4,4 -1,1 4,3 2,-2 2,1 2,2 -1,2 h 2 l -1,3 4,1 3,-2 4,6 h 4 v 3 l -5,5 2,2 -1,1 h 6 l 5,-5 6,3 1,-1 3,6 h 2 l 2,-3 -2,-1 1,-4 -6,-1 3,-3 v -2 l -5,-1 5,-4 v -8 l 6,-3 -3,-2 1,-1 h 5 l -1,-3 2,-5 9,-5 8,2 2,-5 -3,-9 -4,-4 1,-7 5,-3 -2,-4 -6,-1 4,-6 z"
     id="520100" />
  <path
     class="leaflet-interactive"
     stroke="#333333"
     stroke-opacity="1"
     stroke-width="1"
     stroke-linecap="round"
     stroke-linejoin="round"
     stroke-dasharray="1, 6"
     fill="#eeeeee"
     fill-opacity="0.5"
     fill-rule="evenodd"
     d="m 405,324 -1,9 -4,3 1,3 -3,3 -5,-2 v 2 l 3,1 1,4 2,1 1,4 -2,4 h -4 l -3,5 -2,9 1,1 -2,3 h -3 l 1,5 -3,6 1,7 -5,7 v -2 l -2,-1 -1,6 v 4 l 8,4 -1,5 2,2 v -2 l 7,-2 -1,8 5,4 3,-1 1,3 h 6 l 5,-3 1,2 1,-1 -2,-2 v -4 l 4,-7 -4,-5 3,-3 -2,-11 5,-6 -1,-5 2,-6 3,-3 -1,-2 4,-4 h 8 v 7 l 4,6 2,-2 h 11 l 7,-4 2,1 2,-5 -1,-2 4,2 2,-3 h 2 l -4,-3 -9,-1 -3,-2 1,-6 3,-2 -2,-4 -11,-5 1,-1 -2,-2 h -7 l -1,-4 -3,1 -4,-5 v -9 h -2 l 1,-1 -5,-3 v -2 l 2,-1 -1,-4 -3,1 -2,5 -2,1 -4,-4 -5,7 z m -4,-2 v -3 l -4,-2 -3,9 4,1 2,-4 z"
     id="520200" />
  <path
     class="leaflet-interactive"
     stroke="#333333"
     stroke-opacity="1"
     stroke-width="1"
     stroke-linecap="round"
     stroke-linejoin="round"
     stroke-dasharray="1, 6"
     fill="#eeeeee"
     fill-opacity="0.5"
     fill-rule="evenodd"
     d="m 618,155 -3,4 h -5 l -4,2 -1,3 h -2 l -3,-9 1,-4 -3,-2 v -2 l -4,4 h -2 l -3,-2 -1,1 -3,-5 -5,4 -3,-3 -2,2 1,6 -3,2 1,3 -2,2 3,1 2,4 -3,7 h -4 v 3 l -7,2 1,-4 -3,-4 -7,1 -1,-2 -1,3 v -2 h -2 v 2 h -2 v 6 l -2,1 -2,-4 -1,2 -1,-1 -1,2 -3,1 3,6 -1,4 h -2 l -1,3 -2,-3 -1,1 -1,2 2,1 -3,1 -1,2 2,3 v 2 l -2,1 -2,-1 v -2 l -3,1 -3,-3 v 2 h -2 v -2 l 3,-2 v -4 l 2,-2 -1,-1 2,-1 -3,-1 1,-2 -1,1 -3,-3 -1,-4 h -2 l -3,-4 -1,5 5,6 -3,6 2,2 -3,-2 2,4 -1,1 -6,-3 -1,7 -4,-1 -1,-3 -6,-3 -3,-5 h -4 l -2,-4 h -2 v -2 l -4,-2 -1,3 h -2 l 1,2 -3,1 1,4 h -8 l -2,2 -1,-2 -1,2 -2,-1 -1,5 -4,1 v 6 h 2 l -1,8 6,4 2,-3 h 2 v -2 l 7,8 -2,2 v 4 l 2,2 3,-2 2,3 h 4 l -1,-2 5,-2 5,1 6,6 -2,3 6,4 -2,5 h 2 l 1,3 -2,1 2,2 -10,5 -3,-2 h -5 l -3,2 -1,5 7,2 -1,2 5,5 h 4 v -2 l 3,-2 2,1 1,9 7,-3 5,3 1,-3 1,1 4,-2 7,8 v 3 l -2,1 4,11 4,-8 h 2 l 2,4 h 2 l 6,-6 6,2 7,-2 5,-9 8,4 -2,4 h 2 l 1,2 1,-3 h 4 l -2,9 3,4 v -3 l 2,2 v -3 l 6,-1 2,2 7,2 -1,1 2,1 3,-1 -1,2 h 2 l 1,2 1,-3 1,1 9,-5 -3,-5 -3,-1 v -2 l -2,1 v 2 l -1,-3 -5,2 -3,-2 -1,-3 h 3 l -3,-5 1,-2 h 2 l 2,-5 h 4 v -5 l 3,-5 v -5 l -4,-6 3,-11 -4,-5 v 2 h -2 l -4,-3 2,-7 4,-3 -1,-9 5,-3 4,1 -2,-3 1,-3 h 2 l -2,1 3,2 v 3 l 2,-2 1,-2 -2,-5 2,-2 -2,-5 1,-2 5,-2 -1,-1 4,-3 2,-6 v -3 l -1,1 -4,-4 v -5 l -4,-6 v -5 z m -9,141 h 2 z"
     id="520300" />
  <path
     class="leaflet-interactive"
     stroke="#333333"
     stroke-opacity="1"
     stroke-width="1"
     stroke-linecap="round"
     stroke-linejoin="round"
     stroke-dasharray="1, 6"
     fill="#eeeeee"
     fill-opacity="0.5"
     fill-rule="evenodd"
     d="m 437,380 v 3 l 4,4 4,1 v 4 l 7,5 1,3 h 4 l 8,4 2,6 h 2 l 2,7 7,4 3,-2 -2,-4 5,-4 -1,-3 1,-1 v 2 l 3,2 3,-3 1,4 -2,1 4,3 v 2 l 4,-1 2,6 2,-1 5,3 h 6 v -2 l -2,-1 2,-2 -2,-3 6,-12 -3,-3 -2,2 -7,-2 1,-3 -4,2 -1,-1 v -9 l 3,-3 1,-3 -2,-1 3,-3 -4,-4 -3,1 2,-2 v -3 l 3,-1 -2,-3 2,-4 -1,-2 h -2 l 4,-2 1,2 h 2 l 1,-4 8,1 5,-5 v -2 l -5,-2 -3,-4 h -7 v -5 l -4,-3 -4,2 -2,-3 1,-1 -3,-3 1,3 -2,7 -4,2 -6,2 v -5 l -3,-1 -5,3 h -4 l -1,2 -3,-1 -8,3 -1,3 -6,3 -1,6 2,2 1,-1 9,2 4,3 -4,2 -3,-1 -2,7 -1,-1 -8,4 h -11 l -2,2 z m 62,-3 h 1 z"
     id="520400" />
  <path
     class="leaflet-interactive"
     stroke="#333333"
     stroke-opacity="1"
     stroke-width="1"
     stroke-linecap="round"
     stroke-linejoin="round"
     stroke-dasharray="1, 6"
     fill="#eeeeee"
     fill-opacity="0.5"
     fill-rule="evenodd"
     d="m 455,353 9,-6 h 5 l 1,-2 h 4 l 5,-3 4,1 v 5 l 10,-5 2,-6 -2,-6 3,-1 v -5 l -3,-6 6,-4 3,3 2,-3 2,1 4,-8 3,-1 -3,-6 v -3 l 3,-2 v -2 l 12,-7 v -2 h 6 l -2,-3 2,-4 -5,-8 h -7 l -1,3 -4,-1 -1,-2 -7,3 -1,-9 -3,-1 1,1 -3,1 v 2 h -4 l -5,-5 1,-2 -7,-1 v -6 l -5,2 v -2 l -4,1 -1,2 h -8 v 2 h -4 l -1,2 -8,-8 -5,-1 -8,4 -1,8 -5,5 h 2 v 2 l -2,2 v 5 l -3,4 -1,-3 -5,-1 -3,2 -1,-1 -9,8 -2,-1 -1,-3 -4,2 -2,-2 -9,3 -4,-2 -2,-4 -4,-3 -6,-3 -2,2 v 3 l -5,5 1,2 -6,3 6,1 3,3 v 7 l 2,2 -1,1 2,1 v 5 l 2,-2 6,2 v 2 l 2,1 4,-1 5,4 -1,3 4,2 v 3 l 4,2 5,-8 4,4 6,-7 2,3 -2,4 5,2 -1,1 2,1 v 9 l 3,3 v 2 l 4,-1 3,5 5,-1 2,4 10,3 1,4 z m -58,-36 1,-2 -2,-3 -1,1 -1,-3 -5,1 -2,-3 -6,-2 -2,2 -1,-1 1,-4 -3,-4 v -7 l -3,-3 -6,-1 -3,-3 v -2 l -6,-2 -1,-5 h -5 l -5,11 -4,1 -5,8 -6,3 2,4 h -3 v 4 l 6,-3 5,8 v 4 l -5,4 v 2 l 1,4 h 3 l -1,8 4,7 3,1 h 14 l -1,-3 4,-6 7,2 h 8 l 3,-7 4,5 -1,2 2,3 4,-1 2,1 v 2 l 5,2 3,-3 -1,-3 4,-3 1,-9 -4,-2 -2,4 -3,1 -2,-1 2,-6 z"
     id="520500" />
  <path
     class="leaflet-interactive"
     stroke="#333333"
     stroke-opacity="1"
     stroke-width="1"
     stroke-linecap="round"
     stroke-linejoin="round"
     stroke-dasharray="1, 6"
     fill="#eeeeee"
     fill-opacity="0.5"
     fill-rule="evenodd"
     d="m 670,299 3,-4 -1,-3 9,-6 v -3 l 1,1 3,-3 v -3 l 2,-1 h -2 l 2,-2 1,2 3,-2 5,2 2,-5 6,-5 h 3 l 1,-9 -4,-3 h -3 l 1,-1 -3,-4 1,-4 -2,-2 -1,-6 1,-3 4,-3 -2,-2 -3,3 v -4 l 3,-5 -1,-1 2,-6 2,-2 h -2 l -1,-2 -2,2 -3,-3 1,-5 -2,-4 2,-4 -6,1 -3,8 1,1 -5,7 v 5 l -4,-2 -1,4 -5,-2 v -2 l -6,1 -2,-3 -2,4 -3,-7 3,-2 -1,-1 2,-4 h -2 l 2,-3 -3,-2 1,-1 -3,-3 v 2 l -4,1 3,3 v 2 l -2,1 1,3 -4,1 -3,-3 3,-3 -3,-9 3,-1 -1,-3 2,-3 -4,-2 -6,2 -9,-5 3,-8 -2,-1 v -8 l -3,-5 v -6 l -1,-1 -3,4 -3,-3 -3,2 -5,-3 v 5 l 4,6 v 5 l 4,5 1,-1 v 3 l -2,2 -1,5 -3,2 1,1 -6,3 v 3 l 2,2 -2,3 2,5 -2,4 -2,-1 1,-2 -2,-2 -1,1 2,-1 -1,-1 -2,1 2,4 -8,1 v 11 l -3,3 -1,-1 -2,8 5,3 1,-2 4,4 -3,12 4,5 v 6 l -2,2 -1,7 -4,1 -2,5 -3,1 3,6 h -3 l 1,3 h 2 l 1,2 9,-2 v 3 l 8,-2 5,4 3,-6 6,1 8,-5 3,1 9,-8 h 5 l 4,3 h 5 l -1,-2 6,1 1,-2 3,2 -1,3 2,-1 3,3 -2,4 -3,-1 -4,2 -1,-1 -2,2 1,4 -4,5 5,6 z m -62,-16 -1,1 h 2 z"
     id="520600" />
  <path
     class="leaflet-interactive"
     stroke="#333333"
     stroke-opacity="1"
     stroke-width="1"
     stroke-linecap="round"
     stroke-linejoin="round"
     stroke-dasharray="1, 6"
     fill="#eeeeee"
     fill-opacity="0.5"
     fill-rule="evenodd"
     d="m 518,446 1,-3 -6,-5 4,-2 v -2 l -2,-6 h -2 l -1,-3 h -5 l -5,-3 -3,1 -1,-4 -3,-2 -1,1 -2,-4 -3,-1 h 2 l -1,-4 h -2 v 2 l -4,-1 v -2 l -3,6 -2,1 2,4 -3,2 -7,-4 -2,-7 h -2 l -3,-7 h -3 l -4,-3 h -4 l -8,-8 v -4 l -8,-4 v -3 l -5,-7 v -7 h -8 l -4,4 1,2 -3,2 -2,6 1,8 -5,4 2,11 -3,2 2,5 h 2 v 3 l -4,5 v 4 l 2,2 -1,1 -1,-2 -1,2 -10,1 -1,-3 -2,4 v 2 l 4,-1 2,3 h 6 v 6 l -1,1 -4,-4 -5,11 h -3 l 4,1 2,4 -8,8 -4,10 5,3 1,3 h 5 v 2 l 2,1 2,-3 5,-1 4,-6 7,-2 4,-10 8,-5 4,3 v 2 l 11,-1 4,9 2,1 4,-1 4,3 2,-1 8,6 4,-2 h 5 v 2 l 5,4 4,-5 4,-2 v -2 l 2,1 2,-8 -4,-6 1,-1 1,1 3,-2 h 6 l 13,-5 z m -92,11 1,-1 z"
     id="522300" />
  <path
     class="leaflet-interactive"
     stroke="#333333"
     stroke-opacity="1"
     stroke-width="1"
     stroke-linecap="round"
     stroke-linejoin="round"
     stroke-dasharray="1, 6"
     fill="#eeeeee"
     fill-opacity="0.5"
     fill-rule="evenodd"
     d="m 613,285 3,4 -1,2 -5,2 1,4 -9,-1 1,-2 h -3 l -2,-1 1,-1 -6,-2 -1,2 2,6 -2,3 1,1 h -2 l -1,2 2,4 -4,6 3,3 v 2 h 2 v -2 l 3,1 v 2 h 2 v 2 l -5,6 4,8 -1,2 h -4 l -3,-3 -2,2 v -2 l -6,5 h -2 v -2 h -2 l -3,3 -3,-1 -1,3 2,1 -4,4 6,4 8,-3 1,5 4,-1 3,6 8,-3 1,4 -2,7 5,5 2,-3 2,2 1,-1 4,5 2,-2 8,1 2,-2 2,5 3,-3 1,3 -2,1 1,1 -2,4 -2,-1 -2,4 1,1 -4,6 1,9 4,-1 1,6 3,-1 4,4 -1,1 2,2 3,-1 5,7 4,-1 1,3 4,2 3,6 1,-5 -3,-3 2,-5 1,2 -2,-2 4,-3 2,1 v -2 l -2,-1 2,-5 4,-1 4,8 1,-2 h 8 l 3,3 5,-3 -3,-4 3,-8 -5,-1 -2,3 -5,1 2,-4 h 2 l 4,-4 4,1 2,-2 2,1 v 4 l 3,-2 -2,-2 1,-1 2,4 5,3 4,-2 v -7 l 6,-7 -1,-2 4,-5 -2,-2 v -3 l 4,-1 -1,-3 h -2 l -2,-6 2,-4 -1,-1 -6,3 -6,-3 3,-8 4,-3 v -4 l 2,-1 -3,-9 -2,1 -3,-3 7,-2 -1,-1 2,1 2,-3 h 3 l -3,-9 1,-2 4,-2 1,1 1,-7 -2,-4 h -4 2 l -2,-2 1,-1 h -2 l -2,-3 -7,2 h -2 l -1,-2 -6,7 -4,-1 2,-3 -1,-1 -10,5 -2,4 v -2 l -3,2 -6,-6 7,-2 -2,-4 -4,-2 4,-6 -1,-4 2,-2 h 8 l 2,-4 -3,-3 -2,1 1,-3 -3,-2 -1,2 -5,-1 v 2 h -6 l -2,-3 h -7 l -1,3 h -2 l -4,5 -4,-1 -7,5 -6,-1 -4,6 -5,-4 -5,1 z m 94,32 3,9 1,-9 -3,-2 -1,1 z m 8,8 -3,1 3,1 z m -109,-29 2,1 2,-4 -4,2 z"
     id="522600" />
  <path
     class="leaflet-interactive"
     stroke="#333333"
     stroke-opacity="1"
     stroke-width="1"
     stroke-linecap="round"
     stroke-linejoin="round"
     stroke-dasharray="1, 6"
     fill="#eeeeee"
     fill-opacity="0.5"
     fill-rule="evenodd"
     d="m 516,360 -8,-1 -1,4 h -7 l 4,2 -3,5 2,1 -1,2 h -2 l -1,4 h 2 l 4,4 -3,3 1,3 -3,4 v 9 l 1,1 4,-2 -1,3 4,2 4,-2 4,3 -4,10 -2,1 v 2 l 2,1 -2,3 2,1 v 4 l 3,1 1,2 1,5 -3,3 5,5 -1,3 4,-1 6,-7 h 14 l 1,-5 6,1 -1,-2 2,-1 v -5 l -2,-1 -1,-5 3,-4 4,-2 -1,-2 2,-2 h 4 l 4,-3 1,4 6,5 -1,6 5,-1 3,9 2,-1 2,2 -2,3 1,2 7,-4 1,1 -1,-1 3,-4 2,1 -1,1 3,7 3,-4 1,1 2,6 -2,2 h 5 l 7,-4 11,-2 2,-5 v -8 l 3,-1 -2,-2 2,-2 4,2 v -3 l 3,-2 -2,-4 1,-1 -3,-1 v -3 l -4,1 -1,-5 -4,-1 -1,-5 v -3 l 2,-2 -1,-1 2,-1 2,-7 1,1 2,-2 2,-5 -2,-2 -2,3 -2,-5 -2,2 -8,-1 -2,2 -4,-5 -1,1 -2,-2 -2,3 -5,-6 2,-6 -1,-4 -8,3 -1,-4 -4,-2 -2,1 -1,-4 -8,2 -5,-4 3,-4 -2,-4 4,1 3,-3 4,2 6,-5 v 2 l 2,-2 2,3 6,-1 -4,-9 5,-6 v -2 h -2 l 1,-1 -4,-2 1,1 -3,1 v -2 l -3,-3 4,-5 -2,-4 3,-3 -1,-1 2,-5 -4,-8 -5,1 -1,3 -2,-2 1,2 h -2 l -2,-3 2,-9 h -4 l -1,3 -3,-4 2,-1 -1,-2 -2,-2 -6,-1 v 3 l -8,13 6,1 2,2 -1,3 -4,1 -1,8 5,6 2,9 -1,3 -8,-2 -10,5 -2,7 1,1 h -4 l -1,1 2,2 -5,3 v 4 l -3,2 2,1 -5,5 5,1 v 2 l -3,2 6,1 1,3 -2,2 2,2 -4,2 -3,-6 -1,1 -5,-3 -5,5 h -7 v -2 z m -17,17 v 1 z"
     id="522700" />
</svg>
