<?xml version="1.0" encoding="UTF-8" standalone="no"?>
<svg
   pointer-events="none"
   class="leaflet-zoom-animated"
   width="1135"
   height="626"
   viewBox="-95 -52 1135 626"
   style="transform: translate3d(-95px, -52px, 0px);"
   version="1.1"
   id="svg1"
   sodipodi:docname="辽宁省.svg"
   inkscape:version="1.4 (86a8ad7, 2024-10-11)"
   xmlns:inkscape="http://www.inkscape.org/namespaces/inkscape"
   xmlns:sodipodi="http://sodipodi.sourceforge.net/DTD/sodipodi-0.dtd"
   xmlns="http://www.w3.org/2000/svg"
   xmlns:svg="http://www.w3.org/2000/svg">
  <defs
     id="defs1" />
  <sodipodi:namedview
     id="namedview1"
     pagecolor="#ffffff"
     bordercolor="#000000"
     borderopacity="0.25"
     inkscape:showpageshadow="2"
     inkscape:pageopacity="0.0"
     inkscape:pagecheckerboard="0"
     inkscape:deskcolor="#d1d1d1"
     inkscape:zoom="1.4341496"
     inkscape:cx="639.75194"
     inkscape:cy="339.92269"
     inkscape:window-width="1920"
     inkscape:window-height="991"
     inkscape:window-x="-9"
     inkscape:window-y="1341"
     inkscape:window-maximized="1"
     inkscape:current-layer="svg1" />
  <path
     class="leaflet-interactive"
     stroke="#000000"
     stroke-opacity="1"
     stroke-width="2"
     stroke-linecap="round"
     stroke-linejoin="round"
     fill="#ffffff"
     fill-opacity="0.2"
     fill-rule="evenodd"
     d="m 600,427 h 6 l 3,-5 2,2 11,-2 9,3 7,-2 -1,2 3,4 2,-3 v -4 l 5,-8 h 3 v -4 l 5,-2 -2,-4 2,-5 16,-16 6,-2 3,-6 7,-4 2,-4 2,2 h 6 l 1,-2 -2,-2 4,-5 4,-1 5,-4 h 4 v -2 l 2,-1 2,2 3,-2 2,3 v -3 l 3,-1 2,-5 3,1 3,-6 2,2 5,-1 -3,-2 v -2 l 4,-3 -1,-3 h -7 v -2 l 7,-6 -1,-1 4,-6 v -2 h -2 l 2,-3 1,1 2,-4 -3,-1 1,-6 h -4 l -1,-3 -2,2 -2,-5 2,-1 -1,-3 h -3 v -3 h -2 l -1,-7 -5,-7 v -10 l -5,-1 -4,2 2,-8 -4,-8 2,-7 h 2 l -3,-2 1,-2 7,-8 -1,-2 5,-4 -2,-2 -3,1 -3,-3 v 4 h -4 l 1,-5 -1,2 -1,-1 2,-3 -3,-1 v -3 l 2,-2 h -2 v -2 h -6 l -1,-3 3,-2 -1,-5 h -2 l -2,-4 h -2 l -2,-5 2,-8 -4,1 -2,-2 1,-2 -4,-2 2,-1 -2,-3 h 2 l -1,-7 -3,-1 -2,3 -3,-3 v -20 l 2,-2 1,-6 -12,6 -2,2 v 4 l -9,12 -1,-1 -4,2 v 3 l -2,-4 1,-1 -5,-1 5,-5 -2,-3 h -4 l -1,-2 6,-7 -10,-8 v -6 h -4 v -2 l -2,2 -3,-2 -1,1 -1,-4 -4,1 -6,-6 -4,-1 1,-1 -3,-3 1,-4 -4,-3 h -3 l -4,7 v 12 h -2 v 3 l -2,2 2,3 -6,16 -7,-4 -2,2 -2,-1 -2,2 -7,1 -5,6 -1,7 3,2 -10,5 -5,-1 -2,3 -4,-2 -3,5 -7,-6 -7,1 -4,-3 v -2 l -13,-1 v 6 l 6,1 -4,4 v 3 l -4,1 -2,-2 h -3 l -3,-4 v 5 l -10,-4 -2,2 -6,1 1,2 -2,1 -1,8 -6,6 v -2 l -6,7 h -3 l -4,-7 -3,3 h -9 l -2,1 v 2 l -2,-1 -5,7 -6,3 -4,6 -6,2 1,1 -7,-3 -9,5 h -3 l -8,6 -3,-1 -7,5 2,2 -3,2 v 4 l -4,3 h -3 l -2,4 -3,1 -1,2 3,1 -7,3 -4,7 1,4 -3,2 h -2 l -3,-3 2,-2 v -6 l -2,1 -6,-17 -2,-1 -3,-6 v -10 h -7 l -6,-3 -2,-3 -5,-1 2,-6 -4,-2 -1,3 -4,3 -10,5 -2,6 h 2 l 2,5 5,3 v 5 l -4,6 1,8 -3,8 2,2 -1,9 7,6 v 2 l -3,1 2,3 v 4 l -2,3 1,1 -4,2 -1,-1 2,2 v 4 l -1,1 v -2 l -1,2 h -3 l -3,9 h -3 l 1,4 -6,4 v 3 l -2,2 h -6 l -2,2 2,3 3,1 v 2 l -2,2 h -5 l -1,8 -3,3 3,4 h 2 l -1,2 h 3 l 4,6 h 3 v 2 h 4 l 3,-3 1,4 -2,1 1,2 5,1 -1,3 3,3 h 14 l 1,-2 3,1 v 3 l 3,4 v 11 l 1,3 h 2 l -1,6 2,-1 4,3 1,-1 v 9 l 3,5 2,-1 2,2 v 4 l 6,-1 1,-4 9,-3 2,1 16,-9 7,-1 3,-7 -1,-2 5,-5 1,-8 4,-2 1,-3 9,-7 1,-8 13,-2 -5,-8 1,-1 2,3 3,-1 4,-7 20,4 v -5 h 3 l 5,3 v 3 l 3,-3 3,2 6,-3 1,1 v -2 l 4,-2 2,6 6,3 v 9 l 5,1 2,2 6,-2 v 7 l 6,6 v 3 h 2 -3 v 2 l 2,1 -2,2 -2,-1 v 4 l -2,1 v 2 l -2,-2 -2,2 2,1 -2,2 h -4 l -1,6 -6,1 1,3 4,2 v 2 l -6,5 -2,4 -1,-1 -3,2 -3,8 h -5 l -2,3 -7,3 -5,5 1,3 -2,2 2,6 -3,2 v 2 l -10,2 -4,3 v 5 l 2,2 2,-2 1,2 -4,2 v 5 l 2,2 h 7 l 3,2 v 2 h 2 l 2,4 11,-6 h 4 l -1,3 h -3 l 1,3 -6,1 v 2 l 1,-1 2,2 -1,-1 1,2 -2,-1 -1,3 6,6 -4,4 1,-3 -3,-4 -2,2 3,3 -6,5 -5,1 -4,-3 -3,3 v 5 l -3,-1 -1,2 h -9 l -2,2 v 2 l 2,1 -1,9 2,5 5,-1 3,-4 h 3 l 2,-3 h 10 l 4,-4 9,1 2,-4 -7,-3 3,-2 v -4 l 5,1 3,-2 1,5 4,2 2,-1 v -4 l -3,-2 4,1 1,-1 -2,-2 4,2 2,-3 h 4 v -4 l 7,-3 -3,-2 v -2 l 9,-7 2,-5 1,1 3,-2 4,-5 6,1 9,-8 v -2 l 11,-3 -1,-2 h 3 v -2 l 7,1 5,-6 v 2 -2 l 5,-1 1,2 3,-2 3,1 v -2 l 4,-1 -2,-4 1,1 1,-2 11,2 3,-3 z m -61,42 h 7 l -3,-2 -4,1 v -2 h -5 l 4,2 z m -12,6 2,-2 -4,1 -2,3 2,2 2,-2 1,1 z m 17,-2 7,-1 h -8 z m 8,17 -3,-3 v 3 h 2 z m -22,-13 -1,-1 z m -39,25 1,1 -1,-2 z m 38,-29 1,-1 z m 1,-4 h 1 z m 38,-23 -3,-1 -2,3 h 2 v 2 l 4,-3 z m -46,29 1,-1 z m 0,-7 -1,1 z m 49,-17 v -1 z m -30,23 1,-1 -2,1 z m -6,-1 3,-1 -2,-1 -2,1 z m 21,13 v 1 z m -1,-1 z m -63,13 z m 67,-11 -2,-2 z m -135,-119 3,-1 v -2 l -1,-1 -2,3 z m 45,108 -2,-2 1,1 z m 103,-20 1,-1 -3,-2 z m -102,19 -1,-1 z m 83,-3 h 2 z m 0,13 z m 24,4 3,-2 -2,-4 -2,1 z m -10,-18 1,-1 h -2 z m -118,13 h -1 z m 171,-58 -1,-1 z m -7,3 3,-1 -2,-1 z m -88,34 h -2 l 1,1 1,-2 z M 413,374 h 1 z m 270,0 2,-1 -3,1 z M 437,495 Z"
     id="辽宁省" />
  <path
     class="leaflet-interactive"
     stroke="#333333"
     stroke-opacity="1"
     stroke-width="1"
     stroke-linecap="round"
     stroke-linejoin="round"
     stroke-dasharray="1, 6"
     fill="#eeeeee"
     fill-opacity="0.5"
     fill-rule="evenodd"
     d="m 603,150 -6,-4 -2,2 -2,-1 -2,2 -7,1 -5,6 -1,7 3,2 -10,5 -5,-1 -2,3 -4,-2 -3,5 -3,-1 -3,3 2,3 h 3 l 9,8 -4,4 v 2 l -2,-1 -4,2 v 6 l 2,2 1,-1 3,5 -5,1 -9,8 -5,1 v 2 l -12,6 6,19 v 2 h -5 l 1,5 4,2 3,4 h 2 l -3,8 h -2 l -2,12 4,-1 3,1 v 2 h 2 v 9 l 2,5 -7,8 3,1 2,4 3,-2 -1,-2 6,-9 6,-2 1,-4 h 4 l -1,-1 2,-4 1,1 2,-2 -1,-1 -1,1 3,-2 1,1 6,-9 v 4 l 2,2 h 3 l 1,-2 8,5 h 5 l 1,3 4,1 v -2 h 4 l 8,-4 3,2 2,-2 -2,-3 5,-3 -3,-3 4,-6 -2,-4 1,-2 -2,-2 -3,2 -2,-1 -1,-5 4,-2 -1,-2 2,-3 -2,-2 5,-4 h -2 v -2 h 2 l 1,-3 -1,-1 -1,2 -5,-4 -4,-1 -6,-5 v -3 l -4,1 -2,-2 1,-5 4,-6 -4,-5 v -6 l 5,-4 4,-1 2,-4 h 2 l -1,3 7,-3 h -2 l -3,-3 1,-1 -3,-1 1,-1 -3,-2 v -2 l -4,-2 v -3 l 2,-2 -1,-2 2,-1 v -7 l -2,-2 2,-4 -3,-2 v -3 z"
     id="210100" />
  <path
     class="leaflet-interactive"
     stroke="#333333"
     stroke-opacity="1"
     stroke-width="1"
     stroke-linecap="round"
     stroke-linejoin="round"
     stroke-dasharray="1, 6"
     fill="#eeeeee"
     fill-opacity="0.5"
     fill-rule="evenodd"
     d="m 600,427 -1,-7 -2,-1 v -5 h -5 l 1,-1 -2,-3 2,-1 v -2 l -3,1 -1,-2 -7,-1 -3,-3 -4,-1 -1,2 -1,-1 -2,2 -5,-3 v -2 l -6,-8 -3,4 1,2 -3,2 -2,-1 -8,5 h -7 v 3 l -2,1 3,6 -4,1 -6,-4 -3,1 -3,-2 -2,2 -3,-5 -3,2 -2,-3 h -5 l -1,-3 -4,2 -2,-6 -2,-1 -2,5 -6,3 -3,8 h -5 l -2,3 -7,3 -5,5 1,3 -2,2 2,6 -3,2 v 2 l -10,2 -4,3 v 5 l 2,2 2,-2 1,2 -4,2 v 5 l 2,2 h 7 l 3,2 v 2 h 2 l 2,4 11,-6 h 4 l -1,3 h -3 l 1,3 -6,1 v 2 l 1,-1 2,2 -1,-1 1,2 -2,-1 -1,3 6,6 -4,4 1,-3 -3,-4 -2,2 3,3 -6,5 -5,1 -4,-3 -3,3 v 5 l -3,-1 -1,2 h -9 l -2,2 v 2 l 2,1 -1,9 2,5 5,-1 3,-4 h 3 l 2,-3 h 10 l 4,-4 9,1 2,-4 -7,-3 3,-2 v -4 l 5,1 3,-2 1,5 4,2 2,-1 v -4 l -3,-2 4,1 1,-1 -2,-2 4,2 2,-3 h 4 v -4 l 7,-3 -3,-2 v -2 l 9,-7 2,-5 1,1 3,-2 4,-5 6,1 9,-8 v -2 l 11,-3 -1,-2 h 3 v -2 l 7,1 5,-6 v 2 -2 l 5,-1 1,2 3,-2 3,1 v -2 l 4,-1 -2,-4 1,1 1,-2 11,2 3,-3 z m -61,42 h 7 l -3,-2 -4,1 v -2 h -5 l 4,2 z m -12,6 2,-2 -4,1 -2,3 2,2 2,-2 1,1 z m 17,-2 7,-1 h -8 z m 8,17 -3,-3 v 3 h 2 z m -22,-13 -1,-1 z m -39,25 1,1 -1,-2 z m 38,-29 1,-1 z m 1,-4 h 1 z m 38,-23 -3,-1 -2,3 h 2 v 2 l 4,-3 z m -46,29 1,-1 z m 0,-7 -1,1 z m 49,-17 v -1 z m -30,23 1,-1 -2,1 z m -6,-1 3,-1 -2,-1 -2,1 z m 21,13 v 1 z m -1,-1 z m -63,13 z m 67,-11 -2,-2 z m -90,-11 -2,-2 1,1 z m 103,-20 1,-1 -3,-2 z m -102,19 -1,-1 z m 83,-3 h 2 z m 0,13 z m 24,4 3,-2 -2,-4 -2,1 z m -10,-18 1,-1 h -2 z m -118,13 h -1 z m 76,-21 h -2 l 1,1 1,-2 z m -88,32 z"
     id="210200" />
  <path
     class="leaflet-interactive"
     stroke="#333333"
     stroke-opacity="1"
     stroke-width="1"
     stroke-linecap="round"
     stroke-linejoin="round"
     stroke-dasharray="1, 6"
     fill="#eeeeee"
     fill-opacity="0.5"
     fill-rule="evenodd"
     d="m 601,338 -8,2 -15,8 -2,-1 -5,-5 3,-3 -4,-2 v -4 l 3,-4 -1,-3 3,-2 2,1 5,-6 -2,-2 v -3 l -4,1 -1,-7 h -4 v -2 l -2,-1 -2,2 -4,-1 -4,3 -3,6 h -4 l -10,-6 -1,-3 h 2 l -2,-4 h -3 l 4,-5 -1,-1 4,-3 -2,-5 v -9 h -2 v -2 h -7 v -3 l -1,2 -7,1 -10,5 -1,4 5,7 -1,8 -3,4 3,2 h 5 l 5,-5 h 5 l -8,6 4,14 -1,2 h -4 v 5 h -2 v 2 h 3 l 5,-3 3,1 v 6 l 3,4 -1,4 8,2 -1,6 h 3 l -3,6 2,2 2,-2 7,2 3,4 h 6 l 4,5 -2,5 -3,1 1,2 -4,6 1,9 7,11 4,2 2,-2 1,1 1,-2 7,4 7,1 1,2 3,-1 1,-2 h 4 l -2,-2 1,1 v -2 l 8,-5 1,-3 h -2 l -1,-2 2,-5 1,1 5,-5 h 2 l -1,-2 4,-7 v -8 l -2,-1 1,-2 -2,-5 2,-2 -2,-4 -6,-3 -2,1 -3,-3 1,-4 2,-1 -3,-4 z"
     id="210300" />
  <path
     class="leaflet-interactive"
     stroke="#333333"
     stroke-opacity="1"
     stroke-width="1"
     stroke-linecap="round"
     stroke-linejoin="round"
     stroke-dasharray="1, 6"
     fill="#eeeeee"
     fill-opacity="0.5"
     fill-rule="evenodd"
     d="m 615,278 1,-1 2,3 4,-2 1,-3 h 6 l 6,3 2,-1 2,3 7,-4 5,1 v 4 h 2 l -1,1 4,2 -3,2 v 2 l 5,9 h 3 v -2 h 2 l 10,8 1,-2 6,-1 7,-5 -1,-8 2,-4 5,-4 6,4 1,-2 4,-1 3,2 2,-2 v 2 h 3 v -2 l 3,1 5,-5 h 5 v -11 l -5,-1 -4,2 2,-8 -4,-8 2,-7 h 2 l -3,-2 1,-2 7,-8 -1,-2 5,-4 -2,-2 -3,1 -3,-3 v 4 h -4 l 1,-5 -1,2 -1,-1 2,-3 -3,-1 v -3 l 2,-2 h -2 v -2 h -6 l -1,-3 3,-2 -1,-5 h -2 l -2,-4 h -2 l -7,7 v 2 h -2 l -2,-3 -2,1 -5,-2 -3,2 1,5 -2,-1 -6,3 -3,-1 1,-2 h -4 v 4 l -4,6 3,6 v 4 l -2,3 -5,1 -6,5 -4,1 -2,-6 h -11 l -3,2 -1,3 -5,1 -1,-2 -1,1 -3,-2 -6,6 h -3 v 8 l -2,3 h -2 v 4 h 6 l 2,2 -1,2 2,4 -4,6 3,3 -5,3 1,2 z"
     id="210400" />
  <path
     class="leaflet-interactive"
     stroke="#333333"
     stroke-opacity="1"
     stroke-width="1"
     stroke-linecap="round"
     stroke-linejoin="round"
     stroke-dasharray="1, 6"
     fill="#eeeeee"
     fill-opacity="0.5"
     fill-rule="evenodd"
     d="m 605,281 4,4 -2,3 3,8 v 5 h -4 l -1,5 h 2 l 1,4 2,1 -1,5 2,2 -3,5 1,4 -3,7 -2,1 6,3 1,-1 1,2 2,-3 6,-1 5,3 5,-2 v -2 l 10,2 1,-9 -4,-7 h 9 v -4 l 2,-1 h 2 v 3 l 3,-1 2,2 2,-2 7,2 4,-4 h 5 l 2,-3 1,1 3,-3 3,2 4,-1 9,4 4,-2 3,3 3,-2 8,1 2,1 3,7 7,-2 v 4 l 2,2 v -2 l 3,-1 -2,4 1,3 h 2 v -2 l 2,1 7,-6 -1,-1 4,-6 v -2 h -2 l 2,-3 1,1 2,-4 -3,-1 1,-6 h -4 l -1,-3 -2,2 -2,-5 2,-1 -1,-3 h -3 v -3 h -2 l -1,-7 -5,-7 -3,2 -2,-2 -4,6 -4,-1 v 2 h -2 l -1,-2 h -5 l -4,1 v 2 l -7,-4 -3,1 -4,7 1,8 -14,8 -10,-8 -4,2 -6,-9 v -2 l 3,-2 -3,-1 v -2 h -2 v -4 l -5,-1 -7,4 -2,-3 -2,1 -5,-3 h -6 l -5,5 -2,-1 v -2 l -4,3 -2,-2 h -4 l -1,2 z"
     id="210500" />
  <path
     class="leaflet-interactive"
     stroke="#333333"
     stroke-opacity="1"
     stroke-width="1"
     stroke-linecap="round"
     stroke-linejoin="round"
     stroke-dasharray="1, 6"
     fill="#eeeeee"
     fill-opacity="0.5"
     fill-rule="evenodd"
     d="m 600,427 h 6 l 3,-5 2,2 11,-2 9,3 7,-2 -1,2 3,4 2,-3 v -4 l 5,-8 h 3 v -4 l 5,-2 -2,-4 2,-5 9,-8 1,-3 6,-5 6,-2 3,-6 7,-4 2,-4 2,2 h 6 l 1,-2 -2,-2 4,-5 4,-1 5,-4 h 4 v -2 l 2,-1 2,2 3,-2 2,3 v -3 l 3,-1 2,-5 3,1 3,-6 2,2 5,-1 -3,-2 v -2 l 4,-3 -1,-3 h -7 l -1,-3 -1,2 h -2 l -1,-3 2,-3 h -3 v 2 l -2,-2 v -4 l -7,2 -3,-7 -2,-1 -7,-1 -4,2 -3,-3 -3,2 -3,-2 -7,-2 -4,1 -3,-2 -3,3 -1,-1 -2,3 -1,-1 -6,2 -2,3 -6,-2 -3,2 -2,-2 -3,2 v -3 l -2,-1 -2,5 h -9 l 4,7 v 5 l -2,4 -9,-2 v 2 l -5,2 -7,-3 -3,1 -2,3 -2,-2 -1,1 -2,-2 -6,-1 -1,3 4,4 -3,5 3,3 2,-1 7,4 1,3 -2,2 2,4 -1,2 2,2 v 8 l -4,6 1,3 h -2 l -5,5 -1,-1 -2,5 2,2 v 3 l -8,5 1,2 -2,-1 1,2 h -3 l -1,4 -2,1 2,3 -1,1 h 5 v 4 l 3,7 z m 20,-1 -1,-1 z m -7,3 3,-1 -2,-1 z m 70,-55 2,-1 -3,1 z"
     id="210600" />
  <path
     class="leaflet-interactive"
     stroke="#333333"
     stroke-opacity="1"
     stroke-width="1"
     stroke-linecap="round"
     stroke-linejoin="round"
     stroke-dasharray="1, 6"
     fill="#eeeeee"
     fill-opacity="0.5"
     fill-rule="evenodd"
     d="m 474,336 6,-7 2,-6 -2,-5 3,-3 h 4 l -1,-2 -4,2 -5,-1 -2,-2 3,-5 -1,-2 h -2 v -3 l 11,-8 3,1 1,-2 h 3 l 2,3 5,-6 h 7 l 14,-11 13,-4 -1,-2 3,-8 h 2 l 3,-8 h -2 l -7,-6 -1,-5 h 4 l 1,-3 -6,-17 -16,9 -2,-1 v 2 l -4,4 -5,4 -1,-1 -2,5 -8,4 2,1 -2,3 -3,-2 h -5 l -2,3 -8,-1 -5,8 -3,-4 -4,1 -2,-1 v -3 l -5,-2 v 2 l -3,3 1,5 h -4 l -1,3 h -2 l -1,2 -7,1 -2,2 1,2 -3,3 h -2 l -2,7 1,2 h -3 v 2 l -2,-2 v 2 l -3,3 -2,7 2,2 -3,3 h 2 l 1,3 1,-1 1,2 -1,1 4,3 2,-2 5,6 v 3 h 5 v 22 l 3,-1 3,-6 20,4 v -5 h 3 l 3,3 z"
     id="210700" />
  <path
     class="leaflet-interactive"
     stroke="#333333"
     stroke-opacity="1"
     stroke-width="1"
     stroke-linecap="round"
     stroke-linejoin="round"
     stroke-dasharray="1, 6"
     fill="#eeeeee"
     fill-opacity="0.5"
     fill-rule="evenodd"
     d="m 499,397 2,1 v 5 l 2,1 3,-2 2,3 h 5 l 4,3 1,-2 3,5 4,-2 1,2 2,-1 7,4 4,-1 -3,-5 2,-1 -1,-4 h 8 l 12,-6 3,-6 -1,-8 3,-4 v -5 l 4,-2 1,-4 -4,-5 h -6 l -3,-3 -4,-2 -1,1 -1,-2 -3,2 -2,-2 3,-5 -3,-1 1,-6 -8,-2 1,-3 -1,-4 h -2 v -7 l -3,-1 -4,3 h -5 l -2,4 -5,-1 -6,6 6,5 v 3 h 5 l -2,2 -6,-2 -1,7 1,3 6,6 v 3 h 2 -3 v 2 l 2,1 -2,2 -2,-1 v 4 l -2,1 v 2 l -2,-2 -2,2 2,1 -2,2 h -4 l -1,6 -6,1 1,3 4,2 -1,4 h -2 z"
     id="210800" />
  <path
     class="leaflet-interactive"
     stroke="#333333"
     stroke-opacity="1"
     stroke-width="1"
     stroke-linecap="round"
     stroke-linejoin="round"
     stroke-dasharray="1, 6"
     fill="#eeeeee"
     fill-opacity="0.5"
     fill-rule="evenodd"
     d="m 557,175 -7,-6 -7,1 -4,-3 v -2 l -13,-1 v 6 l 6,1 -4,4 v 3 l -4,1 -2,-2 h -3 l -3,-4 v 5 l -10,-4 -2,2 -6,1 1,2 -2,1 -1,8 -6,6 v -2 l -6,7 h -3 l -4,-7 -3,3 -4,-1 -3,2 h -4 v 2 l -2,-1 -4,6 -7,4 -4,6 -6,2 v 2 l 2,1 -1,3 3,7 -3,4 v 7 l 9,1 2,5 5,2 1,2 -3,6 5,2 1,4 4,-1 4,4 v -2 l 5,-6 8,1 2,-3 h 4 l 3,2 2,-1 1,-2 h -2 v -2 h 4 l 6,-6 v -2 h 3 l 7,-7 v -2 l 2,1 7,-5 8,-3 13,-8 v -2 l 5,-1 5,-5 8,-4 v -2 l -4,-4 -1,-6 4,-2 1,1 5,-6 -9,-7 h -3 l -2,-4 3,-3 2,1 z"
     id="210900" />
  <path
     class="leaflet-interactive"
     stroke="#333333"
     stroke-opacity="1"
     stroke-width="1"
     stroke-linecap="round"
     stroke-linejoin="round"
     stroke-dasharray="1, 6"
     fill="#eeeeee"
     fill-opacity="0.5"
     fill-rule="evenodd"
     d="m 543,306 h -2 l 1,3 10,5 -1,1 5,1 3,-6 -1,-1 h 2 l 3,-3 3,1 3,-2 2,1 v 2 h 4 l 1,6 h 3 l 3,4 -3,6 h -4 l -3,2 1,2 -3,5 v 4 l 4,1 -3,4 5,6 7,-2 3,-3 h 3 l 4,-3 7,-1 2,-2 -1,-1 5,-2 2,-4 v -7 l 3,-6 -2,-1 1,-5 -5,-5 v -3 l 1,-2 h 4 v -5 l -2,-6 1,-4 -4,-5 -7,1 v 2 l -4,-1 -1,-3 -1,1 -11,-6 -6,2 -1,-7 -5,9 -4,1 -1,1 h 2 l -2,2 -1,-1 v 2 l -2,1 1,2 h -4 l -1,4 -6,2 v 2 l -4,3 1,1 z"
     id="211000" />
  <path
     class="leaflet-interactive"
     stroke="#333333"
     stroke-opacity="1"
     stroke-width="1"
     stroke-linecap="round"
     stroke-linejoin="round"
     stroke-dasharray="1, 6"
     fill="#eeeeee"
     fill-opacity="0.5"
     fill-rule="evenodd"
     d="m 474,336 v 3 l 3,-3 5,2 4,-3 1,1 v -2 l 4,-2 2,6 6,3 v 9 l 10,3 3,-2 1,-3 4,2 3,-1 -4,-1 v -3 l -7,-4 3,-4 h 2 v -3 l 3,2 2,-2 1,1 2,-4 h 2 l -1,-2 h 2 l -1,-3 2,-1 v -2 l 3,1 v -8 l -3,-7 3,-4 h 2 l 3,-3 -1,-1 -6,2 -3,4 -7,-1 -1,-1 3,-3 1,-9 -3,-3 -2,-6 -7,6 h -7 l -4,2 -2,4 -2,-3 -6,2 -1,-1 -11,8 v 2 l 3,2 v 2 l -3,3 1,3 5,1 5,-2 1,2 -6,1 -1,3 2,4 -3,8 -4,4 z"
     id="211100" />
  <path
     class="leaflet-interactive"
     stroke="#333333"
     stroke-opacity="1"
     stroke-width="1"
     stroke-linecap="round"
     stroke-linejoin="round"
     stroke-dasharray="1, 6"
     fill="#eeeeee"
     fill-opacity="0.5"
     fill-rule="evenodd"
     d="m 618,238 3,-3 h 6 l 3,2 3,-1 1,-3 3,-2 h 11 l 2,4 -1,1 h 4 l 7,-5 5,-1 2,-3 -3,-10 3,-3 1,-7 h 4 l -1,1 2,2 9,-2 -1,-5 2,-2 6,2 3,-1 2,3 8,-9 -2,-5 2,-8 -4,1 -2,-2 1,-2 -4,-2 2,-1 -2,-3 h 2 l -1,-7 -3,-1 -2,3 -3,-3 v -20 l 2,-2 1,-6 -12,6 -2,2 v 4 l -9,12 -1,-1 -4,2 v 3 l -2,-4 1,-1 -5,-1 5,-5 -2,-3 h -4 l -1,-2 6,-7 -10,-8 v -6 h -4 v -2 l -2,2 -3,-2 -1,1 -1,-4 -4,1 -6,-6 -4,-1 1,-1 -3,-3 1,-4 -4,-3 h -3 l -4,7 v 12 h -2 v 3 l -2,2 2,3 -5,11 v 4 l -3,3 4,4 -2,2 2,4 v 7 l -3,5 v 3 l 3,2 1,-1 3,7 h 2 l -1,1 3,3 h 2 l -5,4 -2,-1 1,-3 h -2 l -2,4 -6,2 -4,4 2,2 v 4 l 3,3 -4,7 v 7 l 5,-1 v 3 l 6,5 h 4 l 5,5 2,-2 -3,6 z"
     id="211200" />
  <path
     class="leaflet-interactive"
     stroke="#333333"
     stroke-opacity="1"
     stroke-width="1"
     stroke-linecap="round"
     stroke-linejoin="round"
     stroke-dasharray="1, 6"
     fill="#eeeeee"
     fill-opacity="0.5"
     fill-rule="evenodd"
     d="m 440,216 -6,-3 -9,5 h -3 l -8,6 -3,-1 -7,5 2,2 -3,2 v 4 l -4,3 h -3 l -2,4 -3,1 -1,2 3,1 -7,3 -4,7 1,4 -5,2 -3,-3 2,-2 v -6 l -2,1 -6,-17 -2,-1 -3,-6 v -10 h -7 l -6,-3 -2,-3 -5,-1 2,-6 -4,-2 -1,3 -4,3 -10,5 -2,6 h 2 l 2,5 5,3 v 5 l -4,6 1,8 -3,8 2,2 -1,9 7,6 v 2 l -3,1 2,3 v 4 l -2,3 1,1 -4,2 -1,-1 2,2 v 4 l -1,1 v -2 l -1,2 h -3 l -3,9 h -3 l 1,4 -6,4 v 3 l -2,2 h -6 l -2,2 2,3 3,1 v 2 l -2,2 h -5 l -1,8 -3,3 3,4 h 2 l -1,2 h 3 l 4,6 h 3 v 2 h 4 l 3,-3 v 7 l 7,1 6,-7 1,1 3,-3 v -2 l 7,-7 -1,-2 h 2 l 1,2 3,-2 4,5 2,-3 v -4 l 2,-1 3,2 3,-3 -1,-4 5,2 1,-2 5,-1 3,-5 -3,-6 6,-2 4,8 2,-2 2,3 -3,4 2,2 2,-3 3,1 4,-5 5,4 3,-3 1,-7 2,-1 2,2 v -3 l 5,-2 v -4 h 2 v -2 h 8 v -2 l -3,-1 3,-2 -2,-2 3,-8 -1,-1 3,-4 2,2 v -2 h 2 v -5 h 2 v -4 h 2 l 3,-3 -1,-2 2,-2 4,-2 3,1 4,-4 4,-1 -1,-5 3,-3 v -4 l 3,-4 -1,-2 -5,-2 -3,-6 -6,1 -2,-2 2,-13 -2,-4 1,-2 -2,-2 z"
     id="211300" />
  <path
     class="leaflet-interactive"
     stroke="#333333"
     stroke-opacity="1"
     stroke-width="1"
     stroke-linecap="round"
     stroke-linejoin="round"
     stroke-dasharray="1, 6"
     fill="#eeeeee"
     fill-opacity="0.5"
     fill-rule="evenodd"
     d="m 440,341 v -21 l -6,-2 v -5 h -2 l -1,-3 -4,2 -3,-3 v -3 l -7,2 -2,-1 v 2 h -2 l -1,5 -4,1 v 2 l -5,1 v 5 l -3,4 -4,-4 h -2 l -2,5 -3,-1 -3,3 -2,-2 3,-3 v -2 l -2,-2 -2,2 -2,-7 -4,-1 -3,2 1,8 -3,4 -1,-1 -3,3 -6,-2 1,3 -2,4 -6,-1 v 4 l -2,3 -4,-5 -3,2 -1,-2 h -2 l 1,2 -2,4 h -3 l -2,5 -3,3 -1,-1 -6,7 -1,-1 -2,4 3,3 h 14 l 1,-2 3,1 v 3 l 3,4 v 11 l 1,3 h 2 l -1,6 2,-1 4,3 1,-1 v 9 l 2,4 h 3 l 2,2 v 4 h 3 l 3,-1 1,-4 9,-3 2,1 16,-9 7,-1 3,-7 -1,-2 5,-5 1,-8 4,-2 1,-3 9,-7 1,-8 13,-2 -5,-8 1,-1 3,3 z m -16,27 3,-1 v -2 l -1,-1 -2,3 z m -11,6 h 1 z"
     id="211400" />
</svg>
