<?xml version="1.0" encoding="UTF-8" standalone="no"?>
<svg
   pointer-events="none"
   class="leaflet-zoom-animated"
   width="1111"
   height="640"
   viewBox="-93 -53 1111 640"
   style="transform: translate3d(-93px, -53px, 0px);"
   version="1.1"
   id="svg1"
   sodipodi:docname="重庆市.svg"
   inkscape:version="1.4 (86a8ad7, 2024-10-11)"
   xmlns:inkscape="http://www.inkscape.org/namespaces/inkscape"
   xmlns:sodipodi="http://sodipodi.sourceforge.net/DTD/sodipodi-0.dtd"
   xmlns="http://www.w3.org/2000/svg"
   xmlns:svg="http://www.w3.org/2000/svg">
  <defs
     id="defs1" />
  <sodipodi:namedview
     id="namedview1"
     pagecolor="#ffffff"
     bordercolor="#000000"
     borderopacity="0.25"
     inkscape:showpageshadow="2"
     inkscape:pageopacity="0.0"
     inkscape:pagecheckerboard="0"
     inkscape:deskcolor="#d1d1d1"
     inkscape:zoom="1.2140625"
     inkscape:cx="555.57272"
     inkscape:cy="320"
     inkscape:window-width="1920"
     inkscape:window-height="991"
     inkscape:window-x="-9"
     inkscape:window-y="-9"
     inkscape:window-maximized="1"
     inkscape:current-layer="svg1" />
  <g
     id="500000">
    <path
       class="leaflet-interactive"
       stroke="black"
       stroke-opacity="1"
       stroke-width="2"
       stroke-linecap="round"
       stroke-linejoin="round"
       fill="#fff"
       fill-opacity="0.2"
       fill-rule="evenodd"
       d="M565 442L566 447L568 448L569 461L572 464L568 469L568 476L579 481L582 481L582 479L588 477L592 480L593 479L594 481L591 484L592 490L589 491L592 503L589 505L589 510L594 512L598 510L596 508L597 506L600 505L595 498L596 496L599 496L601 494L605 498L604 499L607 500L606 506L608 506L606 514L602 516L606 526L610 520L614 525L620 523L621 526L628 529L630 523L634 526L636 525L635 518L638 517L641 510L641 502L642 503L645 497L652 494L652 490L657 485L655 481L651 483L649 481L646 484L644 482L646 479L652 476L650 474L655 469L649 465L649 454L651 451L651 447L657 437L655 434L649 433L649 429L644 424L641 424L637 419L640 414L639 412L637 412L638 404L635 401L631 401L631 404L628 404L625 408L620 408L622 399L615 393L617 390L617 384L620 382L618 381L618 379L615 379L617 377L613 373L612 374L612 372L611 375L608 376L607 374L609 374L609 372L606 369L605 370L608 374L605 374L601 371L601 369L599 370L598 358L596 353L591 351L584 362L586 363L584 366L582 366L582 368L581 366L576 364L577 362L574 360L574 356L570 356L570 354L576 350L579 352L582 350L583 351L583 345L586 338L584 332L585 331L583 332L588 322L587 320L589 312L589 310L586 309L578 299L577 300L573 298L573 296L575 296L576 293L574 291L574 287L583 284L584 286L586 285L588 288L592 284L591 283L596 281L595 278L597 275L599 275L600 280L604 285L608 283L610 285L613 284L624 271L626 272L632 268L634 270L638 269L639 271L637 278L641 282L655 271L656 273L657 272L660 279L658 282L659 285L661 285L667 274L676 267L676 270L679 269L681 267L681 264L688 259L687 257L693 255L694 251L709 242L715 245L716 243L718 244L720 250L723 253L726 253L732 243L732 237L734 234L731 233L731 228L729 228L731 225L729 222L732 219L735 219L735 216L737 215L735 213L732 198L733 196L731 192L732 191L728 188L723 188L717 181L714 182L713 181L717 177L713 178L713 176L709 176L704 172L700 174L694 173L693 172L697 167L695 165L694 158L690 155L684 156L677 154L655 156L651 151L651 149L653 149L652 147L645 144L645 140L639 137L634 131L626 127L616 125L613 121L608 120L603 113L598 114L592 108L590 108L590 106L587 106L583 103L580 105L573 104L571 106L578 115L576 118L568 118L570 120L566 123L570 126L568 128L564 125L561 128L562 134L564 134L567 140L572 141L572 143L579 146L578 147L580 149L581 148L585 151L582 153L584 154L583 158L586 160L581 162L579 166L577 164L575 165L571 171L571 174L568 174L566 178L554 179L554 182L557 183L555 190L551 192L553 196L544 204L538 205L539 208L543 207L545 210L541 215L542 216L537 220L539 222L539 225L542 226L537 229L535 233L531 233L532 240L536 241L523 254L514 250L515 246L513 244L506 247L503 251L500 248L493 249L492 247L489 249L491 252L487 255L488 256L486 255L486 258L484 258L487 265L492 269L490 274L484 280L486 281L484 283L483 282L478 289L476 294L477 295L469 307L469 310L455 325L455 328L454 327L452 329L453 331L451 333L449 331L449 334L447 333L444 328L441 330L441 333L438 334L433 334L431 332L430 334L422 335L418 329L418 325L415 319L413 319L413 317L412 318L412 309L410 306L405 304L401 307L394 305L395 306L393 307L394 308L392 308L393 310L391 312L389 310L390 312L382 312L381 316L380 317L380 315L378 315L379 316L376 319L376 316L374 316L373 313L371 313L371 308L369 304L368 305L366 303L367 305L364 305L362 301L361 302L356 298L349 298L347 296L345 297L346 295L343 295L343 297L343 294L340 296L338 291L336 292L335 295L333 295L332 300L330 302L331 304L328 303L328 308L330 308L330 310L325 311L324 309L320 308L321 314L324 315L322 315L322 318L313 318L312 320L314 322L315 320L318 321L315 323L318 326L322 327L322 329L325 330L328 334L329 333L332 335L328 345L330 351L328 354L320 353L317 356L317 360L315 362L316 363L314 366L313 365L311 370L311 368L308 367L306 368L307 370L302 370L300 372L299 371L297 377L296 376L293 380L293 378L290 384L293 390L293 395L299 395L300 396L297 398L301 398L304 400L304 402L301 405L303 409L305 408L307 410L305 412L310 412L311 414L318 413L319 415L321 413L324 415L324 413L328 411L326 414L328 417L327 421L330 428L332 428L330 429L332 435L331 438L333 440L333 443L337 447L335 448L336 449L343 449L346 452L346 450L352 445L353 446L353 444L356 447L358 446L359 452L360 450L364 452L370 450L372 451L378 457L377 464L379 465L379 469L381 470L382 476L384 477L382 478L386 485L385 489L387 491L391 486L398 491L400 489L397 485L400 485L401 487L402 486L399 483L400 477L403 476L401 474L401 471L396 467L395 463L397 460L396 459L398 459L399 462L406 468L405 470L407 473L410 475L411 474L410 475L414 478L411 479L411 487L408 491L405 492L406 495L408 495L408 493L412 493L413 496L417 495L417 498L419 499L422 497L420 492L421 489L425 487L423 482L430 484L434 477L435 474L432 473L433 472L429 467L431 465L438 462L441 465L444 465L444 457L447 454L449 454L449 456L451 455L450 453L452 454L452 456L454 453L459 455L463 453L463 458L466 459L465 465L468 467L469 463L475 462L477 460L476 458L479 458L481 456L484 449L486 448L482 445L482 443L479 442L481 438L479 432L483 432L484 429L482 422L488 421L487 423L490 424L496 419L498 420L498 424L500 426L505 425L509 427L512 424L511 423L514 421L518 427L517 437L520 438L519 443L522 446L524 446L526 441L528 441L530 438L539 438L543 433L550 436L554 434L557 437L557 439L560 437L561 432L564 433L564 441zM637 276L637 273L635 274L637 276zM316 324L316 324zM636 276L637 277zM451 333L450 333z"
       id="重庆市" />
    <path
       class="leaflet-interactive"
       stroke="#333"
       stroke-opacity="1"
       stroke-width="1"
       stroke-linecap="round"
       stroke-linejoin="round"
       stroke-dasharray="1,6"
       fill="#eee"
       fill-opacity="0.5"
       fill-rule="evenodd"
       d="M565 442L566 447L568 448L569 461L572 464L568 469L568 476L579 481L582 481L582 479L588 477L592 480L593 479L594 481L591 484L592 490L589 491L592 503L589 505L589 510L594 512L598 510L596 508L597 506L600 505L595 498L596 496L599 496L601 494L605 498L604 499L607 500L606 506L608 506L606 514L602 516L606 526L610 520L614 525L620 523L621 526L628 529L630 523L634 526L636 525L635 518L638 517L641 510L641 502L642 503L645 497L652 494L652 490L657 485L655 481L651 483L649 481L646 484L644 482L646 479L652 476L650 474L655 469L649 465L649 454L651 451L651 447L657 437L655 434L649 433L649 429L644 424L641 424L637 419L640 414L639 412L637 412L638 404L635 401L631 401L631 404L628 404L625 408L620 408L622 399L615 393L617 390L617 384L620 382L618 381L618 379L615 379L617 377L613 373L612 374L612 372L611 375L608 376L607 374L609 374L609 372L606 369L605 370L608 374L605 374L601 371L601 369L599 370L598 358L596 353L591 351L584 362L586 363L584 366L582 366L582 368L581 366L576 364L577 362L574 360L574 356L570 356L570 354L576 350L579 352L582 350L583 351L583 345L586 338L584 332L585 331L583 332L588 322L587 320L589 312L589 310L586 309L578 299L577 300L573 298L573 296L575 296L576 293L574 291L574 287L583 284L584 286L586 285L588 288L592 284L591 283L596 281L595 278L597 275L599 275L600 280L604 285L608 283L610 285L613 284L624 271L626 272L632 268L634 270L638 269L639 271L637 278L641 282L655 271L656 273L657 272L660 279L658 282L659 285L661 285L667 274L676 267L676 270L679 269L681 267L681 264L688 259L687 257L693 255L694 251L709 242L715 245L716 243L718 244L720 250L723 253L726 253L732 243L732 237L734 234L731 233L731 228L729 228L731 225L729 222L732 219L735 219L735 216L737 215L735 213L732 198L733 196L731 192L732 191L728 188L723 188L717 181L714 182L713 181L717 177L713 178L713 176L709 176L704 172L700 174L694 173L693 172L697 167L695 165L694 158L690 155L684 156L677 154L655 156L651 151L651 149L653 149L652 147L645 144L645 140L639 137L634 131L626 127L616 125L613 121L608 120L603 113L598 114L592 108L590 108L590 106L587 106L583 103L580 105L573 104L571 106L578 115L576 118L568 118L570 120L566 123L570 126L568 128L564 125L561 128L562 134L564 134L567 140L572 141L572 143L579 146L578 147L580 149L581 148L585 151L582 153L584 154L583 158L586 160L581 162L579 166L577 164L575 165L571 171L571 174L568 174L566 178L554 179L554 182L557 183L555 190L551 192L553 196L544 204L538 205L539 208L543 207L545 210L541 215L542 216L537 220L539 222L539 225L542 226L537 229L535 233L531 233L532 240L536 241L523 254L514 250L515 246L513 244L506 247L503 251L500 248L493 249L492 247L489 249L491 252L487 255L488 256L486 255L486 258L484 258L487 265L492 269L490 274L484 280L486 281L484 283L483 282L478 289L476 294L477 295L469 307L469 310L455 325L455 328L454 327L452 329L453 331L451 333L449 331L449 334L447 333L444 328L441 330L441 333L438 334L433 334L431 332L430 334L422 335L418 329L418 325L415 319L413 319L413 317L412 318L412 309L410 306L405 304L401 307L394 305L395 306L393 307L394 308L392 308L393 310L391 312L389 310L390 312L382 312L381 316L380 317L380 315L378 315L379 316L376 319L376 316L374 316L373 313L371 313L371 308L369 304L368 305L366 303L367 305L364 305L362 301L361 302L356 298L349 298L347 296L345 297L346 295L343 295L343 297L343 294L340 296L338 291L336 292L335 295L333 295L332 300L330 302L331 304L328 303L328 308L330 308L330 310L325 311L324 309L320 308L321 314L324 315L322 315L322 318L313 318L312 320L314 322L315 320L318 321L315 323L318 326L322 327L322 329L325 330L328 334L329 333L332 335L328 345L330 351L328 354L320 353L317 356L317 360L315 362L316 363L314 366L313 365L311 370L311 368L308 367L306 368L307 370L302 370L300 372L299 371L297 377L296 376L293 380L293 378L290 384L293 390L293 395L299 395L300 396L297 398L301 398L304 400L304 402L301 405L303 409L305 408L307 410L305 412L310 412L311 414L318 413L319 415L321 413L324 415L324 413L328 411L326 414L328 417L327 421L330 428L332 428L330 429L332 435L331 438L333 440L333 443L337 447L335 448L336 449L343 449L346 452L346 450L352 445L353 446L353 444L356 447L358 446L359 452L360 450L364 452L370 450L372 451L378 457L377 464L379 465L379 469L381 470L382 476L384 477L382 478L386 485L385 489L387 491L391 486L398 491L400 489L397 485L400 485L401 487L402 486L399 483L400 477L403 476L401 474L401 471L396 467L395 463L397 460L396 459L398 459L399 462L406 468L405 470L407 473L410 475L411 474L410 475L414 478L411 479L411 487L408 491L405 492L406 495L408 495L408 493L412 493L413 496L417 495L417 498L419 499L422 497L420 492L421 489L425 487L423 482L430 484L434 477L435 474L432 473L433 472L429 467L431 465L438 462L441 465L444 465L444 457L447 454L449 454L449 456L451 455L450 453L452 454L452 456L454 453L459 455L463 453L463 458L466 459L465 465L468 467L469 463L475 462L477 460L476 458L479 458L481 456L484 449L486 448L482 445L482 443L479 442L481 438L479 432L483 432L484 429L482 422L488 421L487 423L490 424L496 419L498 420L498 424L500 426L505 425L509 427L512 424L511 423L514 421L518 427L517 437L520 438L519 443L522 446L524 446L526 441L528 441L530 438L539 438L543 433L550 436L554 434L557 437L557 439L560 437L561 432L564 433L564 441zM637 276L637 273L635 274L637 276zM316 324L316 324zM636 276L637 277zM451 333L450 333z"
       id="path1" />
  </g>
</svg>
