<?xml version="1.0" encoding="UTF-8" standalone="no"?>
<svg
   pointer-events="none"
   class="leaflet-zoom-animated"
   width="1135"
   height="626"
   viewBox="-95 -52 1135 626"
   style="transform: translate3d(-95px, -52px, 0px);"
   version="1.1"
   id="svg1"
   sodipodi:docname="重庆市.svg"
   inkscape:version="1.4 (86a8ad7, 2024-10-11)"
   xmlns:inkscape="http://www.inkscape.org/namespaces/inkscape"
   xmlns:sodipodi="http://sodipodi.sourceforge.net/DTD/sodipodi-0.dtd"
   xmlns="http://www.w3.org/2000/svg"
   xmlns:svg="http://www.w3.org/2000/svg">
  <defs
     id="defs1" />
  <sodipodi:namedview
     id="namedview1"
     pagecolor="#ffffff"
     bordercolor="#000000"
     borderopacity="0.25"
     inkscape:showpageshadow="2"
     inkscape:pageopacity="0.0"
     inkscape:pagecheckerboard="0"
     inkscape:deskcolor="#d1d1d1"
     inkscape:zoom="7.021367"
     inkscape:cx="567.76693"
     inkscape:cy="407.82657"
     inkscape:window-width="1920"
     inkscape:window-height="991"
     inkscape:window-x="-9"
     inkscape:window-y="1341"
     inkscape:window-maximized="1"
     inkscape:current-layer="svg1" />
  <path
     class="leaflet-interactive"
     stroke="#000000"
     stroke-opacity="1"
     stroke-width="2"
     stroke-linecap="round"
     stroke-linejoin="round"
     fill="#ffffff"
     fill-opacity="0.2"
     fill-rule="evenodd"
     d="m 559,400 3,4 v 8 l 2,2 -3,8 1,2 8,3 6,-3 4,2 -2,4 1,3 -3,1 3,9 h -2 v 5 h 6 l -1,-3 2,-1 v -2 l -3,-3 3,-1 1,-2 3,3 -1,1 3,2 -2,3 h 2 l -2,4 1,1 -3,2 3,7 v -2 l 3,-2 1,3 6,-1 v 2 l 4,2 3,-4 3,2 v -5 l 5,-7 -1,-1 3,-7 5,-2 v -4 l 3,-3 -1,-3 h -4 l -2,2 -2,-2 5,-3 v -2 l 3,-2 v -2 l -4,-2 v -8 l 5,-12 -6,-5 -1,-3 -3,-2 -1,1 -2,-3 2,-4 -5,-10 -2,1 v 2 l -7,2 1,-5 -2,-3 h -2 l -1,-3 2,-2 -1,-2 2,-3 -3,-2 2,-2 h -3 l -1,-3 -3,3 v -5 h -2 v 4 l -3,-3 1,-1 h -3 l 1,-3 -2,-8 -3,-2 -6,8 2,2 -3,2 -4,-2 v -2 l -2,-1 1,-2 -2,-2 -2,1 v -2 l 4,-3 6,2 v -15 l 3,-6 -1,-2 2,-6 -4,-3 v -2 l -8,-4 2,-3 -1,-4 1,-2 4,-1 4,1 1,2 6,-9 h 2 l 1,5 2,2 3,-2 3,1 5,-6 9,-5 5,1 -2,5 2,3 4,-1 7,-6 4,5 -2,3 1,2 9,-11 3,-2 v 2 l 4,-2 v -2 l 4,-2 v -3 l 15,-11 8,2 v 4 h 2 l 1,2 2,-1 5,-12 v -2 l -2,1 -1,-7 2,-3 h 2 l 1,-3 -2,-3 1,-1 -3,-14 -5,-1 -5,-5 -2,1 -1,-1 3,-3 h -6 l -3,-3 -7,1 -1,-1 3,-4 -2,-1 v -5 l -3,-2 -7,-1 h -8 l -4,2 -6,-1 -3,-4 2,-1 -5,-3 v -2 l -11,-9 -6,-2 -3,1 -4,-5 h -3 l -2,-4 h -5 l -11,-8 -2,2 -4,-2 -2,2 4,8 -6,1 v 7 l -3,-2 -3,1 2,5 5,5 1,-1 1,3 h 4 v 2 l 5,3 -2,1 3,6 -1,-1 -5,4 -1,-1 -4,4 1,2 -3,1 v 2 l -8,1 -2,3 h 2 l -1,4 -3,3 v 4 l -9,5 v 2 l 3,-1 1,3 -5,7 1,3 h 2 v 2 l -8,5 1,4 3,1 -2,2 -7,6 -5,-2 -1,1 v -4 l -2,-2 -6,6 -4,-3 -6,1 1,3 -5,4 3,3 -1,2 4,2 -5,8 1,1 -3,1 -12,23 -9,9 v 2 l -3,1 1,1 h -2 l -2,-4 -2,4 -1,-1 -2,2 -4,-2 -7,2 -4,-10 -3,-3 -1,-3 2,-2 -5,-4 -4,2 -3,-1 -2,4 h -5 l -2,2 -1,-1 v 2 l -4,2 v -2 l -4,-2 -1,-6 h -4 v -2 l -2,1 -4,-4 -4,1 -2,-2 h -4 l -2,-3 -2,3 -1,-1 -2,7 h -2 l 2,4 -4,1 -4,-2 1,4 2,1 -1,2 h -7 l 1,3 2,-2 1,1 -2,2 5,2 -1,1 2,2 1,-1 1,3 2,-1 v 2 h 2 l -2,2 -1,5 2,4 -2,2 h -6 l -2,2 -1,6 -3,2 1,1 -4,-2 v 4 l -4,-1 -3,5 -1,-1 -3,3 1,1 -2,2 3,6 -1,1 h 4 v 2 l 4,2 -2,6 3,-1 v 3 h 3 l 1,2 5,-1 v 2 l 2,-2 2,2 v -2 l 3,-2 v 10 l 1,3 h 2 l -2,2 2,2 -1,3 4,6 -1,1 h 6 l 2,3 v -2 l 5,-4 4,3 v 2 l 1,-1 2,2 h 3 l 2,-2 6,6 -2,2 4,8 v 4 l 3,4 v 5 h 2 l 1,-2 7,2 -2,-5 3,2 -2,-2 1,-5 h 2 l -1,-4 -4,-3 1,-5 3,4 3,1 1,4 2,2 1,-1 v 3 h 2 l -3,1 2,1 -1,2 -1,-1 v 4 l -2,3 -1,-1 v 2 l 2,1 v -2 l 3,3 3,-1 1,3 3,-1 -2,-4 2,-3 h 2 l -1,-4 1,-1 2,3 1,-3 h 2 l 1,-2 1,-3 h -2 l -2,-5 6,-4 2,3 h 2 v -6 h 2 v -2 l 2,2 1,-3 v 2 l 9,-1 v 3 l 2,1 -1,3 2,2 2,-3 4,-2 -1,-1 h 4 l 3,-7 -2,-4 -3,-1 2,-2 -1,-4 3,-1 1,-2 -2,-1 2,-4 h 2 v 2 l 6,-4 3,6 v -2 l 6,2 3,-3 3,3 v 7 l 2,1 -1,4 2,1 h 2 l 1,-3 h 2 l 1,-2 h 6 l 3,-4 5,3 3,-2 3,3 3,-4 1,6 z m 52,-118 v -2 l -2,1 1,1 z m -227,34 h -1 z m 226,-34 1,1 z m -131,40 v 1 z"
     id="重庆市" />
  <path
     class="leaflet-interactive"
     stroke="#333333"
     stroke-opacity="1"
     stroke-width="1"
     stroke-linecap="round"
     stroke-linejoin="round"
     stroke-dasharray="1, 6"
     fill="#eeeeee"
     fill-opacity="0.5"
     fill-rule="evenodd"
     d="m 542,283 h 3 l 1,-2 2,1 -1,1 h 2 l 2,5 h 2 l 2,5 -1,1 4,2 7,-11 v 2 h 2 l -1,2 5,-1 4,1 1,2 6,-9 h 2 l 1,5 2,2 3,-2 3,1 5,-6 -3,-2 2,-5 h -7 l -3,-10 h -2 l -4,-6 h -2 v -2 h -3 l -3,-4 1,-2 h -2 v 2 h -3 v -2 h -4 l -3,3 v 3 l -7,3 -4,4 h -5 v -4 h -4 l -3,-3 -8,8 6,7 h 7 l 1,3 -4,2 v 5 z"
     id="500101" />
  <path
     class="leaflet-interactive"
     stroke="#333333"
     stroke-opacity="1"
     stroke-width="1"
     stroke-linecap="round"
     stroke-linejoin="round"
     stroke-dasharray="1, 6"
     fill="#eeeeee"
     fill-opacity="0.5"
     fill-rule="evenodd"
     d="m 520,354 1,-2 -2,-2 -1,1 -2,-3 v -9 l -1,1 -1,-2 1,-2 -3,-7 h -4 l -4,-4 -9,12 h -5 l -3,4 -7,2 -3,4 h -2 l -3,15 5,4 1,6 2,1 6,-5 2,2 v 3 l 2,-1 v -4 h 2 l 5,-7 3,-1 3,2 v 2 l 2,-2 4,6 4,-4 h 2 l -1,-4 h 2 l 4,-5 z"
     id="500102" />
  <path
     class="leaflet-interactive"
     stroke="#333333"
     stroke-opacity="1"
     stroke-width="1"
     stroke-linecap="round"
     stroke-linejoin="round"
     stroke-dasharray="1, 6"
     fill="#eeeeee"
     fill-opacity="0.5"
     fill-rule="evenodd"
     d="m 449,357 -7,2 3,2 4,-3 z"
     id="渝中区" />
  <path
     class="leaflet-interactive"
     stroke="#333333"
     stroke-opacity="1"
     stroke-width="1"
     stroke-linecap="round"
     stroke-linejoin="round"
     stroke-dasharray="1, 6"
     fill="#eeeeee"
     fill-opacity="0.5"
     fill-rule="evenodd"
     d="m 438,368 h -2 l 1,6 5,-4 3,1 -3,-8 -2,1 v 4 l -2,1 z"
     id="500104" />
  <path
     class="leaflet-interactive"
     stroke="#333333"
     stroke-opacity="1"
     stroke-width="1"
     stroke-linecap="round"
     stroke-linejoin="round"
     stroke-dasharray="1, 6"
     fill="#eeeeee"
     fill-opacity="0.5"
     fill-rule="evenodd"
     d="m 440,355 2,4 6,-1 v -2 l 3,-2 v 2 h 2 l 1,2 6,-4 5,3 3,-6 -2,1 -3,-1 1,-1 -2,-1 -3,2 -1,-1 v 2 l -2,1 -6,-1 -4,5 h -3 l -1,-3 -1,1 z"
     id="500105" />
  <path
     class="leaflet-interactive"
     stroke="#333333"
     stroke-opacity="1"
     stroke-width="1"
     stroke-linecap="round"
     stroke-linejoin="round"
     stroke-dasharray="1, 6"
     fill="#eeeeee"
     fill-opacity="0.5"
     fill-rule="evenodd"
     d="m 442,359 -2,-2 1,-5 -1,-2 -2,1 1,-6 h -9 l -3,15 1,1 6,-3 4,5 4,-3 z"
     id="500106" />
  <path
     class="leaflet-interactive"
     stroke="#333333"
     stroke-opacity="1"
     stroke-width="1"
     stroke-linecap="round"
     stroke-linejoin="round"
     stroke-dasharray="1, 6"
     fill="#eeeeee"
     fill-opacity="0.5"
     fill-rule="evenodd"
     d="m 427,360 v 5 l 5,5 -2,2 -1,-1 -2,4 3,6 6,-3 v -11 l 4,2 1,-5 1,-1 4,2 v -2 l -4,-4 -4,4 -1,-3 h -2 l -1,-2 -6,3 z m 11,8 z m -1,-1 z"
     id="500107" />
  <path
     class="leaflet-interactive"
     stroke="#333333"
     stroke-opacity="1"
     stroke-width="1"
     stroke-linecap="round"
     stroke-linejoin="round"
     stroke-dasharray="1, 6"
     fill="#eeeeee"
     fill-opacity="0.5"
     fill-rule="evenodd"
     d="m 462,356 -2,-2 -5,4 -4,-2 v -2 h -2 l -1,5 -3,2 3,4 6,1 1,-3 3,1 3,-7 z"
     id="500108" />
  <path
     class="leaflet-interactive"
     stroke="#333333"
     stroke-opacity="1"
     stroke-width="1"
     stroke-linecap="round"
     stroke-linejoin="round"
     stroke-dasharray="1, 6"
     fill="#eeeeee"
     fill-opacity="0.5"
     fill-rule="evenodd"
     d="m 452,319 -5,6 -1,5 -4,2 -2,3 v -4 l -3,3 -1,-3 -5,3 1,3 3,2 -5,6 2,1 6,-2 v 7 h 2 l 1,-3 h 3 l 1,-6 v 2 l 5,-1 v -3 h -2 l 5,-5 2,-5 -1,1 v -10 z"
     id="500109" />
  <path
     class="leaflet-interactive"
     stroke="#333333"
     stroke-opacity="1"
     stroke-width="1"
     stroke-linecap="round"
     stroke-linejoin="round"
     stroke-dasharray="1, 6"
     fill="#eeeeee"
     fill-opacity="0.5"
     fill-rule="evenodd"
     d="m 479,407 v -3 l -3,-1 1,-3 -3,-3 v -2 l -5,1 1,-4 -3,-4 -1,1 -4,-3 -2,2 -5,-2 -7,4 v 6 l 2,2 -1,1 h -2 l -5,-6 -1,5 -2,-1 2,-1 -5,2 -1,-1 2,4 v 7 l 7,8 3,1 1,4 2,2 1,-1 v 3 h 2 l -3,1 2,1 -1,2 -1,-1 v 4 l -2,3 -1,-1 v 2 l 2,1 v -2 l 3,3 3,-1 1,3 3,-1 -2,-4 2,-3 h 2 l -1,-4 1,-1 2,3 1,-3 h 2 l 1,-2 1,-3 h -2 l -2,-5 6,-4 2,3 h 2 v -6 h 2 v -2 l 2,2 v -2 z"
     id="500110" />
  <path
     class="leaflet-interactive"
     stroke="#333333"
     stroke-opacity="1"
     stroke-width="1"
     stroke-linecap="round"
     stroke-linejoin="round"
     stroke-dasharray="1, 6"
     fill="#eeeeee"
     fill-opacity="0.5"
     fill-rule="evenodd"
     d="m 377,349 2,6 2,2 3,-1 v 5 l 3,3 1,-2 v 2 l 3,3 1,-2 2,2 -1,3 3,2 4,-11 3,-1 10,-14 -3,-4 -6,-2 -2,4 h -2 l -4,-4 -3,1 1,-4 -4,-1 -6,3 -1,6 -3,2 1,1 -4,-2 v 2 z"
     id="500111" />
  <path
     class="leaflet-interactive"
     stroke="#333333"
     stroke-opacity="1"
     stroke-width="1"
     stroke-linecap="round"
     stroke-linejoin="round"
     stroke-dasharray="1, 6"
     fill="#eeeeee"
     fill-opacity="0.5"
     fill-rule="evenodd"
     d="m 468,351 1,-2 h 2 l 2,-6 -2,-6 3,-7 -8,-3 -1,-5 -7,2 -4,-8 v 17 l -6,7 h 2 v 3 h -5 l -2,6 h -3 v 6 l 2,-1 1,3 h 3 l 3,-5 6,1 3,-3 3,1 1,-2 4,3 1,-1 z"
     id="500112" />
  <path
     class="leaflet-interactive"
     stroke="#333333"
     stroke-opacity="1"
     stroke-width="1"
     stroke-linecap="round"
     stroke-linejoin="round"
     stroke-dasharray="1, 6"
     fill="#eeeeee"
     fill-opacity="0.5"
     fill-rule="evenodd"
     d="m 446,364 h -2 l -1,3 2,4 -2,-1 -4,3 h 2 l 1,5 4,6 v 5 l 3,1 6,-4 h 2 l 1,2 4,-2 6,3 v -4 l 2,1 3,-2 -3,-7 v -7 l 5,-25 -2,-2 -2,6 h -2 l -4,8 h -4 l -3,7 -3,-1 -1,3 -7,-2 z"
     id="500113" />
  <path
     class="leaflet-interactive"
     stroke="#333333"
     stroke-opacity="1"
     stroke-width="1"
     stroke-linecap="round"
     stroke-linejoin="round"
     stroke-dasharray="1, 6"
     fill="#eeeeee"
     fill-opacity="0.5"
     fill-rule="evenodd"
     d="m 575,389 3,3 -1,1 2,-2 v 3 h 3 v -2 l 2,-1 v 2 l 2,1 4,-4 4,2 3,-8 3,-2 1,-3 -3,-1 2,-8 -2,-3 h -2 l -1,-3 2,-2 -1,-2 2,-3 -3,-2 2,-2 h -3 l -1,-3 -3,3 v -5 h -2 v 4 l -3,-3 1,-1 -2,1 -2,-12 -3,-2 -6,8 2,2 -3,2 1,1 -2,4 4,6 -4,4 5,1 2,4 -3,4 v 6 l 2,1 -2,5 1,5 z"
     id="500114" />
  <path
     class="leaflet-interactive"
     stroke="#333333"
     stroke-opacity="1"
     stroke-width="1"
     stroke-linecap="round"
     stroke-linejoin="round"
     stroke-dasharray="1, 6"
     fill="#eeeeee"
     fill-opacity="0.5"
     fill-rule="evenodd"
     d="m 473,343 2,1 v 3 h 2 l 4,-4 1,1 5,-3 2,-4 4,1 3,-2 8,-10 1,-2 -2,-1 -4,5 h -3 l -2,-6 -3,-2 3,-2 v -5 l -2,-3 -2,-1 -10,10 v 2 l -3,1 1,1 h -2 l -2,-4 -2,4 h -6 v 4 h 5 l 2,3 -2,6 v 6 h 2 z m 6,-21 v 1 z"
     id="500115" />
  <path
     class="leaflet-interactive"
     stroke="#333333"
     stroke-opacity="1"
     stroke-width="1"
     stroke-linecap="round"
     stroke-linejoin="round"
     stroke-dasharray="1, 6"
     fill="#eeeeee"
     fill-opacity="0.5"
     fill-rule="evenodd"
     d="m 400,404 h 3 l 2,3 v -2 l 5,-4 4,3 v 2 l 1,-1 2,2 h 3 l 2,-2 6,6 -2,2 4,8 v 4 l 3,4 v 5 h 2 l 1,-2 7,2 -2,-5 3,2 -2,-2 1,-5 h 2 l -1,-4 -4,-3 1,-5 -4,-3 v -8 l -2,-4 1,1 2,-2 h 3 l -2,1 2,2 1,-6 5,6 3,-1 -2,-2 1,-1 -3,-6 v -5 l -4,-6 -1,-5 -4,1 -2,2 1,2 -5,3 -3,-6 1,-4 1,1 2,-2 -4,-4 -6,11 -4,2 -3,-3 h -2 v 5 l -8,11 1,3 -5,4 1,1 -3,3 z"
     id="500116" />
  <path
     class="leaflet-interactive"
     stroke="#333333"
     stroke-opacity="1"
     stroke-width="1"
     stroke-linecap="round"
     stroke-linejoin="round"
     stroke-dasharray="1, 6"
     fill="#eeeeee"
     fill-opacity="0.5"
     fill-rule="evenodd"
     d="m 452,319 2,-1 v -4 l -4,-6 2,-2 -5,-4 -4,2 -3,-1 -2,4 h -5 l -2,2 -1,-1 v 2 l -4,2 v -2 l -4,-2 -1,-6 h -4 v -2 l -2,1 -4,-4 -1,1 -1,7 3,1 h -2 l -1,2 3,3 -3,1 2,4 -2,5 2,3 1,-1 2,2 h -2 l 1,1 h 6 l -1,3 3,3 3,-2 4,4 1,-1 -1,4 7,-6 2,3 3,-3 v 4 l 1,-3 6,-4 4,-8 z m -26,13 z"
     id="500117" />
  <path
     class="leaflet-interactive"
     stroke="#333333"
     stroke-opacity="1"
     stroke-width="1"
     stroke-linecap="round"
     stroke-linejoin="round"
     stroke-dasharray="1, 6"
     fill="#eeeeee"
     fill-opacity="0.5"
     fill-rule="evenodd"
     d="m 389,379 3,-2 v 10 l 1,3 h 2 l -2,2 2,2 -1,3 4,6 -1,1 h 3 l -1,-1 3,-3 -1,-1 5,-4 -1,-3 8,-11 3,-21 -6,1 v -2 l -4,1 -2,-1 v -2 l -5,5 -3,10 -3,-1 -6,5 1,3 z"
     id="500118" />
  <path
     class="leaflet-interactive"
     stroke="#333333"
     stroke-opacity="1"
     stroke-width="1"
     stroke-linecap="round"
     stroke-linejoin="round"
     stroke-dasharray="1, 6"
     fill="#eeeeee"
     fill-opacity="0.5"
     fill-rule="evenodd"
     d="m 479,407 v 2 l 9,-1 v 3 l 2,1 -1,3 2,2 2,-3 4,-2 -1,-1 h 4 l 3,-7 -2,-4 -3,-1 2,-2 -1,-4 3,-1 1,-2 -2,-1 1,-1 -2,-4 2,-4 -3,-3 v -3 l -3,1 -4,-4 -4,2 v -4 l -3,-1 -4,5 -3,-1 -1,-7 -5,-2 -2,16 3,5 -2,2 -2,-1 -1,4 2,3 -1,4 h 2 l 1,-2 5,7 v 3 h 2 l -1,1 z"
     id="500119" />
  <path
     class="leaflet-interactive"
     stroke="#333333"
     stroke-opacity="1"
     stroke-width="1"
     stroke-linecap="round"
     stroke-linejoin="round"
     stroke-dasharray="1, 6"
     fill="#eeeeee"
     fill-opacity="0.5"
     fill-rule="evenodd"
     d="m 427,360 3,-15 5,-6 -3,-1 1,-1 -2,-3 -9,9 v 6 l -3,3 -3,7 -1,12 -2,5 h 2 l 3,3 7,-6 3,-7 -1,-5 z"
     id="500120" />
  <path
     class="leaflet-interactive"
     stroke="#333333"
     stroke-opacity="1"
     stroke-width="1"
     stroke-linecap="round"
     stroke-linejoin="round"
     stroke-dasharray="1, 6"
     fill="#eeeeee"
     fill-opacity="0.5"
     fill-rule="evenodd"
     d="m 409,321 -4,-2 -1,3 h -2 v 3 l 5,5 v 4 h -8 l -3,6 4,4 h 2 l 2,-3 8,3 1,2 -9,11 1,3 5,-1 v 2 h 2 l 5,-3 2,-6 3,-3 -1,-6 5,-3 3,-7 -1,1 -4,-4 -5,1 v -4 l -2,-2 -5,1 2,-1 -5,-3 z m 17,11 z m -5,-1 z"
     id="500151" />
  <path
     class="leaflet-interactive"
     stroke="#333333"
     stroke-opacity="1"
     stroke-width="1"
     stroke-linecap="round"
     stroke-linejoin="round"
     stroke-dasharray="1, 6"
     fill="#eeeeee"
     fill-opacity="0.5"
     fill-rule="evenodd"
     d="m 393,336 1,3 -2,2 h 3 l 4,-7 1,1 1,-2 4,1 1,2 1,-6 -5,-7 4,-4 h 4 l 1,-2 -2,-2 v -3 l 3,-1 -2,-3 v -2 h 2 l -3,-1 1,-6 -5,-3 h -4 l -2,-3 -2,3 -1,-1 -2,7 h -2 l 2,4 -4,1 -4,-2 1,4 2,1 -1,2 h -7 l 1,3 2,-2 1,1 -2,2 5,2 -1,1 2,2 1,-1 1,3 2,-1 v 2 h 2 l -2,2 -1,5 2,4 z m -9,-20 h -1 z"
     id="500152" />
  <path
     class="leaflet-interactive"
     stroke="#333333"
     stroke-opacity="1"
     stroke-width="1"
     stroke-linecap="round"
     stroke-linejoin="round"
     stroke-dasharray="1, 6"
     fill="#eeeeee"
     fill-opacity="0.5"
     fill-rule="evenodd"
     d="m 389,379 -2,-3 7,-6 v -3 l -2,-2 -1,2 -2,-1 -1,-3 -1,2 -3,-4 1,-4 h -4 l -4,-8 h -4 l -3,5 -1,-1 -3,3 1,1 -2,2 3,6 -1,1 h 4 v 2 l 4,2 -2,6 3,-1 v 3 h 3 l 1,2 5,-1 v 2 l 2,-2 2,1 z"
     id="500153" />
  <path
     class="leaflet-interactive"
     stroke="#333333"
     stroke-opacity="1"
     stroke-width="1"
     stroke-linecap="round"
     stroke-linejoin="round"
     stroke-dasharray="1, 6"
     fill="#eeeeee"
     fill-opacity="0.5"
     fill-rule="evenodd"
     d="m 574,200 1,1 -1,-1 -5,4 -1,-1 -4,4 1,2 -3,1 v 2 l -8,1 -2,3 h 2 l -1,4 -3,3 v 4 l -9,5 v 2 h 4 l -1,4 -4,5 1,3 h 2 v 2 l -7,4 -1,3 7,6 2,-2 2,1 v 4 h 5 l 4,-5 1,1 6,-3 1,-1 -2,-2 5,-4 4,-1 v -2 l 5,-3 1,-4 2,-1 -1,-3 4,-5 -1,-1 2,-1 -2,-3 5,-1 -1,-3 3,-1 1,-3 -4,-3 v -2 h 4 l 1,-3 8,-6 v -2 l -4,-3 h -4 l -4,5 h -4 l -5,-4 z"
     id="500154" />
  <path
     class="leaflet-interactive"
     stroke="#333333"
     stroke-opacity="1"
     stroke-width="1"
     stroke-linecap="round"
     stroke-linejoin="round"
     stroke-dasharray="1, 6"
     fill="#eeeeee"
     fill-opacity="0.5"
     fill-rule="evenodd"
     d="m 531,265 h -7 v -4 l -2,-2 -6,6 -4,-3 -6,1 1,3 -5,4 3,3 -1,2 4,2 -5,8 1,1 -3,1 3,1 1,2 5,-2 2,2 4,-1 v 2 h 2 v 3 l 5,-7 4,3 v -3 l 3,-3 4,5 h 2 v -2 h 2 l 4,-4 -2,-4 2,-3 h 3 v -4 h -8 l -5,-7 z"
     id="500155" />
  <path
     class="leaflet-interactive"
     stroke="#333333"
     stroke-opacity="1"
     stroke-width="1"
     stroke-linecap="round"
     stroke-linejoin="round"
     stroke-dasharray="1, 6"
     fill="#eeeeee"
     fill-opacity="0.5"
     fill-rule="evenodd"
     d="m 501,386 4,-1 v 2 l 6,-4 3,6 v -2 l 6,2 3,-3 4,6 -1,4 4,1 4,-12 3,1 3,-5 v -5 l -2,-1 2,-13 4,-3 1,-3 -6,-3 -3,2 -1,-4 -4,-1 -2,1 v 6 l -2,2 -3,-2 v -2 l -2,1 -2,-2 -4,6 h -2 l 1,4 h -2 l -3,4 -5,-6 -2,2 v -2 l -3,-2 -3,1 -4,6 -3,1 v 2 l 4,4 6,1 -1,3 3,1 -2,5 z"
     id="500156" />
  <path
     class="leaflet-interactive"
     stroke="#333333"
     stroke-opacity="1"
     stroke-width="1"
     stroke-linecap="round"
     stroke-linejoin="round"
     stroke-dasharray="1, 6"
     fill="#eeeeee"
     fill-opacity="0.5"
     fill-rule="evenodd"
     d="m 622,197 -2,-4 2,-1 -5,-3 v -2 l -11,-9 -6,-2 -3,1 -4,-5 h -3 l -2,-4 h -5 l -11,-8 -2,2 -4,-2 -2,2 4,8 -6,1 v 7 l -3,-2 -3,1 2,5 5,5 1,-1 1,3 h 4 v 2 l 5,3 -2,1 2,5 8,4 5,-1 2,-4 h 4 l 4,3 h 6 l 1,-3 3,-1 10,1 1,-3 3,1 z"
     id="500229" />
  <path
     class="leaflet-interactive"
     stroke="#333333"
     stroke-opacity="1"
     stroke-width="1"
     stroke-linecap="round"
     stroke-linejoin="round"
     stroke-dasharray="1, 6"
     fill="#eeeeee"
     fill-opacity="0.5"
     fill-rule="evenodd"
     d="m 520,354 2,2 2,-1 v 2 l 3,2 2,-2 1,-7 5,1 2,4 1,-2 12,2 v -11 l 1,1 2,-2 -2,-5 h -6 l -2,-2 1,-1 -5,-7 h 2 l -1,-6 -7,-4 -6,-1 2,-3 -3,-3 h -2 l 1,-3 -7,1 v -3 l -2,4 -3,1 v 5 l -4,3 1,1 -4,8 2,1 1,-2 2,3 1,-1 3,7 -2,2 1,2 2,-1 v 9 l 5,4 z"
     id="500230" />
  <path
     class="leaflet-interactive"
     stroke="#333333"
     stroke-opacity="1"
     stroke-width="1"
     stroke-linecap="round"
     stroke-linejoin="round"
     stroke-dasharray="1, 6"
     fill="#eeeeee"
     fill-opacity="0.5"
     fill-rule="evenodd"
     d="m 504,325 h 3 l 3,-5 -1,-1 3,-3 v -3 l 2,-1 -2,-3 -1,2 -1,-1 3,-6 -1,-3 6,-7 v -2 l -2,-1 v -2 l -4,1 -2,-2 -4,2 -5,-3 -11,21 4,5 -2,2 h 2 l -2,5 3,3 -1,3 2,2 h 3 l 4,-5 2,1 z"
     id="500231" />
  <path
     class="leaflet-interactive"
     stroke="#333333"
     stroke-opacity="1"
     stroke-width="1"
     stroke-linecap="round"
     stroke-linejoin="round"
     stroke-dasharray="1, 6"
     fill="#eeeeee"
     fill-opacity="0.5"
     fill-rule="evenodd"
     d="m 554,294 1,-1 -2,-5 h -2 l -4,-7 -1,2 -1,-1 -9,5 v 2 h -2 l -2,-4 -4,-1 -1,6 -3,-3 -11,12 v 5 l -3,7 6,-1 1,-4 2,1 -1,1 3,1 3,-1 v 2 l 5,3 -2,4 h 6 l 3,4 3,1 3,-3 v 2 l 3,-4 -1,-3 2,-4 h 2 l -3,-3 h 2 l 3,-5 -5,-2 3,-1 1,-3 4,-1 z"
     id="500233" />
  <path
     class="leaflet-interactive"
     stroke="#333333"
     stroke-opacity="1"
     stroke-width="1"
     stroke-linecap="round"
     stroke-linejoin="round"
     stroke-dasharray="1, 6"
     fill="#eeeeee"
     fill-opacity="0.5"
     fill-rule="evenodd"
     d="m 598,282 7,-5 v -5 l 2,-1 v -10 h 4 l 3,-6 4,2 -1,-4 3,-4 -2,-2 -7,-1 -2,-5 h -2 v -4 l 3,-1 -2,-6 -2,-1 v -6 l -6,-2 -4,2 1,3 -4,-1 -2,-4 1,-2 -4,-1 -4,4 1,3 -5,1 2,2 -5,8 1,3 -8,8 v 2 l -4,1 3,1 v 2 l 5,-2 1,6 h 5 l -1,2 h 2 l 3,5 3,1 3,10 h 7 l -2,5 z"
     id="500235" />
  <path
     class="leaflet-interactive"
     stroke="#333333"
     stroke-opacity="1"
     stroke-width="1"
     stroke-linecap="round"
     stroke-linejoin="round"
     stroke-dasharray="1, 6"
     fill="#eeeeee"
     fill-opacity="0.5"
     fill-rule="evenodd"
     d="m 610,283 2,3 4,-1 7,-6 4,5 -2,3 1,2 9,-11 3,-2 v 2 l 4,-2 v -2 l 4,-2 -1,-8 -2,-1 v -2 l -3,-1 1,-2 h 2 l -1,-8 6,-3 5,-5 -1,-5 h -7 l -5,-5 -11,1 -4,-7 -4,-2 h -14 l -1,5 4,6 -1,2 h -2 v 4 l 3,1 v 4 h 6 l 4,3 -3,4 1,3 -4,-1 -2,6 h -5 l 1,8 -3,3 v 6 l 6,-1 v 6 z m 0,-1 1,-2 -2,1 z m 0,0 1,1 z"
     id="500236" />
  <path
     class="leaflet-interactive"
     stroke="#333333"
     stroke-opacity="1"
     stroke-width="1"
     stroke-linecap="round"
     stroke-linejoin="round"
     stroke-dasharray="1, 6"
     fill="#eeeeee"
     fill-opacity="0.5"
     fill-rule="evenodd"
     d="m 646,269 15,-11 8,2 v 4 h 2 l 1,2 2,-1 4,-8 1,-6 -2,1 -1,-7 2,-3 h 2 l 1,-3 -2,-3 v -8 l -2,-7 -5,-1 -5,-5 h -3 l -1,6 -8,1 -2,3 h -3 l -2,4 -3,-1 -5,4 1,2 3,1 v 2 l 9,1 v 4 l -10,8 v 7 l -3,2 1,2 h 2 l 3,6 z"
     id="500237" />
  <path
     class="leaflet-interactive"
     stroke="#333333"
     stroke-opacity="1"
     stroke-width="1"
     stroke-linecap="round"
     stroke-linejoin="round"
     stroke-dasharray="1, 6"
     fill="#eeeeee"
     fill-opacity="0.5"
     fill-rule="evenodd"
     d="m 664,215 3,-3 h -6 l -3,-3 -7,1 -1,-1 3,-4 -2,-1 v -5 l -3,-2 -7,-1 h -8 l -4,2 -11,-2 -1,3 h -13 l -1,3 h -5 l -1,3 -4,3 -1,-1 -4,6 h -4 v 2 l 3,3 1,-1 3,2 2,6 4,1 -1,-3 4,-2 5,2 16,1 4,2 4,7 h 8 l 8,-5 3,1 3,-5 2,1 2,-3 8,-1 1,-5 z"
     id="500238" />
  <path
     class="leaflet-interactive"
     stroke="#333333"
     stroke-opacity="1"
     stroke-width="1"
     stroke-linecap="round"
     stroke-linejoin="round"
     stroke-dasharray="1, 6"
     fill="#eeeeee"
     fill-opacity="0.5"
     fill-rule="evenodd"
     d="m 567,289 -2,-4 -7,11 -1,-1 -1,2 -2,-3 -5,2 -1,3 -3,1 5,2 -3,6 -1,-1 v 2 h 2 l -5,5 2,2 -2,4 -1,1 v -2 l -3,3 2,1 v 5 h -2 l 4,5 v 3 l 2,2 4,-1 4,5 -2,3 -1,-1 1,4 -2,4 4,-3 2,-5 8,3 2,-8 h -2 v -2 l 4,-3 6,2 v -15 l 3,-6 -1,-2 2,-6 -4,-3 v -2 l -8,-4 2,-3 -1,-5 z"
     id="500240" />
  <path
     class="leaflet-interactive"
     stroke="#333333"
     stroke-opacity="1"
     stroke-width="1"
     stroke-linecap="round"
     stroke-linejoin="round"
     stroke-dasharray="1, 6"
     fill="#eeeeee"
     fill-opacity="0.5"
     fill-rule="evenodd"
     d="m 586,437 2,2 -1,1 3,2 -2,3 h 2 l -2,4 1,1 -3,2 3,7 v -2 l 3,-2 1,3 6,-1 v 2 l 4,2 3,-4 3,2 v -5 l 5,-7 -1,-1 3,-7 5,-2 v -4 l 3,-3 -1,-3 h -4 l -2,2 -2,-2 5,-3 v -2 l 3,-2 v -2 l -4,-2 v -8 l -9,4 v 2 l 1,-1 -4,7 -4,3 -3,5 -4,-1 -10,8 z"
     id="500241" />
  <path
     class="leaflet-interactive"
     stroke="#333333"
     stroke-opacity="1"
     stroke-width="1"
     stroke-linecap="round"
     stroke-linejoin="round"
     stroke-dasharray="1, 6"
     fill="#eeeeee"
     fill-opacity="0.5"
     fill-rule="evenodd"
     d="m 619,408 5,-12 -6,-5 -1,-3 -3,-2 -1,1 -2,-3 2,-4 -5,-10 -2,1 v 2 l -8,3 v 2 l 3,1 -5,7 -2,6 -5,-2 -3,4 -2,-1 v -2 l -4,3 -5,-5 -4,4 h -2 l -1,2 -1,-1 -1,2 h -3 l -4,4 3,4 v 8 l 2,2 -3,8 1,2 8,3 6,-3 4,2 -2,4 1,3 -3,1 3,9 h -2 l -1,3 3,3 4,-1 -1,-3 2,-1 v -2 l -3,-3 3,-1 1,-2 1,1 v -2 l 6,-6 4,-2 4,1 3,-5 4,-3 v -2 l 4,-4 -1,-1 7,-5 z"
     id="500242" />
  <path
     class="leaflet-interactive"
     stroke="#333333"
     stroke-opacity="1"
     stroke-width="1"
     stroke-linecap="round"
     stroke-linejoin="round"
     stroke-dasharray="1, 6"
     fill="#eeeeee"
     fill-opacity="0.5"
     fill-rule="evenodd"
     d="m 559,400 17,-12 -1,-4 2,-5 -2,-3 v -7 l 3,-2 -2,-4 -4,-1 v -2 l 3,-1 -4,-6 2,-4 -2,-3 -3,-1 v -2 l -2,-1 1,-2 -2,-2 -2,8 -3,1 -5,-3 -2,5 -3,2 1,3 -7,1 v 4 l -4,3 v 6 l -2,5 2,10 -1,-1 -3,4 h -3 l -1,8 -2,3 h -2 l -1,4 4,1 1,-3 h 2 l 1,-2 h 6 l 3,-4 5,3 3,-2 3,3 3,-4 1,6 z"
     id="500243" />
</svg>
