<?xml version="1.0" encoding="UTF-8" standalone="no"?>
<svg
   pointer-events="none"
   class="leaflet-zoom-animated"
   width="1135"
   height="626"
   viewBox="-95 -52 1135 626"
   style="transform: translate3d(-95px, -52px, 0px);"
   version="1.1"
   id="svg1"
   sodipodi:docname="陕西省.svg"
   inkscape:version="1.4 (86a8ad7, 2024-10-11)"
   xmlns:inkscape="http://www.inkscape.org/namespaces/inkscape"
   xmlns:sodipodi="http://sodipodi.sourceforge.net/DTD/sodipodi-0.dtd"
   xmlns="http://www.w3.org/2000/svg"
   xmlns:svg="http://www.w3.org/2000/svg">
  <defs
     id="defs1" />
  <sodipodi:namedview
     id="namedview1"
     pagecolor="#ffffff"
     bordercolor="#000000"
     borderopacity="0.25"
     inkscape:showpageshadow="2"
     inkscape:pageopacity="0.0"
     inkscape:pagecheckerboard="0"
     inkscape:deskcolor="#d1d1d1"
     inkscape:zoom="3.5106835"
     inkscape:cx="650.15829"
     inkscape:cy="434.81561"
     inkscape:window-width="1920"
     inkscape:window-height="991"
     inkscape:window-x="-9"
     inkscape:window-y="1341"
     inkscape:window-maximized="1"
     inkscape:current-layer="svg1" />
  <path
     class="leaflet-interactive"
     stroke="#000000"
     stroke-opacity="1"
     stroke-width="2"
     stroke-linecap="round"
     stroke-linejoin="round"
     fill="#ffffff"
     fill-opacity="0.2"
     fill-rule="evenodd"
     d="m 589,363 -2,-3 2,-3 h -2 l 1,-1 -5,-3 v -7 l 5,-11 -1,-3 7,-13 1,-5 -5,-19 2,-18 -4,-4 2,-1 -2,-2 v -10 h 2 l -1,-1 4,-3 4,-7 1,-3 h -2 v -2 l 4,-2 1,-5 v -4 l -3,-2 h 2 l -1,-2 -7,-8 v -9 l 2,-1 1,-4 h 2 l 1,-2 h 2 l 2,-4 h 2 v -7 l 4,-8 -1,-6 4,-2 5,-12 h -2 l -1,-3 -2,1 v -2 l -2,-1 4,-5 -1,-2 -8,3 -2,5 -6,6 -4,-5 h -2 l -2,3 -6,-6 h -2 l 2,4 -1,4 -5,2 h -2 l -2,-3 -1,1 3,3 -2,2 1,1 -2,-1 -6,7 -2,5 -2,2 h -3 l -4,4 1,3 h -3 l -7,8 -3,7 v 4 l 4,6 -3,2 v 2 h -2 l -1,-4 -3,-1 1,2 -2,13 -5,1 -3,-2 -3,2 h -13 l -1,-5 -10,-5 -1,4 -5,1 v 3 h -3 l 1,1 -2,3 h -2 l 2,2 -3,3 -1,6 3,6 v 2 h -2 v 8 l 18,6 4,5 h 2 l -1,1 2,2 1,-1 2,2 2,-3 v 3 h 4 l 2,4 4,1 v -2 l 4,4 2,11 -2,7 -2,-1 -3,3 1,9 3,4 1,5 -1,4 -3,2 -10,-1 -5,2 -11,-2 v 7 l 4,5 -6,3 -3,-2 -1,2 -6,-1 -4,3 -7,-8 -14,-1 -3,5 3,8 -4,3 v 2 l -1,-1 -3,3 1,3 3,-1 5,3 1,3 3,1 -1,4 h -6 l 2,1 1,3 -1,2 h -2 l -1,5 -2,2 3,3 -1,5 4,5 -2,3 h -2 l -1,-3 -2,-1 -5,2 h -3 l 1,-1 -1,1 -2,-2 -4,1 -4,5 1,2 -5,1 2,4 3,2 2,-1 2,2 v 2 l -1,-2 -2,2 2,1 -1,5 -8,4 -5,-1 1,5 2,3 5,-3 1,1 1,-3 1,1 6,-2 4,6 6,1 2,2 10,-4 h 8 l 4,2 1,7 5,3 v -2 l 3,-3 5,6 4,-1 7,8 4,2 1,-3 h 4 l 3,-2 2,2 7,-1 v 2 l 5,4 16,8 5,7 7,-1 2,-1 -1,-6 2,-2 -2,-2 1,-7 -4,-4 v -3 l 5,-6 -1,-1 9,-1 3,2 4,-3 h 3 l -1,-6 -1,1 -1,-3 -3,-2 -8,-1 1,-6 -11,-3 2,-4 2,1 2,-2 3,2 3,-1 5,2 6,-1 2,2 h 8 l 2,-3 2,4 2,-1 1,3 5,-5 2,1 4,-5 -1,-10 -6,-4 -1,-4 -7,-4 h 2 l 1,-2 -3,-4 2,-4 -6,-3 v -7 z m 20,36 v 1 z m -160,28 z"
     id="陕西省" />
  <path
     class="leaflet-interactive"
     stroke="#333333"
     stroke-opacity="1"
     stroke-width="1"
     stroke-linecap="round"
     stroke-linejoin="round"
     stroke-dasharray="1, 6"
     fill="#eeeeee"
     fill-opacity="0.5"
     fill-rule="evenodd"
     d="m 568,371 -2,-2 h -6 l -2,-2 v -4 l -2,-2 2,-4 -1,-7 h -2 l -1,2 h -4 l -2,4 -6,1 1,5 -8,5 -2,3 h -21 v 3 l -3,4 1,3 -5,-1 -3,3 -2,6 6,3 2,-2 11,1 3,-3 8,1 2,-3 6,1 7,-4 2,2 13,1 3,-4 -2,-1 1,-4 5,-1 2,-2 -2,-1 z m -19,15 -1,1 z"
     id="610100" />
  <path
     class="leaflet-interactive"
     stroke="#333333"
     stroke-opacity="1"
     stroke-width="1"
     stroke-linecap="round"
     stroke-linejoin="round"
     stroke-dasharray="1, 6"
     fill="#eeeeee"
     fill-opacity="0.5"
     fill-rule="evenodd"
     d="m 539,326 -4,2 -3,5 1,2 -3,1 3,9 h 2 l 3,3 3,-2 1,1 v -2 l 3,-1 3,-4 1,1 4,-5 h 4 l 1,-2 h -2 l -4,-4 6,-4 1,-4 -3,-3 h -4 l -2,-2 -5,1 -5,8 z"
     id="610200" />
  <path
     class="leaflet-interactive"
     stroke="#333333"
     stroke-opacity="1"
     stroke-width="1"
     stroke-linecap="round"
     stroke-linejoin="round"
     stroke-dasharray="1, 6"
     fill="#eeeeee"
     fill-opacity="0.5"
     fill-rule="evenodd"
     d="m 512,370 -2,-2 v -2 h 3 l -3,-21 -2,1 -4,-5 -4,2 -3,-2 -1,2 -6,-1 -4,3 -7,-8 h -15 l -2,4 3,8 -4,3 v 2 l -1,-1 -3,3 1,3 3,-1 5,3 1,3 3,1 -1,4 h -6 l 2,1 1,3 -1,2 h -2 l -1,5 -2,2 3,3 -1,5 4,5 2,-2 -1,-1 6,-2 v -4 l 2,-2 3,3 h 2 l 1,-3 2,4 1,-1 2,2 3,-3 v 4 l 4,3 4,-3 3,1 2,-9 3,-3 5,1 -1,-3 3,-6 z"
     id="610300" />
  <path
     class="leaflet-interactive"
     stroke="#333333"
     stroke-opacity="1"
     stroke-width="1"
     stroke-linecap="round"
     stroke-linejoin="round"
     stroke-dasharray="1, 6"
     fill="#eeeeee"
     fill-opacity="0.5"
     fill-rule="evenodd"
     d="m 505,341 3,5 2,-1 2,6 -1,9 2,6 h -2 l -1,2 2,2 13,1 8,-2 9,-7 v -5 l 5,-1 2,-3 v -2 l -4,1 -2,-5 -2,-1 -3,2 -3,-3 h -2 l -3,-9 3,-1 -1,-3 7,-6 -7,-7 -1,8 -3,2 -10,-1 -10,2 -6,-2 v 7 l 5,5 z"
     id="610400" />
  <path
     class="leaflet-interactive"
     stroke="#333333"
     stroke-opacity="1"
     stroke-width="1"
     stroke-linecap="round"
     stroke-linejoin="round"
     stroke-dasharray="1, 6"
     fill="#eeeeee"
     fill-opacity="0.5"
     fill-rule="evenodd"
     d="m 589,363 -2,-3 2,-3 h -2 l 1,-1 -5,-3 v -7 l 5,-11 -1,-3 8,-16 -1,-8 -2,-2 -12,7 5,5 h -2 v 2 l -5,4 h -6 l -2,-2 -3,2 -6,-2 -2,4 -7,4 4,4 1,-1 1,3 h -6 v 2 l -6,4 1,1 -5,2 3,7 h 9 l 3,-2 1,7 -2,4 4,8 h 5 l 3,2 -1,-1 h 2 l 1,-2 3,2 1,-1 v 2 l 3,-5 -1,-1 3,-3 6,2 3,-1 z"
     id="610500" />
  <path
     class="leaflet-interactive"
     stroke="#333333"
     stroke-opacity="1"
     stroke-width="1"
     stroke-linecap="round"
     stroke-linejoin="round"
     stroke-dasharray="1, 6"
     fill="#eeeeee"
     fill-opacity="0.5"
     fill-rule="evenodd"
     d="m 593,306 -3,-11 2,-18 -4,-4 2,-1 -2,-2 1,-9 -2,2 v -2 h -8 l -5,-9 h 2 l 1,-2 -4,-2 -4,2 v -4 l -2,-3 h -5 l -3,-3 -6,6 -6,1 -2,2 -1,-1 -3,3 -2,-1 1,3 -3,3 h -2 l 2,3 -1,2 -4,-2 -3,2 -2,-2 h 2 v -5 l -3,-4 1,-1 -2,-1 v -4 l -7,3 2,4 -3,3 v -2 h -2 l -1,3 -6,2 -1,-5 -2,-2 -3,4 1,1 h -2 v 5 h 2 l -2,7 1,1 4,1 4,5 1,-1 2,4 1,-1 2,2 2,-3 v 3 h 4 l 2,4 4,1 v -2 l 1,2 h 2 l 3,13 -2,7 -2,-1 -3,3 1,9 5,6 3,1 2,5 h 2 l 3,-3 v -2 l 6,-4 2,2 h 5 l 3,3 v 4 l 2,-4 5,2 4,-2 2,2 h 6 l 5,-6 h 2 l -5,-5 3,-2 2,1 7,-6 z"
     id="610600" />
  <path
     class="leaflet-interactive"
     stroke="#333333"
     stroke-opacity="1"
     stroke-width="1"
     stroke-linecap="round"
     stroke-linejoin="round"
     stroke-dasharray="1, 6"
     fill="#eeeeee"
     fill-opacity="0.5"
     fill-rule="evenodd"
     d="m 513,390 h -16 l -4,3 -4,-3 v -4 l -4,3 -5,-5 v 2 l -2,1 -3,-3 -2,2 v 4 l -6,2 1,1 -4,5 h -2 l -1,-3 -2,-1 -5,2 -7,-2 -6,6 v 3 h -4 l 2,4 3,2 2,-1 2,2 v 2 l -1,-2 -2,2 2,1 -1,5 -8,4 -5,-1 1,5 2,3 5,-3 1,1 1,-3 1,1 6,-2 4,6 6,1 2,2 10,-4 h 8 l 4,2 1,7 5,3 v -2 l 3,-3 5,6 4,-1 7,8 4,2 1,-3 5,-1 -2,-7 5,-2 -2,-4 h 2 l -1,-5 -4,-2 -1,-3 2,-6 -2,-2 1,-6 -2,1 1,-1 -2,-2 4,-6 -3,-4 v -6 z m -64,37 z"
     id="610700" />
  <path
     class="leaflet-interactive"
     stroke="#333333"
     stroke-opacity="1"
     stroke-width="1"
     stroke-linecap="round"
     stroke-linejoin="round"
     stroke-dasharray="1, 6"
     fill="#eeeeee"
     fill-opacity="0.5"
     fill-rule="evenodd"
     d="m 589,261 -1,-1 h 2 l -1,-1 4,-3 4,-7 1,-3 h -2 v -2 l 4,-2 1,-5 v -4 l -3,-2 h 2 l -1,-2 -7,-8 v -9 l 2,-1 1,-4 h 2 l 1,-2 h 2 l 2,-4 h 2 v -7 l 4,-8 -1,-6 4,-2 5,-12 h -2 l -1,-3 -2,1 v -2 l -2,-1 4,-5 -1,-2 -8,3 -2,5 -6,6 -4,-5 h -2 l -2,3 -6,-6 h -2 l 2,4 -1,4 -5,2 h -2 l -2,-3 -1,1 3,3 -2,2 1,1 -2,-1 -6,7 -2,5 -2,2 h -3 l -4,4 1,3 h -3 l -7,8 -3,7 v 4 l 4,6 -3,2 v 2 h -2 l -1,-4 -3,-1 1,2 -2,13 -5,1 -3,-2 -3,2 h -13 l -1,-5 -10,-5 -1,4 -5,1 v 3 h -3 l 1,1 -2,3 h -2 l 2,2 -3,3 -1,6 3,6 v 2 h -2 v 8 l 12,5 2,-2 -1,-5 h 2 l -3,-3 2,-1 -1,-2 h 2 l -1,-1 3,-4 2,2 1,5 h 2 l 4,-2 1,-3 h 2 v 2 l 3,-3 -2,-4 7,-3 v 4 l 4,5 v 6 h -2 l 2,2 2,-2 4,2 2,-1 -2,-3 5,-4 -1,-3 3,1 3,-3 9,-2 5,-6 7,3 4,5 -2,1 1,1 4,-2 3,2 v 2 h -2 l 5,9 3,-1 3,2 1,-1 1,2 1,-1 z"
     id="610800" />
  <path
     class="leaflet-interactive"
     stroke="#333333"
     stroke-opacity="1"
     stroke-width="1"
     stroke-linecap="round"
     stroke-linejoin="round"
     stroke-dasharray="1, 6"
     fill="#eeeeee"
     fill-opacity="0.5"
     fill-rule="evenodd"
     d="m 557,412 -6,-2 -4,1 -2,-2 -4,4 -2,-3 -6,-3 v -2 l -3,1 v -6 l 2,-2 -1,-1 h 3 l 4,-3 -1,-1 2,-2 3,-1 -2,-3 -2,1 v -2 l -2,1 v -2 h -4 l -3,3 -6,-1 -4,3 h -6 v 7 l 3,3 -4,7 2,2 -1,1 2,-1 -1,14 1,3 4,2 1,4 -3,1 3,3 -1,2 -4,1 2,6 -1,2 3,-2 2,2 7,-1 v 2 l 5,4 16,8 5,7 9,-2 v -17 l -4,-4 v -3 l 5,-6 -1,-1 9,-1 3,2 4,-3 h 3 l -1,-6 -1,1 -1,-3 -3,-2 -8,-1 1,-6 -11,-3 z"
     id="610900" />
  <path
     class="leaflet-interactive"
     stroke="#333333"
     stroke-opacity="1"
     stroke-width="1"
     stroke-linecap="round"
     stroke-linejoin="round"
     stroke-dasharray="1, 6"
     fill="#eeeeee"
     fill-opacity="0.5"
     fill-rule="evenodd"
     d="m 549,386 -1,1 1,-3 -4,-2 -6,4 -1,1 4,2 -1,2 h -2 l -1,2 -1,-1 1,2 -3,3 -3,-1 -2,4 v 5 l 7,3 4,5 4,-4 2,2 3,-1 7,2 3,-4 2,1 2,-2 3,2 3,-1 5,2 6,-1 2,2 h 8 l 2,-3 2,4 2,-1 1,3 5,-5 2,1 4,-5 -1,-10 -6,-4 -1,-4 -7,-4 h 2 l 1,-2 -3,-4 2,-4 -6,-3 v -7 l -5,1 -6,-2 -3,3 v 5 l -2,1 v -2 l -1,1 -2,-2 -4,2 v 2 l 2,1 -2,2 -6,2 v 3 l 2,1 -3,4 -10,-1 z m 0,0 1,-2 z m 60,13 v 1 z"
     id="611000" />
</svg>
