<?xml version="1.0" encoding="UTF-8" standalone="no"?>
<svg
   pointer-events="none"
   class="leaflet-zoom-animated"
   width="1447"
   height="865"
   viewBox="-121 -72 1447 865"
   style="transform: translate3d(-121px, -72px, 0px);"
   version="1.1"
   id="svg1"
   sodipodi:docname="青海省.svg"
   inkscape:version="1.4 (86a8ad7, 2024-10-11)"
   xmlns:inkscape="http://www.inkscape.org/namespaces/inkscape"
   xmlns:sodipodi="http://sodipodi.sourceforge.net/DTD/sodipodi-0.dtd"
   xmlns="http://www.w3.org/2000/svg"
   xmlns:svg="http://www.w3.org/2000/svg">
  <defs
     id="defs1" />
  <sodipodi:namedview
     id="namedview1"
     pagecolor="#ffffff"
     bordercolor="#000000"
     borderopacity="0.25"
     inkscape:showpageshadow="2"
     inkscape:pageopacity="0.0"
     inkscape:pagecheckerboard="0"
     inkscape:deskcolor="#d1d1d1"
     inkscape:zoom="0.44913295"
     inkscape:cx="809.33719"
     inkscape:cy="232.67053"
     inkscape:window-width="1920"
     inkscape:window-height="991"
     inkscape:window-x="-9"
     inkscape:window-y="1341"
     inkscape:window-maximized="1"
     inkscape:current-layer="svg1" />
  <path
     class="leaflet-interactive"
     stroke="#000000"
     stroke-opacity="1"
     stroke-width="2"
     stroke-linecap="round"
     stroke-linejoin="round"
     fill="#ffffff"
     fill-opacity="0.2"
     fill-rule="evenodd"
     d="m 1056,284 8,-2 2,1 -3,-6 -4,-4 h -3 l -6,-9 -7,-3 1,-2 -7,-2 -2,-4 -3,-2 -1,1 2,-6 -7,-6 1,-2 -3,-6 h -3 l -9,6 -1,-4 -9,-3 1,-1 -3,-5 -8,-4 -4,-1 -5,7 -5,-4 -5,-1 -11,-11 -1,1 -2,-3 -4,1 -2,-2 3,-12 h -8 l -2,-4 -5,-3 -6,-1 -1,2 -8,-4 -1,2 -3,-4 -1,2 -1,-2 -4,-1 1,-1 -2,-4 -3,2 -1,-7 -5,-1 -6,-5 -3,1 -1,3 5,5 2,5 3,2 1,7 -1,2 -2,-1 -4,-5 -22,-10 -9,-7 -4,-4 -2,-6 -3,1 -1,-4 -11,-11 h -3 l -9,-9 -1,-2 3,-2 -10,-4 -9,-8 h -3 l -7,8 -3,1 1,2 -2,2 -3,-2 h -6 l -2,-2 1,-1 -4,-3 -6,-1 v 4 l -3,6 1,1 -10,10 -5,-6 h -3 l -18,-10 v -2 l -12,-6 -3,-4 -4,-2 -1,1 -3,-3 -2,1 -5,-3 h -17 l 3,5 -3,3 v 7 l -2,5 2,6 h 2 v 10 h 2 l -1,5 3,2 v 7 l -6,3 -6,-2 -1,-2 h -4 l 1,3 -3,1 3,2 -1,2 h -5 l -3,2 3,2 -3,6 -3,2 3,11 -17,-5 -4,3 -3,6 1,1 -3,2 -1,-2 -2,1 -14,-4 -4,-3 v -2 l -6,-3 v -4 l -8,-2 -1,-2 -6,5 -1,-1 -5,4 -1,-1 -3,2 -1,-2 -2,1 -6,-2 -4,2 -8,-10 -4,2 -1,-2 -1,1 -4,-2 -10,4 -15,1 -2,2 -2,-1 v -5 l -10,-28 -27,4 -10,-3 -2,-5 8,-1 v -4 h -3 l -7,-4 h -18 l -10,2 -8,-2 2,-11 -5,-5 1,-4 -2,-2 -4,3 -7,-2 -5,3 -2,-1 -22,4 -2,5 -2,-1 v 3 l -10,1 -6,4 h -9 l -16,8 h -10 l -1,2 -11,2 -9,5 h -6 l -5,3 -11,1 -10,4 h -6 l -4,-2 -2,1 1,2 -2,3 -9,4 v 3 l -3,2 -4,1 -3,-2 -13,2 1,7 h 3 l -2,4 9,9 h 5 v -5 l 11,-2 -1,48 17,7 7,6 -1,4 3,1 2,2 -1,1 4,-1 6,3 3,10 2,1 v 3 h 2 v 6 l 5,3 2,12 -11,1 -2,3 h -4 v 3 l -4,2 -7,-1 -10,10 2,6 -2,1 -1,4 3,6 h 4 v 2 h 6 l 8,3 v 6 l 2,2 -2,2 v 6 l 3,2 -2,4 3,2 v 5 l 2,4 -1,1 -2,1 -6,-2 -3,6 -4,1 -4,-1 -2,-4 -7,-4 -4,1 -4,-2 -8,1 -12,-2 -7,-4 v -3 l -8,-2 2,1 -3,8 -3,1 v 6 h -9 l -6,-2 -7,5 -8,1 -4,-2 1,10 3,2 1,-1 4,4 16,1 -2,4 1,3 -1,-1 -2,4 1,4 -2,2 3,3 -4,2 v 6 l 4,2 h -2 l -3,5 -2,-1 -8,5 -2,-1 -1,1 2,3 -2,3 3,1 -6,4 2,1 3,6 5,3 -2,7 1,8 4,2 4,-3 h 5 l 2,1 3,8 -4,3 1,1 h -3 l -2,2 -1,5 1,2 4,1 v 18 l 5,4 -3,4 v 7 l -2,1 1,2 -4,1 v 2 h -3 l -4,3 1,2 -2,1 4,7 7,7 4,1 5,5 -2,3 5,2 v 11 l 2,3 4,1 1,5 10,3 5,9 5,4 h 5 l 4,2 10,8 2,-1 7,3 3,-1 1,3 2,-3 h 9 l 5,4 1,-3 4,-3 11,5 9,-2 3,5 5,2 1,2 h 3 l 5,4 2,-1 2,4 2,-1 4,7 4,-1 v -2 h 5 l 3,-2 4,1 1,4 -2,1 v 4 l 4,2 h 2 l 1,-2 h 4 l -1,-1 h 7 l 2,2 5,1 h 7 l 1,-3 6,4 3,-1 3,2 6,-1 2,-2 1,3 2,1 1,5 6,-2 1,-2 4,1 10,10 4,-2 4,6 7,-4 2,-3 4,-1 2,2 1,-1 4,2 v 2 h 2 l 1,3 3,1 3,-2 3,3 5,-1 3,2 3,-1 1,-5 6,1 6,-3 1,-4 2,3 2,-1 v -3 l 5,1 4,-3 1,-3 8,7 v 2 h 2 l -1,1 3,4 6,1 1,5 2,1 3,-2 6,4 9,-2 v 3 l 3,1 -11,2 v 5 l 9,-5 3,9 -1,1 3,3 h 2 l 3,-3 2,2 2,8 h -2 v 2 l 2,2 h -4 l -2,6 3,1 2,6 5,6 2,1 7,-3 8,2 1,4 2,1 5,-10 h 5 v 2 l 5,6 6,2 v 7 h 3 l 2,-2 -1,-2 2,-1 -2,-6 1,-1 -4,-2 3,-7 -2,-2 4,-2 h 8 l 4,10 8,6 4,-2 3,3 v -2 h 2 l 4,4 4,-2 1,-3 -5,-6 v -3 l 3,-3 -2,-1 -2,-7 -2,-1 h 5 l 5,4 2,-4 3,2 1,-1 -2,-3 5,-2 1,2 h 7 l 2,2 2,-3 1,1 1,-2 -2,-2 2,-1 2,3 h 3 l -1,-2 2,-2 -3,-1 -1,-3 3,-9 1,-1 3,3 3,-3 -2,-9 -3,-1 3,-5 -3,-3 1,-2 1,2 5,-3 4,4 5,1 9,-1 -19,-13 -3,-6 v -8 h -2 l 2,-6 9,-2 -1,-2 2,-2 -1,-4 -2,-1 v -5 l 2,-1 v -2 l 4,-1 2,-9 h 4 l 5,-5 -13,-5 -3,-4 1,-4 -5,-1 -2,-2 1,-11 -4,-7 h 2 l -1,-3 h 5 l 1,-2 8,-2 2,1 2,-3 -1,-3 4,-3 -3,-6 8,-4 1,-3 9,1 7,6 3,-1 7,4 13,-1 -1,3 3,4 v 3 h -2 v 7 l 4,2 2,6 1,-1 1,3 3,1 5,6 -2,1 v 2 l 2,1 -1,4 h 2 l 3,3 v 2 h 2 l -1,6 3,2 -1,8 3,1 3,9 7,2 3,3 h 5 l 2,3 h 4 l 2,2 3,10 7,-1 4,1 1,2 7,1 3,5 2,-1 1,2 h 4 v 3 h 2 l 3,-12 -1,-5 h 4 l 3,-3 1,-5 4,8 5,1 -1,3 h 3 l 3,3 1,10 -3,4 2,3 h 5 l 1,2 1,-7 2,-3 5,2 4,-3 -1,4 3,-2 1,2 h 2 v 2 l 3,3 -1,2 4,4 5,2 1,-7 h 4 l -2,-4 4,2 1,-1 v 2 l 2,-2 6,2 2,3 2,-2 h 3 l 5,-5 2,1 v 3 l 7,-7 1,-8 -4,-5 -3,-1 v -6 h 4 v -4 l -3,-3 2,-1 -3,-10 4,-4 h 5 l 8,9 v -4 l 2,-2 9,5 5,5 1,-4 4,-4 1,-5 -4,-2 -1,-6 3,-4 4,-1 1,-7 -3,3 h -7 v -8 l -5,-8 h -4 l -6,4 -10,-3 -4,2 -1,-5 2,-1 v -4 l -2,-3 -12,-7 -7,-13 -6,-7 3,-5 -1,-4 6,-6 4,-1 6,4 12,1 v 2 h 2 l 4,4 10,2 1,2 3,-1 5,2 3,5 h 2 l 1,2 1,-1 v 2 l 2,-4 h 5 l 2,-2 v 2 l 1,-1 4,2 4,-6 v -3 h 3 l 1,-5 4,2 3,-7 h 5 l -4,-4 -3,-8 -1,1 -3,-3 h -6 l -5,-7 v -19 l 4,-2 6,1 -2,-2 3,-6 5,-4 7,-2 2,-5 6,-4 -2,-7 -6,-3 3,-3 -3,-4 1,-3 8,1 6,-13 5,3 7,1 3,3 3,-3 -4,1 1,-2 4,-3 -3,-2 v -4 l -5,-9 2,-4 h 2 l 2,-3 10,2 2,-2 -1,-8 2,-3 -2,-2 2,-2 h -3 l -3,-3 4,-2 v -3 l 3,-4 5,-1 -11,-10 h -3 l -4,-7 v -5 l -4,-6 v -4 l -8,-5 1,-5 6,-5 -8,-6 -2,-4 -7,-4 4,-4 -1,-3 z m 22,59 v -2 z"
     id="青海省" />
  <path
     class="leaflet-interactive"
     stroke="#333333"
     stroke-opacity="1"
     stroke-width="1"
     stroke-linecap="round"
     stroke-linejoin="round"
     stroke-dasharray="1, 6"
     fill="#eeeeee"
     fill-opacity="0.5"
     fill-rule="evenodd"
     d="m 955,311 -1,1 6,11 v 6 l 5,3 v 3 l 4,5 3,1 1,3 5,2 4,-3 2,-4 5,4 10,2 v 3 l 4,4 3,-4 7,-1 2,-12 3,-4 -1,-3 2,-1 v -2 l -8,-8 -1,-5 2,-14 2,-2 -1,-4 4,-5 v -6 l 2,-2 -3,-3 -7,-3 -1,-2 -2,1 -11,-4 -3,-5 h -8 l -6,-3 h -12 l -9,-7 -5,4 -1,5 4,4 v 4 l 8,3 2,-1 3,2 3,7 6,5 2,13 -4,-2 -9,9 -5,2 -3,-3 -4,2 1,2 z"
     id="630100" />
  <path
     class="leaflet-interactive"
     stroke="#333333"
     stroke-opacity="1"
     stroke-width="1"
     stroke-linecap="round"
     stroke-linejoin="round"
     stroke-dasharray="1, 6"
     fill="#eeeeee"
     fill-opacity="0.5"
     fill-rule="evenodd"
     d="m 1053,414 4,-10 5,3 7,1 3,3 3,-3 -4,1 5,-5 -3,-2 v -4 l -5,-9 2,-4 h 2 l 2,-3 10,2 2,-2 -1,-8 2,-3 -2,-2 2,-2 h -3 l -3,-3 4,-2 v -3 l 3,-4 5,-1 -11,-10 h -3 l -4,-7 v -5 l -4,-6 v -4 l -8,-5 1,-5 6,-5 -8,-6 -2,-4 -7,-4 4,-4 -1,-5 -7,-2 -17,4 -5,-3 h -3 l -5,-4 -2,2 v 6 l -4,5 1,4 -2,1 v 8 l -2,7 v 5 l 9,8 v 2 l -2,1 1,3 -3,4 -2,12 h -5 l -5,5 v 6 l 4,-1 1,2 v -2 l 3,4 6,1 4,7 h 2 l 4,5 3,1 -3,2 4,1 1,3 -3,1 2,2 -2,2 4,3 -1,3 h 3 v 3 l 2,-1 5,7 5,1 5,5 -2,5 1,1 z m 25,-71 v -2 z"
     id="630200" />
  <path
     class="leaflet-interactive"
     stroke="#333333"
     stroke-opacity="1"
     stroke-width="1"
     stroke-linecap="round"
     stroke-linejoin="round"
     stroke-dasharray="1, 6"
     fill="#eeeeee"
     fill-opacity="0.5"
     fill-rule="evenodd"
     d="m 1019,279 5,4 h 3 l 5,3 17,-4 7,2 8,-2 2,1 -3,-6 -4,-4 h -3 l -6,-9 -7,-3 1,-2 -7,-2 -2,-4 -3,-2 -1,1 2,-6 -7,-6 1,-2 -3,-6 h -3 l -9,6 -1,-4 -9,-3 1,-1 -3,-5 -8,-4 -4,-1 -5,7 -5,-4 -5,-1 -11,-11 -1,1 -2,-3 -4,1 -2,-2 3,-12 h -8 l -2,-4 -5,-3 -6,-1 -1,2 -8,-4 -1,2 -3,-4 -1,2 -1,-2 -4,-1 1,-1 -2,-4 -3,2 -1,-7 -5,-1 -6,-5 -3,1 -1,3 5,5 2,5 3,2 1,7 -1,2 -2,-1 -4,-5 -22,-10 -9,-7 -4,-4 -2,-6 -3,1 -1,-4 -11,-11 h -3 l -9,-9 -1,-2 3,-2 -10,-4 -9,-8 h -3 l -7,8 -3,1 1,2 -2,2 -3,-2 h -6 l -2,-2 1,-1 -4,-3 -6,-1 v 4 l -3,6 1,1 -10,10 6,10 h 4 l 1,2 v -2 h 2 l 4,4 10,2 8,6 h 5 l 1,3 10,1 4,2 2,4 -5,3 2,2 -2,3 3,2 9,1 5,-4 4,-1 3,4 6,2 h 8 l 3,4 h 3 l -1,8 7,3 -8,3 h -9 l -4,4 2,3 -1,2 7,4 1,3 1,-2 10,4 -1,6 3,4 -1,2 -8,4 -1,4 -3,2 -2,5 1,5 -4,4 v 10 l 2,6 8,4 7,6 6,2 1,2 7,4 53,15 h 5 l 4,-2 4,3 -1,-4 4,-2 3,3 5,-2 9,-9 3,2 1,-2 -1,-8 -4,-7 -3,-1 -3,-7 -3,-2 -2,1 -5,-3 h -3 v -4 l -4,-4 1,-5 3,-3 2,-1 9,7 h 12 l 6,3 h 8 l 3,5 11,4 2,-1 9,7 z"
     id="632200" />
  <path
     class="leaflet-interactive"
     stroke="#333333"
     stroke-opacity="1"
     stroke-width="1"
     stroke-linecap="round"
     stroke-linejoin="round"
     stroke-dasharray="1, 6"
     fill="#eeeeee"
     fill-opacity="0.5"
     fill-rule="evenodd"
     d="m 957,498 6,4 12,1 v 2 h 2 l 4,4 10,2 1,2 3,-1 5,2 3,5 h 2 l 1,2 1,-1 v 2 l 2,-4 h 5 l 2,-2 v 2 l 1,-1 4,2 4,-6 v -3 h 3 l 1,-5 4,2 3,-7 h 5 l -4,-4 -3,-8 -1,1 -3,-3 h -6 l -5,-7 v -19 l 4,-2 6,1 -2,-2 1,-3 5,-5 -2,-4 -3,-1 -1,-5 -2,-2 3,-2 -5,-7 1,-2 -4,-3 -1,3 h -2 l -1,4 h -5 l -3,2 -1,-2 -12,-1 -3,4 h -3 v -3 h -2 l -2,1 2,4 -4,1 -2,-8 5,-1 -1,-4 -22,-6 h -23 l 3,6 h 5 v 2 l 2,-1 4,2 -8,10 -5,2 -1,6 h 2 l 6,5 7,2 3,4 4,1 1,2 h 4 l 2,4 -1,3 h -3 l 1,7 h -2 v 3 l -2,2 -2,1 -3,-2 h -4 l 1,7 2,3 h 2 l -1,9 z m 38,-69 12,1 1,2 3,-2 3,1 6,-8 4,3 -1,2 5,7 -3,2 2,2 1,5 3,1 2,4 2,-2 h 3 l 1,-2 h 3 l 2,-5 6,-4 -2,-7 -6,-3 3,-3 -3,-4 1,-3 8,1 2,-2 -3,-3 2,-5 h -2 l -3,-4 -5,-2 -3,-3 -1,-4 -2,1 -2,-2 1,-1 h -3 l 1,-3 -4,-3 2,-2 -2,-1 3,-2 -2,-4 h -3 l 3,-2 -9,-6 v -2 l -6,-6 h -4 l -3,-4 v 2 l -1,-2 -4,1 -2,3 v 10 l 6,7 -4,9 1,3 5,1 v 5 l -4,8 h -2 v 4 l -5,3 h -3 l -1,2 -2,-2 h -7 v 3 l 6,8 -6,1 1,4 3,1 3,-3 h 2 l 1,2 z"
     id="632300" />
  <path
     class="leaflet-interactive"
     stroke="#333333"
     stroke-opacity="1"
     stroke-width="1"
     stroke-linecap="round"
     stroke-linejoin="round"
     stroke-dasharray="1, 6"
     fill="#eeeeee"
     fill-opacity="0.5"
     fill-rule="evenodd"
     d="m 955,311 -4,-3 -4,2 h -5 l -53,-15 -7,-4 -1,-2 -6,-2 -7,-6 -13,-5 -1,4 -5,3 -3,10 h -5 l 7,5 2,5 9,7 -1,2 2,4 -5,2 -2,3 -27,11 2,5 7,8 -1,7 -3,3 v 2 l -4,1 3,6 h 2 v 2 l 4,3 v 4 l 3,5 v 8 l 3,1 2,5 v 4 l -3,5 h 3 l 9,8 -9,4 5,2 2,4 -8,7 v 2 l 19,24 5,1 2,2 h 4 l 1,2 h 3 l 7,6 3,-1 7,3 5,-1 3,-5 13,-2 1,5 2,2 9,1 7,8 3,-2 6,5 7,-4 4,5 3,-1 3,2 4,-3 v -3 h 2 l -1,-7 h 3 v -6 l -5,-1 -5,-3 -3,-4 -7,-2 -6,-5 h -2 l 1,-5 3,-3 h 2 l 8,-9 -4,-3 -2,1 v -2 h -5 l -3,-5 1,-2 29,2 4,1 1,2 13,2 3,-1 -6,-8 v -3 h 6 l 3,2 1,-2 h 3 l 5,-3 v -4 h 2 l -1,-2 5,-5 1,-4 -3,-3 h -3 l -1,-2 v -3 l 4,-7 -6,-7 v -10 l 2,-9 -4,-7 -10,-2 -5,-4 -2,4 -4,3 -5,-2 -1,-3 -3,-1 -4,-5 v -3 l -5,-3 v -6 l -6,-11 z m 31,116 -4,1 v 8 l 5,-1 -2,-4 4,-1 v 3 h 3 l 3,-4 v -4 l -3,-1 -3,4 -2,-1 z"
     id="632500" />
  <path
     class="leaflet-interactive"
     stroke="#333333"
     stroke-opacity="1"
     stroke-width="1"
     stroke-linecap="round"
     stroke-linejoin="round"
     stroke-dasharray="1, 6"
     fill="#eeeeee"
     fill-opacity="0.5"
     fill-rule="evenodd"
     d="m 745,519 8,-4 1,-3 h 6 l 10,7 3,-1 7,4 13,-1 -1,3 3,4 v 3 h -2 v 7 l 4,2 2,6 1,-1 1,3 3,1 5,6 -2,1 v 2 l 2,1 -1,4 h 2 l 3,3 v 2 h 2 l -1,6 3,2 -1,8 3,1 3,9 7,2 3,3 h 5 l 2,3 h 4 l 2,2 3,10 7,-1 4,1 1,2 7,1 3,5 2,-1 1,2 h 4 v 3 h 2 l 2,-6 v -11 h 4 l 3,-3 1,-5 4,8 5,1 -1,3 h 3 l 3,3 1,10 -3,4 2,3 h 5 l 1,2 1,-7 2,-3 5,2 4,-3 -1,4 3,-2 1,2 h 2 v 2 l 3,3 -1,2 4,4 5,2 1,-7 h 4 l -2,-4 4,2 1,-1 v 2 l 2,-2 6,2 2,3 2,-2 h 3 l 5,-5 2,1 v 3 l 7,-7 1,-8 -4,-5 -3,-1 v -6 h 4 v -4 l -3,-3 2,-1 -3,-10 4,-4 h 5 l 8,9 v -4 l 2,-2 9,5 5,5 1,-4 4,-4 1,-5 -4,-2 -1,-6 3,-4 4,-1 1,-7 -3,3 h -7 v -8 l -5,-8 h -4 l -6,4 -10,-3 -4,2 -1,-5 2,-1 v -4 l -2,-3 -12,-7 -7,-13 -6,-7 3,-5 v -6 l 3,-1 2,-3 4,-1 1,-5 v -7 h -2 l -2,-3 -2,-10 -2,-1 -5,3 h -5 l -3,-4 -3,2 -7,-8 -9,-1 -2,-2 -1,-5 -13,2 -3,5 -5,1 -7,-3 -3,1 -7,-6 -15,-5 -7,-10 h -2 v -3 l -10,-11 v -2 l 8,-7 -2,-4 -5,-2 9,-4 -9,-8 h -5 l -3,3 -3,-2 -1,2 -7,-2 v 2 l -3,1 -3,-3 -3,1 v 4 l -3,2 h -3 l -5,4 -6,1 -4,-2 -5,2 -2,-2 -1,1 v -3 l -3,-1 -3,4 -3,12 -6,-1 -1,3 h -8 l -10,-3 -2,-2 -3,1 -3,-1 v -2 l -2,-1 -1,9 -2,2 -2,-2 -1,1 -11,-3 -2,3 2,2 -6,7 -4,9 1,2 -9,8 -5,1 1,2 -2,4 -4,3 3,4 h 2 v -2 l 7,2 v 3 l -3,1 v 2 l 8,4 -1,6 -2,2 10,2 3,4 -3,2 1,2 3,1 3,5 4,2 1,5 h 2 l 1,2 2,1 2,-4 2,1 v 4 z"
     id="632600" />
  <path
     class="leaflet-interactive"
     stroke="#333333"
     stroke-opacity="1"
     stroke-width="1"
     stroke-linecap="round"
     stroke-linejoin="round"
     stroke-dasharray="1, 6"
     fill="#eeeeee"
     fill-opacity="0.5"
     fill-rule="evenodd"
     d="m 417,626 h 7 l 1,-3 6,4 3,-1 5,2 6,-3 1,3 2,1 1,5 6,-2 1,-2 4,1 10,10 4,-2 4,6 7,-4 2,-3 4,-1 2,2 1,-1 4,2 v 2 h 2 l 1,3 3,1 3,-2 3,3 5,-1 3,2 3,-1 1,-5 6,1 6,-3 1,-4 2,3 2,-1 v -3 l 5,1 4,-3 1,-3 8,7 v 2 h 2 l -1,1 3,4 6,1 1,5 2,1 3,-2 6,4 9,-2 v 3 l 3,1 -11,2 v 5 l 9,-5 3,9 -1,1 3,3 h 2 l 3,-3 2,2 2,8 h -2 v 2 l 2,2 h -4 l -2,6 3,1 2,6 5,6 2,1 7,-3 8,2 1,4 2,1 5,-10 h 5 v 2 l 5,6 6,2 v 7 h 3 l 2,-2 -1,-2 2,-1 v -3 l -2,-3 1,-1 -4,-2 3,-7 -2,-2 4,-2 h 8 l 4,10 8,6 4,-2 3,3 v -2 h 2 l 4,4 4,-2 1,-3 -5,-6 v -3 l 3,-3 -2,-1 -2,-7 -2,-1 h 5 l 5,4 2,-4 3,2 1,-1 -2,-3 5,-2 1,2 h 7 l 2,2 2,-3 1,1 1,-2 -2,-2 2,-1 2,3 h 3 l -1,-2 2,-2 -3,-1 -1,-3 3,-9 1,-1 3,3 3,-3 -2,-9 -3,-1 3,-5 -3,-3 1,-2 1,2 5,-3 4,4 5,1 9,-1 -19,-13 -3,-6 v -8 h -2 l 2,-6 9,-2 -1,-2 2,-2 -1,-4 -2,-1 v -5 l 2,-1 v -2 l 4,-1 2,-9 h 4 l 5,-5 -13,-5 -3,-4 1,-4 -5,-1 -2,-2 1,-11 -4,-7 h 2 l -1,-3 h 5 l 1,-2 8,-2 2,1 2,-3 -1,-3 4,-3 -5,-9 v -4 l -2,-1 -2,4 -3,-3 h -2 l -1,-5 -4,-2 -3,-5 -4,-3 3,-2 -3,-4 -10,-2 3,-5 v -3 l -8,-3 v -3 l 3,-1 1,-3 -8,-2 v 2 h -2 l -3,-4 6,-6 -1,-3 5,-1 9,-8 v -5 l 9,-13 -2,-2 1,-3 h -2 l -2,-3 -1,2 -11,-3 -4,-4 -1,-4 -4,-3 -1,2 -1,-3 -2,2 -7,-2 -8,-7 -6,1 -2,-3 -1,1 -11,-4 -1,2 -13,-1 -4,2 -2,5 -3,2 -3,-3 v -2 l -4,-3 h -9 l -1,-2 h -17 l -1,3 -4,2 -2,-3 -12,-1 -1,-2 1,3 h -2 l 1,3 -3,1 v 5 l -2,-2 h -5 l -7,-4 -4,2 -1,-4 -2,2 h -13 l -13,-2 -4,-2 -3,1 -1,-2 -3,1 -4,-2 -6,3 -8,-6 h -5 l -5,-2 -1,-2 -2,1 -3,-2 -4,1 -5,-2 -1,2 -17,-2 -11,-2 -2,-3 -4,1 -10,-3 -25,-2 -3,-2 -4,2 -6,-1 -14,-4 -4,-2 v -2 h -14 l -7,-3 -1,1 -5,-5 1,-5 -12,8 -17,-8 -1,5 -2,1 -6,-2 -3,6 -4,1 -4,-1 -2,-4 -7,-4 -4,1 -4,-2 -8,1 -12,-2 -7,-4 v -3 l -8,-2 2,1 -3,8 -3,1 v 6 h -9 l -6,-2 -7,5 -8,1 -4,-2 1,10 3,2 1,-1 4,4 16,1 -2,4 1,3 -1,-1 -2,4 1,4 -2,2 3,3 -4,2 v 6 l 4,2 h -2 l -3,5 -2,-1 -8,5 -2,-1 -1,1 2,3 -2,3 3,1 -6,4 2,1 3,6 5,3 -2,13 1,2 3,1 -1,1 6,-3 h 5 l 3,2 2,-1 3,3 2,-2 10,-1 2,3 3,-1 3,-5 h 2 l 3,2 8,-1 14,1 1,2 2,-1 3,2 3,-1 9,5 v 2 l 2,1 -1,2 4,2 4,-2 v -2 h 17 l 8,5 17,5 3,3 5,1 1,2 7,1 -2,5 1,2 14,7 h 25 v 4 l 9,20 4,2 3,-2 h 7 v 2 h -2 l -3,3 -3,-1 -5,7 4,12 -1,7 3,1 -1,4 5,10 -4,3 h -6 l -3,7 -4,2 v 4 l 8,5 -3,7 3,3 1,5 -2,1 -4,10 -3,2 -1,9 z"
     id="632700" />
  <path
     class="leaflet-interactive"
     stroke="#333333"
     stroke-opacity="1"
     stroke-width="1"
     stroke-linecap="round"
     stroke-linejoin="round"
     stroke-dasharray="1, 6"
     fill="#eeeeee"
     fill-opacity="0.5"
     fill-rule="evenodd"
     d="m 773,145 -5,-6 h -3 l -18,-10 v -2 l -12,-6 -3,-4 -4,-2 -1,1 -3,-3 -2,1 -5,-3 h -17 l 3,5 -3,3 v 7 l -2,5 2,6 h 2 v 10 h 2 l -1,5 3,2 v 7 l -6,3 -6,-2 -1,-2 h -4 l 1,3 -3,1 3,2 -1,2 h -5 l -3,2 3,2 -3,6 -3,2 3,11 -17,-5 -4,3 -3,6 1,1 -3,2 -1,-2 -2,1 -14,-4 -4,-3 v -2 l -6,-3 v -4 l -8,-2 -1,-2 -6,5 -1,-1 -5,4 -1,-1 -3,2 -1,-2 -2,1 -6,-2 -4,2 -8,-10 -4,2 -1,-2 -1,1 -4,-2 -10,4 -15,1 -2,2 -2,-1 v -5 l -10,-28 -27,4 -10,-3 -2,-5 8,-1 v -4 h -3 l -7,-4 h -18 l -10,2 -8,-2 2,-11 -5,-5 1,-4 -2,-2 -4,3 -7,-2 -5,3 -2,-1 -22,4 -2,5 -2,-1 v 3 l -10,1 -6,4 h -9 l -16,8 h -10 l -1,2 -11,2 -9,5 h -6 l -5,3 -11,1 -10,4 h -6 l -4,-2 -2,1 1,2 -2,3 -9,4 v 3 l -3,2 h -19 l -1,6 1,2 h 3 l -2,4 9,9 h 5 v -5 l 11,-2 -1,48 17,7 7,6 -1,4 3,1 2,2 -1,1 h 8 l 3,4 2,8 2,1 v 3 h 2 v 6 l 5,3 2,12 -11,1 -2,3 h -4 v 3 l -4,2 -7,-1 -10,10 2,6 -2,1 -1,4 3,6 h 4 v 2 h 6 l 8,3 v 6 l 2,2 -2,2 v 6 l 3,2 -2,4 3,2 v 5 l 19,8 12,-8 -1,5 5,5 1,-1 7,3 10,-1 4,1 v 2 l 4,2 14,4 6,1 4,-2 3,2 25,2 10,3 4,-1 2,3 3,1 24,3 2,-2 5,2 4,-1 3,2 2,-1 1,2 5,2 h 5 l 8,6 6,-3 20,5 21,1 2,-2 1,3 4,-1 7,4 h 5 l 1,2 2,-1 -1,-4 3,-1 v -5 l 10,1 3,1 2,3 3,-1 2,-3 17,-1 1,2 1,-1 10,2 4,7 4,-2 2,-5 4,-2 13,1 1,-2 7,3 h 5 l 2,3 h 9 l 5,6 7,2 2,-2 1,3 1,-2 4,3 1,4 6,5 h 5 l 4,2 1,-2 2,3 h 6 l 8,3 1,-1 2,2 2,-1 1,-10 2,1 v 2 l 3,1 3,-1 1,2 16,3 3,-1 1,-2 6,1 3,-12 3,-4 3,1 v 3 l 1,-1 2,2 5,-2 4,2 6,-1 3,-3 5,-1 3,-2 v -3 l 2,-2 4,3 3,-1 v -2 l 5,2 h 2 l 1,-2 3,2 3,-3 h 2 l 4,-9 -3,-5 -3,-1 v -8 l -3,-5 v -4 l -4,-3 v -2 h -2 l -1,-4 -2,-1 3,-1 4,-6 1,-7 -7,-8 -2,-5 27,-11 2,-3 5,-2 -2,-4 1,-2 -9,-7 -2,-5 -7,-4 5,-1 3,-10 5,-2 1,-5 5,2 -2,-7 v -10 l 4,-4 -1,-5 2,-5 3,-2 v -3 l 9,-5 1,-2 -3,-4 1,-6 -10,-4 -1,2 -1,-3 -7,-4 1,-2 -2,-2 4,-5 h 9 l 8,-3 -7,-3 1,-8 -4,-1 -2,-3 h -8 l -6,-2 -2,-4 -5,1 v 2 l -5,2 -12,-2 2,-3 -2,-2 3,-3 h 2 l -2,-5 -4,-2 -10,-1 -3,-4 -3,1 -8,-6 -10,-2 -4,-4 h -2 v 2 l -1,-2 h -4 l -5,-8 z m -356,481 2,-11 3,-2 4,-10 2,-1 -1,-5 -3,-2 3,-8 -8,-5 v -4 l 4,-2 3,-7 h 6 l 4,-3 -5,-10 1,-4 -3,-1 1,-7 -2,-4 v -6 l -2,-2 5,-7 3,1 1,-2 4,-1 v -2 h -7 l -3,2 -4,-2 -9,-20 v -4 h -25 l -14,-7 -1,-2 2,-5 -7,-1 -1,-2 -5,-1 -2,-3 -18,-5 -8,-5 -6,-1 -7,2 -4,-1 v 2 l -4,2 -4,-2 1,-2 -2,-1 v -2 l -9,-5 -3,1 -3,-2 -2,1 -1,-2 -14,-1 -8,1 -3,-2 h -2 l -3,5 -3,1 -2,-3 -10,1 -1,2 -7,-3 3,8 -4,3 1,1 h -3 l -2,2 -1,5 1,2 4,1 v 18 l 5,4 -3,4 v 7 l -2,1 1,2 -4,1 v 2 h -3 l -4,3 1,2 -2,1 4,7 7,7 4,1 5,5 -2,3 5,2 v 11 l 2,3 4,1 2,6 9,2 5,9 5,4 h 5 l 4,2 10,8 2,-1 7,3 3,-1 1,3 2,-3 h 9 l 5,4 1,-3 4,-3 11,5 9,-2 3,5 5,2 1,2 h 3 l 5,4 2,-1 2,4 2,-1 4,7 4,-1 v -2 h 5 l 3,-2 4,1 1,4 -2,1 v 4 l 4,2 h 2 l 1,-2 h 4 l -1,-1 h 7 l 4,2 z"
     id="632800" />
</svg>
