<svg xmlns="http://www.w3.org/2000/svg" pointer-events="none" class="leaflet-zoom-animated" width="1133" height="886" viewBox="-92 -181 1133 886" style="transform: translate3d(-92px, -181px, 0px);"><g><path class="leaflet-interactive" stroke="black" stroke-opacity="1" stroke-width="2" stroke-linecap="round" stroke-linejoin="round" fill="#fff" fill-opacity="0.2" fill-rule="evenodd" d="M445 465L447 473L446 474L453 480L454 479L456 481L463 482L469 478L474 477L481 482L485 482L490 490L487 496L489 508L494 504L496 506L500 505L506 508L503 511L503 515L508 521L508 525L511 525L511 528L513 530L516 531L522 529L522 518L526 517L530 511L534 512L535 527L538 531L540 538L544 540L543 545L549 554L552 555L559 552L560 542L563 543L567 539L576 539L578 536L577 535L580 533L584 533L584 539L586 541L596 531L595 536L597 538L597 548L603 551L604 550L604 552L611 556L612 559L616 556L621 559L624 558L626 556L623 554L623 542L625 538L624 534L626 532L620 502L618 498L616 496L615 497L615 495L620 493L620 491L625 492L628 489L631 490L638 484L638 479L641 479L645 473L648 477L678 487L682 486L685 481L684 475L687 466L693 462L695 458L697 458L695 456L697 452L696 450L698 447L700 449L700 446L703 444L705 440L703 435L710 431L709 426L711 424L710 422L708 422L708 420L714 410L714 401L717 392L720 391L720 387L718 384L719 380L723 375L730 374L738 362L734 355L735 354L732 353L733 351L731 349L735 340L735 336L748 329L748 327L744 326L741 327L739 330L730 328L725 330L719 330L713 334L704 336L703 339L699 339L698 343L684 342L675 351L670 351L671 354L667 362L661 359L657 362L649 362L647 364L640 362L636 365L634 361L631 360L617 363L615 361L615 356L613 352L606 344L611 334L611 332L608 329L608 323L605 325L604 320L602 319L603 312L607 306L606 305L601 307L599 304L597 304L593 306L582 298L580 291L577 291L576 289L576 285L570 285L569 279L566 278L562 282L561 280L555 282L552 277L548 275L544 276L546 272L544 270L543 272L540 270L533 270L530 273L520 270L517 271L510 267L509 262L506 261L504 248L507 243L507 239L500 236L498 233L500 230L497 227L500 221L497 217L497 213L492 204L485 196L484 189L487 183L484 183L485 187L482 185L482 183L485 182L485 180L481 177L483 173L477 168L479 167L479 163L475 159L474 155L470 150L470 147L474 142L472 139L465 137L469 133L466 131L467 127L464 123L462 123L462 120L458 116L457 117L454 115L458 111L457 108L459 108L457 106L454 108L450 100L446 102L445 100L447 96L443 90L440 92L438 89L430 84L420 86L419 90L418 87L414 86L413 84L405 83L402 77L399 75L396 76L393 73L392 74L388 69L381 68L379 65L377 68L376 65L375 68L374 66L368 65L356 70L342 71L339 70L339 68L337 68L330 72L323 72L311 77L316 82L316 86L319 87L321 91L316 98L314 102L315 103L300 116L304 117L311 124L315 124L319 132L324 133L332 121L333 123L337 123L337 125L340 128L341 127L342 131L346 134L349 133L352 135L350 140L347 141L347 144L355 171L354 175L359 183L368 186L373 186L380 183L382 179L389 184L398 182L401 185L402 184L402 186L404 186L407 180L409 180L411 183L416 180L419 180L421 174L426 171L425 170L427 166L433 168L435 167L447 186L451 189L453 194L455 193L457 201L458 200L455 206L454 205L450 212L448 212L448 214L450 215L450 222L447 225L445 225L446 226L444 226L444 228L441 228L442 230L440 230L441 231L438 239L437 238L438 239L434 242L435 243L432 244L432 247L434 247L433 250L430 252L431 258L429 259L431 264L429 268L428 266L427 267L431 271L431 289L427 293L425 293L425 291L420 291L417 294L418 296L412 308L411 316L408 321L409 326L407 327L410 334L409 339L405 344L405 337L401 331L402 328L399 322L376 347L368 351L364 359L346 370L344 372L343 377L340 379L345 388L350 392L354 393L352 398L355 398L356 404L360 409L365 407L367 402L370 403L372 400L371 397L369 397L372 399L375 398L375 404L377 404L378 401L379 409L371 411L366 415L360 414L361 416L359 416L359 422L365 431L368 430L371 432L377 432L388 428L388 430L390 430L390 435L392 437L392 443L390 444L390 446L393 448L392 453L396 458L395 459L398 460L401 464L403 464L403 468L407 468L409 470L416 467L417 469L420 468L421 464L427 471L431 469L435 470L437 466L445 465zM396 222L394 221L394 223L391 224L391 228L389 231L385 227L384 228L384 233L389 241L395 238L400 238L400 241L403 240L402 233L405 231L405 224L397 222z" id="黑龙江省"/><path class="leaflet-interactive" stroke="#333" stroke-opacity="1" stroke-width="1" stroke-linecap="round" stroke-linejoin="round" stroke-dasharray="1,6" fill="#eee" fill-opacity="0.5" fill-rule="evenodd" d="M448 464L445 465L447 473L446 474L453 480L454 479L456 481L463 482L469 478L474 477L481 482L485 482L490 490L487 496L489 508L494 504L496 506L500 505L506 508L503 511L503 515L508 521L508 525L511 525L511 528L516 531L522 529L522 518L526 517L528 513L527 512L533 503L542 504L549 494L553 492L554 493L554 489L552 486L557 483L555 481L559 478L558 475L556 476L554 473L558 471L555 461L562 460L563 455L565 455L565 453L567 454L567 452L569 452L571 448L578 447L578 443L583 447L587 446L588 439L590 439L591 437L589 432L582 425L583 424L586 426L589 424L589 418L591 414L590 413L588 415L589 419L585 417L587 414L584 416L582 414L574 418L571 414L563 412L558 416L558 418L555 417L553 420L549 418L542 420L543 418L535 413L532 415L533 416L528 415L526 416L526 418L525 417L523 419L514 414L507 419L504 417L502 412L495 412L480 424L479 423L474 433L470 436L469 439L468 438L466 440L461 440L463 444L466 445L465 446L467 448L467 455L466 454L465 457L461 456L459 458L457 456L452 463L448 465z" id="哈尔滨市"/><path class="leaflet-interactive" stroke="#333" stroke-opacity="1" stroke-width="1" stroke-linecap="round" stroke-linejoin="round" stroke-dasharray="1,6" fill="#eee" fill-opacity="0.5" fill-rule="evenodd" d="M415 303L408 321L409 326L407 327L410 336L407 342L405 344L405 337L401 331L402 328L399 322L376 347L368 351L364 359L346 370L344 372L343 377L340 379L345 388L350 392L354 393L352 398L355 398L356 404L360 409L365 407L367 402L370 403L372 400L371 397L369 397L372 399L375 398L375 404L377 404L378 401L379 403L378 410L371 411L366 415L360 414L361 416L359 416L359 422L365 431L368 430L371 432L377 432L386 429L387 424L383 410L385 408L387 410L390 410L391 405L389 401L392 397L391 396L393 396L397 390L405 387L405 379L411 381L425 373L426 377L433 378L434 382L439 382L470 378L473 373L472 361L474 361L474 352L476 350L474 345L477 342L475 341L474 338L466 340L465 336L460 334L457 335L454 332L450 331L449 321L447 321L446 319L450 319L452 317L451 316L456 312L450 306L447 309L443 305L433 313L427 313L423 309L424 306L417 303z" id="齐齐哈尔市"/><path class="leaflet-interactive" stroke="#333" stroke-opacity="1" stroke-width="1" stroke-linecap="round" stroke-linejoin="round" stroke-dasharray="1,6" fill="#eee" fill-opacity="0.5" fill-rule="evenodd" d="M642 447L635 446L635 448L633 448L631 451L632 455L629 455L626 461L617 458L615 458L613 461L610 460L608 463L609 464L605 467L606 468L600 473L598 479L599 480L597 483L600 486L602 484L607 490L609 490L610 488L615 495L620 493L620 491L625 492L628 489L631 490L638 484L638 479L641 479L645 473L648 477L678 487L682 486L685 481L685 470L687 466L693 462L695 458L697 458L695 456L697 452L696 450L698 447L700 449L700 446L703 444L705 440L703 435L710 431L709 426L711 424L710 422L708 422L708 418L699 417L697 419L696 416L693 417L691 414L688 416L688 420L685 420L683 422L680 433L677 435L678 436L676 437L673 434L664 443L658 441L658 446L655 450L654 449L649 451L646 448L644 452L642 452L642 448z" id="鸡西市"/><path class="leaflet-interactive" stroke="#333" stroke-opacity="1" stroke-width="1" stroke-linecap="round" stroke-linejoin="round" stroke-dasharray="1,6" fill="#eee" fill-opacity="0.5" fill-rule="evenodd" d="M609 331L604 334L600 334L599 332L597 332L592 336L592 339L588 341L580 333L577 337L577 348L574 349L574 351L577 359L581 361L582 365L580 370L581 375L579 376L581 379L579 381L581 381L582 384L583 383L588 386L589 389L594 393L596 393L596 391L598 391L597 390L599 389L602 390L606 386L602 380L610 382L616 381L615 385L619 387L621 385L627 387L632 384L649 384L650 378L654 376L655 377L662 370L664 365L663 364L665 363L664 361L661 359L657 362L649 362L647 364L640 362L636 365L634 361L631 360L617 363L615 361L615 356L613 352L606 344L611 332z" id="鹤岗市"/><path class="leaflet-interactive" stroke="#333" stroke-opacity="1" stroke-width="1" stroke-linecap="round" stroke-linejoin="round" stroke-dasharray="1,6" fill="#eee" fill-opacity="0.5" fill-rule="evenodd" d="M729 375L729 361L731 361L731 359L729 359L730 354L726 356L722 365L718 368L716 367L715 371L703 370L701 371L700 375L696 374L690 382L687 395L688 397L686 397L685 399L686 401L684 401L681 404L680 403L675 407L672 405L666 406L664 404L662 404L661 407L656 405L655 402L657 398L646 396L643 398L644 401L633 401L634 392L629 393L629 395L623 397L619 398L618 396L611 399L611 403L610 402L606 404L606 408L608 411L607 413L608 415L614 415L617 422L623 426L624 425L626 427L625 428L628 430L640 433L639 437L641 439L646 439L646 442L642 446L642 452L644 452L646 448L649 451L654 449L655 450L658 447L658 442L665 442L672 434L675 437L678 436L677 435L679 435L680 433L683 422L685 420L688 420L688 416L691 414L693 417L696 416L697 419L699 417L709 418L714 410L714 401L717 392L720 391L720 387L718 384L719 380L723 375L728 375z" id="双鸭山市"/><path class="leaflet-interactive" stroke="#333" stroke-opacity="1" stroke-width="1" stroke-linecap="round" stroke-linejoin="round" stroke-dasharray="1,6" fill="#eee" fill-opacity="0.5" fill-rule="evenodd" d="M434 382L433 378L426 377L425 373L411 381L405 379L405 387L397 390L393 394L393 396L391 396L392 397L389 401L391 405L390 409L387 411L386 408L384 408L383 410L383 413L385 415L385 422L387 423L386 428L388 428L388 430L389 429L391 432L390 435L392 437L392 443L390 444L390 446L393 448L392 453L396 458L395 459L398 460L401 464L403 464L403 468L407 468L409 470L416 467L417 469L420 468L421 464L427 471L431 469L435 470L437 466L448 464L448 460L446 459L449 456L446 453L449 453L446 451L446 447L437 448L435 437L427 434L426 430L426 435L428 435L428 437L430 436L428 441L426 442L427 441L425 439L419 439L421 438L421 433L425 431L425 425L423 423L425 420L429 420L427 422L428 423L432 422L432 420L428 418L431 419L432 417L429 412L432 412L428 407L428 404L433 395L434 396L432 392L434 389z" id="大庆市"/><path class="leaflet-interactive" stroke="#333" stroke-opacity="1" stroke-width="1" stroke-linecap="round" stroke-linejoin="round" stroke-dasharray="1,6" fill="#eee" fill-opacity="0.5" fill-rule="evenodd" d="M528 416L532 416L535 413L538 416L542 416L542 419L544 420L547 420L548 418L553 420L553 418L555 417L558 418L558 416L561 413L563 412L568 414L571 409L575 408L575 405L571 403L569 398L571 397L570 394L575 393L574 390L576 389L577 384L581 382L579 381L581 379L579 377L582 365L580 360L577 359L574 351L574 349L577 348L577 337L581 333L587 341L592 340L592 336L594 334L599 332L601 334L604 334L609 331L608 323L605 325L604 320L602 319L603 312L607 306L604 305L601 307L599 304L593 306L582 298L580 291L577 291L576 289L576 285L571 286L570 280L566 278L564 279L564 281L560 281L558 283L558 288L560 291L560 295L566 298L569 304L568 306L566 309L562 309L560 311L561 312L557 312L559 315L553 321L549 334L547 336L545 334L544 328L542 328L536 330L533 333L530 341L525 342L525 351L526 350L531 353L531 357L530 356L528 359L530 361L527 370L532 377L535 378L535 380L536 377L538 377L535 385L526 391L519 391L508 396L516 404L522 412L522 414L527 416z" id="伊春市"/><path class="leaflet-interactive" stroke="#333" stroke-opacity="1" stroke-width="1" stroke-linecap="round" stroke-linejoin="round" stroke-dasharray="1,6" fill="#eee" fill-opacity="0.5" fill-rule="evenodd" d="M729 375L738 362L734 355L735 354L732 353L733 351L731 349L735 340L735 336L748 329L747 326L741 327L739 330L730 328L725 330L719 330L713 334L704 336L703 339L699 339L698 343L684 342L675 351L670 351L671 354L668 358L668 361L663 363L664 365L662 370L655 377L654 376L650 378L649 384L641 383L637 385L632 384L628 387L625 387L623 385L619 387L615 385L616 382L602 380L603 383L606 385L604 389L599 389L596 391L597 393L594 393L590 391L588 386L584 385L583 383L582 384L581 381L579 384L577 384L575 392L571 394L571 396L569 397L572 405L574 405L575 407L574 409L570 410L568 414L570 414L574 418L578 417L582 413L584 416L587 414L586 417L589 419L588 416L590 413L591 414L589 418L589 424L587 424L586 426L583 424L582 425L593 438L597 438L605 445L607 445L606 443L608 442L617 442L618 440L621 442L624 440L626 442L625 443L627 443L628 437L627 438L630 432L625 428L626 427L617 422L614 415L608 415L607 413L608 409L605 406L606 404L610 402L611 403L611 399L617 396L622 397L629 395L629 393L634 392L633 401L644 401L643 398L650 396L657 398L655 405L660 407L662 404L664 404L665 406L672 404L675 407L677 407L680 403L681 404L684 401L686 401L685 400L686 397L688 397L687 394L690 387L690 382L695 374L699 375L703 370L715 371L716 367L719 368L724 363L725 356L726 357L730 354L729 359L731 359L731 361L729 361L729 370zM633 431L633 437L637 432L633 432z" id="佳木斯市"/><path class="leaflet-interactive" stroke="#333" stroke-opacity="1" stroke-width="1" stroke-linecap="round" stroke-linejoin="round" stroke-dasharray="1,6" fill="#eee" fill-opacity="0.5" fill-rule="evenodd" d="M637 432L633 437L633 431L629 432L629 436L627 438L628 437L628 441L625 444L625 440L621 441L618 439L617 442L611 441L607 443L607 445L605 445L600 440L599 441L592 437L588 439L588 446L591 450L590 457L592 459L593 458L594 460L597 458L600 461L602 460L604 462L607 458L613 461L617 457L618 459L623 459L626 461L628 458L627 457L631 455L631 451L635 446L638 446L640 448L646 442L646 438L641 440L639 438L640 434L637 433z" id="七台河市"/><path class="leaflet-interactive" stroke="#333" stroke-opacity="1" stroke-width="1" stroke-linecap="round" stroke-linejoin="round" stroke-dasharray="1,6" fill="#eee" fill-opacity="0.5" fill-rule="evenodd" d="M528 514L530 511L534 512L535 527L538 531L540 538L544 540L543 545L549 554L552 555L559 552L560 542L563 543L567 539L576 539L578 536L577 535L580 533L584 533L584 539L586 541L596 531L595 536L597 538L597 548L603 551L604 550L604 552L611 556L612 559L616 556L621 559L626 556L623 554L623 542L625 538L624 534L626 532L620 502L618 498L616 496L615 497L614 492L610 488L607 490L602 484L598 485L597 483L599 481L598 480L600 473L609 464L609 460L607 458L604 462L602 460L600 461L598 458L595 460L591 459L591 450L588 446L581 446L579 443L577 444L577 448L571 448L570 451L567 452L567 454L566 453L563 455L562 460L555 461L555 463L557 464L556 466L558 471L554 473L556 476L558 475L559 478L555 481L557 483L552 486L554 489L554 493L553 492L549 494L542 504L534 503L527 512L528 513z" id="牡丹江市"/><path class="leaflet-interactive" stroke="#333" stroke-opacity="1" stroke-width="1" stroke-linecap="round" stroke-linejoin="round" stroke-dasharray="1,6" fill="#eee" fill-opacity="0.5" fill-rule="evenodd" d="M456 204L455 206L454 205L454 207L452 207L453 208L450 212L448 212L448 214L450 215L450 222L447 225L445 225L446 226L444 226L444 228L441 228L442 230L440 230L441 231L438 239L437 238L438 239L434 242L435 243L432 244L432 247L434 247L433 250L430 252L431 258L429 259L431 264L429 268L428 266L427 267L431 271L431 289L427 293L425 293L425 291L420 291L417 294L418 296L415 302L423 305L423 309L425 310L425 312L431 314L443 305L446 309L450 306L456 312L451 316L452 317L450 319L446 319L446 321L448 321L450 331L457 335L465 335L466 340L474 338L475 341L477 342L475 343L476 351L474 352L474 360L472 361L473 368L480 361L485 362L492 358L501 359L504 356L508 356L510 359L514 355L513 353L516 350L516 345L519 343L520 345L523 345L525 342L531 341L532 336L536 330L544 328L546 336L548 335L553 321L559 315L557 312L560 312L562 309L566 309L569 306L569 303L567 302L565 297L561 297L560 295L558 283L560 281L561 282L561 280L555 282L552 277L548 275L544 276L546 272L544 270L543 272L540 270L533 270L530 273L527 273L520 270L514 270L513 268L510 267L509 262L506 261L505 259L504 251L507 239L500 236L498 233L500 230L497 227L500 221L497 217L497 213L489 201L483 204L471 204L463 199L459 203L456 203z" id="黑河市"/><path class="leaflet-interactive" stroke="#333" stroke-opacity="1" stroke-width="1" stroke-linecap="round" stroke-linejoin="round" stroke-dasharray="1,6" fill="#eee" fill-opacity="0.5" fill-rule="evenodd" d="M448 464L451 465L453 460L457 456L459 458L461 456L465 457L466 454L467 455L467 449L465 446L466 445L463 444L461 440L466 440L467 438L468 439L475 432L476 427L479 423L480 424L495 412L497 413L498 411L503 413L506 419L514 414L515 416L523 419L525 417L526 418L526 416L528 416L522 414L521 410L508 396L519 391L528 391L531 387L535 385L537 379L537 377L535 380L535 378L527 370L530 362L528 359L529 356L531 357L531 353L526 350L525 351L524 344L521 345L519 343L516 345L516 350L513 353L514 355L510 359L509 356L505 356L503 358L492 358L485 362L478 362L474 366L472 372L473 373L470 377L450 381L434 382L434 389L432 392L434 396L433 395L428 403L428 407L432 411L430 412L432 419L428 418L432 420L432 422L429 423L429 420L426 420L423 423L425 425L425 430L421 433L420 439L426 439L426 442L428 441L430 436L428 437L428 435L426 435L426 430L427 433L429 433L431 436L435 436L437 448L446 447L446 450L449 453L446 453L449 456L446 459L448 462L447 463z" id="绥化市"/><path class="leaflet-interactive" stroke="#333" stroke-opacity="1" stroke-width="1" stroke-linecap="round" stroke-linejoin="round" stroke-dasharray="1,6" fill="#eee" fill-opacity="0.5" fill-rule="evenodd" d="M489 200L485 196L484 189L487 183L484 183L485 187L482 185L482 183L485 182L485 180L481 177L483 173L477 168L479 167L479 163L475 159L474 155L470 150L470 147L474 142L472 139L465 137L469 133L466 131L467 127L464 123L462 123L462 120L458 116L457 117L454 115L458 111L457 108L459 108L457 106L454 108L450 100L446 102L445 100L447 96L443 90L440 92L438 89L430 84L420 86L419 90L418 87L414 86L413 84L405 83L402 77L399 75L396 76L393 73L392 74L388 69L381 68L379 65L377 68L376 65L375 68L374 66L368 65L356 70L344 71L339 70L339 68L337 68L330 72L323 72L311 77L316 82L316 86L319 87L321 91L316 98L314 102L315 103L300 116L304 117L311 124L315 124L319 132L324 133L332 121L333 123L337 123L337 125L340 128L341 127L342 131L346 134L349 133L352 135L350 140L347 141L347 144L355 171L354 175L359 183L368 186L373 186L380 183L382 179L389 184L398 182L401 185L402 184L402 186L404 186L407 180L409 180L411 183L416 180L419 180L421 174L426 171L425 170L427 166L433 168L435 167L447 186L451 189L453 194L455 193L457 201L458 200L456 204L463 199L471 204L483 204L487 203L488 201zM396 222L394 221L394 223L391 224L391 228L389 231L385 227L384 228L384 233L389 241L395 238L400 238L400 241L403 240L402 233L405 231L405 224L397 222z" id="大兴安岭地区"/></g></svg>