<?xml version="1.0" encoding="UTF-8" standalone="no"?>
<svg
   pointer-events="none"
   class="leaflet-zoom-animated"
   width="1133"
   height="886"
   viewBox="-92 -181 1133 886"
   style="transform: translate3d(-92px, -181px, 0px);"
   version="1.1"
   id="svg1"
   sodipodi:docname="黑龙江省.svg"
   inkscape:version="1.4 (86a8ad7, 2024-10-11)"
   xmlns:inkscape="http://www.inkscape.org/namespaces/inkscape"
   xmlns:sodipodi="http://sodipodi.sourceforge.net/DTD/sodipodi-0.dtd"
   xmlns="http://www.w3.org/2000/svg"
   xmlns:svg="http://www.w3.org/2000/svg">
  <defs
     id="defs1" />
  <sodipodi:namedview
     id="namedview1"
     pagecolor="#ffffff"
     bordercolor="#000000"
     borderopacity="0.25"
     inkscape:showpageshadow="2"
     inkscape:pageopacity="0.0"
     inkscape:pagecheckerboard="0"
     inkscape:deskcolor="#d1d1d1"
     inkscape:zoom="1.7539503"
     inkscape:cx="663.35972"
     inkscape:cy="520.25418"
     inkscape:window-width="1920"
     inkscape:window-height="991"
     inkscape:window-x="-9"
     inkscape:window-y="1341"
     inkscape:window-maximized="1"
     inkscape:current-layer="svg1" />
  <path
     class="leaflet-interactive"
     stroke="#000000"
     stroke-opacity="1"
     stroke-width="2"
     stroke-linecap="round"
     stroke-linejoin="round"
     fill="#ffffff"
     fill-opacity="0.2"
     fill-rule="evenodd"
     d="m 445,465 2,8 -1,1 7,6 1,-1 2,2 7,1 6,-4 5,-1 7,5 h 4 l 5,8 -3,6 2,12 5,-4 2,2 4,-1 6,3 -3,3 v 4 l 5,6 v 4 h 3 v 3 l 2,2 3,1 6,-2 v -11 l 4,-1 4,-6 4,1 1,15 3,4 2,7 4,2 -1,5 6,9 3,1 7,-3 1,-10 3,1 4,-4 h 9 l 2,-3 -1,-1 3,-2 h 4 v 6 l 2,2 10,-10 -1,5 2,2 v 10 l 6,3 1,-1 v 2 l 7,4 1,3 4,-3 5,3 3,-1 2,-2 -3,-2 v -12 l 2,-4 -1,-4 2,-2 -6,-30 -2,-4 -2,-2 -1,1 v -2 l 5,-2 v -2 l 5,1 3,-3 3,1 7,-6 v -5 h 3 l 4,-6 3,4 30,10 4,-1 3,-5 -1,-6 3,-9 6,-4 2,-4 h 2 l -2,-2 2,-4 -1,-2 2,-3 2,2 v -3 l 3,-2 2,-4 -2,-5 7,-4 -1,-5 2,-2 -1,-2 h -2 v -2 l 6,-10 v -9 l 3,-9 3,-1 v -4 l -2,-3 1,-4 4,-5 7,-1 8,-12 -4,-7 1,-1 -3,-1 1,-2 -2,-2 4,-9 v -4 l 13,-7 v -2 l -4,-1 -3,1 -2,3 -9,-2 -5,2 h -6 l -6,4 -9,2 -1,3 h -4 l -1,4 -14,-1 -9,9 h -5 l 1,3 -4,8 -6,-3 -4,3 h -8 l -2,2 -7,-2 -4,3 -2,-4 -3,-1 -14,3 -2,-2 v -5 l -2,-4 -7,-8 5,-10 v -2 l -3,-3 v -6 l -3,2 -1,-5 -2,-1 1,-7 4,-6 -1,-1 -5,2 -2,-3 h -2 l -4,2 -11,-8 -2,-7 h -3 l -1,-2 v -4 h -6 l -1,-6 -3,-1 -4,4 -1,-2 -6,2 -3,-5 -4,-2 -4,1 2,-4 -2,-2 -1,2 -3,-2 h -7 l -3,3 -10,-3 -3,1 -7,-4 -1,-5 -3,-1 -2,-13 3,-5 v -4 l -7,-3 -2,-3 2,-3 -3,-3 3,-6 -3,-4 v -4 l -5,-9 -7,-8 -1,-7 3,-6 h -3 l 1,4 -3,-2 v -2 l 3,-1 v -2 l -4,-3 2,-4 -6,-5 2,-1 v -4 l -4,-4 -1,-4 -4,-5 v -3 l 4,-5 -2,-3 -7,-2 4,-4 -3,-2 1,-4 -3,-4 h -2 v -3 l -4,-4 -1,1 -3,-2 4,-4 -1,-3 h 2 l -2,-2 -3,2 -4,-8 -4,2 -1,-2 2,-4 -4,-6 -3,2 -2,-3 -8,-5 -10,2 -1,4 -1,-3 -4,-1 -1,-2 -8,-1 -3,-6 -3,-2 -3,1 -3,-3 -1,1 -4,-5 -7,-1 -2,-3 -2,3 -1,-3 -1,3 -1,-2 -6,-1 -12,5 -14,1 -3,-1 v -2 h -2 l -7,4 h -7 l -12,5 5,5 v 4 l 3,1 2,4 -5,7 -2,4 1,1 -15,13 4,1 7,7 h 4 l 4,8 5,1 8,-12 1,2 h 4 v 2 l 3,3 1,-1 1,4 4,3 3,-1 3,2 -2,5 -3,1 v 3 l 8,27 -1,4 5,8 9,3 h 5 l 7,-3 2,-4 7,5 9,-2 3,3 1,-1 v 2 h 2 l 3,-6 h 2 l 2,3 5,-3 h 3 l 2,-6 5,-3 -1,-1 2,-4 6,2 2,-1 12,19 4,3 2,5 2,-1 2,8 1,-1 -3,6 -1,-1 -4,7 h -2 v 2 l 2,1 v 7 l -3,3 h -2 l 1,1 h -2 v 2 h -3 l 1,2 h -2 l 1,1 -3,8 -1,-1 1,1 -4,3 1,1 -3,1 v 3 h 2 l -1,3 -3,2 1,6 -2,1 2,5 -2,4 -1,-2 -1,1 4,4 v 18 l -4,4 h -2 v -2 h -5 l -3,3 1,2 -6,12 -1,8 -3,5 1,5 -2,1 3,7 -1,5 -4,5 v -7 l -4,-6 1,-3 -3,-6 -23,25 -8,4 -4,8 -18,11 -2,2 -1,5 -3,2 5,9 5,4 4,1 -2,5 h 3 l 1,6 4,5 5,-2 2,-5 3,1 2,-3 -1,-3 h -2 l 3,2 3,-1 v 6 h 2 l 1,-3 1,8 -8,2 -5,4 -6,-1 1,2 h -2 v 6 l 6,9 3,-1 3,2 h 6 l 11,-4 v 2 h 2 v 5 l 2,2 v 6 l -2,1 v 2 l 3,2 -1,5 4,5 -1,1 3,1 3,4 h 2 v 4 h 4 l 2,2 7,-3 1,2 3,-1 1,-4 6,7 4,-2 4,1 2,-4 z m -49,-243 -2,-1 v 2 l -3,1 v 4 l -2,3 -4,-4 -1,1 v 5 l 5,8 6,-3 h 5 v 3 l 3,-1 -1,-7 3,-2 v -7 l -8,-2 z"
     id="黑龙江省" />
  <path
     class="leaflet-interactive"
     stroke="#333333"
     stroke-opacity="1"
     stroke-width="1"
     stroke-linecap="round"
     stroke-linejoin="round"
     stroke-dasharray="1, 6"
     fill="#eeeeee"
     fill-opacity="0.5"
     fill-rule="evenodd"
     d="m 448,464 -3,1 2,8 -1,1 7,6 1,-1 2,2 7,1 6,-4 5,-1 7,5 h 4 l 5,8 -3,6 2,12 5,-4 2,2 4,-1 6,3 -3,3 v 4 l 5,6 v 4 h 3 v 3 l 5,3 6,-2 v -11 l 4,-1 2,-4 -1,-1 6,-9 9,1 7,-10 4,-2 1,1 v -4 l -2,-3 5,-3 -2,-2 4,-3 -1,-3 -2,1 -2,-3 4,-2 -3,-10 7,-1 1,-5 h 2 v -2 l 2,1 v -2 h 2 l 2,-4 7,-1 v -4 l 5,4 4,-1 1,-7 h 2 l 1,-2 -2,-5 -7,-7 1,-1 3,2 3,-2 v -6 l 2,-4 -1,-1 -2,2 1,4 -4,-2 2,-3 -3,2 -2,-2 -8,4 -3,-4 -8,-2 -5,4 v 2 l -3,-1 -2,3 -4,-2 -7,2 1,-2 -8,-5 -3,2 1,1 -5,-1 -2,1 v 2 l -1,-1 -2,2 -9,-5 -7,5 -3,-2 -2,-5 h -7 l -15,12 -1,-1 -5,10 -4,3 -1,3 -1,-1 -2,2 h -5 l 2,4 3,1 -1,1 2,2 v 7 l -1,-1 -1,3 -4,-1 -2,2 -2,-2 -5,7 -4,2 z"
     id="230100" />
  <path
     class="leaflet-interactive"
     stroke="#333333"
     stroke-opacity="1"
     stroke-width="1"
     stroke-linecap="round"
     stroke-linejoin="round"
     stroke-dasharray="1, 6"
     fill="#eeeeee"
     fill-opacity="0.5"
     fill-rule="evenodd"
     d="m 415,303 -7,18 1,5 -2,1 3,9 -3,6 -2,2 v -7 l -4,-6 1,-3 -3,-6 -23,25 -8,4 -4,8 -18,11 -2,2 -1,5 -3,2 5,9 5,4 4,1 -2,5 h 3 l 1,6 4,5 5,-2 2,-5 3,1 2,-3 -1,-3 h -2 l 3,2 3,-1 v 6 h 2 l 1,-3 1,2 -1,7 -7,1 -5,4 -6,-1 1,2 h -2 v 6 l 6,9 3,-1 3,2 h 6 l 9,-3 1,-5 -4,-14 2,-2 2,2 h 3 l 1,-5 -2,-4 3,-4 -1,-1 h 2 l 4,-6 8,-3 v -8 l 6,2 14,-8 1,4 7,1 1,4 h 5 l 31,-4 3,-5 -1,-12 h 2 v -9 l 2,-2 -2,-5 3,-3 -2,-1 -1,-3 -8,2 -1,-4 -5,-2 -3,1 -3,-3 -4,-1 -1,-10 h -2 l -1,-2 h 4 l 2,-2 -1,-1 5,-4 -6,-6 -3,3 -4,-4 -10,8 h -6 l -4,-4 1,-3 -7,-3 z"
     id="230200" />
  <path
     class="leaflet-interactive"
     stroke="#333333"
     stroke-opacity="1"
     stroke-width="1"
     stroke-linecap="round"
     stroke-linejoin="round"
     stroke-dasharray="1, 6"
     fill="#eeeeee"
     fill-opacity="0.5"
     fill-rule="evenodd"
     d="m 642,447 -7,-1 v 2 h -2 l -2,3 1,4 h -3 l -3,6 -9,-3 h -2 l -2,3 -3,-1 -2,3 1,1 -4,3 1,1 -6,5 -2,6 1,1 -2,3 3,3 2,-2 5,6 h 2 l 1,-2 5,7 5,-2 v -2 l 5,1 3,-3 3,1 7,-6 v -5 h 3 l 4,-6 3,4 30,10 4,-1 3,-5 v -11 l 2,-4 6,-4 2,-4 h 2 l -2,-2 2,-4 -1,-2 2,-3 2,2 v -3 l 3,-2 2,-4 -2,-5 7,-4 -1,-5 2,-2 -1,-2 h -2 v -4 l -9,-1 -2,2 -1,-3 -3,1 -2,-3 -3,2 v 4 h -3 l -2,2 -3,11 -3,2 1,1 -2,1 -3,-3 -9,9 -6,-2 v 5 l -3,4 -1,-1 -5,2 -3,-3 -2,4 h -2 v -4 z"
     id="230300" />
  <path
     class="leaflet-interactive"
     stroke="#333333"
     stroke-opacity="1"
     stroke-width="1"
     stroke-linecap="round"
     stroke-linejoin="round"
     stroke-dasharray="1, 6"
     fill="#eeeeee"
     fill-opacity="0.5"
     fill-rule="evenodd"
     d="m 609,331 -5,3 h -4 l -1,-2 h -2 l -5,4 v 3 l -4,2 -8,-8 -3,4 v 11 l -3,1 v 2 l 3,8 4,2 1,4 -2,5 1,5 -2,1 2,3 -2,2 h 2 l 1,3 1,-1 5,3 1,3 5,4 h 2 v -2 h 2 l -1,-1 2,-1 3,1 4,-4 -4,-6 8,2 6,-1 -1,4 4,2 2,-2 6,2 5,-3 h 17 l 1,-6 4,-2 1,1 7,-7 2,-5 -1,-1 2,-1 -1,-2 -3,-2 -4,3 h -8 l -2,2 -7,-2 -4,3 -2,-4 -3,-1 -14,3 -2,-2 v -5 l -2,-4 -7,-8 5,-12 z"
     id="230400" />
  <path
     class="leaflet-interactive"
     stroke="#333333"
     stroke-opacity="1"
     stroke-width="1"
     stroke-linecap="round"
     stroke-linejoin="round"
     stroke-dasharray="1, 6"
     fill="#eeeeee"
     fill-opacity="0.5"
     fill-rule="evenodd"
     d="m 729,375 v -14 h 2 v -2 h -2 l 1,-5 -4,2 -4,9 -4,3 -2,-1 -1,4 -12,-1 -2,1 -1,4 -4,-1 -6,8 -3,13 1,2 h -2 l -1,2 1,2 h -2 l -3,3 -1,-1 -5,4 -3,-2 -6,1 -2,-2 h -2 l -1,3 -5,-2 -1,-3 2,-4 -11,-2 -3,2 1,3 h -11 l 1,-9 -5,1 v 2 l -6,2 -4,1 -1,-2 -7,3 v 4 l -1,-1 -4,2 v 4 l 2,3 -1,2 1,2 h 6 l 3,7 6,4 1,-1 2,2 -1,1 3,2 12,3 -1,4 2,2 h 5 v 3 l -4,4 v 6 h 2 l 2,-4 3,3 5,-2 1,1 3,-3 v -5 h 7 l 7,-8 3,3 3,-1 -1,-1 h 2 l 1,-2 3,-11 2,-2 h 3 v -4 l 3,-2 2,3 3,-1 1,3 2,-2 10,1 5,-8 v -9 l 3,-9 3,-1 v -4 l -2,-3 1,-4 4,-5 h 5 z"
     id="230500" />
  <path
     class="leaflet-interactive"
     stroke="#333333"
     stroke-opacity="1"
     stroke-width="1"
     stroke-linecap="round"
     stroke-linejoin="round"
     stroke-dasharray="1, 6"
     fill="#eeeeee"
     fill-opacity="0.5"
     fill-rule="evenodd"
     d="m 434,382 -1,-4 -7,-1 -1,-4 -14,8 -6,-2 v 8 l -8,3 -4,4 v 2 h -2 l 1,1 -3,4 2,4 -1,4 -3,2 -1,-3 h -2 l -1,2 v 3 l 2,2 v 7 l 2,1 -1,5 h 2 v 2 l 1,-1 2,3 -1,3 2,2 v 6 l -2,1 v 2 l 3,2 -1,5 4,5 -1,1 3,1 3,4 h 2 v 4 h 4 l 2,2 7,-3 1,2 3,-1 1,-4 6,7 4,-2 4,1 2,-4 11,-2 v -4 l -2,-1 3,-3 -3,-3 h 3 l -3,-2 v -4 l -9,1 -2,-11 -8,-3 -1,-4 v 5 h 2 v 2 l 2,-1 -2,5 -2,1 1,-1 -2,-2 h -6 l 2,-1 v -5 l 4,-2 v -6 l -2,-2 2,-3 h 4 l -2,2 1,1 4,-1 v -2 l -4,-2 3,1 1,-2 -3,-5 h 3 l -4,-5 v -3 l 5,-9 1,1 -2,-4 2,-3 z"
     id="230600" />
  <path
     class="leaflet-interactive"
     stroke="#333333"
     stroke-opacity="1"
     stroke-width="1"
     stroke-linecap="round"
     stroke-linejoin="round"
     stroke-dasharray="1, 6"
     fill="#eeeeee"
     fill-opacity="0.5"
     fill-rule="evenodd"
     d="m 528,416 h 4 l 3,-3 3,3 h 4 v 3 l 2,1 h 3 l 1,-2 5,2 v -2 l 2,-1 3,1 v -2 l 3,-3 2,-1 5,2 3,-5 4,-1 v -3 l -4,-2 -2,-5 2,-1 -1,-3 5,-1 -1,-3 2,-1 1,-5 4,-2 -2,-1 2,-2 -2,-2 3,-12 -2,-5 -3,-1 -3,-8 v -2 l 3,-1 v -11 l 4,-4 6,8 5,-1 v -4 l 2,-2 5,-2 2,2 h 3 l 5,-3 -1,-8 -3,2 -1,-5 -2,-1 1,-7 4,-6 -3,-1 -3,2 -2,-3 -6,2 -11,-8 -2,-7 h -3 l -1,-2 v -4 l -5,1 -1,-6 -4,-2 -2,1 v 2 h -4 l -2,2 v 5 l 2,3 v 4 l 6,3 3,6 -1,2 -2,3 h -4 l -2,2 1,1 h -4 l 2,3 -6,6 -4,13 -2,2 -2,-2 -1,-6 h -2 l -6,2 -3,3 -3,8 -5,1 v 9 l 1,-1 5,3 v 4 l -1,-1 -2,3 2,2 -3,9 5,7 3,1 v 2 l 1,-3 h 2 l -3,8 -9,6 h -7 l -11,5 8,8 6,8 v 2 l 5,2 z"
     id="230700" />
  <path
     class="leaflet-interactive"
     stroke="#333333"
     stroke-opacity="1"
     stroke-width="1"
     stroke-linecap="round"
     stroke-linejoin="round"
     stroke-dasharray="1, 6"
     fill="#eeeeee"
     fill-opacity="0.5"
     fill-rule="evenodd"
     d="m 729,375 9,-13 -4,-7 1,-1 -3,-1 1,-2 -2,-2 4,-9 v -4 l 13,-7 -1,-3 -6,1 -2,3 -9,-2 -5,2 h -6 l -6,4 -9,2 -1,3 h -4 l -1,4 -14,-1 -9,9 h -5 l 1,3 -3,4 v 3 l -5,2 1,2 -2,5 -7,7 -1,-1 -4,2 -1,6 -8,-1 -4,2 -5,-1 -4,3 h -3 l -2,-2 -4,2 -4,-2 1,-3 -14,-2 1,3 3,2 -2,4 h -5 l -3,2 1,2 h -3 l -4,-2 -2,-5 -4,-1 -1,-2 -1,1 -1,-3 -2,3 h -2 l -2,8 -4,2 v 2 l -2,1 3,8 h 2 l 1,2 -1,2 -4,1 -2,4 h 2 l 4,4 4,-1 4,-4 2,3 3,-2 -1,3 3,2 -1,-3 2,-3 1,1 -2,4 v 6 h -2 l -1,2 -3,-2 -1,1 11,13 h 4 l 8,7 h 2 l -1,-2 2,-1 h 9 l 1,-2 3,2 3,-2 2,2 -1,1 h 2 l 1,-6 -1,1 3,-6 -5,-4 1,-1 -9,-5 -3,-7 h -6 l -1,-2 1,-4 -3,-3 1,-2 4,-2 1,1 v -4 l 6,-3 5,1 7,-2 v -2 l 5,-1 -1,9 h 11 l -1,-3 7,-2 7,2 -2,7 5,2 2,-3 h 2 l 1,2 7,-2 3,3 h 2 l 3,-4 1,1 3,-3 h 2 l -1,-1 1,-3 h 2 l -1,-3 3,-7 v -5 l 5,-8 4,1 4,-5 12,1 1,-4 3,1 5,-5 1,-7 1,1 4,-3 -1,5 h 2 v 2 h -2 v 9 z m -96,56 v 6 l 4,-5 h -4 z"
     id="230800" />
  <path
     class="leaflet-interactive"
     stroke="#333333"
     stroke-opacity="1"
     stroke-width="1"
     stroke-linecap="round"
     stroke-linejoin="round"
     stroke-dasharray="1, 6"
     fill="#eeeeee"
     fill-opacity="0.5"
     fill-rule="evenodd"
     d="m 637,432 -4,5 v -6 l -4,1 v 4 l -2,2 1,-1 v 4 l -3,3 v -4 l -4,1 -3,-2 -1,3 -6,-1 -4,2 v 2 h -2 l -5,-5 -1,1 -7,-4 -4,2 v 7 l 3,4 -1,7 2,2 1,-1 1,2 3,-2 3,3 2,-1 2,2 3,-4 6,3 4,-4 1,2 h 5 l 3,2 2,-3 -1,-1 4,-2 v -4 l 4,-5 h 3 l 2,2 6,-6 v -4 l -5,2 -2,-2 1,-4 -3,-1 z"
     id="230900" />
  <path
     class="leaflet-interactive"
     stroke="#333333"
     stroke-opacity="1"
     stroke-width="1"
     stroke-linecap="round"
     stroke-linejoin="round"
     stroke-dasharray="1, 6"
     fill="#eeeeee"
     fill-opacity="0.5"
     fill-rule="evenodd"
     d="m 528,514 2,-3 4,1 1,15 3,4 2,7 4,2 -1,5 6,9 3,1 7,-3 1,-10 3,1 4,-4 h 9 l 2,-3 -1,-1 3,-2 h 4 v 6 l 2,2 10,-10 -1,5 2,2 v 10 l 6,3 1,-1 v 2 l 7,4 1,3 4,-3 5,3 5,-3 -3,-2 v -12 l 2,-4 -1,-4 2,-2 -6,-30 -2,-4 -2,-2 -1,1 -1,-5 -4,-4 -3,2 -5,-6 -4,1 -1,-2 2,-2 -1,-1 2,-7 9,-9 v -4 l -2,-2 -3,4 -2,-2 -2,1 -2,-3 -3,2 -4,-1 v -9 l -3,-4 h -7 l -2,-3 -2,1 v 4 h -6 l -1,3 -3,1 v 2 l -1,-1 -3,2 -1,5 -7,1 v 2 l 2,1 -1,2 2,5 -4,2 2,3 2,-1 1,3 -4,3 2,2 -5,3 2,3 v 4 l -1,-1 -4,2 -7,10 -8,-1 -7,9 1,1 z"
     id="231000" />
  <path
     class="leaflet-interactive"
     stroke="#333333"
     stroke-opacity="1"
     stroke-width="1"
     stroke-linecap="round"
     stroke-linejoin="round"
     stroke-dasharray="1, 6"
     fill="#eeeeee"
     fill-opacity="0.5"
     fill-rule="evenodd"
     d="m 456,204 -1,2 -1,-1 v 2 h -2 l 1,1 -3,4 h -2 v 2 l 2,1 v 7 l -3,3 h -2 l 1,1 h -2 v 2 h -3 l 1,2 h -2 l 1,1 -3,8 -1,-1 1,1 -4,3 1,1 -3,1 v 3 h 2 l -1,3 -3,2 1,6 -2,1 2,5 -2,4 -1,-2 -1,1 4,4 v 18 l -4,4 h -2 v -2 h -5 l -3,3 1,2 -3,6 8,3 v 4 l 2,1 v 2 l 6,2 12,-9 3,4 4,-3 6,6 -5,4 1,1 -2,2 h -4 v 2 h 2 l 2,10 7,4 h 8 l 1,5 8,-2 1,3 2,1 -2,1 1,8 -2,1 v 8 l -2,1 1,7 7,-7 5,1 7,-4 9,1 3,-3 h 4 l 2,3 4,-4 -1,-2 3,-3 v -5 l 3,-2 1,2 h 3 l 2,-3 6,-1 1,-5 4,-6 8,-2 2,8 2,-1 5,-14 6,-6 -2,-3 h 3 l 2,-3 h 4 l 3,-3 v -3 l -2,-1 -2,-5 h -4 l -1,-2 -2,-12 2,-2 1,1 v -2 l -6,2 -3,-5 -4,-2 -4,1 2,-4 -2,-2 -1,2 -3,-2 h -7 l -3,3 h -3 l -7,-3 h -6 l -1,-2 -3,-1 -1,-5 -3,-1 -1,-2 -1,-8 3,-12 -7,-3 -2,-3 2,-3 -3,-3 3,-6 -3,-4 v -4 l -8,-12 -6,3 h -12 l -8,-5 -4,4 h -3 z"
     id="231100" />
  <path
     class="leaflet-interactive"
     stroke="#333333"
     stroke-opacity="1"
     stroke-width="1"
     stroke-linecap="round"
     stroke-linejoin="round"
     stroke-dasharray="1, 6"
     fill="#eeeeee"
     fill-opacity="0.5"
     fill-rule="evenodd"
     d="m 448,464 3,1 2,-5 4,-4 2,2 2,-2 4,1 1,-3 1,1 v -6 l -2,-3 1,-1 -3,-1 -2,-4 h 5 l 1,-2 1,1 7,-7 1,-5 3,-4 1,1 15,-12 2,1 1,-2 5,2 3,6 8,-5 1,2 8,3 2,-2 1,1 v -2 h 2 l -6,-2 -1,-4 -13,-14 11,-5 h 9 l 3,-4 4,-2 2,-6 v -2 l -2,3 v -2 l -8,-8 3,-8 -2,-3 1,-3 2,1 v -4 l -5,-3 -1,1 -1,-7 -3,1 -2,-2 -3,2 v 5 l -3,3 1,2 -4,4 -1,-3 h -4 l -2,2 h -11 l -7,4 h -7 l -4,4 -2,6 1,1 -3,4 -20,4 -16,1 v 7 l -2,3 2,4 -1,-1 -5,8 v 4 l 4,4 -2,1 2,7 -4,-1 4,2 v 2 l -3,1 v -3 h -3 l -3,3 2,2 v 5 l -4,3 -1,6 h 6 v 3 l 2,-1 2,-5 -2,1 v -2 h -2 v -5 l 1,3 h 2 l 2,3 h 4 l 2,12 9,-1 v 3 l 3,3 h -3 l 3,3 -3,3 2,3 -1,1 z"
     id="231200" />
  <path
     class="leaflet-interactive"
     stroke="#333333"
     stroke-opacity="1"
     stroke-width="1"
     stroke-linecap="round"
     stroke-linejoin="round"
     stroke-dasharray="1, 6"
     fill="#eeeeee"
     fill-opacity="0.5"
     fill-rule="evenodd"
     d="m 489,200 -4,-4 -1,-7 3,-6 h -3 l 1,4 -3,-2 v -2 l 3,-1 v -2 l -4,-3 2,-4 -6,-5 2,-1 v -4 l -4,-4 -1,-4 -4,-5 v -3 l 4,-5 -2,-3 -7,-2 4,-4 -3,-2 1,-4 -3,-4 h -2 v -3 l -4,-4 -1,1 -3,-2 4,-4 -1,-3 h 2 l -2,-2 -3,2 -4,-8 -4,2 -1,-2 2,-4 -4,-6 -3,2 -2,-3 -8,-5 -10,2 -1,4 -1,-3 -4,-1 -1,-2 -8,-1 -3,-6 -3,-2 -3,1 -3,-3 -1,1 -4,-5 -7,-1 -2,-3 -2,3 -1,-3 -1,3 -1,-2 -6,-1 -12,5 -12,1 -5,-1 v -2 h -2 l -7,4 h -7 l -12,5 5,5 v 4 l 3,1 2,4 -5,7 -2,4 1,1 -15,13 4,1 7,7 h 4 l 4,8 5,1 8,-12 1,2 h 4 v 2 l 3,3 1,-1 1,4 4,3 3,-1 3,2 -2,5 -3,1 v 3 l 8,27 -1,4 5,8 9,3 h 5 l 7,-3 2,-4 7,5 9,-2 3,3 1,-1 v 2 h 2 l 3,-6 h 2 l 2,3 5,-3 h 3 l 2,-6 5,-3 -1,-1 2,-4 6,2 2,-1 12,19 4,3 2,5 2,-1 2,8 1,-1 -2,4 7,-5 8,5 h 12 l 4,-1 1,-2 z m -93,22 -2,-1 v 2 l -3,1 v 4 l -2,3 -4,-4 -1,1 v 5 l 5,8 6,-3 h 5 v 3 l 3,-1 -1,-7 3,-2 v -7 l -8,-2 z"
     id="232700" />
</svg>
